<svg id="Warstwa_1" data-name="Warstwa 1" xmlns="http://www.w3.org/2000/svg" viewBox="0 0 1419.28 385.62">
<?xml-stylesheet type="text/css" href="./css/bundle.css" ?>
<title>bg_top</title><g id="top-right-element"><path id="Path_8" data-name="Path 8" d="M3.37,0s233,164.86,425.49,157.19,223.7,176.8,457.2,74.28c21.25-9.33,40.81-17,58.84-23.16,180.09-61.57,207,26.63,230.5,102.16,25.82,83.09,96.75,108.37,172.86,16.49s71-95.49,71-95.49V0Z" transform="translate(-0.02 0.37)" fill="#f3f3f3"/><path id="Path_7" data-name="Path 7" d="M128.43,0s212.42,160.33,387.9,153.34,203.94,161.18,416.82,67.71c19.38-8.5,37.21-15.49,53.66-21.11,164.18-56.13,188.73,24.28,210.13,93.14,23.54,75.75,88.2,98.79,157.6,15s64.69-87.06,64.69-87.06V0Z" transform="translate(-0.02 0.37)" fill="#ff6f61"/><path id="Path_9" data-name="Path 9" d="M.36,0S200.45,184.76,424,157.45s185.29,140.06,398.17,46.6c19.38-8.5,37.21-15.49,53.66-21.11,164.18-56.13,188.73,24.28,210.13,93.13,23.55,75.75,88.2,98.8,157.6,15" transform="translate(-0.02 0.37)" fill="none" stroke="#ff6f61"/></g></svg>