<?xml version="1.0" encoding="utf-8"?>
<!-- Generator: Adobe Illustrator 23.0.6, SVG Export Plug-In . SVG Version: 6.00 Build 0)  -->
<svg version="1.1" id="svg--format" xmlns="http://www.w3.org/2000/svg" xmlns:xlink="http://www.w3.org/1999/xlink" x="0px"
	 y="0px" viewBox="0 0 823.4 691.4" style="enable-background:new 0 0 823.4 691.4;" xml:space="preserve">
<style type="text/css">
	.st0{fill:none;stroke:#444053;stroke-miterlimit:10;}
	.st1{fill:url(#Path_351_1_);}
	.st2{fill:#444053;}
	.st3{opacity:0.1;enable-background:new    ;}
	.st4{fill:#3F3D56;}
	.st5{fill:#A1616A;}
	.st6{fill:#EB7A6D;}
	.st7{opacity:5.000000e-02;enable-background:new    ;}
	.st8{fill:#D0D2D5;}
	.st9{fill:url(#Path_382_1_);}
	.st10{fill:#FABDBD;}
	.st11{opacity:0.1;}
	.st12{opacity:0.1;fill:#EB7A6D;enable-background:new    ;}
</style>
<path id="svg--format--ring--three" class="st0" d="M490.5,582c75,0,135.8,12.2,135.8,27.3s-60.8,27.3-135.8,27.3
	s-135.8-12.2-135.8-27.3"/>
<g id="svg--format--people">
	
		<linearGradient id="Path_351_1_" gradientUnits="userSpaceOnUse" x1="113.4674" y1="765.6701" x2="113.4674" y2="766.6701" gradientTransform="matrix(110.4051 0 0 -341.4373 -12203.1709 262016.125)">
		<stop  offset="0" style="stop-color:#808080;stop-opacity:0.251"/>
		<stop  offset="0.54" style="stop-color:#808080;stop-opacity:0.122"/>
		<stop  offset="1" style="stop-color:#808080;stop-opacity:0.102"/>
	</linearGradient>
	<path id="Path_351" class="st1" d="M269.5,339.2c0.4,1,0.8,2,1.4,3v0.1c0,0,6.4,23.8,9.4,28.8c0.9,1.4,1.9,3,2.8,4.5
		c-0.2,1.1-0.2,2.3,0,3.4c0.9,5.3,2,12.6,1.5,14.2s0.6,5.6-1.1,7s-3.5,3.8,1.8,7c0,0,1,2.7,0.1,3.3c-0.1,0.1,0,0.2,0.2,0.4
		c-1.5,4.3-3.6,11.4-2.3,11.9c0.7,0.3,2.7-0.8,4.9-2.2c0.1,0.3,0.1,0.6,0.2,0.9c0.3,2.3,0.9,4.6,1.6,6.9c1,2.2,2,5.8,1.4,7
		s1.4,3.9,1,4.9s1.5,4.5,1.5,4.5s2,6.7,1.9,8.9s2.1,16.8,2.1,16.8s-2.3,7.5-1.1,9.7s1.9,9.7,0,12.4s-4.2,8.9-3.5,10.5
		s-1.1,22,3.5,30.4c0.6,3.1,1,6.3,1.3,9.4c0,2.3,3.6,8.3,3.6,8.3s-2.2,9.1,3.2,10.6c0.4,0.1,0.8,0.2,1.1,0.2c0.2,1,0,2-0.4,2.9
		c-0.9,1.3-1.6,2.7-1.9,4.2l0,0c-0.1,0.3,0,0.6,0.1,0.9c0.6,0.7,2.3,9.7,2.3,9.7s2.4,10.1,15.7,7.6c0,0,9-0.5,8.2-3.7
		c-0.2-1-0.6-2.1-1-3c-0.3-0.6-0.6-1.3-0.8-2c-0.1-0.8-2-2.9-2.2-4.3s-1.4-4.2-1.1-5.1s-2-7.3-2.2-8.8c-0.2-1-0.5-2-0.9-2.9l0.5-0.2
		c0,0,1.2-6.7,0.2-9.2s-5.2-5.7-5.2-5.7s0.6-16.5-0.1-18.8s0.4-10.8,0.4-10.8s2.6-12.1,2.4-14.8c-0.1-1.7,0.2-3.4,0.8-4.9
		c0,0,1.6-17.7,2.6-20s2.3-24.3,2.3-24.3l0.7,2c1,3,2.2,6,3.5,8.9c0.6,0.9,2.3,3.8,3.7,6.2l2.1,3.6c0,0,1,3.5,0.3,5.7s7,13.8,7,13.8
		c-0.5,1-0.8,2.1-0.8,3.1c0.2,1.1-2.3,4.7-2.3,4.7s-1,3.2-0.4,4.3s-1,7.8-1,7.8s-2.6,14.7-3.2,16.4s0.3,13.5,0.3,13.5
		s-4.7,12.1-2.5,16.1c0.1,1.5,0.1,3.8-0.5,4.7c-0.8,1.2-0.6,5.8-0.5,7v0.3c0,0-2.6,3.4,0.7,4.8s14.2,2.4,14.2,2.4s10.5,3,15.5,3.8
		s15.6,0.5,16.4-2.5c0.3-1,0.4-1.9,0.3-2.9c-0.1-1.3-0.9-2.4-2.1-2.9c-3.1-1.2-6.3-2.3-9.5-3.1c0,0-5-1.1-5.4-3.3s-7.5-8.2-7.5-8.2
		s-0.1-0.4-0.2-1h0.2l-0.3-0.3c-0.4-1.1-0.9-2.6-1.6-2.4l0,0c-0.4-0.8-0.1-1.9,0.7-2.3c0,0,0.1,0,0.1,0c2.7-1.5,4.4-6.2,3.6-11.3
		s-0.9-4.2,0.7-7.1c1-2.2,1.4-4.6,1.1-7l4.2-15.5c0.7-1.9,1.1-3.9,1.2-5.9c0.1-1.6,0.5-3.1,1.2-4.5c0,0,1.9-10.8,3.5-13.2
		s-1.1-11.2-1.1-11.2s-2.6-13.5-2.4-19.6s-6.6-27.5-6.6-27.5c-0.9-1.4-1.2-3-1-4.6c0.1-1.3-0.7-3.3-1.6-5.2l-0.3-0.6
		c0.3-0.4,0.8-0.8,1.2-1.1c1.9-1.1,2.7-4.1,2.8-6.2l-25.7-60.6c0-0.2,11.9-24.5,11.9-24.7c-0.7-4-7.4-14.6-7.4-14.6l0,0
		c-0.1-0.1-0.2-0.2-0.3-0.3c-1.5-0.7-6.6-3.6-6.6-3.6c-4-5-7.8-6-10.2-5.9c-0.8,0-1.5,0.1-2.3,0.4c-0.3,0.1-0.5,0.2-0.8,0.3l-0.1,1
		c-0.2-2.3,0-4.6,0.5-6.8c0.1-0.2,0.1-0.4,0.2-0.6h1.1c10.1,0,18.3-8.1,18.4-18.3c0,0,0,0,0,0c0-1.7-0.2-3.4-0.7-5.1l-0.1-0.3
		l0.6-0.2c2.3-0.8,5.1,0.6,7-0.9c0.7-0.7,1.1-1.5,1.4-2.4c0.5-1.2,0.9-2.5,1-3.8c0-0.2,0-0.5,0-0.7c0-0.1,0-0.1,0-0.2
		c0-0.1,0-0.2,0-0.2v-0.3l0,0c-0.1-0.8-0.4-1.6-1-2.3c-1.2-1.4-3.2-1.8-4.7-2.8c-1.2-1-2.3-2.2-3-3.6c-0.8-1.4-1.8-2.6-2.9-3.6
		c-1.2-1-2.9-1.3-4.4-0.7c-0.4,0.3-0.9,0.5-1.5,0.7c-0.6,0-1.1-0.1-1.6-0.4c-5.2-2.4-11.4-2-17-1.3c-2.3,0.2-4.6,0.7-6.7,1.6
		c-2.2,0.9-3.8,2.7-4.5,4.9c-0.5,1.8-0.1,3.7-0.7,5.4c-0.4,1.1-1.1,2.2-1.6,3.3c-0.2,0.6-0.4,1.2-0.4,1.9l0,0v0.2
		c-0.2,2.6,0.8,5.3,1.3,8c0.7,3.6,0.3,7.6,1.9,11c0.2,0.4,0.4,0.8,0.6,1.2c-0.5,1.1-1.1,2.3-1.7,3.5c-0.8-0.2-3.4-0.8-3.5,1.4
		c0,1.8-0.4,3.6-1.2,5.3c-0.1,0.1-0.2,0.2-0.4,0.3c-0.3,0.1-0.5,0.4-0.4,0.7l0,0l-0.3,0.2c-0.1,0-0.3,0.1-0.4,0.1
		c-0.2-0.3-0.7-0.3-2.3,1.7c-2.2,2.3-4.7,4.3-7.5,5.8c0,0-11.2,7.8-11.8,11.4S267.6,334,269.5,339.2z M318.5,301.2v-0.1l0.1,0.1
		L318.5,301.2z M348.9,555.8c-0.3,0.1-0.6,0.2-1,0.2L348.9,555.8z"/>
	<path id="Path_352" class="st2" d="M323.2,587.4c-13.1,2.5-15.5-7.6-15.5-7.6s-1.6-8.9-2.3-9.6c-0.1-0.3-0.2-0.6-0.1-0.9l0,0
		c0.3-1.5,1-2.9,1.9-4.2c0.8-1,0.1-5,0.1-5l15.2-3.9c0.6,1.4,1.1,2.9,1.5,4.5c0.2,1.4,2.4,7.8,2.2,8.7s1,3.6,1.1,5.1s2,3.5,2.2,4.2
		c0.2,0.7,0.5,1.3,0.8,2c0.4,1,0.7,2,1,3C332,586.9,323.2,587.4,323.2,587.4z"/>
	<path id="Path_353" class="st3" d="M323.2,587.4c-13.1,2.5-15.5-7.6-15.5-7.6s-1.6-8.9-2.3-9.6c-0.1-0.3-0.2-0.6-0.1-0.9l3.1,9.1
		c0,0,2.6,5.4,12.3,4.6c5.5-0.5,8.2-1.5,9.5-2.3c0.4,1,0.7,2,1,3C332,586.9,323.2,587.4,323.2,587.4z"/>
	<path id="Path_354" class="st3" d="M313,573.3c0,0,3.3,0.1,3.5-2.6L313,573.3z"/>
	<path id="Path_355" class="st4" d="M369.9,485.3c-1.6,2.5-3.5,13.2-3.5,13.2c-0.7,1.4-1.1,3-1.1,4.5c-0.1,2-0.5,4-1.1,5.9
		l-4.3,15.4c0.2,2.4-0.2,4.8-1.1,7c-1.6,2.9-1.4,2-0.7,7.1s-0.9,9.8-3.6,11.2s1.2,5,1.2,5s-17.1,4.6-20.7,1.8s1.9-16.8,1.9-16.8
		s-0.9-11.8-0.3-13.5s3.1-16.3,3.1-16.3s1.6-6.6,1-7.7s0.4-4.3,0.4-4.3s2.5-3.6,2.3-4.7c0-1.1,0.3-2.2,0.8-3.1
		c0,0-7.6-11.6-6.9-13.8s-0.3-5.7-0.3-5.7s-1-1.6-2.1-3.6c-1.4-2.4-3.1-5.3-3.7-6.2c-1.3-2.9-2.5-5.8-3.5-8.8l-0.7-2
		c0,0-1.1,21.9-2.3,24.1s-2.6,19.9-2.6,19.9c-0.6,1.6-0.8,3.2-0.8,4.9c0.1,2.8-2.4,14.8-2.4,14.8s-1.1,8.5-0.4,10.7
		s0.1,18.7,0.1,18.7s4.1,3.2,5.1,5.7s-0.1,9.2-0.1,9.2s-11.9,6-17.2,4.4s-3.1-10.6-3.1-10.6s-3.6-6-3.6-8.3
		c-0.3-3.1-0.7-6.3-1.3-9.4c-4.5-8.3-2.8-28.6-3.5-30.2s1.6-7.7,3.4-10.5s1.1-10.2,0-12.4s1.1-9.6,1.1-9.6s-2.2-14.4-2.1-16.7
		s-1.9-8.9-1.9-8.9s-1.9-3.4-1.5-4.5s-1.5-3.7-1-4.9s-0.5-4.8-1.4-7c-0.7-2.2-1.2-4.5-1.6-6.8c-0.5-2.6-0.8-4.8-0.8-4.8l12.3-9.9
		l30.7-8l11.6-3.8l11.2,17.7c0,0,1.1,1.9,2.2,4c0.9,1.8,1.7,3.9,1.5,5.2c-0.2,1.6,0.2,3.2,1,4.6c0,0,6.7,21.2,6.5,27.3
		s2.4,19.5,2.4,19.5S371.6,482.8,369.9,485.3z"/>
	<path id="Path_356" class="st3" d="M301,496.4c0,0,13.1-5.6,17-1.6S301,496.4,301,496.4z"/>
	<path id="Path_357" class="st3" d="M308.4,498.6c0,0-13.3,7.5-8.7,8.7S308.4,498.6,308.4,498.6z"/>
	<path id="Path_358" class="st3" d="M348,492.1c0,0-5.7,0.4-3.5,1.5S348,492.1,348,492.1z"/>
	<path id="Path_359" class="st3" d="M355,493.8c-0.1,0.4-16.5,5.7-13.3,8S355,493.8,355,493.8z"/>
	<path id="Path_360" class="st3" d="M302.9,539.4c2.5-0.4,16.2-6.7,10.8-2.1C310.8,539.9,306.6,540.7,302.9,539.4z"/>
	<path id="Path_361" class="st3" d="M309.7,544.4c0,0,1.2,4.6,5.7,4S309.7,544.4,309.7,544.4z"/>
	<path id="Path_362" class="st3" d="M305.9,553.8c0.8-0.2,10.6-4.7,10.8-2.6s-9.3,5.7-10,4.6C306.2,555.2,306,554.5,305.9,553.8z"/>
	<path id="Path_363" class="st3" d="M337.5,548.4c1.1-0.1,12.4-3.6,14.6-0.4L337.5,548.4z"/>
	<path id="Path_364" class="st3" d="M347.6,550.5c0,0,1.9-1.7,3.9-0.8S347.6,550.5,347.6,550.5z"/>
	<path id="Path_365" class="st3" d="M322.9,569c0.2,1.3,1.2,2.3,2.5,2.6L322.9,569z"/>
	<path id="Path_366" class="st2" d="M379.7,576c-0.7,3.1-11.2,3.4-16.1,2.5s-15.3-3.8-15.3-3.8s-10.9-1-14.1-2.4
		c-3.2-1.3-0.7-4.8-0.7-4.8v-0.3c-0.1-1.2-0.3-5.8,0.5-7c0.9-1.4,0.4-6,0.4-6s15.4,3,15.7,1.6s2.7-3.4,3.8-3.9s1.9,3.7,1.9,3.7
		s7,6,7.4,8.1s5.4,3.3,5.4,3.3c3.2,0.9,6.3,1.9,9.4,3.1c1.1,0.5,1.9,1.6,2.1,2.9C380.1,574,380,575,379.7,576L379.7,576z"/>
	<path id="Path_367" class="st3" d="M379.7,576c-0.7,3.1-11.2,3.4-16.1,2.5s-15.3-3.8-15.3-3.8s-10.9-1-14.1-2.4
		c-3.2-1.3-0.7-4.8-0.7-4.8v-0.3l15.6,3.4c0,0,7.7,3.3,12.6,3.3c4.3,0,13.9,1.8,18.4-0.9C380.1,574,380,575,379.7,576z"/>
	<path id="Path_368" class="st3" d="M358.6,564.2c0,0-0.7,4.9-3.7,6.6L358.6,564.2z"/>
	<path id="Path_369" class="st5" d="M406.3,383.2c-4.4,1.7-14.7,1.9-19.2,1.9h-2.3l-2.9-6l2.9-5c0,0,2.7-0.7,6.2-1.4
		c5.3-0.9,12.5-1.7,15.9,0.4C412.7,376.8,412.1,381.1,406.3,383.2z"/>
	<path id="Path_370" class="st6" d="M338.6,312l1.3-1.5c0,0,6.6,10.5,7.3,14.5s1.6,8.5,1.6,8.5s1.7,5.2,2.8,7.4
		c0.9,1.7,1.7,3.6,2.2,5.5c0.1,1-0.4,3.2,1.7,4.5s2.6,5.2,2.6,5.2s7.5,7.3,11.5,7.5s15.4,2.2,15,4.2s4.8,3.2,6.8,3.7
		s-13.4,6.5-4.3,14.1c0,0-5.8,1.1-6.4,2.6s-6.6-0.8-6.6-0.8s-1.3-3.1-5.8-3.3s-6.8-2.2-6.8-2.5s-4.5-2.8-6.9-3.5s-5.8-1-5.9-1.7
		S333.9,312,333.9,312L338.6,312z"/>
	<path id="Path_371" class="st7" d="M338.6,312.2l1.3-1.5c0,0,6.6,10.5,7.3,14.5s1.6,8.5,1.6,8.5s1.7,5.2,2.8,7.4
		c0.9,1.7,1.7,3.6,2.2,5.5c0.1,1-0.4,3.2,1.7,4.5s2.6,5.2,2.6,5.2s7.5,7.4,11.5,7.5s15.4,2.2,15,4.2s4.8,3.2,6.8,3.7
		s-13.4,6.5-4.3,14.1c0,0-5.8,1.1-6.4,2.6s-6.6-0.8-6.6-0.8s-1.3-3.1-5.8-3.3s-6.8-2.2-6.8-2.5s-4.5-2.8-6.9-3.5s-5.8-1-5.9-1.7
		s-14.9-64.5-14.9-64.5L338.6,312.2z"/>
	
		<rect id="Rectangle_425" x="368.8" y="79.8" transform="matrix(0.1673 -0.9859 0.9859 0.1673 278.9817 509.2796)" class="st2" width="144.4" height="19.4"/>
	<path id="Path_373" class="st8" d="M485.2,591.3l4.2,30.3l3.6-31.5L485.2,591.3z"/>
	<path id="Path_374" class="st4" d="M348.7,574.3v18.8l4.2,16.4h3l3.6-17.6l1.8-21.2L348.7,574.3z"/>
	<path id="Path_375" class="st8" d="M340.1,500.9l9.1,1.8c0,0-10.3,28.5-3,34.6h-11.5C334.6,537.3,330.4,515.5,340.1,500.9z"/>
	<path id="Path_376" class="st3" d="M340.1,500.9l9.1,1.8c0,0-10.3,28.5-3,34.6h-11.5C334.6,537.3,330.4,515.5,340.1,500.9z"/>
	<path id="Path_377" class="st8" d="M400.9,158.1l-29.1,184.5c0,0-43.1,196.6-26.7,235.4h20.6l61.9-377.4L400.9,158.1z"/>
	<path id="Path_378" class="st8" d="M474.8,135.2l22.3,185.4c0,0,16.3,236.2-1.5,274.4H478l-31.4-418.3L474.8,135.2z"/>
	<path id="Path_379" class="st2" d="M398.2,90.7c3.1-10.4,12.7-17.3,23.5-17c18,0.5,45.7,3.7,60.2,18.6
		c22.5,23.1-15.2,100.7-15.2,100.7s-35.2,64.9-67.3-17.6C399.4,175.4,386.1,131.2,398.2,90.7z"/>
	<path id="Path_380" class="st3" d="M398.2,90.7c3.1-10.4,12.7-17.3,23.5-17c18,0.5,45.7,3.7,60.2,18.6
		c22.5,23.1-15.2,100.7-15.2,100.7s-35.2,64.9-67.3-17.6C399.4,175.4,386.1,131.2,398.2,90.7z"/>
	<path id="Path_381" class="st2" d="M410.5,106.5c2.2-7.4,9.1-12.3,16.8-12.1c12.8,0.3,32.6,2.7,42.8,13.2
		c16,16.4-10.8,71.7-10.8,71.7s-25,46.2-48-12.5C411.4,166.8,401.9,135.3,410.5,106.5z"/>
	
		<linearGradient id="Path_382_1_" gradientUnits="userSpaceOnUse" x1="111.9195" y1="766.0278" x2="112.9195" y2="766.0278" gradientTransform="matrix(99.4291 0 0 -207.1721 -10748.3135 159218.5625)">
		<stop  offset="0" style="stop-color:#808080;stop-opacity:0.251"/>
		<stop  offset="0.54" style="stop-color:#808080;stop-opacity:0.122"/>
		<stop  offset="1" style="stop-color:#808080;stop-opacity:0.102"/>
	</linearGradient>
	<path id="Path_382" class="st9" d="M472.7,579c0.2,2.9,0.6,6,2.5,8.3c3.1,3.8,8.6,4.1,13.4,5.3c3.7,1,7.2,2.4,10.6,4.2l10.3,4.9
		c-2.6,0.2-5.3,0.7-7.8,1.6c-1.3,0.5-2.8,1.3-3,2.7c-0.1,1.2,0.6,2.3,1.7,2.8c1.1,0.4,2.2,0.6,3.4,0.6c6.2,0.2,12.3-0.2,18.4-1
		l0.7-0.1c3.1,1.6,6.3,3.1,9.4,4.8c1.3,0.7,2.9,0,3.9-1c1.3-1.2,2.5-2.5,3.5-4c0.2,0.3,0.4,0.6,0.5,0.9c1,1.9,1.9,4.4,0.5,6.1
		c-1.1,1.3-3.3,1.5-3.9,3c-0.4,1.1,0.1,2.4,1.1,3.1c1,0.7,2.1,1,3.3,1.1c2.8,0.4,5.7,0.4,8.5-0.1c1.5-0.1,3-0.7,4.1-1.7
		c1-1.3,1.5-2.9,1.5-4.5l1.9-22.1c0.2-1,0.1-2.1-0.2-3.1c-0.8-1.9-3-2.7-5-3h-0.2c1.7,0,3.4-0.1,5.2-0.1c1.6,0.1,3.2-0.1,4.7-0.6
		c2.9-1.1,4.4-4.2,5.7-7c2.3-4.9,4.9-10.2,4.5-15.7l-0.9-0.4c-0.1-5.8-2.5-11.2-3.4-16.9c1-1.5,1.5-3.3,1.5-5.1
		c-0.1-2-0.6-4-1.3-5.8c-3.6-10.7-7.2-21.4-12-31.7c-3.1-6.8-6.9-13.3-11.4-19.3c-1.2-1.5-2.4-3-3.6-4.5c-0.9-1-2.9-2.5-3.3-3.9
		s0.4-2.6,0-4c-0.1-0.4-0.2-0.7-0.4-1c2.7-3.5,1.9-8.6,1-13l-1.1-5.5c-0.2-1.5-0.7-3-1.4-4.3c-0.7-1.2-1.6-2.2-2.7-3.1
		c-5.6-5-12.5-8.4-18.8-12.6c-6.6-4.4-12.6-9.8-18.5-15.1c-1.8-1.6-4.1-3.4-6.5-2.7s-3.3,3.2-3.4,5.5c0,3.3,1.3,6.4,3.7,8.6
		c4.1,3.8,10.3,4.1,15.2,6.7c1.7,1,3.3,2.1,4.8,3.3l14.2,11.2c1.1,0.6,1.9,1.7,2.2,2.9c0.1,0.7-0.1,1.5-0.3,2.1
		c-0.5,1.6-1.4,3.7-2.1,5.8l-1.1-0.8c-2.4-1.8-4.9-3.3-7.5-4.5c-3.5-1.4-7.2-2.3-11-2.6c-8.4-0.9-15.9,0.4-21,7.4
		c-1.1,1.6-2.4,3-4,4.1c-1.2,0.5-2.3,1.2-3.2,2.1c-2.6,2.9-1.1,7.8,1.3,10.2c2.1,1.9,4.7,3.3,7.5,3.9c3.2,7.1,11.2,10.7,18.7,8.4
		c0.2,1.5,0.2,2.9,0.1,4.4c-0.1,1.5,0.5,3,1.6,4.1c0.6,0.4,1.3,0.7,2,0.9c2.5,0.9,4.9,2.2,7.1,3.7c-2.6,2.8-4.7,5.9-6.3,9.4
		c-2,4.6-1.6,9.9,1.1,14.2l0.1,0.1c-0.2,0.7-0.5,1.4-1,1.9c-1.4,1.1-3.5,0.9-4.7-0.5c-1-1.2-1.8-2.4-2.5-3.8
		c-2.3-3.7-6-6.3-10.2-7.2c-1.6-0.4-3.2-0.3-4.7,0.2c-1.5,0.5-2.6,1.9-2.7,3.5c0,1.7,1.2,3.1,2.5,4.4c3.8,3.9,8,7.4,12.5,10.3
		c1.2,0.8,2.5,1.5,3.8,2.1c-2.3-0.5-4.5-0.9-6.7-1.4c-3.1-0.8-6.3-1.1-9.5-0.8c-3.2,0.3-6.1,2-8,4.6c-1.3,2.4-1.5,5.2-0.7,7.7
		c0.8,2.6,2,5,3.5,7.2c2.4,4,5.3,7.7,8.7,10.9c-2.8,0.9-5.7,1.8-8.5,2.8s-5.7,2.3-7,4.8C472.7,575,472.4,577,472.7,579z
		 M514.6,540.3L514.6,540.3c0.7-0.3,1.2-0.7,1.6-1.3c1.7-2.3,3-5,3.6-7.8c0.7-0.1,1.3-0.3,1.9-0.5c-0.9,0.8-1.3,2-1.3,3.1l6.4,3.1
		c0.5,0.2,0.9,0.5,1.1,0.9c0.2,0.4,0.2,0.9,0.1,1.3c-0.2,1.5-0.5,2.9-0.6,4.4c-1.9-0.6-3.8-1-5.5-1.5
		C519.4,541.6,517,541,514.6,540.3L514.6,540.3z"/>
	<path id="Path_383" class="st10" d="M515.8,480c3.3,0.8,6.7,0.3,9.5-1.5c0.6-0.4,1.2-0.7,1.9-0.9c1.2-0.1,2.4,0.4,3.2,1.3
		c2.7,2.7,3,7.2,1.6,10.8s-4.2,6.4-7.2,8.8c-2.4,2-4.9,3.8-7.6,5.4c-1.5-3.5-4.3-6.2-7.8-7.6c-3.1-1.2-5.4-4.4-7.2-7.2
		c-1.3-2.1-2.5-2-1.3-4.2c1.3-2.1,2.9-4,4.7-5.7c1-1,1.8-2.2,2.5-3.4c0.8-1.4,0.6-2.4,1.8-1.2c0.8,0.8,1.1,2.4,2.1,3.2
		C513.1,478.8,514.4,479.6,515.8,480z"/>
	<path id="Path_384" class="st10" d="M525.5,457.8c0.3-0.7,0.4-1.4,0.3-2.1c-0.3-1.2-1.1-2.2-2.2-2.9l-13.9-11
		c-1.5-1.2-3-2.3-4.7-3.3c-4.8-2.6-10.9-2.9-14.9-6.6c-2.3-2.2-3.7-5.3-3.6-8.5c0-2.3,1.1-4.8,3.3-5.5s4.5,1,6.3,2.6
		c5.8,5.2,11.6,10.5,18.1,14.9c6.1,4.1,12.9,7.4,18.4,12.4c1,0.8,1.9,1.8,2.5,3c0.7,1.4,1.1,2.8,1.4,4.3l1.1,5.4
		c1,4.5,1.7,9.8-1.3,13.3c-0.9,1.1-2.3,1.8-3.7,1.8c-1-0.1-2-0.5-2.9-1c-2.3-1.1-6.4-2.3-7.1-5.1
		C521.9,466.1,524.4,461.1,525.5,457.8z"/>
	<path id="Path_385" class="st10" d="M503.3,528.8c-0.9-1.1-1.8-2.4-2.4-3.7c-2.2-3.7-5.8-6.2-10-7.1c-1.5-0.4-3.1-0.3-4.5,0.2
		c-1.5,0.6-2.5,1.9-2.7,3.5c0,1.7,1.2,3.1,2.4,4.3c3.7,3.9,7.8,7.3,12.2,10.2c4.5,2.9,9.6,4.7,14.9,5.2c0.5,0.1,1.1,0,1.6-0.1
		c0.6-0.3,1.1-0.7,1.5-1.2c2.8-3.6,3.8-8.3,4.5-12.8c-0.3,1.6-9.4-2.2-10.5-1.7c-1.5,0.7-1.4,2.9-2.5,3.9
		C506.5,530.4,504.5,530.2,503.3,528.8z"/>
	<path id="Path_386" class="st10" d="M570,564.5c0.1,0.6-0.1,1.1-0.3,1.6c-0.6,1-2,1-3.2,0.8c-2.7-0.4-5.3-1.1-7.8-1.9l-23.3-6.7
		c-0.4-0.1-0.7-0.2-1-0.5c-0.2-0.3-0.4-0.6-0.5-1c-0.8-3.3-1-6.8-0.5-10.2c0-1.1,0.9-2.1,2-2.1c0.1,0,0.3,0,0.4,0
		c3.7-0.4,7.3-0.5,11-0.5c2.4,0.1,4.8,0,7.1-0.2c3.1-0.4,6.6-2.1,9.7-1.9c2.7,0.2,2.6,2.3,2.8,4.5
		C567.2,552.6,569.9,558.4,570,564.5z"/>
	<path id="Path_387" class="st4" d="M495.5,536.9c-3-0.8-6.2-1.1-9.3-0.8c-3.1,0.2-6,1.9-7.8,4.5c-1.2,2.4-1.5,5.1-0.7,7.6
		c0.8,2.5,1.9,4.9,3.4,7.1c2.6,4.5,6,8.6,10,12c2,1.6,4.2,2.9,6.1,4.5c4.1,3.6,6.6,8.5,9,13.4c2.3,4.5,4.5,9.2,5.5,14.2
		c0,0.4,0.2,0.8,0.5,1c0.3,0.2,0.7,0.2,1,0.1l11.2-2.1c1,0,1.8-0.7,1.8-1.7c0-0.3-0.1-0.7-0.3-1c-2.4-10.4-7-20.3-13.4-28.9
		c6,5.7,14.4,8.1,22.5,6.5c1.6-0.2,3-0.9,4.3-1.8c2.5-2.3,2.4-6.1,1.8-9.5c-0.5-2.9-1.2-5.9-2.1-8.7c-2.1-6.8-11.2-8.7-17.3-10.3
		C513.2,540.7,504.4,538.6,495.5,536.9z"/>
	<path id="Path_388" class="st3" d="M503.8,561c1.6,0.6,3,1.6,4.2,2.8c-2-2.3-7.8-3.4-10.6-4.5c-3.5-1.3-7.3-2.6-10.2-4.9
		C492.9,556.2,498.4,558.4,503.8,561L503.8,561z"/>
	<path id="Path_389" class="st6" d="M540,608.9c1,1.9,1.9,4.4,0.5,6c-1.1,1.2-3.2,1.5-3.8,3c-0.4,1.1,0.1,2.4,1,3
		c1,0.7,2.1,1,3.2,1.1c2.7,0.4,5.5,0.4,8.3-0.1c1.5-0.1,2.9-0.7,4-1.7c1-1.3,1.5-2.9,1.4-4.5l1.9-21.8c0.2-1,0.1-2.1-0.2-3.1
		c-0.8-1.9-2.9-2.6-4.9-2.9c-2.2-0.4-4.5-0.5-6.7-0.3c-1.5,0-3,0.5-4.2,1.4c-1.1,1.3-1.8,2.9-2,4.5c-0.5,2.6-1.9,6.2-1.6,8.8
		C537.1,604.6,539.1,607,540,608.9z"/>
	<path id="Path_390" class="st6" d="M514.9,601.9c-4.3-0.6-8.6-0.1-12.6,1.4c-1.3,0.5-2.7,1.3-2.9,2.6c-0.1,1.2,0.6,2.2,1.7,2.7
		c1.1,0.4,2.2,0.6,3.3,0.6c6,0.2,12-0.2,18-1c1.5-0.1,3-0.6,4.4-1.4c1.4-0.9,1.9-2.5,1.4-4c-0.7-1.5-2.7-2-3.6-3.3
		c-0.7-1-0.9-2.4-1.9-2.9c-0.8-0.3-1.7-0.2-2.4,0.2c-1.1,0.4-3.9,0.8-4.6,1.7C515.2,599.6,515,600.7,514.9,601.9L514.9,601.9z"/>
	<circle id="Ellipse_56" class="st10" cx="498.9" cy="477" r="14.9"/>
	<path id="Path_391" class="st6" d="M534.2,470.4c-2.4-1.8-5.4-2.4-8.3-2.9c-1-0.3-2-0.3-3,0.1c-0.6,0.5-1.1,1.1-1.4,1.8
		c-0.9,1.5-1.6,3.1-2,4.7c-0.4,1.7,0,3.5,1.1,4.8c0.9,0.9,2.2,1.4,3.1,2.3c1.2,1.3,1.7,3.2,1.3,4.9c-0.4,1.7-1,3.4-2,4.9
		c-2.2,3.9-4.7,7.5-7.5,11c-2.9,3.6-6.1,7.1-7.9,11.4c-1.9,4.6-1.5,9.8,1.1,14c2.8,4,8.3,6.2,12.8,4.4c-0.8,0.8-1.3,1.9-1.3,3.1
		l6.2,3.1c0.5,0.2,0.9,0.5,1.1,0.9c0.2,0.4,0.2,0.9,0.1,1.3c-0.5,2.5-0.7,5.1-0.8,7.6c0.2,2.6,1.3,5.2,3.7,6.4c2.1,1,4.6,0.5,7,0
		c5.4-1.1,10.9-1.7,16.4-1.7c2.8,0,5.6,0.1,8.1-1c3.5-1.5,5.7-4.9,5.8-8.7c-0.1-2-0.5-3.9-1.3-5.8c-3.5-10.6-7-21.2-11.7-31.3
		c-3.1-6.7-6.8-13.1-11.1-19.1c-1.1-1.5-2.3-3-3.5-4.4c-0.9-1-2.9-2.5-3.2-3.8s0.4-2.6,0-3.9C536.6,472.8,535.6,471.4,534.2,470.4
		L534.2,470.4z"/>
	<path id="Path_392" class="st4" d="M570.9,564.9c-6.5-3-13.1-6-19.9-8.4c-5-1.7-10.6-3.1-15.5-1.1c-1.5,0.6-2.8,1.4-4.2,2.1
		c-4.8,2.3-10.2,2.7-15.5,3.2c-11.7,1.3-23.2,4.1-34.3,8.1c-2.6,1-5.5,2.3-6.8,4.8c-0.7,1.8-1,3.8-0.7,5.7c0.2,2.9,0.6,5.9,2.4,8.2
		c3,3.8,8.4,4,13.1,5.2c3.6,1,7.1,2.4,10.4,4.1c10.9,5.2,21.8,10.4,32.5,16c1.2,0.7,2.8,0,3.8-0.9c3.2-3,5.5-6.8,6.7-11
		c1.2-4.2,1.7-8.6,1.7-12.9c4.2,0,7.6-0.2,11.8-0.2c1.5,0.1,3.1-0.1,4.5-0.6c2.8-1.1,4.3-4.1,5.6-6.9
		C568.7,575.4,571.2,570.2,570.9,564.9z"/>
	<path id="Path_393" class="st3" d="M494.9,580.4c2.9-1.4,6.4-1.5,9.6-1.4c2,0,4,0.1,6,0.5c3,0.8,5.9,1.9,8.7,3.3
		c7,2.9,14.5,4.4,22,4.3"/>
	<path id="Path_394" class="st4" d="M477.9,479.1c2.2,2.1,5,3.5,8,4c3,0.7,6,0.9,9,1.6c3.7,0.8,7.7,2.7,8.5,6.4
		c0.2,1.5,0.2,2.9,0.1,4.4c-0.1,1.5,0.5,3,1.5,4c0.6,0.4,1.2,0.7,1.9,0.9c12.2,4.7,20.3,16.3,20.5,29.4c3.8-2.2,6.4-6,7-10.4
		c0,4,3.4,8,1.5,11.5c8.4-5.5,10.8-16.8,5.3-25.2c-0.3-0.4-0.6-0.8-0.9-1.3c-1.5-1.9-3.4-3.5-5-5.3c-4.5-5.2-6.6-12-5.9-18.9
		c0.3-2.9,1.1-5.8,0.5-8.6c-0.9-3.9-4.3-6.6-7.6-9c-2.3-1.7-4.8-3.2-7.4-4.5c-3.4-1.4-7.1-2.3-10.8-2.6c-8.2-0.9-15.5,0.4-20.6,7.3
		c-1,1.6-2.3,3-3.9,4c-1.1,0.5-2.2,1.2-3.2,2C474,471.9,475.5,476.6,477.9,479.1z"/>
	<path id="Path_395" class="st5" d="M324.6,312.7c-0.5-0.2-32.9-13.6-28.4-16.2c2.6-1.6,5.9-8.3,8.1-13.5c1.6-3.6,2.6-6.6,2.6-6.6
		s26-4.6,16.7,11.4c-1.5,2.4-2.6,5.1-3.3,7.9C317.7,306.4,324.4,312.5,324.6,312.7z"/>
	<path id="Path_396" class="st3" d="M323.6,287.7c-1.5,2.4-2.6,5.1-3.3,7.9c-6.7-0.5-12.6-4.6-15.3-10.8c-0.3-0.6-0.5-1.2-0.7-1.8
		c1.6-3.6,2.6-6.6,2.6-6.6S332.9,271.8,323.6,287.7z"/>
	<path id="Path_397" class="st5" d="M339.8,276.8c0,10-8.2,18.1-18.3,18.1c-7.1,0-13.6-4.2-16.5-10.8c-1-2.3-1.6-4.8-1.5-7.3
		c0-10,8.2-18.1,18.3-18.1c8,0,15.1,5.4,17.4,13.1C339.5,273.4,339.8,275.1,339.8,276.8z"/>
	<path id="Path_398" class="st3" d="M357.3,417.6c-1.3,1.4-2.2,3.1-2.6,5c0,0-8.9,6.1-8.3,2.3s-4.7-19.5-4.7-19.5l0.6,21.3
		c0,0-28.6-1.3-30.7-3.4s-14.2-6.1-14.2-6.1s-3.7,3-7.2,5.3c-0.5-2.6-0.8-4.8-0.8-4.8l12.3-9.9l30.7-8l11.5-3.7l11.2,17.7
		C355.1,413.6,356.3,415.4,357.3,417.6z"/>
	<path id="Path_399" class="st2" d="M358.2,415.9c-2.4,1.5-3.3,5.5-3.3,5.5s-8.9,6.1-8.3,2.3s-4.6-19.5-4.6-19.5l0.6,21.3
		c0,0-28.6-1.3-30.7-3.4s-14.3-6.1-14.3-6.1s-10.6,8.5-12.5,7.7c-1.9-0.8,3.4-15.2,3.4-15.2L294,324c0,0-1.5-25.2,0.8-26.1
		c0.3-0.1,0.7-0.3,0.9-0.6c1.5-1.3,1.9-4,2-6.3c0.1-2.7,3.7-1.3,3.7-1.3l-2.1,2.7l18.5,11.2l0.2,0.1c0.7-0.4,1.5-0.7,2.3-1
		c1.6-0.6,3.8-1.2,5.2-0.6c0.8,0.4,1.5,1,2,1.8c1.1,1.6,1.9,3.3,2.5,5.1l6.7,11.3c0,0,3.4,15,3.4,15.6s1,14.3,2.3,15.8
		c1.2,1.5,2.4,8.9,1.9,11.2c-0.4,2.2,0.7,10.6,0.7,10.6c4.9,4,7.4,17.7,7.4,17.7s7.7,15.3,8.3,17.1S360.6,414.4,358.2,415.9z"/>
	<path id="Path_400" class="st3" d="M317.9,304.1c-1.8,2.7-7,6.4-7,6.4l-15.1-12.7c1.5-1.3,1.9-4,2-6.3c0.1-2.7,3.7-1.3,3.7-1.3
		l-0.4,0.6c-0.8,1.1-0.6,2.6,0.4,3.4c0.1,0.1,0.1,0.1,0.2,0.1L317.9,304.1z"/>
	<path id="Path_401" class="st2" d="M317.9,303.5c-1.8,2.7-7,6.5-7,6.5l-15.1-12.8c1.5-1.3,1.9-4,2-6.3c0.1-2.7,3.7-1.3,3.7-1.3
		l-0.4,0.6c-0.8,1.1-0.6,2.6,0.4,3.4c0.1,0.1,0.1,0.1,0.2,0.1L317.9,303.5z"/>
	<path id="Path_402" class="st3" d="M324.9,305.5c-2,2.3-4.7,5-4.5,3.6s-1.6-4.2-2.8-5.6c1.8-0.6,3.7-0.5,5.4,0.1
		C323.7,304.2,324.4,304.8,324.9,305.5z"/>
	<path id="Path_403" class="st2" d="M325.2,304.6c-2,2.3-4.7,5-4.5,3.7s-1.5-3.5-2.6-4.8c1.6-0.6,3.8-1.2,5.2-0.6
		C324,303.3,324.7,303.9,325.2,304.6z"/>
	<path id="Path_404" class="st3" d="M295.8,298c0,0,0.2-1.8-2.4,1.3c-2.2,2.3-4.7,4.2-7.4,5.7c0,0-11,7.8-11.6,11.4
		s-4.2,19.1-2.3,24.2s16.3,29.9,16.3,29.9s-3.8,4.5-2.9,9.7s2,12.5,1.5,14.1s0.6,5.6-1.1,6.9s-3.5,3.8,1.8,7c0,0,1,2.7,0.1,3.3
		s13.2,6.8,18.8,3.5s15.6-29.5,15.8-35.3s-3.1-25.2-4.9-29.8s-7.1-22.3-9.4-26.3S295.8,298,295.8,298z"/>
	<path id="Path_405" class="st6" d="M295.1,298c0,0,0.2-1.8-2.4,1.3c-2.2,2.3-4.7,4.2-7.4,5.8c0,0-11,7.8-11.6,11.4
		s-4.2,19.1-2.3,24.2s16.3,29.9,16.3,29.9s-3.8,4.5-2.9,9.7s2,12.5,1.5,14.1s0.6,5.6-1.1,6.9s-3.5,3.8,1.8,7c0,0,1,2.7,0.1,3.3
		s13.2,6.8,18.8,3.5s15.6-29.5,15.8-35.3s-3.1-25.2-4.9-29.8s-7.1-22.3-9.4-26.3S295.1,298,295.1,298z"/>
	<path id="Path_406" class="st3" d="M291.2,314.8c0,0,8.5,9.4,8.2,15.7C299.4,330.5,299.5,320.4,291.2,314.8z"/>
	<path id="Path_407" class="st3" d="M320,301.3c0,0,5.5-3.4,12.5,5.3c0,0,5.1,2.9,6.5,3.6s3.2,19.1,3.2,19.1s3.3,8,2.4,12.5
		s2.6,20.3,2.6,20.3s5.8,28.2,5.6,29s-5.9-8.8-5.8-13.6s-4.8-19.7-5.5-20.5s-5.5-26.4-5.5-26.4s-3.9-10.8-6.4-14.4
		s-5.6-10.3-6.8-11.5c-0.9-0.8-2-1.5-3.1-2L320,301.3z"/>
	<path id="Path_408" class="st6" d="M319.9,301.3c0,0,6.2-3.4,13.1,5.3c0,0,5.1,2.9,6.6,3.6s3.2,19.1,3.2,19.1s3.3,8,2.4,12.5
		s2.6,20.3,2.6,20.3s5.8,28.2,5.6,29s-5.9-8.8-5.8-13.6s-4.8-19.7-5.5-20.5s-5.5-26.4-5.5-26.4s-3.9-10.7-6.4-14.3
		s-5.6-10.3-6.8-11.5c-1.1-0.9-2.3-1.5-3.7-2L319.9,301.3z"/>
	<path id="Path_409" class="st5" d="M347.2,363.4c0,0,11.8-7.7,17.5-3.9c5.7,3.8,15,9.2,5.9,13.2s-21.9,3.2-21.9,3.2L347.2,363.4z"
		/>
	<path id="Path_410" class="st3" d="M339,438.1c-1.8,3.8-3.2,22.7-4.2,28.8c-1.4-2.4-3.1-5.3-3.7-6.2c-1.3-2.9-2.5-5.8-3.5-8.8
		c1.1-2.7,4.2-10.5,4.2-13.4c0-3.5,5.7-7.9,5.7-7.9C339.6,432.4,340.2,435.5,339,438.1z"/>
	<path id="Path_411" class="st3" d="M339.1,271.8c-0.3,0.1-0.6,0.3-0.9,0.4c-1.4,0.4-2.8-0.6-4-1.3s-3-1.3-4-0.3
		c-1.4,1.3-0.4,4-1.8,5.2c-0.9,0.8-2.4,0.5-3.4,1.1s-1.3,2-1.6,3.2s-0.8,2.6-2,2.9s-2.3-0.4-3.4-0.4c-0.2,0-0.5,0-0.7-0.1
		c-0.1-0.2-0.1-0.3-0.1-0.5c0.1-1.4,0-2.9-0.4-4.3c-0.4-1.4-1.6-2.5-3-2.8c-2.1-0.3-3.9,1.5-5.1,3.2c-1.3,1.8-2.5,3.7-3.5,5.7
		c-0.1,0.1-0.1,0.2-0.2,0.4c-1-2.3-1.6-4.8-1.5-7.3c0-10,8.2-18.1,18.3-18.1C329.8,258.8,336.8,264.1,339.1,271.8L339.1,271.8z"/>
	<path id="Path_412" class="st4" d="M308.7,277.8c1.2-1.7,3-3.6,5.1-3.2c1.4,0.3,2.6,1.4,3,2.8c0.4,1.4,0.5,2.9,0.4,4.3
		c0,0.2,0,0.4,0.1,0.5c0.2,0.2,0.4,0.1,0.7,0.1c1.1,0,2.3,0.7,3.4,0.4s1.7-1.7,2-2.9s0.5-2.6,1.6-3.2s2.5-0.4,3.4-1.1
		c1.4-1.2,0.4-4,1.8-5.2c1.1-1,2.8-0.4,4,0.3s2.6,1.7,4,1.3c0.5-0.2,0.9-0.4,1.4-0.6c2.2-0.8,5.1,0.6,6.9-0.9
		c0.7-0.7,1.1-1.5,1.4-2.4c0.5-1.2,0.8-2.5,1-3.8c0.2-1.3-0.2-2.6-1-3.7c-1.1-1.4-3.2-1.7-4.7-2.8c-1.2-1-2.2-2.2-3-3.5
		c-0.7-1.4-1.7-2.6-2.9-3.6c-1.2-1-2.9-1.3-4.4-0.7c-0.4,0.3-0.9,0.5-1.4,0.7c-0.6,0-1.1-0.1-1.6-0.4c-5.2-2.4-11.2-2-16.8-1.3
		c-2.3,0.2-4.5,0.7-6.6,1.6c-2.1,0.9-3.8,2.7-4.5,4.9c-0.5,1.7-0.1,3.6-0.7,5.4c-0.4,1.1-1.1,2.2-1.6,3.3c-1.2,3.1,0.2,6.6,0.9,9.9
		c0.7,3.6,0.3,7.5,1.9,10.9c0.3,0.7,0.6,1.8,1.4,1.4c0.6-0.3,1.1-2.3,1.4-2.8C306.2,281.5,307.4,279.6,308.7,277.8L308.7,277.8z"/>
	<path id="Path_413" class="st3" d="M276,336l-2.7,7.6c0,0,6.4,23.6,9.3,28.6s7.3,11.4,7.3,11.4c5,2.2,10.5,2.9,15.9,2
		c8.5-1.7,33.4-6.1,33.4-6.1c1.2,0.2,2.4-0.2,3.2-1.2c1.1-1.6,6.8-2.4,6.8-2.4s6.5-9.5-1.5-13.5c0,0-1,2.2-5.3,0.7s-5.6,1.2-5.6,1.2
		s-7,1.4-10.8,0.9s-13.5-0.7-14.5-1.5c-0.5-0.5-1.3-0.4-1.8,0.1c0,0,0,0,0,0c-1.2-0.4-2.2-1-3.2-1.8c-0.8-0.9-1.9,1-1.9,1
		s-1.4-0.8-1-1.8s-1.3-4.8-1.3-4.8c-0.4-1.4-0.6-3-0.3-4.5c0.5-2-2.5-9.1-2.5-9.1c0-1.2,0.1-2.4,0.4-3.6c0.5-1.8-3.8-5.4-3.8-5.4
		s-4.2-20.2-13-13.6S276,336,276,336z"/>
	<path id="Path_414" class="st6" d="M275.4,336l-2.7,7.6c0,0,6.4,23.6,9.3,28.6s7.4,11.4,7.4,11.4c5,2.2,10.5,2.9,15.9,2
		c8.5-1.7,33.5-6.1,33.5-6.1c1.2,0.2,2.4-0.2,3.2-1.2c1.1-1.6,6.8-2.4,6.8-2.4s6.5-9.5-1.5-13.5c0,0-1,2.2-5.3,0.7s-5.6,1.2-5.6,1.2
		s-6.9,1.4-10.8,0.9s-13.5-0.7-14.5-1.5c-0.5-0.5-1.3-0.4-1.8,0.1c0,0,0,0,0,0c-1.2-0.4-2.2-1-3.2-1.8c-0.8-0.9-1.9,1-1.9,1
		s-1.4-0.8-1-1.8s-1.3-4.8-1.3-4.8c-0.4-1.4-0.5-3-0.3-4.5c0.5-2-2.5-9.1-2.5-9.1c0-1.2,0.1-2.4,0.4-3.6c0.5-1.8-3.8-5.4-3.8-5.4
		s-4.2-20.2-13-13.6S275.4,336,275.4,336z"/>
	<path id="Path_415" class="st3" d="M299.9,359c0,0-9.7,2-6.5,3.7S299.9,359,299.9,359z"/>
	<g id="Group_27" transform="translate(432.475 351.914)" class="st11">
		<path id="Path_416" d="M-115.7-76.2c-0.4-1.4-1.6-2.5-3-2.8c-2.1-0.3-3.9,1.5-5.1,3.2c-1.3,1.8-2.5,3.7-3.5,5.7
			c-0.3,0.6-0.9,2.5-1.4,2.8c-0.8,0.4-1.1-0.7-1.4-1.4c-1.5-3.4-1.1-7.3-1.9-10.9c-0.5-2.1-1-4.2-1.3-6.4c-0.2,2.6,0.8,5.3,1.3,8
			c0.7,3.6,0.3,7.5,1.9,10.9c0.3,0.7,0.6,1.8,1.4,1.4c0.6-0.3,1.1-2.3,1.4-2.8c1.1-2,2.2-3.9,3.5-5.7c1.2-1.7,3-3.6,5.1-3.2
			c1.4,0.3,2.6,1.4,3,2.8c0.2,0.7,0.4,1.5,0.4,2.3C-115.2-73.6-115.3-74.9-115.7-76.2z"/>
		<path id="Path_417" d="M-84.7-85.6c-0.2,0.9-0.7,1.7-1.4,2.4c-1.8,1.5-4.7,0.1-6.9,0.9c-0.5,0.2-0.9,0.4-1.4,0.6
			c-1.4,0.4-2.8-0.6-4-1.3s-3-1.3-4-0.3c-1.4,1.3-0.4,4-1.8,5.2c-0.9,0.8-2.4,0.5-3.4,1.1s-1.3,2-1.6,3.2s-0.8,2.6-2,2.9
			s-2.3-0.4-3.4-0.4c-0.2,0-0.5,0-0.7-0.1c0,0-0.1-0.1-0.1-0.1v1.2c0,0.2,0,0.4,0.1,0.5c0.2,0.2,0.4,0.1,0.7,0.1
			c1.1,0,2.3,0.7,3.4,0.4s1.7-1.7,2-2.9s0.5-2.6,1.6-3.2s2.5-0.4,3.4-1.1c1.4-1.2,0.4-3.9,1.8-5.2c1.1-1,2.8-0.4,4,0.3
			s2.6,1.7,4,1.3c0.5-0.2,0.9-0.4,1.4-0.6c2.2-0.8,5.1,0.6,6.9-0.9c0.7-0.7,1.1-1.5,1.4-2.4c0.5-1.2,0.8-2.5,1-3.8
			c0.1-0.4,0.1-0.9,0-1.3C-83.8-87.9-84.2-86.7-84.7-85.6z"/>
	</g>
</g>
<ellipse id="svg--format--tree--two--circle" class="st6" cx="149.6" cy="553.6" rx="46.5" ry="8.9"/>
<g id="svg--format_x5F__x5F_tree--two">
	<ellipse id="Ellipse_58" class="st4" cx="148.8" cy="549.8" rx="5.4" ry="7.1"/>
	<ellipse id="Ellipse_59" class="st4" cx="148.8" cy="541.1" rx="5.4" ry="7.1"/>
	<ellipse id="Ellipse_60" class="st4" cx="148.8" cy="532.5" rx="5.4" ry="7.1"/>
	<ellipse id="Ellipse_61" class="st4" cx="148.8" cy="523.8" rx="5.4" ry="7.1"/>
	<ellipse id="Ellipse_62" class="st4" cx="148.8" cy="515.2" rx="5.4" ry="7.1"/>
	<ellipse id="Ellipse_63" class="st4" cx="148.8" cy="506.5" rx="5.4" ry="7.1"/>
	<ellipse id="Ellipse_64" class="st4" cx="148.8" cy="497.8" rx="5.4" ry="7.1"/>
	<path id="Path_418" class="st6" d="M169.1,438.6c0.7-0.9,1.4-1.9,2-3l-14.2-2.3l15.4,0.1c3-6.5,3.2-13.9,0.5-20.5l-20.6,10.7
		l19.1-14c-7.2-12.4-23.1-16.6-35.4-9.4c-12.4,7.2-16.6,23.1-9.4,35.4c0.6,1,1.3,2.1,2,3c-1.2,1.5-2.1,3-3,4.7l18.5,9.6l-19.7-6.6
		c-2.8,8.3-1.2,17.5,4.2,24.4c-8.9,11.3-6.9,27.6,4.3,36.4c11.3,8.9,27.6,6.9,36.4-4.3c7.4-9.4,7.4-22.7,0-32.1
		C176.5,461.2,176.5,447.9,169.1,438.6L169.1,438.6z"/>
	<path id="Path_419" class="st3" d="M122.8,454.6c0,5.8,2,11.5,5.6,16c-8.9,11.3-6.9,27.6,4.3,36.4c11.3,8.9,27.6,6.9,36.4-4.3
		c7.4-9.4,7.4-22.7,0-32.1C172.6,466.2,122.8,451.7,122.8,454.6z"/>
</g>
<ellipse id="svg--format--tree--one--circle" class="st6" cx="710.2" cy="667.3" rx="38.6" ry="7.4"/>
<g id="svg--format_x5F__x5F_tree--one">
	<ellipse id="Ellipse_66" class="st4" cx="709.6" cy="664.1" rx="4.5" ry="5.9"/>
	<ellipse id="Ellipse_67" class="st4" cx="709.6" cy="656.9" rx="4.5" ry="5.9"/>
	<ellipse id="Ellipse_68" class="st4" cx="709.6" cy="649.8" rx="4.5" ry="5.9"/>
	<ellipse id="Ellipse_69" class="st4" cx="709.6" cy="642.6" rx="4.5" ry="5.9"/>
	<ellipse id="Ellipse_70" class="st4" cx="709.6" cy="635.4" rx="4.5" ry="5.9"/>
	<ellipse id="Ellipse_71" class="st4" cx="709.6" cy="628.2" rx="4.5" ry="5.9"/>
	<ellipse id="Ellipse_72" class="st4" cx="709.6" cy="621" rx="4.5" ry="5.9"/>
	<path id="Path_420" class="st6" d="M726.4,571.8c0.6-0.8,1.2-1.6,1.7-2.5l-11.8-1.9l12.8,0.1c2.5-5.4,2.6-11.6,0.4-17.1l-17.1,8.9
		l15.8-11.6c-6-10.3-19.1-13.8-29.4-7.8c-10.3,6-13.8,19.1-7.8,29.4c0.5,0.9,1.1,1.7,1.7,2.5c-1,1.2-1.8,2.5-2.5,3.9l15.3,8
		l-16.3-5.5c-2.3,6.9-1,14.5,3.5,20.2c-7.4,9.3-5.7,22.9,3.6,30.2s22.9,5.7,30.2-3.6c6.1-7.8,6.1-18.8,0-26.6
		C732.5,590.6,732.5,579.6,726.4,571.8L726.4,571.8z"/>
	<path id="Path_421" class="st3" d="M687.9,585.1c0,4.8,1.6,9.5,4.6,13.3c-7.4,9.3-5.7,22.9,3.6,30.2s22.9,5.7,30.2-3.6
		c6.1-7.8,6.1-18.8,0-26.6C729.3,594.7,687.9,582.7,687.9,585.1z"/>
</g>
<circle id="svg--format--circle--one" class="st12" cx="319.4" cy="17.4" r="17.4"/>
<circle id="svg--format--circle--two" class="st12" cx="343" cy="81.1" r="29.1"/>
<circle id="svg--format--circle--six" class="st12" cx="16.5" cy="220.7" r="16.5"/>
<circle id="svg--format--circle--five" class="st12" cx="702.8" cy="198.8" r="9.8"/>
<circle id="svg--format--circle--three" class="st12" cx="744.9" cy="161.6" r="16.5"/>
<circle id="svg--format--circle--four" class="st12" cx="666.1" cy="187.1" r="16.5"/>
<circle id="svg--format--circle--seven" class="st12" cx="341.2" cy="209" r="23.8"/>
<circle id="svg--format--circle--eight" class="st12" cx="576.4" cy="363.5" r="23.8"/>
<ellipse id="svg--format--ring--one" class="st0" cx="149.6" cy="557" rx="135.8" ry="27.3"/>
<ellipse id="svg--format--ring--four" class="st0" cx="710.2" cy="668.2" rx="112.7" ry="22.6"/>
<ellipse id="svg--format--ring--two" class="st0" cx="242.2" cy="647.8" rx="97" ry="19.4"/>
</svg>
