<svg xmlns="http://www.w3.org/2000/svg" xmlns:xlink="http://www.w3.org/1999/xlink" width="823.44" height="691.371" viewBox="0 0 823.44 691.371">
  <defs>
    <linearGradient id="linear-gradient" x1="1.168" y1="1" x2="1.168" gradientUnits="objectBoundingBox">
      <stop offset="0" stop-color="gray" stop-opacity="0.251"/>
      <stop offset="0.54" stop-color="gray" stop-opacity="0.122"/>
      <stop offset="1" stop-color="gray" stop-opacity="0.102"/>
    </linearGradient>
    <linearGradient id="linear-gradient-2" x1="-0.934" y1="0.5" x2="0.066" y2="0.5" xlink:href="#linear-gradient"/>
  </defs>
  <g id="Group_28" data-name="Group 28" transform="translate(-133.312 -89.118)">
    <path id="Path_351" data-name="Path 351" d="M430.6,506.255a31.112,31.112,0,0,0,1.352,2.966v.125s6.432,23.762,9.444,28.751c.875,1.443,1.864,3.012,2.841,4.546a10.106,10.106,0,0,0,0,3.409c.909,5.3,2.012,12.58,1.511,14.183s.6,5.591-1.136,6.977-3.523,3.8,1.807,6.989c0,0,1,2.693.1,3.3-.1.068,0,.216.25.409-1.466,4.341-3.614,11.364-2.273,11.864.739.284,2.739-.761,4.932-2.17.057.284.1.591.159.9a43.352,43.352,0,0,0,1.614,6.9c.977,2.171,1.955,5.83,1.432,7.034s1.432,3.887.977,4.943,1.511,4.489,1.511,4.489,1.955,6.659,1.875,8.91,2.114,16.762,2.114,16.762-2.273,7.489-1.136,9.66,1.875,9.659,0,12.432-4.227,8.9-3.466,10.546-1.057,22.012,3.534,30.4A93.459,93.459,0,0,1,459.333,710c0,2.273,3.614,8.307,3.614,8.307s-2.182,9.091,3.171,10.625a5.04,5.04,0,0,0,1.136.216,5.1,5.1,0,0,1-.386,2.932,11.593,11.593,0,0,0-1.909,4.227h0a1.136,1.136,0,0,0,.1.852c.6.671,2.273,9.66,2.273,9.66s2.409,10.1,15.671,7.637c0,0,8.966-.523,8.216-3.671a20.643,20.643,0,0,0-.977-3.046,19.684,19.684,0,0,1-.841-1.966c-.148-.75-2.034-2.853-2.182-4.273s-1.352-4.193-1.136-5.091-2.034-7.33-2.193-8.762a14.852,14.852,0,0,0-.852-2.909l.477-.227s1.2-6.739.159-9.2-5.2-5.682-5.2-5.682.6-16.546-.148-18.8.375-10.773.375-10.773,2.557-12.057,2.409-14.773a12.5,12.5,0,0,1,.75-4.943s1.591-17.739,2.636-19.99,2.273-24.251,2.273-24.251l.7,2.023a77.7,77.7,0,0,0,3.523,8.9c.58.909,2.273,3.818,3.727,6.25l2.148,3.636s.977,3.523.3,5.682,7.012,13.841,7.012,13.841a6.924,6.924,0,0,0-.75,3.148c.216,1.136-2.341,4.716-2.341,4.716s-.977,3.216-.375,4.341-.977,7.784-.977,7.784-2.568,14.671-3.171,16.4.307,13.546.307,13.546-4.727,12.1-2.534,16.126c.091,1.489.1,3.761-.477,4.682-.784,1.227-.557,5.762-.477,7.012v.33s-2.568,3.409.67,4.8S508.3,741.7,508.3,741.7s10.466,3,15.512,3.818,15.6.523,16.353-2.545a8.2,8.2,0,0,0,.273-2.932,3.647,3.647,0,0,0-2.08-2.909,85.434,85.434,0,0,0-9.5-3.148s-4.978-1.136-5.432-3.3-7.534-8.159-7.534-8.159-.08-.42-.227-.989h.227l-.341-.341c-.352-1.136-.921-2.637-1.614-2.352h0a1.7,1.7,0,0,1,.773-2.341c2.716-1.489,4.375-6.2,3.614-11.3s-.9-4.193.682-7.114a13.977,13.977,0,0,0,1.136-7.034l4.171-15.546a23.524,23.524,0,0,0,1.2-5.91,11.046,11.046,0,0,1,1.2-4.546s1.886-10.784,3.545-13.25-1.136-11.16-1.136-11.16-2.557-13.467-2.409-19.615-6.637-27.467-6.637-27.467a7.137,7.137,0,0,1-1.046-4.648c.136-1.273-.659-3.341-1.557-5.194l-.284-.579a5.029,5.029,0,0,1,1.239-1.136c1.864-1.137,2.739-4.125,2.75-6.228l-25.694-60.56c0-.182,11.9-24.49,11.864-24.672-.7-3.989-7.432-14.569-7.432-14.569h0a.852.852,0,0,0-.284-.33c-1.511-.693-6.625-3.591-6.625-3.591-4.012-4.955-7.773-5.977-10.228-5.943a6.957,6.957,0,0,0-2.273.352,5.021,5.021,0,0,0-.761.307l-.114.989a20.272,20.272,0,0,1,.534-6.818c.057-.193.114-.4.159-.591h1.136a18.319,18.319,0,0,0,18.376-18.262,18.544,18.544,0,0,0-.7-5.057l-.091-.261.568-.25c2.273-.841,5.125.591,6.966-.932a5.285,5.285,0,0,0,1.386-2.4,14.406,14.406,0,0,0,1.012-3.807q0-.341,0-.682a1.23,1.23,0,0,0,0-.2,1.92,1.92,0,0,0,0-.25v-.307h0a4.42,4.42,0,0,0-.977-2.273c-1.2-1.409-3.216-1.75-4.739-2.784a11.466,11.466,0,0,1-3.034-3.557,13.229,13.229,0,0,0-2.943-3.625,4.33,4.33,0,0,0-4.421-.693,4.987,4.987,0,0,1-1.455.682,3.034,3.034,0,0,1-1.6-.432c-5.228-2.443-11.364-2.012-17.046-1.284a22.173,22.173,0,0,0-6.716,1.614,7.955,7.955,0,0,0-4.546,4.921c-.466,1.761-.114,3.671-.67,5.409-.386,1.136-1.136,2.182-1.614,3.33a6.826,6.826,0,0,0-.432,1.875h0v.182c-.193,2.58.818,5.3,1.307,7.955.67,3.625.33,7.569,1.886,11a6.587,6.587,0,0,0,.591,1.2c-.545,1.136-1.136,2.341-1.7,3.466-.841-.239-3.409-.807-3.5,1.443a12.251,12.251,0,0,1-1.25,5.273,3.721,3.721,0,0,1-.375.261.727.727,0,0,0-.42.739h0l-.3.227a.727.727,0,0,0-.364.125c-.159-.273-.682-.3-2.341,1.682a31.93,31.93,0,0,1-7.534,5.8s-11.16,7.785-11.762,11.364S428.7,501.062,430.6,506.255Zm49-37.979v-.125l.136.068Zm30.319,254.557a2.433,2.433,0,0,1-.955.193Z" transform="translate(-27.747 -77.952)" fill="url(#linear-gradient)"/>
    <path id="Path_352" data-name="Path 352" d="M479.879,717.284c-13.1,2.455-15.489-7.591-15.489-7.591s-1.636-8.932-2.273-9.6a1.137,1.137,0,0,1-.1-.852h0a11.635,11.635,0,0,1,1.887-4.2c.818-.966.148-4.989.148-4.989l15.183-3.864a22.787,22.787,0,0,1,1.489,4.466c.159,1.409,2.386,7.819,2.159,8.705s.977,3.648,1.136,5.068,2.011,3.5,2.159,4.239a15.932,15.932,0,0,0,.818,1.966,19.123,19.123,0,0,1,.966,3.023C488.732,716.761,479.879,717.284,479.879,717.284Z" transform="translate(-23.394 -40.742)" fill="#444053"/>
    <path id="Path_353" data-name="Path 353" d="M479.879,715.716c-13.1,2.455-15.489-7.591-15.489-7.591s-1.636-8.932-2.273-9.6a1.137,1.137,0,0,1-.1-.852l3.148,9.091s2.614,5.443,12.285,4.614c5.512-.455,8.216-1.477,9.535-2.273a19.128,19.128,0,0,1,.966,3.023C488.732,715.194,479.879,715.716,479.879,715.716Z" transform="translate(-23.394 -39.174)" opacity="0.1"/>
    <path id="Path_354" data-name="Path 354" d="M468.75,701.412s3.284.08,3.5-2.6Z" transform="translate(-22.469 -39.019)" opacity="0.1"/>
    <path id="Path_355" data-name="Path 355" d="M528.553,634.4c-1.636,2.455-3.5,13.171-3.5,13.171a11.273,11.273,0,0,0-1.136,4.546,23.028,23.028,0,0,1-1.136,5.887l-4.307,15.41a13.943,13.943,0,0,1-1.136,6.989c-1.557,2.909-1.409,2.011-.67,7.08s-.886,9.75-3.568,11.239,1.193,4.989,1.193,4.989-17.126,4.614-20.706,1.784,1.864-16.819,1.864-16.819-.886-11.762-.3-13.478,3.125-16.307,3.125-16.307,1.568-6.625.966-7.739.375-4.318.375-4.318,2.534-3.58,2.273-4.693a7,7,0,0,1,.75-3.125s-7.591-11.614-6.932-13.773-.3-5.682-.3-5.682-.955-1.648-2.114-3.614c-1.409-2.42-3.114-5.307-3.693-6.216a79.361,79.361,0,0,1-3.466-8.841l-.7-2.023s-1.137,21.887-2.273,24.115-2.6,19.887-2.6,19.887a12.364,12.364,0,0,0-.75,4.909c.148,2.75-2.386,14.773-2.386,14.773s-1.136,8.489-.364,10.728.148,18.683.148,18.683,4.091,3.2,5.137,5.682-.148,9.16-.148,9.16-11.91,5.955-17.205,4.387-3.125-10.569-3.125-10.569-3.568-5.955-3.568-8.262a93.418,93.418,0,0,0-1.273-9.387c-4.546-8.341-2.75-28.581-3.489-30.229s1.557-7.739,3.409-10.489,1.136-10.228,0-12.364,1.136-9.6,1.136-9.6-2.159-14.444-2.08-16.671-1.864-8.864-1.864-8.864-1.932-3.409-1.489-4.466-1.489-3.728-.966-4.909-.455-4.841-1.42-7a44.874,44.874,0,0,1-1.591-6.818c-.455-2.568-.784-4.83-.784-4.83l12.285-9.9,30.683-8.046L502.495,545l11.239,17.717s1.136,1.852,2.193,3.989c.886,1.841,1.671,3.9,1.534,5.171a7.125,7.125,0,0,0,1.046,4.614s6.693,21.217,6.546,27.274,2.386,19.512,2.386,19.512S530.189,631.947,528.553,634.4Z" transform="translate(-25.315 -60.001)" fill="#3f3d56"/>
    <path id="Path_356" data-name="Path 356" d="M458.21,633.8s13.1-5.58,16.967-1.636S458.21,633.8,458.21,633.8Z" transform="translate(-23.907 -48.304)" opacity="0.1"/>
    <path id="Path_357" data-name="Path 357" d="M465.853,635.39s-13.285,7.512-8.739,8.716S465.853,635.39,465.853,635.39Z" transform="translate(-24.186 -47.67)" opacity="0.1"/>
    <path id="Path_358" data-name="Path 358" d="M500.02,629.7s-5.682.364-3.5,1.489S500.02,629.7,500.02,629.7Z" transform="translate(-18.749 -48.447)" opacity="0.1"/>
    <path id="Path_359" data-name="Path 359" d="M507.41,631.2c-.079.375-16.455,5.682-13.251,8.046S507.41,631.2,507.41,631.2Z" transform="translate(-19.06 -48.242)" opacity="0.1"/>
    <path id="Path_360" data-name="Path 360" d="M459.91,671.744c2.455-.364,16.16-6.694,10.8-2.148A10.683,10.683,0,0,1,459.91,671.744Z" transform="translate(-23.675 -43.227)" opacity="0.1"/>
    <path id="Path_361" data-name="Path 361" d="M465.87,675.68s1.193,4.625,5.739,4.023S465.87,675.68,465.87,675.68Z" transform="translate(-22.862 -42.174)" opacity="0.1"/>
    <path id="Path_362" data-name="Path 362" d="M462.53,684.319c.818-.227,10.569-4.693,10.8-2.6s-9.307,5.682-10.046,4.614A4,4,0,0,1,462.53,684.319Z" transform="translate(-23.318 -41.427)" opacity="0.1"/>
    <path id="Path_363" data-name="Path 363" d="M490.31,679.433c1.136-.068,12.353-3.648,14.592-.443Z" transform="translate(-19.528 -41.904)" opacity="0.1"/>
    <path id="Path_364" data-name="Path 364" d="M499.22,681.189s1.932-1.716,3.864-.818S499.22,681.189,499.22,681.189Z" transform="translate(-18.313 -41.57)" opacity="0.1"/>
    <path id="Path_365" data-name="Path 365" d="M477.47,697.3a3.318,3.318,0,0,0,2.523,2.614Z" transform="translate(-21.28 -39.225)" opacity="0.1"/>
    <path id="Path_366" data-name="Path 366" d="M533.114,706.351c-.739,3.057-11.171,3.352-16.149,2.534s-15.342-3.8-15.342-3.8-10.864-1.045-14.069-2.386-.671-4.762-.671-4.762v-.318c-.08-1.25-.3-5.762.466-6.978.9-1.42.375-6.034.375-6.034s15.41,2.977,15.705,1.568,2.682-3.409,3.8-3.875,1.943,3.728,1.943,3.728,7,5.955,7.444,8.114,5.352,3.273,5.352,3.273a83.239,83.239,0,0,1,9.387,3.125,3.613,3.613,0,0,1,2.057,2.887,8.11,8.11,0,0,1-.3,2.921Z" transform="translate(-20.125 -41.276)" fill="#444053"/>
    <path id="Path_367" data-name="Path 367" d="M533.114,704.508c-.739,3.057-11.171,3.352-16.149,2.534s-15.342-3.8-15.342-3.8-10.864-1.045-14.069-2.386-.671-4.762-.671-4.762v-.318l15.58,3.409s7.671,3.273,12.58,3.273c4.3,0,13.9,1.761,18.364-.909A8.112,8.112,0,0,1,533.114,704.508Z" transform="translate(-20.125 -39.432)" opacity="0.1"/>
    <path id="Path_368" data-name="Path 368" d="M509.356,693.11s-.739,4.909-3.716,6.557Z" transform="translate(-17.437 -39.797)" opacity="0.1"/>
    <path id="Path_369" data-name="Path 369" d="M553.829,535.235c-4.432,1.682-14.66,1.864-19.205,1.864h-2.273l-2.921-5.955,2.921-4.966s2.682-.739,6.25-1.386c5.262-.943,12.5-1.682,15.91.443C560.238,528.792,559.625,533.11,553.829,535.235Z" transform="translate(-14.192 -62.885)" fill="#a1616a"/>
    <path id="Path_370" data-name="Path 370" d="M491.9,471.339l1.3-1.489s6.648,10.523,7.341,14.489,1.591,8.534,1.591,8.534,1.682,5.159,2.784,7.444a25.171,25.171,0,0,1,2.182,5.466c.091.989-.4,3.171,1.682,4.546s2.58,5.159,2.58,5.159,7.546,7.341,11.523,7.546,15.376,2.182,14.989,4.159,4.762,3.182,6.818,3.682-13.387,6.466-4.3,14.148c0,0-5.762,1.136-6.353,2.58s-6.648-.8-6.648-.8-1.3-3.08-5.762-3.273-6.75-2.182-6.75-2.477-4.466-2.784-6.944-3.477-5.762-.989-5.864-1.693-14.887-64.514-14.887-64.514Z" transform="translate(-19.955 -70.253)" fill="#eb7a6d"/>
    <path id="Path_371" data-name="Path 371" d="M491.9,471.559l1.3-1.489s6.648,10.523,7.341,14.5,1.591,8.535,1.591,8.535,1.682,5.159,2.784,7.443A25.372,25.372,0,0,1,507.09,506c.091,1-.4,3.182,1.682,4.546s2.58,5.159,2.58,5.159,7.546,7.353,11.523,7.546,15.376,2.182,14.989,4.171,4.762,3.182,6.818,3.671-13.387,6.478-4.3,14.126c0,0-5.762,1.136-6.353,2.58s-6.648-.8-6.648-.8-1.3-3.08-5.762-3.273-6.75-2.182-6.75-2.489-4.466-2.773-6.944-3.466-5.762-1-5.864-1.693-14.887-64.526-14.887-64.526Z" transform="translate(-19.955 -70.223)" opacity="0.05"/>
    <path id="Path_372" data-name="Path 372" d="M641.3,708.78c75,0,135.8,12.216,135.8,27.274s-60.8,27.274-135.8,27.274-135.8-12.205-135.8-27.274" transform="translate(-17.456 -37.659)" fill="none" stroke="#444053" stroke-miterlimit="10" stroke-width="1"/>
    <rect id="Rectangle_425" data-name="Rectangle 425" width="19.421" height="144.404" transform="translate(576.793 105.796) rotate(9.63)" fill="#444053"/>
    <path id="Path_373" data-name="Path 373" d="M550.34,598.895l4.25,30.342,3.637-31.547Z" transform="translate(68.21 81.534)" fill="#d0d2d5"/>
    <path id="Path_374" data-name="Path 374" d="M430.2,584.237v18.819l4.25,16.376h3.034l3.648-17.592,1.818-21.24Z" transform="translate(51.821 79.202)" fill="#3f3d56"/>
    <path id="Path_375" data-name="Path 375" d="M493.356,637.42l9.091,1.818s-10.307,28.513-3.034,34.581H487.9S483.651,651.977,493.356,637.42Z" transform="translate(-19.983 -47.394)" fill="#d0d2d5"/>
    <path id="Path_376" data-name="Path 376" d="M493.356,637.42l9.091,1.818s-10.307,28.513-3.034,34.581H487.9S483.651,651.977,493.356,637.42Z" transform="translate(-19.983 -47.394)" opacity="0.1"/>
    <path id="Path_377" data-name="Path 377" d="M553.266,335.75,524.14,520.2s-43.07,196.6-26.694,235.431h20.637l61.889-377.4Z" transform="translate(-19.062 -88.546)" fill="#d0d2d5"/>
    <path id="Path_378" data-name="Path 378" d="M614.51,315.59l22.33,185.395S653.1,737.166,635.3,775.36H617.7l-31.433-418.3Z" transform="translate(-6.438 -91.296)" fill="#d0d2d5"/>
    <path id="Path_379" data-name="Path 379" d="M544.341,278.5a23.865,23.865,0,0,1,23.535-17.046c17.967.455,45.741,3.727,60.23,18.569,22.456,23.058-15.171,100.72-15.171,100.72s-35.229,64.923-67.344-17.592C545.545,363.217,532.227,319.033,544.341,278.5Z" transform="translate(-12.852 -98.682)" fill="#444053"/>
    <path id="Path_380" data-name="Path 380" d="M544.341,278.5a23.865,23.865,0,0,1,23.535-17.046c17.967.455,45.741,3.727,60.23,18.569,22.456,23.058-15.171,100.72-15.171,100.72s-35.229,64.923-67.344-17.592C545.545,363.217,532.227,319.033,544.341,278.5Z" transform="translate(-12.852 -98.682)" opacity="0.1"/>
    <path id="Path_381" data-name="Path 381" d="M555.036,291.785A17.046,17.046,0,0,1,571.8,279.671c12.785.33,32.558,2.659,42.843,13.228,15.989,16.41-10.8,71.708-10.8,71.708s-25,46.218-47.957-12.5C555.888,352.072,546.4,320.65,555.036,291.785Z" transform="translate(-11.194 -96.197)" fill="#444053"/>
    <path id="Path_382" data-name="Path 382" d="M609.344,725.759c.193,2.932.648,6.012,2.5,8.307,3.068,3.8,8.648,4.091,13.421,5.284a59.1,59.1,0,0,1,10.614,4.182l10.33,4.887a26.924,26.924,0,0,0-7.75,1.614c-1.33.489-2.784,1.3-2.977,2.682a2.863,2.863,0,0,0,1.716,2.75,8.089,8.089,0,0,0,3.409.6,114.593,114.593,0,0,0,18.41-.966l.727-.1q4.7,2.33,9.364,4.762c1.3.682,2.852,0,3.943-.955a20.913,20.913,0,0,0,3.5-4c.182.318.364.625.511.932,1,1.92,1.943,4.432.511,6.068-1.136,1.273-3.284,1.489-3.932,3.034a2.739,2.739,0,0,0,1.057,3.08,7,7,0,0,0,3.307,1.136,29.349,29.349,0,0,0,8.466-.068,6.819,6.819,0,0,0,4.091-1.739,7.5,7.5,0,0,0,1.454-4.546l1.943-22.081a6.624,6.624,0,0,0-.227-3.136c-.773-1.875-3.012-2.659-5.034-2.989h-.216c1.682,0,3.409-.079,5.227-.079a12.5,12.5,0,0,0,4.682-.591c2.886-1.136,4.443-4.171,5.682-6.966,2.273-4.909,4.887-10.228,4.546-15.682l-.886-.4c-.08-5.807-2.511-11.228-3.409-16.9a9.411,9.411,0,0,0,1.512-5.114,18.915,18.915,0,0,0-1.284-5.818c-3.6-10.705-7.2-21.444-12.023-31.672a109.57,109.57,0,0,0-11.364-19.319q-1.739-2.273-3.614-4.546c-.909-1.045-2.943-2.523-3.318-3.852s.42-2.625,0-3.989a6.768,6.768,0,0,0-.409-1.034c2.659-3.523,1.909-8.614.977-13l-1.137-5.466a14.775,14.775,0,0,0-1.409-4.329,12.64,12.64,0,0,0-2.716-3.08c-5.591-5.046-12.5-8.4-18.785-12.58-6.648-4.421-12.591-9.8-18.546-15.1-1.818-1.614-4.1-3.352-6.455-2.67s-3.33,3.227-3.409,5.546a11.432,11.432,0,0,0,3.693,8.568c4.114,3.762,10.33,4.068,15.228,6.728a35.636,35.636,0,0,1,4.784,3.33l14.228,11.171a4.943,4.943,0,0,1,2.216,2.886,4.648,4.648,0,0,1-.341,2.137c-.534,1.636-1.443,3.693-2.114,5.773l-1.136-.818a44.536,44.536,0,0,0-7.535-4.546,37.4,37.4,0,0,0-11.035-2.648c-8.4-.943-15.91.352-21.046,7.364a15.565,15.565,0,0,1-3.989,4.1,14.772,14.772,0,0,0-3.239,2.057c-2.637,2.921-1.137,7.762,1.341,10.228a15.909,15.909,0,0,0,7.478,3.9,15.364,15.364,0,0,0,18.66,8.364,22.839,22.839,0,0,1,.1,4.409,5.08,5.08,0,0,0,1.6,4.08,6.684,6.684,0,0,0,1.955.909,29.989,29.989,0,0,1,7.08,3.693,36.361,36.361,0,0,0-6.273,9.375,15.25,15.25,0,0,0,1.136,14.182l.068.091a4.706,4.706,0,0,1-1.034,1.909,3.409,3.409,0,0,1-4.693-.477,17.864,17.864,0,0,1-2.455-3.784,15.842,15.842,0,0,0-10.228-7.228,8.217,8.217,0,0,0-4.716.193,4.159,4.159,0,0,0-2.739,3.545c0,1.716,1.25,3.137,2.477,4.353a72.266,72.266,0,0,0,12.5,10.341,40.227,40.227,0,0,0,3.83,2.091q-3.409-.716-6.728-1.4a30.424,30.424,0,0,0-9.489-.83,10.591,10.591,0,0,0-7.955,4.637,10.227,10.227,0,0,0-.739,7.728,25.977,25.977,0,0,0,3.489,7.159,50.96,50.96,0,0,0,8.716,10.909c-2.841.852-5.682,1.784-8.455,2.807s-5.682,2.273-6.955,4.818A11.048,11.048,0,0,0,609.344,725.759Zm41.831-38.638h.1a3.557,3.557,0,0,0,1.489-1.261,20.616,20.616,0,0,0,3.591-7.773,8.765,8.765,0,0,0,1.932-.489,4.318,4.318,0,0,0-1.341,3.136l6.409,3.137a2.387,2.387,0,0,1,1.137.9,2.275,2.275,0,0,1,.125,1.341c-.182,1.466-.466,2.932-.648,4.387-1.921-.568-3.807-1.023-5.5-1.477-2.409-.659-4.853-1.273-7.3-1.886Z" transform="translate(-3.307 -57.661)" fill="url(#linear-gradient-2)"/>
    <path id="Path_383" data-name="Path 383" d="M649.032,619.711a12.284,12.284,0,0,0,9.546-1.534,5.851,5.851,0,0,1,1.852-.864,3.773,3.773,0,0,1,3.159,1.262c2.727,2.716,3.046,7.193,1.636,10.773s-4.239,6.4-7.2,8.841a65.409,65.409,0,0,1-7.58,5.387,14.047,14.047,0,0,0-7.773-7.557c-3.114-1.2-5.387-4.432-7.171-7.25-1.33-2.091-2.512-2-1.318-4.159a31.453,31.453,0,0,1,4.727-5.682,18.468,18.468,0,0,0,2.546-3.409c.8-1.432.613-2.364,1.841-1.227.807.75,1.136,2.375,2.068,3.25A9.092,9.092,0,0,0,649.032,619.711Z" transform="translate(0.03 -50.618)" fill="#fabdbd"/>
    <path id="Path_384" data-name="Path 384" d="M660.448,604.3a4.8,4.8,0,0,0,.329-2.1,4.932,4.932,0,0,0-2.171-2.853l-13.9-11.023a34.1,34.1,0,0,0-4.659-3.284c-4.8-2.625-10.853-2.932-14.876-6.637a11.421,11.421,0,0,1-3.614-8.466c0-2.273,1.136-4.841,3.284-5.478s4.546,1.045,6.318,2.648c5.807,5.228,11.6,10.535,18.092,14.9,6.137,4.137,12.9,7.432,18.364,12.421a12.366,12.366,0,0,1,2.534,2.966,15.225,15.225,0,0,1,1.375,4.284l1.136,5.386c.955,4.546,1.727,9.83-1.33,13.319a4.852,4.852,0,0,1-3.7,1.83,7.3,7.3,0,0,1-2.853-.977c-2.273-1.136-6.387-2.273-7.08-5.114C656.812,612.561,659.368,607.595,660.448,604.3Z" transform="translate(-1.624 -57.366)" fill="#fabdbd"/>
    <path id="Path_385" data-name="Path 385" d="M638.622,663.333a18.191,18.191,0,0,1-2.4-3.727,15.467,15.467,0,0,0-9.978-7.137,8.021,8.021,0,0,0-4.546.182,4.1,4.1,0,0,0-2.671,3.512c0,1.682,1.216,3.091,2.409,4.284a70.445,70.445,0,0,0,12.228,10.228,32.249,32.249,0,0,0,14.876,5.159,3.747,3.747,0,0,0,1.591-.148,3.555,3.555,0,0,0,1.455-1.239c2.818-3.614,3.8-8.307,4.546-12.819-.273,1.625-9.421-2.17-10.455-1.682-1.523.716-1.375,2.852-2.477,3.875A3.284,3.284,0,0,1,638.622,663.333Z" transform="translate(-1.969 -45.374)" fill="#fabdbd"/>
    <path id="Path_386" data-name="Path 386" d="M699.349,696.126a3.012,3.012,0,0,1-.318,1.648c-.625.977-2.034.989-3.182.818a58.149,58.149,0,0,1-7.83-1.886l-23.331-6.739a2.126,2.126,0,0,1-1-.489,2.068,2.068,0,0,1-.466-1.023,27.449,27.449,0,0,1-.511-10.228,2.062,2.062,0,0,1,2.4-2.1,98.882,98.882,0,0,1,11-.5,55.547,55.547,0,0,0,7.148-.159c3.068-.364,6.6-2.125,9.682-1.852,2.671.227,2.557,2.273,2.83,4.546C696.531,684.193,699.292,689.966,699.349,696.126Z" transform="translate(3.954 -42.46)" fill="#fabdbd"/>
    <path id="Path_387" data-name="Path 387" d="M631.554,669.158a29.106,29.106,0,0,0-9.273-.83,10.319,10.319,0,0,0-7.762,4.546,10.1,10.1,0,0,0-.727,7.637,26.422,26.422,0,0,0,3.409,7.057,46.4,46.4,0,0,0,9.966,12c1.989,1.579,4.182,2.886,6.091,4.545,4.068,3.557,6.591,8.523,9.012,13.353,2.273,4.546,4.545,9.182,5.523,14.182a1.42,1.42,0,0,0,.489,1.011,1.351,1.351,0,0,0,1.011.068l11.194-2.068A1.75,1.75,0,0,0,662.056,728,78.322,78.322,0,0,0,648.7,699.126a25.626,25.626,0,0,0,22.524,6.523A8.8,8.8,0,0,0,675.5,703.8c2.5-2.273,2.386-6.148,1.829-9.455a69.389,69.389,0,0,0-2.068-8.716c-2.1-6.818-11.171-8.659-17.319-10.318Q644.85,671.841,631.554,669.158Z" transform="translate(-2.743 -43.187)" fill="#3f3d56"/>
    <path id="Path_388" data-name="Path 388" d="M638.648,691.1a12.307,12.307,0,0,1,4.25,2.818c-2.011-2.273-7.762-3.409-10.58-4.466-3.489-1.3-7.3-2.625-10.228-4.932a122.578,122.578,0,0,1,16.557,6.58Z" transform="translate(-1.552 -40.968)" opacity="0.1"/>
    <path id="Path_389" data-name="Path 389" d="M668.976,735.026c.966,1.909,1.886,4.375.5,6-1.068,1.25-3.2,1.466-3.841,2.989a2.716,2.716,0,0,0,1.034,3.046A6.681,6.681,0,0,0,669.9,748.2a28.832,28.832,0,0,0,8.273-.068,6.635,6.635,0,0,0,3.989-1.716,7.477,7.477,0,0,0,1.421-4.546l1.9-21.8a6.821,6.821,0,0,0-.216-3.1c-.761-1.852-2.943-2.614-4.921-2.943a26.4,26.4,0,0,0-6.693-.273,7.071,7.071,0,0,0-4.171,1.432,8.058,8.058,0,0,0-1.966,4.546c-.511,2.591-1.943,6.182-1.637,8.807C666.067,730.707,668.022,733.116,668.976,735.026Z" transform="translate(4.371 -36.994)" fill="#eb7a6d"/>
    <path id="Path_390" data-name="Path 390" d="M648.345,726.907a26.534,26.534,0,0,0-12.625,1.421c-1.3.477-2.716,1.284-2.909,2.648a2.83,2.83,0,0,0,1.682,2.716,7.955,7.955,0,0,0,3.341.6,113.244,113.244,0,0,0,17.978-.955,9.674,9.674,0,0,0,4.375-1.375,3.409,3.409,0,0,0,1.375-4.046c-.716-1.5-2.671-1.966-3.614-3.318-.682-.977-.852-2.42-1.921-2.932a3.284,3.284,0,0,0-2.443.182c-1.136.4-3.864.8-4.648,1.739a13.065,13.065,0,0,0-.591,3.318Z" transform="translate(-0.09 -35.922)" fill="#eb7a6d"/>
    <circle id="Ellipse_56" data-name="Ellipse 56" cx="14.921" cy="14.921" r="14.921" transform="translate(617.243 551.172)" fill="#fabdbd"/>
    <path id="Path_391" data-name="Path 391" d="M666.789,610.953c-2.4-1.761-5.421-2.364-8.341-2.909a4.364,4.364,0,0,0-3,.148A4.43,4.43,0,0,0,654,609.964a16.5,16.5,0,0,0-1.977,4.716,5.478,5.478,0,0,0,1.136,4.807c.886.909,2.159,1.364,3.068,2.273a5.682,5.682,0,0,1,1.341,4.909,14.694,14.694,0,0,1-1.989,4.852,82.2,82.2,0,0,1-7.477,11c-2.9,3.6-6.148,7.068-7.853,11.364a15.205,15.205,0,0,0,1.136,14c2.762,4.023,8.262,6.182,12.819,4.443a4.228,4.228,0,0,0-1.3,3.091l6.25,3.1a2.363,2.363,0,0,1,1.136.887,2.271,2.271,0,0,1,.114,1.318,41.437,41.437,0,0,0-.761,7.648c.17,2.557,1.341,5.25,3.659,6.364,2.125,1.023,4.648.477,6.966,0a86.973,86.973,0,0,1,16.444-1.727c2.75,0,5.591.068,8.125-1a9.659,9.659,0,0,0,5.762-8.739,18.639,18.639,0,0,0-1.261-5.75c-3.512-10.569-7.034-21.16-11.739-31.263A109.822,109.822,0,0,0,676.46,627.17c-1.136-1.512-2.273-3-3.534-4.443-.886-1.034-2.875-2.489-3.239-3.807s.409-2.591,0-3.932a7.954,7.954,0,0,0-2.9-4.034Z" transform="translate(0.763 -51.428)" fill="#eb7a6d"/>
    <path id="Path_392" data-name="Path 392" d="M707.331,694.949c-6.546-3.023-13.092-6.046-19.9-8.4-5.012-1.727-10.6-3.08-15.523-1.136-1.477.591-2.818,1.443-4.239,2.136-4.762,2.273-10.228,2.659-15.489,3.239a145.461,145.461,0,0,0-34.263,8.148c-2.648.977-5.5,2.273-6.818,4.75a10.875,10.875,0,0,0-.727,5.682c.193,2.9.636,5.944,2.443,8.205,3,3.75,8.444,4.034,13.1,5.216a57.425,57.425,0,0,1,10.376,4.137c10.887,5.193,21.785,10.387,32.467,16.012,1.25.671,2.773,0,3.841-.943a23.625,23.625,0,0,0,6.7-11.046,47.66,47.66,0,0,0,1.7-12.932c4.182,0,7.58-.182,11.762-.182a12.158,12.158,0,0,0,4.546-.58c2.807-1.136,4.33-4.125,5.591-6.875C705.161,705.529,707.7,700.268,707.331,694.949Z" transform="translate(-3.164 -40.977)" fill="#3f3d56"/>
    <path id="Path_393" data-name="Path 393" d="M628.8,707.534c2.943-1.432,6.353-1.466,9.637-1.443a31.865,31.865,0,0,1,5.978.455,47.211,47.211,0,0,1,8.739,3.284,55.477,55.477,0,0,0,22.024,4.318" transform="translate(-0.636 -38.027)" opacity="0.1"/>
    <path id="Path_394" data-name="Path 394" d="M614.179,621.07a16.274,16.274,0,0,0,8.046,4.034c2.955.682,6,.943,8.978,1.6,3.659.807,7.659,2.739,8.489,6.4a21.256,21.256,0,0,1,.114,4.421,5.012,5.012,0,0,0,1.534,3.989,6.814,6.814,0,0,0,1.909.9A31.82,31.82,0,0,1,663.7,671.777a14.467,14.467,0,0,0,7.023-10.364c0,3.955,3.409,7.955,1.477,11.489a18.183,18.183,0,0,0,4.375-26.422c-1.5-1.909-3.409-3.5-4.978-5.33a24.707,24.707,0,0,1-5.887-18.865c.33-2.875,1.137-5.784.534-8.614-.875-3.921-4.318-6.648-7.591-8.978a43.632,43.632,0,0,0-7.364-4.477,36.207,36.207,0,0,0-10.785-2.625c-8.194-.92-15.478.352-20.558,7.273a14.968,14.968,0,0,1-3.887,4.046,14.65,14.65,0,0,0-3.17,2.034C610.292,613.831,611.77,618.6,614.179,621.07Z" transform="translate(-2.993 -52.863)" fill="#3f3d56"/>
    <path id="Path_395" data-name="Path 395" d="M482.461,476.245c-.466-.193-32.854-13.569-28.41-16.228,2.648-1.58,5.909-8.262,8.137-13.5,1.557-3.648,2.614-6.6,2.614-6.6s26-4.614,16.694,11.364a29.653,29.653,0,0,0-3.284,7.853C475.529,469.927,482.2,476.041,482.461,476.245Z" transform="translate(-24.532 -74.421)" fill="#a1616a"/>
    <path id="Path_396" data-name="Path 396" d="M480.438,451.233a29.64,29.64,0,0,0-3.284,7.853,18.182,18.182,0,0,1-15.342-10.8,15.905,15.905,0,0,1-.682-1.773c1.557-3.648,2.614-6.6,2.614-6.6S489.745,435.3,480.438,451.233Z" transform="translate(-23.509 -74.421)" opacity="0.1"/>
    <path id="Path_397" data-name="Path 397" d="M496.7,442.411a18.183,18.183,0,0,1-34.786,7.33,17.945,17.945,0,0,1-1.546-7.33A18.183,18.183,0,0,1,496,437.377,18.385,18.385,0,0,1,496.7,442.411Z" transform="translate(-23.613 -76.463)" fill="#a1616a"/>
    <path id="Path_398" data-name="Path 398" d="M515.914,566.694a11.057,11.057,0,0,0-2.636,5.023s-8.932,6.1-8.341,2.273-4.659-19.546-4.659-19.546l.591,21.3s-28.581-1.341-30.683-3.409-14.228-6.125-14.228-6.125-3.739,3-7.182,5.273c-.455-2.568-.784-4.83-.784-4.83l12.285-9.9,30.683-8.046,11.523-3.7,11.239,17.717S514.879,564.558,515.914,566.694Z" transform="translate(-25.301 -60.001)" opacity="0.1"/>
    <path id="Path_399" data-name="Path 399" d="M517.406,577.8c-2.375,1.489-3.273,5.512-3.273,5.512s-8.932,6.1-8.341,2.273-4.614-19.5-4.614-19.5l.6,21.3s-28.592-1.341-30.683-3.409-14.3-6.1-14.3-6.1-10.569,8.489-12.5,7.739,3.409-15.182,3.409-15.182l5.5-84.572s-1.489-25.16.75-26.058a2.954,2.954,0,0,0,.932-.591c1.477-1.318,1.921-4,2.046-6.262.148-2.671,3.716-1.341,3.716-1.341l-2.08,2.682L477.029,465.5l.159.1a22.14,22.14,0,0,1,2.273-1.011c1.636-.625,3.807-1.216,5.228-.625a5.125,5.125,0,0,1,1.955,1.761,21.785,21.785,0,0,1,2.511,5.091l6.7,11.307s3.409,15.046,3.409,15.637,1.045,14.3,2.273,15.785,2.387,8.932,1.943,11.171.739,10.569.739,10.569c4.921,4.023,7.444,17.717,7.444,17.717s7.75,15.341,8.341,17.126S519.793,576.31,517.406,577.8Z" transform="translate(-25.862 -72.787)" fill="#444053"/>
    <path id="Path_400" data-name="Path 400" d="M475.727,465.969c-1.818,2.682-7.046,6.444-7.046,6.444L453.59,459.673c1.477-1.318,1.921-4.012,2.045-6.262.148-2.682,3.716-1.341,3.716-1.341l-.432.557a2.409,2.409,0,0,0,.648,3.523Z" transform="translate(-24.538 -72.724)" opacity="0.1"/>
    <path id="Path_401" data-name="Path 401" d="M475.727,465.438c-1.818,2.682-7.046,6.455-7.046,6.455L453.59,459.142c1.477-1.318,1.921-4,2.045-6.262.148-2.671,3.716-1.341,3.716-1.341l-.432.557a2.409,2.409,0,0,0,.648,3.523Z" transform="translate(-24.538 -72.795)" fill="#444053"/>
    <path id="Path_402" data-name="Path 402" d="M480.088,465.775c-1.955,2.33-4.716,4.977-4.546,3.648s-1.648-4.25-2.773-5.557a8.3,8.3,0,0,1,5.409.148A5.125,5.125,0,0,1,480.088,465.775Z" transform="translate(-21.921 -71.121)" opacity="0.1"/>
    <path id="Path_403" data-name="Path 403" d="M480.328,464.949c-1.955,2.341-4.716,4.978-4.546,3.659s-1.466-3.477-2.6-4.784c1.637-.625,3.807-1.216,5.228-.625A5,5,0,0,1,480.328,464.949Z" transform="translate(-21.865 -71.193)" fill="#444053"/>
    <path id="Path_404" data-name="Path 404" d="M456.506,458.9s.193-1.784-2.387,1.3a31.468,31.468,0,0,1-7.387,5.7s-11.012,7.75-11.614,11.364-4.171,19.058-2.273,24.217,16.285,29.888,16.285,29.888-3.773,4.466-2.887,9.728,1.989,12.5,1.489,14.092.6,5.557-1.136,6.943-3.466,3.773,1.8,6.955c0,0,.989,2.682.091,3.273s13.205,6.75,18.762,3.477S482.837,546.36,483.03,540.5s-3.08-25.206-4.864-29.774-7.148-22.342-9.432-26.308S456.506,458.9,456.506,458.9Z" transform="translate(-27.442 -71.816)" opacity="0.1"/>
    <path id="Path_405" data-name="Path 405" d="M455.982,458.9s.2-1.784-2.375,1.3a31.471,31.471,0,0,1-7.443,5.75s-11.023,7.75-11.614,11.364-4.171,19.058-2.273,24.217,16.273,29.888,16.273,29.888-3.773,4.466-2.875,9.728,1.989,12.5,1.489,14.092.591,5.557-1.136,6.943-3.477,3.773,1.784,6.955c0,0,1,2.682.1,3.273s13.205,6.75,18.762,3.477,15.58-29.478,15.785-35.342-3.08-25.206-4.864-29.774-7.148-22.342-9.432-26.308S455.982,458.9,455.982,458.9Z" transform="translate(-27.52 -71.816)" fill="#eb7a6d"/>
    <path id="Path_406" data-name="Path 406" d="M449.58,473.69s8.534,9.432,8.239,15.682C457.819,489.373,457.921,479.247,449.58,473.69Z" transform="translate(-25.085 -69.729)" opacity="0.1"/>
    <path id="Path_407" data-name="Path 407" d="M474.95,461.889s5.534-3.409,12.5,5.262c0,0,5.057,2.875,6.546,3.58s3.182,19.149,3.182,19.149,3.273,7.955,2.375,12.5,2.591,20.251,2.591,20.251,5.75,28.194,5.557,28.979-5.864-8.83-5.762-13.637-4.761-19.66-5.455-20.546-5.466-26.41-5.466-26.41-3.864-10.819-6.352-14.387-5.557-10.33-6.819-11.523a13.128,13.128,0,0,0-3.068-1.977Z" transform="translate(-21.647 -71.429)" opacity="0.1"/>
    <path id="Path_408" data-name="Path 408" d="M474.884,461.889s6.2-3.409,13.148,5.262c0,0,5.068,2.875,6.557,3.58s3.171,19.149,3.171,19.149,3.273,7.955,2.387,12.5,2.58,20.251,2.58,20.251,5.762,28.194,5.557,28.979-5.853-8.83-5.762-13.637-4.762-19.66-5.455-20.546-5.455-26.41-5.455-26.41-3.875-10.728-6.353-14.33-5.568-10.33-6.819-11.523a12.419,12.419,0,0,0-3.671-1.977Z" transform="translate(-21.648 -71.429)" fill="#eb7a6d"/>
    <path id="Path_409" data-name="Path 409" d="M498.85,517s11.807-7.739,17.512-3.921,15.046,9.239,5.864,13.16-21.887,3.171-21.887,3.171Z" transform="translate(-18.363 -64.5)" fill="#a1616a"/>
    <path id="Path_410" data-name="Path 410" d="M492.984,583.041c-1.761,3.784-3.216,22.728-4.2,28.774-1.409-2.421-3.114-5.307-3.693-6.216a79.329,79.329,0,0,1-3.466-8.841c1.136-2.727,4.216-10.546,4.216-13.41,0-3.5,5.682-7.9,5.682-7.9A6.569,6.569,0,0,1,492.984,583.041Z" transform="translate(-20.714 -55.847)" opacity="0.1"/>
    <path id="Path_411" data-name="Path 411" d="M496,437.376a5.387,5.387,0,0,1-.886.364c-1.4.375-2.762-.568-4-1.318s-2.955-1.307-4.034-.33c-1.4,1.273-.386,3.989-1.83,5.216-.909.784-2.352.511-3.409,1.137s-1.318,2.045-1.58,3.25-.761,2.591-1.955,2.943-2.273-.421-3.409-.386a1.1,1.1,0,0,1-.682-.136.727.727,0,0,1-.114-.534,11.636,11.636,0,0,0-.386-4.307,4.125,4.125,0,0,0-3.023-2.841c-2.091-.318-3.852,1.511-5.08,3.239a52.736,52.736,0,0,0-3.512,5.682c-.057.1-.114.239-.182.4a17.945,17.945,0,0,1-1.546-7.33A18.183,18.183,0,0,1,496,437.387Z" transform="translate(-23.613 -76.462)" opacity="0.1"/>
    <path id="Path_412" data-name="Path 412" d="M466.143,444.642c1.227-1.727,2.989-3.557,5.08-3.239a4.137,4.137,0,0,1,3.023,2.83,11.445,11.445,0,0,1,.375,4.307.8.8,0,0,0,.125.545c.159.182.443.148.682.136,1.136,0,2.33.716,3.409.386s1.7-1.739,1.955-2.943.534-2.591,1.58-3.25,2.466-.375,3.409-1.136c1.443-1.227.432-3.955,1.83-5.216,1.08-.977,2.8-.42,4.034.33s2.6,1.693,4,1.318a11.8,11.8,0,0,0,1.352-.58c2.216-.841,5.08.591,6.887-.92a5.352,5.352,0,0,0,1.375-2.386,14.659,14.659,0,0,0,1-3.784,5.091,5.091,0,0,0-1-3.7c-1.136-1.386-3.182-1.739-4.693-2.761a11.523,11.523,0,0,1-2.989-3.534,13.056,13.056,0,0,0-2.909-3.614,4.273,4.273,0,0,0-4.375-.682,4.545,4.545,0,0,1-1.432.67,2.864,2.864,0,0,1-1.58-.432c-5.159-2.432-11.171-2-16.83-1.273a21.66,21.66,0,0,0-6.637,1.6,7.955,7.955,0,0,0-4.477,4.9c-.455,1.75-.1,3.648-.659,5.375-.375,1.136-1.136,2.171-1.591,3.318-1.2,3.137.239,6.591.852,9.9.67,3.614.33,7.523,1.864,10.944.307.67.636,1.841,1.4,1.4.557-.33,1.136-2.273,1.421-2.83a54.713,54.713,0,0,1,3.523-5.671Z" transform="translate(-24.124 -77.716)" fill="#3f3d56"/>
    <path id="Path_413" data-name="Path 413" d="M436.542,494.352l-2.682,7.614s6.352,23.626,9.33,28.592,7.341,11.364,7.341,11.364a27.274,27.274,0,0,0,15.91,1.977c8.534-1.682,33.445-6.148,33.445-6.148a3.318,3.318,0,0,0,3.182-1.193c1.136-1.591,6.75-2.386,6.75-2.386s6.546-9.523-1.489-13.5c0,0-.989,2.193-5.262.693s-5.557,1.193-5.557,1.193-6.955,1.4-10.819.9-13.5-.693-14.5-1.489a1.261,1.261,0,0,0-1.784.1,10.831,10.831,0,0,1-3.171-1.8c-.8-.886-1.887,1-1.887,1s-1.4-.8-1-1.784-1.284-4.773-1.284-4.773a9.615,9.615,0,0,1-.3-4.466c.489-1.989-2.489-9.091-2.489-9.091a12.884,12.884,0,0,1,.4-3.58c.5-1.784-3.773-5.364-3.773-5.364s-4.171-20.24-13-13.637S436.542,494.352,436.542,494.352Z" transform="translate(-27.229 -69.242)" opacity="0.1"/>
    <path id="Path_414" data-name="Path 414" d="M436.012,494.352l-2.682,7.614s6.353,23.626,9.33,28.592,7.353,11.364,7.353,11.364a27.207,27.207,0,0,0,15.91,1.977c8.546-1.682,33.456-6.148,33.456-6.148a3.318,3.318,0,0,0,3.182-1.193c1.136-1.591,6.75-2.386,6.75-2.386s6.546-9.523-1.489-13.5c0,0-1,2.193-5.262.693s-5.568,1.193-5.568,1.193-6.944,1.4-10.819.9-13.5-.693-14.489-1.489a1.261,1.261,0,0,0-1.784.1,10.844,10.844,0,0,1-3.182-1.8c-.8-.886-1.886,1-1.886,1s-1.386-.8-.989-1.784-1.3-4.773-1.3-4.773a9.785,9.785,0,0,1-.3-4.466c.5-1.989-2.477-9.091-2.477-9.091a12.4,12.4,0,0,1,.4-3.58c.489-1.784-3.773-5.364-3.773-5.364s-4.171-20.24-13-13.637S436.012,494.352,436.012,494.352Z" transform="translate(-27.301 -69.242)" fill="#eb7a6d"/>
    <path id="Path_415" data-name="Path 415" d="M458.126,512.56s-9.728,1.989-6.455,3.671S458.126,512.56,458.126,512.56Z" transform="translate(-24.891 -64.426)" opacity="0.1"/>
    <g id="Group_27" data-name="Group 27" transform="translate(432.475 351.914)" opacity="0.1">
      <path id="Path_416" data-name="Path 416" d="M474.226,440.439a4.091,4.091,0,0,0-3.023-2.83c-2.091-.318-3.853,1.511-5.08,3.227a54.867,54.867,0,0,0-3.523,5.682c-.318.591-.864,2.5-1.421,2.83-.761.443-1.136-.739-1.4-1.409-1.534-3.409-1.136-7.33-1.864-10.944a63.33,63.33,0,0,1-1.284-6.375c-.227,2.591.8,5.318,1.284,7.955.671,3.614.33,7.523,1.864,10.944.307.67.637,1.841,1.4,1.4.557-.33,1.136-2.273,1.421-2.818a53.689,53.689,0,0,1,3.523-5.682c1.227-1.727,2.989-3.557,5.08-3.227a4.091,4.091,0,0,1,3.023,2.83,7.772,7.772,0,0,1,.4,2.273A10.227,10.227,0,0,0,474.226,440.439Z" transform="translate(-456.601 -427.518)"/>
      <path id="Path_417" data-name="Path 417" d="M503.073,431.424A5.25,5.25,0,0,1,501.7,433.8c-1.807,1.511-4.671.091-6.887.932-.454.17-.875.443-1.352.58-1.4.364-2.761-.568-4-1.318s-2.955-1.318-4.034-.341c-1.4,1.273-.386,3.989-1.83,5.216-.909.784-2.352.511-3.409,1.136s-1.318,2.034-1.58,3.239-.761,2.591-1.955,2.943-2.273-.42-3.409-.375a1.1,1.1,0,0,1-.682-.136.318.318,0,0,1-.08-.148v1.193a.784.784,0,0,0,.125.534c.159.182.443.148.682.148,1.136,0,2.33.7,3.409.375s1.7-1.727,1.955-2.943.534-2.58,1.58-3.239,2.466-.375,3.409-1.137c1.443-1.227.432-3.943,1.83-5.216,1.08-.977,2.8-.42,4.034.33s2.6,1.693,4,1.318a14.158,14.158,0,0,0,1.352-.568c2.216-.841,5.08.58,6.887-.932a5.307,5.307,0,0,0,1.375-2.375,14.862,14.862,0,0,0,1-3.8,5.783,5.783,0,0,0,0-1.33A16.827,16.827,0,0,1,503.073,431.424Z" transform="translate(-454.436 -427.89)"/>
    </g>
    <ellipse id="Ellipse_57" data-name="Ellipse 57" cx="46.502" cy="8.944" rx="46.502" ry="8.944" transform="translate(236.419 633.778)" fill="#eb7a6d"/>
    <ellipse id="Ellipse_58" data-name="Ellipse 58" cx="5.409" cy="7.091" rx="5.409" ry="7.091" transform="translate(276.739 631.835)" fill="#3f3d56"/>
    <ellipse id="Ellipse_59" data-name="Ellipse 59" cx="5.409" cy="7.091" rx="5.409" ry="7.091" transform="translate(276.739 623.176)" fill="#3f3d56"/>
    <ellipse id="Ellipse_60" data-name="Ellipse 60" cx="5.409" cy="7.091" rx="5.409" ry="7.091" transform="translate(276.739 614.516)" fill="#3f3d56"/>
    <ellipse id="Ellipse_61" data-name="Ellipse 61" cx="5.409" cy="7.091" rx="5.409" ry="7.091" transform="translate(276.739 605.845)" fill="#3f3d56"/>
    <ellipse id="Ellipse_62" data-name="Ellipse 62" cx="5.409" cy="7.091" rx="5.409" ry="7.091" transform="translate(276.739 597.186)" fill="#3f3d56"/>
    <ellipse id="Ellipse_63" data-name="Ellipse 63" cx="5.409" cy="7.091" rx="5.409" ry="7.091" transform="translate(276.739 588.526)" fill="#3f3d56"/>
    <ellipse id="Ellipse_64" data-name="Ellipse 64" cx="5.409" cy="7.091" rx="5.409" ry="7.091" transform="translate(276.739 579.867)" fill="#3f3d56"/>
    <path id="Path_418" data-name="Path 418" d="M347.706,587.6a25.272,25.272,0,0,0,2.011-2.977l-14.217-2.33,15.376.114a25.99,25.99,0,0,0,.5-20.546L330.74,572.563l19.069-14.012a25.933,25.933,0,1,0-42.831,29.024,25.589,25.589,0,0,0-2.955,4.727l18.455,9.591L302.8,595.28a25.888,25.888,0,0,0,4.182,24.353,25.933,25.933,0,1,0,40.763,0,25.933,25.933,0,0,0,0-32.058Z" transform="translate(-45.296 -59.915)" fill="#eb7a6d"/>
    <path id="Path_419" data-name="Path 419" d="M301.39,596.706a25.808,25.808,0,0,0,5.557,16.035,25.933,25.933,0,1,0,40.763,0C351.188,608.331,301.39,593.8,301.39,596.706Z" transform="translate(-45.3 -53)" opacity="0.1"/>
    <ellipse id="Ellipse_65" data-name="Ellipse 65" cx="38.606" cy="7.425" rx="38.606" ry="7.425" transform="translate(804.904 748.977)" fill="#eb7a6d"/>
    <ellipse id="Ellipse_66" data-name="Ellipse 66" cx="4.491" cy="5.887" rx="4.491" ry="5.887" transform="translate(838.377 747.364)" fill="#3f3d56"/>
    <ellipse id="Ellipse_67" data-name="Ellipse 67" cx="4.491" cy="5.887" rx="4.491" ry="5.887" transform="translate(838.377 740.175)" fill="#3f3d56"/>
    <ellipse id="Ellipse_68" data-name="Ellipse 68" cx="4.491" cy="5.887" rx="4.491" ry="5.887" transform="translate(838.377 732.986)" fill="#3f3d56"/>
    <ellipse id="Ellipse_69" data-name="Ellipse 69" cx="4.491" cy="5.887" rx="4.491" ry="5.887" transform="translate(838.377 725.787)" fill="#3f3d56"/>
    <ellipse id="Ellipse_70" data-name="Ellipse 70" cx="4.491" cy="5.887" rx="4.491" ry="5.887" transform="translate(838.377 718.598)" fill="#3f3d56"/>
    <ellipse id="Ellipse_71" data-name="Ellipse 71" cx="4.491" cy="5.887" rx="4.491" ry="5.887" transform="translate(838.377 711.409)" fill="#3f3d56"/>
    <ellipse id="Ellipse_72" data-name="Ellipse 72" cx="4.491" cy="5.887" rx="4.491" ry="5.887" transform="translate(838.377 704.22)" fill="#3f3d56"/>
    <path id="Path_420" data-name="Path 420" d="M1024.847,653.472a21.029,21.029,0,0,0,1.67-2.472l-11.8-1.934,12.765.094a21.579,21.579,0,0,0,.415-17.058l-17.133,8.887,15.831-11.633a21.53,21.53,0,1,0-35.559,24.1,21.226,21.226,0,0,0-2.453,3.925l15.321,7.963-16.341-5.491a21.492,21.492,0,0,0,3.472,20.218,21.53,21.53,0,1,0,33.842,0,21.53,21.53,0,0,0,0-26.615Z" transform="translate(-165.157 7.425)" fill="#eb7a6d"/>
    <path id="Path_421" data-name="Path 421" d="M986.39,669.641A21.426,21.426,0,0,0,991,682.953a21.53,21.53,0,1,0,33.842,0C1027.732,679.293,986.39,667.226,986.39,669.641Z" transform="translate(-165.155 4.558)" opacity="0.1"/>
    <circle id="Ellipse_73" data-name="Ellipse 73" cx="17.353" cy="17.353" r="17.353" transform="translate(435.382 89.118)" fill="#eb7a6d" opacity="0.1"/>
    <circle id="Ellipse_75" data-name="Ellipse 75" cx="29.092" cy="29.092" r="29.092" transform="translate(447.224 141.165)" fill="#eb7a6d" opacity="0.1"/>
    <circle id="Ellipse_80" data-name="Ellipse 80" cx="16.478" cy="16.478" r="16.478" transform="translate(133.312 293.32)" fill="#eb7a6d" opacity="0.1"/>
    <circle id="Ellipse_82" data-name="Ellipse 82" cx="9.83" cy="9.83" r="9.83" transform="translate(826.263 278.081)" fill="#eb7a6d" opacity="0.1"/>
    <circle id="Ellipse_83" data-name="Ellipse 83" cx="16.478" cy="16.478" r="16.478" transform="translate(861.754 234.226)" fill="#eb7a6d" opacity="0.1"/>
    <circle id="Ellipse_84" data-name="Ellipse 84" cx="16.478" cy="16.478" r="16.478" transform="translate(782.887 259.784)" fill="#eb7a6d" opacity="0.1"/>
    <circle id="Ellipse_86" data-name="Ellipse 86" cx="23.774" cy="23.774" r="23.774" transform="translate(450.724 274.331)" fill="#eb7a6d" opacity="0.1"/>
    <circle id="Ellipse_87" data-name="Ellipse 87" cx="23.774" cy="23.774" r="23.774" transform="translate(685.962 428.883)" fill="#eb7a6d" opacity="0.1"/>
    <ellipse id="Ellipse_88" data-name="Ellipse 88" cx="135.802" cy="27.274" rx="135.802" ry="27.274" transform="translate(147.119 618.857)" fill="none" stroke="#444053" stroke-miterlimit="10" stroke-width="1"/>
    <ellipse id="Ellipse_89" data-name="Ellipse 89" cx="112.743" cy="22.643" rx="112.743" ry="22.643" transform="translate(730.767 734.703)" fill="none" stroke="#444053" stroke-miterlimit="10" stroke-width="1"/>
    <ellipse id="Ellipse_90" data-name="Ellipse 90" cx="96.955" cy="19.392" rx="96.955" ry="19.392" transform="translate(278.579 717.559)" fill="none" stroke="#444053" stroke-miterlimit="10" stroke-width="1"/>
  </g>
</svg>
