<?xml version="1.0" encoding="utf-8"?>
<!-- Generator: Adobe Illustrator 23.0.6, SVG Export Plug-In . SVG Version: 6.00 Build 0)  -->
<svg version="1.1" id="svg--contact--page" xmlns="http://www.w3.org/2000/svg" xmlns:xlink="http://www.w3.org/1999/xlink" x="0px"
	 y="0px" viewBox="0 0 555.5 391.3" style="enable-background:new 0 0 555.5 391.3;" xml:space="preserve">
<style type="text/css">
	.st0{opacity:0.1;}
	.st1{fill:#3F3D56;}
	.st2{fill:#EB7A6D;}
	.st3{opacity:0.1;enable-background:new    ;}
	.st4{opacity:0.1;fill:#EB7A6D;enable-background:new    ;}
	.st5{fill:none;stroke:#3F3D56;stroke-width:4;stroke-miterlimit:10;}
	.st6{fill:url(#Path_672_1_);}
	.st7{fill:#BE6F72;}
	.st8{fill:#FF6F61;}
	.st9{opacity:0.1;fill:none;stroke:#000000;stroke-miterlimit:10;enable-background:new    ;}
	.st10{fill:url(#Path_718_1_);}
	.st11{fill:#2F2E41;}
	.st12{fill:#FBBEBE;}
	.st13{fill:#E8E8F0;}
	.st14{fill:#F86D70;}
</style>
<g id="svg--contact--page_x5F__x5F_tree--one" transform="translate(306.428 27.834)" class="st0">
	<ellipse id="Ellipse_148" class="st1" cx="-79.4" cy="211" rx="8.3" ry="10.9"/>
	<path id="Path_614" class="st1" d="M-72.8,164.3c1.2-2,1.8-4.3,1.7-6.7c0-6-3.7-10.9-8.3-10.9s-8.3,4.9-8.3,10.9
		c0,2.3,0.6,4.6,1.7,6.7c-2.3,4.1-2.3,9.2,0,13.3c-2.3,4.1-2.3,9.2,0,13.3c-1.2,2-1.8,4.3-1.7,6.7c0,6,3.7,10.9,8.3,10.9
		s8.3-4.9,8.3-10.9c0-2.3-0.6-4.6-1.7-6.7c2.3-4.1,2.3-9.2,0-13.3C-70.5,173.5-70.5,168.5-72.8,164.3L-72.8,164.3z"/>
	<ellipse id="Ellipse_149" class="st1" cx="-79.4" cy="144.4" rx="8.3" ry="10.9"/>
	<ellipse id="Ellipse_150" class="st1" cx="-79.4" cy="131.1" rx="8.3" ry="10.9"/>
	<path id="Path_615" class="st2" d="M-110.5,39.9c-1.1-1.4-2.2-3-3.1-4.6l21.9-3.6l-23.6,0.2c-4.6-10-4.8-21.4-0.7-31.6l31.7,16.5
		l-29.2-21.5c10.9-19.1,35.2-25.8,54.4-15c19.1,10.9,25.8,35.2,15,54.4c-1,1.8-2.2,3.5-3.5,5.2c1.8,2.3,3.3,4.7,4.5,7.3L-71.7,62
		l30.3-10.2c4.3,12.8,1.9,26.8-6.4,37.4c13.6,17.3,10.6,42.4-6.7,56c-17.3,13.6-42.4,10.6-56-6.7c-11.4-14.5-11.4-34.8,0-49.3
		C-121.9,74.8-121.9,54.4-110.5,39.9L-110.5,39.9z"/>
	<path id="Path_616" class="st3" d="M-39.3,64.6c0,8.9-3,17.6-8.5,24.6c13.6,17.3,10.6,42.4-6.7,56c-17.3,13.6-42.4,10.6-56-6.7
		c-11.4-14.5-11.4-34.8,0-49.3C-115.9,82.5-39.3,60.1-39.3,64.6z"/>
</g>
<g id="svg--contact--page_x5F__x5F_tree--two" transform="translate(413.598 64.27)" class="st0">
	<ellipse id="Ellipse_151" class="st1" cx="-88.8" cy="148.2" rx="6.2" ry="8.1"/>
	<path id="Path_617" class="st1" d="M-83.9,113.4c0.9-1.5,1.3-3.2,1.3-5c0-4.5-2.8-8.1-6.2-8.1s-6.2,3.7-6.2,8.1
		c0,1.7,0.4,3.5,1.3,5c-1.7,3.1-1.7,6.9,0,10c-1.7,3.1-1.7,6.9,0,10c-0.9,1.5-1.3,3.2-1.3,5c0,4.5,2.8,8.1,6.2,8.1s6.2-3.7,6.2-8.1
		c0-1.7-0.4-3.5-1.3-5c1.7-3.1,1.7-6.9,0-10C-82.2,120.3-82.2,116.5-83.9,113.4z"/>
	<ellipse id="Ellipse_152" class="st1" cx="-88.8" cy="98.5" rx="6.2" ry="8.1"/>
	<ellipse id="Ellipse_153" class="st1" cx="-88.8" cy="88.5" rx="6.2" ry="8.1"/>
	<path id="Path_618" class="st2" d="M-112.1,20.4c-0.9-1.1-1.6-2.2-2.3-3.4l16.3-2.7l-17.7,0.1c-3.4-7.5-3.6-16-0.6-23.6l23.7,12.3
		l-21.9-16.1c8.2-14.3,26.4-19.2,40.7-11s19.2,26.4,11,40.7c-0.7,1.3-1.6,2.5-2.5,3.7c1.3,1.7,2.5,3.5,3.4,5.4l-21.2,11l22.6-7.6
		c3.2,9.5,1.4,20.1-4.8,28c10.2,12.9,8,31.7-5,41.8c-12.9,10.2-31.7,8-41.8-5c-8.5-10.8-8.5-26.1,0-36.9
		C-120.6,46.4-120.6,31.2-112.1,20.4L-112.1,20.4z"/>
	<path id="Path_619" class="st3" d="M-58.9,38.8c0,6.7-2.2,13.2-6.4,18.4c10.2,12.9,8,31.7-5,41.8c-12.9,10.2-31.7,8-41.8-5
		c-8.5-10.8-8.5-26.1,0-36.9C-116.1,52.2-58.9,35.5-58.9,38.8z"/>
</g>
<ellipse id="svg--contact--page_x5F__x5F_floor--four" class="st4" cx="277.8" cy="384.8" rx="277.8" ry="6.5"/>
<ellipse id="svg--contact--page_x5F__x5F_floor--three" class="st4" cx="277.8" cy="331.6" rx="277.8" ry="6.5"/>
<ellipse id="svg--contact--page_x5F__x5F_floor--one" class="st4" cx="277.8" cy="220.6" rx="277.8" ry="6.5"/>
<ellipse id="svg--contact--page_x5F__x5F_floor--two" class="st4" cx="277.8" cy="276.1" rx="277.8" ry="6.5"/>
<g id="svg--contact--page_x5F__x5F_cloud--two">
	<path id="Path_632" class="st4" d="M468.4,51.7c-2.6-0.5-5.3-0.2-7.8,0.8c-3,1.3-6.4,1.3-9.3,0c-3.5-1.5-7.5-1.5-11,0.2
		c-1,0.5-2.1,0.8-3.2,0.8c-4.4,0-8.1-4.5-8.9-10.4c0.9-0.7,1.6-1.5,2.2-2.4c2.6-4.2,6.6-6.9,11.2-6.9s8.5,2.7,11.1,6.8
		c1.6,2.6,4.4,4.1,7.4,4.1h0.1C463.9,44.7,467,47.6,468.4,51.7z"/>
	<path id="Path_633" class="st4" d="M482,33.2l-7.2,4.5l4.4-7.9c-1.2-1-2.8-1.5-4.3-1.5h-0.1c-0.5,0-1,0-1.5-0.1l-2.5,1.5l1-1.9
		c-1.7-0.6-3.2-1.7-4.3-3.2l-4.4,2.8l2.7-5c-2.3-3-5.9-4.8-9.8-4.9c-4.5,0-8.6,2.7-11.2,6.9c-1.6,2.6-4.4,4.1-7.4,4h-0.2
		c-5,0-9.1,5.7-9.1,12.7s4.1,12.7,9.1,12.7c1.1,0,2.2-0.3,3.2-0.8c3.4-1.7,7.5-1.8,11-0.2c3,1.3,6.4,1.3,9.3,0
		c3.5-1.5,7.4-1.4,10.9,0.2c1,0.5,2,0.8,3.1,0.8c5,0,9.1-5.7,9.1-12.7C483.9,38.2,483.2,35.6,482,33.2L482,33.2z"/>
</g>
<g id="svg--contact--page_x5F__x5F_cloud--one">
	<path id="Path_634" class="st4" d="M163.1,47.8c-1.8-0.3-3.7-0.1-5.4,0.6c-2.1,0.9-4.4,0.9-6.5,0c-2.5-1.1-5.3-1-7.7,0.2
		c-0.7,0.4-1.4,0.5-2.2,0.5c-3.1,0-5.7-3.1-6.2-7.3c0.6-0.5,1.1-1,1.6-1.7c2.2-4.3,7.4-6.1,11.7-3.9c1.7,0.8,3,2.2,3.9,3.8
		c1.1,1.8,3.1,2.9,5.2,2.8h0.1C160,42.9,162.1,44.9,163.1,47.8z"/>
	<path id="Path_635" class="st4" d="M172.6,34.8l-5,3.2l3-5.6c-0.9-0.7-1.9-1.1-3-1.1h-0.1c-0.3,0-0.7,0-1-0.1l-1.7,1.1l0.7-1.3
		c-1.2-0.4-2.3-1.2-3-2.3l-3,1.9l1.9-3.5c-1.6-2.1-4.1-3.4-6.8-3.5c-3.3,0.1-6.2,2-7.8,4.8c-1.1,1.8-3.1,2.9-5.2,2.8h-0.2
		c-3.5,0-6.3,4-6.3,8.9s2.8,8.9,6.3,8.9c0.8,0,1.5-0.2,2.2-0.6c2.4-1.2,5.2-1.2,7.7-0.1c2.1,1,4.4,1,6.5,0c2.4-1.1,5.2-1,7.6,0.1
		c0.7,0.4,1.4,0.5,2.2,0.5c3.5,0,6.3-4,6.3-8.9C174,38.3,173.5,36.5,172.6,34.8L172.6,34.8z"/>
</g>
<g id="svg--contact--page_x5F__x5F_cloud--three">
	<path id="Path_636" class="st4" d="M74.2,105.1c1.8-0.3,3.7-0.1,5.4,0.6c2.1,0.9,4.4,0.9,6.5,0c2.5-1.1,5.3-1,7.7,0.1
		c0.7,0.4,1.4,0.6,2.2,0.6c3.1,0,5.7-3.1,6.2-7.3c-0.6-0.5-1.1-1-1.5-1.7c-2.2-4.3-7.4-6.1-11.7-3.9c-1.7,0.8-3,2.2-3.9,3.8
		c-1.1,1.8-3.1,2.9-5.2,2.8h-0.1C77.4,100.2,75.2,102.2,74.2,105.1z"/>
	<path id="Path_637" class="st4" d="M64.7,92.1l5,3.2l-3.1-5.5c0.9-0.7,1.9-1.1,3-1.1h0.1c0.4,0,0.7,0,1-0.1l1.7,1.1l-0.7-1.3
		c1.2-0.4,2.2-1.2,3-2.3l3,1.9L76,84.6c1.6-2.1,4.1-3.4,6.8-3.5c3.3,0.1,6.2,2,7.8,4.8c1.1,1.8,3.1,2.8,5.2,2.8h0.2
		c3.5,0,6.3,4,6.3,8.9s-2.8,8.9-6.3,8.9c-0.8,0-1.5-0.2-2.2-0.5c-2.4-1.2-5.2-1.2-7.7-0.2c-1,0.5-2.1,0.7-3.3,0.7
		c-1.1,0-2.2-0.2-3.2-0.7c-2.4-1.1-5.2-1-7.6,0.1c-0.7,0.4-1.4,0.5-2.2,0.5c-3.5,0-6.3-4-6.3-8.9C63.4,95.7,63.8,93.8,64.7,92.1z"/>
</g>
<g id="svg--contact--page_x5F_plant--four">
	<path id="Path_638" class="st5" d="M362.8,329.5c1.9-3.5-0.3-7.9-2.7-11s-5.5-6.4-5.5-10.4c0.1-5.8,6.2-9.2,11.1-12.2
		c3.6-2.3,7-5,10-8c1.3-1.2,2.3-2.6,3.1-4.1c1-2.3,1-4.8,0.9-7.3c-0.2-8.2-0.6-16.5-1.2-24.7"/>
	<path id="Path_639" class="st2" d="M387.8,251.2c-0.1-3.1-1.8-5.8-4.5-7.4l-2,4l0.1-4.8c-4.8-1.4-9.8,1.3-11.2,6.1
		c-1.4,4.8,1.3,9.8,6.1,11.2c4.8,1.4,9.8-1.3,11.2-6.1C387.7,253.2,387.8,252.2,387.8,251.2L387.8,251.2z"/>
	<path id="Path_640" class="st2" d="M371.7,312.1c-2.3,4.4-7.7,6.2-12.1,3.9c-2.9-1.5-4.7-4.3-4.9-7.5c-0.1-1.2,0.1-2.5,0.6-3.7
		c1.8-4.6,7-6.9,11.7-5.1c2.4,0.9,4.2,2.8,5.1,5.2l-5.6,4.6l6.2-1.5C372.7,309.5,372.3,310.9,371.7,312.1z"/>
	<path id="Path_641" class="st2" d="M367.3,294.7c-5,0.2-9.2-3.6-9.4-8.6c-0.2-4.2,2.5-7.9,6.5-9.1l-0.1,3.7l2-4l0,0
		c5-0.2,9.2,3.6,9.4,8.6S372.2,294.4,367.3,294.7L367.3,294.7z"/>
	<path id="Path_642" class="st2" d="M389.1,280.1c-5,0.3-9.2-3.6-9.4-8.5c-0.3-5,3.6-9.2,8.5-9.4c1.7-0.1,3.4,0.3,4.9,1.2l-1.6,4.4
		l3.2-3.2c3.7,3.4,3.9,9.1,0.6,12.7C393.7,279,391.5,280,389.1,280.1L389.1,280.1z"/>
	<path id="Path_643" class="st3" d="M386.5,253.6c-2.1,0.2-4.1,0.9-6.2,1s-4.4-0.4-5.7-2c-0.6-0.9-1.2-1.9-1.7-2.9
		c-0.6-0.9-1.3-1.6-2.3-2.1c-2.3,4.4-0.5,9.8,3.9,12.1c4.4,2.3,9.8,0.5,12.1-3.9c0.4-0.7,0.6-1.4,0.8-2.2
		C387.2,253.6,386.9,253.6,386.5,253.6z"/>
	<path id="Path_644" class="st3" d="M389.1,280.1c-5,0.2-9.2-3.6-9.4-8.6c-0.1-1.5,0.2-2.9,0.9-4.3c0.7,0.5,1.3,1.1,1.8,1.8
		c0.5,1,1.1,2,1.8,3c1.4,1.6,3.8,2.2,6,2.1s4.3-0.7,6.4-0.9c0.3,0,0.6,0,0.9-0.1C396.5,277.1,393.1,279.9,389.1,280.1z"/>
	<path id="Path_645" class="st3" d="M367.3,294.7c-5,0.2-9.2-3.6-9.4-8.6c-0.1-1.4,0.2-2.8,0.8-4.1c0.7,0.5,1.4,1.1,1.9,1.8
		c0.6,1,1.2,2.1,2,3c1.5,1.7,4.1,2.3,6.4,2.2s4.4-0.6,6.6-0.7C374.3,291.9,371,294.5,367.3,294.7L367.3,294.7z"/>
	<path id="Path_646" class="st3" d="M371.7,312.1c-2.3,4.4-7.7,6.2-12.1,3.9c-2.9-1.5-4.7-4.3-4.9-7.5c-0.1-1.2,0.1-2.5,0.6-3.7
		c0.7,0.5,1.4,1.1,2,1.8c0.9,1,1.4,2.2,2.4,3.2c1.8,1.8,4.8,2.6,7.5,2.6C368.7,312.4,370.2,312.3,371.7,312.1L371.7,312.1z"/>
</g>
<g id="svg--contact--page_x5F__x5F_plant--one">
	<path id="Path_656" class="st5" d="M213.8,216.6c-1.9-3.5,0.3-7.9,2.7-11s5.5-6.4,5.5-10.4c-0.1-5.8-6.2-9.2-11.1-12.2
		c-3.6-2.3-7-5-10-8c-1.3-1.2-2.3-2.6-3.1-4.1c-1-2.3-1-4.8-0.9-7.3c0.2-8.2,0.6-16.5,1.2-24.7"/>
	<path id="Path_657" class="st2" d="M188.8,138.4c0.1-3.1,1.8-5.8,4.5-7.4l2,4l-0.1-4.8c1-0.3,2-0.4,3-0.4c5,0.2,8.8,4.4,8.6,9.4
		c-0.2,5-4.4,8.8-9.4,8.6C192.4,147.5,188.6,143.3,188.8,138.4L188.8,138.4z"/>
	<path id="Path_658" class="st2" d="M204.9,199.3c2.3,4.4,7.7,6.2,12.1,3.9c4.4-2.3,6.2-7.7,3.9-12.1c-2.3-4.4-7.7-6.2-12.1-3.9
		c-2,1-3.5,2.8-4.3,4.9l5.6,4.6l-6.2-1.5C203.9,196.6,204.2,198,204.9,199.3z"/>
	<path id="Path_659" class="st2" d="M209.3,181.8c5,0.2,9.2-3.6,9.4-8.5c0.2-4.2-2.5-8-6.6-9.1l0,3.7l-2-4l0,0
		c-5-0.2-9.2,3.6-9.4,8.5c0,0,0,0,0,0c-0.1,1,0.1,2.1,0.4,3.1C202.3,179.1,205.5,181.6,209.3,181.8L209.3,181.8z"/>
	<path id="Path_660" class="st2" d="M187.5,167.2c5,0.3,9.2-3.6,9.4-8.5c0.3-5-3.6-9.2-8.5-9.4c-1.7-0.1-3.4,0.3-4.9,1.2l1.6,4.4
		l-3.3-3.1c-1.8,1.6-2.8,3.8-2.9,6.2c0,0.8,0,1.7,0.2,2.5C180.1,164.3,183.5,167.1,187.5,167.2z"/>
	<path id="Path_661" class="st3" d="M190,140.8c2.1,0.2,4.1,0.9,6.2,1s4.4-0.4,5.7-2c0.6-0.9,1.2-1.9,1.7-2.9
		c0.6-0.9,1.4-1.6,2.3-2.1c2.3,4.4,0.5,9.8-3.9,12.1s-9.8,0.5-12.1-3.9c-0.4-0.7-0.6-1.4-0.8-2.2C189.4,140.7,189.7,140.7,190,140.8
		z"/>
	<path id="Path_662" class="st3" d="M187.5,167.2c5,0.2,9.2-3.6,9.4-8.6c0.1-1.5-0.2-2.9-0.9-4.3c-0.7,0.5-1.3,1.1-1.8,1.8
		c-0.5,1-1.1,2-1.8,3c-1.4,1.6-3.8,2.2-6,2.1s-4.3-0.7-6.4-0.9c-0.3,0-0.6,0-0.9-0.1C180.1,164.2,183.5,167.1,187.5,167.2
		L187.5,167.2z"/>
	<path id="Path_663" class="st3" d="M209.3,181.8c5,0.2,9.2-3.6,9.4-8.5c0.1-1.4-0.2-2.8-0.8-4.1c-0.7,0.5-1.4,1.1-1.9,1.8
		c-0.6,1-1.2,2.1-2,3c-1.5,1.7-4.1,2.3-6.4,2.2s-4.4-0.6-6.6-0.7C202.3,179.1,205.5,181.6,209.3,181.8z"/>
	<path id="Path_664" class="st3" d="M204.9,199.3c2.3,4.4,7.7,6.1,12.1,3.9c4.1-2.1,5.9-6.9,4.3-11.2c-0.7,0.5-1.4,1.1-2,1.8
		c-0.9,1-1.5,2.2-2.4,3.2c-1.8,1.8-4.8,2.6-7.5,2.6C207.9,199.5,206.4,199.5,204.9,199.3L204.9,199.3z"/>
</g>
<g id="svg--contact--page_x5F__x5F_circle--phone">
	<circle id="Ellipse_170" class="st1" cx="447.2" cy="145.2" r="73.1"/>
	<path id="Path_665" class="st2" d="M478.6,164c-2.5-2.5-8.7-6.4-11.7-7.8c-3.5-1.7-4.8-1.7-7.3,0.1c-2.1,1.5-3.4,2.9-5.8,2.4
		s-7.1-4.1-11.6-8.6s-8.1-9.2-8.6-11.6s0.9-3.7,2.4-5.8c1.8-2.5,1.8-3.8,0.1-7.3c-1.5-3-5.3-9.1-7.8-11.7s-3.1-2-4.5-1.5
		c-1.4,0.6-2.8,1.3-4.1,2.2c-2.5,1.7-4,3.1-5,5.3s-2.1,6.1,3.7,16.5c4.3,7.9,9.7,15.2,16.2,21.5l0,0c6.4,6.4,13.7,11.9,21.6,16.2
		c10.4,5.8,14.3,4.7,16.5,3.7s3.6-2.4,5.3-5c0.9-1.3,1.6-2.7,2.2-4.1C480.6,167.1,481.1,166.6,478.6,164z"/>
	<path id="Path_666" class="st3" d="M447.2,72c-40.4,0-73.1,32.7-73.2,73.1s32.7,73.1,73.1,73.2c40.4,0,73.1-32.7,73.2-73.1
		c0,0,0,0,0-0.1C520.3,104.8,487.6,72.1,447.2,72z M447.2,208.5c-35,0-63.4-28.4-63.4-63.4s28.4-63.4,63.4-63.4
		c35,0,63.4,28.4,63.4,63.4v0C510.6,180.1,482.2,208.5,447.2,208.5z"/>
</g>
<g id="svg--contact--page_x5F__x5F_circle--msg">
	<circle id="Ellipse_171" class="st1" cx="279.3" cy="256.2" r="73.1"/>
	<path id="Path_667" class="st2" d="M320.9,234.1L299,256.4c-0.2,0.2-0.2,0.4,0,0.6c0,0,0,0,0,0l15.4,16.3c1,1,1.1,2.7,0,3.7
		c-1,1-2.7,1.1-3.7,0c0,0,0,0,0,0l-15.3-16.3c-0.2-0.2-0.4-0.2-0.6,0l-3.7,3.8c-3.1,3.1-7.3,4.9-11.7,4.9c-4.5,0-8.8-1.8-11.9-5.1
		l-3.6-3.7c-0.2-0.2-0.4-0.2-0.6,0L248,276.9c-1,1-2.7,1.1-3.7,0c-1-1-1.1-2.7,0-3.7c0,0,0,0,0,0l15.3-16.3c0.1-0.2,0.1-0.4,0-0.6
		l-21.9-22.3c-0.2-0.2-0.4-0.2-0.6,0c-0.1,0.1-0.1,0.2-0.1,0.3v44.6c0,3.6,2.9,6.5,6.5,6.5h71.6c3.6,0,6.5-2.9,6.5-6.5v-44.5
		c0-0.2-0.2-0.4-0.4-0.4C321.1,234,320.9,234,320.9,234.1L320.9,234.1z"/>
	<path id="Path_668" class="st2" d="M279.2,264.1c3,0,5.9-1.2,8-3.3l31.9-32.4c-1.1-0.9-2.6-1.5-4-1.5h-71.6c-1.5,0-2.9,0.5-4,1.5
		l31.9,32.4C273.4,263,276.3,264.1,279.2,264.1z"/>
	<path id="Path_669" class="st3" d="M279.3,183.1c-40.4,0-73.1,32.7-73.2,73.1c0,40.4,32.7,73.1,73.1,73.2s73.1-32.7,73.2-73.1
		c0,0,0,0,0-0.1C352.4,215.8,319.7,183.1,279.3,183.1z M279.3,319.5c-35,0-63.4-28.4-63.4-63.4s28.4-63.4,63.4-63.4
		c35,0,63.4,28.4,63.4,63.4C342.7,291.1,314.3,319.5,279.3,319.5C279.3,319.5,279.3,319.5,279.3,319.5z"/>
</g>
<g id="svg--contact--page_x5F__x5F_circle--nav">
	<circle id="Ellipse_172" class="st1" cx="105.8" cy="201.6" r="73.1"/>
	<path id="Path_670" class="st2" d="M105.8,166.6l-29.1,67.2l2.7,2.7l26.4-11.7l26.4,11.6l2.7-2.7L105.8,166.6z"/>
	<path id="Path_671" class="st3" d="M105.8,128.5c-40.4,0-73.1,32.7-73.1,73.1s32.7,73.1,73.1,73.1c40.4,0,73.1-32.7,73.1-73.1
		C178.9,161.2,146.2,128.5,105.8,128.5L105.8,128.5z"/>
	<path id="Path_669_1_" class="st3" d="M105.9,128.4c-40.4,0-73.1,32.7-73.2,73.1c0,40.4,32.7,73.1,73.1,73.2s73.1-32.7,73.2-73.1
		c0,0,0,0,0-0.1C178.9,161.2,146.2,128.5,105.9,128.4z M105.9,264.9c-35,0-63.4-28.4-63.4-63.4s28.4-63.4,63.4-63.4
		c35,0,63.4,28.4,63.4,63.4C169.2,236.5,140.9,264.9,105.9,264.9C105.9,264.9,105.9,264.9,105.9,264.9z"/>
</g>
<g id="svg--contact--page_x5F__x5F_woman--two">
	
		<linearGradient id="Path_672_1_" gradientUnits="userSpaceOnUse" x1="-1108.4331" y1="3008.3167" x2="-1108.4331" y2="3009.3167" gradientTransform="matrix(37.8822 0 0 -125.819 42427.8438 378891.0313)">
		<stop  offset="0" style="stop-color:#808080;stop-opacity:0.251"/>
		<stop  offset="0.54" style="stop-color:#808080;stop-opacity:0.122"/>
		<stop  offset="1" style="stop-color:#808080;stop-opacity:0.102"/>
	</linearGradient>
	<path id="Path_672" class="st6" d="M453.9,293.6c-0.7-1.6-1.3-3.2-2-4.8c-0.6-1.6-1.4-3-2.5-4.3c-0.4-0.5-0.9-0.8-1.5-1.1
		c-0.6-0.2-1.3-0.4-1.9-0.4c-1-0.1-2-0.2-3-0.1c-0.4-0.1-0.8-0.3-1.3-0.4c4.4-1.2,7.6-5.1,7.8-9.7c0-0.1,0-0.3,0-0.4
		c0-5.8-4.6-10.4-10.4-10.5c0,0,0,0,0,0c-1.9,0-3.8,0.5-5.4,1.6c-4.4-1-9,1.2-11,5.3c-2.5,2.3-3.8,5.6-3.7,9v0.5
		c0.2,5.7,3.9,10.2,8.5,10.7c-0.5,0.2-0.9,0.5-1.3,0.9c-1.4,1.4-1.7,3.5-1.8,5.5l-0.1,1.5l-2.5,0.9c-0.2,0.1-0.4,0.3-0.3,0.6
		c0,0.1,0.1,0.2,0.2,0.2l2.3,1.7v0.4c0,0.2,0,0.3,0,0.5c-0.4,0.4-0.7,0.8-0.9,1.3c-0.2,0.8-0.3,1.6-0.2,2.4l0.1,2
		c0,1.5,0.2,3.1,0.6,4.5c0.3,0.9,1.6,3.1,2.6,3.1c-0.9,4-1.1,12.5-1.1,12.5c-0.1,0.1,0.2,0.2,0.7,0.3c0.5,4,2.2,15.4,5.3,20.3
		c0.5,1.6,0.9,3.3,1.1,4.9c0,0,0.9,10.8,2,14c1,2.7,1.8,9.4,2,11.4c-0.4,0.1-0.7,0.4-0.8,0.8c-0.6,1.7-4.3,4.4-4.3,4.4
		c-1.1,0.6-2.2,1.3-3.2,2.1c-1.2,1.1-1.1,2,4.1,1.4c10.1-1.2,11.8-4.4,11.8-4.4s-0.2-0.5-0.4-1.2c-0.3-1.1-0.8-2.1-1.3-3.1
		c-0.1-0.1-0.3,0.1-0.5,0.5c-0.8-4.7-1-9.4-0.7-14.1c0,0,0.3-4.9-1.2-8.4c-0.3-1.8-0.3-3.7,0-5.5c0.6-2.3-2.3-13.7-2.3-13.7
		l-1.7-8.3c0.2,0.3,0.4,0.6,0.5,1l0,0.2l0,0.2c0,0.1,0.1,0.2,0.1,0.2c1.1,4.7,4.2,17.6,4.2,19.5c0,2.3,2.9,8.1,2.9,8.1
		s1.1,9.6,3.2,13.4c1.5,2.9,1.6,7.1,1.5,8.9l0,0c0,0-0.3,2.4-0.9,3c-0.5,0.6-0.8,1.2-1.1,1.9l-0.1,0.1c0,0-0.9,1.7-0.3,2
		c2.2,0.9,4.6,1.2,6.9,0.9c0,0,1.2-1.5,1.2-2c0-0.3-0.1-0.7-0.1-1c-0.2-1.4-0.6-3.5-0.6-3.6c0.2-0.9-0.7-3.5-0.7-3.5l-0.3-8.1
		c0.5-5.5-0.2-11.1-2-16.3c0,0-1.5-5.2-1.1-6.7s-0.6-16.9-0.6-16.9l-0.1-0.2c-0.1-1.1,0-2.2,0.1-3.3c0.3-3.5-0.9-10.8-1.2-11
		c-0.2-0.8-0.4-1.6-0.4-2.4c0.1-0.6,0.3-2.4,0.5-4.6c2.8-0.1,5.7-0.3,8.5-0.7c0.3,0,0.5-0.1,0.7-0.3c0.1-0.2,0.2-0.4,0.2-0.6
		C457.2,302,455.6,297.7,453.9,293.6z M448.1,302.9c0.3-2.1,0.6-4.1,0.9-5.6l0,0.1c0.6,1.5,1,3,1.4,4.6
		C449.7,302.4,448.9,302.6,448.1,302.9z"/>
	<path id="Path_673" class="st7" d="M425.7,326.4c0,0,1.7,15.5,5.5,21.6c0.5,1.6,0.9,3.2,1.1,4.9c0,0,0.9,10.6,2,13.8s2,11.8,2,11.8
		s4,4.6,5.5,0.9c-0.9-4.9-1.2-9.9-0.9-14.9c0,0,0.3-4.9-1.1-8.3c-0.3-1.8-0.3-3.7,0-5.5c0.6-2.3-2.3-13.5-2.3-13.5l-2.3-11.2
		L425.7,326.4z"/>
	<path id="Path_674" class="st8" d="M443.8,382.2c0,0-1.7,3.2-11.8,4.3c-5.2,0.6-5.3-0.4-4.1-1.4c1-0.8,2.1-1.5,3.2-2
		c0,0,3.7-2.6,4.3-4.3s2.6-0.3,2.6-0.3c2.9,4.3,3.5-1.2,4-0.6c0.6,1,1,2,1.3,3.1C443.7,381.6,443.8,382.2,443.8,382.2z"/>
	<path id="Path_675" class="st3" d="M443.8,382.2c0,0-1.7,3.2-11.8,4.3c-5.2,0.6-5.3-0.4-4.1-1.4c0.8,0.5,2.5,0.7,5.8-0.6
		c4.8-2,8.3-3.1,9.7-3.5C443.7,381.6,443.8,382.2,443.8,382.2z"/>
	<path id="Path_676" class="st3" d="M441,364.3c0,0,0.3-4.9-1.1-8.3c-0.3-1.8-0.3-3.7,0-5.5c0.6-2.3-2.3-13.5-2.3-13.5l-2.3-11.2
		l-2,0.1l2.3,11.1c0,0,2.9,11.2,2.3,13.5c-0.3,1.8-0.3,3.7,0,5.5c1.5,3.5,1.1,8.3,1.1,8.3c-0.3,5,0,10,0.9,14.9
		c-0.2,0.5-0.4,0.9-0.8,1.2c0.9,0.6,2,0.3,2.6-0.6c0.1-0.2,0.2-0.4,0.3-0.6C440.9,374.4,440.6,369.3,441,364.3z"/>
	<path id="Path_677" class="st1" d="M439.1,263.3c-1.9,0-3.8,0.5-5.4,1.5c-4.4-1-9,1.1-11,5.2c-2.4,2.3-3.8,5.5-3.7,8.9
		c0,6.1,4.1,11.1,9.2,11.1c3.7,0,6.9-2.6,8.3-6.4c0.8,0.2,1.7,0.3,2.6,0.3c5.7,0,10.3-4.6,10.3-10.3S444.8,263.3,439.1,263.3
		L439.1,263.3L439.1,263.3z"/>
	<path id="Path_678" class="st7" d="M447.6,327.8l0.9,2.3c0,0,0.9,15.2,0.6,16.7s1.2,6.6,1.2,6.6c1.9,5.1,2.5,10.6,2,16.1l0.3,8
		c0,0,1.1,3.2,0.6,3.7s-4.9-0.5-4.9-0.5s0.6-6-1.5-9.8s-3.2-13.2-3.2-13.2s-2.9-5.7-2.9-8s-4.6-21-4.6-21L447.6,327.8z"/>
	<path id="Path_679" class="st1" d="M425.1,327.6c0,0,0.3-10.3,1.5-13.5c0.6-1.5,1-3,1.3-4.6c0,0,17.4,3.1,18.8,2c0,0,0.3,4,0.6,4.3
		c0.9,3.6,1.3,7.2,1.1,10.9c-0.3,3.5,0,3.4,0,3.4s-11.8,1.7-12.1,0s-1.1-1.7-1.1-1.7S424.6,328.1,425.1,327.6z"/>
	<g id="Group_48" transform="translate(543.645 339.301)" class="st0">
		<path id="Path_680" d="M-109-11.7c0,0-7.3-0.2-9.5-0.6v0.6c-0.6,0.6,10.1,0.9,10.1,0.9c0.1,0,0.3,0.1,0.4,0.2
			C-108.4-11.7-109-11.7-109-11.7z"/>
		<path id="Path_681" d="M-96.4-23.5c-0.3-0.3-0.6-4.3-0.6-4.3c-0.1,0.1-0.3,0.2-0.5,0.2c0,1.1,0.2,2.2,0.5,3.3
			c0.8,3.6,1.2,7.2,1.1,10.9c-0.3,3.5,0,3.4,0,3.4s-9.3,1.4-11.6,0.5c0,0.1,0.1,0.3,0.1,0.4c0.3,1.7,12.1,0,12.1,0s-0.3,0,0-3.4
			C-95.1-16.3-95.5-20-96.4-23.5z"/>
		<path id="Path_682" d="M-109-11.7c0,0-7.3-0.2-9.5-0.6v0.6c-0.6,0.6,10.1,0.9,10.1,0.9c0.1,0,0.3,0.1,0.4,0.2
			C-108.4-11.7-109-11.7-109-11.7z"/>
		<path id="Path_683" d="M-96.4-23.5c-0.3-0.3-0.6-4.3-0.6-4.3c-0.1,0.1-0.3,0.2-0.5,0.2c0,1.1,0.2,2.2,0.5,3.3
			c0.8,3.6,1.2,7.2,1.1,10.9c-0.3,3.5,0,3.4,0,3.4s-9.3,1.4-11.6,0.5c0,0.1,0.1,0.3,0.1,0.4c0.3,1.7,12.1,0,12.1,0s-0.3,0,0-3.4
			C-95.1-16.3-95.5-20-96.4-23.5z"/>
	</g>
	<path id="Path_684" class="st7" d="M437.8,281.4c0.2,0.6,0.6,1,1.1,1.4c0.3,0.2,0.7,0.4,1,0.4c-0.6,0.4-1.3,0.7-2,1
		c-1,0.7-2,1.4-2.9,2.2c-1,0.8-2.1,1.2-3.4,1.3c0.9-1.2,1.1-2.7,0.5-4.1c-0.3-0.4-0.4-0.9-0.5-1.4c0.1-0.8,0.7-1.5,1.4-1.9
		c0.5-0.4,1.1-0.7,1.7-1.1c0.4-0.3,1.1-0.9,1.7-0.8s0.6,0.5,0.7,1C437.3,280.2,437.5,280.8,437.8,281.4z"/>
	<path id="Path_685" class="st3" d="M437.8,281.4c0.2,0.6,0.6,1,1.1,1.4c0.3,0.2,0.7,0.4,1,0.4c-0.6,0.4-1.3,0.7-2,1
		c-1,0.7-2,1.4-2.9,2.2c-1,0.8-2.1,1.2-3.4,1.3c0.9-1.2,1.1-2.7,0.5-4.1c-0.3-0.4-0.4-0.9-0.5-1.4c0.1-0.8,0.7-1.5,1.4-1.9
		c0.5-0.4,1.1-0.7,1.7-1.1c0.4-0.3,1.1-0.9,1.7-0.8s0.6,0.5,0.7,1C437.3,280.2,437.5,280.8,437.8,281.4z"/>
	<circle id="Ellipse_173" class="st7" cx="444.5" cy="291.8" r="6.6"/>
	<path id="Path_686" class="st8" d="M453.9,385.6c0,0.6-1.1,2-1.1,2c-2.3,0.3-4.7,0-6.9-0.9c-0.6-0.3,0.3-2,0.3-2l0.1-0.1
		c0.3-0.7,0.6-1.3,1.1-1.9c0.6-0.6,0.9-2.9,0.9-2.9c1.8-2.9,5,1.3,5,1.3s0.4,2.2,0.6,3.5C453.8,384.9,453.9,385.3,453.9,385.6z"/>
	<path id="Path_687" class="st3" d="M453.9,385.6c0,0.6-1.1,2-1.1,2c-2.3,0.3-4.7,0-6.9-0.9c-0.6-0.3,0.3-2,0.3-2l0.1-0.1
		c2,0.9,4.1,1.4,6.3,1.3l1.3-1.3C453.8,385.1,453.9,385.5,453.9,385.6z"/>
	<circle id="Ellipse_174" class="st7" cx="431.3" cy="278" r="6.5"/>
	<path id="Path_688" class="st7" d="M426.1,290.9c-1.4,1.4-1.7,3.5-1.8,5.4l-0.2,2.9c-0.1,0.8-0.1,1.5-0.1,2.3c0,0.5,0.1,1,0.2,1.5
		s0.1,1.1,0.1,1.7v4.2c-0.1,0.9,0.1,1.7,0.5,2.5c0.4,0.8,1.4,1.1,2.2,0.8c0.5-0.3,0.8-0.8,0.9-1.4c0.7-1.7,1.2-3.5,1.5-5.4
		c0.1-0.6,0.1-1.3,0.1-1.9s0.2-1.3,0.3-1.9c0.4-2.7,0.6-5.4,0.8-8.1c0.1-0.8,0.8-4-0.3-4.3c-0.5-0.2-1.6,0.4-2.1,0.5
		C427.4,290,426.7,290.4,426.1,290.9z"/>
	<path id="Path_689" class="st3" d="M426.1,290.9c-1.4,1.4-1.7,3.5-1.8,5.4l-0.2,2.9c-0.1,0.8-0.1,1.5-0.1,2.3c0,0.5,0.1,1,0.2,1.5
		s0.1,1.1,0.1,1.7v4.2c-0.1,0.9,0.1,1.7,0.5,2.5c0.4,0.8,1.4,1.1,2.2,0.8c0.5-0.3,0.8-0.8,0.9-1.4c0.7-1.7,1.2-3.5,1.5-5.4
		c0.1-0.6,0.1-1.3,0.1-1.9s0.2-1.3,0.3-1.9c0.4-2.7,0.6-5.4,0.8-8.1c0.1-0.8,0.8-4-0.3-4.3c-0.5-0.2-1.6,0.4-2.1,0.5
		C427.4,290,426.7,290.4,426.1,290.9z"/>
	<path id="Path_690" class="st8" d="M439.5,282.2c0,0-4.9,3.7-7.8,4.6c0,0-1.7,1.9-2,2.4s-0.9,5.6-1.5,6.8s-2,3.7,0,6.3
		c0.3,1.1,0.4,2.3,0.3,3.5c-0.3,0.9-1.3,4-0.4,4.2s3.8,2.2,6.4,1.6s12.2,2.2,12.2,2.2s1.6-14.8,2.7-17.4l-2.6-0.9
		c0,0-7.2-4.3-2.9-10.9C444.1,284.5,440.1,283.6,439.5,282.2z"/>
	<path id="Path_691" class="st1" d="M421.7,299.5l5.9,4.2c0.2,0.1,0.4,0.1,0.5,0l1.6-1.2c0.2-0.2,0.2-0.4,0-0.6c0,0,0,0,0,0
		l-4.6-4.1c-0.1-0.1-0.3-0.1-0.4-0.1l-2.9,1.1c-0.2,0.1-0.4,0.3-0.3,0.6C421.5,299.3,421.6,299.4,421.7,299.5L421.7,299.5z"/>
	<path id="Path_692" class="st7" d="M423.7,312.1c-0.4-1.5-0.6-3-0.6-4.5l-0.1-2c-0.1-0.8,0-1.6,0.2-2.3c0.5-1.1,1.4-1.8,2.5-2.2
		c1.1-0.3,2.2-0.4,3.4-0.2c0.2,0,0.3,0,0.4,0.1c0.1,0.1,0.2,0.2,0.2,0.4c0.3,0.7,0.4,1.4,0.1,2.1c-0.2,0.3-0.4,0.5-0.7,0.7
		c-0.8,0.6-1.7,1-2.5,1.6c-0.2,0.1-0.3,0.3-0.3,0.4c0,0.2,0,0.3,0,0.5c0.1,0.4,0.2,0.8,0.4,1.2c0.1,0.2,0.2,0.4,0.3,0.5
		c0.1,0.1,0.3,0.2,0.5,0.3c0.3,0.3,1,0.6,0.9,1c-0.1,1.5-1,3.1-1.3,4.5C426.4,317,424.1,313.4,423.7,312.1z"/>
	<g id="Group_49" transform="translate(551.25 323.639)" class="st0">
		<path id="Path_693" d="M-118.3-12.2h-0.2c0.6,0.1,1.3,0.1,1.9,0h0.2C-117.1-12.3-117.7-12.3-118.3-12.2L-118.3-12.2z"/>
		<path id="Path_694" d="M-103.3-27.8c-1,2.3-2.6,14.9-2.8,17.4c1,0.3,1.7,0.5,1.7,0.5s1.6-14.8,2.7-17.4L-103.3-27.8z"/>
	</g>
	<path id="Path_695" class="st7" d="M444.8,292c0.1,0.6,0.4,1.1,0.9,1.4c0.6,0.5,1.2,1.1,1.7,1.7c0.7,1,1.3,2.1,1.7,3.3
		c0.5,1.5,1,3,1.4,4.5c-3.7,1.7-7.8,1.6-11.7,2.7c-1.7,0.4-3.2,1.3-4.4,2.6c-1.2,1.3-1.8,3-1.6,4.8c0,0.1,0,0.2,0.1,0.3
		c0.1,0.1,0.3,0.2,0.5,0.2c1,0,1.9-0.3,2.7-0.9c0.8-0.6,1.4-1.3,2.1-2c0.4-0.5,0.9-0.9,1.5-1.1c2.2-0.5,4.4-0.7,6.6-0.6
		c3.3-0.1,6.6-0.3,9.8-0.8c0.4,0.1,0.8-0.3,0.9-0.7c0-0.1,0-0.1,0-0.2c0.3-4.3-1.3-8.5-2.9-12.5c-0.7-1.6-1.3-3.2-2-4.8
		c-0.6-1.6-1.4-3-2.5-4.3c-0.4-0.5-0.9-0.8-1.5-1.1c-0.6-0.2-1.3-0.4-2-0.4c-1.1-0.1-2.1-0.2-3.2-0.1c-0.2,0.5-0.3,1.1-0.3,1.7
		c0.2,2,0.8,3.9,1.8,5.6C444.3,291.7,444.6,291.7,444.8,292z"/>
	<path id="Path_696" class="st9" d="M433.1,295.7c-0.5,0.8-0.7,1.8-0.7,2.8c0,0.4,0.1,0.8,0.2,1.1c0.4,1,1.3,1.9,2.3,2.2"/>
	<path id="Path_697" class="st1" d="M436.8,271.7c-0.4,0-0.7,0.1-1.1,0.2c-1-1.5-3.2-2.5-5.8-2.5c-3.5,0-6.3,1.8-6.3,4s2.8,4,6.3,4
		c1.3,0,2.6-0.3,3.8-0.8c0.8,1.7,2.9,2.4,4.6,1.6s2.4-2.9,1.6-4.6C439.3,272.4,438.1,271.7,436.8,271.7L436.8,271.7z"/>
	<path id="Path_698" class="st3" d="M437.1,277.7c-1.3,0-2.5-0.8-3.1-2c-1.2,0.5-2.5,0.8-3.8,0.8c-3.5,0-6.3-1.8-6.3-4
		c0-0.1,0-0.3,0-0.4c-0.2,0.4-0.3,0.8-0.3,1.3c0,2.2,2.8,4,6.3,4c1.3,0,2.6-0.3,3.8-0.8c0.8,1.7,2.9,2.4,4.6,1.6
		c1-0.5,1.7-1.4,1.9-2.5C439.6,276.9,438.4,277.7,437.1,277.7L437.1,277.7z"/>
	<path id="Path_699" class="st3" d="M422.7,271.8c2-4.1,6.5-6.3,11-5.2c4.9-3,11.2-1.5,14.2,3.4c0.9,1.4,1.4,3,1.5,4.6v-0.9
		c0-5.7-4.7-10.3-10.4-10.3c-1.9,0-3.8,0.5-5.4,1.5c-4.4-1-9,1.1-11,5.2c-2.4,2.3-3.8,5.5-3.7,8.9v0.9
		C419.1,276.8,420.4,273.9,422.7,271.8z"/>
</g>
<g id="svg--contact--page_x5F__x5F_plant--two_1_">
	<path id="Path_700" class="st5" d="M488.6,274c1.9-3.5-0.3-7.9-2.7-11s-5.5-6.4-5.5-10.4c0.1-5.8,6.2-9.2,11.1-12.2
		c3.6-2.3,7-5,10-8c1.3-1.2,2.3-2.6,3.1-4.1c1-2.3,1-4.8,0.9-7.3c-0.2-8.2-0.6-16.5-1.2-24.7"/>
	<path id="Path_701" class="st2" d="M513.6,195.7c-0.1-3.1-1.8-5.8-4.5-7.4l-2,4l0.1-4.8c-1-0.3-2-0.4-3-0.4c-5,0.2-8.8,4.4-8.6,9.4
		s4.4,8.8,9.4,8.6S513.8,200.7,513.6,195.7C513.6,195.7,513.6,195.7,513.6,195.7L513.6,195.7z"/>
	<path id="Path_702" class="st2" d="M497.5,256.6c-2.3,4.4-7.7,6.2-12.1,3.9c-4.4-2.3-6.2-7.7-3.9-12.1c2.3-4.4,7.7-6.2,12.1-3.9
		c2,1,3.5,2.8,4.3,4.9l-5.6,4.6l6.2-1.5C498.5,253.9,498.2,255.4,497.5,256.6z"/>
	<path id="Path_703" class="st2" d="M493.1,239.2c-5,0.2-9.2-3.6-9.4-8.5c-0.2-4.2,2.5-8,6.6-9.1l0,3.7l2-4l0,0
		c5-0.2,9.2,3.6,9.4,8.6C501.9,234.7,498,238.9,493.1,239.2L493.1,239.2z"/>
	<path id="Path_704" class="st2" d="M514.9,224.6c-5,0.3-9.2-3.6-9.4-8.5s3.6-9.2,8.5-9.4c1.7-0.1,3.4,0.3,4.9,1.2l-1.6,4.4l3.3-3.1
		c1.8,1.6,2.8,3.8,2.9,6.2c0,0.8,0,1.7-0.2,2.5C522.3,221.6,518.9,224.4,514.9,224.6z"/>
	<path id="Path_705" class="st3" d="M512.4,198.1c-2.1,0.2-4.1,0.9-6.2,1s-4.4-0.4-5.7-2c-0.6-0.9-1.2-1.9-1.7-2.9
		c-0.6-0.9-1.3-1.6-2.3-2.1c-2.3,4.4-0.5,9.8,3.9,12.1s9.8,0.5,12.1-3.9c0.4-0.7,0.6-1.4,0.8-2.2C513,198,512.7,198.1,512.4,198.1z"
		/>
	<path id="Path_706" class="st3" d="M514.9,224.6c-5,0.2-9.2-3.6-9.4-8.6c-0.1-1.5,0.2-2.9,0.9-4.3c0.7,0.5,1.3,1.1,1.8,1.8
		c0.5,1,1.1,2,1.8,3c1.4,1.7,3.8,2.2,6,2.1s4.3-0.7,6.4-0.9c0.3,0,0.6-0.1,0.9-0.1C522.4,221.6,518.9,224.4,514.9,224.6L514.9,224.6
		z"/>
	<path id="Path_707" class="st3" d="M493.1,239.2c-5,0.2-9.2-3.6-9.4-8.5c-0.1-1.4,0.2-2.8,0.8-4.1c0.7,0.5,1.4,1.1,1.9,1.8
		c0.7,1,1.1,2.1,2,3c1.5,1.7,4.1,2.3,6.4,2.2s4.4-0.6,6.6-0.8C500.1,236.4,496.9,239,493.1,239.2z"/>
	<path id="Path_708" class="st3" d="M497.5,256.6c-2.3,4.4-7.8,6-12.2,3.7c-4-2.1-5.8-6.8-4.2-11c0.7,0.5,1.4,1.1,2,1.8
		c0.9,1,1.4,2.2,2.4,3.2c1.8,1.8,4.8,2.5,7.5,2.6C494.5,256.9,496,256.8,497.5,256.6L497.5,256.6z"/>
</g>
<g id="svg--contact--page_x5F__x5F_woman--one">
	
		<linearGradient id="Path_718_1_" gradientUnits="userSpaceOnUse" x1="-1126.8837" y1="2993.5068" x2="-1126.8837" y2="2994.5068" gradientTransform="matrix(98.0513 0 0 -73.7471 110669.9844 221097.7344)">
		<stop  offset="0" style="stop-color:#808080;stop-opacity:0.251"/>
		<stop  offset="0.54" style="stop-color:#808080;stop-opacity:0.122"/>
		<stop  offset="1" style="stop-color:#808080;stop-opacity:0.102"/>
	</linearGradient>
	<path id="Path_718" class="st10" d="M226.6,282c0-2.3-1-4.4-2.9-5.8c0-4.1-3-7.6-7-8.2c-0.6-2.9-2.7-5.3-5.6-6.3l0,0
		c-0.3-0.1-0.7-0.2-1-0.2h-1.2c-4,0.1-7.4,3.1-8,7c-2.6-0.6-4.9,0.2-5.3,1.8c-0.1,0.4-0.1,0.9,0.1,1.3c0.7,1.5,2.1,2.7,3.8,3.1
		l0.2,0.1l0.4,0.1h0.1c-0.4,0.9-0.6,1.8-0.6,2.8c0,2.4,1.3,4.6,3.4,5.7l-0.2,0.1c-0.2,0.2-0.4,0.5-0.6,0.8c-0.5,0.8-0.8,1.7-1.1,2.6
		c-0.2,0.8-0.2,1.6-0.4,2.3c-0.4,1.4-1.5,2.6-1.6,4.1c-0.1,0.7,0.1,1.5-0.4,1.9c-0.1,0.1-0.2,0.2-0.4,0.3c-0.3,0.2-0.6,0.5-0.8,0.9
		c-0.1,0.3-0.3,0.6-0.6,0.8c-0.4,0.3-1.1,0.3-1.3,0.8s0.3,1.1,0.2,1.6s-0.6,0.6-0.9,0.9c-0.4,0.4-0.7,0.9-0.8,1.5
		c-1.4,0.3-2.8-0.1-3.9-1c0.2,0.5,0.3,1,0.4,1.5c-0.6-0.5-1.4-0.8-2.1-1.1c-0.9-0.4-1.6-1-2.3-1.7l1.2-0.2l-5.4-8.2l-1.6-0.3
		l1.4,2.7c-0.2,0.1-0.4,0.3-0.5,0.6c-0.1,0.3-0.1,0.6-0.1,0.9c0.1,0.7,0.2,1.5,0.4,2.2l0.4,1.9c0,0.2,0.1,0.4,0.1,0.5
		c-0.5,0-1.1,0-1.6,0.2c-1.1-0.4-2.2-0.7-3.3-0.8c-0.2,0-0.5,0-0.7,0c-0.3,0.1-0.5,0.3-0.7,0.6c-0.9,1.1-1.7,2.2-2.4,3.5
		c-2.9,5-6.7,9.4-10.3,13.9c-2.5,1-5,2-7.5,2.9l-5.4,2.1c-1.1,0.5-2.2,0.7-3.3,0.7c-0.5,0-1.1-0.1-1.5,0.3c-0.1,0.2-0.3,0.5-0.3,0.7
		l-0.6,0.1l0,0c-0.3-0.9-0.7-1.7-1.3-2.4c-0.3,0-0.5,0.2-0.6,0.5c-0.1,0.2-0.2,0.5-0.4,0.7c-0.3,0.4-0.8,0.6-1.1,1s-0.6,0.9-1,1.3
		c-0.5,0.4-1.2,0.6-1.8,0.7c-1,0.2-2,0.6-2.9,1.1c-0.3,0.2-0.7,0.4-1.1,0.5c-0.4,0.1-0.8,0.1-1.3,0l-2.9-0.2c-0.3,0-0.5,0-0.8,0
		c-0.6,0.2-1,0.8-0.9,1.5c0.1,0.6,0.4,1.2,0.9,1.6c0.5,0.4,1,0.6,1.6,0.8c2.5,1,5,1.7,7.6,2.3v0.6c1.8,0.9,3.8,1.4,5.8,1.4
		c0.2,0,0.3,0,0.4-0.1c0.2-0.1,0.3-0.3,0.4-0.6c0.6-1.8,1-3.7,1.1-5.6l0,0c0.4,0,0.7-0.1,1-0.3c1-0.3,2,0.4,3,0.5
		c1.3,0.1,2.4-0.6,3.6-1l0.5-0.2c-0.3,0.4-0.7,0.8-1.2,1.1c-0.5,0.4-1,0.6-1.5,1c-0.4,0.4-0.8,0.7-1.3,1c-0.3,0.1-0.7,0.3-1,0.4
		c-0.5,0.2-1,0.4-1.4,0.7c-0.4,0.2-0.7,0.6-1,0.9c-0.2,0.4-0.3,0.9-0.1,1.3c0.2,0.3,0.5,0.6,0.9,0.7c0.4,0.1,0.8,0.1,1.2,0
		c1.5-0.1,3.1-0.3,4.6-0.4c0.7,0,1.3-0.1,1.9-0.3c0.3-0.1,0.7-0.2,1-0.3c0.6-0.1,1.2-0.2,1.8-0.3c0.2,0,0.3,0,0.5,0.1
		c0.4,0.1,0.6,0.5,1,0.6c0.2,0,0.5,0,0.7-0.1c1.1-0.2,2.3-0.4,3.4-0.4c0.5,0.1,1-0.2,1.3-0.6c0.2-0.5-0.2-1.2-0.4-1.8
		c-0.1-0.4-0.2-0.8-0.2-1.2c-0.1-1-0.4-2-0.8-2.9c-0.3-0.4-0.5-0.9-0.6-1.3c2.2-0.8,4.3-1.9,6.3-3.2c1.1-0.8,2.3-1.4,3.6-1.7
		c1.5-0.2,3.1,0,4.5,0.5c3.5,1,7,2.2,10.4,3.6c1.6,0.7,3.2,1.4,4.9,1.9c0.5,0.7,1.1,1.2,1.7,1.7c1.2,0.6,2.4,1,3.8,1
		c1.8,0.2,3.5,0.2,5.3,0.2c1.4,0.1,2.7-0.2,3.9-0.7c0.3-0.1,0.6-0.3,0.8-0.5c1,0.1,1.9-0.3,2.6-1c1-0.8,1.6-1.9,2-3.1
		c0.4-1.7,0.1-3.7,1.1-5c0.3-0.4,0.6-0.7,0.9-1c0.3-0.5,0.5-1.1,0.5-1.7c0,0,0,0,0-0.1c0.2-0.5,0.4-1.1,0.4-1.7
		c0.1-0.5,0.3-0.9,0.5-1.3c0.5-1.3,1-2.6,1.4-3.9c0.3-0.9,0.5-1.8,0.6-2.7c0.1-0.7,0.2-1.5,0.2-2.2c0.1-1.2,0.3-2.3,0.7-3.4
		c0.9-2.6,1.4-5.3,1.5-8.1v-0.2c2.8-0.3,4.9-2.7,4.8-5.5c0-0.8-0.2-1.6-0.5-2.4C226.2,284.5,226.6,283.3,226.6,282L226.6,282z
		 M200.4,313.8c0.1,0.3,0.2,0.6,0.3,0.8c-0.4-0.4-0.8-0.8-1.3-1.3c0.2,0.1,0.3,0.1,0.5,0.2C200.1,313.6,200.2,313.7,200.4,313.8
		L200.4,313.8z M198.3,312.4c-2.5-2.2-5.5-3.9-8-6c1.4,0.7,2.8,1.5,4.1,2.3c1.6,0.9,3.2,1.8,4.9,2.7
		C199.1,311.7,198.7,312.1,198.3,312.4L198.3,312.4z M199.4,306.8l0.1-0.1v0.9l-0.7-0.2C199.1,307.2,199.2,307,199.4,306.8
		L199.4,306.8z M177.2,312.7c1-1.2,1.9-2.5,2.7-3.8c1,1.7,2.6,3,4,4.5C181.6,313.1,179.4,312.9,177.2,312.7L177.2,312.7z"/>
	<path id="Path_719" class="st11" d="M180.8,291.5l1.6,0.3l5.4,8l-2.4,0.3L180.8,291.5z"/>
	<path id="Path_720" class="st12" d="M142.1,324.1c0.4,1.4,1,2.8,1.6,4.1c1.8-0.4,3.6-0.9,5.3-1.5c-0.3-0.5-0.7-1-1.1-1.5
		c-0.4-0.5-0.9-0.9-1.5-1.1c-0.6-0.1-1.2-0.1-1.8,0C143.8,324.1,142.9,324.1,142.1,324.1z"/>
	<path id="Path_721" class="st11" d="M146.4,326.2c-0.9-0.4-1.5-1.1-1.8-2.1c-0.3-0.9-0.7-1.8-1.4-2.5c-0.3,0-0.5,0.2-0.6,0.5
		c-0.1,0.2-0.2,0.5-0.4,0.7c-0.3,0.4-0.8,0.6-1.2,1s-0.6,0.9-1,1.3c-0.5,0.4-1.2,0.7-1.9,0.7c-1,0.2-2,0.6-2.9,1.1
		c-0.3,0.2-0.7,0.4-1.1,0.5c-0.4,0.1-0.8,0.1-1.3,0l-2.9-0.2c-0.2,0-0.5,0-0.7,0c-0.6,0.2-1,0.8-0.9,1.5c0.1,0.6,0.4,1.2,0.9,1.5
		c0.5,0.4,1.1,0.6,1.6,0.8c2.5,0.9,5.1,1.7,7.7,2.2v0.6c1.8,0.9,3.8,1.4,5.9,1.4c0.1,0,0.3,0,0.4-0.1c0.2-0.1,0.3-0.3,0.4-0.6
		c0.7-2,1.1-4.1,1.2-6.3c0-0.5,0-1.1-0.1-1.6C146.3,326.1,146.9,326.3,146.4,326.2"/>
	<path id="Path_722" class="st11" d="M201.7,315.3c-8.5,0.5-17-2-25.5-2.3c-1.1-0.1-2.1,0-3.2,0.2c-1.1,0.3-2.1,0.7-3.1,1.2
		c-4.6,2.1-9.3,3.9-14.1,5.7l-5.4,2c-1.1,0.5-2.2,0.7-3.4,0.7c-0.5,0-1.2-0.1-1.5,0.3c-0.9,1.3-0.5,3.2,0.1,4.7c0.2,0.5,0.5,1,1,1
		c0.4,0,0.7-0.1,1-0.3c1-0.3,2,0.4,3,0.5c1.3,0.1,2.4-0.6,3.6-1c2-0.7,4.1-0.7,6.2-1.1c3.5-0.7,6.8-2.1,9.7-4
		c1.1-0.8,2.3-1.4,3.6-1.7c1.5-0.2,3.1,0,4.6,0.5c3.5,1,7,2.2,10.4,3.6c1.8,0.8,3.6,1.4,5.5,2c4.1,1.1,8.3,0.8,12.2-0.7
		c1.4-0.5,2.9-1.5,2.9-3c0.1-0.8-0.6-1.6-1-2.3c-0.3-0.5-0.6-0.9-0.9-1.4C206,318,204.3,315.2,201.7,315.3z"/>
	<path id="Path_723" class="st3" d="M201.7,315.3c-8.5,0.5-17-2-25.5-2.3c-1.1-0.1-2.1,0-3.2,0.2c-1.1,0.3-2.1,0.7-3.1,1.2
		c-4.6,2.1-9.3,3.9-14.1,5.7l-5.4,2c-1.1,0.5-2.2,0.7-3.4,0.7c-0.5,0-1.2-0.1-1.5,0.3c-0.9,1.3-0.5,3.2,0.1,4.7c0.2,0.5,0.5,1,1,1
		c0.4,0,0.7-0.1,1-0.3c1-0.3,2,0.4,3,0.5c1.3,0.1,2.4-0.6,3.6-1c2-0.7,4.1-0.7,6.2-1.1c3.5-0.7,6.8-2.1,9.7-4
		c1.1-0.8,2.3-1.4,3.6-1.7c1.5-0.2,3.1,0,4.6,0.5c3.5,1,7,2.2,10.4,3.6c1.8,0.8,3.6,1.4,5.5,2c4.1,1.1,8.3,0.8,12.2-0.7
		c1.4-0.5,2.9-1.5,2.9-3c0.1-0.8-0.6-1.6-1-2.3c-0.3-0.5-0.6-0.9-0.9-1.4C206,318,204.3,315.2,201.7,315.3z"/>
	<path id="Path_724" class="st12" d="M158.5,324.4c1.3,0.5,2.7,0.9,4,1.3c0.7-1.3,2.2-2.1,2.5-3.6c0-0.1,0-0.1,0-0.2
		c0-0.1-0.1-0.1-0.2-0.1c-1-0.5-2.1-0.9-3.2-0.9c-0.9-0.1-1.3,0.9-1.7,1.5C159.9,322.7,158.9,324.6,158.5,324.4z"/>
	<path id="Path_725" class="st11" d="M160.4,323.6c-0.8-0.1-1.5-0.6-2-1.3c-0.2-0.3-0.4-0.8-0.8-0.7s-0.5,0.4-0.6,0.8
		c-0.3,1.3-0.6,2.6-1.1,3.8c-0.5,1.2-1.3,2.3-2.4,3.1c-0.5,0.3-1,0.6-1.5,1c-0.4,0.4-0.8,0.7-1.3,1c-0.3,0.1-0.7,0.3-1,0.4
		c-0.5,0.2-1,0.4-1.4,0.7c-0.4,0.2-0.7,0.5-1,0.9c-0.2,0.4-0.3,0.9-0.1,1.3c0.2,0.3,0.6,0.6,0.9,0.6c0.4,0.1,0.8,0.1,1.2,0
		c1.6-0.1,3.1-0.2,4.7-0.4c0.7,0,1.3-0.1,2-0.3l1-0.3c0.6-0.2,1.2-0.2,1.8-0.3c0.2,0,0.4,0,0.5,0.1c0.4,0.1,0.6,0.5,1,0.5
		c0.2,0,0.5,0,0.7-0.1c1.1-0.2,2.3-0.4,3.5-0.4c0.5,0.1,1-0.2,1.3-0.6c0.3-0.6-0.2-1.2-0.4-1.8c-0.1-0.4-0.1-0.8-0.2-1.2
		c-0.1-1-0.4-2-0.9-2.8c-0.4-0.7-0.9-1.5-0.7-2.3c0.1-0.2,0.2-0.5,0.3-0.8C164,323.3,161.1,323.7,160.4,323.6z"/>
	<path id="Path_726" class="st12" d="M188.9,301.6c-1.5-0.7-2.7-1.9-3.4-3.4c-0.1-0.3-0.3-0.7-0.4-1c-0.4-1.1-1.1-2.1-2-2.8
		c-0.2-0.2-0.5-0.3-0.7-0.3c-0.3,0.1-0.5,0.3-0.5,0.6c-0.1,0.3-0.1,0.6-0.1,0.9c0.1,0.7,0.2,1.4,0.4,2.1l0.4,1.9
		c0.1,0.3,0.1,0.6,0.3,0.8c0.2,0.3,0.4,0.6,0.7,0.8c0.4,0.4,0.8,0.7,1.2,1c0.2,0.2,0.5,0.4,0.7,0.5c0.4,0.2,0.8,0.3,1.3,0.4
		c1.7,0.2,3.4,0.9,4.9,1.9c0,0,0-1.3,0-1.4c0-0.4-0.1-0.7-0.4-1C190.4,302.2,189.7,301.8,188.9,301.6z"/>
	<path id="Path_727" class="st3" d="M188.9,301.6c-1.5-0.7-2.7-1.9-3.4-3.4c-0.1-0.3-0.3-0.7-0.4-1c-0.4-1.1-1.1-2.1-2-2.8
		c-0.2-0.2-0.5-0.3-0.7-0.3c-0.3,0.1-0.5,0.3-0.5,0.6c-0.1,0.3-0.1,0.6-0.1,0.9c0.1,0.7,0.2,1.4,0.4,2.1l0.4,1.9
		c0.1,0.3,0.1,0.6,0.3,0.8c0.2,0.3,0.4,0.6,0.7,0.8c0.4,0.4,0.8,0.7,1.2,1c0.2,0.2,0.5,0.4,0.7,0.5c0.4,0.2,0.8,0.3,1.3,0.4
		c1.7,0.2,3.4,0.9,4.9,1.9c0,0,0-1.3,0-1.4c0-0.4-0.1-0.7-0.4-1C190.4,302.2,189.7,301.8,188.9,301.6z"/>
	<ellipse id="Ellipse_175" class="st11" cx="206.2" cy="285.1" rx="2.1" ry="2.1"/>
	<path id="Path_728" class="st11" d="M205,283.8c-0.6-0.1-1.1,0-1.6,0.2c-0.2,0.2-0.4,0.5-0.6,0.8c-0.5,0.8-0.8,1.7-1.1,2.5
		c-0.2,0.7-0.2,1.6-0.4,2.3c-0.4,1.4-1.5,2.6-1.6,4c-0.1,0.7,0.1,1.4-0.4,1.8c-0.1,0.1-0.2,0.2-0.4,0.3c-0.3,0.2-0.6,0.5-0.8,0.8
		c-0.1,0.3-0.3,0.6-0.6,0.8c-0.4,0.3-1.1,0.3-1.3,0.7s0.3,1.1,0.2,1.6s-0.6,0.6-0.9,0.9c-0.4,0.4-0.7,0.9-0.8,1.5
		c-1.4,0.3-2.9-0.1-4-1c0.5,1.5,0.7,3,0.6,4.5c0.1,0.5-0.1,1-0.4,1.4c1.6,0.1,3.3,0.4,4.9,0.8c0.7,0.2,1.4,0.2,2.1,0
		c0.4-0.2,0.7-0.5,1-0.8c1-0.8,1.7-1.9,2-3.1c0.1-0.7,0.1-1.4,0-2.1c0.1-0.9,0.3-1.7,0.5-2.6c0.5-1.7,0.8-3.5,0.9-5.3
		c0.1-1.1,1-2,1.5-2.9c1.1-1.8,1.7-3.8,2-5.8C205.9,284.8,205.6,283.9,205,283.8z"/>
	<path id="Path_729" class="st3" d="M205,283.8c-0.6-0.1-1.1,0-1.6,0.2c-0.2,0.2-0.4,0.5-0.6,0.8c-0.5,0.8-0.8,1.7-1.1,2.5
		c-0.2,0.7-0.2,1.6-0.4,2.3c-0.4,1.4-1.5,2.6-1.6,4c-0.1,0.7,0.1,1.4-0.4,1.8c-0.1,0.1-0.2,0.2-0.4,0.3c-0.3,0.2-0.6,0.5-0.8,0.8
		c-0.1,0.3-0.3,0.6-0.6,0.8c-0.4,0.3-1.1,0.3-1.3,0.7s0.3,1.1,0.2,1.6s-0.6,0.6-0.9,0.9c-0.4,0.4-0.7,0.9-0.8,1.5
		c-1.4,0.3-2.9-0.1-4-1c0.5,1.5,0.7,3,0.6,4.5c0.1,0.5-0.1,1-0.4,1.4c1.6,0.1,3.3,0.4,4.9,0.8c0.7,0.2,1.4,0.2,2.1,0
		c0.4-0.2,0.7-0.5,1-0.8c1-0.8,1.7-1.9,2-3.1c0.1-0.7,0.1-1.4,0-2.1c0.1-0.9,0.3-1.7,0.5-2.6c0.5-1.7,0.8-3.5,0.9-5.3
		c0.1-1.1,1-2,1.5-2.9c1.1-1.8,1.7-3.8,2-5.8C205.9,284.8,205.6,283.9,205,283.8z"/>
	<path id="Path_730" class="st11" d="M203,317.1c-1.8-0.8-3.1-2.4-4.5-3.8c-2.7-2.6-6.1-4.4-9-6.8c-1.8-1.7-3.7-3.3-5.7-4.8
		c-1.9-1.2-4-1.9-6.1-2.1c-0.2-0.1-0.5-0.1-0.7,0c-0.3,0.1-0.5,0.3-0.7,0.5c-0.9,1.1-1.8,2.2-2.5,3.4c-3.7,6.2-8.9,11.4-13.2,17.2
		c-0.1,0.1-0.2,0.3-0.2,0.4c0,0.2,0,0.4,0.2,0.6l0.9,1.7c0.5,1,1.3,2.1,2.3,1.9c0.5-0.1,0.9-0.4,1.2-0.8l3.9-3.8l4.1-3.9
		c2.4-2.3,4.9-4.7,6.4-7.6c1.2,2.1,3.4,3.5,4.9,5.5c0.6,0.7,1,1.6,1.5,2.3c0.8,1.3,1.7,2.4,2.7,3.7l4.7,6c0.6,0.9,1.3,1.6,2.2,2.2
		c1.2,0.6,2.5,1,3.8,1c1.8,0.2,3.6,0.2,5.3,0.2c1.4,0.1,2.7-0.2,4-0.7c1.3-0.6,2.1-1.8,2.2-3.2c-0.1-0.7-0.3-1.4-0.7-2
		C208.6,321.2,206.1,318.7,203,317.1z"/>
	<ellipse id="Ellipse_176" class="st13" cx="207.5" cy="286.6" rx="1.6" ry="1.6"/>
	<path id="Path_731" class="st12" d="M207.2,285.3c0.4,0.7,0.4,1.5,0.2,2.3c-0.3,0.8-0.6,1.5-1,2.1c-0.4,0.7-0.8,1.3-1.3,1.9
		c2.5,0,4.9-0.7,7-2c1.8-0.8,3.4-2.2,4.4-3.9c-0.6,0.1-1.2,0-1.6-0.3c-0.5-0.3-0.9-0.7-1.3-1.2l-1.2-1.4c-0.3-0.3-0.5-0.6-0.7-1
		c-0.3-0.5-0.4-1.1-0.3-1.6c-0.5,0.5-1,1-1.6,1.4c-0.9,0.6-1.9,1-2.7,1.6c-0.3,0.2-1,0.5-0.8,0.9S206.9,284.9,207.2,285.3z"/>
	<path id="Path_732" class="st3" d="M207.2,285.3c0.4,0.7,0.4,1.5,0.2,2.3c-0.3,0.8-0.6,1.5-1,2.1c-0.4,0.7-0.8,1.3-1.3,1.9
		c2.5,0,4.9-0.7,7-2c1.8-0.8,3.4-2.2,4.4-3.9c-0.6,0.1-1.2,0-1.6-0.3c-0.5-0.3-0.9-0.7-1.3-1.2l-1.2-1.4c-0.3-0.3-0.5-0.6-0.7-1
		c-0.3-0.5-0.4-1.1-0.3-1.6c-0.5,0.5-1,1-1.6,1.4c-0.9,0.6-1.9,1-2.7,1.6c-0.3,0.2-1,0.5-0.8,0.9S206.9,284.9,207.2,285.3z"/>
	<path id="Path_733" class="st13" d="M207.2,285.6c-0.5,0.7-0.5,1.7,0,2.4c0.1,0.1,0.3,0.6,0.4,0.6c0.1,0,0.2-0.1,0.3-0.1
		c0.6-0.6,1.1-1.2,1.6-1.9c0.5-0.7,1.2-1.1,2-1.3c1,0,2,0.3,2.7,0.9c0.4,0.2,0.7,0.4,0.9,0.7c0.2,0.3,0.3,0.7,0.3,1
		c0.2,2.2,0.3,4.4,0.3,6.6c0,1.6-0.1,3.2-0.3,4.8c-0.2,0.8-0.4,1.6-0.5,2.4c-0.1,0.7-0.1,1.5-0.1,2.2v3.1c0,0.6,0,1.1,0.1,1.7
		c0.1,0.7,0.5,1.3,0.7,1.9c0.2,0.7,0.4,1.5,0.4,2.3l0.4,3.2c0.3,1,0.1,2-0.4,2.9c-0.3,0.4-0.6,0.7-0.9,1c-1,1.3-0.7,3.3-1.1,4.9
		c-0.3,1.2-1,2.3-2,3.1c-0.7,0.7-1.7,1-2.6,0.9c-1.3-0.2-2.1-1.6-2.4-2.8c-0.2-1.3-0.6-2.6-1.2-3.7c-0.7-0.8-1.5-1.5-2.4-2
		c-0.9-0.6-1.6-1.4-1.9-2.5c-0.1-0.5,0-0.9-0.1-1.4c-0.1-1.2-0.9-2.2-2-2.7c-0.7-0.3-1.5-0.4-1.8-1c0.9-0.6,1.6-1.5,1.9-2.6
		c0.3-1.1,0.4-2.2,0.5-3.3l0.2-3.7c0-1.6,0.3-3.2,0.9-4.7c0.3-0.7,0.7-1.3,1.1-1.9c0.4-0.9,0.8-1.9,1.1-2.8c0.5-1.5,1.1-3,1.5-4.5
		c0.2-0.7,0.5-1.4,0.8-2.1C205.9,286.6,206.5,285.7,207.2,285.6z"/>
	<path id="Path_734" class="st11" d="M199,309.5h1l0.2-1.5c0-0.3,0.1-0.6,0.2-0.9c0.2-0.3,0.3-0.6,0.6-0.8c1-1.4,0.9-3.1,1.1-4.8
		c0.4-2.2,1.1-4.3,2.1-6.3l1.9-4.2c0.2-0.3,0.3-0.7,0.4-1.1c0.1-0.4,0.1-0.8,0.1-1.2c0-0.7,0.2-3,0.2-3.7c0-0.2-0.5-0.1-0.6-0.3
		c-0.2-0.5-0.6,0.8-1,1.1c-0.4,0.3-0.7,0.8-0.9,1.3c-0.4,1.1-0.7,2.2-1,3.2c-0.3,1.1-0.9,2.1-1.8,2.9c-0.4,0.3-0.8,0.6-1.2,1
		c-1.2,1.2-1.3,3-1.3,4.6C199,299.8,198.8,309.5,199,309.5z"/>
	<path id="Path_735" class="st11" d="M213,283.8c-0.9,0.5-1.6,1.4-1.7,2.4c-0.2,1-0.5,2-0.9,2.9c-1.2,2.1-4.2,2.7-5,4.9
		c-0.2,0.7-0.3,1.5-0.3,2.3c-0.1,1.6-0.7,3.1-0.8,4.7c-0.1,1.2-0.1,2.5,0.1,3.7l1.1,12.6c0.2,1.9,0.1,3.7-0.3,5.5
		c1.1,0.2,2.2,0,3.2-0.5c1-0.5,1.9-1.1,2.9-1.6c1.7-0.8,3.4-1.7,4.9-2.7c0.3-0.2,0.5-0.5,0.7-0.7c0.2-0.5,0.4-1.1,0.4-1.7
		c0.1-0.4,0.3-0.9,0.5-1.3c0.5-1.3,1-2.6,1.4-3.9c0.3-0.9,0.5-1.8,0.6-2.7c0.1-0.7,0.2-1.5,0.2-2.2c0.1-1.1,0.3-2.3,0.7-3.3
		c0.9-2.6,1.4-5.3,1.5-8c0-0.4,0-0.8-0.1-1.2c-0.2-0.5-0.4-0.9-0.6-1.3c-0.4-0.8-0.7-1.7-1.1-2.6c-1-1.9-2.5-3.4-4.3-4.5
		C215,284.1,214,283.5,213,283.8z"/>
	<path id="Path_736" class="st12" d="M191,304.4c-0.8-0.4-1.4-0.9-2-1.5c-0.3-0.3-0.5-0.7-0.7-1c-0.7-0.7-1.6-1.2-2.5-1.5
		c-1-0.2-1.9-0.3-2.9-0.3c-0.7,0-1.3,0-2,0.2c-0.6,0.2-1.1,0.7-1.3,1.4c-0.1,0.8,0.3,1.6,1,2c0.6,0.5,1.2,0.8,2,1
		c0.6,0.1,1.2,0.2,1.8,0.2c3.5,0.4,6.6,2.3,9.7,4c2.7,1.5,5.4,3,8.2,4.3c0.1-0.8,0.2-1.7,0.1-2.5c0-0.6-0.1-1.6-0.6-2
		c-0.8-0.4-1.7-0.6-2.6-0.8c-1.8-0.6-3.6-1.3-5.3-2.1C192.8,305.4,191.9,304.9,191,304.4z"/>
	<ellipse id="Ellipse_177" class="st12" cx="206.2" cy="278.4" rx="6.2" ry="6.3"/>
	<path id="Path_737" class="st11" d="M214.8,290.9c-0.5,0.7-0.9,1.5-1.2,2.3c-0.7,1.6-2,2.9-2.6,4.6s-0.6,3.8-1.9,5.2
		c-0.3,0.2-0.4,0.5-0.5,0.8c0,0.2,0,0.4-0.1,0.6c-0.2,0.5-1,0.5-1.1,1c0,0.1,0,0.3-0.1,0.5c-0.1,0.3-0.6,0.4-0.8,0.6
		c-0.6,0.4-0.5,1.4-0.9,2c-0.4,0.4-1,0.7-1.6,0.5c-0.6-0.1-1.1-0.3-1.6-0.6c-0.2-0.1-0.4-0.2-0.6-0.2c-0.2,0-0.5,0.1-0.7,0.2
		c-1.1,0.8-1.8,2.2-1.7,3.5c0.1,1.4,0.4,2.7,1,4c0.1,0.2,0.2,0.4,0.3,0.6c0.4,0.3,1.1,0.4,1.5,0.1c0.5-0.3,1-0.5,1.5-0.7
		c1-0.2,1.9,0.5,2.9,0.4c0.7-0.1,1.4-0.4,1.9-0.9c1-0.6,1.9-1.3,2.6-2.2c0.4-0.6,0.7-1.2,1.1-1.8c0.5-0.7,1-1.4,1.6-2.1l3.6-4.4
		c0.4-0.4,0.7-0.9,1-1.3c0.3-0.6,0.6-1.3,0.7-2c0.4-1.2,0.6-2.4,0.7-3.6c0-1-0.1-2-0.3-3c-0.1-1-0.4-1.9-0.7-2.9
		C218.2,290.6,216.3,289.2,214.8,290.9z"/>
	<path id="Path_738" class="st14" d="M227.3,282.8c0-2.3-1.1-4.4-2.9-5.7c-0.1-4.1-3.1-7.5-7.1-8.1c-0.9-4.4-5.1-7.2-9.5-6.3
		c-3.4,0.7-5.9,3.4-6.4,6.8c-2.6-0.6-5,0.2-5.4,1.8s1.4,3.7,4.1,4.4c0.9,0.2,1.8,0.3,2.6,0.3c1.3,1.9,3.3,3.2,5.6,3.5
		c0.7,3.1,3,5.5,6.1,6.3c0.4,1,1.1,1.9,1.9,2.6v0.6c0,2.9,2.3,5.3,5.3,5.3c2.9,0,5.3-2.3,5.3-5.3c0,0,0,0,0,0c0-0.8-0.2-1.6-0.5-2.3
		C227,285.3,227.4,284,227.3,282.8z"/>
	<path id="Path_739" class="st3" d="M197.8,271.5c0.4-1.6,2.8-2.4,5.4-1.8c0.6-4,4-6.9,8-6.9h0.5c-0.7-0.2-1.5-0.3-2.3-0.3
		c-4,0-7.4,3-8,6.9c-2.6-0.6-5,0.2-5.4,1.8s1.4,3.7,4.1,4.4c0.5,0.1,1,0.2,1.6,0.3C199.1,275,197.4,273.1,197.8,271.5z"/>
	<path id="Path_740" class="st3" d="M218.1,289c0-0.2,0-0.4,0-0.6c-0.8-0.7-1.5-1.6-1.9-2.6c-3.1-0.8-5.4-3.2-6.1-6.3
		c-2.3-0.3-4.3-1.6-5.6-3.5c-0.5,0-1,0-1.6,0c1.3,1.7,3.2,2.9,5.4,3.2c0.7,3.1,3,5.5,6.1,6.3c0.4,1,1.1,1.9,1.9,2.6v0.6
		c0,3,2.3,5.4,5.2,5.5C219.4,293.4,218,291.3,218.1,289z"/>
	
		<ellipse id="Ellipse_178" transform="matrix(0.7963 -0.6049 0.6049 0.7963 -126.7191 182.9723)" class="st12" cx="208.3" cy="279.6" rx="1" ry="1.3"/>
</g>
<g id="svg--contact--page_x5F_plant--three_1_">
	<path id="Path_647" class="st5" d="M39.2,329.7c1.9-3.5-0.3-7.9-2.7-11s-5.5-6.4-5.5-10.4c0.1-5.8,6.2-9.2,11.1-12.2
		c3.6-2.3,7-5,10-8c1.3-1.2,2.3-2.6,3.1-4.1c1-2.3,1-4.8,0.9-7.3c-0.2-8.2-0.6-16.5-1.2-24.7"/>
	<path id="Path_648" class="st2" d="M64.2,251.5c-0.1-3.1-1.8-5.8-4.5-7.4l-2,4l0.1-4.8c-4.8-1.4-9.8,1.3-11.2,6.1
		c-1.4,4.8,1.3,9.8,6.1,11.2c4.8,1.4,9.8-1.3,11.2-6.1C64.1,253.5,64.2,252.5,64.2,251.5L64.2,251.5z"/>
	<path id="Path_649" class="st2" d="M48.1,312.4c-2.3,4.4-7.7,6.2-12.1,3.9c-2.9-1.5-4.7-4.3-4.9-7.5c-0.1-1.2,0.1-2.5,0.6-3.7
		c1.8-4.6,7-6.9,11.7-5.1c2.4,0.9,4.2,2.8,5.1,5.2l-5.6,4.6l6.2-1.5C49.1,309.7,48.7,311.1,48.1,312.4L48.1,312.4z"/>
	<path id="Path_650" class="st2" d="M43.7,294.9c-5,0.2-9.2-3.6-9.4-8.6c-0.2-4.2,2.5-7.9,6.5-9.1l-0.1,3.7l2-4l0,0
		c5-0.2,9.2,3.6,9.4,8.6S48.6,294.7,43.7,294.9L43.7,294.9z"/>
	<path id="Path_651" class="st2" d="M65.5,280.4c-5,0.3-9.2-3.6-9.4-8.5s3.6-9.2,8.5-9.4c1.7-0.1,3.4,0.3,4.9,1.2l-1.6,4.4l3.2-3.2
		c3.7,3.4,3.9,9.1,0.6,12.7C70.1,279.2,67.9,280.3,65.5,280.4L65.5,280.4z"/>
	<path id="Path_652" class="st3" d="M62.9,253.9c-2.1,0.2-4.1,0.9-6.2,1s-4.4-0.4-5.7-2c-0.6-0.9-1.2-1.9-1.7-2.9
		c-0.6-0.9-1.3-1.6-2.3-2.1c-2.3,4.4-0.5,9.8,3.9,12.1c4.4,2.3,9.8,0.5,12.1-3.9c0.4-0.7,0.6-1.4,0.8-2.2
		C63.6,253.8,63.3,253.8,62.9,253.9z"/>
	<path id="Path_653" class="st3" d="M65.5,280.4c-5,0.2-9.2-3.6-9.4-8.6c-0.1-1.5,0.2-2.9,0.9-4.3c0.7,0.5,1.3,1.1,1.8,1.8
		c0.5,1,1.1,2,1.8,3c1.4,1.6,3.8,2.2,6,2.1s4.3-0.7,6.4-0.9c0.3,0,0.6,0,0.9-0.1C72.9,277.4,69.5,280.2,65.5,280.4z"/>
	<path id="Path_654" class="st3" d="M43.7,294.9c-5,0.2-9.2-3.6-9.4-8.6c-0.1-1.4,0.2-2.8,0.8-4.1c0.7,0.5,1.4,1.1,1.9,1.8
		c0.6,1,1.2,2.1,2,3c1.5,1.7,4.1,2.3,6.4,2.2s4.4-0.6,6.6-0.7C50.7,292.2,47.4,294.7,43.7,294.9z"/>
	<path id="Path_655" class="st3" d="M48.1,312.4c-2.3,4.4-7.7,6.2-12.1,3.9c-2.9-1.5-4.7-4.3-4.9-7.5c-0.1-1.2,0.1-2.5,0.6-3.7
		c0.7,0.5,1.4,1.1,2,1.8c0.9,1,1.4,2.2,2.4,3.2c1.8,1.8,4.8,2.6,7.5,2.6C45.1,312.7,46.6,312.6,48.1,312.4z"/>
</g>
</svg>
