<?xml version="1.0" encoding="utf-8"?>
<!-- Generator: Adobe Illustrator 23.0.6, SVG Export Plug-In . SVG Version: 6.00 Build 0)  -->
<svg version="1.1" id="svg--contact" xmlns="http://www.w3.org/2000/svg" xmlns:xlink="http://www.w3.org/1999/xlink" x="0px"
	 y="0px" viewBox="0 0 1046 729.9" style="enable-background:new 0 0 1046 729.9;" xml:space="preserve">
<style type="text/css">
	.st0{fill:#3F3D56;}
	.st1{opacity:0.1;enable-background:new    ;}
	.st2{opacity:0.1;fill:#EB7A6D;enable-background:new    ;}
	.st3{opacity:0.1;}
	.st4{fill:#EB7A6D;}
	.st5{fill:#F2F2F2;}
	.st6{fill:#FBBEBE;}
	.st7{fill:#FF6F61;}
	.st8{fill:#3A3768;}
	.st9{fill:#E6E8EC;}
</style>
<g id="svg--contact--floor">
	<path id="Path_45" class="st0" d="M218.7,700.1c13.5,8.6,33-0.1,46.7,8.4c3.5,2.2,6.4,5.4,10,7.4c4.4,2.4,9.5,2.8,14.5,3
		c41.6,1.6,83.9-10,124.5-0.6c11.4,2.6,22.5,6.9,34.1,7.5c20.1,1.1,39.3-8.7,59.5-9.2c30.5-0.8,60.5,19.6,89.9,11.5
		c9.7-2.7,18.6-8.3,28.5-9.2c11.1-1,21.8,3.8,32.7,6.7c38.4,10,78.3-6.2,118-7.4c25.9-0.8,51.5,4.8,77.3,6.2
		c18.4,0.9,36.8-0.4,55.2-1.7c7-0.5,14.3-1.1,20.2-4.9s9.5-12.1,5.8-18.1L218.7,700.1z"/>
	<path id="Path_46" class="st1" d="M218.7,700.1c13.5,8.6,33-0.1,46.7,8.4c3.5,2.2,6.4,5.4,10,7.4c4.4,2.4,9.5,2.8,14.5,3
		c41.6,1.6,83.9-10,124.5-0.6c11.4,2.6,22.5,6.9,34.1,7.5c20.1,1.1,39.3-8.7,59.5-9.2c30.5-0.8,60.5,19.6,89.9,11.5
		c9.7-2.7,18.6-8.3,28.5-9.2c11.1-1,21.8,3.8,32.7,6.7c38.4,10,78.3-6.2,118-7.4c25.9-0.8,51.5,4.8,77.3,6.2
		c18.4,0.9,36.8-0.4,55.2-1.7c7-0.5,14.3-1.1,20.2-4.9s9.5-12.1,5.8-18.1L218.7,700.1z"/>
	<path id="Path_47" class="st0" d="M218.7,695.1c13.5,8.6,33-0.1,46.7,8.4c3.5,2.2,6.4,5.4,10,7.4c4.4,2.4,9.5,2.8,14.5,3
		c41.6,1.6,83.9-10,124.5-0.6c11.4,2.6,22.5,6.9,34.1,7.5c20.1,1.1,39.3-8.7,59.5-9.2c30.5-0.8,60.5,19.6,89.9,11.5
		c9.7-2.7,18.6-8.3,28.5-9.2c11.1-1,21.8,3.8,32.7,6.7c38.4,10,78.3-6.2,118-7.4c25.9-0.8,51.5,4.8,77.3,6.2
		c18.4,0.9,36.8-0.4,55.2-1.7c7-0.5,14.3-1.1,20.2-4.9s9.5-12.1,5.8-18.1L218.7,695.1z"/>
</g>
<g id="svg--contact--bg">
	<path id="svg--contact--bg_x5F__x5F_item_1_" class="st2" d="M417.1,93.3C337,17,215.9,3.3,120.8,59.9
		C215.8,93.9,320.6,95.2,417.1,93.3z"/>
	<path id="svg--contact--bg_x5F__x5F_item_2_" class="st2" d="M967.6,645.5L863.9,465.8c-0.9-1.6-2.9-2.1-4.5-1.2
		c-0.5,0.3-0.9,0.7-1.2,1.2L754.5,645.5c-0.9,1.6-0.4,3.6,1.1,4.5c0.5,0.3,1.1,0.5,1.7,0.5h30.9c1.8,0,3.3,1.5,3.3,3.3v38.3
		c0,1.8,1.5,3.3,3.3,3.3h40.4c1.8,0,3.3-1.5,3.3-3.3v-18.5c0-1.8,1.5-3.3,3.3-3.3h38.4c1.8,0,3.3,1.5,3.3,3.3v18.5
		c0,1.8,1.5,3.3,3.3,3.3h40.4c1.8,0,3.3-1.5,3.3-3.3v-38.4c0-1.8,1.5-3.3,3.3-3.3h30.9c1.8,0,3.3-1.5,3.3-3.3
		C968.1,646.5,967.9,646,967.6,645.5L967.6,645.5z M823,665.4c-0.6,0.6-1.5,1-2.3,1h-14.5c-1.8,0-3.3-1.5-3.3-3.3
		c0-1.8,1.5-3.3,3.3-3.3h14.6c1.8,0,3.3,1.5,3.3,3.3C824,663.9,823.7,664.8,823,665.4L823,665.4z M918.3,665.4c-0.6,0.6-1.5,1-2.3,1
		h-14.5c-1.8,0-3.3-1.5-3.3-3.3c0-1.8,1.5-3.3,3.3-3.3H916c1.8,0,3.3,1.5,3.3,3.3C919.3,663.9,919,664.8,918.3,665.4L918.3,665.4z"
		/>
	<path id="svg--contact--bg_x5F__x5F_item_3_" class="st2" d="M326.5,647.1L222.8,467.4c-0.9-1.6-2.9-2.1-4.5-1.2
		c-0.5,0.3-0.9,0.7-1.2,1.2l-89.6,155.2c11.2,14.1,23.8,27.1,37.5,38.7h14.6c1.8,0,3.3,1.5,3.3,3.3c0,1.8-1.5,3.3-3.3,3.3
		c0,0,0,0,0,0h-6.2c7.5,5.7,15.6,10.7,24,14.9v-7.7c0-1.8,1.5-3.3,3.3-3.3h38.4c1.8,0,3.3,1.5,3.3,3.3v18.5c0,0.5,0.1,1,0.3,1.4
		c0.5,1.2,1.7,1.9,3,1.9h40.4c1,0,2-0.5,2.6-1.3c0.4-0.6,0.7-1.3,0.7-2v-38.3c0-1.8,1.5-3.3,3.3-3.3h30.9c1.8,0,3.3-1.5,3.3-3.3
		C327,648.2,326.8,647.6,326.5,647.1L326.5,647.1z M258,662.3c0.6-0.6,1.5-1,2.3-1h14.6c1.8,0,3.3,1.5,3.3,3.3
		c0,1.8-1.5,3.3-3.3,3.3h-14.6c-1.8,0-3.3-1.5-3.3-3.3C257,663.7,257.4,662.9,258,662.3L258,662.3z M192.9,595.8
		c-1.8,0-3.3-1.5-3.3-3.3v-25.1c0-1.8,1.5-3.3,3.3-3.3h54.2c1.8,0,3.3,1.5,3.3,3.3v25.1c0,1.8-1.5,3.3-3.3,3.3H192.9z"/>
	<path id="svg--contact--bg_x5F__x5F_item_4_" class="st2" d="M736.5,324.3H608.2v-27.8c0-3.7-3-6.6-6.6-6.6l0,0h-37.7v-29.6
		c0-2.3-1.9-4.2-4.2-4.2h-48.5c-2.3,0-4.2,1.9-4.2,4.2v29.6h-44.3c-3.7,0-6.6,3-6.6,6.6v0v27.8H333.6c-0.7,0-1.3,0.6-1.3,1.4v368.5
		c0,0.7,0.6,1.3,1.3,1.3h81.3c0.7,0,1.4-0.6,1.4-1.3v-49.6c0-0.7,0.6-1.3,1.4-1.3H452c0.7,0,1.3,0.6,1.3,1.3v49.6
		c0,0.7,0.6,1.3,1.3,1.3h160.8c0.7,0,1.3-0.6,1.3-1.3v-49.6c0-0.7,0.6-1.3,1.3-1.3h34.4c0.7,0,1.3,0.6,1.3,1.3v49.6
		c0,0.7,0.6,1.3,1.3,1.3h81.3c0.7,0,1.3-0.6,1.3-1.3V325.7C737.9,324.9,737.3,324.3,736.5,324.3L736.5,324.3z M401.7,626.1
		c0,0.7-0.6,1.3-1.3,1.3h0h-50.2c-0.7,0-1.3-0.6-1.3-1.3c0,0,0,0,0,0v-17.1c0-0.7,0.6-1.3,1.4-1.3h50.2c0.7,0,1.3,0.6,1.3,1.3
		L401.7,626.1z M401.7,581.7c0,0.7-0.6,1.3-1.3,1.3c0,0,0,0,0,0h-50.2c-0.7,0-1.3-0.6-1.4-1.3c0,0,0,0,0,0v-17.1
		c0-0.7,0.6-1.3,1.3-1.3c0,0,0,0,0,0h50.2c0.7,0,1.3,0.6,1.3,1.3c0,0,0,0,0,0L401.7,581.7z M401.7,537.4c0,0.7-0.6,1.3-1.3,1.3
		h-50.2c-0.7,0-1.4-0.6-1.4-1.3v-17.2c0-0.7,0.6-1.3,1.4-1.3h50.2c0.7,0,1.3,0.6,1.3,1.3L401.7,537.4z M401.7,493
		c0,0.7-0.6,1.3-1.3,1.3c0,0,0,0,0,0h-50.2c-0.7,0-1.3-0.6-1.4-1.3c0,0,0,0,0,0v-17.1c0-0.7,0.6-1.3,1.3-1.3c0,0,0,0,0,0h50.2
		c0.7,0,1.3,0.6,1.3,1.3c0,0,0,0,0,0L401.7,493z M401.7,448.7c0,0.7-0.6,1.3-1.3,1.3h-50.2c-0.7,0-1.4-0.6-1.4-1.3v-17.2
		c0-0.7,0.6-1.3,1.3-1.3c0,0,0,0,0,0h50.2c0.7,0,1.3,0.6,1.3,1.3l0,0L401.7,448.7z M401.7,404.4c0,0.7-0.6,1.3-1.3,1.3h-50.2
		c-0.7,0-1.3-0.6-1.3-1.3c0,0,0,0,0,0v-17.2c0-0.7,0.6-1.4,1.4-1.4l0,0h50.2c0.7,0,1.3,0.6,1.3,1.4L401.7,404.4z M401.7,360
		c0,0.7-0.6,1.3-1.3,1.3c0,0,0,0,0,0h-50.2c-0.7,0-1.3-0.6-1.4-1.3c0,0,0,0,0,0v-17.1c0-0.7,0.6-1.3,1.3-1.4c0,0,0,0,0,0h50.2
		c0.7,0,1.3,0.6,1.3,1.3c0,0,0,0,0,0L401.7,360z M520.8,626c0,0.7-0.6,1.3-1.3,1.3c0,0,0,0,0,0h-50.2c-0.7,0-1.3-0.6-1.3-1.3v-17.1
		c0-0.7,0.6-1.3,1.3-1.3h50.2c0.7,0,1.3,0.6,1.3,1.3L520.8,626z M520.8,581.7c0,0.7-0.6,1.3-1.3,1.3c0,0,0,0,0,0h-50.2
		c-0.7,0-1.3-0.6-1.3-1.3v-17.1c0-0.7,0.6-1.3,1.3-1.3h50.2c0.7,0,1.3,0.6,1.3,1.3c0,0,0,0,0,0L520.8,581.7z M520.8,537.4
		c0,0.7-0.6,1.3-1.3,1.3h-50.2c-0.7,0-1.3-0.6-1.3-1.3v-17.1c0-0.7,0.6-1.3,1.3-1.3h50.2c0.7,0,1.3,0.6,1.3,1.3L520.8,537.4z
		 M520.8,493c0,0.7-0.6,1.3-1.3,1.3c0,0,0,0,0,0h-50.2c-0.7,0-1.3-0.6-1.3-1.3v-17.1c0-0.7,0.6-1.3,1.3-1.3h50.2
		c0.7,0,1.3,0.6,1.3,1.3c0,0,0,0,0,0L520.8,493z M520.8,448.7c0,0.7-0.6,1.3-1.3,1.3h-50.2c-0.7,0-1.3-0.6-1.3-1.3v-17.1
		c0-0.7,0.6-1.3,1.3-1.3h50.2c0.7,0,1.3,0.6,1.3,1.3c0,0,0,0,0,0L520.8,448.7z M520.8,404.4c0,0.7-0.6,1.3-1.3,1.3c0,0,0,0,0,0
		h-50.2c-0.7,0-1.3-0.6-1.3-1.3v-17.1c0-0.7,0.6-1.3,1.3-1.4h50.2c0.7,0,1.3,0.6,1.3,1.4L520.8,404.4z M520.8,360
		c0,0.7-0.6,1.3-1.3,1.4c0,0,0,0,0,0h-50.2c-0.7,0-1.3-0.6-1.3-1.4v-17.1c0-0.7,0.6-1.4,1.3-1.4h50.2c0.7,0,1.3,0.6,1.3,1.3
		c0,0,0,0,0,0L520.8,360z M602.2,626c0,0.7-0.6,1.3-1.3,1.3c0,0,0,0,0,0h-50.2c-0.7,0-1.3-0.6-1.3-1.3v-17.1c0-0.7,0.6-1.3,1.3-1.3
		h50.2c0.7,0,1.3,0.6,1.3,1.3L602.2,626z M602.2,581.7c0,0.7-0.6,1.3-1.3,1.3c0,0,0,0,0,0h-50.2c-0.7,0-1.3-0.6-1.3-1.3v-17.1
		c0-0.7,0.6-1.3,1.3-1.3h50.2c0.7,0,1.3,0.6,1.3,1.3c0,0,0,0,0,0L602.2,581.7z M602.2,537.4c0,0.7-0.6,1.3-1.3,1.3h-50.2
		c-0.7,0-1.3-0.6-1.3-1.3v-17.1c0-0.7,0.6-1.3,1.3-1.3h50.2c0.7,0,1.3,0.6,1.3,1.3L602.2,537.4z M602.2,493c0,0.7-0.6,1.3-1.3,1.3
		c0,0,0,0,0,0h-50.2c-0.7,0-1.3-0.6-1.3-1.3v-17.1c0-0.7,0.6-1.3,1.3-1.3h50.2c0.7,0,1.3,0.6,1.3,1.3c0,0,0,0,0,0L602.2,493z
		 M602.2,448.7c0,0.7-0.6,1.3-1.3,1.3h-50.2c-0.7,0-1.3-0.6-1.3-1.3v-17.1c0-0.7,0.6-1.3,1.3-1.3h50.2c0.7,0,1.3,0.6,1.3,1.3
		c0,0,0,0,0,0L602.2,448.7z M602.2,404.4c0,0.7-0.6,1.3-1.3,1.3c0,0,0,0,0,0h-50.2c-0.7,0-1.3-0.6-1.3-1.3v-17.1
		c0-0.7,0.6-1.3,1.3-1.4h50.2c0.7,0,1.3,0.6,1.3,1.4L602.2,404.4z M602.2,360c0,0.7-0.6,1.3-1.3,1.4c0,0,0,0,0,0h-50.2
		c-0.7,0-1.3-0.6-1.3-1.4v-17.1c0-0.7,0.6-1.4,1.3-1.4h50.2c0.7,0,1.3,0.6,1.3,1.3c0,0,0,0,0,0L602.2,360z M721.3,626
		c0,0.7-0.6,1.3-1.3,1.3h-50.2c-0.7,0-1.3-0.6-1.3-1.3c0,0,0,0,0,0v-17.1c0-0.7,0.6-1.3,1.3-1.3H720c0.7,0,1.3,0.6,1.3,1.3
		L721.3,626z M721.3,581.7c0,0.7-0.6,1.3-1.3,1.3h-50.2c-0.7,0-1.3-0.6-1.3-1.3c0,0,0,0,0,0v-17.1c0-0.7,0.6-1.3,1.3-1.3
		c0,0,0,0,0,0H720c0.7,0,1.3,0.6,1.3,1.3L721.3,581.7z M721.3,537.4c0,0.7-0.6,1.3-1.3,1.3h-50.2c-0.7,0-1.3-0.6-1.3-1.3v-17.1
		c0-0.7,0.6-1.3,1.3-1.3H720c0.7,0,1.3,0.6,1.3,1.3L721.3,537.4z M721.3,493c0,0.7-0.6,1.3-1.3,1.3h-50.2c-0.7,0-1.3-0.6-1.3-1.3
		c0,0,0,0,0,0v-17.1c0-0.7,0.6-1.3,1.3-1.3c0,0,0,0,0,0H720c0.7,0,1.3,0.6,1.3,1.3L721.3,493z M721.3,448.7c0,0.7-0.6,1.3-1.3,1.3
		h-50.2c-0.7,0-1.3-0.6-1.3-1.3v-17.1c0-0.7,0.6-1.3,1.3-1.3c0,0,0,0,0,0H720c0.7,0,1.3,0.6,1.3,1.3L721.3,448.7z M721.3,404.4
		c0,0.7-0.6,1.4-1.3,1.4c0,0,0,0,0,0h-50.2c-0.7,0-1.3-0.6-1.3-1.3c0,0,0,0,0,0v-17.2c0-0.7,0.6-1.4,1.3-1.4H720
		c0.7,0,1.3,0.6,1.3,1.4L721.3,404.4z M721.3,360c0,0.7-0.6,1.4-1.3,1.4h-50.2c-0.7,0-1.3-0.6-1.3-1.3c0,0,0,0,0,0v-17.1
		c0-0.7,0.6-1.3,1.3-1.4c0,0,0,0,0,0H720c0.7,0,1.3,0.6,1.3,1.4L721.3,360z"/>
	<g id="svg--contact--bg_x5F__x5F_cloud--one">
		<path id="svg--contact--bg_x5F__x5F_cloud--three_x5F__x5F_one_1_" class="st2" d="M371,224.5c-5.6-1.1-11.5-0.4-16.8,1.8
			c-6.4,2.9-13.8,2.9-20.2-0.1c-7.6-3.3-16.2-3.2-23.7,0.5c-2.1,1.1-4.4,1.7-6.8,1.7c-9.6,0-17.6-9.7-19.2-22.4
			c1.9-1.4,3.5-3.2,4.8-5.2c5.6-9.1,14.4-14.9,24.1-14.9s18.4,5.8,24,14.7c3.4,5.5,9.5,8.8,16,8.8h0.2
			C361.1,209.4,367.7,215.5,371,224.5z"/>
		<path id="svg--contact--bg_x5F__x5F_cloud--three_x5F__x5F_one" class="st2" d="M400.2,184.4l-15.5,9.8l9.4-17.1
			c-2.7-2.1-6-3.3-9.4-3.4h-0.2c-1.1,0-2.2-0.1-3.2-0.2l-5.2,3.3l2.3-4.1c-3.7-1.3-6.9-3.8-9.2-7l-9.4,6l5.9-10.8
			c-5.5-6.6-12.9-10.7-21.1-10.7c-9.8,0-18.5,5.8-24.1,14.9c-3.4,5.5-9.5,8.8-16,8.6h-0.5c-10.8,0-19.6,12.2-19.6,27.4
			s8.8,27.4,19.6,27.4c2.4,0,4.7-0.6,6.8-1.7c7.4-3.6,16.1-3.8,23.7-0.5c6.4,2.9,13.7,2.9,20.1,0c7.5-3.3,16.1-3.1,23.5,0.5
			c2.1,1.1,4.4,1.7,6.7,1.7c10.8,0,19.6-12.3,19.6-27.4C404.3,195.3,402.9,189.5,400.2,184.4L400.2,184.4z"/>
	</g>
	<g id="svg--contact--bg_x5F__x5F_cloud--three">
		<path id="svg--contact--bg_x5F__x5F_cloud--three_x5F__x5F_item_1_" class="st2" d="M832,406.9c-4-0.7-8-0.3-11.7,1.3
			c-4.5,2-9.6,2-14.1,0c-5.3-2.3-11.4-2.2-16.6,0.3c-1.5,0.8-3.1,1.2-4.8,1.2c-6.7,0-12.3-6.8-13.5-15.7c1.3-1,2.5-2.2,3.4-3.6
			c3.9-6.4,10-10.4,16.9-10.4s12.9,4,16.8,10.3c2.4,3.9,6.6,6.2,11.2,6.1h0.2C825.1,396.4,829.7,400.7,832,406.9z"/>
		<path id="svg--contact--bg_x5F__x5F_cloud--three_x5F__x5F_item" class="st2" d="M852.4,378.9l-10.9,6.9l6.6-12
			c-1.9-1.5-4.2-2.3-6.6-2.3h-0.2c-0.8,0-1.5,0-2.2-0.2l-3.7,2.3l1.6-2.9c-2.6-0.9-4.9-2.6-6.4-4.9L824,370l4.2-7.6
			c-3.8-4.6-9-7.5-14.8-7.5c-6.8,0-13,4.1-16.9,10.4c-2.4,3.9-6.6,6.2-11.2,6H785c-7.6,0-13.7,8.6-13.7,19.1s6.1,19.2,13.7,19.2
			c1.7,0,3.3-0.4,4.8-1.2c5.2-2.5,11.3-2.7,16.6-0.3c4.5,2,9.6,2,14.1,0c5.3-2.3,11.3-2.2,16.4,0.3c1.5,0.8,3.1,1.2,4.7,1.2
			c7.6,0,13.7-8.6,13.7-19.2C855.3,386.5,854.3,382.5,852.4,378.9z"/>
	</g>
	<g id="svg--contact--bg_x5F__x5F_cloud--two">
		<path id="svg--contact--bg_x5F__x5F_cloud--two_x5F__x5F_item_1_" class="st2" d="M238.6,342.9c4-0.7,8-0.3,11.7,1.3
			c4.5,2,9.6,2,14.1,0c5.3-2.3,11.4-2.2,16.6,0.3c1.5,0.8,3.1,1.2,4.8,1.2c6.7,0,12.3-6.8,13.5-15.7c-1.3-1-2.5-2.2-3.4-3.6
			c-3.9-6.4-10-10.5-16.9-10.5s-12.9,4-16.8,10.3c-2.4,3.9-6.6,6.2-11.2,6.1h-0.2C245.5,332.4,240.9,336.7,238.6,342.9z"/>
		<path id="svg--contact--bg_x5F__x5F_cloud--two_x5F__x5F_item" class="st2" d="M218.1,314.9l10.9,6.9l-6.6-12
			c1.9-1.5,4.2-2.3,6.6-2.3h0.2c0.8,0,1.5,0,2.2-0.2l3.7,2.3l-1.6-2.9c2.6-0.9,4.9-2.6,6.5-4.9l6.6,4.2l-4.2-7.6
			c3.9-4.6,9-7.5,14.8-7.5c6.9,0,13,4.1,16.9,10.4c2.4,3.9,6.6,6.2,11.2,6h0.4c7.6,0,13.7,8.6,13.7,19.1s-6.1,19.2-13.7,19.2
			c-1.7,0-3.3-0.4-4.8-1.2c-5.2-2.5-11.3-2.7-16.6-0.3c-4.5,2-9.6,2-14.1,0c-5.3-2.3-11.3-2.2-16.4,0.3c-1.5,0.8-3.1,1.2-4.7,1.2
			c-7.6,0-13.7-8.6-13.7-19.2C215.2,322.5,216.2,318.5,218.1,314.9z"/>
	</g>
	<g id="svg--contact--bg_x5F__x5F_tree--one" class="st3">
		<path id="svg--contact--bg_x5F__x5F_tree--one_x5F__x5F_item_4_" class="st0" d="M122.4,571.9c0,4.3-1.1,8.6-3.2,12.4
			c4.3,7.7,4.3,17.1,0,24.8c1.1,1.9,1.9,3.9,2.4,6c-10.9-14.4-21-29.4-30.1-45l0,0c0.2-3.7,1.3-7.3,3.2-10.6
			c-2.2-3.8-3.3-8-3.2-12.4c0-2.9,0.5-5.8,1.5-8.6c0.5-1.3,1.1-2.6,1.8-3.8c2.8-4.8,7.3-7.9,12.2-7.9s9.4,3.1,12.2,7.9
			c0.7,1.2,1.3,2.4,1.7,3.7c1,2.8,1.5,5.8,1.5,8.7c0,4.3-1.1,8.6-3.2,12.4C121.3,563.2,122.4,567.5,122.4,571.9L122.4,571.9z"/>
		<ellipse id="svg--contact--bg_x5F__x5F_tree--one_x5F__x5F_item_3_" class="st0" cx="106.9" cy="522.3" rx="15.5" ry="20.3"/>
		<ellipse id="svg--contact--bg_x5F__x5F_tree--one_x5F__x5F_item_2_" class="st0" cx="106.9" cy="497.6" rx="15.5" ry="20.3"/>
		<path id="svg--contact--bg_x5F__x5F_tree--one_x5F__x5F_item_1_" class="st4" d="M180.7,373.9c0,16.6-5.6,32.8-15.9,45.8
			c25.3,32.2,19.7,78.8-12.4,104.1c-9.2,7.3-20,12.2-31.6,14.5c-1.8,0.4-3.6,0.6-5.4,0.9c-5.6,0.7-11.3,0.7-17,0.1
			c-1.9-0.2-3.7-0.5-5.6-0.8c-8.1-1.5-15.9-4.3-23-8.4c-13.3-27.2-24.9-55.2-34.8-83.8c2.6-9.6,7.1-18.6,13.3-26.5
			c-15.5-19.7-20-45.9-12-69.6l56.3,18.9l-52.8-27.4c2.3-4.8,5.2-9.3,8.4-13.5C22.9,296,28.5,249.4,60.7,224
			c32.2-25.3,78.8-19.8,104.1,12.4c2.2,2.8,4.2,5.7,5.9,8.7l-54.4,40l59-30.6c7.6,18.9,7.1,40.2-1.4,58.7l-44-0.3l40.7,6.7
			c-1.7,3-3.7,5.8-5.8,8.5C175,341.2,180.7,357.3,180.7,373.9z"/>
		<path id="svg--contact--bg_x5F__x5F_tree--one_x5F__x5F_item" class="st1" d="M180.7,465.6c0,35.4-25.1,65.9-59.8,72.7
			c-1.8,0.4-3.6,0.6-5.4,0.9c-5.6,0.7-11.3,0.7-17,0.1c-1.9-0.2-3.7-0.5-5.6-0.8c-8.1-1.5-15.9-4.3-23-8.4
			c-13.3-27.2-25-55.2-34.9-83.8c2.6-9.6,7.1-18.6,13.3-26.5c-10.3-13.1-15.9-29.2-15.9-45.9c0-8.3,142.3,33.2,132.4,45.8
			C175.1,432.8,180.7,449,180.7,465.6z"/>
	</g>
	<g id="svg--contact--bg_x5F__x5F_tree--two" class="st3">
		<path id="svg--contact--bg_x5F__x5F_tree--two_x5F__x5F_item_2_" class="st0" d="M1014.9,552.6c-2.9,9.3-6,18.5-9.2,27.4
			c-0.9-2.6-1.3-5.4-1.3-8.2C1004.4,562.9,1008.8,555.3,1014.9,552.6z"/>
		<path id="svg--contact--bg_x5F__x5F_tree--two_x5F__x5F_item_1_" class="st4" d="M1046,393c0,17.5-3.5,45.3-10,77
			c-5.7,27.9-12.7,55.4-21.2,82.6c-2.9,9.3-6,18.5-9.2,27.4c-3.7,10.2-7.5,20.1-11.5,29.6c-38.6-14.2-58.4-56.9-44.2-95.5
			c2.7-7.3,6.5-14.1,11.3-20.3c-15.5-19.7-20-46-12-69.8l56.3,18.9l-52.8-27.5c2.3-4.8,5.2-9.3,8.4-13.5
			c-25.4-32.3-19.7-79.1,12.6-104.5c5.1-4,10.6-7.3,16.5-9.8c22.7,15.5,39.8,37.9,48.8,63.9l-9.7,7.3l10.5-5.4
			c3.5,10.8,5.6,22,6.1,33.3h-2.9l3,0.5C1046,389.2,1046,391.1,1046,393z"/>
		<path id="svg--contact--bg_x5F__x5F_tree--two_x5F__x5F_item" class="st1" d="M1036.1,470c-5.7,27.9-12.7,55.4-21.2,82.6
			c-2.9,9.3-6,18.5-9.2,27.4c-3.7,10.2-7.5,20.1-11.5,29.6c-38.6-14.2-58.4-56.9-44.2-95.5c2.7-7.3,6.5-14.1,11.3-20.3
			c-10.3-13.1-15.9-29.3-15.9-45.9C945.4,442.9,997.1,456,1036.1,470z"/>
	</g>
	<path id="svg--contact--bg_x5F__x5F_item" class="st2" d="M1045.9,387.3v-0.5c-0.5-11.3-2.6-22.5-6.1-33.3
		c-0.2-0.6-0.4-1.2-0.6-1.8c-22.7-66.3-94.8-101.7-161.2-79.1c-20.7,7.1-39.2,19.4-53.7,35.7c-2.1-12.1-5.5-24-10.1-35.5
		c-33.4,4.2-67,5.5-100.6,3.8c20.6,9.5,41.9,17.2,63.8,23.2l-0.8,2.9c-24.6-6.7-48.4-15.6-71.3-26.7l-6.9-3.4l7.7,0.5
		c35.7,2.3,71.5,1.3,107-3.1c-7.7-18.3-18.3-35.2-31.5-50.1c-57.6-5.8-114.7-17.9-168-41.8l1.2-2.7c51.9,23.3,107.5,35.3,163.7,41.2
		c-67.7-72.6-181.5-76.5-254.1-8.8c-12.3,11.5-23,24.7-31.7,39.2c-5.3-51.6-26.7-100.2-61.2-138.9c-30.7,12.3-62.4,21.9-94.8,28.7
		c-48.7,10.3-98.5,14.3-148.1,11.8c20.6,9.5,41.9,17.2,63.8,23.2l-0.8,2.9c-24.5-6.7-48.4-15.6-71.3-26.7l-6.9-3.4l7.7,0.5
		c84.7,5.6,169.5-7.9,248.4-39.4c-3-3.2-6-6.4-9.2-9.5c-98.4,2-205.6,1-302.6-34.3C44.4,107-0.1,186.8,0,272.8
		c0,46.5,12.8,110.4,35,174.5c9.9,28.7,21.6,56.7,34.9,84c6.8,13.8,14,27.2,21.6,40l0,0c9.1,15.6,19.2,30.6,30.1,45
		c2,2.6,3.9,5.1,5.9,7.6c11.2,14.2,23.7,27.2,37.5,38.9l0,0c2.8,2.3,5.6,4.5,8.4,6.6c7.5,5.7,15.6,10.7,24,15
		c14.7,7.3,29.8,11.7,45.3,12.3c1.2,0,2.5,0.1,3.7,0.1v0.5h672v-0.5h0.5c3.9,0,7.7-0.7,11.4-2c23.8-8.4,45.6-42.3,63.8-85.1
		c4-9.5,7.9-19.4,11.5-29.6c3.2-9,6.3-18.2,9.2-27.4c8.4-27.1,15.5-54.7,21.2-82.6c6.4-31.7,10-59.5,10-77
		C1046,391.1,1046,389.2,1045.9,387.3z"/>
</g>
<g id="svg--contact--stone">
	<path id="Path_55" class="st4" d="M334.1,667.8l19.1-11.3c-2.6-4.4-5.9-8.4-9.8-11.7L307.3,656l28.3-16.6
		c-22.3-12.2-50.2-4-62.4,18.2c-3.7,6.8-5.7,14.4-5.7,22.1c0,25.4,20.6,26.3,46,26.3s46-0.9,46-26.3c0-6.4-1.3-12.8-4-18.7
		L334.1,667.8z"/>
	<path id="Path_56" class="st1" d="M338.9,692.5c-2-2-4.3-3.8-6.8-5.3c-3.5-2.3-7.1-4.7-11.2-5.5c-3.6-0.7-7.3-0.1-11-0.3
		c-6.4-0.4-12.4-3.1-16.8-7.7c-2.6-2.7-4.7-6-7.8-8.1c-3.4-2.2-7.7-2.7-11.7-2.2c-1.2,0.2-2.3,0.4-3.5,0.7c-1.8,5-2.7,10.3-2.7,15.6
		c0,25.4,20.6,26.3,46,26.3c12.3,0,23.5-0.2,31.8-3.3l-1.4-2.6C342.6,697.4,340.9,694.8,338.9,692.5L338.9,692.5z"/>
</g>
<g id="svg--contact--woman">
	<circle id="svg--contact--woman_x5F__x5F_item_14_" class="st0" cx="547.3" cy="185.8" r="35.8"/>
	<path id="svg--contact--woman_x5F__x5F_item_13_" class="st0" d="M526.6,463.9c3.7,25.9-0.8,52.3-7.8,77.5
		c-1.3,4.7-2.7,9.4-5.2,13.6s-5.9,7.8-8.7,11.8c-6,8.3-9.5,18-12.8,27.6c-9.1,26.7-16.7,53.8-22.8,81.3c-0.4,1.1-0.4,2.3,0,3.5
		c0.9,2,3.5,2.3,5.7,2.2l28.1-0.2c1-1.9-0.8-4-2-5.8c-4-6.2-0.2-14.3,3.4-20.8c8.6-15.8,15.2-32.6,19.8-50
		c1.9-7.3,3.5-14.8,6.6-21.7c3.8-8.4,9.7-15.6,14.5-23.4c5.6-9.1,9.7-19,13.7-28.9c5.6-13.8,11.3-27.7,13.5-42.5
		c2.1-13.8,1.1-27.9-0.3-41.8c0.2-1.4-0.8-2.8-2.2-3c-0.3,0-0.6,0-0.8,0l-37.7-1.9c-7.8-0.4-9.6-2.1-8.4,5.5
		C523.8,452.6,525.8,458.1,526.6,463.9z"/>
	<path id="svg--contact--woman_x5F__x5F_item_12_" class="st1" d="M526.6,463.9c3.7,25.9-0.8,52.3-7.8,77.5
		c-1.3,4.7-2.7,9.4-5.2,13.6s-5.9,7.8-8.7,11.8c-6,8.3-9.5,18-12.8,27.6c-9.1,26.7-16.7,53.8-22.8,81.3c-0.4,1.1-0.4,2.3,0,3.5
		c0.9,2,3.5,2.3,5.7,2.2l28.1-0.2c1-1.9-0.8-4-2-5.8c-4-6.2-0.2-14.3,3.4-20.8c8.6-15.8,15.2-32.6,19.8-50
		c1.9-7.3,3.5-14.8,6.6-21.7c3.8-8.4,9.7-15.6,14.5-23.4c5.6-9.1,9.7-19,13.7-28.9c5.6-13.8,11.3-27.7,13.5-42.5
		c2.1-13.8,1.1-27.9-0.3-41.8c0.2-1.4-0.8-2.8-2.2-3c-0.3,0-0.6,0-0.8,0l-37.7-1.9c-7.8-0.4-9.6-2.1-8.4,5.5
		C523.8,452.6,525.8,458.1,526.6,463.9z"/>
	<path id="svg--contact--woman_x5F__x5F_item_11_" class="st0" d="M534,400.9c-7.7,11-15.7,23.7-13.1,36.8c1.9,10,9.5,17.8,16.7,25
		c28.7,28.9,57,60.9,66.8,100.5c2.5,10.2,3.7,20.7,5.9,31c3.9,18.7,11,36.6,18,54.3l18.8,47.3c11.9,0.3,22.7-6.9,27.1-18
		c-2.5-0.2-5.7-2.6-7.1-4.6c-8-11.1-9.6-25.3-11.7-38.8c-2.3-14.9-5.3-29.7-8.3-44.5l-13.4-65.4c-1.5-7.5-3.1-15.1-5.1-22.5
		c-7.8-28.8-22.6-56-24.9-85.8c-0.3-4.4-0.5-9.2-3.5-12.4c-3.1-3.4-8.2-4-12.9-4.3C568.4,398.3,552.2,396.5,534,400.9z"/>
	<path id="svg--contact--woman_x5F__x5F_item_10_" class="st5" d="M483.5,675.1c-2-0.5-4.1-0.8-6.2-0.8c-4.1,0.1-7.8,2.2-10.2,5.5
		c-1.2,1.9-2.1,3.9-2.7,6l-2.7,7.8c-0.8,2.3-1.6,4.9-0.4,7c0.9,1.3,2.2,2.3,3.6,2.8c6.6,2.9,14,3.1,21.1,3.8
		c6.9,0.7,13.8,1.9,20.7,3.2c2.4,0.5,4.7,0.9,7.1,1.1c5.3,0.5,10.7,0,16.1-0.5l5.5-0.5c1.8-0.1,3.7-0.4,5.4-1c1.8-0.6,3.2-1.9,4-3.6
		c1.4-3.4-1.6-7.4-5.1-8.1c-1.5-0.3-3-0.2-4.4-0.3c-1.7-0.3-3.3-0.8-4.8-1.5c-7-2.8-14.2-5.6-20.4-9.9c-1.7-1.2-3.5-2.9-3.3-5
		c0.2-0.9,0.5-1.8,0.9-2.6c0.8-2.1,0.9-4.5,0.1-6.7c-0.3-0.9-1-1.9-1.9-2c-2.6-0.3-2.3,3.5-2.7,5c-0.5,2-1.5,2.2-3.4,2
		C494.2,676.3,488.8,676.1,483.5,675.1z"/>
	<path id="svg--contact--woman_x5F__x5F_item_9_" class="st5" d="M641.3,701.9c0,3.9,1.4,7.7,3.8,10.8c0.7,0.9,1.7,1.7,2.7,2.2
		c1.6,0.7,3.3,0.9,5,0.8c4.8-0.1,9.5-1.1,13.9-2.8c1.6-0.7,3.2-1.3,4.8-1.8c2.1-0.4,4.1-0.7,6.2-0.9c8.3-1.2,15.5-6.1,23.5-8.5
		c2.4-0.6,4.7-1.4,7-2.3c3.2-1.5,5.7-4,8.2-6.4c1.5-1.3,2.8-2.8,3.8-4.5c1.5-2.7,1.6-6,1.6-9.1c0.1-0.5,0-1-0.2-1.4
		c-0.2-0.3-0.5-0.6-0.9-0.7c-2.4-1.2-5.3-0.6-8-0.1c-9.7,1.7-19.7,1.4-29.5,1.1c-1.9,0.3-3.8-0.8-4.5-2.6l-3.8-6
		c-1.1-1.7-2.8-3.7-4.7-3.1c-1.5,0.5-2.2,2.4-2.1,4s0.6,3.2,0.2,4.8c-0.4,1.8-1.6,3.3-3.2,4.2c-1.6,0.9-3.3,1.5-5,1.9
		c-5.5,1.6-11.9,3.3-16.2,7.4C640.9,691.6,641.2,698,641.3,701.9z"/>
	<path id="svg--contact--woman_x5F__x5F_item_8_" class="st6" d="M639.4,305.2c2.2-1.6,4-3.7,5.5-5.9c1.3-2.6,2-5.4,2.3-8.2l1.6-9.9
		c0.9-5.5,1.9-11.3,5.5-15.4s10.9-5.7,14.6-1.5c1.6,1.8,2.3,4.2,2.7,6.6c2.3,14.4-2,29.1-11.8,40c-4.5,4.9-10,8.8-14.8,13.5
		c-4.1,4-7.7,8.6-11.5,12.9c-9.2,10.5-19.8,19.8-31.5,27.5c0.1-7.4,1.1-15.4,0-22.8c-0.8-5.3-3-8.2,2.2-11.7
		C616.2,322,628.3,314.6,639.4,305.2z"/>
	<path id="svg--contact--woman_x5F__x5F_item_7_" class="st6" d="M538.6,232c-0.4,5.3-2.6,10.8-7,13.8c12.5,4.4,24.8,9.2,36.9,14.4
		c-2.3-2.2-3-5.7-3.2-8.9c-0.3-8.5,2.6-16.8,6.9-24.1c0.7-0.9,1.1-2,1.1-3.2c-0.1-2.4-2.9-3.5-5.2-4c-7.8-1.9-15.9-3.1-23.9-3.5
		c-3.5-0.1-7.5-1.2-6.8,3.2C538.1,223.9,538.9,227.9,538.6,232z"/>
	<circle id="svg--contact--woman_x5F__x5F_item_6_" class="st6" cx="562.7" cy="205.6" r="29.2"/>
	<path id="svg--contact--woman_x5F__x5F_item_5_" class="st7" d="M591.6,284.6c-1-2.2-2.3-4.3-3.7-6.2c-5.3-7.6-10.7-15.2-17.5-21.5
		c-5.2-4.6-10.7-8.7-16.7-12.2c-3.2-2.2-6.7-3.9-10.4-5c-2.2-0.5-4.4-0.8-6.7-0.9l-7.6-0.6c-0.7-0.1-1.3-0.1-2,0.1
		c-2.1,0.5-3,3.1-2.6,5.1s2,3.8,3.4,5.3c0.3,15.5-6.5,30.8-7.5,46.2c-1.6,27,14.9,52.2,16.2,79.3c0.1,1.2,0,2.5-0.4,3.6
		c-0.2,0.6-0.5,1.1-0.8,1.6c-0.8,1.7-0.8,3.6-0.9,5.5c-0.5,6.7-3.5,12.9-8.2,17.6c1.2,1.5,2.8,2.8,4.6,3.5c3.2,1.4,7,1.5,10.4,2.5
		c8.8,2.6,17.9,5.2,27.1,4.6c1.1-2.5,1.8-5.1,2.1-7.9c1.3-0.8,2.8,0.9,3,2.4s-0.1,3.3,1,4.4s2.5,0.9,3.8,0.8
		c5.6-0.7,11-2.6,16.5-3.9s11.4-1.9,16.7-0.1c1.1-1.4,0.6-3.4-0.3-4.9s-2.1-2.8-2.6-4.5c-0.3-1-0.4-2-0.3-3c0-8.5,1.8-17.2,0.1-25.6
		c-0.5-2.5-1.3-4.9-1.8-7.3c-1-4.8-0.8-9.7-0.7-14.6s-0.5-10.2-0.6-15.1c0-2-0.1-4.1-0.4-6.1c-0.3-2.1-1-4.2-1.2-6.4
		c-0.5-5.5,1.7-10.9,1.3-16.4C604.5,296.8,594.8,292.2,591.6,284.6z"/>
	<path id="svg--contact--woman_x5F__x5F_item_4_" class="st6" d="M525.6,280.7c-7.1,18.8-10.5,38.7-14,58.5l-8,46.5
		c-2.3,13.1-4.5,26.3-4.5,39.7c0,3.7,0.2,7.5-0.7,11.2c-1.3,4.7-4.5,8.7-6.9,13c-4.9,8.8-6.5,19-4.6,28.9c0.8,4.2,3.1,8.9,7.3,9.3
		c3.5,0.4,6.5-2.4,8.5-5.2c4.6-6.5,6.9-14.4,9-22.1c6.6-25.3,11.3-51.1,13.9-77.1c0.2-3.3,0.7-6.6,1.4-9.8c0.9-3.3,2-6.6,3.4-9.8
		c3.1-7.6,6.1-15.2,9.2-22.8c7.1-17.5,14.2-35.1,23.9-51.4c-9.6-2.8-19.6-6-29.2-8.7C531.5,280,528.5,280.5,525.6,280.7z"/>
	<path id="svg--contact--woman_x5F__x5F_item_3_" class="st7" d="M542.3,294.9c-6.7-1.5-13.7-1-20.5-1.2c-1,0.1-1.9-0.2-2.8-0.7
		c-1.4-1.2-0.8-3.4-0.1-5.1l3.3-8c0.5-1.7,1.5-3.2,2.7-4.4c1.7-1.5,4.1-1.9,6.3-2.1c7.3-0.8,14.8-1.1,21.9,0.9s13.7,6.5,16.9,13.1
		c1.3,2.8,1.9,6.2,0.2,8.8c-2.6,3.7-8.4,7.9-12.8,5.9C552.1,299.4,548.1,296.2,542.3,294.9z"/>
	<path id="svg--contact--woman_x5F__x5F_item_2_" class="st0" d="M578,160.2c-5.8-0.1-11.4,1.6-16.3,4.7c-9.4-8.9-22.8-12-35.1-8.2
		c-1.9-11.1-12.5-18.6-23.6-16.6s-18.6,12.5-16.6,23.6c1.5,8.5,8.1,15.2,16.7,16.6c-5.5,18.9,5.3,38.8,24.3,44.4
		c18.9,5.5,38.8-5.3,44.4-24.3c2.1,0.4,4.3,0.6,6.4,0.6c14.1,0,25.5-9.1,25.5-20.4S592.1,160.2,578,160.2z"/>
	<path id="svg--contact--woman_x5F__x5F_item_1_" class="st1" d="M583.1,190.9c-2.2,0-4.3-0.2-6.4-0.6c-1,3.7-2.6,7.1-4.7,10.3
		c2,0.4,4,0.6,6,0.6c13.2,0,24-8,25.4-18.2C598.7,187.7,591.3,190.9,583.1,190.9z"/>
	<path id="svg--contact--woman_x5F__x5F_item" class="st1" d="M542.2,216.4c-19.8,0-35.8-16.1-35.7-35.9c0-3.5,0.5-7,1.6-10.4
		c-9.8-1.7-16.9-10.2-16.9-20.1c0-1.2,0.1-2.5,0.3-3.7c-7.7,8.3-7.2,21.2,1.1,28.9c2.9,2.7,6.5,4.4,10.3,5.1
		c-5.9,18.8,4.5,38.9,23.3,44.9c18.8,5.9,38.9-4.5,44.9-23.3c0-0.1,0.1-0.2,0.1-0.4C564.5,210.9,553.7,216.4,542.2,216.4z"/>
</g>
<g id="svg--contact--phone">
	<path id="svg--contact--phone_x5F__x5F_item_9_" class="st8" d="M672.6,276.2L672.6,276.2c0.2,0.1,0.2,0.3,0.1,0.5l-2.8,4
		c-0.1,0.2-0.3,0.2-0.5,0.1l0,0c-0.2-0.1-0.2-0.3-0.1-0.5l2.8-4C672.2,276.1,672.4,276.1,672.6,276.2z"/>
	<path id="svg--contact--phone_x5F__x5F_item_8_" class="st8" d="M656.8,259.6L656.8,259.6c0.1,0.1,0.1,0.2,0,0.3l-0.8,1.2
		c-0.1,0.1-0.2,0.1-0.3,0l0,0c-0.1-0.1-0.1-0.2,0-0.3l0.8-1.2C656.6,259.6,656.7,259.6,656.8,259.6z"/>
	<path id="svg--contact--phone_x5F__x5F_item_7_" class="st8" d="M654.8,262.4L654.8,262.4c0.1,0.1,0.1,0.2,0,0.3l-1.6,2.2
		c-0.1,0.1-0.2,0.1-0.3,0l0,0c-0.1-0.1-0.1-0.2,0-0.3l1.6-2.2C654.6,262.3,654.7,262.3,654.8,262.4z"/>
	<path id="svg--contact--phone_x5F__x5F_item_6_" class="st8" d="M652.4,265.8L652.4,265.8c0.1,0.1,0.1,0.2,0,0.3l-1.6,2.3
		c-0.1,0.1-0.2,0.1-0.3,0l0,0c-0.1-0.1-0.1-0.2,0-0.3l1.6-2.3C652.1,265.8,652.3,265.8,652.4,265.8z"/>
	<path id="svg--contact--phone_x5F__x5F_item_5_" class="st8" d="M663.3,258.1l14.2,10.1c1.1,0.8,1.4,2.4,0.6,3.5l-23.6,33.1
		c-0.8,1.1-2.4,1.4-3.5,0.6l-14.2-10.1c-1.1-0.8-1.4-2.4-0.6-3.5l23.6-33.1C660.6,257.5,662.2,257.3,663.3,258.1z"/>
	<path id="svg--contact--phone_x5F__x5F_item_4_" class="st1" d="M663.3,258.1l14.2,10.1c1.1,0.8,1.4,2.4,0.6,3.5l-23.6,33.1
		c-0.8,1.1-2.4,1.4-3.5,0.6l-14.2-10.1c-1.1-0.8-1.4-2.4-0.6-3.5l23.6-33.1C660.6,257.5,662.2,257.3,663.3,258.1z"/>
	<path id="svg--contact--phone_x5F__x5F_item_3_" class="st8" d="M662.4,256.2l14.2,10.1c1.1,0.8,1.4,2.4,0.6,3.5l-23.6,33.1
		c-0.8,1.1-2.4,1.4-3.5,0.6l-14.2-10.1c-1.1-0.8-1.4-2.4-0.6-3.5l23.6-33.1C659.7,255.7,661.2,255.4,662.4,256.2z"/>
	<path id="svg--contact--phone_x5F__x5F_item_2_" class="st4" d="M675.3,266.9l-2.1-1.5l-0.2,0.2c-0.5,0.6-1.3,0.8-2,0.4l-6.7-4.8
		c-0.7-0.5-0.8-1.4-0.3-2l0.2-0.2l-2-1.4c-0.8-0.6-1.9-0.4-2.5,0.4c0,0,0,0,0,0l-23.1,32.3c-0.6,0.8-0.4,1.9,0.4,2.5l13.1,9.4
		c0.8,0.6,1.9,0.4,2.5-0.4c0,0,0,0,0,0l23.1-32.3C676.3,268.6,676.1,267.5,675.3,266.9C675.3,266.9,675.3,266.9,675.3,266.9
		L675.3,266.9z"/>
	<path id="svg--contact--phone_x5F__x5F_item_1_" class="st9" d="M667.2,261.3l2,1.5c0.1,0.1,0.2,0.3,0.1,0.4l0,0
		c-0.1,0.1-0.3,0.2-0.4,0.1l-2-1.5c-0.1-0.1-0.2-0.3-0.1-0.4l0,0C666.8,261.2,667,261.2,667.2,261.3z"/>
	<circle id="svg--contact--phone_x5F__x5F_item" class="st9" cx="669.9" cy="263.7" r="0.4"/>
</g>
<g id="svg--contact--marker">
	<path id="svg--contact--marker_x5F__x5F_item_2_" class="st4" d="M670,13.9c-37,0-67,30-67,67c0,37,70.2,159.5,70.2,159.5
		S737,118,737,80.9C737,43.9,707,13.9,670,13.9z"/>
	<path id="svg--contact--marker_x5F__x5F_item_1_" class="st1" d="M670,13.9c-37,0-67,30-67,67c0,37,70.2,159.5,70.2,159.5
		S737,118,737,80.9C737,43.9,707,13.9,670,13.9z"/>
	<path id="svg--contact--marker_x5F__x5F_item" class="st4" d="M670,0c-37,0-67,30-67,67c0,0,0,0,0,0c0,37,70.2,173.5,70.2,173.5
		S737,104,737,67C737,30,707,0,670,0C670,0,670,0,670,0L670,0z M670,111.7c-19.4,0-35.1-15.7-35.1-35.1s15.7-35.1,35.1-35.1
		s35.1,15.7,35.1,35.1v0C705.1,96,689.4,111.7,670,111.7z"/>
</g>
</svg>
