<?xml version="1.0" encoding="utf-8"?>
<!-- Generator: Adobe Illustrator 23.0.6, SVG Export Plug-In . SVG Version: 6.00 Build 0)  -->
<svg version="1.1" id="svg--gadgets" xmlns="http://www.w3.org/2000/svg" xmlns:xlink="http://www.w3.org/1999/xlink" x="0px"
	 y="0px" viewBox="0 0 852.9 632.2" style="enable-background:new 0 0 852.9 632.2;" xml:space="preserve">
<style type="text/css">
	.st0{fill:#F2F2F2;}
	.st1{fill:#3F3D56;}
	.st2{fill:none;stroke:#3F3D56;stroke-width:4;stroke-miterlimit:10;}
	.st3{fill:#57B793;}
	.st4{opacity:0.1;enable-background:new    ;}
	.st5{fill:#656380;}
	.st6{opacity:0.2;enable-background:new    ;}
	.st7{fill:#EB7A6D;}
	.st8{opacity:5.000000e-02;enable-background:new    ;}
	.st9{fill:#FFC0C6;}
	.st10{fill:#605D82;}
	.st11{fill:#535070;}
</style>
<path id="svg--gadgets_x5F__x5F_plant--bg" class="st0" d="M611.8,381.8l6.5-4c0.6-0.4,1.2-0.8,1.9-1.2c-28.9-5-50.4-29.3-51.7-58.6
	c-0.5-9.8,1.4-19.5,5.4-28.4c7.6-16.9,22.2-29.5,40-34.5l-0.3,25.7l14.1-28c0.1,0,0.1,0,0.2,0c34.4-1.6,63.6,25,65.2,59.4
	c0,0,0,0,0,0c0.1,1.2,0,2.4,0,3.5c4.9-5.6,9.4-11.6,12.3-18.2c6-13.3,6.1-28.4,5.6-46.8c-0.9-36.4-2.5-73-4.6-109.5
	c-30.4-3.4-53.9-28.4-55.4-59c-0.1-1.9-0.1-3.8,0-5.7c0-0.5,0-0.9,0.1-1.4c0.1-1.8,0.3-3.6,0.6-5.4c0-0.3,0.1-0.6,0.2-0.9
	c0.3-1.5,0.6-3,0.9-4.4c0.1-0.5,0.3-1.1,0.4-1.6c0.4-1.6,0.9-3.2,1.5-4.7c0.2-0.5,0.4-1,0.6-1.5c0.4-1.1,0.9-2.3,1.4-3.4
	c0.3-0.6,0.5-1.2,0.8-1.8c0.1-0.1,0.1-0.3,0.2-0.4l0,0c13.6-26.8,44.4-40.1,73.2-31.6l-0.4,33.4l14-27.6
	c23.5,13.5,35.6,40.7,29.7,67.2h0.1c-0.1,0.4-0.2,0.9-0.3,1.3c-0.2,0.8-0.4,1.6-0.6,2.4c-0.3,1-0.6,2.1-1,3.1
	c-0.3,0.8-0.5,1.5-0.8,2.3c-0.4,1.1-0.9,2.2-1.4,3.3c-0.3,0.6-0.5,1.3-0.9,1.9c-0.8,1.6-1.7,3.2-2.6,4.7c-0.3,0.5-0.7,1-1,1.6
	c-0.7,1-1.3,2.1-2.1,3.1c-0.4,0.6-0.9,1.2-1.4,1.8c-0.7,0.9-1.4,1.8-2.1,2.5c-0.5,0.6-1,1.2-1.6,1.8c-0.8,0.8-1.5,1.6-2.4,2.4
	c-0.5,0.5-1.1,1-1.6,1.5c-0.9,0.8-1.9,1.6-2.8,2.4c-0.5,0.4-1,0.8-1.5,1.2c-1.5,1.1-3,2.1-4.6,3.1c-0.3,0.2-0.6,0.3-0.9,0.5
	c-1.3,0.8-2.6,1.5-4,2.2c-0.6,0.3-1.2,0.5-1.8,0.8c-1.1,0.5-2.3,1-3.4,1.4c-0.7,0.3-1.4,0.5-2.1,0.7c-1.1,0.4-2.3,0.8-3.5,1.1
	c-0.7,0.2-1.4,0.4-2.1,0.6c-1.3,0.3-2.6,0.6-3.9,0.8c-0.1,0-0.2,0-0.3,0.1c0.9,15.4,1.6,30.8,2.3,46.2
	c15.1-30.9,52.4-43.8,83.3-28.7c1.1,0.5,2.2,1.1,3.2,1.7l-11,30.2l22.7-21.8c12.1,11.1,19.4,26.6,20.1,43.1
	c0.3,5.8-0.2,11.6-1.6,17.2c-7.8,33.5-41.4,54.3-74.9,46.5c-16.8-3.9-31.1-14.6-39.8-29.5c0,1.6,0.1,3.1,0.2,4.7
	c0.4,16.2,0.9,36.3-7.1,54.3c-5.5,12.2-14.3,22.1-23,31c-5.7,5.8-11.5,11.4-17.5,16.8c-5.9,7.9-13.6,14.4-22.5,18.7
	c-9.9,7.6-20.1,14.7-30.7,21.4l-6.4,4.1c-5.9,3.7-12,7.5-18,11.4c1-0.1,2.1-0.2,3.2-0.3c27.1-1.3,51.9,15.1,61.4,40.6l-39,31.7
	l42.8-9.9c0,34.5-28,62.4-62.5,62.3c-9.3,0-18.5-2.1-27-6.2c1,1.2,1.9,2.4,2.9,3.6c1.9,2.4,3.8,4.8,5.7,7.1
	c25.3,32.1,32.4,62.6,19.8,85.8l-15.3-8.3c12.2-22.6-6.1-51.6-18.2-66.8c-1.8-2.3-3.7-4.6-5.6-7c-16.2-20.1-34.6-42.9-34.1-70.9
	C537.9,427.6,578.9,402.2,611.8,381.8z"/>
<ellipse id="svg--gadgets_x5F__x5F_floor" class="st1" cx="409.2" cy="613.4" rx="409.2" ry="18.9"/>
<g id="svg--gadgets_x5F__x5F_plant--two">
	<path id="Path_552" class="st2" d="M739.8,606.3c3.7-4.2,2.1-10.8-0.3-15.9c-2.4-5.1-5.6-10.5-4.2-16c1.9-7.9,11.3-10.6,19-13.3
		c5.7-2,11.1-4.6,16.1-7.9c2.1-1.2,3.9-2.8,5.5-4.7c2.1-2.8,2.8-6.3,3.5-9.7c2.3-11.3,4.3-22.7,6-34.1"/>
	<path id="Path_553" class="st3" d="M798.2,507.2c0.8-4.2-0.7-8.5-3.8-11.5l-4,4.8l1.6-6.6c-6.1-3.4-13.8-1.3-17.2,4.8
		c-3.4,6.1-1.3,13.8,4.8,17.2c6.1,3.4,13.8,1.3,17.2-4.8C797.4,509.9,797.9,508.6,798.2,507.2L798.2,507.2z"/>
	<path id="Path_554" class="st3" d="M757.4,585.5c-4.5,5.3-12.4,6-17.7,1.5c-5.3-4.5-6-12.4-1.5-17.7c4.5-5.3,12.4-6,17.7-1.5
		c2.4,2,4,4.9,4.4,8l-9.1,4.5l8.9,0C759.6,582.1,758.6,583.9,757.4,585.5z"/>
	<path id="Path_555" class="st3" d="M756.7,560.2c-6.8-1.2-11.4-7.7-10.2-14.6c0,0,0,0,0-0.1c0.3-1.9,1.1-3.8,2.3-5.4
		c2.2-3,5.7-4.8,9.4-5l-1.2,5.1l4-4.9l0,0c6.8,1.3,11.4,7.9,10.1,14.7C770,556.8,763.5,561.3,756.7,560.2L756.7,560.2z"/>
	<path id="Path_556" class="st3" d="M791.1,547.1c-6.8-1.2-11.4-7.8-10.2-14.6c1.2-6.8,7.8-11.4,14.6-10.2c2.3,0.4,4.5,1.5,6.2,3.1
		l-3.5,5.5l5.4-3.3c1.9,2.7,2.6,6.1,2,9.4c-0.2,1.1-0.6,2.3-1.1,3.3C802.2,545.3,796.6,548.1,791.1,547.1L791.1,547.1z"/>
	<path id="Path_557" class="st4" d="M795.8,510.1c-2.9-0.3-5.9-0.1-8.8-0.5c-2.9-0.5-5.9-1.9-7.2-4.5c-0.5-1.5-1-3-1.4-4.5
		c-0.5-1.4-1.3-2.6-2.4-3.6c-4.3,5.4-3.4,13.4,2,17.7c5.4,4.3,13.4,3.4,17.7-2c0.5-0.7,1-1.4,1.4-2.2
		C796.7,510.2,796.3,510.1,795.8,510.1z"/>
	<path id="Path_558" class="st4" d="M791.1,547.1c-6.8-1.2-11.4-7.7-10.2-14.6c0.4-2.1,1.2-4,2.5-5.6c0.8,0.9,1.5,1.9,1.9,3
		c0.4,1.6,0.9,3.1,1.5,4.6c1.4,2.7,4.5,4.2,7.5,4.7c3,0.5,6,0.3,9,0.7c0.4,0.1,0.8,0.1,1.3,0.2C802.1,545.2,796.6,548,791.1,547.1
		L791.1,547.1z"/>
	<path id="Path_559" class="st4" d="M756.7,560.2c-6.8-1.2-11.4-7.7-10.2-14.6c0,0,0,0,0,0c0.3-1.9,1.1-3.8,2.3-5.4
		c0.9,0.9,1.6,1.9,2.1,3.1c0.6,1.6,0.9,3.3,1.7,4.7c1.6,2.8,4.8,4.4,8,5c3.2,0.6,6.2,0.5,9.2,1C767.2,558.7,762,561.1,756.7,560.2
		L756.7,560.2z"/>
	<path id="Path_560" class="st4" d="M757.4,585.5c-4.2,5.6-12.1,6.7-17.6,2.5c-5.6-4.2-6.7-12.1-2.5-17.6c0.9,0.9,1.6,1.9,2.2,3
		c0.8,1.7,1.2,3.5,2.3,5.1c2,3,5.8,5,9.4,5.9C753.1,584.8,755.2,585.2,757.4,585.5L757.4,585.5z"/>
</g>
<g id="svg--gadgets_1_">
	<path id="Path_561" class="st5" d="M720.8,600.6c0,0,9.9-0.3,12.9-2.4s15.3-4.7,16.1-1.3s15,17.1,3.7,17.1s-26.1-1.8-29.1-3.6
		S720.8,600.6,720.8,600.6z"/>
	<path id="Path_562" class="st6" d="M753.7,612.9c-11.2,0.1-26.1-1.8-29.1-3.6c-2.3-1.4-3.2-6.4-3.5-8.7h-0.3c0,0,0.6,8,3.6,9.9
		s17.9,3.7,29.1,3.6c3.2,0,4.4-1.2,4.3-2.9C757.4,612.2,756.1,612.8,753.7,612.9z"/>
</g>
<g id="svg--gadgets_x5F__x5F_plant--one">
	<path id="Path_563" class="st2" d="M174.7,578.6c-6.5-12.1,0.9-26.9,9.4-37.6s18.9-22,18.6-35.7c-0.3-19.7-21.2-31.3-37.9-41.8
		c-12.4-7.8-23.8-16.9-34.1-27.4c-4.1-4.2-8.1-8.7-10.5-14c-3.4-7.7-3.4-16.5-3.1-24.9c0.7-28.1,2.1-56.2,4.2-84.3"/>
	<path id="Path_564" class="st3" d="M89.4,311.4c0.5-10.5,6.3-19.9,15.3-25.2l6.9,13.6l-0.2-16.5c16.3-4.8,33.4,4.5,38.2,20.8
		c4.8,16.3-4.5,33.4-20.8,38.2c-16.3,4.8-33.4-4.5-38.2-20.8C89.7,318.3,89.3,314.8,89.4,311.4L89.4,311.4z"/>
	<path id="Path_565" class="st3" d="M144.3,519.4c7.8,15.1,26.3,21,41.4,13.3c9.8-5,16.1-14.9,16.7-25.9c0.2-4.3-0.5-8.5-2-12.5
		c-6.1-15.8-23.9-23.7-39.7-17.6c-8.2,3.2-14.7,9.7-17.8,18l19.2,15.6l-21.1-4.9C140.9,510.3,142,515.1,144.3,519.4z"/>
	<path id="Path_566" class="st3" d="M159.4,459.7c17,0.8,31.3-12.3,32.1-29.3c0.7-14.3-8.6-27.1-22.4-31l0.2,12.7l-6.9-13.8h-0.1
		c-17-0.7-31.3,12.4-32.1,29.4C129.5,444.6,142.6,458.9,159.4,459.7L159.4,459.7z"/>
	<path id="Path_567" class="st3" d="M84.8,410.1c17,0.8,31.4-12.3,32.2-29.2c0.8-17-12.3-31.4-29.2-32.2c-5.8-0.3-11.5,1.1-16.6,3.9
		l5.4,14.9l-11.1-10.8c-6,5.5-9.6,13.1-10,21.2c-0.1,2.8,0.1,5.7,0.8,8.5C59.4,399.8,71.1,409.5,84.8,410.1z"/>
	<path id="Path_568" class="st4" d="M93.6,319.6c7.1,0.8,14,3,21.1,3.4c7.1,0.4,14.9-1.3,19.4-6.8c2.4-3,3.6-6.8,5.7-10
		c1.9-3,4.6-5.5,7.7-7.3c7.6,15.2,1.5,33.7-13.7,41.3c-15.2,7.6-33.7,1.5-41.3-13.7c-1.1-2.3-2-4.7-2.5-7.2
		C91.3,319.4,92.4,319.4,93.6,319.6z"/>
	<path id="Path_569" class="st4" d="M84.8,410.1c17,0.8,31.4-12.3,32.1-29.3c0.2-5-0.8-10-2.9-14.5c-2.4,1.6-4.5,3.7-6.2,6.2
		c-2.2,3.3-3.5,7.1-6.1,10.2c-4.8,5.6-13,7.5-20.4,7.1s-14.6-2.5-22-3.1c-1-0.1-2.1-0.2-3.1-0.2C59.5,399.8,71.1,409.4,84.8,410.1
		L84.8,410.1z"/>
	<path id="Path_570" class="st4" d="M159.4,459.7c17,0.8,31.3-12.3,32.1-29.3c0.2-4.8-0.7-9.6-2.7-14c-2.5,1.7-4.7,3.8-6.5,6.3
		c-2.4,3.4-3.9,7.3-6.7,10.4c-5.2,5.8-13.9,7.8-21.8,7.6c-7.6-0.2-14.9-2-22.5-2.6C135.3,450.5,146.5,459.1,159.4,459.7L159.4,459.7
		z"/>
	<path id="Path_571" class="st4" d="M144.3,519.4c7.7,15.1,26.3,21.1,41.4,13.3c9.8-5,16.1-14.9,16.7-25.9c0.2-4.3-0.5-8.5-2-12.5
		c-2.5,1.7-4.8,3.7-6.7,6c-2.9,3.6-4.9,7.6-8.2,10.9c-6.3,6.2-16.4,8.7-25.5,9C154.6,520.3,149.4,520,144.3,519.4L144.3,519.4z"/>
</g>
<g id="svg--gadgets_x5F__x5F_box--eight">
	<path id="Path_572" class="st7" d="M387.4,596.6l-118.6,24.3l-2.7-0.3l-104.2-10.5V478l127.6-21.6l92.5,10.8l0,0.6l0,0.3
		L387.4,596.6z"/>
	<path id="Path_573" class="st4" d="M387.4,596.6l-118.6,24.3l-2.7-0.3V485.2L382,467.8L387.4,596.6z"/>
	<path id="Path_574" class="st8" d="M382.1,468.1L382.1,468.1l-115.9,17.1L161.9,478l127.6-21.6l92.5,10.8l0,0.6L382.1,468.1z"/>
</g>
<g id="svg--gadgets_x5F__x5F_box--nine">
	<path id="Path_575" class="st1" d="M517.7,602l-118.6,24.3l-2.7-0.3l-104.2-10.5V483.4l127.6-21.6l92.5,10.8l0,0.6l0,0.3L517.7,602
		z"/>
	<path id="Path_576" class="st4" d="M517.7,602l-118.6,24.3l-2.7-0.3V490.6l115.9-17.4L517.7,602z"/>
	<path id="Path_577" class="st8" d="M512.3,473.5L512.3,473.5l-115.9,17.1l-104.2-7.2l127.6-21.6l92.5,10.8l0,0.6L512.3,473.5z"/>
</g>
<g id="svg--gadgets_x5F__x5F_box--six">
	<path id="Path_578" class="st1" d="M435.9,472.6l-118.6,24.3l-2.7-0.3l-104.2-10.5V354L338,332.4l92.5,10.8l0,0.6l0,0.3
		L435.9,472.6z"/>
	<path id="Path_579" class="st4" d="M435.9,472.6l-118.6,24.3l-2.7-0.3V361.2l115.9-17.4L435.9,472.6z"/>
	<path id="Path_580" class="st8" d="M430.6,344.1L430.6,344.1l-115.9,17.1L210.4,354L338,332.4l92.5,10.8l0,0.6L430.6,344.1z"/>
</g>
<g id="svg--gadgets_x5F__x5F_box--seven">
	<path id="Path_581" class="st1" d="M503.3,478.1l-61.9,12.7l-1.4-0.1l-54.4-5.5v-68.9l66.6-11.3l48.3,5.6l0,0.3v0.1L503.3,478.1z"
		/>
	<path id="Path_582" class="st4" d="M503.3,478.1l-61.9,12.7l-1.4-0.1V420l60.5-9.1L503.3,478.1z"/>
	<path id="Path_583" class="st8" d="M500.5,411.1L500.5,411.1L440,420l-54.4-3.8l66.6-11.3l48.3,5.6l0,0.3L500.5,411.1z"/>
</g>
<g id="svg--gadgets_x5F__x5F_box--four">
	<path id="Path_584" class="st1" d="M337.1,344.3l-61.9,12.7l-1.4-0.1l-54.4-5.5v-68.9l66.6-11.3l48.3,5.6l0,0.3v0.1L337.1,344.3z"
		/>
	<path id="Path_585" class="st4" d="M337.1,344.3l-61.9,12.7l-1.4-0.1v-70.7l60.5-9.1L337.1,344.3z"/>
	<path id="Path_586" class="st8" d="M334.3,277.2L334.3,277.2l-60.5,8.9l-54.4-3.8l66.6-11.3l48.3,5.6l0,0.3L334.3,277.2z"/>
</g>
<g id="svg--gadgets_x5F__x5F_box--five">
	<path id="Path_587" class="st7" d="M445.8,341.6l-61.9,12.7l-1.4-0.1l-54.4-5.5v-68.9l66.6-11.3l48.3,5.6l0,0.3v0.1L445.8,341.6z"
		/>
	<path id="Path_588" class="st4" d="M445.8,341.6l-61.9,12.7l-1.4-0.1v-70.7l60.5-9.1L445.8,341.6z"/>
	<path id="Path_589" class="st8" d="M443,274.5L443,274.5l-60.5,8.9l-54.4-3.8l66.6-11.3l48.3,5.6l0,0.3L443,274.5z"/>
</g>
<g id="svg--gadgets_x5F__x5F_box--three">
	<path id="Path_590" class="st1" d="M478.1,272.4l-61.9,12.7l-1.4-0.1l-54.4-5.5v-68.9l66.6-11.3l48.3,5.6l0,0.3v0.1L478.1,272.4z"
		/>
	<path id="Path_591" class="st4" d="M478.1,272.4l-61.9,12.7l-1.4-0.1v-70.7l60.5-9.1L478.1,272.4z"/>
	<path id="Path_592" class="st8" d="M475.4,205.3L475.4,205.3l-60.5,8.9l-54.4-3.8l66.6-11.3l48.3,5.6l0,0.3L475.4,205.3z"/>
</g>
<g id="svg--gadgets_x5F__x5F_man">
	<path id="Path_593" class="st9" d="M520.3,131.5c-0.7,5.8-5.1,10.5-6.8,16.2c-2.5,8.5,1.8,17.6,7.7,24.3
		c9.6,10.7,23.1,17.1,37.4,17.7c2.1,0.2,4.2,0,6.2-0.7c1.8-0.7,3.4-1.8,4.7-3.2c4.4-4.4,6.8-10.6,7.7-16.8s0.6-12.5,0.2-18.8
		c0-1.3-0.2-2.6-0.7-3.8c-0.6-1.2-1.4-2.2-2.4-3c-3.2-2.9-6.7-5.5-10.5-7.6c-1.6-0.9-3.4-1.8-4.4-3.4c-0.7-1.2-1.2-2.6-1.4-4
		l-1.2-5.9c-0.2-1.7-0.8-3.3-1.7-4.8c-2-2.7-5.9-3.1-9.4-3.3l-12.6-0.5c-3.9-0.2-9-1.3-12.9-0.5c-3.6,0.7-2.4,4-1.7,7
		C519.6,124.1,520.2,127.8,520.3,131.5z"/>
	<path id="Path_594" class="st4" d="M520.3,131.5c-0.7,5.8-5.1,10.5-6.8,16.2c-2.5,8.5,1.8,17.6,7.7,24.3
		c9.6,10.7,23.1,17.1,37.4,17.7c2.1,0.2,4.2,0,6.2-0.7c1.8-0.7,3.4-1.8,4.7-3.2c4.4-4.4,6.8-10.6,7.7-16.8s0.6-12.5,0.2-18.8
		c0-1.3-0.2-2.6-0.7-3.8c-0.6-1.2-1.4-2.2-2.4-3c-3.2-2.9-6.7-5.5-10.5-7.6c-1.6-0.9-3.4-1.8-4.4-3.4c-0.7-1.2-1.2-2.6-1.4-4
		l-1.2-5.9c-0.2-1.7-0.8-3.3-1.7-4.8c-2-2.7-5.9-3.1-9.4-3.3l-12.6-0.5c-3.9-0.2-9-1.3-12.9-0.5c-3.6,0.7-2.4,4-1.7,7
		C519.6,124.1,520.2,127.8,520.3,131.5z"/>
	<path id="Path_595" class="st10" d="M600.2,394.5l-5.3,58.5c-1.4,15.3-2.8,30.8-5.5,45.9c-0.9,5.2-2,10.4-3.4,15.6
		c-3.6,14.3-8.9,28.3-10.6,42.9c-0.1,0.4-0.1,0.9-0.1,1.3c-0.2,3.2-0.8,6.4-1.8,9.5c-0.9,2.2-2.2,4.3-3.1,6.5
		c-1.8,4.4-2.1,9.3-2.3,14.1c-6.5-3.7-13.6-6.1-20.9-7.2c-3.6-0.5-7.5-0.9-9.9-3.6c-2.7-2.9-2.4-7.4-1.9-11.3
		c1.4-12.2,2.8-24.4,4.2-36.6c0.5-5.3,1.4-10.5,2.7-15.6c0.5-1.7,1.1-3.4,1.7-5c0.8-2.3,1.6-4.6,2.3-7c0.9-3.8,1.5-7.6,1.8-11.5
		c1.4-12.3,3.2-24.6,4.7-36.8l0.1-0.6c2.3-18.6,4-37.3,3.5-56.1c-0.1-2.8-0.2-5.6-0.4-8.3c-0.3-4-0.6-6.2,2.7-8.7
		c3.7-2.8,8.6-4.7,12.8-6.6c2.3-1,27.3-9.9,27.8-7.9c1.2,4.2,1.8,8.5,1.8,12.8C601,383.9,600.7,389.2,600.2,394.5L600.2,394.5z"/>
	<path id="Path_596" class="st4" d="M589.3,498.9c-0.9,5.2-2,10.4-3.4,15.6c-3.6,14.3-8.9,28.3-10.6,42.9c-0.1,0.4-0.1,0.9-0.1,1.3
		c-11.2-15.9-20.6-33.1-31.4-49.2c0.8-2.3,1.6-4.6,2.3-7c0.9-3.8,1.5-7.7,1.9-11.6c1.4-12.3,3.2-24.6,4.7-36.8l0.1-0.6
		c0.6,2.6,1.5,5.1,2.7,7.6c7.3,14.9,24.7,22.4,33.2,36.6C588.8,498,589.1,498.5,589.3,498.9z"/>
	<path id="Path_597" class="st10" d="M498.8,368.3c0.4,11.9,2.3,23.7,4.2,35.5l3.9,24.3c2.1,13.3,4.4,26.9,10.7,38.8
		c4.7,8.9,11.5,16.5,17.6,24.5c15.1,19.6,26.4,41.9,40.7,62.1c4.2,5.9,10.1,12.2,17.2,11c4.7-0.8,8-4.7,11.7-7.7
		c4.3-3.5,9.5-6.1,12.9-10.5s4.1-11.8-0.5-14.9c-1.6-1.1-3.5-1.5-5.3-2.2c-7.1-2.7-11.7-9.7-14.7-16.7s-4.7-14.6-8.6-21.1
		c-8.5-14.2-25.9-21.7-33.2-36.6c-4.1-8.3-4.5-18-4.8-27.2l-0.8-23.6c-0.1-2.6-0.2-5.3,0.9-7.6c2.8-6.3,11.2-6.9,18.1-7.7
		c7.8-0.9,15.3-3.3,22.2-7c3.9-2.1,7.8-4.8,9.9-8.8c1.9-3.6,2.2-7.8,2.4-11.9l2.4-42.8c0.2-3.7,0.4-7.5-0.9-11
		c-3.3-8.7-14.2-11.5-23.5-11.1c-17.2,0.8-33.1,8.2-49.4,13.2c-4,1.3-8.1,2.3-12.2,3.2c-3.6,0.7-8.1,0.4-11.5,1.6
		c-6.2,2.1-6,15.6-6.9,21.2C499.3,346.1,498.5,357.2,498.8,368.3z"/>
	<path id="Path_598" class="st11" d="M590.7,566.2c1.5,1.5,2,3.8,2.4,5.9c2.2,11.8,3.3,23.7,3.4,35.7c-0.1,1.1,0.1,2.2,0.6,3.2
		c0.4,0.6,1,1.1,1.7,1.3c4.4,2.1,9.5-0.8,13.2-4c6.8-5.9,12.5-13.9,12.9-22.9c-0.1-2.3,0-4.6,0.2-7c0.6-3.4,2.6-6.4,4.3-9.3
		c3-5.1,5.4-10.4,7.2-16c0.7-2.1,1.1-4.7-0.5-6.2c-0.6-0.5-1.2-0.8-2-1l-19.9-7.4c-1.7-0.6-6,10.3-6.7,11.6
		c-1.7,2.9-3.3,4.6-6.6,5.3s-7.4-0.3-10.6,1.4C585,559.6,587.7,563.1,590.7,566.2z"/>
	<path id="Path_599" class="st11" d="M560.1,573c-0.4-0.7-0.9-1.4-1.5-1.9c-0.9-0.6-2-0.9-3-1c-3.8-0.6-8.2-1.1-10.9,1.7
		c-2.4,2.6-2,6.9-4.1,9.9c-0.7,0.9-1.4,1.8-2.1,2.7c-0.7,1.5-1,3.2-0.9,4.8c-0.1,4.6-0.2,9.2,0.1,13.7c0.3,3.8,0.9,7.8,3.3,10.8
		c3.8,4.8,10.8,5.5,16.9,5.8l5,0.3c1.4,0.2,2.8,0,4.1-0.4c1.7-0.8,2.9-2.2,3.5-3.9c2.6-6.5-1.5-13.4-4-19.9
		C563.6,588.3,564.1,580,560.1,573z"/>
	<path id="Path_600" class="st1" d="M518.9,98.6c-0.1-0.7,0-1.3,0.3-1.9c0.7-1.3,2.6-0.9,4.1-0.6c5.8,1.5,11.9,0.1,17.8,0.5
		c6,0.3,12.7,3.3,13.9,9.2c4.3-3.1,8-6.9,11-11.3c1.7-2.5,3.1-5.3,2.9-8.3c-0.3-4.3-3.9-7.5-7.2-10.2l-9.9-8.1
		c-1.3-1.2-2.8-2.1-4.4-2.8c-2.3-0.8-4.8-0.4-7.2-0.4c-7.2,0-14.9-3.3-21.3,0c-2.7,1.4-4.7,3.7-6.6,6l-8.8,10.5
		c-0.7,0.7-1.2,1.5-1.4,2.4c-0.3,1.3,0.4,2.5,0.6,3.8c0.4,2.3-0.6,4.8,0.2,7.1c1.3,3.7,5.8,4.2,8.6,6.4c1,0.8,2.6,3.5,3.9,3.5
		C517.3,104.2,518.8,100.3,518.9,98.6z"/>
	<circle id="Ellipse_147" class="st9" cx="533.8" cy="101.1" r="28.3"/>
	<path id="Path_601" class="st1" d="M540.5,163c-2-5.6-7.3-9.3-13.3-9.2c-0.8,0.2-1.7,0-2.5-0.3c-0.4-0.3-0.8-0.8-1-1.3
		c-1.7-3.1-3.1-6.4-4.1-9.8c-0.4-1.5-1.1-3.3-2.6-3.7c-1.3-0.2-2.5,0.4-3.3,1.4c-0.7,1-1.5,2-2.4,3c-3.6,3.2-9.9,0.3-13.6,3.2
		c-0.6,0.5-1.1,1.1-1.8,1.5c-0.6,0.4-1.3,0.7-2.1,0.9c-7.3,2.4-14.5,5.2-21.4,8.4c2.5,15.1,5.1,30.5,11,44.7
		c2.8,6.7,6,13.3,8.2,20.3c5,15.4,5.2,31.9,5.3,48c0,11.1,0,22.4-3.6,32.8c-1,2.3-1.6,4.7-2,7.2c-0.2,2.5,0.5,5.2,2.5,6.7
		c1.2,0.8,2.5,1.2,3.9,1.4c6.2,0.9,12.5-0.7,18.6-2.2c16.4-3.8,33.1-6,49.8-8.1l27.9-3.6c2-0.1,4-0.6,5.8-1.5
		c5.1-2.8,5.6-10.5,2.4-15.4c-1.5-2.3-3.7-4.3-5-6.7s-1.4-6,0.8-7.7c4.5-3.5,3.1-10,3.4-15.7c0.6-15.9,0.5-31.8-0.2-47.6
		c-0.2-3.3-0.3-6.6-0.2-9.9c0.3-5.6,1.7-11.1,3.1-16.5l8.5-33.4c-2.2-3.5-6.5-5.7-10.5-6.7s-8.2-1.3-12.2-2.5
		c-8.1-2.5-15.3-8.9-23.8-8.3c-0.6,0-1.3,0.2-1.9,0.4c-1.9,1.1-1.6,3.8-1.7,6c-0.3,4.9-3.8,8.9-7.8,11.8s-8.4,4.9-12.1,8.2
		C541.3,160,540.6,161.5,540.5,163L540.5,163z"/>
	<path id="Path_602" class="st9" d="M428.3,194.7c-1.9,1.2-3.9,2.2-5.9,3.1c-2,0.8-4.1,1.4-5.7,2.8c-0.8,0.7-1.5,1.5-2,2.5
		c-3,5.2-1.1,11.9,4.2,14.8c1.8,1,3.8,1.5,5.9,1.4c2.6-0.3,5.1-1,7.4-2.2l20-8.7c3.4-1.5,7-3.2,8.6-6.5c0.2-0.3,0.3-0.7,0.2-1
		c-0.2-0.4-0.4-0.7-0.8-0.9c-4.5-2.9-8.4-6.6-11.6-11c-0.8-1.1-1.8-3.7-3-4.4C441.3,182.2,431.7,192.6,428.3,194.7z"/>
	<path id="Path_603" class="st9" d="M641.7,187.7l7.4,8.4c1.6,1.8,3.2,3.6,4.6,5.5c3.5,4.9,6.4,10.2,8.4,15.9
		c1.6,4.2,2.9,8.7,2.4,13.1c-0.4,2.3-1,4.5-1.8,6.7c-1.3,4.1-3,8.2-5,12c-1.7,2.9-3.5,5.8-5.6,8.4c-5.7,7.6-11.9,14.7-18.7,21.3
		c-2.5,2.5-3.6,6.5-4.7,9.9c-2,6.2-6.8,11-11.5,15.6c-1.5,1.6-3.1,3-4.9,4.2c-2.7,1.7-5.8,2.6-9,2.6c-1.4,0-2.8-0.3-4-0.8
		c-3.2-1.5-4.8-5.2-5.1-8.7c-0.3-3.2,0.2-6.4,1.5-9.3c4.2-9.4,15.1-13.4,22.7-20.2c4.5-4,7.9-9,11.3-14c2.3-3.1,4.2-6.5,5.7-10
		c1.7-4.6,1-10,2.5-14.6c0.6-2,1.8-3.7,2.4-5.7s0.9-4.3-0.3-5.9c-0.9-1.1-2-1.9-3.3-2.4c-4.9-2.5-10.4-5.7-11.3-11.1
		c-0.4-3,0.4-6,2.2-8.5c1.8-2.4,3.8-4.6,6.2-6.5C636,191.7,639.6,189.5,641.7,187.7z"/>
	<path id="Path_604" class="st9" d="M423.6,206.5c-1.3-2.6-2.9-5.3-5.5-6.6c-2.6-1.1-5.5-1.1-8.1,0c-2.5,1.1-4.9,2.5-7.1,4.3
		l-6.3,4.7c-1.4,0.9-2.7,2.1-3.8,3.5c-1,1.6-1.7,3.5-2,5.4c-0.9,4.4-1.6,8.9-1,13.3c1,7.2,5.3,13.4,10.1,18.9c3,3.4,6.6,6.8,11.1,7
		c2,0.1,4.1-0.7,4.9-2.5c0.3-0.7,0.4-1.5,0.4-2.2c0.5-8-2.4-15.8-5.7-23c-0.9-2-1.9-4-1.8-6.2c0-0.4,0.1-0.7,0.3-1
		c0.3-0.3,0.7-0.5,1.1-0.5c4.6-0.9,12.4,2.6,15.6-2.4C427.9,215.6,425.1,209.4,423.6,206.5z"/>
	<path id="Path_605" class="st1" d="M517.4,89.7c-0.1-0.7,0-1.3,0.3-1.9c0.7-1.3,2.6-0.9,4.1-0.6c5.8,1.5,11.9,0.1,17.8,0.5
		s12.6,3.3,13.9,9.2c4.3-3.1,8-6.9,11-11.3c1.7-2.5,3.1-5.3,2.9-8.3c-0.3-4.3-3.9-7.5-7.2-10.2l-9.9-8.1c-1.3-1.2-2.8-2.1-4.4-2.8
		c-2.3-0.8-4.8-0.4-7.2-0.4c-7.2,0-14.9-3.3-21.3,0c-2.7,1.4-4.7,3.7-6.6,6l-8.8,10.5c-0.7,0.7-1.1,1.5-1.4,2.4
		c-0.3,1.3,0.4,2.5,0.6,3.8c0.4,2.3-0.6,4.8,0.2,7.1c1.3,3.7,5.8,4.3,8.6,6.4c1,0.8,2.6,3.5,3.9,3.5
		C515.8,95.3,517.3,91.4,517.4,89.7z"/>
	<path id="Path_606" class="st1" d="M457.3,167.2c-1.1,0.7-2.1,1.7-3,2.8c-1,1.6-1.2,3.6-2.1,5.2c-1.9,3.5-6.4,4.8-9.1,7.7
		c-0.5,0.4-0.8,0.9-0.9,1.5c0,0.8,0.2,1.6,0.7,2.2l13.4,21.1c4.5,0.4,8.8-2.4,13.2-2c1.7,0.1,3.4,0.7,5,0.2c1.1-0.5,2.2-1.2,3.2-2
		c2.7-1.7,6.2-1.9,8.5-4.1s2.4-5.5,2.4-8.5c0-2.6-0.2-5.3-0.8-7.8c-2-8.1-8.2-14.3-12-21.5c-1.9-3.5-2.9-5.5-6.9-3.1
		S461,164.4,457.3,167.2z"/>
	<path id="Path_607" class="st1" d="M620.2,156.6c2.5,1.6,4.8,3.6,6.8,5.9c2,2.6,3.2,5.9,5.2,8.6s4.5,4.6,6.6,7
		c3.3,3.6,5.5,8.1,7.7,12.5c-5.3,6.9-11.1,13.5-17.4,19.6c-0.7,0.8-1.6,1.4-2.6,1.7c-1.4,0.2-2.8-0.4-3.7-1.5c-1-1-1.7-2.3-2.6-3.3
		c-2.2-2.2-5.1-3.7-8.2-4c-3.1-0.3-6.2-0.3-9.3-0.1c-0.7,0.1-1.4,0-2-0.3c-0.5-0.3-0.8-0.7-1.1-1.2c-3.6-6.2-2.5-13.9-1.2-21
		l2.9-16.2c0.4-3.1,1.3-6.1,2.5-9c1.1-2.4,3.6-6.4,6.7-5.7S617.6,154.7,620.2,156.6z"/>
</g>
<g id="svg--gadgets_x5F__x5F_box--two">
	<path id="Path_608" class="st7" d="M364,275.1l-61.9,12.7l-1.4-0.1l-54.4-5.5v-68.9l66.6-11.3l48.3,5.6l0,0.3v0.1L364,275.1z"/>
	<path id="Path_609" class="st4" d="M364,275.1l-61.9,12.7l-1.4-0.1V217l60.5-9.1L364,275.1z"/>
	<path id="Path_610" class="st8" d="M361.3,208L361.3,208l-60.5,8.9l-54.4-3.8l66.6-11.3l48.3,5.6l0,0.3L361.3,208z"/>
</g>
<g id="svg--gadgets_x5F__x5F_box--one">
	<path id="Path_611" class="st1" d="M396.4,206.8l-61.9,12.7l-1.4-0.1l-54.4-5.5v-68.9l66.6-11.3l48.3,5.6l0,0.3v0.1L396.4,206.8z"
		/>
	<path id="Path_612" class="st4" d="M396.4,206.8l-61.9,12.7l-1.4-0.1v-70.7l60.5-9.1L396.4,206.8z"/>
	<path id="Path_613" class="st8" d="M393.6,139.8L393.6,139.8l-60.5,8.9l-54.4-3.8l66.6-11.3l48.3,5.6l0,0.3L393.6,139.8z"/>
</g>
</svg>
