<svg xmlns="http://www.w3.org/2000/svg" width="852.924" height="632.244" viewBox="0 0 852.924 632.244">
  <g id="Group_32" data-name="Group 32" transform="translate(0 0.099)">
    <path id="Path_551" data-name="Path 551" d="M799.864,473.187l6.711-4.142c.638-.4,1.267-.835,1.914-1.24a64.1,64.1,0,0,1-53.167-60.192,63.435,63.435,0,0,1,5.534-29.2,64.208,64.208,0,0,1,41.156-35.5l-.332,26.413,14.509-28.749a.576.576,0,0,1,.18,0,64.091,64.091,0,0,1,67.011,61.037c.054,1.222,0,2.426,0,3.594,5.049-5.759,9.631-11.931,12.667-18.7,6.145-13.7,6.289-29.216,5.777-48.073-.97-37.373-2.578-75.025-4.681-112.569a64.056,64.056,0,0,1-56.913-60.633c-.09-1.967-.063-3.9,0-5.822a9.628,9.628,0,0,1,.072-1.437c.126-1.86.3-3.7.584-5.516a5.246,5.246,0,0,1,.162-.9q.4-2.309.943-4.564c.144-.557.278-1.123.431-1.68a48.57,48.57,0,0,1,1.518-4.833c.189-.53.413-1.042.611-1.563.458-1.168.952-2.318,1.473-3.459.279-.6.548-1.195.844-1.8.072-.153.135-.305.216-.458h0a64.047,64.047,0,0,1,75.25-32.5l-.431,34.373,14.374-28.389a63.7,63.7,0,0,1,30.545,69.06h.072c-.1.458-.243.9-.35,1.348-.2.844-.413,1.68-.647,2.516-.305,1.069-.647,2.12-1,3.171-.27.782-.53,1.581-.827,2.354-.431,1.132-.9,2.237-1.419,3.342-.287.647-.548,1.3-.9,1.941q-1.231,2.48-2.7,4.851c-.332.548-.71,1.069-1.06,1.617-.683,1.06-1.375,2.111-2.12,3.135-.458.629-.952,1.231-1.437,1.851-.7.9-1.419,1.8-2.165,2.614-.53.6-1.069,1.195-1.626,1.8-.782.827-1.59,1.626-2.426,2.417-.548.53-1.105,1.06-1.68,1.563-.943.836-1.932,1.635-2.929,2.417-.5.4-.988.809-1.509,1.186q-2.273,1.689-4.7,3.171c-.305.18-.629.332-.9.512-1.348.8-2.7,1.545-4.142,2.246-.6.3-1.231.557-1.851.835-1.159.521-2.327,1.024-3.522,1.482-.692.261-1.4.5-2.111.746-1.177.4-2.372.773-3.594,1.105-.719.2-1.428.4-2.156.566-1.312.314-2.65.575-4,.8a.457.457,0,0,0-.261.054q1.33,23.754,2.363,47.534a64.055,64.055,0,0,1,88.941-27.805l-11.329,31.04,23.3-22.379a63.911,63.911,0,0,1,20.663,44.255,62.722,62.722,0,0,1-1.626,17.653,64.065,64.065,0,0,1-117.842,17.456c0,1.608.117,3.225.162,4.833.422,16.638.952,37.337-7.34,55.826-5.615,12.533-14.662,22.711-23.6,31.83-5.813,5.938-11.841,11.679-18.022,17.24a64.091,64.091,0,0,1-23.143,19.244q-15.228,11.733-31.534,21.975l-6.6,4.258c-6.1,3.782-12.353,7.663-18.489,11.679,1.078-.108,2.147-.225,3.243-.27a64.118,64.118,0,0,1,63.1,41.713l-40.05,32.6L861.1,563.853a64.118,64.118,0,0,1-91.888,57.722c.988,1.24,1.985,2.471,2.974,3.7,1.968,2.453,3.926,4.887,5.84,7.3,26.053,33,33.312,64.334,20.4,88.222l-15.686-8.481c12.578-23.25-6.289-53.005-18.714-68.691-1.878-2.372-3.8-4.761-5.741-7.187-16.647-20.663-35.514-44.129-35.037-72.887C723.923,520.254,766.049,494.137,799.864,473.187Z" transform="translate(-185.973 -98.18)" fill="#f2f2f2"/>
    <ellipse id="Ellipse_146" data-name="Ellipse 146" cx="409.219" cy="18.866" rx="409.219" ry="18.866" transform="translate(0 594.413)" fill="#3f3d56"/>
    <path id="Path_552" data-name="Path 552" d="M947.4,760.673c2.7-4.95-.359-11.014-3.845-15.434s-7.735-8.984-7.645-14.635c.126-8.086,8.705-12.856,15.569-17.141a76.184,76.184,0,0,0,13.97-11.239,20.475,20.475,0,0,0,4.3-5.75c1.41-3.162,1.375-6.756,1.285-10.224q-.449-17.3-1.707-34.57" transform="translate(-207.582 -154.429)" fill="none" stroke="#3f3d56" stroke-miterlimit="10" stroke-width="4"/>
    <path id="Path_553" data-name="Path 553" d="M984.768,649.64a12.632,12.632,0,0,0-6.289-10.332l-2.821,5.588.081-6.756a12.606,12.606,0,1,0,8.984,11.5Z" transform="translate(-209.984 -152.999)" fill="#57b793"/>
    <path id="Path_554" data-name="Path 554" d="M959.9,743.926a12.578,12.578,0,1,1,.6-10.152l-7.87,6.406,8.661-2.012A12.577,12.577,0,0,1,959.9,743.926Z" transform="translate(-207.605 -161.939)" fill="#57b793"/>
    <path id="Path_555" data-name="Path 555" d="M954.169,715.858A12.577,12.577,0,0,1,941,703.847a12.4,12.4,0,0,1,1.087-5.741,12.631,12.631,0,0,1,8.086-6.989l-.063,5.2,2.857-5.66h0a12.614,12.614,0,0,1,1.177,25.2Z" transform="translate(-208.097 -158.388)" fill="#57b793"/>
    <path id="Path_556" data-name="Path 556" d="M988.239,693.153a12.591,12.591,0,1,1,5.57-23.556l-2.228,6.109,4.582-4.4a12.577,12.577,0,0,1,4.079,8.706,12.294,12.294,0,0,1-.323,3.468,12.577,12.577,0,0,1-11.679,9.676Z" transform="translate(-211.559 -156.085)" fill="#57b793"/>
    <path id="Path_557" data-name="Path 557" d="M983.086,653.742c-2.911.323-5.741,1.231-8.661,1.41s-6.127-.521-7.978-2.794a39.872,39.872,0,0,1-2.336-4.1,8.985,8.985,0,0,0-3.171-2.992,12.578,12.578,0,1,0,23.574,8.373C984.029,653.661,983.553,653.7,983.086,653.742Z" transform="translate(-210 -153.777)" opacity="0.1"/>
    <path id="Path_558" data-name="Path 558" d="M988.235,693.968A12.578,12.578,0,0,1,976.242,676a9.341,9.341,0,0,1,2.533,2.542,40.57,40.57,0,0,0,2.5,4.169c1.958,2.309,5.318,3.063,8.364,2.92s5.974-1,8.984-1.276c.413,0,.845-.072,1.267-.081a12.577,12.577,0,0,1-11.652,9.694Z" transform="translate(-211.556 -156.9)" opacity="0.1"/>
    <path id="Path_559" data-name="Path 559" d="M954.169,716.7A12.577,12.577,0,0,1,941,704.691a12.4,12.4,0,0,1,1.087-5.741,10.351,10.351,0,0,1,2.7,2.56c.979,1.383,1.59,2.974,2.7,4.249,2.129,2.372,5.7,3.207,8.93,3.126s6.127-.836,9.236-1.069a12.631,12.631,0,0,1-11.472,8.885Z" transform="translate(-208.097 -159.232)" opacity="0.1"/>
    <path id="Path_560" data-name="Path 560" d="M959.864,744.832a12.6,12.6,0,1,1-22.99-10.332,13.079,13.079,0,0,1,2.767,2.471c1.195,1.464,1.985,3.117,3.378,4.492,2.578,2.525,6.738,3.594,10.439,3.665a54.037,54.037,0,0,0,6.406-.3Z" transform="translate(-207.567 -162.844)" opacity="0.1"/>
    <path id="Path_561" data-name="Path 561" d="M927.54,766.042s9.945-.305,12.946-2.444,15.273-4.69,16.054-1.258,14.958,17.07,3.719,17.123-26.107-1.8-29.1-3.594S927.54,766.042,927.54,766.042Z" transform="translate(-206.731 -165.502)" fill="#656380"/>
    <path id="Path_562" data-name="Path 562" d="M960.457,778.873c-11.23.09-26.107-1.8-29.1-3.594-2.273-1.384-3.189-6.37-3.486-8.67h-.332s.629,8.023,3.594,9.882,17.86,3.665,29.1,3.594c3.243,0,4.366-1.186,4.3-2.893C964.114,778.208,962.874,778.855,960.457,778.873Z" transform="translate(-206.731 -166.106)" opacity="0.2"/>
    <path id="Path_563" data-name="Path 563" d="M313.094,712.1c-6.522-12.074.9-26.862,9.379-37.625s18.866-21.957,18.642-35.675c-.323-19.711-21.238-31.345-37.948-41.793a185.329,185.329,0,0,1-34.076-27.392c-4.106-4.2-8.086-8.67-10.475-14.024-3.45-7.708-3.36-16.468-3.135-24.912q1.078-42.224,4.169-84.287" transform="translate(-138.437 -133.57)" fill="none" stroke="#3f3d56" stroke-miterlimit="10" stroke-width="4"/>
    <path id="Path_564" data-name="Path 564" d="M224.756,441.369A30.734,30.734,0,0,1,240.1,416.214l6.882,13.611-.207-16.477a30.743,30.743,0,1,1-22.02,28.048Z" transform="translate(-135.321 -130.085)" fill="#57b793"/>
    <path id="Path_565" data-name="Path 565" d="M285.4,671.181A30.725,30.725,0,0,0,343.423,658.6a30.33,30.33,0,0,0-2-12.47,30.743,30.743,0,0,0-57.5.332l19.2,15.614L282,657.166A30.393,30.393,0,0,0,285.4,671.181Z" transform="translate(-141.141 -151.865)" fill="#57b793"/>
    <path id="Path_566" data-name="Path 566" d="M299.36,602.87a30.743,30.743,0,0,0,9.748-60.3l.162,12.658-6.918-13.772h-.081a30.745,30.745,0,0,0-2.866,61.423Z" transform="translate(-139.931 -143.226)" fill="#57b793"/>
    <path id="Path_567" data-name="Path 567" d="M216.292,547.6a30.743,30.743,0,1,0-13.584-57.5l5.39,14.886-11.131-10.754A30.6,30.6,0,0,0,187,515.456a29.98,29.98,0,0,0,.782,8.463A30.734,30.734,0,0,0,216.292,547.6Z" transform="translate(-131.484 -137.61)" fill="#57b793"/>
    <path id="Path_568" data-name="Path 568" d="M228.963,451.463c7.1.782,14,2.983,21.112,3.423s14.94-1.258,19.441-6.792c2.426-2.983,3.638-6.756,5.687-10.008a21.813,21.813,0,0,1,7.744-7.286,30.743,30.743,0,1,1-57.5,20.4C226.645,451.256,227.813,451.337,228.963,451.463Z" transform="translate(-135.395 -131.986)" opacity="0.1"/>
    <path id="Path_569" data-name="Path 569" d="M216.389,549.592a30.761,30.761,0,0,0,29.243-43.842,22.739,22.739,0,0,0-6.181,6.181c-2.192,3.306-3.513,7.124-6.091,10.161-4.788,5.624-12.964,7.466-20.385,7.133s-14.581-2.453-21.966-3.126c-1.024-.09-2.066-.162-3.1-.189a30.734,30.734,0,0,0,28.479,23.682Z" transform="translate(-131.581 -139.601)" opacity="0.1"/>
    <path id="Path_570" data-name="Path 570" d="M299.509,604.926a30.734,30.734,0,0,0,29.485-43.276,24.859,24.859,0,0,0-6.5,6.289c-2.39,3.369-3.881,7.25-6.675,10.359-5.184,5.777-13.9,7.816-21.759,7.627-7.609-.162-14.94-2.03-22.5-2.614a30.761,30.761,0,0,0,27.949,21.615Z" transform="translate(-140.08 -145.281)" opacity="0.1"/>
    <path id="Path_571" data-name="Path 571" d="M285.78,673.407a30.725,30.725,0,0,0,58.027-12.578,30.33,30.33,0,0,0-2-12.47,30.783,30.783,0,0,0-6.738,6.01c-2.92,3.594-4.851,7.6-8.229,10.924-6.289,6.163-16.432,8.714-25.46,8.984a131.846,131.846,0,0,1-15.6-.871Z" transform="translate(-141.525 -154.091)" opacity="0.1"/>
    <path id="Path_572" data-name="Path 572" d="M405.717,648.1,287.129,672.356l-2.7-.27L180.22,661.575V529.511L307.792,507.95l92.535,10.781.027.584.009.287Z" transform="translate(-18.311 -51.621)" fill="#eb7a6d"/>
    <path id="Path_573" data-name="Path 573" d="M417.5,649.385,298.915,673.641l-2.7-.27V537.984L412.14,520.6Z" transform="translate(-30.098 -52.906)" opacity="0.1"/>
    <path id="Path_574" data-name="Path 574" d="M400.363,519.6l-.036.027L284.434,536.7,180.22,529.511,307.792,507.95l92.535,10.781.027.584Z" transform="translate(-18.311 -51.621)" opacity="0.05"/>
    <path id="Path_575" data-name="Path 575" d="M550.717,654.1,432.129,678.356l-2.7-.27L325.22,667.575V535.511L452.792,513.95l92.535,10.781.027.584.009.287Z" transform="translate(-33.044 -52.23)" fill="#3f3d56"/>
    <path id="Path_576" data-name="Path 576" d="M562.5,655.385,443.915,679.641l-2.7-.27V543.984L557.14,526.6Z" transform="translate(-44.83 -53.516)" opacity="0.1"/>
    <path id="Path_577" data-name="Path 577" d="M545.363,525.6l-.036.027L429.434,542.7,325.22,535.511,452.792,513.95l92.535,10.781.027.584Z" transform="translate(-33.044 -52.23)" opacity="0.05"/>
    <path id="Path_578" data-name="Path 578" d="M459.717,510.1,341.129,534.356l-2.7-.269L234.22,523.575V391.512L361.792,369.95l92.535,10.781.027.584.009.288Z" transform="translate(-23.798 -37.599)" fill="#3f3d56"/>
    <path id="Path_579" data-name="Path 579" d="M471.5,511.385,352.915,535.641l-2.7-.27V399.984L466.14,382.6Z" transform="translate(-35.584 -38.884)" opacity="0.1"/>
    <path id="Path_580" data-name="Path 580" d="M454.363,381.6l-.036.027L338.434,398.7,234.22,391.512,361.792,369.95l92.535,10.781.027.584Z" transform="translate(-23.798 -37.599)" opacity="0.05"/>
    <path id="Path_581" data-name="Path 581" d="M546.91,523.837,485.019,536.5l-1.41-.144-54.389-5.489V461.947L495.8,450.69l48.3,5.633.018.305v.144Z" transform="translate(-43.611 -45.803)" fill="#3f3d56"/>
    <path id="Path_582" data-name="Path 582" d="M553.061,524.509l-61.89,12.667-1.41-.144V466.374l60.507-9.074Z" transform="translate(-49.762 -46.474)" opacity="0.1"/>
    <path id="Path_583" data-name="Path 583" d="M544.116,456.772l-.018.018L483.609,465.7l-54.389-3.755L495.8,450.69l48.3,5.633.018.305Z" transform="translate(-43.611 -45.803)" opacity="0.05"/>
    <path id="Path_584" data-name="Path 584" d="M361.91,374.837,300.019,387.5l-1.41-.135-54.389-5.489V312.947L310.8,301.69l48.3,5.633.018.305v.144Z" transform="translate(-24.814 -30.663)" fill="#3f3d56"/>
    <path id="Path_585" data-name="Path 585" d="M368.061,375.509l-61.89,12.658-1.41-.135V317.374l60.507-9.074Z" transform="translate(-30.965 -31.335)" opacity="0.1"/>
    <path id="Path_586" data-name="Path 586" d="M359.116,307.772l-.018.018L298.609,316.7l-54.389-3.755L310.8,301.69l48.3,5.633.018.305Z" transform="translate(-24.814 -30.663)" opacity="0.05"/>
    <path id="Path_587" data-name="Path 587" d="M482.91,371.837,421.019,384.5l-1.41-.135-54.389-5.489V309.947L431.8,298.69l48.3,5.633.018.305v.144Z" transform="translate(-37.108 -30.359)" fill="#eb7a6d"/>
    <path id="Path_588" data-name="Path 588" d="M489.061,372.509l-61.89,12.658-1.41-.135V314.374l60.507-9.074Z" transform="translate(-43.26 -31.03)" opacity="0.1"/>
    <path id="Path_589" data-name="Path 589" d="M480.116,304.772l-.018.018L419.609,313.7l-54.389-3.755L431.8,298.69l48.3,5.633.018.305Z" transform="translate(-37.108 -30.359)" opacity="0.05"/>
    <path id="Path_590" data-name="Path 590" d="M518.91,294.837,457.019,307.5l-1.41-.135-54.389-5.489V232.947L467.8,221.69l48.3,5.633.018.305v.144Z" transform="translate(-40.766 -22.535)" fill="#3f3d56"/>
    <path id="Path_591" data-name="Path 591" d="M525.061,295.509l-61.89,12.658-1.41-.135V237.374l60.507-9.074Z" transform="translate(-46.917 -23.207)" opacity="0.1"/>
    <path id="Path_592" data-name="Path 592" d="M516.116,227.772l-.018.018L455.609,236.7l-54.389-3.755L467.8,221.69l48.3,5.633.018.305Z" transform="translate(-40.766 -22.535)" opacity="0.05"/>
    <path id="Path_593" data-name="Path 593" d="M703.5,242.382c-.656,5.84-5.112,10.547-6.765,16.171-2.48,8.49,1.8,17.609,7.69,24.257a53.7,53.7,0,0,0,37.391,17.734,16.09,16.09,0,0,0,6.181-.674,13.422,13.422,0,0,0,4.7-3.216c4.42-4.447,6.8-10.6,7.744-16.809s.584-12.524.216-18.785a10.629,10.629,0,0,0-.7-3.791,9.631,9.631,0,0,0-2.435-2.992,56.6,56.6,0,0,0-10.466-7.609c-1.617-.9-3.351-1.8-4.384-3.351a10.969,10.969,0,0,1-1.357-4.016l-1.159-5.893a11.553,11.553,0,0,0-1.7-4.779c-2.039-2.749-5.947-3.126-9.37-3.261l-12.578-.494c-3.908-.153-9.047-1.276-12.865-.5-3.594.71-2.381,4-1.734,6.981A50.474,50.474,0,0,1,703.5,242.382Z" transform="translate(-183.208 -110.984)" fill="#ffc0c6"/>
    <path id="Path_594" data-name="Path 594" d="M703.5,242.382c-.656,5.84-5.112,10.547-6.765,16.171-2.48,8.49,1.8,17.609,7.69,24.257a53.7,53.7,0,0,0,37.391,17.734,16.09,16.09,0,0,0,6.181-.674,13.422,13.422,0,0,0,4.7-3.216c4.42-4.447,6.8-10.6,7.744-16.809s.584-12.524.216-18.785a10.629,10.629,0,0,0-.7-3.791,9.631,9.631,0,0,0-2.435-2.992,56.6,56.6,0,0,0-10.466-7.609c-1.617-.9-3.351-1.8-4.384-3.351a10.969,10.969,0,0,1-1.357-4.016l-1.159-5.893a11.553,11.553,0,0,0-1.7-4.779c-2.039-2.749-5.947-3.126-9.37-3.261l-12.578-.494c-3.908-.153-9.047-1.276-12.865-.5-3.594.71-2.381,4-1.734,6.981A50.474,50.474,0,0,1,703.5,242.382Z" transform="translate(-183.208 -110.984)" opacity="0.1"/>
    <path id="Path_595" data-name="Path 595" d="M785.879,533.938l-5.336,58.5c-1.393,15.345-2.812,30.752-5.543,45.9-.9,5.22-2.048,10.412-3.36,15.56-3.647,14.293-8.939,28.263-10.646,42.916-.054.422-.1.9-.144,1.285a38.473,38.473,0,0,1-1.8,9.523c-.9,2.237-2.165,4.276-3.091,6.486-1.8,4.42-2.084,9.307-2.309,14.1a60.768,60.768,0,0,0-20.924-7.187c-3.594-.53-7.5-.9-9.882-3.594-2.7-2.929-2.381-7.412-1.932-11.347q2.12-18.327,4.222-36.636a95.489,95.489,0,0,1,2.7-15.56c.485-1.7,1.069-3.369,1.662-5.04.818-2.3,1.644-4.6,2.264-6.963a83.853,83.853,0,0,0,1.779-11.526c1.446-12.29,3.189-24.553,4.717-36.834l.081-.647c2.291-18.615,4.034-37.319,3.531-56.069-.072-2.776-.189-5.552-.368-8.337-.252-4.034-.62-6.172,2.7-8.7,3.692-2.785,8.553-4.735,12.775-6.558,2.273-.988,27.3-9.882,27.85-7.924a48.778,48.778,0,0,1,1.8,12.775,142.148,142.148,0,0,1-.737,15.875Z" transform="translate(-185.707 -139.526)" fill="#605d82"/>
    <path id="Path_596" data-name="Path 596" d="M775.994,648.278c-.9,5.22-2.048,10.412-3.36,15.56-3.647,14.293-8.939,28.263-10.646,42.916-.054.422-.1.9-.144,1.285C750.686,692.1,741.289,674.96,730.4,658.852c.818-2.3,1.644-4.6,2.264-6.963a83.853,83.853,0,0,0,1.869-11.6c1.446-12.29,3.189-24.553,4.717-36.834l.081-.647a38.152,38.152,0,0,0,2.7,7.556c7.313,14.859,24.688,22.37,33.187,36.592Q775.634,647.622,775.994,648.278Z" transform="translate(-186.701 -149.463)" opacity="0.1"/>
    <path id="Path_597" data-name="Path 597" d="M680.364,499.817c.368,11.913,2.273,23.727,4.178,35.5l3.926,24.257c2.147,13.3,4.393,26.853,10.682,38.757,4.708,8.912,11.482,16.513,17.617,24.5,15.075,19.639,26.4,41.892,40.7,62.106,4.16,5.875,10.1,12.236,17.186,11.005,4.654-.8,8.032-4.681,11.679-7.663,4.312-3.522,9.505-6.1,12.9-10.52s4.061-11.751-.539-14.9c-1.572-1.069-3.486-1.473-5.265-2.156-7.124-2.7-11.742-9.667-14.671-16.71s-4.717-14.6-8.625-21.148c-8.5-14.222-25.883-21.732-33.2-36.6-4.1-8.319-4.492-17.968-4.8-27.194l-.8-23.637c-.09-2.587-.153-5.274.9-7.636,2.794-6.289,11.239-6.882,18.085-7.681a61.767,61.767,0,0,0,22.163-6.99c3.944-2.129,7.789-4.842,9.882-8.8,1.923-3.594,2.183-7.825,2.408-11.9l2.372-42.844c.207-3.683.386-7.5-.9-10.951-3.261-8.679-14.222-11.517-23.484-11.1-17.231.773-33.133,8.184-49.412,13.2a126.272,126.272,0,0,1-12.245,3.189c-3.594.728-8.086.431-11.535,1.6-6.181,2.084-6.028,15.614-6.9,21.22A178.132,178.132,0,0,0,680.364,499.817Z" transform="translate(-181.612 -131.647)" fill="#605d82"/>
    <path id="Path_598" data-name="Path 598" d="M782.332,725.188c1.518,1.536,2.012,3.782,2.408,5.9a201.386,201.386,0,0,1,3.414,35.675,5.912,5.912,0,0,0,.638,3.234,4.125,4.125,0,0,0,1.68,1.348c4.393,2.093,9.487-.826,13.152-4.034,6.783-5.938,12.524-13.916,12.91-22.927a52.752,52.752,0,0,1,.243-6.954c.593-3.4,2.578-6.352,4.321-9.316a79.1,79.1,0,0,0,7.187-16.009c.665-2.1,1.114-4.744-.539-6.208a5.777,5.777,0,0,0-1.95-1.015l-19.855-7.367c-1.725-.638-6,10.349-6.675,11.553-1.662,2.938-3.315,4.6-6.648,5.283s-7.448-.305-10.628,1.393C776.6,718.611,779.286,722.124,782.332,725.188Z" transform="translate(-191.629 -159.083)" fill="#535070"/>
    <path id="Path_599" data-name="Path 599" d="M746.088,735.483a6.048,6.048,0,0,0-1.509-1.914,6.765,6.765,0,0,0-3.046-1.033c-3.773-.647-8.247-1.069-10.862,1.743-2.444,2.632-2.021,6.918-4.061,9.882a30.734,30.734,0,0,0-2.084,2.7,10.116,10.116,0,0,0-.9,4.833c-.108,4.573-.216,9.164.108,13.727.26,3.827.9,7.843,3.3,10.844,3.845,4.815,10.781,5.507,16.926,5.813l4.986.26a9.883,9.883,0,0,0,4.079-.377,6.693,6.693,0,0,0,3.522-3.872c2.6-6.45-1.509-13.395-4.043-19.863C749.582,750.774,750.1,742.517,746.088,735.483Z" transform="translate(-186.002 -162.596)" fill="#535070"/>
    <path id="Path_600" data-name="Path 600" d="M700.82,203.8a4.07,4.07,0,0,1,.279-1.923c.728-1.285,2.632-.9,4.07-.575,5.777,1.455,11.868.135,17.824.476s12.658,3.315,13.853,9.155a43.312,43.312,0,0,0,10.987-11.284c1.653-2.471,3.091-5.3,2.866-8.265-.323-4.276-3.908-7.475-7.187-10.188l-9.882-8.086a15.012,15.012,0,0,0-4.438-2.821c-2.282-.782-4.779-.4-7.187-.4-7.187,0-14.9-3.279-21.3,0-2.7,1.375-4.7,3.737-6.639,6.037l-8.831,10.457a5.579,5.579,0,0,0-1.419,2.4c-.252,1.276.4,2.533.638,3.818.413,2.336-.593,4.833.18,7.079,1.285,3.719,5.813,4.249,8.58,6.388,1.024.791,2.641,3.495,3.872,3.459C699.248,209.477,700.757,205.524,700.82,203.8Z" transform="translate(-181.962 -105.328)" fill="#3f3d56"/>
    <circle id="Ellipse_147" data-name="Ellipse 147" cx="28.299" cy="28.299" r="28.299" transform="translate(505.544 72.715)" fill="#ffc0c6"/>
    <path id="Path_601" data-name="Path 601" d="M719.107,276.115a13.71,13.71,0,0,0-13.305-9.182,4,4,0,0,1-2.462-.314,3.405,3.405,0,0,1-1.015-1.258A50.073,50.073,0,0,1,698.2,255.6c-.449-1.5-1.069-3.27-2.587-3.656a3.473,3.473,0,0,0-3.288,1.437,31.444,31.444,0,0,1-2.354,2.956c-3.594,3.18-9.882.278-13.647,3.2-.62.476-1.132,1.087-1.8,1.527a8.175,8.175,0,0,1-2.075.9A198.888,198.888,0,0,0,651,270.348c2.515,15.129,5.085,30.545,10.978,44.7,2.8,6.738,5.974,13.341,8.22,20.286,4.977,15.389,5.193,31.857,5.256,48.037,0,11.068,0,22.37-3.594,32.845a31.79,31.79,0,0,0-2.021,7.187c-.225,2.462.512,5.247,2.534,6.72a8.544,8.544,0,0,0,3.908,1.375c6.208.9,12.461-.737,18.57-2.156,16.378-3.791,33.088-5.965,49.753-8.086l27.94-3.594a16.343,16.343,0,0,0,5.786-1.5c5.112-2.794,5.6-10.484,2.417-15.371-1.518-2.345-3.665-4.267-4.95-6.747s-1.384-5.965.818-7.681c4.492-3.5,3.144-10,3.36-15.677q.9-23.825-.243-47.615a93.175,93.175,0,0,1-.162-9.882c.314-5.588,1.7-11.059,3.081-16.495l8.49-33.42c-2.219-3.5-6.469-5.732-10.484-6.738s-8.211-1.3-12.173-2.533c-8.086-2.516-15.345-8.894-23.816-8.3a4.357,4.357,0,0,0-1.851.449c-1.9,1.087-1.608,3.836-1.725,6.028-.269,4.86-3.845,8.912-7.78,11.76s-8.445,4.914-12.065,8.157a5.39,5.39,0,0,0-2.138,4.025Z" transform="translate(-178.633 -113.175)" fill="#3f3d56"/>
    <path id="Path_602" data-name="Path 602" d="M600.3,313.659a33.237,33.237,0,0,1-5.947,3.064c-1.977.782-4.088,1.4-5.7,2.767a9.029,9.029,0,0,0-1.985,2.453,10.9,10.9,0,0,0,10.044,16.234,21.9,21.9,0,0,0,7.43-2.219L624.1,327.27c3.378-1.464,7.025-3.171,8.625-6.5a1.563,1.563,0,0,0,.2-1.033,1.7,1.7,0,0,0-.826-.9,44.712,44.712,0,0,1-11.616-10.96c-.818-1.114-1.8-3.737-2.983-4.411C613.272,301.126,603.686,311.467,600.3,313.659Z" transform="translate(-171.953 -119.014)" fill="#ffc0c6"/>
    <path id="Path_603" data-name="Path 603" d="M834.132,307l7.358,8.409c1.581,1.8,3.162,3.594,4.6,5.534a64.389,64.389,0,0,1,8.427,15.875c1.6,4.2,2.929,8.669,2.372,13.126a32.34,32.34,0,0,1-1.842,6.675,82.538,82.538,0,0,1-5,12.038,68.5,68.5,0,0,1-5.6,8.418,196.827,196.827,0,0,1-18.66,21.337c-2.516,2.489-3.594,6.522-4.663,9.882-2.021,6.208-6.828,11.05-11.472,15.632a31.614,31.614,0,0,1-4.932,4.24,15.992,15.992,0,0,1-8.984,2.551,9.882,9.882,0,0,1-4.034-.835c-3.18-1.509-4.8-5.184-5.13-8.687a18.6,18.6,0,0,1,1.545-9.307c4.223-9.352,15.066-13.4,22.729-20.232,4.492-4,7.933-9.029,11.329-14a48.557,48.557,0,0,0,5.723-10.035c1.707-4.573,1.042-9.981,2.542-14.617.629-1.967,1.8-3.737,2.435-5.687s.854-4.258-.341-5.938a8.579,8.579,0,0,0-3.333-2.444c-4.9-2.48-10.376-5.678-11.311-11.1a11.877,11.877,0,0,1,2.192-8.472,35.04,35.04,0,0,1,6.172-6.468C828.382,310.98,831.985,308.851,834.132,307Z" transform="translate(-192.4 -119.407)" fill="#ffc0c6"/>
    <path id="Path_604" data-name="Path 604" d="M592.894,327.069c-1.294-2.623-2.92-5.3-5.543-6.6a10.206,10.206,0,0,0-8.086,0,30.653,30.653,0,0,0-7.079,4.276l-6.343,4.681a15.606,15.606,0,0,0-3.764,3.477,14.474,14.474,0,0,0-1.958,5.39c-.9,4.375-1.626,8.876-1,13.305,1.006,7.187,5.318,13.4,10.062,18.866,2.965,3.4,6.63,6.828,11.14,6.981,1.95.063,4.115-.71,4.923-2.48a6.138,6.138,0,0,0,.44-2.21c.485-7.978-2.372-15.767-5.7-23.035-.9-1.977-1.869-4.025-1.8-6.19a1.671,1.671,0,0,1,.27-1.042,1.743,1.743,0,0,1,1.078-.53c4.555-.9,12.407,2.641,15.6-2.417C597.206,336.2,594.367,330.042,592.894,327.069Z" transform="translate(-169.274 -120.691)" fill="#ffc0c6"/>
    <path id="Path_605" data-name="Path 605" d="M699.162,193.89a4.186,4.186,0,0,1,.287-1.923c.728-1.294,2.632-.9,4.07-.575,5.777,1.455,11.868.135,17.824.476s12.649,3.315,13.853,9.155a43.6,43.6,0,0,0,10.987-11.284c1.653-2.48,3.09-5.31,2.866-8.274-.323-4.276-3.917-7.475-7.187-10.179l-9.882-8.086a14.967,14.967,0,0,0-4.429-2.821c-2.291-.782-4.779-.4-7.187-.4-7.187,0-14.9-3.279-21.3,0-2.7,1.375-4.7,3.737-6.639,6.037l-8.84,10.457a5.6,5.6,0,0,0-1.41,2.4c-.252,1.276.4,2.533.638,3.818.413,2.336-.593,4.833.18,7.07,1.285,3.728,5.813,4.258,8.58,6.4,1.024.791,2.641,3.495,3.872,3.459C697.572,199.567,699.081,195.614,699.162,193.89Z" transform="translate(-181.795 -104.321)" fill="#3f3d56"/>
    <path id="Path_606" data-name="Path 606" d="M632.477,283.146a11.733,11.733,0,0,0-2.965,2.758c-1.033,1.572-1.249,3.594-2.138,5.211-1.9,3.54-6.37,4.806-9.146,7.708a2.866,2.866,0,0,0-.9,1.509,3.332,3.332,0,0,0,.746,2.174L631.5,323.6c4.492.4,8.75-2.408,13.224-2.03,1.662.135,3.378.71,4.977.216a14.465,14.465,0,0,0,3.189-1.95c2.7-1.689,6.217-1.887,8.454-4.106s2.426-5.48,2.4-8.508a33.576,33.576,0,0,0-.8-7.816c-1.977-8.086-8.167-14.32-12.048-21.49-1.9-3.495-2.92-5.534-6.918-3.135S636.259,280.379,632.477,283.146Z" transform="translate(-175.212 -116.028)" fill="#3f3d56"/>
    <path id="Path_607" data-name="Path 607" d="M812.994,271.534a31.5,31.5,0,0,1,6.756,5.911c2.039,2.632,3.2,5.866,5.166,8.562s4.492,4.636,6.648,7.043c3.279,3.647,5.5,8.086,7.672,12.5a187.411,187.411,0,0,1-17.357,19.585,5.561,5.561,0,0,1-2.641,1.725,4.232,4.232,0,0,1-3.719-1.518c-.97-1.006-1.653-2.264-2.578-3.315a13.251,13.251,0,0,0-8.2-3.962,56.344,56.344,0,0,0-9.3-.135,3.594,3.594,0,0,1-1.985-.332,3.28,3.28,0,0,1-1.078-1.24c-3.594-6.181-2.471-13.943-1.186-21l2.938-16.171a36.333,36.333,0,0,1,2.453-8.984c1.114-2.381,3.594-6.424,6.666-5.7S810.4,269.665,812.994,271.534Z" transform="translate(-192.752 -115.08)" fill="#3f3d56"/>
    <path id="Path_608" data-name="Path 608" d="M391.91,297.837,330.019,310.5l-1.41-.135-54.389-5.489V235.947L340.8,224.69l48.3,5.633.018.305v.144Z" transform="translate(-27.862 -22.84)" fill="#eb7a6d"/>
    <path id="Path_609" data-name="Path 609" d="M398.061,298.509l-61.89,12.658-1.41-.135V240.374l60.507-9.074Z" transform="translate(-34.014 -23.511)" opacity="0.1"/>
    <path id="Path_610" data-name="Path 610" d="M389.116,230.772l-.018.018L328.609,239.7l-54.389-3.755L340.8,224.69l48.3,5.633.018.305Z" transform="translate(-27.862 -22.84)" opacity="0.05"/>
    <path id="Path_611" data-name="Path 611" d="M427.91,221.837,366.019,234.5l-1.41-.144-54.389-5.489V159.947L376.8,148.69l48.3,5.633.018.305v.144Z" transform="translate(-31.52 -15.118)" fill="#3f3d56"/>
    <path id="Path_612" data-name="Path 612" d="M434.061,222.509l-61.89,12.667-1.41-.144V164.374l60.507-9.074Z" transform="translate(-37.671 -15.789)" opacity="0.1"/>
    <path id="Path_613" data-name="Path 613" d="M425.116,154.772l-.018.018L364.609,163.7l-54.389-3.755L376.8,148.69l48.3,5.633.018.305Z" transform="translate(-31.52 -15.118)" opacity="0.05"/>
  </g>
</svg>
