<svg xmlns="http://www.w3.org/2000/svg" xmlns:xlink="http://www.w3.org/1999/xlink" width="20.687" height="20.687" viewBox="0 0 20.687 20.687">
  <defs>
    <clipPath id="clip-path">
      <rect width="20.687" height="20.687" fill="none"/>
    </clipPath>
  </defs>
  <g id="instagram" transform="translate(0)" clip-path="url(#clip-path)">
    <path id="Path_3" data-name="Path 3" d="M10.343,1.839a31.715,31.715,0,0,1,4.137.115,5.331,5.331,0,0,1,1.954.345,4.036,4.036,0,0,1,1.954,1.954,5.33,5.33,0,0,1,.345,1.954c0,1.034.115,1.379.115,4.137a31.716,31.716,0,0,1-.115,4.137,5.331,5.331,0,0,1-.345,1.954,4.036,4.036,0,0,1-1.954,1.954,5.33,5.33,0,0,1-1.954.345c-1.034,0-1.379.115-4.137.115a31.716,31.716,0,0,1-4.137-.115,5.331,5.331,0,0,1-1.954-.345A4.036,4.036,0,0,1,2.3,16.435a5.33,5.33,0,0,1-.345-1.954c0-1.034-.115-1.379-.115-4.137a31.715,31.715,0,0,1,.115-4.137A5.33,5.33,0,0,1,2.3,4.252,4.128,4.128,0,0,1,3.1,3.1a1.943,1.943,0,0,1,1.149-.8,5.33,5.33,0,0,1,1.954-.345,31.715,31.715,0,0,1,4.137-.115m0-1.839A33.958,33.958,0,0,0,6.091.115a7.1,7.1,0,0,0-2.528.46A4.5,4.5,0,0,0,1.724,1.724,4.5,4.5,0,0,0,.575,3.563a5.236,5.236,0,0,0-.46,2.528A33.958,33.958,0,0,0,0,10.343,33.958,33.958,0,0,0,.115,14.6a7.1,7.1,0,0,0,.46,2.528,4.5,4.5,0,0,0,1.149,1.839,4.5,4.5,0,0,0,1.839,1.149,7.1,7.1,0,0,0,2.528.46,33.958,33.958,0,0,0,4.252.115,33.958,33.958,0,0,0,4.252-.115,7.1,7.1,0,0,0,2.528-.46,4.822,4.822,0,0,0,2.988-2.988,7.1,7.1,0,0,0,.46-2.528c0-1.149.115-1.494.115-4.252a33.958,33.958,0,0,0-.115-4.252,7.1,7.1,0,0,0-.46-2.528,4.5,4.5,0,0,0-1.149-1.839A4.5,4.5,0,0,0,17.124.575,7.1,7.1,0,0,0,14.6.115,33.958,33.958,0,0,0,10.343,0m0,5.057a5.2,5.2,0,0,0-5.287,5.287,5.287,5.287,0,1,0,5.287-5.287m0,8.734A3.386,3.386,0,0,1,6.9,10.343,3.386,3.386,0,0,1,10.343,6.9a3.386,3.386,0,0,1,3.448,3.448,3.386,3.386,0,0,1-3.448,3.448M15.86,3.563a1.264,1.264,0,1,0,1.264,1.264A1.275,1.275,0,0,0,15.86,3.563" fill="#ffcec9" fill-rule="evenodd"/>
  </g>
</svg>
