<svg xmlns="http://www.w3.org/2000/svg" xmlns:xlink="http://www.w3.org/1999/xlink" width="930" height="515.72" viewBox="0 0 930 515.72">
  <defs>
    <linearGradient id="linear-gradient" x1="0.5" y1="1" x2="0.5" gradientUnits="objectBoundingBox">
      <stop offset="0" stop-color="gray" stop-opacity="0.251"/>
      <stop offset="0.54" stop-color="gray" stop-opacity="0.122"/>
      <stop offset="1" stop-color="gray" stop-opacity="0.102"/>
    </linearGradient>
    <linearGradient id="linear-gradient-3" x1="0.5" y1="1" x2="0.5" y2="0" xlink:href="#linear-gradient"/>
    <linearGradient id="linear-gradient-4" x1="0.5" y1="1" x2="0.5" y2="0" xlink:href="#linear-gradient"/>
  </defs>
  <g id="Group_31" data-name="Group 31" transform="translate(-106 -96.28)">
    <ellipse id="Ellipse_138" data-name="Ellipse 138" cx="465" cy="124.52" rx="465" ry="124.52" transform="translate(106 362.96)" fill="#191919" opacity="0.088"/>
    <path id="Path_505" data-name="Path 505" d="M1039.18,330.86s-35.83,35.83-15.6,89S988.9,561.45,988.9,561.45s.59-.09,1.68-.28c73.59-13,110.16-97.16,69.24-159.69C1044.61,378.24,1032.12,351,1039.18,330.86Z" transform="translate(-82 -144)" fill="#eb7a6d"/>
    <path id="Path_506" data-name="Path 506" d="M1039.18,330.86s-20.23,43.92,0,79.75S1042.65,547,988.9,561.45" transform="translate(-82 -144)" fill="none" stroke="#535461" stroke-miterlimit="10" stroke-width="2"/>
    <path id="Path_507" data-name="Path 507" d="M1103,475.79s-40.89-6.51-44.61,30.13-78.62,41.72-78.62,41.72l1.4.93c61.84,40.59,121,25.86,112-28C1089.9,500.49,1090.17,480.36,1103,475.79Z" transform="translate(-82 -144)" fill="#eb7a6d"/>
    <path id="Path_508" data-name="Path 508" d="M1103,475.79s-40.89-6.51-44.61,30.13-78.62,41.72-78.62,41.72l1.4.93c61.84,40.59,121,25.86,112-28C1089.9,500.49,1090.17,480.36,1103,475.79Z" transform="translate(-82 -144)" fill="#f5f5f5" opacity="0.2"/>
    <path id="Path_509" data-name="Path 509" d="M1103,475.79s-31.74,7-29.13,35.82-47.13,63.45-94.1,36" transform="translate(-82 -144)" fill="none" stroke="#535461" stroke-miterlimit="10" stroke-width="2"/>
    <path id="Path_510" data-name="Path 510" d="M1008.37,563.92H944.13a21.42,21.42,0,0,0,2.24-9.57V261.79a21.51,21.51,0,0,0-21.51-21.51H427.52A21.51,21.51,0,0,0,406,261.79V554.36a21.42,21.42,0,0,0,2.24,9.57H341.73a5.69,5.69,0,0,0-5.69,5.69v4.59A31.82,31.82,0,0,0,367.86,606H982.24a31.82,31.82,0,0,0,31.82-31.82v-4.59a5.69,5.69,0,0,0-5.69-5.67Zm-395.89,18.2L607,575.87H743.72l-6.1,6.26Z" transform="translate(-82 -144)" fill="url(#linear-gradient)"/>
    <rect id="Rectangle_465" data-name="Rectangle 465" width="528.12" height="327.99" rx="23.26" transform="translate(330.11 100.42)" fill="#535461"/>
    <rect id="Rectangle_466" data-name="Rectangle 466" width="504.77" height="267.95" transform="translate(341.22 148.23)" fill="#fff"/>
    <circle id="Ellipse_139" data-name="Ellipse 139" cx="4.45" cy="4.45" r="4.45" transform="translate(589.16 120.43)" fill="#fff"/>
    <path id="Path_511" data-name="Path 511" d="M753.55,560.73,736.2,578.52H613.9l-15.67-17.79H349.29a5.56,5.56,0,0,0-5.56,5.56v4.48a31.1,31.1,0,0,0,31.1,31.1H975.28a31.1,31.1,0,0,0,31.1-31.1v-4.48a5.56,5.56,0,0,0-5.56-5.56Z" transform="translate(-82 -144)" fill="#535461"/>
    <path id="Path_512" data-name="Path 512" d="M580.41,301.65H367.48a19.51,19.51,0,0,0-19.53,19.48v295a19.51,19.51,0,0,0,19.53,19.48H580.41a19.51,19.51,0,0,0,19.53-19.48v-295a19.51,19.51,0,0,0-19.53-19.48Z" transform="translate(-82 -144)" fill="url(#linear-gradient)"/>
    <rect id="Rectangle_467" data-name="Rectangle 467" width="246" height="327" rx="20" transform="translate(268.94 161.65)" fill="#535461"/>
    <rect id="Rectangle_468" data-name="Rectangle 468" width="221" height="265.14" transform="translate(281.44 192.58)" fill="#fff"/>
    <circle id="Ellipse_140" data-name="Ellipse 140" cx="3" cy="3" r="3" transform="translate(387.94 173.65)" fill="#fff"/>
    <circle id="Ellipse_141" data-name="Ellipse 141" cx="9" cy="9" r="9" transform="translate(381.94 463.65)" fill="#fff"/>
    <path id="Path_513" data-name="Path 513" d="M418.11,401.65H308.78a10.81,10.81,0,0,0-10.83,10.79V651.86a10.81,10.81,0,0,0,10.83,10.79H418.11a10.81,10.81,0,0,0,10.83-10.79V412.44a10.81,10.81,0,0,0-10.83-10.79Z" transform="translate(-82 -144)" fill="url(#linear-gradient-3)"/>
    <rect id="Rectangle_469" data-name="Rectangle 469" width="129" height="258" rx="11" transform="translate(216.94 259.65)" fill="#535461"/>
    <rect id="Rectangle_470" data-name="Rectangle 470" width="110" height="210" transform="translate(226.44 283.65)" fill="#fff"/>
    <circle id="Ellipse_142" data-name="Ellipse 142" cx="1" cy="1" r="1" transform="translate(267.44 270.65)" fill="#fff"/>
    <rect id="Rectangle_471" data-name="Rectangle 471" width="22" height="2" rx="1" transform="translate(273.44 270.65)" fill="#fff"/>
    <circle id="Ellipse_143" data-name="Ellipse 143" cx="7" cy="7" r="7" transform="translate(273.94 496.65)" fill="#fff"/>
    <path id="Path_514" data-name="Path 514" d="M285.73,680.25s-13.26-45,2.49-78.14A71.09,71.09,0,0,0,294,557.5a119.571,119.571,0,0,0-6.31-20.93" transform="translate(-82 -144)" fill="none" stroke="#535461" stroke-miterlimit="10" stroke-width="2"/>
    <path id="Path_515" data-name="Path 515" d="M297.45,515.63c0,5.52-10,21.51-10,21.51s-10-16-10-21.51a10,10,0,0,1,20,0Z" transform="translate(-82 -144)" fill="#eb7a6d"/>
    <path id="Path_516" data-name="Path 516" d="M314,546.19c-3,4.63-20.08,12.63-20.08,12.63s.31-18.86,3.31-23.49A10,10,0,1,1,314,546.19Z" transform="translate(-82 -144)" fill="#eb7a6d"/>
    <path id="Path_517" data-name="Path 517" d="M313.24,598.4c-4.93,2.48-23.71.77-23.71.77s9.79-16.12,14.71-18.6a10,10,0,0,1,9,17.84Z" transform="translate(-82 -144)" fill="#eb7a6d"/>
    <path id="Path_518" data-name="Path 518" d="M303.8,637.79c-4.44,3.28-23.24,4.76-23.24,4.76s6.92-17.54,11.36-20.82a10,10,0,0,1,11.88,16.06Z" transform="translate(-82 -144)" fill="#eb7a6d"/>
    <path id="Path_519" data-name="Path 519" d="M272.91,559.89c4,3.84,22.39,7.83,22.39,7.83s-4.51-18.31-8.47-22.15a10,10,0,1,0-13.92,14.33Z" transform="translate(-82 -144)" fill="#eb7a6d"/>
    <path id="Path_520" data-name="Path 520" d="M262.45,606.09c4.93,2.48,23.71.77,23.71.77s-9.79-16.12-14.71-18.6a10,10,0,1,0-9,17.84Z" transform="translate(-82 -144)" fill="#eb7a6d"/>
    <path id="Path_521" data-name="Path 521" d="M258.45,652.39c4.44,3.28,23.24,4.76,23.24,4.76s-6.92-17.54-11.36-20.82a10,10,0,0,0-11.88,16.06Z" transform="translate(-82 -144)" fill="#eb7a6d"/>
    <path id="Path_522" data-name="Path 522" d="M1077,537.1c-11.07-13.43-24.48-28.86-22.6-46.73,1.52-14.47-2.12-27.85-1.4-42.37,1-20.63-3.14-36.78-18-50-8.68-7.73-23.19-13.8-27.51-12.25-8.56,3.06-17.9,1.89-26.71,4-6.69,1.56-11.14,4-13.9,7-5.55,5-5.64,12-3.11,19.45A32.85,32.85,0,0,0,980,462.28c-6.17,2.58-11.5,8.52-13.58,20.58a140.693,140.693,0,0,1-6.53,24.31,39.51,39.51,0,0,1-4,1.61c.3.12.61.2.91.31-.65.25-1.29.5-2,.72a21.209,21.209,0,0,0,3.65,1.06c-8,20.21-18,32.73-18,32.73s-18.65,4.12-25.9-3.09c0,0,1.18,1.38,2.78,3.45-7.09-2.94-18.73-7.74-28.68-11.69-7.22-2.87-9.07,0-9,4a13.32,13.32,0,0,0-5,1.68,48.671,48.671,0,0,0-6.69-3.6c-4.14-1-17.61-8.24-31.08,16.47-7.84,14.37-27.94,40.6-43.39,60-30.05,13.82-69.17,31.32-83.71,35.72h-9.32c-1.22-2-2.07-3.26-2.07-3.26l-.72.48-.31-.48s-18.3,12.67-36.88,12.77a35,35,0,0,1-7.84-1c-8.54-2.15-14.56-3.11-18.86-3-5.09-.09-8,1.12-9.76,3.4h0a8.926,8.926,0,0,0-.65.94h0a11.056,11.056,0,0,0-.54,1h0c-.16.36-.32.74-.46,1.13a2.32,2.32,0,0,0,.58,1.95,10.413,10.413,0,0,0,.81,1l.52.56c2.34,2.42,6.6,5.63,11.9,9.21,1.53,1,3.15,2.1,4.84,3.19l3.21,2,2.87,1.79,1.15.71,1.28.78,2.29,1.39,1.36.82,2.57,1.53,2.08,1.23c5.44,3.21,10.86,6.32,15.75,9.08L677,695.8l.33.18,2.2,1.23,3.8,2.11,2.61,1.44,1.22.67,1.31.72.26.14,2.28,1.24a3.3,3.3,0,0,0,2.66-.72c.66-2.8,2.27-8.8,4-9.26S706.89,680,709,671.24h20.22a89.113,89.113,0,0,0,11.84-1.82c-5.22,3.72-10.39,6.06-14.41,5.06-8.5-2.11-16.55,3.07-17.36,8.18a1.315,1.315,0,0,1-.1.32c-.03.11-.05.21-.07.31s-.06.25-.08.38a1.705,1.705,0,0,0,0,.32v1.38a2.012,2.012,0,0,0,.1.41c.04.14,0,.18.07.26a5.007,5.007,0,0,0,.22.53l.05.13a5.376,5.376,0,0,0,.38.63l.16.21a4.218,4.218,0,0,0,.33.41l.23.23c.12.12.25.24.38.36l.28.23.45.33.33.22.54.32.36.19.68.32.34.15c.36.15.74.29,1.15.42.65.21,1.42.43,2.29.65l.87.21,1.27.29.67.15q1.3.28,2.76.56l1.35.25,1.1.2,2.53.44c1.58.27,3.23.54,5,.8l4.36.66,5.68.81,1.26.17,2,.28,2.93.39,2,.26h0l5.19.66,1.62.2,3.27.4c4.3.52,8.46,1,12.29,1.43l4.43.5,2.24.25,1,.1,2.68.29,1.49.16,1.84.19,2.59.27h.28l1.66.17h0a1.51,1.51,0,0,0,1.67-1.47h0v-.17a1.46,1.46,0,0,0,.24-.78,34,34,0,0,1,.93-7.32c.11-.41.24-.83.38-1.25l.16-.48c.18-.51.36-1,.57-1.55a11.121,11.121,0,0,0,.39-1.14,1.4,1.4,0,0,1,.11-.37c.04-.13.1-.41.14-.62,2.08-7.11-.43-20.37-1.15-25.58a27.772,27.772,0,0,0-1.14-4.9,2,2,0,0,0,.39,0,11.791,11.791,0,0,0,3-1.63c15.28-5.45,28.16-11.68,32.23-17.92a27.909,27.909,0,0,1,19.68,2.06c7.91,3.93,67.75,23.46,95.61,32.48,5,4.31,8.92,6.83,11.09,6.64,0,0,35.47,5.74,49.73-5.46,1.27.88,2.07,1.35,2.07,1.35s20.72-10.29,23.83-23.68c1-4.34,1.91-10.74,2.84-17.82a25.91,25.91,0,0,0,7.52-18.21c.65-22.48,9.36-48.16,15.82-71,7.84.62,10.87-.86,18.06-4.41l-.32-.41C1076.1,537.52,1076.55,537.32,1077,537.1ZM958.21,570.77l-4-1.33a32.994,32.994,0,0,0,3.45-5.74Zm-22.29,9.46,24,14.4.21,2.93a21,21,0,0,0,.2,6.7c-10.58-9.4-22.96-20.81-24.42-24.04Zm-9.8-21c-2.62-1.08-4.79-2.06-6.28-2.87,2,.14,3.9.26,5.56.35a12.439,12.439,0,0,1,.72,2.52ZM861.84,582.7s4.14-9.26,13.47,6.18c1.45,2.4,4.12,6.22,7.65,10.95L855.8,596.2c3.2-4.96,5.35-9.57,6.04-13.49Z" transform="translate(-82 -144)" fill="url(#linear-gradient-4)"/>
    <path id="Path_523" data-name="Path 523" d="M921.5,545.5s-19-8-34-14-6,14-6,14,25,7,25,8,21,2,21,2Z" transform="translate(-82 -144)" fill="#f7c4a7"/>
    <path id="Path_524" data-name="Path 524" d="M921.5,545.5s-19-8-34-14-6,14-6,14,25,7,25,8,21,2,21,2Z" transform="translate(-82 -144)" opacity="0.05"/>
    <path id="Path_525" data-name="Path 525" d="M1002.5,466.5s-34-18-40,17-25,59-25,59-18,4-25-3c0,0,17,20,9,22,0,0,18,13,26,9s14-31,17-38S978.5,464.5,1002.5,466.5Z" transform="translate(-82 -144)" fill="#575988"/>
    <path id="Path_526" data-name="Path 526" d="M1002.5,466.5s-34-18-40,17-25,59-25,59-18,4-25-3c0,0,17,20,9,22,0,0,18,13,26,9s14-31,17-38S978.5,464.5,1002.5,466.5Z" transform="translate(-82 -144)" opacity="0.1"/>
    <path id="Path_527" data-name="Path 527" d="M983.5,454.5s21,24,22,44,24-21,26-22-20-35-22-46S983.5,454.5,983.5,454.5Z" transform="translate(-82 -144)" fill="#f7c4a7"/>
    <path id="Path_528" data-name="Path 528" d="M916,320.75l-13.25,12L909,358l17-16-2-16Z" fill="#f7c4a7"/>
    <path id="Path_529" data-name="Path 529" d="M639.5,498.5h-23l9,22,22-6Z" fill="#f7c4a7"/>
    <path id="Path_530" data-name="Path 530" d="M703.82,639.33S680,655.92,659.65,650.76s-25.88-3.23-28.25,3.43c-2.19,6.13,56.84,38.55,66.25,43.67a1.08,1.08,0,0,0,1.57-.7c.64-2.72,2.19-8.55,3.85-9,2.16-.58,12-19,11.46-26.24S703.82,639.33,703.82,639.33Z" transform="translate(-82 -144)" opacity="0.1"/>
    <path id="Path_531" data-name="Path 531" d="M702.82,639.33S679,655.92,658.65,650.76s-25.88-3.23-28.25,3.43c-2.19,6.13,56.84,38.55,66.25,43.67a1.08,1.08,0,0,0,1.57-.7c.64-2.72,2.19-8.55,3.85-9,2.16-.58,12-19,11.46-26.24S702.82,639.33,702.82,639.33Z" transform="translate(-82 -144)" fill="#f3b5b7"/>
    <path id="Path_532" data-name="Path 532" d="M899.5,599.5l-67-9s-109,52-122,53l3,23h20c8,0,86-17,97-34a26.78,26.78,0,0,1,19,2c10,5,106,36,106,36Z" transform="translate(-82 -144)" fill="#575988"/>
    <path id="Path_533" data-name="Path 533" d="M899.5,599.5l-67-9s-109,52-122,53l3,23h20c8,0,86-17,97-34a26.78,26.78,0,0,1,19,2c10,5,106,36,106,36Z" transform="translate(-82 -144)" opacity="0.1"/>
    <path id="Path_534" data-name="Path 534" d="M698.5,486.5l-11,14,11,6,16-12Z" fill="#f7c4a7"/>
    <path id="Path_535" data-name="Path 535" d="M971.5,614.5s-36-30.82-38.49-36.41S871.5,534.5,867.5,533.5s-17-8-30,16-61,82-61,82,15,21,20,20,61-48,65-71c0,0,4-9,13,6s67,87,78,86c0,0,43,7,52-10S971.5,614.5,971.5,614.5Z" transform="translate(-82 -144)" fill="#575988"/>
    <path id="Path_536" data-name="Path 536" d="M992,468s-12.5,5.5-13.5,28.5-23,62-23,62l2,46s24,24,26,39,19,25,19,25,20-10,23-23,5-45,10-57,2-87,2-87l-15-26-8-9-21,24S982,475,992,468Z" transform="translate(-82 -144)" fill="#dddbe2"/>
    <path id="Path_537" data-name="Path 537" d="M962.5,589.5s-3-36,6-44l18-51S993,470,992,468s-23.5,19.5-23.5,19.5l-15,53,4,56Z" transform="translate(-82 -144)" opacity="0.1"/>
    <path id="Path_538" data-name="Path 538" d="M961.5,589.5s-3-36,6-44l18-51s7-25,6-27-24,20-24,20l-15,53,4,56Z" transform="translate(-82 -144)" fill="#575988"/>
    <path id="Path_539" data-name="Path 539" d="M968.5,573.5s-50-16-53-20-35-30-46-12,41,23,41,23l53,32Z" transform="translate(-82 -144)" fill="#f7c4a7"/>
    <path id="Path_540" data-name="Path 540" d="M782.67,644.41l-14.8-2.66S743.63,672.8,731,669.65s-24.25,10.44-10.91,14.8c12.05,3.94,64.09,9.45,74,10.47a1.46,1.46,0,0,0,1.61-1.42,31.842,31.842,0,0,1,2.3-11.27c2.67-6.55,0-20.62-.74-26a25.83,25.83,0,0,0-2.91-9Z" transform="translate(-82 -144)" opacity="0.1"/>
    <path id="Path_541" data-name="Path 541" d="M782.42,645.38l-14.8-2.66s-24.24,31.05-36.85,27.91-24.25,10.44-10.91,14.8c12.05,3.94,64.09,9.45,74,10.47a1.46,1.46,0,0,0,1.61-1.42,31.841,31.841,0,0,1,2.21-11.26c2.67-6.55,0-20.62-.74-26a25.832,25.832,0,0,0-2.91-9Z" transform="translate(-82 -144)" fill="#f3b5b7"/>
    <circle id="Ellipse_144" data-name="Ellipse 144" cx="32" cy="32" r="32" transform="translate(877 258)" opacity="0.1"/>
    <circle id="Ellipse_145" data-name="Ellipse 145" cx="32" cy="32" r="32" transform="translate(874 258)" fill="#f7c4a7"/>
    <path id="Path_542" data-name="Path 542" d="M1019.5,465.5s38,13,38,40-21,70-22,105-56,30-56,30-8-118,0-127S1023.5,469.5,1019.5,465.5Z" transform="translate(-82 -144)" fill="#575988"/>
    <path id="Path_543" data-name="Path 543" d="M1012.5,521.5s-14,62-47,51c0,0-17,25-5,36,0,0,29,7,48-12s33-26,36-49,5-55-5-52S1012.5,521.5,1012.5,521.5Z" transform="translate(-82 -144)" opacity="0.1"/>
    <path id="Path_544" data-name="Path 544" d="M1013.5,520.5s-14,62-47,51c0,0-17,25-5,36,0,0,29,7,48-12s33-26,36-49,5-55-5-52S1013.5,520.5,1013.5,520.5Z" transform="translate(-82 -144)" fill="#575988"/>
    <path id="Path_545" data-name="Path 545" d="M798.54,680a.917.917,0,0,1-.09.28,29.278,29.278,0,0,0-1.57,5.29c.24-.78.52-1.58.84-2.38A14.516,14.516,0,0,0,798.54,680Z" transform="translate(-82 -144)" fill="#dddbe2"/>
    <path id="Path_546" data-name="Path 546" d="M720.59,682.51c-4.12-1.35-5.85-3.57-5.92-5.91-1.7,3.26-.63,6.92,5.19,8.82,12.05,3.94,64.1,9.45,74,10.47a1.46,1.46,0,0,0,1.61-1.43h0a1.47,1.47,0,0,0-1.31-1.49C783.3,691.81,732.48,686.39,720.59,682.51Z" transform="translate(-82 -144)" fill="#dddbe2"/>
    <path id="Path_547" data-name="Path 547" d="M631.78,652.43a12.319,12.319,0,0,1,1-2.12,9.75,9.75,0,0,0-2.35,3.88c-2.19,6.13,56.84,38.55,66.25,43.67a1.08,1.08,0,0,0,1.57-.71h0a1.08,1.08,0,0,0-.53-1.2C687.32,690.26,629.62,658.49,631.78,652.43Z" transform="translate(-82 -144)" fill="#dddbe2"/>
    <path id="Path_548" data-name="Path 548" d="M703.44,686.41c-.53.14-1.05.85-1.54,1.82l.16-.06c.44-.12,1.19-1,2.1-2.3a1.942,1.942,0,0,1-.72.54Z" transform="translate(-82 -144)" fill="#dddbe2"/>
    <path id="Path_549" data-name="Path 549" d="M983.56,462.17c-2.82,6.22-3.41,13.23-5.48,19.75-4.11,12.93-14.42,23.63-26.77,27.76,10.39,4.14,22.65-.92,30.68-9.32s12.74-19.58,17.25-30.46c11.66,7.84,10.24,25.86,14.16,39.89a44.24,44.24,0,0,0,23.55,28.15,42.17,42.17,0,0,0,36.07-.73c-10.69-13-25.91-30.93-24.1-48.29,1.47-14.06-8.62-24.8-7.93-38.91,1-20-6.66-30.16-21-43-8.38-7.51,4.81-18.1-6-15-4.25,1.22-8.73-3.33-12.9-1.83-8.26,3-17.28,1.84-25.78,3.84C931.13,404.4,987.68,453.09,983.56,462.17Z" transform="translate(-82 -144)" opacity="0.1"/>
    <path id="Path_550" data-name="Path 550" d="M984.56,461.17c-2.82,6.22-3.41,13.23-5.48,19.75-4.11,12.93-14.42,23.63-26.77,27.76,10.39,4.14,22.65-.92,30.68-9.32s12.74-19.58,17.25-30.46c11.66,7.84,10.24,25.86,14.16,39.89a44.24,44.24,0,0,0,23.55,28.15,42.17,42.17,0,0,0,36.07-.73c-10.69-13-24.91-27.93-23.1-45.29,1.47-14.06-.72-28.51,0-42.61,1-20-8.81-39.32-23.16-52.16-8.38-7.51-21.47-8.47-25.65-7-8.26,3-17.28,1.84-25.78,3.84C932.13,403.4,988.68,452.09,984.56,461.17Z" transform="translate(-82 -144)" fill="#fc6681"/>
  </g>
</svg>
