<?xml version="1.0" encoding="utf-8"?>
<!-- Generator: Adobe Illustrator 23.0.6, SVG Export Plug-In . SVG Version: 6.00 Build 0)  -->
<svg version="1.1" id="svg--internet" xmlns="http://www.w3.org/2000/svg" xmlns:xlink="http://www.w3.org/1999/xlink" x="0px"
	 y="0px" viewBox="0 0 930 515.7" style="enable-background:new 0 0 930 515.7;" xml:space="preserve">
<style type="text/css">
	.st0{opacity:8.800000e-02;fill:#191919;enable-background:new    ;}
	.st1{fill:#EB7A6D;}
	.st2{fill:none;stroke:#535461;stroke-width:2;stroke-miterlimit:10;}
	.st3{opacity:0.2;fill:#F5F5F5;enable-background:new    ;}
	.st4{fill:#535461;}
	.st5{fill:url(#Path_510_1_);}
	.st6{fill:#FFFFFF;}
	.st7{fill:url(#Path_512_1_);}
	.st8{fill:url(#Path_513_1_);}
	.st9{fill:url(#Path_522_1_);}
	.st10{fill:#F7C4A7;}
	.st11{opacity:5.000000e-02;enable-background:new    ;}
	.st12{fill:#575988;}
	.st13{opacity:0.1;enable-background:new    ;}
	.st14{fill:#F3B5B7;}
	.st15{fill:#DDDBE2;}
	.st16{fill:#FC6681;}
</style>
<ellipse id="svg--internet_x5F__x5F_floor" class="st0" cx="465" cy="391.2" rx="465" ry="124.5"/>
<g id="svg--internet_x5F__x5F_leafs">
	<g id="svg--internet_x5F__x5F_leafs-one">
		<path id="Path_505" class="st1" d="M851.2,90.6c0,0-35.8,35.8-15.6,89c20.2,53.2-34.7,141.6-34.7,141.6s0.6-0.1,1.7-0.3
			c73.6-13,110.2-97.2,69.2-159.7C856.6,138,844.1,110.7,851.2,90.6z"/>
		<path id="Path_506" class="st2" d="M851.2,90.6c0,0-20.2,43.9,0,79.8s3.5,136.4-50.3,150.8"/>
	</g>
	<g id="svg--internet_x5F__x5F_leafs--two">
		<path id="Path_507" class="st1" d="M915,235.5c0,0-40.9-6.5-44.6,30.1s-78.6,41.7-78.6,41.7l1.4,0.9c61.8,40.6,121,25.9,112-28
			C901.9,260.2,902.2,240.1,915,235.5z"/>
		<path id="Path_508" class="st3" d="M915,235.5c0,0-40.9-6.5-44.6,30.1s-78.6,41.7-78.6,41.7l1.4,0.9c61.8,40.6,121,25.9,112-28
			C901.9,260.2,902.2,240.1,915,235.5z"/>
		<path id="Path_509" class="st2" d="M915,235.5c0,0-31.7,7-29.1,35.8s-47.1,63.4-94.1,36"/>
	</g>
</g>
<g id="svg--internet_x5F__x5F_device--one">
	<rect id="zaslepka" x="419" y="327.2" class="st4" width="139.9" height="14.6"/>
	
		<linearGradient id="Path_510_1_" gradientUnits="userSpaceOnUse" x1="-950.0959" y1="3085.2478" x2="-950.0959" y2="3086.2478" gradientTransform="matrix(678.02 0 0 -365.72 644671.125 1128702.5)">
		<stop  offset="0" style="stop-color:#808080;stop-opacity:0.251"/>
		<stop  offset="0.54" style="stop-color:#808080;stop-opacity:0.122"/>
		<stop  offset="1" style="stop-color:#808080;stop-opacity:0.102"/>
	</linearGradient>
	<path id="Path_510" class="st5" d="M820.4,323.6h-64.2c1.5-3,2.2-6.2,2.2-9.6V21.5c0-11.9-9.6-21.5-21.5-21.5l0,0H239.5
		C227.6,0,218,9.6,218,21.5c0,0,0,0,0,0v292.6c0,3.3,0.8,6.6,2.2,9.6h-66.5c-3.1,0-5.7,2.5-5.7,5.7l0,0v4.6
		c0,17.6,14.3,31.8,31.8,31.8h614.4c17.6,0,31.8-14.2,31.8-31.8l0,0v-4.6C826,326.2,823.5,323.6,820.4,323.6z M424.5,341.8l-5.5-6.3
		h136.7l-6.1,6.3L424.5,341.8z"/>
	<path id="Rectangle_465" class="st4" d="M247.4,4.1H729c12.8,0,23.3,10.4,23.3,23.3v281.5c0,12.8-10.4,23.3-23.3,23.3H247.4
		c-12.8,0-23.3-10.4-23.3-23.3V27.4C224.1,14.6,234.5,4.1,247.4,4.1z"/>
	<rect id="Rectangle_466" x="235.2" y="51.9" class="st6" width="504.8" height="268"/>
	<circle id="Ellipse_139" class="st6" cx="487.6" cy="28.6" r="4.4"/>
	<path id="Path_511" class="st4" d="M565.5,320.4l-17.3,17.8H425.9l-15.7-17.8H161.3c-3.1,0-5.6,2.5-5.6,5.6v4.5
		c0,17.2,13.9,31.1,31.1,31.1h600.5c17.2,0,31.1-13.9,31.1-31.1V326c0-3.1-2.5-5.6-5.6-5.6L565.5,320.4z"/>
</g>
<g id="svg--internet_x5F__x5F_device--two">
	
		<linearGradient id="Path_512_1_" gradientUnits="userSpaceOnUse" x1="-947.722" y1="3084.5779" x2="-947.722" y2="3085.5779" gradientTransform="matrix(251.99 0 0 -333.96 239102.4219 1030521)">
		<stop  offset="0" style="stop-color:#808080;stop-opacity:0.251"/>
		<stop  offset="0.54" style="stop-color:#808080;stop-opacity:0.122"/>
		<stop  offset="1" style="stop-color:#808080;stop-opacity:0.102"/>
	</linearGradient>
	<path id="Path_512" class="st7" d="M392.4,61.4H179.5c-10.8,0-19.5,8.7-19.5,19.5v295c0,10.8,8.8,19.5,19.5,19.5h212.9
		c10.8,0,19.5-8.7,19.5-19.5v-295C411.9,70.1,403.2,61.4,392.4,61.4z"/>
	<path id="Rectangle_467" class="st4" d="M182.9,65.4h206c11,0,20,9,20,20v287c0,11-9,20-20,20h-206c-11,0-20-9-20-20v-287
		C162.9,74.3,171.9,65.4,182.9,65.4z"/>
	<rect id="Rectangle_468" x="175.4" y="96.3" class="st6" width="221" height="265.1"/>
	<circle id="Ellipse_140" class="st6" cx="284.9" cy="80.4" r="3"/>
	<circle id="Ellipse_141" class="st6" cx="284.9" cy="376.4" r="9"/>
</g>
<g id="svg--internet_x5F__x5F_device--three">
	
		<linearGradient id="Path_513_1_" gradientUnits="userSpaceOnUse" x1="-944.2322" y1="3082.4216" x2="-944.2322" y2="3083.4216" gradientTransform="matrix(130.99 0 0 -261 123860.3906 804934.4375)">
		<stop  offset="0" style="stop-color:#808080;stop-opacity:0.251"/>
		<stop  offset="0.54" style="stop-color:#808080;stop-opacity:0.122"/>
		<stop  offset="1" style="stop-color:#808080;stop-opacity:0.102"/>
	</linearGradient>
	<path id="Path_513" class="st8" d="M230.1,161.4H120.8c-6,0-10.8,4.8-10.8,10.8v0v239.4c0,6,4.9,10.8,10.8,10.8l0,0h109.3
		c6,0,10.8-4.8,10.8-10.8l0,0V172.2C240.9,166.2,236.1,161.4,230.1,161.4L230.1,161.4z"/>
	<path id="Rectangle_469" class="st4" d="M121.9,163.4h107c6.1,0,11,4.9,11,11v236c0,6.1-4.9,11-11,11h-107c-6.1,0-11-4.9-11-11
		v-236C110.9,168.3,115.9,163.4,121.9,163.4z"/>
	<rect id="Rectangle_470" x="120.4" y="187.4" class="st6" width="110" height="210"/>
	<circle id="Ellipse_142" class="st6" cx="162.4" cy="175.4" r="1"/>
	<path id="Rectangle_471" class="st6" d="M168.4,174.4h20c0.6,0,1,0.4,1,1l0,0c0,0.6-0.4,1-1,1h-20c-0.6,0-1-0.4-1-1l0,0
		C167.4,174.8,167.9,174.4,168.4,174.4z"/>
	<circle id="Ellipse_143" class="st6" cx="174.9" cy="407.4" r="7"/>
</g>
<g id="svg--internet_x5F__x5F_plant">
	<path id="Path_514" class="st2" d="M97.7,440c0,0-13.3-45,2.5-78.1c6.7-13.9,8.7-29.5,5.8-44.6c-1.5-7.2-3.6-14.2-6.3-20.9"/>
	<path id="Path_515" class="st1" d="M109.5,275.3c0,5.5-10,21.5-10,21.5s-10-16-10-21.5c0-5.5,4.5-10,10-10S109.5,269.8,109.5,275.3
		z"/>
	<path id="Path_516" class="st1" d="M126,305.9c-3,4.6-20.1,12.6-20.1,12.6s0.3-18.9,3.3-23.5c2.8-4.8,8.9-6.4,13.7-3.6
		s6.4,8.9,3.6,13.7C126.3,305.4,126.2,305.7,126,305.9z"/>
	<path id="Path_517" class="st1" d="M125.2,358.1c-4.9,2.5-23.7,0.8-23.7,0.8s9.8-16.1,14.7-18.6c5-2.3,11,0,13.2,5
		C131.6,350,129.8,355.6,125.2,358.1L125.2,358.1z"/>
	<path id="Path_518" class="st1" d="M115.8,397.5c-4.4,3.3-23.2,4.8-23.2,4.8s6.9-17.5,11.4-20.8c4.6-3.1,10.8-1.8,13.9,2.8
		C120.6,388.5,119.8,394.3,115.8,397.5z"/>
	<path id="Path_519" class="st1" d="M84.9,319.6c4,3.8,22.4,7.8,22.4,7.8s-4.5-18.3-8.5-22.2c-3.8-4-10.1-4.2-14.1-0.5
		s-4.2,10.1-0.5,14.1C84.5,319.2,84.7,319.4,84.9,319.6L84.9,319.6z"/>
	<path id="Path_520" class="st1" d="M74.5,365.8c4.9,2.5,23.7,0.8,23.7,0.8s-9.8-16.1-14.7-18.6c-4.8-2.7-10.9-1-13.6,3.8
		c-2.7,4.8-1,10.9,3.8,13.6C73.9,365.6,74.2,365.7,74.5,365.8L74.5,365.8z"/>
	<path id="Path_521" class="st1" d="M70.5,412.1c4.4,3.3,23.2,4.8,23.2,4.8s-6.9-17.5-11.4-20.8c-4.6-3.1-10.8-1.8-13.9,2.8
		C65.6,403.1,66.5,408.9,70.5,412.1z"/>
</g>
<g id="svg--internet_x5F__x5F_woman">
	
		<linearGradient id="Path_522_1_" gradientUnits="userSpaceOnUse" x1="-949.4061" y1="3084.1924" x2="-949.4061" y2="3085.1924" gradientTransform="matrix(454.6616 0 0 -318.0687 432320.1875 981448.375)">
		<stop  offset="0" style="stop-color:#808080;stop-opacity:0.251"/>
		<stop  offset="0.54" style="stop-color:#808080;stop-opacity:0.122"/>
		<stop  offset="1" style="stop-color:#808080;stop-opacity:0.102"/>
	</linearGradient>
	<path id="Path_522" class="st9" d="M889,296.8c-11.1-13.4-24.5-28.9-22.6-46.7c1.5-14.5-2.1-27.9-1.4-42.4c1-20.6-3.1-36.8-18-50
		c-8.7-7.7-23.2-13.8-27.5-12.3c-8.6,3.1-17.9,1.9-26.7,4c-6.7,1.6-11.1,4-13.9,7c-5.5,5-5.6,12-3.1,19.5
		c-8.7,15.9-2.8,35.9,13.1,44.6c1,0.6,2.1,1.1,3.1,1.5c-6.2,2.6-11.5,8.5-13.6,20.6c-1.4,8.3-3.6,16.4-6.5,24.3
		c-1.3,0.6-2.6,1.1-4,1.6c0.3,0.1,0.6,0.2,0.9,0.3c-0.7,0.3-1.3,0.5-2,0.7c1.2,0.5,2.4,0.8,3.7,1.1c-8,20.2-18,32.7-18,32.7
		s-18.7,4.1-25.9-3.1c0,0,1.2,1.4,2.8,3.5c-7.1-2.9-18.7-7.7-28.7-11.7c-7.2-2.9-9.1,0-9,4c-1.8,0.2-3.5,0.8-5,1.7
		c-2.1-1.4-4.4-2.6-6.7-3.6c-4.1-1-17.6-8.2-31.1,16.5c-7.8,14.4-27.9,40.6-43.4,60c-30,13.8-69.2,31.3-83.7,35.7h-9.3
		c-1.2-2-2.1-3.3-2.1-3.3l-0.7,0.5l-0.3-0.5c0,0-18.3,12.7-36.9,12.8c-2.6,0-5.3-0.4-7.8-1c-8.5-2.2-14.6-3.1-18.9-3
		c-5.1-0.1-8,1.1-9.8,3.4l0,0c-0.2,0.3-0.5,0.6-0.7,0.9l0,0c-0.2,0.3-0.4,0.7-0.5,1l0,0c-0.2,0.4-0.3,0.7-0.5,1.1
		c-0.1,0.7,0.1,1.4,0.6,2c0.2,0.3,0.5,0.7,0.8,1l0.5,0.6c2.3,2.4,6.6,5.6,11.9,9.2c1.5,1,3.2,2.1,4.8,3.2l3.2,2l2.9,1.8l1.2,0.7
		l1.3,0.8l2.3,1.4l1.4,0.8l2.6,1.5l2.1,1.2c5.4,3.2,10.9,6.3,15.8,9.1l3.4,2l0.3,0.2l2.2,1.2l3.8,2.1l2.6,1.4l1.2,0.7l1.3,0.7
		l0.3,0.1l2.3,1.2c0.9,0.2,1.9-0.1,2.7-0.7c0.7-2.8,2.3-8.8,4-9.3s9.2-13.5,11.3-22.3h20.2c4-0.3,7.9-0.9,11.8-1.8
		c-5.2,3.7-10.4,6.1-14.4,5.1c-8.5-2.1-16.5,3.1-17.4,8.2c0,0.1-0.1,0.2-0.1,0.3c0,0.1,0,0.2-0.1,0.3s-0.1,0.3-0.1,0.4
		c0,0.1,0,0.2,0,0.3v1.4c0,0.1,0.1,0.3,0.1,0.4c0,0.1,0,0.2,0.1,0.3c0.1,0.2,0.1,0.4,0.2,0.5l0,0.1c0.1,0.2,0.2,0.4,0.4,0.6l0.2,0.2
		c0.1,0.1,0.2,0.3,0.3,0.4l0.2,0.2c0.1,0.1,0.3,0.2,0.4,0.4l0.3,0.2l0.5,0.3l0.3,0.2l0.5,0.3l0.4,0.2l0.7,0.3l0.3,0.2
		c0.4,0.2,0.7,0.3,1.2,0.4c0.7,0.2,1.4,0.4,2.3,0.7l0.9,0.2l1.3,0.3l0.7,0.2c0.9,0.2,1.8,0.4,2.8,0.6l1.3,0.3l1.1,0.2l2.5,0.4
		c1.6,0.3,3.2,0.5,5,0.8l4.4,0.7l5.7,0.8l1.3,0.2l2,0.3l2.9,0.4l2,0.3l0,0l5.2,0.7l1.6,0.2l3.3,0.4c4.3,0.5,8.5,1,12.3,1.4l4.4,0.5
		l2.2,0.3l1,0.1l2.7,0.3l1.5,0.2l1.8,0.2l2.6,0.3h0.3l1.7,0.2l0,0c0.8,0.1,1.6-0.5,1.7-1.3c0,0,0-0.1,0-0.1l0,0v-0.2
		c0.2-0.2,0.2-0.5,0.2-0.8c0-2.5,0.4-4.9,0.9-7.3c0.1-0.4,0.2-0.8,0.4-1.3l0.2-0.5c0.2-0.5,0.4-1,0.6-1.5c0.2-0.4,0.3-0.8,0.4-1.1
		c0-0.1,0.1-0.3,0.1-0.4c0-0.1,0.1-0.4,0.1-0.6c2.1-7.1-0.4-20.4-1.2-25.6c-0.2-1.7-0.6-3.3-1.1-4.9c0.1,0,0.3,0,0.4,0
		c1.1-0.4,2.1-0.9,3-1.6c15.3-5.5,28.2-11.7,32.2-17.9c6.6-1.7,13.6-1,19.7,2.1c7.9,3.9,67.8,23.5,95.6,32.5c5,4.3,8.9,6.8,11.1,6.6
		c0,0,35.5,5.7,49.7-5.5c1.3,0.9,2.1,1.3,2.1,1.3s20.7-10.3,23.8-23.7c1-4.3,1.9-10.7,2.8-17.8c4.8-4.8,7.5-11.4,7.5-18.2
		c0.7-22.5,9.4-48.2,15.8-71c7.8,0.6,10.9-0.9,18.1-4.4l-0.3-0.4C888.1,297.2,888.6,297,889,296.8z M770.2,330.5l-4-1.3
		c1.3-1.8,2.5-3.7,3.5-5.7L770.2,330.5z M747.9,339.9l24,14.4l0.2,2.9c-0.3,2.2-0.2,4.5,0.2,6.7
		C761.8,354.6,749.4,343.2,747.9,339.9L747.9,339.9z M738.1,318.9c-2.6-1.1-4.8-2.1-6.3-2.9c2,0.1,3.9,0.3,5.6,0.3
		C737.7,317.2,738,318.1,738.1,318.9L738.1,318.9z M673.8,342.4c0,0,4.1-9.3,13.5,6.2c1.5,2.4,4.1,6.2,7.7,11l-27.2-3.6
		C671,351,673.1,346.3,673.8,342.4L673.8,342.4z"/>
	<path id="Path_523" class="st10" d="M733.5,305.2c0,0-19-8-34-14s-6,14-6,14s25,7,25,8s21,2,21,2L733.5,305.2z"/>
	<path id="Path_524" class="st11" d="M733.5,305.2c0,0-19-8-34-14s-6,14-6,14s25,7,25,8s21,2,21,2L733.5,305.2z"/>
	<path id="Path_525" class="st12" d="M814.5,226.2c0,0-34-18-40,17s-25,59-25,59s-18,4-25-3c0,0,17,20,9,22c0,0,18,13,26,9
		s14-31,17-38S790.5,224.2,814.5,226.2z"/>
	<path id="Path_526" class="st13" d="M814.5,226.2c0,0-34-18-40,17s-25,59-25,59s-18,4-25-3c0,0,17,20,9,22c0,0,18,13,26,9
		s14-31,17-38S790.5,224.2,814.5,226.2z"/>
	<path id="Path_527" class="st10" d="M795.5,214.2c0,0,21,24,22,44s24-21,26-22s-20-35-22-46S795.5,214.2,795.5,214.2z"/>
	<path id="Path_528" class="st10" d="M810,224.5l-13.3,12l6.3,25.3l17-16l-2-16L810,224.5z"/>
	<path id="Path_529" class="st10" d="M533.5,402.2h-23l9,22l22-6L533.5,402.2z"/>
	<path id="Path_530" class="st13" d="M515.8,399c0,0-23.8,16.6-44.2,11.4s-25.9-3.2-28.3,3.4c-2.2,6.1,56.8,38.5,66.3,43.7
		c0.5,0.3,1.2,0.1,1.5-0.4c0-0.1,0.1-0.2,0.1-0.3c0.6-2.7,2.2-8.5,3.8-9c2.2-0.6,12-19,11.5-26.2S515.8,399,515.8,399z"/>
	<path id="Path_531" class="st14" d="M514.8,399c0,0-23.8,16.6-44.2,11.4s-25.9-3.2-28.3,3.4c-2.2,6.1,56.8,38.5,66.3,43.7
		c0.5,0.3,1.2,0.1,1.5-0.4c0-0.1,0.1-0.2,0.1-0.3c0.6-2.7,2.2-8.5,3.8-9c2.2-0.6,12-19,11.5-26.2S514.8,399,514.8,399z"/>
	<path id="Path_532" class="st12" d="M711.5,359.2l-67-9c0,0-109,52-122,53l3,23h20c8,0,86-17,97-34c6.4-1.7,13.1-1,19,2
		c10,5,106,36,106,36L711.5,359.2z"/>
	<path id="Path_533" class="st13" d="M711.5,359.2l-67-9c0,0-109,52-122,53l3,23h20c8,0,86-17,97-34c6.4-1.7,13.1-1,19,2
		c10,5,106,36,106,36L711.5,359.2z"/>
	<path id="Path_534" class="st10" d="M592.5,390.2l-11,14l11,6l16-12L592.5,390.2z"/>
	<path id="Path_535" class="st12" d="M783.5,374.2c0,0-36-30.8-38.5-36.4s-61.5-43.6-65.5-44.6s-17-8-30,16s-61,82-61,82
		s15,21,20,20s61-48,65-71c0,0,4-9,13,6s67,87,78,86c0,0,43,7,52-10S783.5,374.2,783.5,374.2z"/>
	<path id="Path_536" class="st15" d="M804,227.7c0,0-12.5,5.5-13.5,28.5s-23,62-23,62l2,46c0,0,24,24,26,39s19,25,19,25s20-10,23-23
		s5-45,10-57s2-87,2-87l-15-26l-8-9l-21,24C805.5,250.2,794,234.7,804,227.7z"/>
	<path id="Path_537" class="st13" d="M774.5,349.2c0,0-3-36,6-44l18-51c0,0,6.5-24.5,5.5-26.5s-23.5,19.5-23.5,19.5l-15,53l4,56
		L774.5,349.2z"/>
	<path id="Path_538" class="st12" d="M773.5,349.2c0,0-3-36,6-44l18-51c0,0,7-25,6-27s-24,20-24,20l-15,53l4,56L773.5,349.2z"/>
	<path id="Path_539" class="st10" d="M780.5,333.2c0,0-50-16-53-20s-35-30-46-12s41,23,41,23l53,32L780.5,333.2z"/>
	<path id="Path_540" class="st13" d="M594.7,404.1l-14.8-2.7c0,0-24.2,31-36.9,27.9s-24.3,10.4-10.9,14.8c12,3.9,64.1,9.5,74,10.5
		c0.8,0.1,1.5-0.5,1.6-1.3c0,0,0-0.1,0-0.1c0.1-3.9,0.9-7.7,2.3-11.3c2.7-6.5,0-20.6-0.7-26c-0.4-3.2-1.4-6.2-2.9-9L594.7,404.1z"/>
	<path id="Path_541" class="st14" d="M594.4,405.1l-14.8-2.7c0,0-24.2,31-36.8,27.9s-24.3,10.4-10.9,14.8c12,3.9,64.1,9.5,74,10.5
		c0.8,0.1,1.5-0.5,1.6-1.3c0,0,0-0.1,0-0.1c0-3.9,0.8-7.7,2.2-11.3c2.7-6.5,0-20.6-0.7-26c-0.4-3.2-1.4-6.2-2.9-9L594.4,405.1z"/>
	<circle id="Ellipse_144" class="st13" cx="803" cy="193.7" r="32"/>
	<circle id="Ellipse_145" class="st10" cx="800" cy="193.7" r="32"/>
	<path id="Path_542" class="st12" d="M831.5,225.2c0,0,38,13,38,40s-21,70-22,105s-56,30-56,30s-8-118,0-127
		S835.5,229.2,831.5,225.2z"/>
	<path id="Path_543" class="st13" d="M824.5,281.2c0,0-14,62-47,51c0,0-17,25-5,36c0,0,29,7,48-12s33-26,36-49s5-55-5-52
		C841.5,258.2,824.5,281.2,824.5,281.2z"/>
	<path id="Path_544" class="st12" d="M825.5,280.2c0,0-14,62-47,51c0,0-17,25-5,36c0,0,29,7,48-12s33-26,36-49s5-55-5-52
		C842.5,257.2,825.5,280.2,825.5,280.2z"/>
	<path id="Path_545" class="st15" d="M610.5,439.7c0,0.1,0,0.2-0.1,0.3c-0.7,1.7-1.2,3.5-1.6,5.3c0.2-0.8,0.5-1.6,0.8-2.4
		C610.1,441.9,610.4,440.8,610.5,439.7z"/>
	<path id="Path_546" class="st15" d="M532.6,442.2c-4.1-1.3-5.8-3.6-5.9-5.9c-1.7,3.3-0.6,6.9,5.2,8.8c12,3.9,64.1,9.5,74,10.5
		c0.8,0.1,1.5-0.5,1.6-1.3c0,0,0-0.1,0-0.1l0,0c0-0.8-0.6-1.4-1.3-1.5C595.3,451.5,544.5,446.1,532.6,442.2z"/>
	<path id="Path_547" class="st15" d="M443.8,412.1c0.3-0.7,0.6-1.4,1-2.1c-1.1,1.1-1.9,2.4-2.3,3.9c-2.2,6.1,56.8,38.5,66.3,43.7
		c0.5,0.3,1.2,0.1,1.5-0.4c0-0.1,0.1-0.2,0.1-0.3l0,0c0.1-0.5-0.1-1-0.5-1.2C499.3,450,441.6,418.2,443.8,412.1z"/>
	<path id="Path_548" class="st15" d="M515.4,446.1c-0.5,0.1-1,0.8-1.5,1.8l0.2-0.1c0.4-0.1,1.2-1,2.1-2.3
		C516,445.8,515.7,446,515.4,446.1z"/>
	<path id="Path_549" class="st13" d="M795.6,221.9c-2.8,6.2-3.4,13.2-5.5,19.8c-4.1,12.9-14.4,23.6-26.8,27.8
		c10.4,4.1,22.7-0.9,30.7-9.3c8-8.4,12.7-19.6,17.3-30.5c11.7,7.8,10.2,25.9,14.2,39.9c3.4,12.4,12,22.6,23.5,28.2
		c11.5,5.2,24.8,4.9,36.1-0.7c-10.7-13-25.9-30.9-24.1-48.3c1.5-14.1-8.6-24.8-7.9-38.9c1-20-6.7-30.2-21-43c-8.4-7.5,4.8-18.1-6-15
		c-4.3,1.2-8.7-3.3-12.9-1.8c-8.3,3-17.3,1.8-25.8,3.8C743.1,164.1,799.7,212.8,795.6,221.9z"/>
	<path id="Path_550" class="st16" d="M796.6,220.9c-2.8,6.2-3.4,13.2-5.5,19.8c-4.1,12.9-14.4,23.6-26.8,27.8
		c10.4,4.1,22.7-0.9,30.7-9.3c8-8.4,12.7-19.6,17.3-30.5c11.7,7.8,10.2,25.9,14.2,39.9c3.4,12.4,12,22.6,23.5,28.2
		c11.5,5.2,24.8,4.9,36.1-0.7c-10.7-13-24.9-27.9-23.1-45.3c1.5-14.1-0.7-28.5,0-42.6c1-20-8.8-39.3-23.2-52.2
		c-8.4-7.5-21.5-8.5-25.7-7c-8.3,3-17.3,1.8-25.8,3.8C744.1,163.1,800.7,211.8,796.6,220.9z"/>
</g>
</svg>
