<svg id="Warstwa_1" data-name="Warstwa 1" xmlns="http://www.w3.org/2000/svg" viewBox="0 0 408.11 111.7"><title>logo</title><g id="Component_1" data-name="Component 1"><path id="Path_1" data-name="Path 1" d="M42.13,41.39h7.36a4.16,4.16,0,0,1,0,8.29H42.13Zm0,16.57h7.36a4.06,4.06,0,0,1,4.16,4,.76.76,0,0,1,0,.15,4.12,4.12,0,0,1-4.07,4.17H42.13ZM69.2,33.11h0V74.52H90.63V66.24H77.48V33.11ZM95.72,74.52h9.39l1.62-4.46h13.73l1.68,4.46h9.32L114,31.6h-.87Zm14-12.22,3.88-10.77,3.77,10.77Zm51.42-19.58h0l1-8.51A20.09,20.09,0,0,0,154,32.59c-28,0-28.1,42.05,0,42.05a26.43,26.43,0,0,0,9.09-1.74L162,64.33a17.71,17.71,0,0,1-8,1.85c-16.4,0-16.4-25.25,0-25.25a14.09,14.09,0,0,1,7.18,1.8Zm9.07,31.8h8.28V58.31l11,16.22h10.26l-14.6-21,13.44-20.45h-9.68L178.51,49.62V33.11h-8.28Zm86.64-41.38V74.79h-2.1V33.14Zm33.77,0V74.79h-2.16V33.14ZM212.07,59.35h2.54l.16.26a10.55,10.55,0,0,0,3.8,3.62,10.45,10.45,0,0,0,12.54-1.84,11,11,0,0,0,0-15.32,10.44,10.44,0,0,0-16.33,1.76l-.17.26h-2.56a5.06,5.06,0,0,1,.68-1.54,12.73,12.73,0,0,1,4.4-4.23,12.86,12.86,0,0,1,15.69,2.1,13.3,13.3,0,0,1,0,18.67,12.8,12.8,0,0,1-15.68,2.09,13.29,13.29,0,0,1-4.71-4.74,4.67,4.67,0,0,1-.37-1.09ZM33.79,74.53V33.11H50.18c7.35,0,11.93,5.27,11.76,12.54-.12,3.11-1.22,6.34-3.83,8.14a10,10,0,0,1,4.29,8.28A12.3,12.3,0,0,1,50.23,74.52H33.79ZM295.88,33.14h2.5l14.06,22.31h0a1.21,1.21,0,0,1,.16.53V74.41a1.5,1.5,0,0,1,0,.2l0,.17h-2.1l0-.17a1.5,1.5,0,0,1,0-.2V56.33L296.26,33.68l0,0h0Zm39.61,0H333L318.87,55.47l0,.05a1.52,1.52,0,0,0-.07.52V74.41a1.41,1.41,0,0,0,0,.2l0,.18h2l0-.18c0-.07,0-.14,0-.2V56.33l14.3-22.66.05-.11ZM375.58,74h0l.47.77h-2.5L360,53a1.15,1.15,0,0,1,0-1.12l11.67-18.7h2.53l-.34.48L362.21,52.41l13.3,21.5.07.11Zm-38.18-.16h0l-.57.93h2.51L352.87,53a1.12,1.12,0,0,0,0-1.08L341.2,33.15h-2.52l.3.43h0L350.69,52.4ZM270.5,56l-.5-.72-5-7.15v0l-.09-.09L263,45.32V55h0V74.79h2.15V52.14l15.72,22.65h2.6c-.12-.22-.25-.42-.4-.65h0v0h0l-.15-.24h0L270.49,56Zm4.44-4.27,7.47,10.65V33.14h-2.17V55.5L264.58,33.14h-2.52l.34.49h0a.5.5,0,0,0,.08.12l12.46,17.9Zm41.58-3.55-.87,1.49-.9-1.56,0-.06-8.39-14.35,0,0h0l-.34-.49h2.47l7.2,12.23,7.2-12.23h2.59l-.33.48,0,0L316.6,48a.76.76,0,0,1-.08.11Zm41.17-4-1.24,2.13-.94-1.63h0l-6.87-11.09-.31-.44h2.61l5.54,9,5.49-9h2.61l-.34.49Zm.43,18.07v0l-1.67-2.87L355,61.93l-7.39,12-.05.07h0l-.47.77h2.46l7-11.16,6.9,11.16h2.46l-.48-.77h0l0-.07Zm-114-14.16h-2.27l-.13-.38a18.65,18.65,0,0,0-6.92-9.2A19.33,19.33,0,0,0,223.64,35a18.77,18.77,0,1,0-.95,37.52c.31,0,.63,0,.95,0A19.2,19.2,0,0,0,234.77,69a18.71,18.71,0,0,0,6.92-9.27l.13-.38h2.53l-.24.75a21.17,21.17,0,0,1-7.78,10.72,21.63,21.63,0,0,1-12.69,4.12,21.18,21.18,0,0,1-.92-42.36h.92a21.72,21.72,0,0,1,12.68,4.12,21.13,21.13,0,0,1,7.79,10.66l.24.73Z" fill="#343333" fill-rule="evenodd"/><path id="Path_2" data-name="Path 2" d="M.83,0H408.11V107.49H374.79v-1.67h31.66V1.66H1.66V105.82H33.88v1.67H0V0Z" fill="#e65550"/><path id="Path_3" data-name="Path 3" d="M344.1,111.47h2.08v-4.71l3.66-5.76h-2.56l-2.14,3.6L343,101h-2.54l3.64,5.76Zm-12.8-8h0l.24-2.15a5,5,0,0,0-2.06-.41c-7.09,0-7.1,10.63,0,10.63a6.66,6.66,0,0,0,2.3-.44l-.28-2.16a4.57,4.57,0,0,1-2,.47c-4.14,0-4.14-6.39,0-6.39A3.61,3.61,0,0,1,331.3,103.43Zm-23,2.35h0l5.3,5.91h.56V101h-2.11v5.91l-5.29-6.15h-.55v10.69h2.09Zm-12.15,5.7h0v-2.1h-3.32v-2.1h2.75v-2.09h-2.75V103.1H296V101h-5.24v10.47Zm-15.81-.65h0v-4.6h-2.12v3.15a5.61,5.61,0,0,1-.59.06c-4,0-4.23-6.25,0-6.4a5,5,0,0,1,2.2.38l.25-2.13a7.46,7.46,0,0,0-2.44-.38c-7.27.27-6.92,10.62,0,10.62a5.47,5.47,0,0,0,2.71-.7Zm-22.26-2.44,1-2.73.95,2.73Zm-3.55,3.09h2.37l.42-1.13h3.47l.42,1.13h2.36l-4.41-10.86H259Zm-18.5-.65h0v-4.6h-2.12v3.15a5.9,5.9,0,0,1-.59.06c-4,0-4.23-6.25,0-6.4a5,5,0,0,1,2.2.38l.25-2.13a7.5,7.5,0,0,0-2.44-.38c-7.27.27-6.92,10.62,0,10.62a5.37,5.37,0,0,0,2.71-.7Zm-23.86-5h0l5.3,5.91H218V101h-2.11v5.91l-5.28-6.15h-.56v10.69h2.09Zm-12.55,5.7V101h-2.08v10.47Zm-18.41-.68a6.54,6.54,0,0,0,3.31.77,3.11,3.11,0,0,0,3.16-3v-.13c0-1.67-1.41-2.61-3-3.21-.6-.2-1.11-.47-1.17-1.05a1,1,0,0,1,.89-1.17h.15a4.81,4.81,0,0,1,2.14.44l.26-2a6.3,6.3,0,0,0-2.61-.44,3.08,3.08,0,0,0-3,3.18v0c0,1.75,1.47,2.59,3.1,3.19.59.2,1,.47,1.09,1.07a1.06,1.06,0,0,1-1.06,1h0a4.65,4.65,0,0,1-3-.83Zm-10,.68V101h-2.1v10.47Zm-14.38,0v-8.39h2.61V101h-7.31v2.07h2.61v8.4Zm-18.8-8.38h1.85a1.18,1.18,0,0,1,0,2.34h-1.85Zm5.5,8.38h0l-2.44-4.32c3.08-.9,2.71-6.15-1-6.15H136v10.47h2.09v-4h1l2.11,4Zm-17.65,0h0v-2.1h-3.32v-2.1h2.75v-2.09h-2.75V103.1h3.15V101h-5.24v10.47Zm-19.11.22L111.16,101h-2.42l-1.41,3.56-.74,2.09-.77-2.17L104.43,101H102l4.33,10.69Zm-19-8.6c4.07,0,4.07,6.28,0,6.28h-1V103.1Zm0-2.1H84.7v10.47h3.12c7,0,7-10.46,0-10.46Zm-18.16,7.38,1-2.72,1,2.72Zm-3.55,3.09h2.37l.42-1.13h3.46l.42,1.13h2.36l-4.41-10.85h-.22Z" fill="#e65550"/></g></svg>