<svg xmlns="http://www.w3.org/2000/svg" xmlns:xlink="http://www.w3.org/1999/xlink" width="308" height="84.294" viewBox="0 0 308 84.294">
  <defs>
    <clipPath id="clip-path">
      <rect width="308" height="84.294" fill="none"/>
    </clipPath>
  </defs>
  <g id="Logo_2" data-name="Logo – 2" clip-path="url(#clip-path)">
    <path id="Path_1" data-name="Path 1" d="M818.094,166.275h5.553a3.136,3.136,0,0,1,0,6.251h-5.553Zm0,12.5h5.553a3.07,3.07,0,0,1,3.146,3.1,3.106,3.106,0,0,1-3.146,3.147h-5.553Zm20.43-18.754h0V191.28H854.7v-6.251h-9.922v-25Zm20.019,31.256h7.082l1.225-3.367h10.36l1.268,3.367h7.037l-13.156-32.391H871.7Zm10.579-9.224,2.928-8.131,2.841,8.131Zm38.8-14.775h0l.743-6.426a15.192,15.192,0,0,0-6.163-1.224c-21.157,0-21.2,31.736,0,31.736a19.945,19.945,0,0,0,6.862-1.312l-.829-6.469a13.4,13.4,0,0,1-6.033,1.4c-12.37,0-12.37-19.058,0-19.058A10.625,10.625,0,0,1,907.925,167.281Zm6.848,24h6.251V179.041l8.305,12.239h7.739l-11.017-15.824,10.142-15.432h-7.3l-7.868,12.459V160.024h-6.251Zm65.386-31.231-.009,31.43h-1.584l-.005-.2V160.049Zm25.485,0-.01,31.43h-1.626l-.005-.2V160.049Zm-59.3,19.778h1.917l.124.2a7.946,7.946,0,0,0,2.871,2.729,7.882,7.882,0,0,0,9.466-1.388,8.285,8.285,0,0,0,0-11.561,7.883,7.883,0,0,0-12.328,1.325l-.124.2h-1.94a3.954,3.954,0,0,1,.514-1.161,9.594,9.594,0,0,1,3.322-3.19,9.7,9.7,0,0,1,11.841,1.579,10.042,10.042,0,0,1,0,14.091,9.652,9.652,0,0,1-11.829,1.577,10.013,10.013,0,0,1-3.556-3.579A3.343,3.343,0,0,1,946.344,179.828ZM811.8,191.28V160.024h12.372c5.551,0,9,3.978,8.873,9.464a7.63,7.63,0,0,1-2.885,6.143,7.585,7.585,0,0,1,3.236,6.25,9.293,9.293,0,0,1-9.223,9.4Zm197.8-31.233h.876v0h1.014l10.611,16.835.006.013a.868.868,0,0,1,.119.394v13.9a1.443,1.443,0,0,1-.01.153l-.022.134h-1.579l-.021-.134a1.19,1.19,0,0,1-.01-.153V177.551l-10.7-17.095-.027-.037h0l0-.005Zm29.894,0h-.876v0h-1.042L1026.948,176.9l-.012.034a1.155,1.155,0,0,0-.057.4v13.857a1.126,1.126,0,0,0,.009.15l.02.138h1.495l.019-.138a1.107,1.107,0,0,0,.011-.15V177.551l10.8-17.106c.015-.027.029-.055.043-.082Zm30.255,30.853h0l.356.581h-1.368v0h-.524l-10.2-16.472a.859.859,0,0,1-.005-.845l8.8-14.113h1.035v0h.876l-.258.368-8.81,14.167,10.039,16.228A.86.86,0,0,1,1069.746,190.9Zm-28.808-.121h0l-.431.7h1.656v0h.239L1052.606,175a.844.844,0,0,0,.013-.813l-8.818-14.137h-1.028v0h-.876l.227.325v0l8.834,14.206Zm-50.5-13.5-.38-.542-3.76-5.4-.012-.014c-.022-.023-.044-.046-.066-.067l-1.413-2.017v7.283h0V191.28l.009.2h1.626l.005-.168V174.385l11.86,17.094h.312v0h1.656v0h0c-.089-.16-.193-.319-.3-.488l-.007-.01-.007-.011-.007-.011-.11-.18h-.005l-9.4-13.5Zm3.356-3.224,5.631,8.037v-2.507a.831.831,0,0,0,.007-.106V160.049h-1.641v16.872l-11.82-16.872h-1.025v0h-.876l.256.368,0,0a.761.761,0,0,0,.059.088l9.411,13.511Zm31.376-2.677-.653,1.122-.677-1.174-.031-.047-6.334-10.833-.015-.025h0v0l-.26-.37h.877v0h.993l5.433,9.228,5.433-9.228h1.073v0h.876l-.249.357-.016.033-6.386,10.849A.9.9,0,0,1,1025.174,171.376Zm31.07-3-.934,1.605-.707-1.228-.006-.009-5.186-8.367-.234-.334h.876v0h1.089l4.184,6.755,4.145-6.755h1.089v0h.877l-.257.368Zm.325,13.634v-.019l-1.26-2.164-1.119,1.943-5.577,9.077-.036.05h0l-.356.581h1.368v0h.488l5.25-8.425,5.21,8.425h.482v0h1.368l-.357-.581h0l-.035-.05ZM970.5,171.329h-1.71l-.1-.286a14.071,14.071,0,0,0-5.224-6.946,14.577,14.577,0,0,0-8.395-2.65,14.164,14.164,0,1,0,0,28.319,14.528,14.528,0,0,0,8.4-2.663,14.1,14.1,0,0,0,5.22-6.989l.1-.287h1.913l-.182.565a16.015,16.015,0,0,1-5.877,8.089,16.332,16.332,0,0,1-9.575,3.107,15.986,15.986,0,1,1,0-31.964,16.4,16.4,0,0,1,9.571,3.106,15.953,15.953,0,0,1,5.88,8.045l.178.553Z" transform="translate(-786.302 -135.037)" fill="#fff" fill-rule="evenodd"/>
    <path id="Path_2" data-name="Path 2" d="M789.063,137.033h307.373v81.118h-25.153V216.9h23.9V138.287H789.69V216.9H814v1.253H788.437V137.033Z" transform="translate(-788.437 -137.033)" fill="#fff"/>
    <path id="Path_3" data-name="Path 3" d="M1043.952,214.805h1.568v-3.559l2.763-4.344h-1.934l-1.613,2.719-1.614-2.719H1041.2l2.752,4.344Zm-9.666-6.068h0l.188-1.625a3.859,3.859,0,0,0-1.558-.309c-5.349,0-5.361,8.024,0,8.024a5.056,5.056,0,0,0,1.735-.332l-.211-1.636a3.377,3.377,0,0,1-1.525.355c-3.128,0-3.128-4.819,0-4.819A2.688,2.688,0,0,1,1034.286,208.738Zm-17.337,1.768h0l4,4.466h.419v-8.057h-1.591v4.465l-3.99-4.641h-.42v8.068h1.58Zm-9.168,4.3h0v-1.58h-2.509v-1.581h2.078v-1.58h-2.078v-1.58h2.377V206.9h-3.957v7.9Zm-11.932-.487h0v-3.47h-1.6v2.377a3.049,3.049,0,0,1-.442.044c-3.051,0-3.194-4.719,0-4.829a3.744,3.744,0,0,1,1.658.287l.188-1.6a5.363,5.363,0,0,0-1.845-.287c-5.483.2-5.218,8.014,0,8.014A4.112,4.112,0,0,0,995.849,214.319Zm-16.806-1.845.741-2.055.718,2.055Zm-2.675,2.332h1.791l.31-.851h2.619l.32.851h1.779l-3.325-8.189H979.7Zm-13.959-.487h0v-3.47h-1.6v2.377a3.033,3.033,0,0,1-.442.044c-3.05,0-3.194-4.719,0-4.829a3.736,3.736,0,0,1,1.658.287l.188-1.6a5.35,5.35,0,0,0-1.845-.287c-5.482.2-5.217,8.014,0,8.014A4.116,4.116,0,0,0,962.409,214.319ZM944.4,210.506h0l4,4.466h.419v-8.057h-1.591v4.465l-3.99-4.641h-.42v8.068h1.58Zm-9.466,4.3v-7.9h-1.58v7.9Zm-13.9-.509a4.942,4.942,0,0,0,2.5.575,2.345,2.345,0,0,0,2.388-2.4c0-1.26-1.062-1.968-2.289-2.421-.453-.155-.839-.354-.884-.8a.782.782,0,0,1,.785-.884,3.6,3.6,0,0,1,1.614.332l.2-1.526a4.682,4.682,0,0,0-1.967-.332,2.317,2.317,0,0,0-2.233,2.41c0,1.327,1.1,1.956,2.343,2.41.442.154.784.354.818.807a.8.8,0,0,1-.818.8,3.551,3.551,0,0,1-2.255-.63Zm-7.522.509v-7.9h-1.58v7.9Zm-10.848,0v-6.333h1.967V206.9h-5.515v1.569h1.967v6.333Zm-14.186-6.322h1.392a.889.889,0,0,1,0,1.769h-1.392Zm4.144,6.322h0l-1.835-3.261c2.321-.674,2.045-4.642-.774-4.642H886.9v7.9h1.58v-3.018h.763l1.591,3.018Zm-13.313,0h0v-1.58H876.8v-1.581h2.078v-1.58H876.8v-1.58h2.376V206.9h-3.956v7.9Zm-14.428.166,3.272-8.068h-1.824l-1.061,2.686-.564,1.58-.575-1.636-1.05-2.63h-1.824l3.272,8.068Zm-14.341-6.488c3.072,0,3.072,4.742,0,4.742h-.774v-4.742Zm0-1.58h-2.354v7.9h2.354C855.8,214.805,855.8,206.9,850.536,206.9Zm-13.711,5.57.74-2.055.719,2.055Zm-2.675,2.332h1.791l.31-.851h2.618l.321.851h1.779l-3.326-8.189h-.166Z" transform="translate(-784.261 -130.677)" fill="#fff"/>
  </g>
</svg>
