<svg id="undraw_coolness_dtmq" xmlns="http://www.w3.org/2000/svg" width="716" height="529.088" viewBox="0 0 716 529.088">
  <path id="Path_11" data-name="Path 11" d="M485.34,103.043,292.065,207.732a49.167,49.167,0,1,1-86.426,46.813l-65.9,35.7,170.7,315.152,345.6-187.2Z" transform="translate(-119.846 -92.9)" fill="#f4f4f4"/>
  <rect id="Rectangle_9" data-name="Rectangle 9" width="36.73" height="36.73" transform="matrix(0.966, 0.258, -0.258, 0.966, 133.915, 276.71)" fill="#ff6f61" opacity="0.2"/>
  <path id="Path_12" data-name="Path 12" d="M402.815,652c-28.365,43.5-20.593,98.825-20.593,98.825s53.761-15.2,82.126-58.7S484.942,593.3,484.942,593.3,431.181,608.505,402.815,652Z" transform="translate(-183.943 -223.016)" fill="#3f3d56"/>
  <path id="Path_13" data-name="Path 13" d="M338.994,754.753s-.691-.11-1.961-.367c-1.014-.206-2.409-.5-4.114-.9-15.236-3.592-55.741-15.735-82.224-47.661-33.145-39.977-31.749-95.828-31.749-95.828s50.68,8.235,84.075,44.135q2.171,2.314,4.224,4.8c28.84,34.783,31.529,81.584,31.742,93.154C339.016,753.813,338.994,754.753,338.994,754.753Z" transform="translate(-140.865 -227.445)" fill="#ff6f61"/>
  <path id="Path_14" data-name="Path 14" d="M324.518,652c28.365,43.5,20.593,98.825,20.593,98.825s-53.761-15.2-82.126-58.7S242.391,593.3,242.391,593.3,296.153,608.505,324.518,652Z" transform="translate(-146.832 -223.016)" fill="none" stroke="#3f3d56" stroke-miterlimit="10" stroke-width="2"/>
  <path id="Path_15" data-name="Path 15" d="M369.144,768.024c-.749.9-1.41,1.675-1.954,2.307-1.2,1.374-1.888,2.094-1.888,2.094s-.83-1.043-2.226-3c-7.662-10.681-32.308-48.66-30.405-92.53q.154-3.449.507-6.824,2.171,2.314,4.224,4.8C366.242,709.653,368.931,756.454,369.144,768.024Z" transform="translate(-171.023 -243.391)" opacity="0.1"/>
  <path id="Path_16" data-name="Path 16" d="M413.059,649.169c-2.242,51.882-40.755,92.355-40.755,92.355S337.426,697.879,339.668,646s40.755-92.355,40.755-92.355S415.3,597.287,413.059,649.169Z" transform="translate(-172.88 -212.49)" fill="#ff6f61"/>
  <circle id="Ellipse_3" data-name="Ellipse 3" cx="4.801" cy="4.801" r="4.801" transform="translate(19.778 444.051)" fill="#ff6584"/>
  <line id="Line_4" data-name="Line 4" x2="200.545" transform="translate(119.739 527.653)" fill="none" stroke="#3f3d56" stroke-miterlimit="10" stroke-width="2"/>
  <line id="Line_5" data-name="Line 5" x2="94.763" transform="translate(0 527.653)" fill="none" stroke="#3f3d56" stroke-miterlimit="10" stroke-width="2"/>
  <line id="Line_6" data-name="Line 6" y1="54.662" transform="translate(48.099 473.873)" fill="#3f3d56" stroke="#3f3d56" stroke-miterlimit="10" stroke-width="2"/>
  <circle id="Ellipse_4" data-name="Ellipse 4" cx="7.73" cy="7.73" r="7.73" transform="translate(40.369 466.143)" fill="#3f3d56"/>
  <path id="Path_17" data-name="Path 17" d="M169.558,772.51s-1.1-23.751-23.742-20.99" transform="translate(-121.459 -264.948)" fill="#3f3d56"/>
  <circle id="Ellipse_5" data-name="Ellipse 5" cx="14.904" cy="14.904" r="14.904" transform="translate(188.396 299.265)" fill="#3f3d56"/>
  <circle id="Ellipse_6" data-name="Ellipse 6" cx="10.839" cy="10.839" r="10.839" transform="translate(145.716 303.33)" fill="none" stroke="#3f3d56" stroke-miterlimit="10" stroke-width="2"/>
  <circle id="Ellipse_7" data-name="Ellipse 7" cx="10.839" cy="10.839" r="10.839" transform="translate(239.206 303.33)" fill="none" stroke="#3f3d56" stroke-miterlimit="10" stroke-width="2"/>
  <line id="Line_7" data-name="Line 7" y1="184.296" x2="8.467" transform="translate(199.424 343.269)" fill="none" stroke="#3f3d56" stroke-miterlimit="10" stroke-width="2"/>
  <circle id="Ellipse_8" data-name="Ellipse 8" cx="14.904" cy="14.904" r="14.904" transform="translate(656.702 184.992)" fill="#3f3d56"/>
  <circle id="Ellipse_9" data-name="Ellipse 9" cx="10.839" cy="10.839" r="10.839" transform="translate(352.505 1)" fill="none" stroke="#3f3d56" stroke-miterlimit="10" stroke-width="2"/>
  <circle id="Ellipse_10" data-name="Ellipse 10" cx="10.839" cy="10.839" r="10.839" transform="translate(229.288 68.583)" fill="none" stroke="#3f3d56" stroke-miterlimit="10" stroke-width="2"/>
  <circle id="Ellipse_11" data-name="Ellipse 11" cx="35.086" cy="35.086" r="35.086" transform="translate(446.066 60.039)" fill="#ff6584"/>
  <path id="Path_18" data-name="Path 18" d="M764.924,546.147l18.754,75.618,18.753-3.025-18.753-86.506Z" transform="translate(-203.012 -140.991)" fill="#fbbebe"/>
  <path id="Path_19" data-name="Path 19" d="M904.147,736.7s-10.68,3.611-9.272,6.04,1.408,17.553-3.432,23-16.938,22.383-3.025,22.988,27.827-8.469,27.827-8.469V764.529l2.42,14.518h2.42V762.714s6.049-10.284,2.42-16.333-6-11.321-10.56-10.8S904.147,736.7,904.147,736.7Z" transform="translate(-316.828 -260.766)" fill="#2f2e41"/>
  <path id="Path_20" data-name="Path 20" d="M663.365,638.465,660.34,654.8h21.173V638.465Z" transform="translate(-175.256 -169.185)" fill="#fbbebe"/>
  <path id="Path_21" data-name="Path 21" d="M766.438,745.352s-6.049-.6-7.864,7.864-18.148,26.445-24.2,28.26-6.049,7.864,1.815,9.074,27.827,1.815,32.667-4.84,11.494-17.371,11.494-17.371l-3.025,22.815h5.444s4.839-22.21,9.679-27.655-9.679-18.148-12.1-18.148Z" transform="translate(-276.514 -263.367)" fill="#2f2e41"/>
  <path id="Path_22" data-name="Path 22" d="M700.2,391.251s-4.235,11.494-11.494,13.309-61.1,14.518-61.1,14.518-47.185,1.21-32.667,11.494,38.111,0,38.111,0,68.963-8.469,74.408-17.543a122.288,122.288,0,0,0,9.074-19.358Z" transform="translate(-239.922 -169.391)" fill="#fbbebe"/>
  <path id="Path_23" data-name="Path 23" d="M759.471,322.077s-34.482,56.259-30.247,57.469,43.556,13.914,45.37,9.074,1.815-27.222,1.815-27.222Z" transform="translate(-276.201 -151.032)" fill="#2f2e41"/>
  <path id="Path_24" data-name="Path 24" d="M759.471,322.077s-34.482,56.259-30.247,57.469,43.556,13.914,45.37,9.074,1.815-27.222,1.815-27.222Z" transform="translate(-276.201 -151.032)" opacity="0.1"/>
  <path id="Path_25" data-name="Path 25" d="M886.942,303.96l78.037,39.926s44.161,11.494,34.482,20.568-41.136-7.864-41.136-7.864l-86.506-39.321Z" transform="translate(-314.141 -146.224)" fill="#fbbebe"/>
  <path id="Path_26" data-name="Path 26" d="M756.529,256.906s15.123,22.988,13.914,28.432c0,0,1.21,3.63-.6,6.049s-1.21,16.938-1.21,16.938l6.049,8.469,7.864-26.012,3.63-27.827S778,251.764,779.214,246.32,756.529,256.906,756.529,256.906Z" transform="translate(-283.543 -130.626)" fill="#fbbebe"/>
  <path id="Path_27" data-name="Path 27" d="M806.939,439.014s-33.876,90.741-33.876,130.667-12.7,85.3-3.025,89.531,58.679,4.84,59.889,0-6.049-201.445-9.679-209.309S806.939,439.014,806.939,439.014Z" transform="translate(-286.163 -182.067)" fill="#2f2e41"/>
  <path id="Path_28" data-name="Path 28" d="M806.826,439.014S772.95,529.755,772.95,569.681c0,14.054-3.228,42.451-3.228,42.451s-6.069,44.336.2,47.08c9.679,4.235,58.679,4.84,59.889,0s-6.049-201.445-9.679-209.309S806.826,439.014,806.826,439.014Z" transform="translate(-286.05 -182.067)" opacity="0.1"/>
  <circle id="Ellipse_12" data-name="Ellipse 12" cx="22.383" cy="22.383" r="22.383" transform="translate(458.467 85.144)" fill="#fbbebe"/>
  <path id="Path_29" data-name="Path 29" d="M773.775,309.7l-1.62-13.652s-5.034,7-5.034,12.442-3.025,24.8,9.679,36.9,15.123,14.519,15.728,16.938,3.63,2.42,3.63,2.42L813.7,435.529s5.444,188.136,13.914,190.556,34.482,0,36.3-3.025-3.025-83.482-3.025-83.482,13.309,71.383,18.148,71.383,7.864-10.284,6.654-10.889-8.469-47.185-11.494-61.7-1.815-137.321-1.815-137.321,9.679-15.728-23.593-46.58c0,0-21.173-61.7-22.383-61.7s-24.8-33.272-24.8-33.272-13.309,0-15.728,7.864S773.775,309.7,773.775,309.7Z" transform="translate(-286.271 -134.422)" fill="#2f2e41"/>
  <path id="Path_30" data-name="Path 30" d="M804.292,264.331l7.259-4.84s30.247,18.148,51.42,19.358,20.568,13.309,12.1,21.778-41.741,37.506-42.951,30.247S804.292,264.331,804.292,264.331Z" transform="translate(-296.22 -134.422)" fill="#2f2e41"/>
  <ellipse id="Ellipse_13" data-name="Ellipse 13" cx="24.198" cy="14.519" rx="24.198" ry="14.519" transform="translate(456.955 70.928)" fill="#ff6584"/>
  <circle id="Ellipse_14" data-name="Ellipse 14" cx="14.519" cy="14.519" r="14.519" transform="translate(469.054 45.521)" fill="#ff6584"/>
  <path id="Path_31" data-name="Path 31" d="M743.5,155.015a14.52,14.52,0,0,1,13.005-14.44,14.682,14.682,0,0,0-1.512-.079,14.519,14.519,0,1,0,0,29.037,14.665,14.665,0,0,0,1.509-.078A14.52,14.52,0,0,1,743.5,155.015Z" transform="translate(-279.281 -102.84)" fill="#ff6584"/>
  <circle id="Ellipse_15" data-name="Ellipse 15" cx="39.9" cy="39.9" r="39.9" transform="translate(86.866 99.623)" fill="#ff6f61"/>
  <line id="Line_8" data-name="Line 8" x2="287.962" transform="translate(363.993 527.977)" fill="none" stroke="#3f3d56" stroke-miterlimit="10" stroke-width="2"/>
  <path id="Path_32" data-name="Path 32" d="M1054.06,262.935l-34.877,34.877-14.659-14.659a5.011,5.011,0,0,0-7.087,0l-.527-.788c-1.957,1.957-1.43,5.917.527,7.874l19.02,19.02a3.824,3.824,0,0,0,5.406,0l39.281-39.24c1.958-1.956,2.669-5.543.711-7.5h0C1059.9,260.565,1056.016,260.978,1054.06,262.935Z" transform="translate(-347.014 -134.887)" fill="#ff6f61"/>
  <path id="Path_33" data-name="Path 33" d="M1054.06,262.935l-34.877,34.877-14.659-14.659a5.011,5.011,0,0,0-7.087,0l-.527-.788c-1.957,1.957-1.43,5.917.527,7.874l19.02,19.02a3.824,3.824,0,0,0,5.406,0l39.281-39.24c1.958-1.956,2.669-5.543.711-7.5h0C1059.9,260.565,1056.016,260.978,1054.06,262.935Z" transform="translate(-347.014 -134.887)" opacity="0.1"/>
  <path id="Path_34" data-name="Path 34" d="M1054.164,260.91l-34.878,34.878-14.659-14.659a5.011,5.011,0,0,0-7.087,0h0a5.011,5.011,0,0,0,0,7.087l19.02,19.02a3.823,3.823,0,0,0,5.406,0l39.28-39.24a5.01,5.01,0,0,0,0-7.087h0A5.01,5.01,0,0,0,1054.164,260.91Z" transform="translate(-347.119 -134.409)" fill="#ff6f61"/>
</svg>
