<?xml version="1.0" encoding="utf-8"?>
<!-- Generator: Adobe Illustrator 23.0.6, SVG Export Plug-In . SVG Version: 6.00 Build 0)  -->
<svg version="1.1" xmlns="http://www.w3.org/2000/svg" xmlns:xlink="http://www.w3.org/1999/xlink" x="0px" y="0px"
	 viewBox="0 0 716 529.1" style="enable-background:new 0 0 716 529.1;" xml:space="preserve">
<style type="text/css">
	.st0{fill:#F4F4F4;}
	.st1{fill:#FF6F61;}
	.st2{opacity:0.2;fill:#FF6F61;enable-background:new    ;}
	.st3{fill:#FF6584;}
	.st4{fill:none;stroke:#3F3D56;stroke-width:2;stroke-miterlimit:10;}
	.st5{fill:#3F3D56;}
	.st6{opacity:0.1;enable-background:new    ;}
	.st7{fill:#FBBEBE;}
	.st8{fill:#2F2E41;}
</style>
<g id="svg--main_x5F__x5F_bg">
	<path id="svg--main_x5F__x5F_bg_x5F__x5F_rect" class="st0" d="M365.5,10.1L172.2,114.8c13.6,23.5,5.7,53.6-17.8,67.2
		s-53.6,5.7-67.2-17.8c-0.5-0.8-1-1.7-1.4-2.6l-65.9,35.7l170.7,315.2l345.6-187.2L365.5,10.1z"/>
	<circle id="svg--main_x5F__x5F_bg_x5F__x5F_circle" class="st1" cx="126.8" cy="139.5" r="39.9"/>
</g>
<g id="svg--main_x5F__x5F_items">
	
		<rect id="svg--main_x5F__x5F_items_x5F__x5F_rect" x="128.6" y="280.8" transform="matrix(0.258 -0.9661 0.9661 0.258 -180.0494 363.9294)" class="st2" width="36.7" height="36.7"/>
	<circle id="svg--main_x5F__x5F_items_x5F__x5F_circle_x5F__x5F_coral" class="st3" cx="24.6" cy="448.9" r="4.8"/>
	<line id="svg--main_x5F__x5F_items_x5F__x5F_floor_x5F__x5F_two" class="st4" x1="119.7" y1="527.7" x2="320.3" y2="527.7"/>
	<line id="svg--main_x5F__x5F_items_x5F__x5F_floor_x5F__x5F_one" class="st4" x1="0" y1="527.7" x2="94.8" y2="527.7"/>
	<circle id="svg--main_x5F__x5F_items_x5F__x5F_circle_x5F__x5F_filled_x5F__x5F_one" class="st5" cx="203.3" cy="314.2" r="14.9"/>
	
		<circle id="svg--main_x5F__x5F_items_x5F__x5F_circle_x5F__x5F_outline_x5F__x5F_four" class="st4" cx="156.6" cy="314.2" r="10.8"/>
	
		<circle id="svg--main_x5F__x5F_items_x5F__x5F_circle_x5F__x5F_outline_x5F__x5F_three" class="st4" cx="250" cy="314.2" r="10.8"/>
	<circle id="svg--main_x5F__x5F_items_x5F__x5F_circle_x5F__x5F_outline_x5F__x5F_two" class="st4" cx="363.3" cy="11.8" r="10.8"/>
	<circle id="svg--main_x5F__x5F_items_x5F__x5F_circle_x5F__x5F_outline_x5F__x5F_one" class="st4" cx="240.1" cy="79.4" r="10.8"/>
</g>
<g id="svg--main_x5F__x5F_flower">
	<line id="svg--main_x5F__x5F_flower_x5F__x5F_item_2_" class="st4" x1="48.1" y1="528.5" x2="48.1" y2="473.9"/>
	<circle id="svg--main_x5F__x5F_flower_x5F__x5F_item_1_" class="st5" cx="48.1" cy="473.9" r="7.7"/>
	<path id="svg--main_x5F__x5F_flower_x5F__x5F_item" class="st5" d="M48.1,507.6c0,0-1.1-23.8-23.7-21"/>
</g>
<g id="svg--main--plant">
	<path id="svg--main--plant_x5F__x5F_dark" class="st5" d="M218.9,429c-28.4,43.5-20.6,98.8-20.6,98.8s53.8-15.2,82.1-58.7
		s20.6-98.8,20.6-98.8S247.2,385.5,218.9,429z"/>
	<path id="svg--main--plant_x5F__x5F_coral_x5F__x5F_back" class="st1" d="M198.1,527.3c0,0-0.7-0.1-2-0.4c-1-0.2-2.4-0.5-4.1-0.9
		c-15.2-3.6-55.7-15.7-82.2-47.7c-33.1-40-31.7-95.8-31.7-95.8s50.7,8.2,84.1,44.1c1.4,1.5,2.9,3.1,4.2,4.8
		c28.8,34.8,31.5,81.6,31.7,93.2C198.2,526.4,198.1,527.3,198.1,527.3z"/>
	<path id="svg--main--plant_x5F__x5F_outline" class="st4" d="M177.7,429c28.4,43.5,20.6,98.8,20.6,98.8s-53.8-15.2-82.1-58.7
		s-20.6-98.8-20.6-98.8S149.3,385.5,177.7,429z"/>
	<path id="svg--main--plant_x5F__x5F_shadow" class="st6" d="M198.1,524.6c-0.7,0.9-1.4,1.7-2,2.3c-1.2,1.4-1.9,2.1-1.9,2.1
		s-0.8-1-2.2-3c-7.7-10.7-32.3-48.7-30.4-92.5c0.1-2.3,0.3-4.6,0.5-6.8c1.4,1.5,2.9,3.1,4.2,4.8
		C195.2,466.3,197.9,513.1,198.1,524.6z"/>
	<path id="svg--main--plant_x5F__x5F_coral_x5F__x5F_front" class="st1" d="M240.2,436.7c-2.2,51.9-40.8,92.4-40.8,92.4
		s-34.9-43.6-32.6-95.5s40.8-92.4,40.8-92.4S242.4,384.8,240.2,436.7z"/>
	<line id="svg--main--plant_x5F__x5F_coral_x5F__x5F_front_1_" class="st4" x1="199.4" y1="527.6" x2="207.9" y2="343.3"/>
</g>
<g id="svg--main_x5F__x5F_woman">
	<circle id="svg--main_x5F__x5F_woman_x5F__x5F_item_18_" class="st5" cx="671.6" cy="199.9" r="14.9"/>
	<circle id="svg--main_x5F__x5F_woman_x5F__x5F_item_17_" class="st3" cx="481.2" cy="95.1" r="35.1"/>
	<path id="svg--main_x5F__x5F_woman_x5F__x5F_item_16_" class="st7" d="M561.9,405.2l18.8,75.6l18.8-3l-18.8-86.5L561.9,405.2z"/>
	<path id="svg--main_x5F__x5F_woman_x5F__x5F_item_15_" class="st8" d="M587.3,475.9c0,0-10.7,3.6-9.3,6s1.4,17.6-3.4,23
		s-16.9,22.4-3,23s27.8-8.5,27.8-8.5v-15.7l2.4,14.5h2.4v-16.3c0,0,6-10.3,2.4-16.3s-6-11.3-10.6-10.8S587.3,475.9,587.3,475.9z"/>
	<path id="svg--main_x5F__x5F_woman_x5F__x5F_item_14_" class="st7" d="M488.1,469.3l-3,16.3h21.2v-16.3H488.1z"/>
	<path id="svg--main_x5F__x5F_woman_x5F__x5F_item_13_" class="st8" d="M489.9,482c0,0-6-0.6-7.9,7.9s-18.1,26.4-24.2,28.3
		s-6,7.9,1.8,9.1s27.8,1.8,32.7-4.8s11.5-17.4,11.5-17.4l-3,22.8h5.4c0,0,4.8-22.2,9.7-27.7c4.8-5.4-9.7-18.1-12.1-18.1L489.9,482z"
		/>
	<path id="svg--main_x5F__x5F_woman_x5F__x5F_item_12_" class="st7" d="M460.3,221.9c0,0-4.2,11.5-11.5,13.3s-61.1,14.5-61.1,14.5
		s-47.2,1.2-32.7,11.5c14.5,10.3,38.1,0,38.1,0s69-8.5,74.4-17.5c3.6-6.2,6.6-12.7,9.1-19.4L460.3,221.9z"/>
	<path id="svg--main_x5F__x5F_woman_x5F__x5F_item_11_" class="st8" d="M483.3,171c0,0-34.5,56.3-30.2,57.5s43.6,13.9,45.4,9.1
		s1.8-27.2,1.8-27.2L483.3,171z"/>
	<path id="svg--main_x5F__x5F_woman_x5F__x5F_item_10_" class="st6" d="M483.3,171c0,0-34.5,56.3-30.2,57.5s43.6,13.9,45.4,9.1
		s1.8-27.2,1.8-27.2L483.3,171z"/>
	<path id="svg--main_x5F__x5F_woman_x5F__x5F_item_9_" class="st7" d="M572.8,157.7l78,39.9c0,0,44.2,11.5,34.5,20.6
		s-41.1-7.9-41.1-7.9L557.7,171L572.8,157.7z"/>
	<path id="svg--main_x5F__x5F_woman_x5F__x5F_item_8_" class="st7" d="M473,126.3c0,0,15.1,23,13.9,28.4c0,0,1.2,3.6-0.6,6
		s-1.2,16.9-1.2,16.9l6,8.5l7.9-26l3.6-27.8c0,0-8.2-11.2-7-16.6S473,126.3,473,126.3z"/>
	<path id="svg--main_x5F__x5F_woman_x5F__x5F_item_7_" class="st8" d="M520.8,256.9c0,0-33.9,90.7-33.9,130.7s-12.7,85.3-3,89.5
		s58.7,4.8,59.9,0s-6-201.4-9.7-209.3S520.8,256.9,520.8,256.9z"/>
	<path id="svg--main_x5F__x5F_woman_x5F__x5F_item_6_" class="st6" d="M520.8,256.9c0,0-33.9,90.7-33.9,130.7
		c0,14.1-3.2,42.5-3.2,42.5s-6.1,44.3,0.2,47.1c9.7,4.2,58.7,4.8,59.9,0s-6-201.4-9.7-209.3S520.8,256.9,520.8,256.9z"/>
	<circle id="svg--main_x5F__x5F_woman_x5F__x5F_item_5_" class="st7" cx="480.9" cy="107.5" r="22.4"/>
	<path id="svg--main_x5F__x5F_woman_x5F__x5F_item_4_" class="st8" d="M487.5,175.3l-1.6-13.7c0,0-5,7-5,12.4s-3,24.8,9.7,36.9
		s15.1,14.5,15.7,16.9s3.6,2.4,3.6,2.4l17.5,70.8c0,0,5.4,188.1,13.9,190.6s34.5,0,36.3-3s-3-83.5-3-83.5s13.3,71.4,18.1,71.4
		s7.9-10.3,6.7-10.9s-8.5-47.2-11.5-61.7s-1.8-137.3-1.8-137.3s9.7-15.7-23.6-46.6c0,0-21.2-61.7-22.4-61.7s-24.8-33.3-24.8-33.3
		s-13.3,0-15.7,7.9S487.5,175.3,487.5,175.3z"/>
	<path id="svg--main_x5F__x5F_woman_x5F__x5F_item_3_" class="st8" d="M508.1,129.9l7.3-4.8c0,0,30.2,18.1,51.4,19.4
		s20.6,13.3,12.1,21.8s-41.7,37.5-43,30.2S508.1,129.9,508.1,129.9z"/>
	<ellipse id="svg--main_x5F__x5F_woman_x5F__x5F_item_2_" class="st3" cx="481.2" cy="85.4" rx="24.2" ry="14.5"/>
	<circle id="svg--main_x5F__x5F_woman_x5F__x5F_item_1_" class="st3" cx="483.6" cy="60" r="14.5"/>
	<path id="svg--main_x5F__x5F_woman_x5F__x5F_hair" class="st3" d="M464.2,52.2c0-7.4,5.6-13.7,13-14.4c-0.5-0.1-1-0.1-1.5-0.1
		c-8-0.1-14.6,6.4-14.6,14.4s6.4,14.6,14.4,14.6c0.1,0,0.2,0,0.2,0c0.5,0,1,0,1.5-0.1C469.8,65.8,464.2,59.6,464.2,52.2z"/>
	<line id="svg--main_x5F__x5F_woman_x5F__x5F_item" class="st4" x1="364" y1="528" x2="652" y2="528"/>
	<path id="svg--main_x5F__x5F_woman_x5F__x5F_check" class="st1" d="M707,126.5l-34.9,34.9l-14.7-14.7c-2-2-5.1-2-7.1,0c0,0,0,0,0,0
		l0,0c-2,2-2,5.1,0,7.1c0,0,0,0,0,0l19,19c1.5,1.5,3.9,1.5,5.4,0l39.3-39.2c2-2,2-5.1,0-7.1c0,0,0,0,0,0l0,0
		C712.2,124.5,709,124.5,707,126.5z"/>
</g>
</svg>
