<?xml version="1.0" encoding="utf-8"?>
<!-- Generator: Adobe Illustrator 23.0.6, SVG Export Plug-In . SVG Version: 6.00 Build 0)  -->
<svg version="1.1" id="svg--offer" xmlns="http://www.w3.org/2000/svg" xmlns:xlink="http://www.w3.org/1999/xlink" x="0px" y="0px"
	 viewBox="0 0 706 620.9" style="enable-background:new 0 0 706 620.9;" xml:space="preserve">
<style type="text/css">
	.st0{fill:#F2F2F2;}
	.st1{fill:#FF6584;}
	.st2{fill:#EB7A6D;}
	.st3{fill:#3F3D56;}
	.st4{opacity:0.1;enable-background:new    ;}
	.st5{fill:#2F2E41;}
	.st6{fill:#A0616A;}
	.st7{opacity:0.3;fill:#EB7A6D;enable-background:new    ;}
	.st8{opacity:5.000000e-02;fill:#FFFFFF;enable-background:new    ;}
	.st9{fill:none;stroke:#2F2E41;stroke-width:2;stroke-miterlimit:10;}
</style>
<path id="svg--offer--bg" class="st0" d="M566,367.4c-51.6,43.1-83.9,87.2-109.3,126.2C410.9,564,387.5,618,313.3,620
	c-79.1,2.2-179.2-43.6-234.3-104C37,470,21.1,415.5,60.7,367.4c91.5-111.2,113.1-252.6,252.6-252.6S673.1,278,566,367.4z"/>
<circle id="svg--offer--sun" class="st1" cx="441.3" cy="213.8" r="41.1"/>
<g id="svg--offer--tree--two">
	<path id="svg--offer--tree--two_x5F__x5F_item_1_" class="st2" d="M188.6,343.3c24,68.9-8.7,107.2-59.2,124.8s-99.9,7.7-123.8-61.2
		s37.1-188.4,37.1-188.4S164.6,274.4,188.6,343.3z"/>
	<path id="svg--offer--tree--two_x5F__x5F_item" class="st3" d="M122.4,458.7l-19.1-58l14.2-84.9l-17.2,75.8l-8.6-26.1l8.9-61
		l-11.2,54.1l0,0L74,311.7l14.5-51.1l-16.9,43.7l-29.3-85.7l36.4,114.3l-1.4-4.8l-44.8-34.6l47.5,43.8l15.4,53l-0.6-1.4l-50.1-35.4
		l51.7,40.3l1.9,6.6l0,0.1l0.2,0.5l39,134.6l9.2-3.2l-22.6-68.7l15.5-63.6L122.4,458.7z"/>
</g>
<path id="svg--offer--tree--one" class="st3" d="M307.2,477.2l1-61.1l41.3-75.5l-41.1,66l0.4-27.5l28.5-54.7l-28.3,47.4l0,0
	l0.8-49.4l30.5-43.5l-30.4,35.7l0.5-90.6L307.2,344l0.3-4.9l-31-47.4l30.5,56.9l-2.9,55.2l-0.1-1.5l-35.7-49.9l35.6,55.1l-0.4,6.9
	l-0.1,0.1l0,0.6l-7.3,139.9h9.8l1.2-72.3l35.5-54.9L307.2,477.2z"/>
<path id="svg--offer--floor" class="st3" d="M456.7,494.4c-45.8,70.4-69.2,124.4-143.3,126.4c-79.1,2.2-179.2-43.6-234.3-104
	c43.3-26.4,119.2-53.4,208.6-53.4C351.1,463.5,410.6,477,456.7,494.4z"/>
<g id="svg--offer--woman">
	<path id="svg--offer--woman_x5F__x5F_item_20_" class="st2" d="M212.1,212.5c0,0,8.2,5.9,12-5.5s2.3-12.1,2.3-12.1h-9.1
		L212.1,212.5z"/>
	<path id="svg--offer--woman_x5F__x5F_item_19_" class="st4" d="M212.1,212.5c0,0,8.2,5.9,12-5.5s2.3-12.1,2.3-12.1h-9.1
		L212.1,212.5z"/>
	<circle id="svg--offer--woman_x5F__x5F_item_18_" class="st5" cx="234.2" cy="58.8" r="41.4"/>
	<path id="svg--offer--woman_x5F__x5F_item_17_" class="st2" d="M198.8,182.5l-1.8,32.6l26,0.7l-4.4-50.2l-15.8-0.7L198.8,182.5z"/>
	<path id="svg--offer--woman_x5F__x5F_item_16_" class="st4" d="M198.8,182.5l-1.8,32.6l26,0.7l-4.4-50.2l-15.8-0.7L198.8,182.5z"/>
	<path id="svg--offer--woman_x5F__x5F_item_15_" class="st6" d="M192.2,293.2l20.5,80.3c0,0,1.8,45.8,13.9,69.6s10.3,30.4,10.3,30.4
		l10.6-4c0,0-4.4-52-4.4-58.3s-4.4-26-4.4-26s4-23.8-2.9-46.5s2.9-42.9,2.9-42.9L192.2,293.2z"/>
	<path id="svg--offer--woman_x5F__x5F_item_14_" class="st6" d="M245,302.4c0,0,13.6,51.3,12.1,58.3c-1.5,7,11,34.5,11,34.5
		s5.1,38.9,6.6,44s11.7,40.7,11.7,40.7l14.3-2.9c0,0-3.3-88.3-10.6-110.3l-2.6-67.8L245,302.4z"/>
	<path id="svg--offer--woman_x5F__x5F_item_13_" class="st5" d="M236.9,461.5c0,0-4.4-3.7-4.4-2.6s2.2,13.9,2.2,13.9
		s-1.8,7.3-2.2,10.6c0,0-9.2,5.5-9.5,12.5s-1.5,12.1,0,12.5s24.9,2.9,25.3-0.7c0.2-2.4,0.2-4.9,0-7.3h1.5v0.7c0,0,3.7-1.1,4-2.2
		s0-13.9,0-13.9c-0.1-4-0.7-7.9-1.8-11.7l-1.1-16.9c0,0-10.6,2.9-10.6,4.4S236.9,461.5,236.9,461.5z"/>
	<path id="svg--offer--woman_x5F__x5F_item_12_" class="st5" d="M295.6,469.1c0,0,0-2.2-6.2,0s-9.2,4.4-8.8,6.2s3.7,14.7,3.7,14.7
		s-2.9,13.9-0.7,19.1s1.5,5.1,1.5,5.1s44-14.3,43.3-16.5s-2.6-9.9-7.3-10.3s-10.3,4-12.5-1.5s-4.8-7-7-13.6c0,0-0.7-5.1-1.1-4.8
		S296.3,469.9,295.6,469.1z"/>
	<path id="svg--offer--woman_x5F__x5F_item_11_" class="st6" d="M224.8,89.4c0,0,12.8,20.2,3.7,24.6s-9.9,2.6-9.9,2.6l5.9,43.2
		l18.3,12.5l25.7-24.9l0.7-1.1l2.6-29.7l-3.3-6.2c0,0-13.2,1.8-14.3-9.2s-2.6-18-2.6-18L224.8,89.4z"/>
	<path id="svg--offer--woman_x5F__x5F_item_10_" class="st4" d="M224.8,89.4c0,0,12.8,20.2,3.7,24.6s-9.9,2.6-9.9,2.6l5.9,43.2
		l18.3,12.5l25.7-24.9l0.7-1.1l2.6-29.7l-3.3-6.2c0,0-13.2,1.8-14.3-9.2s-2.6-18-2.6-18L224.8,89.4z"/>
	<circle id="svg--offer--woman_x5F__x5F_item_9_" class="st6" cx="235.5" cy="69.3" r="24.9"/>
	<path id="svg--offer--woman_x5F__x5F_item_8_" class="st5" d="M242.8,162c0,0-19.1-46.5-21-46.5s-11.3,6.8-11.3,6.8l-5.5,56.5
		c0,0,8.1,29.3,2.2,33.7s-35.2,67.4-30.4,74s34.1,25.7,51.7,24.2s63.4-5.9,63.8-10.3s-13.2-81.4-15-82.5s2.6-20.9,2.6-20.9
		l-2.9-75.5l-4.4-10.3l-13.2,38.5L242.8,162z"/>
	<path id="svg--offer--woman_x5F__x5F_item_7_" class="st2" d="M226.8,116.2c7.5-6.9,5-7.2-2-3c-6.6,4-27.3-0.5-29.7,4.2
		c-2.9,5.9-4.8,60.1-3.7,61.6s-4.8,56.4-2.6,57.2s6.2-4.4,8.1-8.4s18-79.2,18-79.2L226.8,116.2z"/>
	<path id="svg--offer--woman_x5F__x5F_item_6_" class="st2" d="M263.6,111.9c-9.6-4.7-5.7-4.9,3.1-2.2c6.9,2.2,24.1,6.7,26.7,7.2
		c3.3,0.7,7.7,7,7.3,7.7s-3.7,38.1-3.7,38.1s3.3,7,4.4,8.1c1.1,1.1,17.6,48,13.9,51.7s-33.7,12.1-36.3,8.4s-2.6-25.7-8.8-29.7
		s-16.5-52.4-11.4-67.4C262.4,123.7,267.2,113.6,263.6,111.9z"/>
	<path id="svg--offer--woman_x5F__x5F_item_5_" class="st6" d="M309.1,219.2l-16.9,11.3c0,0-23.5,3.7-22-9.5s21.3-14.3,21.3-14.3
		l9.9,0.7L309.1,219.2z"/>
	<path id="svg--offer--woman_x5F__x5F_item_4_" class="st6" d="M172.8,207.1l16.9,11.3c0,0,23.5,3.7,22-9.5s-21.3-14.3-21.3-14.3
		l-9.9,0.7L172.8,207.1z"/>
	<path id="svg--offer--woman_x5F__x5F_item_3_" class="st2" d="M199.9,116.9c-8.4,9.2-14.6,20.2-18,32.3
		c-5.5,19.8-12.1,25.7-12.1,29.7s1.1,35.2,3.7,35.6s1.1-19.1,15-18.3c0,0-1.5-2.6,0-3.7s1.8-1.8,1.1-2.6s-1.1-3.3,0-4.4
		s1.8-6.6,1.8-6.6l2.9-1.1L199.9,116.9z"/>
	<ellipse id="svg--offer--woman_x5F__x5F_item_2_" class="st5" cx="237.1" cy="51.1" rx="30.4" ry="12.5"/>
	<path id="svg--offer--woman_x5F__x5F_item_1_" class="st2" d="M299.6,122.1c0,0,48.7,53.1,46.2,58.6s-34.8,48-35.9,47.3
		s-9.5-22-13.2-22c0,0,12.8-2.8,14.8-6s12.3-16,7.2-19.3s-22-21.6-23.1-22.4S299.6,122.1,299.6,122.1z"/>
	<circle id="svg--offer--woman_x5F__x5F_item" class="st5" cx="234.1" cy="17.4" r="17.4"/>
</g>
<g id="svg--offer--chat--one">
	<rect id="svg--offer--chat--one_x5F__x5F_bg" x="422.1" y="91" class="st3" width="283.9" height="56.1"/>
	<circle id="svg--offer--chat--one_x5F__x5F_circle" class="st2" cx="451.9" cy="118.7" r="16.7"/>
	<rect id="svg--offer--chat--one_x5F__x5F_line--one" x="492" y="112.1" class="st2" width="165.2" height="3.6"/>
	<rect id="svg--offer--chat--one_x5F__x5F_line--two" x="492" y="121.6" class="st2" width="165.2" height="3.6"/>
</g>
<g id="svg--offer--chat--two">
	<rect id="svg--offer--chat--two_x5F__x5F_bg" x="422.1" y="156.5" class="st3" width="283.9" height="56.1"/>
	<circle id="svg--offer--chat--two_x5F__x5F_circle" class="st7" cx="451.9" cy="184.9" r="16.7"/>
	<rect id="svg--offer--chat--two_x5F__x5F_line--one" x="492" y="178.4" class="st7" width="165.2" height="3.6"/>
	<rect id="svg--offer--chat--two_x5F__x5F_line--two" x="492" y="187.8" class="st7" width="165.2" height="3.6"/>
</g>
<g id="svg--offer--bag">
	<path id="svg--offer--bag_x5F__x5F_item_5_" class="st5" d="M388.2,451.1c-0.1-0.9-3.5-21,2.8-29.2c1.5-2,3.7-3.2,6.2-3.4
		c2.6-0.2,5.1,0.7,7,2.4c7.7,6.8,8.4,25.5,8.4,26.3l-1.1,0c0-0.2-0.8-19-8.1-25.5c-1.7-1.6-3.9-2.4-6.2-2.2c-2.1,0.1-4.1,1.2-5.4,3
		c-6.1,7.8-2.7,28.1-2.6,28.3L388.2,451.1z"/>
	<path id="svg--offer--bag_x5F__x5F_item_4_" class="st5" d="M353.6,446.2l-2.7-3.2l73.9-10.6v3.7l18.6-1.6l-6.4,66l-75-1.1
		L353.6,446.2z"/>
	<path id="svg--offer--bag_x5F__x5F_item_3_" class="st8" d="M353.6,446.2l-2.7-3.2l73.9-10.6v3.7l18.6-1.6l-6.4,66l-75-1.1
		L353.6,446.2z"/>
	<path id="svg--offer--bag_x5F__x5F_item_2_" class="st5" d="M446.2,504.2l-69.1,29l-0.6,0.2l-27.1-13.8l1.3-76.9l22.9,1.6l-2.7,3.2
		l0.6-0.1l71.8-13.2L446.2,504.2z"/>
	<path id="svg--offer--bag_x5F__x5F_item_1_" class="st4" d="M377.1,533.3l-27.7-13.6l1.3-76.9l22.9,1.6l-2.7,3.2l0.6-0.1l-0.3,0.4
		L377.1,533.3z"/>
	<path id="svg--offer--bag_x5F__x5F_item" class="st9" d="M399.4,451c0,0-5.3-30.9,8.5-31.9s14.9,28.2,14.9,28.2"/>
</g>
</svg>
