<svg id="Group_33" data-name="Group 33" xmlns="http://www.w3.org/2000/svg" width="705.984" height="620.859" viewBox="0 0 705.984 620.859">
  <path id="Path_614" data-name="Path 614" d="M695.247,433.87c-51.621,43.067-83.895,87.17-109.286,126.22-45.774,70.379-69.214,124.367-143.337,126.4-79.107,2.171-179.2-43.626-234.3-103.969C166.262,536.484,150.393,481.989,190,433.869c91.519-111.183,113.1-252.621,252.622-252.621S802.386,344.5,695.247,433.87Z" transform="translate(-129.282 -66.463)" fill="#f2f2f2"/>
  <circle id="Ellipse_148" data-name="Ellipse 148" cx="41.081" cy="41.081" r="41.081" transform="translate(400.197 172.719)" fill="#ff6584"/>
  <path id="Path_615" data-name="Path 615" d="M303.7,448.566c23.953,68.921-8.656,107.226-59.2,124.792s-99.879,7.741-123.832-61.181,37.089-188.406,37.089-188.406S279.751,379.644,303.7,448.566Z" transform="translate(-115.103 -105.233)" fill="#eb7a6d"/>
  <path id="Path_616" data-name="Path 616" d="M134.533,540.451l-19.109-58.006,14.2-84.917-17.2,75.817-8.593-26.083,8.94-60.971L101.559,440.36h0L86.105,393.45l14.5-51.107L83.675,386.074l-29.254-85.7L90.8,414.641l-1.379-4.757L44.583,375.258l47.484,43.757,15.378,53.044-.561-1.355L56.759,435.286l51.72,40.339,1.923,6.633-.027.119.214.525L149.607,617.48l9.244-3.213-22.617-68.655,15.517-63.563Z" transform="translate(-12.128 -81.71)" fill="#3f3d56"/>
  <path id="Path_617" data-name="Path 617" d="M407.43,560.562l.992-61.065,41.3-75.547-41.139,65.968.446-27.458,28.46-54.657-28.342,47.391h0l.8-49.384L440.42,362.3l-30.35,35.749.5-90.552-3.15,119.874.258-4.945L376.7,374.994l30.488,56.92L404.3,487.068l-.086-1.464-35.72-49.911L404.1,490.776l-.361,6.9-.065.1.03.566-7.325,139.927h9.787L407.341,566l35.525-54.947Z" transform="translate(-100.239 -83.646)" fill="#3f3d56"/>
  <path id="Path_618" data-name="Path 618" d="M601.318,691.139c-45.774,70.379-69.214,124.367-143.337,126.4-79.107,2.171-179.2-43.626-234.3-103.969,43.286-26.442,119.163-53.353,208.587-53.353C495.777,660.219,555.241,673.8,601.318,691.139Z" transform="translate(-144.639 -196.756)" fill="#3f3d56"/>
  <path id="Path_619" data-name="Path 619" d="M406.46,308.955s8.211,5.872,11.993-5.473,2.269-12.1,2.269-12.1h-9.076Z" transform="translate(-194.36 -96.422)" fill="#eb7a6d"/>
  <path id="Path_620" data-name="Path 620" d="M406.46,308.955s8.211,5.872,11.993-5.473,2.269-12.1,2.269-12.1h-9.076Z" transform="translate(-194.36 -96.422)" opacity="0.1"/>
  <circle id="Ellipse_149" data-name="Ellipse 149" cx="41.417" cy="41.417" r="41.417" transform="translate(192.766 17.41)" fill="#2f2e41"/>
  <path id="Path_621" data-name="Path 621" d="M272.42,244.16l-1.833,32.621,26.023.733-4.4-50.213-15.761-.733Z" transform="translate(-73.607 -61.632)" fill="#eb7a6d"/>
  <path id="Path_622" data-name="Path 622" d="M272.42,244.16l-1.833,32.621,26.023.733-4.4-50.213-15.761-.733Z" transform="translate(-73.607 -61.632)" opacity="0.1"/>
  <path id="Path_623" data-name="Path 623" d="M379.145,426.356l20.525,80.269S401.5,552.44,413.6,576.264s10.263,30.421,10.263,30.421l10.629-4.032s-4.4-52.046-4.4-58.277-4.4-26.023-4.4-26.023,4.032-23.824-2.932-46.548,2.932-42.883,2.932-42.883Z" transform="translate(-186.929 -133.139)" fill="#a0616a"/>
  <path id="Path_624" data-name="Path 624" d="M451.646,437.573s13.561,51.313,12.1,58.277,11,34.453,11,34.453,5.131,38.851,6.6,43.983,11.729,40.684,11.729,40.684l14.294-2.932s-3.3-88.332-10.629-110.323l-2.566-67.807Z" transform="translate(-206.652 -135.193)" fill="#a0616a"/>
  <path id="Path_625" data-name="Path 625" d="M435.089,655.537s-4.4-3.665-4.4-2.566,2.2,13.928,2.2,13.928-1.833,7.33-2.2,10.629c0,0-9.163,5.5-9.53,12.462s-1.466,12.1,0,12.462,24.924,2.932,25.29-.733a42.088,42.088,0,0,0,0-7.33h1.466v.733s3.665-1.1,4.032-2.2,0-13.928,0-13.928a46.406,46.406,0,0,0-1.833-11.729l-1.1-16.86s-10.629,2.932-10.629,4.4S435.089,655.537,435.089,655.537Z" transform="translate(-198.157 -194.086)" fill="#2f2e41"/>
  <path id="Path_626" data-name="Path 626" d="M515.5,667.472s0-2.2-6.231,0-9.163,4.4-8.8,6.231,3.665,14.661,3.665,14.661-2.932,13.928-.733,19.059,1.466,5.131,1.466,5.131,43.983-14.294,43.25-16.493-2.566-9.9-7.33-10.263-10.263,4.032-12.462-1.466-4.765-6.964-6.964-13.561c0,0-.733-5.131-1.1-4.765S516.233,668.205,515.5,667.472Z" transform="translate(-219.926 -198.325)" fill="#2f2e41"/>
  <path id="Path_627" data-name="Path 627" d="M421.627,144.092s12.828,20.159,3.665,24.557-9.9,2.566-9.9,2.566l5.864,43.25,18.326,12.462L465.243,202l.733-1.1,2.566-29.688-3.3-6.231s-13.195,1.833-14.294-9.163-2.566-17.96-2.566-17.96Z" transform="translate(-196.791 -54.66)" fill="#a0616a"/>
  <path id="Path_628" data-name="Path 628" d="M421.627,144.092s12.828,20.159,3.665,24.557-9.9,2.566-9.9,2.566l5.864,43.25,18.326,12.462L465.243,202l.733-1.1,2.566-29.688-3.3-6.231s-13.195,1.833-14.294-9.163-2.566-17.96-2.566-17.96Z" transform="translate(-196.791 -54.66)" opacity="0.1"/>
  <circle id="Ellipse_150" data-name="Ellipse 150" cx="24.923" cy="24.923" r="24.923" transform="translate(210.542 44.349)" fill="#a0616a"/>
  <path id="Path_629" data-name="Path 629" d="M423.778,227.208s-19.119-46.461-20.951-46.461-11.345,6.807-11.345,6.807l-5.455,56.514s8.063,29.322,2.2,33.72-35.186,67.44-30.421,74.037,34.086,25.657,51.68,24.19,63.408-5.864,63.775-10.263-13.195-81.368-15.027-82.467,2.566-20.892,2.566-20.892l-2.933-75.5-4.4-10.263-13.195,38.485Z" transform="translate(-180.982 -65.206)" fill="#2f2e41"/>
  <path id="Path_630" data-name="Path 630" d="M412.343,180.972c7.531-6.916,4.953-7.233-2.023-3.029-6.6,3.977-27.312-.541-29.662,4.159-2.932,5.864-4.765,60.11-3.665,61.576s-4.765,56.444-2.566,57.177,6.231-4.4,8.063-8.43,17.96-79.169,17.96-79.169Z" transform="translate(-185.511 -64.816)" fill="#eb7a6d"/>
  <path id="Path_631" data-name="Path 631" d="M474.936,175.764c-9.646-4.673-5.69-4.933,3.078-2.181,6.936,2.177,24.087,6.654,26.7,7.235,3.3.733,7.7,6.964,7.33,7.7s-3.665,38.118-3.665,38.118,3.3,6.964,4.4,8.063,17.593,48.014,13.928,51.68-33.72,12.1-36.286,8.43-2.566-25.657-8.8-29.688-16.493-52.413-11.362-67.44C473.712,187.565,478.556,177.517,474.936,175.764Z" transform="translate(-211.336 -63.896)" fill="#eb7a6d"/>
  <path id="Path_632" data-name="Path 632" d="M525.214,320l-16.853,11.321s-23.465,3.706-22-9.489,21.258-14.294,21.258-14.294l9.9.733Z" transform="translate(-216.077 -100.816)" fill="#a0616a"/>
  <path id="Path_633" data-name="Path 633" d="M352.46,303.381,369.313,314.7s23.465,3.706,22-9.489-21.258-14.294-21.258-14.294l-9.9.733Z" transform="translate(-179.67 -96.296)" fill="#a0616a"/>
  <path id="Path_634" data-name="Path 634" d="M378.487,184.181a79.913,79.913,0,0,0-17.96,32.254c-5.5,19.792-12.1,25.657-12.1,29.688s1.1,35.186,3.665,35.553,1.1-19.059,15.027-18.326c0,0-1.466-2.566,0-3.665s1.833-1.833,1.1-2.566-1.1-3.3,0-4.4,1.833-6.6,1.833-6.6l2.932-1.1Z" transform="translate(-178.575 -67.261)" fill="#eb7a6d"/>
  <ellipse id="Ellipse_151" data-name="Ellipse 151" cx="30.421" cy="12.462" rx="30.421" ry="12.462" transform="translate(206.693 38.668)" fill="#2f2e41"/>
  <path id="Path_635" data-name="Path 635" d="M525.1,191.23s48.747,53.146,46.182,58.644-34.82,48.014-35.919,47.281-9.53-21.991-13.195-21.991c0,0,12.771-2.831,14.815-6s12.307-15.994,7.176-19.293-21.991-21.625-23.091-22.358S525.1,191.23,525.1,191.23Z" transform="translate(-225.494 -69.178)" fill="#eb7a6d"/>
  <circle id="Ellipse_152" data-name="Ellipse 152" cx="17.396" cy="17.396" r="17.396" transform="translate(216.681 0)" fill="#2f2e41"/>
  <rect id="Rectangle_472" data-name="Rectangle 472" width="283.91" height="56.054" transform="translate(422.075 90.997)" fill="#3f3d56"/>
  <rect id="Rectangle_473" data-name="Rectangle 473" width="283.91" height="56.054" transform="translate(422.075 156.514)" fill="#3f3d56"/>
  <circle id="Ellipse_153" data-name="Ellipse 153" cx="16.743" cy="16.743" r="16.743" transform="translate(435.178 101.916)" fill="#eb7a6d"/>
  <rect id="Rectangle_474" data-name="Rectangle 474" width="165.25" height="3.64" transform="translate(491.96 112.108)" fill="#eb7a6d"/>
  <rect id="Rectangle_475" data-name="Rectangle 475" width="165.25" height="3.64" transform="translate(491.96 121.572)" fill="#eb7a6d"/>
  <circle id="Ellipse_154" data-name="Ellipse 154" cx="16.743" cy="16.743" r="16.743" transform="translate(435.178 168.162)" fill="#eb7a6d" opacity="0.3"/>
  <rect id="Rectangle_476" data-name="Rectangle 476" width="165.25" height="3.64" transform="translate(491.96 178.354)" fill="#eb7a6d" opacity="0.3"/>
  <rect id="Rectangle_477" data-name="Rectangle 477" width="165.25" height="3.64" transform="translate(491.96 187.817)" fill="#eb7a6d" opacity="0.3"/>
  <path id="Path_636" data-name="Path 636" d="M647.972,631.1c-.147-.854-3.532-21,2.834-29.179a8.361,8.361,0,0,1,6.16-3.36,9.166,9.166,0,0,1,7.02,2.441c7.656,6.836,8.419,25.475,8.448,26.266l-1.063.038c-.007-.189-.776-18.977-8.095-25.511a8.129,8.129,0,0,0-6.228-2.173,7.336,7.336,0,0,0-5.4,2.952c-6.079,7.8-2.661,28.141-2.626,28.346Z" transform="translate(-259.777 -179.974)" fill="#2f2e41"/>
  <path id="Path_637" data-name="Path 637" d="M484.749,607.831l-2.66-3.191L556.034,594v3.724l18.619-1.6-6.384,65.966-75.01-1.064Z" transform="translate(-131.141 -161.583)" fill="#2f2e41"/>
  <path id="Path_638" data-name="Path 638" d="M484.749,607.831l-2.66-3.191L556.034,594v3.724l18.619-1.6-6.384,65.966-75.01-1.064Z" transform="translate(-131.141 -161.583)" fill="#fff" opacity="0.05"/>
  <path id="Path_639" data-name="Path 639" d="M576.718,666.512,507.6,695.532l-.574.24L479.9,681.94l1.33-76.872,22.875,1.6-2.66,3.191.574-.106,71.775-13.193Z" transform="translate(-130.545 -162.279)" fill="#2f2e41"/>
  <path id="Path_640" data-name="Path 640" d="M507.6,698.713,479.9,685.121l1.33-76.872,22.875,1.6-2.66,3.191.574-.106-.309.373Z" transform="translate(-130.545 -165.46)" opacity="0.1"/>
  <path id="Path_641" data-name="Path 641" d="M663.316,631.209s-5.32-30.855,8.512-31.919,14.9,28.2,14.9,28.2" transform="translate(-263.958 -180.174)" fill="none" stroke="#2f2e41" stroke-miterlimit="10" stroke-width="2"/>
</svg>
