<?xml version="1.0" encoding="utf-8"?>
<!-- Generator: Adobe Illustrator 23.0.6, SVG Export Plug-In . SVG Version: 6.00 Build 0)  -->
<svg version="1.1" id="svg--outdoor" xmlns="http://www.w3.org/2000/svg" xmlns:xlink="http://www.w3.org/1999/xlink" x="0px"
	 y="0px" viewBox="0 0 916.5 617" enable-background="new 0 0 916.5 617" xml:space="preserve">
<circle id="svg--outdoor_x5F__x5F_sun" fill="#EB7A6D" cx="368.6" cy="148.5" r="64.5"/>
<g id="svg--outdoor_x5F__x5F_mountains">
	<g>
		<path id="Path_460" fill="#F2F2F2" d="M289.5,416.5l-75.8-74.7l-18.8-18.5L138.8,268l-69.5,74.2L0,416.2"/>
		<path id="Path_463" opacity="0.1" enable-background="new    " d="M194.9,323.3l-33.4,22.4l-39.4-15.5l-52.8,12.1l69.5-74.2
			L194.9,323.3z"/>
	</g>
	<g>
		<path id="Path_461" fill="#F2F2F2" d="M662.7,416.9H150.3l63.4-68.7l117.1-137.4l7.9-9.3l106-124.3L518,193.4l1.9,3l93.3,147.7
			L662.7,416.9z"/>
		<path id="Path_464" opacity="0.1" enable-background="new    " d="M518,193.4L506.8,213l-25.1-26.3L454.2,213l-15.5-29.9
			L413.6,213l-7.2-19.1L389.7,213l-29.9-19.1l-21.1,7.6l106-124.3L518,193.4z"/>
	</g>
	<g>
		<path id="Path_462" fill="#F2F2F2" d="M916.5,416.5L789.9,267.1l-62.1-73.2l-60,75.2l-54.7,68.6l-62.6,78.4"/>
		<path id="Path_465" opacity="0.1" enable-background="new    " d="M789.9,267.1l-31,37.9l-25.1-29.9l-38.2,31.1l-27.7-37.1
			l60-75.2L789.9,267.1z"/>
	</g>
	<rect id="Rectangle_456" y="415.6" fill="#2F2E41" width="916.5" height="1.9"/>
</g>
<g id="svg--outdoor_x5F__x5F_tree--three">
	<path id="Path_466" fill="#2F2E41" d="M790.3,417.9l-1.7-0.9c21.7-42,10.1-96.5-3.5-134.9c-9.2-25.8-21-50.6-35.1-74l1.6-1
		c14.2,23.6,26,48.5,35.3,74.4C800.6,320.3,812.3,375.3,790.3,417.9z"/>
	
		<rect id="Rectangle_447" x="767.3" y="240.1" transform="matrix(0.1797 -0.9837 0.9837 0.1797 420.0704 985.9171)" fill="#2F2E41" width="67.9" height="1.9"/>
	
		<rect id="Rectangle_448" x="755.1" y="252.7" transform="matrix(0.7322 -0.6811 0.6811 0.7322 -1.1043 595.0443)" fill="#2F2E41" width="1.9" height="92.5"/>
	
		<rect id="Rectangle_449" x="796.1" y="360.6" transform="matrix(0.5861 -0.8102 0.8102 0.5861 47.8384 816.6937)" fill="#2F2E41" width="54.6" height="1.9"/>
	<circle id="Ellipse_108" fill="#EB7A6D" cx="812" cy="180.4" r="9.4"/>
	<circle id="Ellipse_109" fill="#3F3D56" cx="709.5" cy="252.8" r="9.4"/>
	<circle id="Ellipse_110" fill="#3F3D56" cx="750.9" cy="262.2" r="9.4"/>
	<circle id="Ellipse_111" fill="#EB7A6D" cx="732.1" cy="298.9" r="9.4"/>
	<circle id="Ellipse_112" fill="#3F3D56" cx="849.7" cy="322.5" r="9.4"/>
	<circle id="Ellipse_113" fill="#3F3D56" cx="818.6" cy="332.8" r="9.4"/>
	<circle id="Ellipse_114" fill="#3F3D56" cx="840.3" cy="362.9" r="9.4"/>
	<circle id="Ellipse_115" fill="#3F3D56" cx="741.5" cy="191.7" r="9.4"/>
</g>
<g id="svg--outdoor_x5F__x5F_tree--two">
	<path id="Path_467" fill="#2F2E41" d="M556,416l-1.7-0.9c21.7-42,10.1-96.5-3.5-134.9c-9.2-25.8-21-50.6-35.1-74l1.6-1
		c14.2,23.6,26,48.5,35.3,74.4C566.3,318.4,578,373.5,556,416z"/>
	
		<rect id="Rectangle_450" x="533" y="238.2" transform="matrix(0.1797 -0.9837 0.9837 0.1797 229.7374 753.8887)" fill="#2F2E41" width="67.9" height="1.9"/>
	
		<rect id="Rectangle_451" x="520.8" y="250.8" transform="matrix(0.7322 -0.6811 0.6811 0.7322 -62.5797 434.9497)" fill="#2F2E41" width="1.9" height="92.5"/>
	
		<rect id="Rectangle_452" x="561.8" y="358.7" transform="matrix(0.5861 -0.8102 0.8102 0.5861 -47.602 626.0848)" fill="#2F2E41" width="54.6" height="1.9"/>
	<circle id="Ellipse_116" fill="#3F3D56" cx="577.8" cy="178.5" r="9.4"/>
	<circle id="Ellipse_117" fill="#3F3D56" cx="475.2" cy="250.9" r="9.4"/>
	<circle id="Ellipse_118" fill="#3F3D56" cx="516.6" cy="260.4" r="9.4"/>
	<circle id="Ellipse_119" fill="#3F3D56" cx="497.8" cy="297" r="9.4"/>
	<circle id="Ellipse_120" fill="#EB7A6D" cx="615.4" cy="320.6" r="9.4"/>
	<circle id="Ellipse_121" fill="#3F3D56" cx="584.3" cy="330.9" r="9.4"/>
	<circle id="Ellipse_122" fill="#3F3D56" cx="606" cy="361" r="9.4"/>
	<circle id="Ellipse_123" fill="#3F3D56" cx="507.2" cy="189.8" r="9.4"/>
</g>
<g id="svg--outdoor_x5F__x5F_tree--one">
	<path id="Path_468" fill="#2F2E41" d="M162.9,416l1.7-0.9c-21.7-42-10.1-96.5,3.5-134.9c9.2-25.8,21-50.6,35.1-74l-1.6-1
		c-14.2,23.6-26,48.5-35.3,74.4C152.6,318.4,140.9,373.5,162.9,416z"/>
	
		<rect id="Rectangle_453" x="151" y="205.2" transform="matrix(0.9837 -0.1797 0.1797 0.9837 -40.5164 31.2108)" fill="#2F2E41" width="1.9" height="67.9"/>
	
		<rect id="Rectangle_454" x="150.9" y="296.1" transform="matrix(0.6811 -0.7322 0.7322 0.6811 -154.6355 239.0408)" fill="#2F2E41" width="92.5" height="1.9"/>
	
		<rect id="Rectangle_455" x="128.9" y="332.3" transform="matrix(0.8102 -0.5861 0.5861 0.8102 -186.1389 144.3683)" fill="#2F2E41" width="1.9" height="54.6"/>
	<circle id="Ellipse_124" fill="#3F3D56" cx="141.1" cy="178.5" r="9.4"/>
	<circle id="Ellipse_125" fill="#3F3D56" cx="243.7" cy="250.9" r="9.4"/>
	<circle id="Ellipse_126" fill="#3F3D56" cx="202.3" cy="260.4" r="9.4"/>
	<circle id="Ellipse_127" fill="#3F3D56" cx="221.1" cy="297" r="9.4"/>
	<circle id="Ellipse_128" fill="#3F3D56" cx="103.5" cy="320.6" r="9.4"/>
	<circle id="Ellipse_129" fill="#3F3D56" cx="134.6" cy="330.9" r="9.4"/>
	<circle id="Ellipse_130" fill="#EB7A6D" cx="112.9" cy="361" r="9.4"/>
	<circle id="Ellipse_131" fill="#3F3D56" cx="211.7" cy="189.8" r="9.4"/>
</g>
<g id="svg--outdoor_x5F__x5F_woman">
	<circle id="Ellipse_132" fill="#2F2E41" cx="404.6" cy="395.3" r="11.3"/>
	<path id="Path_469" fill="#FFB8B8" d="M398.5,403.9c0,0,0.2,4.1-2.5,4.5l3.8,9.3l4.8,7.7h4.1l2.5-2.3l-0.5-2.9l-1.4-5.2l-1.6-1.6
		c0,0,0.2-6.6,2.3-9.5S398.5,403.9,398.5,403.9z"/>
	<path id="Path_470" opacity="0.1" enable-background="new    " d="M398.5,403.9c0,0,0.2,4.1-2.5,4.5l3.8,9.3l4.8,7.7h4.1l2.5-2.3
		l-0.5-2.9l-1.4-5.2l-1.6-1.6c0,0,0.2-6.6,2.3-9.5S398.5,403.9,398.5,403.9z"/>
	<circle id="Ellipse_133" fill="#2F2E41" cx="407.8" cy="384.4" r="5.4"/>
	<path id="Path_471" fill="#2F2E41" d="M402.6,382.2c0-3,2.4-5.4,5.4-5.4c0.1,0,0.1,0,0.2,0c-2.9-0.9-5.9,0.8-6.8,3.6
		s0.8,5.9,3.6,6.8c0.4,0.1,0.9,0.2,1.4,0.2C404.2,386.7,402.6,384.6,402.6,382.2L402.6,382.2z"/>
	<path id="Path_472" fill="#FFB8B8" d="M397.1,408.6l-2.3-0.2c-1.3-0.4-2.7,0-3.6,0.9c-1.6,1.6,0.2,19.5,0.2,19.5l5.7-3.8l0.9-9.1
		L397.1,408.6z"/>
	<path id="Path_473" fill="#FFB8B8" d="M386.1,478.9l-3.2,17.9c0,0-2,7.5-4.5,9.7s-6.3,21.1-7.2,25.1s-1.1,6.3-2.3,7.9s0,7.2,0,7.2
		h2.5l3.6-0.7c0,0,0.7-8.6,1.4-10.2s11.8-25.4,11.8-25.4s7.5-11.1,8.8-17.2c1-4.1,2.7-8,5-11.6L386.1,478.9z"/>
	<path id="Path_474" fill="#FFB8B8" d="M408.9,477.9l2.9,20.6c0,0,0,6.3,0.9,8.8s1.6,17.2,2.5,20.6s2.9,10.9,2.3,11.8
		c-0.8,1.5-1.5,3-2,4.5l2.3,5l6.1-4.3l-0.9-37.1c0,0,2.5-31.5,0.9-32.4S414.4,471.8,408.9,477.9z"/>
	<path id="Path_475" fill="#2F2E41" d="M391.5,455.8l-4.5,12.5c0,0-3.4,13.1-1.6,13.8s22.4,3.6,22.9,1.1c0.2-1,0.4-2,0.5-2.9
		c0,0,17.7,0.7,17.9-3.4c0-5.5-0.3-11-0.9-16.5c-0.4-1.9-2.1-3.3-4.1-3.4C419.1,456.9,397.6,451.2,391.5,455.8z"/>
	<path id="Path_476" fill="#2F2E41" d="M369.3,544.1c0.4-0.7,1.3-0.9,2-0.5c1.3,0.4,2.7,0.6,4.1,0.5l-0.7,6.1c0,0,2.7,10.9-2.3,10.9
		s-7.7-3.6-7.2-5s1.6-12,1.6-12s2.2-5.3,2.3-5.7C369.2,538.1,369.3,544.1,369.3,544.1z"/>
	<path id="Path_477" fill="#2F2E41" d="M416.6,542.9c0,0-0.5,2.5,1.6,2.3s5.4-2.3,5.7-2c0.6,1.1,1,2.4,1.1,3.6
		c0.2,1.6,0.7,5,2.7,6.6s5.2,6.6,1.6,6.8s-10.2,0-10.4-2.3s-0.2-4.8-0.2-4.8s-2,0.2-2.7-0.2s-5.2-3.2-3.8-6.8s5.2-6,5.2-6
		L416.6,542.9z"/>
	<circle id="Ellipse_134" fill="#FFB8B8" cx="403.7" cy="398.5" r="8.8"/>
	<path id="Path_478" fill="#FFB8B8" d="M408.5,415c0,0,4.1,0,5,2.3s-0.9,7-0.9,7l-2.1-5L408.5,415z"/>
	<path id="Path_479" fill="#3F3D56" d="M393.8,408.2h2.7c0,0,7,10.4,8.2,11.3s5.2,1.1,5.2,0.5s-2-6.6-2-6.6l1.8,1.4l2.9,7.2
		c0,0,7.9,19.9,7.2,22c-0.5,1,0,2.2,1,2.7c0,0,0.1,0,0.1,0c0.2,0.2,2.7,5.4,1.6,7.5s1.1,4.5,1.1,4.5s1.1,5-2.7,5.7
		s-5.9-2.9-10.4-1.1s-10.6,2-12-0.7c-1-2.1-1.8-4.2-2.5-6.3c0,0-2.5,4.3-1.4,7.7s-0.5-0.2-1.6-0.2s-3.2-0.2-3.2-1.6
		s-4.5-24.2-4.5-24.2l6.3-14.5c0,0,5.9-2.7,5.2-5.9S397.1,409.8,393.8,408.2z"/>
	<path id="Path_480" fill="#FFB8B8" d="M394.5,409.6c-1.1-1-2.8-1.3-4.2-0.7c-2.8,1.2-4.8,3.6-5.6,6.5c-2,6.6-6.3,24-5.4,28.3
		s8.4,23.6,8.4,23.6c0.2,1.8,0.5,3.5,0.9,5.2c0.2,0.2,3.6-8.2,3.6-8.2l-5.9-22.4l7.9-24.2C394.2,417.7,397.4,412.4,394.5,409.6z"/>
	<ellipse id="Ellipse_135" fill="#2F2E41" cx="404.5" cy="391" rx="8.7" ry="5.7"/>
</g>
<g id="svg--outdoor_x5F__x5F_man">
	<path id="Path_481" fill="#2F2E41" d="M211.3,415.2c0,0-15.2,8.2-15.8,15.2s-9.3,24.5-9.3,24.5s-34.4-9.9-35-10.5
		s-2.9,10.5-2.9,10.5l12.3,1.8l22.8,8.2c0,0,5.3,7.6,14-2.9s30.9-33.3,30.9-33.3L211.3,415.2z"/>
	<path id="Path_482" fill="#2F2E41" d="M208.4,443.8c0,0,19.3,18.7,18.7,22.8s-9.3,37.3-9.3,37.3l7,3.5l4.7-2.9l9.3-40.3
		c0,0,3.5-4.9-3.2-10.6S224.2,428,224.2,428L208.4,443.8z"/>
	<circle id="Ellipse_136" fill="#A0616A" cx="263" cy="396.8" r="9.9"/>
	<path id="Path_483" fill="#A0616A" d="M256.3,395.4c0,0-9.9-4.7-11.1-3.5s2.3,15.2,2.3,15.2s9.3-5.3,10.5-5.3
		C259.2,401.8,256.3,395.4,256.3,395.4z"/>
	<path id="Path_484" fill="#EB7A6D" d="M250.4,401.8c0,0-2.9-11.7-4.1-11.7s-12.3,1.8-19.3,9.9s-14.6,12.8-16.9,14.6s-4.1,3.5,0,5.3
		s8.8,6.4,10.5,9.3s13.4-0.6,13.4-0.6s5.3-9.9,7-9.9S252.2,405.3,250.4,401.8z"/>
	<path id="Path_485" fill="#A0616A" d="M232.9,414.6c0,0-8.2,11.1-8.2,19.3s4.7,21.6,4.7,21.6s4.1,19.8,7.6,12.8s-2.3-16.3-2.3-16.3
		l-2.3-21l4.7-11.1L232.9,414.6z"/>
	<path id="Path_486" fill="#2F2E41" d="M153.1,445c0,0-6.5-4.8-7.1-3s-9.3,21.6-6.4,22.8s11.7-10.5,12.3-10.5S151.4,444.5,153.1,445
		z"/>
	<path id="Path_487" fill="#2F2E41" d="M228.3,501c0,0,8.8,4.7,10.5,4.7s5.3,2.3,1.2,3.5s-22.2,2.9-22.8,1.2s0-6.4,0-6.4
		S228.3,502.7,228.3,501z"/>
	<path id="Path_488" fill="#2F2E41" d="M274.5,396.6c0.3-0.7,0.4-1.5,0.3-2.2c-0.1-1.7-0.2-3.5-1.3-4.7c-0.6-0.6-1.4-1.1-1.8-1.8
		c-0.2-0.5-0.4-1.1-0.5-1.6c-0.6-1.3-1.8-2.3-3.2-2.6c-1.4-0.3-2.9-0.3-4.3-0.2c-2.1,0-4.1,0.4-6,1.1c-2,0.7-3.5,2.3-4.2,4.2
		c-0.2,0.8-0.3,1.5-0.2,2.3l-0.1,3.2c0.7,0.6,1.6,0.7,2.4,0.3c0.8-0.4,1.5-0.9,2.3-1.3c0.8-0.4,1.8-0.2,2.4,0.4
		c0.2,0.3,0.3,0.6,0.4,0.9c1.6,3.2,5.9-0.2,8.1-0.2C270.6,394.5,273,399.8,274.5,396.6z"/>
	<path id="Path_489" fill="#2F2E41" d="M242.7,512.1c14.5,0,16.9-5.4,17-5.7l-1.1-0.4c0,0.1-2.5,5.4-18.1,4.9
		c-15.1-0.5-38.6-0.1-41.7,0c-0.9-1.5-4.8-7.5-10.4-6.4l0.2,1.1c5.3-1.1,9.3,6,9.3,6.1l0.2,0.3l0.4,0c0.3,0,25.8-0.6,42,0
		C241.3,512.1,242,512.1,242.7,512.1z"/>
	<path id="Rectangle_457" fill="#2F2E41" d="M242.9,517.9L242.9,517.9c-1.3,0-2.4-1-2.4-2.3v-0.1c0-1.3,1-2.3,2.3-2.3h0.1
		c1.3,0,2.3,1,2.3,2.3v0.1C245.2,516.9,244.1,517.9,242.9,517.9z"/>
	<path id="Rectangle_458" fill="#2F2E41" d="M202.6,517.9L202.6,517.9c-1.3,0-2.4-1-2.4-2.3v-0.1c0-1.3,1-2.3,2.3-2.3h0.1
		c1.3,0,2.3,1,2.3,2.3v0.1C204.9,516.9,203.9,517.9,202.6,517.9z"/>
	<path id="Path_490" fill="#EB7A6D" d="M248.7,400.6c0,0-2.8,14-5.8,16.6s-3.7,5.1-5.7,5.9s-9-7.4-9-8S248.7,400.6,248.7,400.6z"/>
</g>
<rect id="svg--outdoor_x5F__x5F_floor_5_" x="160.9" y="520.1" fill="#2F2E41" width="146.8" height="1.9"/>
<rect id="svg--outdoor_x5F__x5F_floor_4_" x="335.9" y="559.6" fill="#2F2E41" width="146.8" height="1.9"/>
<rect id="svg--outdoor_x5F__x5F_floor_3_" x="542" y="615.1" fill="#2F2E41" width="60.2" height="1.9"/>
<rect id="svg--outdoor_x5F__x5F_floor_2_" x="166.6" y="599.1" fill="#2F2E41" width="60.2" height="1.9"/>
<rect id="svg--outdoor_x5F__x5F_floor_1_" x="501" y="466.4" fill="#2F2E41" width="258.9" height="1.9"/>
<path id="svg--outdoor_x5F__x5F_cloud--one" fill="#F2F2F2" d="M377.8,12.6C361.1-4.1,334-4.2,317.3,12.5c-4.4,4.3-7.7,9.6-9.9,15.3
	l78.5-3.6C383.9,19.8,381.1,15.9,377.8,12.6z"/>
<path id="svg--outdoor_x5F__x5F_cloud--two" fill="#F2F2F2" d="M208.4,75.6c-16.7-16.7-43.7-16.8-60.5-0.1
	c-4.4,4.3-7.7,9.6-9.9,15.3l78.5-3.6C214.5,82.9,211.7,79,208.4,75.6L208.4,75.6z"/>
<path id="svg--outdoor_x5F__x5F_cloud--three" fill="#F2F2F2" d="M676,169.7c-16.7-16.7-43.7-16.8-60.5-0.1
	c-4.4,4.3-7.7,9.6-9.9,15.3l78.5-3.6C682.2,177,679.4,173.1,676,169.7L676,169.7z"/>
<rect id="svg--outdoor_x5F__x5F_floor" x="638.9" y="585.9" fill="#2F2E41" width="142.1" height="1.9"/>
<g id="svg--outdoor_x5F__x5F_ball">
	<path id="Path_494" fill="#EB7A6D" d="M663.5,549.3c0,3.9-3,7.2-7,7.5h0c-0.2,0-0.4,0-0.6,0c-4.2,0-7.5-3.4-7.5-7.5c0,0,0,0,0,0
		c0,0,0-0.1,0-0.1c0.1-3.8,2.9-6.9,6.7-7.4c0.3,0,0.6,0,0.8,0c3.7,0,6.8,2.6,7.4,6.2v0C663.5,548.4,663.5,548.8,663.5,549.3z"/>
	<path id="Path_495" fill="#F2F2F2" d="M663.5,549.3c0,3.9-3,7.2-7,7.5h0c-1.9-2.6-1.4-6.2,1.2-8.1c1.6-1.2,3.8-1.5,5.6-0.7v0
		C663.5,548.4,663.5,548.8,663.5,549.3z"/>
	<path id="Path_496" fill="#F2F2F2" d="M655.4,543.5c0,3.2-2.6,5.8-5.8,5.8c-0.4,0-0.8,0-1.2-0.1c0.1-3.8,2.9-6.9,6.7-7.4
		C655.3,542.3,655.4,542.9,655.4,543.5L655.4,543.5z"/>
</g>
<g id="svg--outdoor_x5F__x5F_dog">
	<path id="Path_497" fill="#2F2E41" d="M729.2,538.4c0,4.7-7,4-8.5,8.5c-5.2,15.5-8.5-2.3-8.5-8.5c-0.1-4.7,3.7-8.5,8.4-8.6
		c4.7-0.1,8.5,3.7,8.6,8.4C729.2,538.3,729.2,538.4,729.2,538.4L729.2,538.4z"/>
	<path id="Path_498" fill="#3F3D56" d="M718.4,561.9c0,0-0.1,10.7-1.5,11.4s-9.3,2.2-7.9,4.6c1.5,2.5,4.7,3.4,7.3,2.1
		c2.4-1.4,8.3-9.7,8.3-9.7L718.4,561.9z"/>
	<path id="Path_499" fill="#3F3D56" d="M747.9,571.3c0,0,0,0.1,0,0.3c0.3,4.2,4,7.4,8.2,7.1c0.8-0.1,1.6-0.3,2.4-0.6
		c1-0.4,1.9-0.5,1.7,0.6c-0.3,2.4-0.2,5.7,1.5,5.7s4.2-4.2,2.8-8.7c-1.1-3.2-2.6-6.2-4.5-9L747.9,571.3z"/>
	<path id="Path_500" opacity="0.1" enable-background="new    " d="M718.4,561.9c0,0-0.1,10.7-1.5,11.4s-9.3,2.2-7.9,4.6
		c1.5,2.5,4.7,3.4,7.3,2.1c2.4-1.4,8.3-9.7,8.3-9.7L718.4,561.9z"/>
	<path id="Path_501" opacity="0.1" enable-background="new    " d="M747.9,571.3c0,0,0,0.1,0,0.3c0.3,4.2,4,7.4,8.2,7.1
		c0.8-0.1,1.6-0.3,2.4-0.6c1-0.4,1.9-0.5,1.7,0.6c-0.3,2.4-0.2,5.7,1.5,5.7s4.2-4.2,2.8-8.7c-1.1-3.2-2.6-6.2-4.5-9L747.9,571.3z"/>
	<path id="Path_502" fill="#3F3D56" d="M710.8,540c0.7-1.6,1.8-3.1,3.2-4.2c2.7-2.2,6.2-3,9.6-2c8,2.1,9,8,9,8v2.4
		c0,2.3,1.4,4.5,3.5,5.4c1.8,0.7,30.9-0.3,32.6-2c1.3-1.4,2.3-3,3.1-4.7v0.1c0,3.2-0.8,6.3-2.4,9.1c-0.7,1-1.1,2.2-1.1,3.4
		c0.3,2.4,1.4,9-0.7,11.5s-1,4.2,1.4,4.5s6.6-0.3,6.2,3.8s0.3,5.9-1.4,5.9s-2.5-0.5-4.2-4.4c0,0-1.3-0.9-6.2,0.5
		c-3.2,0.9-7.3,1.8-8.5-0.7c-2.7-5.4-20-4.4-23.9,1.1c-1,1.5-2.3,2.9-3.8,4.1c-0.7,0.5-1.4,1-2.2,1.3c-2.1,0.7-4.6,1-6.3-0.9
		c-3.5-3.8,5.8-4.5,5.8-4.5s1.5-3.5,0.8-6c0,0-8.3-1.7-8.7-12.5c0,0-11.1,0-12.8-5.6l-1.7-5.6l3.3-2
		C707.8,544.6,709.6,542.5,710.8,540L710.8,540z"/>
	<ellipse id="Ellipse_137" fill="#2F2E41" cx="702.2" cy="548.3" rx="1.6" ry="2.1"/>
	<path id="Path_503" fill="#2F2E41" d="M736.8,541.8c0,5.2-7.8,4.5-9.4,9.4c-5.8,17.2-9.5-2.6-9.4-9.4c0.1-5.2,4.3-9.4,9.5-9.3
		C732.6,532.6,736.7,536.7,736.8,541.8L736.8,541.8z"/>
</g>
</svg>
