<svg xmlns="http://www.w3.org/2000/svg" width="916.495" height="616.976" viewBox="0 0 916.495 616.976">
  <g id="Group_30" data-name="Group 30" transform="translate(0 -0.006)">
    <circle id="Ellipse_107" data-name="Ellipse 107" cx="64.524" cy="64.524" r="64.524" transform="translate(304.106 83.993)" fill="#eb7a6d"/>
    <path id="Path_460" data-name="Path 460" d="M289.475,433.3l-75.792-74.68-18.8-18.521-56.1-55.276L69.244,359.06,0,432.988" transform="translate(0 -16.815)" fill="#f2f2f2"/>
    <path id="Path_461" data-name="Path 461" d="M672.157,421.781H159.71l63.4-68.728,117.14-137.4,7.895-9.259L454.108,82.1l73.32,116.124,1.919,3.039,93.277,147.712Z" transform="translate(-9.429 -4.847)" fill="#f2f2f2"/>
    <path id="Path_462" data-name="Path 462" d="M951.044,428.651,824.469,279.3,762.418,206.09l-59.972,75.195-54.7,68.61L585.18,428.34" transform="translate(-34.549 -12.167)" fill="#f2f2f2"/>
    <path id="Path_463" data-name="Path 463" d="M199.232,340.1l-33.4,22.392L126.4,346.956l-52.814,12.1,69.543-74.238Z" transform="translate(-4.345 -16.815)" opacity="0.1"/>
    <path id="Path_464" data-name="Path 464" d="M539.251,198.228l-11.188,19.657L502.977,191.6l-27.485,26.281-15.535-29.866-25.1,29.866-7.17-19.111L410.97,217.885l-29.875-19.111L359.97,206.4,465.931,82.1Z" transform="translate(-21.253 -4.847)" opacity="0.1"/>
    <path id="Path_465" data-name="Path 465" d="M831.827,279.3l-30.984,37.913L775.75,287.343,737.514,318.41,709.8,281.285l59.972-75.195Z" transform="translate(-41.907 -12.167)" opacity="0.1"/>
    <path id="Path_466" data-name="Path 466" d="M950.366,553.081l-1.672-.864c21.719-41.989,10.105-96.519-3.462-134.87a413.347,413.347,0,0,0-35.077-74.03l1.591-1.005a415.467,415.467,0,0,1,35.26,74.407C960.7,455.421,972.393,510.495,950.366,553.081Z" transform="translate(-160.064 -135.151)" fill="#2f2e41"/>
    <rect id="Rectangle_447" data-name="Rectangle 447" width="67.919" height="1.881" transform="translate(794.201 274.311) rotate(-79.645)" fill="#2f2e41"/>
    <rect id="Rectangle_448" data-name="Rectangle 448" width="1.883" height="92.545" transform="matrix(0.732, -0.681, 0.681, 0.732, 723.85, 265.702)" fill="#2f2e41"/>
    <rect id="Rectangle_449" data-name="Rectangle 449" width="54.584" height="1.882" transform="matrix(0.586, -0.81, 0.81, 0.586, 806.59, 383.081)" fill="#2f2e41"/>
    <circle id="Ellipse_108" data-name="Ellipse 108" cx="9.41" cy="9.41" r="9.41" transform="translate(802.639 170.967)" fill="#eb7a6d"/>
    <circle id="Ellipse_109" data-name="Ellipse 109" cx="9.41" cy="9.41" r="9.41" transform="translate(700.074 243.421)" fill="#3f3d56"/>
    <circle id="Ellipse_110" data-name="Ellipse 110" cx="9.41" cy="9.41" r="9.41" transform="translate(741.477 252.831)" fill="#3f3d56"/>
    <circle id="Ellipse_111" data-name="Ellipse 111" cx="9.41" cy="9.41" r="9.41" transform="translate(722.657 289.528)" fill="#eb7a6d"/>
    <circle id="Ellipse_112" data-name="Ellipse 112" cx="9.41" cy="9.41" r="9.41" transform="translate(840.277 313.052)" fill="#3f3d56"/>
    <circle id="Ellipse_113" data-name="Ellipse 113" cx="9.41" cy="9.41" r="9.41" transform="translate(809.226 323.403)" fill="#3f3d56"/>
    <circle id="Ellipse_114" data-name="Ellipse 114" cx="9.41" cy="9.41" r="9.41" transform="translate(830.868 353.514)" fill="#3f3d56"/>
    <circle id="Ellipse_115" data-name="Ellipse 115" cx="9.41" cy="9.41" r="9.41" transform="translate(732.067 182.259)" fill="#3f3d56"/>
    <path id="Path_467" data-name="Path 467" d="M701.366,551.081l-1.672-.864c21.719-41.989,10.105-96.519-3.461-134.87a413.357,413.357,0,0,0-35.077-74.03l1.591-1.005a415.471,415.471,0,0,1,35.26,74.407C711.7,453.421,723.393,508.495,701.366,551.081Z" transform="translate(-145.363 -135.033)" fill="#2f2e41"/>
    <rect id="Rectangle_450" data-name="Rectangle 450" width="67.919" height="1.881" transform="translate(559.901 272.428) rotate(-79.645)" fill="#2f2e41"/>
    <rect id="Rectangle_451" data-name="Rectangle 451" width="1.883" height="92.545" transform="matrix(0.732, -0.681, 0.681, 0.732, 489.551, 263.821)" fill="#2f2e41"/>
    <rect id="Rectangle_452" data-name="Rectangle 452" width="54.584" height="1.882" transform="matrix(0.586, -0.81, 0.81, 0.586, 572.291, 381.199)" fill="#2f2e41"/>
    <circle id="Ellipse_116" data-name="Ellipse 116" cx="9.41" cy="9.41" r="9.41" transform="translate(568.34 169.085)" fill="#3f3d56"/>
    <circle id="Ellipse_117" data-name="Ellipse 117" cx="9.41" cy="9.41" r="9.41" transform="translate(465.775 241.539)" fill="#3f3d56"/>
    <circle id="Ellipse_118" data-name="Ellipse 118" cx="9.41" cy="9.41" r="9.41" transform="translate(507.177 250.949)" fill="#3f3d56"/>
    <circle id="Ellipse_119" data-name="Ellipse 119" cx="9.41" cy="9.41" r="9.41" transform="translate(488.358 287.646)" fill="#3f3d56"/>
    <circle id="Ellipse_120" data-name="Ellipse 120" cx="9.41" cy="9.41" r="9.41" transform="translate(605.978 311.17)" fill="#eb7a6d"/>
    <circle id="Ellipse_121" data-name="Ellipse 121" cx="9.41" cy="9.41" r="9.41" transform="translate(574.927 321.521)" fill="#3f3d56"/>
    <circle id="Ellipse_122" data-name="Ellipse 122" cx="9.41" cy="9.41" r="9.41" transform="translate(596.569 351.632)" fill="#3f3d56"/>
    <circle id="Ellipse_123" data-name="Ellipse 123" cx="9.41" cy="9.41" r="9.41" transform="translate(497.768 180.377)" fill="#3f3d56"/>
    <path id="Path_468" data-name="Path 468" d="M285.341,551.081l1.672-.864c-21.719-41.989-10.105-96.519,3.462-134.87a413.359,413.359,0,0,1,35.077-74.03l-1.591-1.005a415.462,415.462,0,0,0-35.26,74.406C275.01,453.421,263.314,508.495,285.341,551.081Z" transform="translate(-122.45 -135.033)" fill="#2f2e41"/>
    <rect id="Rectangle_453" data-name="Rectangle 453" width="1.881" height="67.919" transform="translate(144.936 205.947) rotate(-10.355)" fill="#2f2e41"/>
    <rect id="Rectangle_454" data-name="Rectangle 454" width="92.545" height="1.883" transform="matrix(0.681, -0.732, 0.732, 0.681, 164.92, 330.291)" fill="#2f2e41"/>
    <rect id="Rectangle_455" data-name="Rectangle 455" width="1.882" height="54.584" transform="matrix(0.81, -0.586, 0.586, 0.81, 113.102, 338.062)" fill="#2f2e41"/>
    <circle id="Ellipse_124" data-name="Ellipse 124" cx="9.41" cy="9.41" r="9.41" transform="translate(131.734 169.085)" fill="#3f3d56"/>
    <circle id="Ellipse_125" data-name="Ellipse 125" cx="9.41" cy="9.41" r="9.41" transform="translate(234.299 241.539)" fill="#3f3d56"/>
    <circle id="Ellipse_126" data-name="Ellipse 126" cx="9.41" cy="9.41" r="9.41" transform="translate(192.897 250.949)" fill="#3f3d56"/>
    <circle id="Ellipse_127" data-name="Ellipse 127" cx="9.41" cy="9.41" r="9.41" transform="translate(211.716 287.646)" fill="#3f3d56"/>
    <circle id="Ellipse_128" data-name="Ellipse 128" cx="9.41" cy="9.41" r="9.41" transform="translate(94.096 311.17)" fill="#3f3d56"/>
    <circle id="Ellipse_129" data-name="Ellipse 129" cx="9.41" cy="9.41" r="9.41" transform="translate(125.148 321.521)" fill="#3f3d56"/>
    <circle id="Ellipse_130" data-name="Ellipse 130" cx="9.41" cy="9.41" r="9.41" transform="translate(103.506 351.632)" fill="#eb7a6d"/>
    <circle id="Ellipse_131" data-name="Ellipse 131" cx="9.41" cy="9.41" r="9.41" transform="translate(202.306 180.377)" fill="#3f3d56"/>
    <rect id="Rectangle_456" data-name="Rectangle 456" width="916.495" height="1.882" transform="translate(0 415.617)" fill="#2f2e41"/>
    <circle id="Ellipse_132" data-name="Ellipse 132" cx="11.323" cy="11.323" r="11.323" transform="translate(393.299 383.97)" fill="#2f2e41"/>
    <path id="Path_469" data-name="Path 469" d="M536.356,551.312s.226,4.076-2.491,4.529l3.85,9.285,4.756,7.7h4.076l2.491-2.265-.453-2.944-1.359-5.209-1.585-1.585s.226-6.568,2.265-9.512S536.356,551.312,536.356,551.312Z" transform="translate(-137.848 -147.413)" fill="#ffb8b8"/>
    <path id="Path_470" data-name="Path 470" d="M536.356,551.312s.226,4.076-2.491,4.529l3.85,9.285,4.756,7.7h4.076l2.491-2.265-.453-2.944-1.359-5.209-1.585-1.585s.226-6.568,2.265-9.512S536.356,551.312,536.356,551.312Z" transform="translate(-137.848 -147.413)" opacity="0.1"/>
    <circle id="Ellipse_133" data-name="Ellipse 133" cx="5.435" cy="5.435" r="5.435" transform="translate(402.358 378.988)" fill="#2f2e41"/>
    <path id="Path_471" data-name="Path 471" d="M540.759,527.934a5.435,5.435,0,0,1,5.435-5.435c.072,0,.143,0,.214.005a5.435,5.435,0,1,0-1.786,10.633,5.437,5.437,0,0,1-3.863-5.2Z" transform="translate(-138.175 -145.775)" fill="#2f2e41"/>
    <path id="Path_472" data-name="Path 472" d="M534.658,556.425l-2.265-.226a3.717,3.717,0,0,0-3.623.906c-1.585,1.585.226,19.476.226,19.476l5.662-3.85.906-9.059Z" transform="translate(-137.509 -147.77)" fill="#ffb8b8"/>
    <path id="Path_473" data-name="Path 473" d="M522.164,631.057l-3.17,17.891s-2.038,7.473-4.529,9.738-6.341,21.061-7.247,25.138-1.132,6.341-2.265,7.926,0,7.247,0,7.247h2.491l3.623-.679s.679-8.606,1.359-10.191S524.2,662.762,524.2,662.762s7.473-11.1,8.832-17.211A39.153,39.153,0,0,1,538.016,634Z" transform="translate(-136.111 -152.198)" fill="#ffb8b8"/>
    <path id="Path_474" data-name="Path 474" d="M547.583,629.851l2.944,20.608s0,6.341.906,8.832,1.585,17.211,2.491,20.608,2.944,10.87,2.265,11.776a32.312,32.312,0,0,0-2.038,4.529l2.265,4.982,6.115-4.3-.906-37.14s2.491-31.479.906-32.385S553.018,623.736,547.583,629.851Z" transform="translate(-138.658 -151.898)" fill="#ffb8b8"/>
    <path id="Path_475" data-name="Path 475" d="M528.634,606.4,524.1,618.854s-3.4,13.135-1.585,13.814,22.42,3.623,22.873,1.132a25.549,25.549,0,0,0,.453-2.944s17.664.679,17.891-3.4a146.484,146.484,0,0,0-.906-16.532,4.414,4.414,0,0,0-4.076-3.4C556.263,607.53,534.749,601.869,528.634,606.4Z" transform="translate(-137.147 -150.639)" fill="#2f2e41"/>
    <path id="Path_476" data-name="Path 476" d="M505.206,700.015a1.491,1.491,0,0,1,2.038-.453,10.065,10.065,0,0,0,4.076.453l-.679,6.115S513.359,717,508.377,717s-7.7-3.623-7.247-4.982,1.585-12,1.585-12,2.176-5.347,2.265-5.662S505.206,700.015,505.206,700.015Z" transform="translate(-135.912 -155.935)" fill="#2f2e41"/>
    <path id="Path_477" data-name="Path 477" d="M555.466,698.993s-.453,2.491,1.585,2.265,5.435-2.265,5.662-2.038a11.162,11.162,0,0,1,1.132,3.623c.226,1.585.679,4.982,2.718,6.567s5.209,6.568,1.585,6.794-10.191,0-10.417-2.265-.227-4.756-.227-4.756-2.038.226-2.718-.226-5.209-3.171-3.85-6.794,5.193-5.958,5.193-5.958Z" transform="translate(-138.841 -156.045)" fill="#2f2e41"/>
    <circle id="Ellipse_134" data-name="Ellipse 134" cx="8.832" cy="8.832" r="8.832" transform="translate(394.885 389.632)" fill="#ffb8b8"/>
    <path id="Path_478" data-name="Path 478" d="M547.1,563.187s4.076,0,4.982,2.265-.906,7.02-.906,7.02l-2.065-5.048Z" transform="translate(-138.629 -148.191)" fill="#ffb8b8"/>
    <path id="Path_479" data-name="Path 479" d="M530.932,555.967h2.717s7.02,10.417,8.153,11.323,5.209,1.132,5.209.453-2.038-6.568-2.038-6.568l1.812,1.359,2.944,7.247s7.926,19.929,7.247,21.967a2.02,2.02,0,0,0,1.132,2.718c.226.227,2.718,5.435,1.585,7.473s1.132,4.529,1.132,4.529,1.132,4.982-2.718,5.662-5.888-2.944-10.417-1.132-10.644,2.038-12-.679a50.808,50.808,0,0,1-2.491-6.341s-2.491,4.3-1.359,7.7-.453-.226-1.585-.226-3.171-.226-3.171-1.585-4.529-24.232-4.529-24.232l6.341-14.494s5.888-2.718,5.209-5.888S534.329,557.552,530.932,555.967Z" transform="translate(-137.18 -147.765)" fill="#3f3d56"/>
    <path id="Path_480" data-name="Path 480" d="M531.281,557.433a3.961,3.961,0,0,0-4.208-.7,9.739,9.739,0,0,0-5.591,6.509c-2.038,6.567-6.341,24.005-5.435,28.308s8.379,23.552,8.379,23.552a50.489,50.489,0,0,0,.906,5.209c.227.227,3.623-8.153,3.623-8.153l-5.888-22.42,7.926-24.232S534.218,560.184,531.281,557.433Z" transform="translate(-136.789 -147.791)" fill="#ffb8b8"/>
    <ellipse id="Ellipse_135" data-name="Ellipse 135" cx="8.719" cy="5.662" rx="8.719" ry="5.662" transform="translate(395.79 385.329)" fill="#2f2e41"/>
    <path id="Path_481" data-name="Path 481" d="M333.639,563.41s-15.169,8.168-15.752,15.169-9.335,24.5-9.335,24.5-34.422-9.918-35.005-10.5-2.917,10.5-2.917,10.5l12.252,1.75L305.635,613s5.251,7.584,14-2.917,30.921-33.255,30.921-33.255Z" transform="translate(-122.306 -148.204)" fill="#2f2e41"/>
    <path id="Path_482" data-name="Path 482" d="M334.493,592.8s19.253,18.669,18.669,22.753-9.335,37.339-9.335,37.339l7,3.5,4.667-2.917,9.335-40.256s3.514-4.93-3.2-10.633-11.383-25.539-11.383-25.539Z" transform="translate(-126.077 -149.01)" fill="#2f2e41"/>
    <circle id="Ellipse_136" data-name="Ellipse 136" cx="9.918" cy="9.918" r="9.918" transform="translate(253.048 386.91)" fill="#a0616a"/>
    <path id="Path_483" data-name="Path 483" d="M384.625,542.1s-9.918-4.667-11.085-3.5,2.334,15.169,2.334,15.169,9.335-5.251,10.5-5.251S384.625,542.1,384.625,542.1Z" transform="translate(-128.368 -146.728)" fill="#a0616a"/>
    <path id="Path_484" data-name="Path 484" d="M376.455,548.417s-2.917-11.668-4.084-11.668-12.252,1.75-19.253,9.918S338.533,559.5,336.2,561.253s-4.084,3.5,0,5.251,8.751,6.418,10.5,9.335,13.419-.583,13.419-.583,5.251-9.918,7-9.918S378.205,551.918,376.455,548.417Z" transform="translate(-126.033 -146.63)" fill="#eb7a6d"/>
    <path id="Path_485" data-name="Path 485" d="M360.021,562.79s-8.168,11.085-8.168,19.253,4.667,21.587,4.667,21.587,4.084,19.836,7.584,12.835-2.334-16.336-2.334-16.336l-2.334-21,4.667-11.085Z" transform="translate(-127.102 -148.168)" fill="#a0616a"/>
    <path id="Path_486" data-name="Path 486" d="M274.8,594.914s-6.5-4.757-7.088-3.007-9.335,21.586-6.418,22.753,11.668-10.5,12.252-10.5S273.136,594.42,274.8,594.914Z" transform="translate(-121.72 -149.864)" fill="#2f2e41"/>
    <path id="Path_487" data-name="Path 487" d="M354.862,654.554s8.751,4.667,10.5,4.667,5.251,2.334,1.167,3.5-22.17,2.917-22.753,1.167,0-6.418,0-6.418S354.862,656.3,354.862,654.554Z" transform="translate(-126.61 -153.585)" fill="#2f2e41"/>
    <path id="Path_488" data-name="Path 488" d="M403.345,542.854a4.913,4.913,0,0,0,.279-2.249c-.054-1.676-.17-3.509-1.31-4.74-.584-.63-1.4-1.056-1.816-1.81a11.341,11.341,0,0,1-.526-1.627,4.539,4.539,0,0,0-3.225-2.623,13.408,13.408,0,0,0-4.3-.157,19.955,19.955,0,0,0-6.04,1.063,6.746,6.746,0,0,0-4.169,4.23,9.965,9.965,0,0,0-.244,2.322l-.085,3.248a2.1,2.1,0,0,0,2.407.259c.791-.351,1.461-.942,2.264-1.264a1.99,1.99,0,0,1,2.363.428,7.1,7.1,0,0,1,.412.893c1.6,3.188,5.9-.2,8.139-.156C399.492,540.715,401.88,546,403.345,542.854Z" transform="translate(-128.876 -146.205)" fill="#2f2e41"/>
    <path id="Path_489" data-name="Path 489" d="M367.563,665.892c14.539,0,16.881-5.417,16.978-5.659l-1.081-.44c-.024.055-2.513,5.449-18.109,4.891-15.139-.541-38.563-.075-41.693-.008-.877-1.485-4.812-7.512-10.367-6.4l.229,1.144c5.337-1.071,9.251,6.05,9.29,6.122l.169.314.357-.007c.257-.006,25.841-.576,41.972,0Q366.481,665.892,367.563,665.892Z" transform="translate(-124.825 -153.797)" fill="#2f2e41"/>
    <rect id="Rectangle_457" data-name="Rectangle 457" width="4.667" height="4.667" rx="2.298" transform="translate(245.171 517.888) rotate(180)" fill="#2f2e41"/>
    <rect id="Rectangle_458" data-name="Rectangle 458" width="4.667" height="4.667" rx="2.298" transform="translate(204.915 517.888) rotate(180)" fill="#2f2e41"/>
    <path id="Path_490" data-name="Path 490" d="M375.993,547.909s-2.773,14.044-5.762,16.649-3.692,5.127-5.674,5.908-8.983-7.387-8.983-7.971S375.993,547.909,375.993,547.909Z" transform="translate(-127.322 -147.289)" fill="#eb7a6d"/>
    <rect id="Rectangle_459" data-name="Rectangle 459" width="146.79" height="1.882" transform="translate(160.904 520.063)" fill="#2f2e41"/>
    <rect id="Rectangle_460" data-name="Rectangle 460" width="146.79" height="1.882" transform="translate(335.923 559.584)" fill="#2f2e41"/>
    <rect id="Rectangle_461" data-name="Rectangle 461" width="60.221" height="1.882" transform="translate(541.993 615.1)" fill="#2f2e41"/>
    <rect id="Rectangle_462" data-name="Rectangle 462" width="60.221" height="1.882" transform="translate(166.55 599.104)" fill="#2f2e41"/>
    <rect id="Rectangle_463" data-name="Rectangle 463" width="258.92" height="1.882" transform="translate(500.983 466.429)" fill="#2f2e41"/>
    <path id="Path_491" data-name="Path 491" d="M330.039,201.743A42.758,42.758,0,0,0,259.7,216.924l78.531-3.639a42.679,42.679,0,0,0-8.194-11.542Z" transform="translate(-121.661 -126.109)" fill="#f2f2f2"/>
    <path id="Path_492" data-name="Path 492" d="M510.039,134.743A42.758,42.758,0,0,0,439.7,149.924l78.531-3.639A42.677,42.677,0,0,0,510.039,134.743Z" transform="translate(-132.288 -122.153)" fill="#f2f2f2"/>
    <path id="Path_493" data-name="Path 493" d="M827.039,301.743A42.758,42.758,0,0,0,756.7,316.924l78.531-3.639a42.676,42.676,0,0,0-8.194-11.542Z" transform="translate(-151.004 -132.013)" fill="#f2f2f2"/>
    <rect id="Rectangle_464" data-name="Rectangle 464" width="142.085" height="1.882" transform="translate(638.912 585.931)" fill="#2f2e41"/>
    <path id="Path_494" data-name="Path 494" d="M817.178,705.4a7.522,7.522,0,0,1-6.96,7.5h-.006c-.185.017-.371.023-.562.023a7.527,7.527,0,0,1-7.528-7.528.78.78,0,0,1,.006-.116,7.519,7.519,0,0,1,6.688-7.366,7.9,7.9,0,0,1,.834-.046,7.519,7.519,0,0,1,7.412,6.225v.006A7.417,7.417,0,0,1,817.178,705.4Z" transform="translate(-153.686 -156.143)" fill="#eb7a6d"/>
    <path id="Path_495" data-name="Path 495" d="M817.614,705.763a7.522,7.522,0,0,1-6.96,7.5h-.006a5.791,5.791,0,0,1,6.85-8.807v.006A7.406,7.406,0,0,1,817.614,705.763Z" transform="translate(-154.122 -156.506)" fill="#f2f2f2"/>
    <path id="Path_496" data-name="Path 496" d="M809.072,699.612a5.791,5.791,0,0,1-6.943,5.675,7.519,7.519,0,0,1,6.688-7.365,5.608,5.608,0,0,1,.255,1.691Z" transform="translate(-153.686 -156.146)" fill="#f2f2f2"/>
    <path id="Path_497" data-name="Path 497" d="M886.937,693.834c0,4.677-6.988,4.032-8.469,8.469-5.178,15.52-8.517-2.306-8.469-8.469a8.469,8.469,0,1,1,16.937,0Z" transform="translate(-157.693 -155.405)" fill="#2f2e41"/>
    <path id="Path_498" data-name="Path 498" d="M875.858,719.331s-.1,10.664-1.49,11.358-9.275,2.184-7.886,4.615a5.585,5.585,0,0,0,7.292,2.083c2.431-1.389,8.334-9.723,8.334-9.723Z" transform="translate(-157.476 -157.41)" fill="#3f3d56"/>
    <path id="Path_499" data-name="Path 499" d="M907.825,729.012s0,.1.01.284a7.711,7.711,0,0,0,10.655,6.575c1.013-.4,1.891-.459,1.735.635-.347,2.431-.246,5.7,1.49,5.7s4.167-4.167,2.778-8.681a38.685,38.685,0,0,0-4.514-9.028Z" transform="translate(-159.926 -157.715)" fill="#3f3d56"/>
    <path id="Path_500" data-name="Path 500" d="M875.858,719.331s-.1,10.664-1.49,11.358-9.275,2.184-7.886,4.615a5.585,5.585,0,0,0,7.292,2.083c2.431-1.389,8.334-9.723,8.334-9.723Z" transform="translate(-157.476 -157.41)" opacity="0.1"/>
    <path id="Path_501" data-name="Path 501" d="M907.825,729.012s0,.1.01.284a7.711,7.711,0,0,0,10.655,6.575c1.013-.4,1.891-.459,1.735.635-.347,2.431-.246,5.7,1.49,5.7s4.167-4.167,2.778-8.681a38.685,38.685,0,0,0-4.514-9.028Z" transform="translate(-159.926 -157.715)" opacity="0.1"/>
    <path id="Path_502" data-name="Path 502" d="M867.847,695.65a11.726,11.726,0,0,1,3.211-4.194,10.478,10.478,0,0,1,9.583-2.041c7.987,2.083,9.028,7.987,9.028,7.987v2.383a5.707,5.707,0,0,0,3.53,5.351c1.768.691,30.879-.283,32.615-2.019a19.3,19.3,0,0,0,3.094-4.672v.067a17.715,17.715,0,0,1-2.4,9.061,5.813,5.813,0,0,0-1.073,3.372c.347,2.431,1.389,9.028-.694,11.459s-1.042,4.167,1.389,4.514,6.6-.347,6.25,3.82.347,5.9-1.389,5.9-2.5-.535-4.236-4.355c0,0-1.32-.854-6.181.535-3.16.9-7.312,1.758-8.526-.7-2.686-5.425-19.96-4.356-23.893,1.075a18.113,18.113,0,0,1-3.793,4.081,9.549,9.549,0,0,1-2.246,1.312c-2.083.738-4.6,1-6.337-.911-3.472-3.82,5.81-4.456,5.81-4.456s1.483-3.531.788-5.962c0,0-8.334-1.736-8.681-12.5,0,0-11.112,0-12.848-5.556l-1.736-5.556,3.34-2a13.741,13.741,0,0,0,5.382-5.972Z" transform="translate(-157.05 -155.62)" fill="#3f3d56"/>
    <ellipse id="Ellipse_137" data-name="Ellipse 137" cx="1.619" cy="2.083" rx="1.619" ry="2.083" transform="translate(700.6 546.223)" fill="#2f2e41"/>
    <path id="Path_503" data-name="Path 503" d="M894.819,697.41c0,5.2-7.765,4.48-9.41,9.41-5.754,17.245-9.463-2.562-9.41-9.41a9.41,9.41,0,0,1,18.819,0Z" transform="translate(-158.047 -155.56)" fill="#2f2e41"/>
  </g>
</svg>
