<?xml version="1.0" encoding="utf-8"?>
<!-- Generator: Adobe Illustrator 23.0.6, SVG Export Plug-In . SVG Version: 6.00 Build 0)  -->
<svg version="1.1" id="svg--printing" xmlns="http://www.w3.org/2000/svg" xmlns:xlink="http://www.w3.org/1999/xlink" x="0px"
	 y="0px" viewBox="0 0 854.4 583.8" enable-background="new 0 0 854.4 583.8" xml:space="preserve">
<path id="svg--printing_x5F__x5F_bg" opacity="0.1" fill="#304343" enable-background="new    " d="M808.6,445
	c38.6,67.2-43.9,124.9-146.8,117.4c-79.8,0-159.6,0-239.4,0C307.1,562.4,0,600.6,40.4,426.7c-62.5-79.1-21.3-239,104.6-231.3
	C194.6,40.2,492.2,0,598.1,108.2c98.1-50,209,61.9,191.8,146.7C826.4,284.3,857.8,377,808.6,445z"/>
<g id="svg--printing_x5F__x5F_leaf">
	<path id="Path_257" fill="#EB7A6D" d="M680.7,150.7c0,0-9.5-3.9-39.8,10s-34,12.1-41.9,10s-12.2-2.6-20.6-14.2
		c0,0-5.9-32.1-11.7-37.1s-30.1,2.8-30.1,2.8S507.5,129,501.9,90c0,0,3.9-29.4-1.4-38.4c0,0,10.9,4.7,28.8-2.9
		c17.9-7.5,32.2,8.1,32.2,8.1s4.5,11.7,4,18.7s2.4,9.6,10.9,6.2c0,0,4.2-6-1.7-15.8s-10.2-17.2-8.5-24.9s6.4-18.3,21.7-23.6
		s36.1-6.3,46.1-10.5S646.5,0,646.5,0s-6.1,6.2,8.3,32.3s5.2,37.4,5.2,37.4s-7.7,18.4-41.7,16.9c0,0-32.8,1.2-14.9,15.1
		c0,0,11.4-2.3,28.5-7.8s29.5,17,32.5,32.6S680.7,150.7,680.7,150.7z"/>
	<path fill="#444053" d="M574.7,102.1c3.1-3.5,6.2-6.8,9.3-10.2c3.1-3.4,6.1-6.8,9.1-10.3c6-6.9,11.8-14,17.5-21.2l0,0
		c5-6.4,9.9-12.8,14.6-19.5c2.3-3.3,4.6-6.7,6.7-10.1c1.1-1.7,2.1-3.5,3-5.3c0.5-0.9,0.9-1.8,1.2-2.8c0.3-0.9,0.7-1.9,0.5-2.9l0.1,0
		c0.2,1,0,2.1-0.3,3c-0.3,1-0.7,1.9-1.1,2.9c-0.9,1.8-1.8,3.6-2.9,5.4c-2.1,3.5-4.4,6.9-6.7,10.2c-4.7,6.6-9.4,12.9-14.4,19.2l0,0
		l-0.2,0.2c-5.7,7.2-11.5,14.3-17.4,21.4l-8.8,10.6c-2.9,3.5-6,7-8.7,10.5l0,0c-2.9,3.9-5.4,8-7.7,12.2c-2.2,4.3-4.2,8.7-5.9,13.2
		c-1.7,4.5-3.2,9.1-4.5,13.8c-1.2,4.6-2.3,9.4-3,14.1l-4.9-0.9c1.1-4.9,2.4-9.6,4-14.3c1.6-4.7,3.3-9.3,5.3-13.8
		c2-4.5,4.3-8.9,6.8-13.2C568.8,110,571.5,105.9,574.7,102.1"/>
	<path id="Path_261" fill="none" stroke="#444053" stroke-miterlimit="10" d="M659.5,138.3c0,0-21.6-11.2-38.4-7.2
		s-54.8-14.3-54.8-14.3s-16.1-6.5-19.3-14c0,0-11-11.7-11.7-17.7c-0.6-6-11.4-21.2-18.4-21.8"/>
	<path id="Path_262" fill="none" stroke="#444053" stroke-miterlimit="10" d="M656.3,149.1c0,0-10.9-7.3-9.6-15.9"/>
	<path id="Path_263" fill="none" stroke="#444053" stroke-miterlimit="10" d="M639.6,158.6c0,0-15.6-5.6-17.1-27.8"/>
	<path id="Path_264" fill="none" stroke="#444053" stroke-miterlimit="10" d="M614.5,164.3c0,0-14.9-12.3-9.9-33.9"/>
	<path id="Path_265" fill="none" stroke="#444053" stroke-miterlimit="10" d="M584.3,158.3c0,0-9.9-20.8-1.1-34.3"/>
	<path id="Path_266" fill="none" stroke="#444053" stroke-miterlimit="10" d="M659.7,124.6c0,0-11.2,3.6-8.8,9.5"/>
	<path id="Path_267" fill="none" stroke="#444053" stroke-miterlimit="10" d="M646.1,104.2c0,0-15.1,4.8-15.4,26.1"/>
	<path id="Path_268" fill="none" stroke="#444053" stroke-miterlimit="10" d="M625.1,99.3c0,0-13.7,16.9-12.7,32.3"/>
	<path id="Path_269" fill="none" stroke="#444053" stroke-miterlimit="10" d="M601.1,105.9c0,0-13.6,13-11.9,20.2"/>
	<path id="Path_270" fill="none" stroke="#444053" stroke-miterlimit="10" d="M592.9,101.3c0,0-12.8,2.3-14.5-1.9"/>
	<path id="Path_271" fill="none" stroke="#444053" stroke-miterlimit="10" d="M576.3,85.9c0,0,6.4,8.5,8.1,6.6"/>
	<path id="Path_272" fill="none" stroke="#444053" stroke-miterlimit="10" d="M640.2,80.5c0,0-32.2,2.3-39.5-7.4"/>
	<path id="Path_273" fill="none" stroke="#444053" stroke-miterlimit="10" d="M569.6,42.9c0,0,15.1,32.4,26.1,36.5"/>
	<path id="Path_274" fill="none" stroke="#444053" stroke-miterlimit="10" d="M585.4,27.5c0,0,9.3,29.8,20.8,39.1"/>
	<path id="Path_275" fill="none" stroke="#444053" stroke-width="0.75" stroke-miterlimit="10" d="M653.8,55.9
		c0,0-24.5,10.5-39.1-0.1"/>
	<path id="Path_276" fill="none" stroke="#444053" stroke-width="0.75" stroke-miterlimit="10" d="M607.2,21.1
		c0,0,5.6,21.9,13.1,27.2"/>
	<path id="Path_277" fill="none" stroke="#444053" stroke-width="0.75" stroke-miterlimit="10" d="M650.1,31.4
		c0,0-13.8,5.2-18.9,1.2"/>
	<path id="Path_278" fill="none" stroke="#444053" stroke-miterlimit="10" d="M564.5,93.1c0,0,0,19.1-5.2,20.5"/>
	<path id="Path_279" fill="none" stroke="#444053" stroke-miterlimit="10" d="M522,117.8c0,0,20.7,1.8,30.2-8.9"/>
	<path id="Path_280" fill="none" stroke="#444053" stroke-miterlimit="10" d="M559.2,70.5c0,0-5,19.4-18.8,24.6"/>
	<path id="Path_281" fill="none" stroke="#444053" stroke-miterlimit="10" d="M509.7,97.4c0,0,14.6,5.1,27.2-7.9"/>
	<path id="Path_282" fill="none" stroke="#444053" stroke-miterlimit="10" d="M543,53.9c0,0-1.4,16.4-10.3,24.1"/>
	<path id="Path_283" fill="none" stroke="#444053" stroke-miterlimit="10" d="M510.2,72.4c0,0,12.1,0.1,15-3.9"/>
</g>
<g id="svg--printing_x5F__x5F_printer">
	<rect id="Rectangle_418" x="252.6" y="134.8" fill="#33323D" width="345.3" height="174.3"/>
	<rect id="Rectangle_419" x="145.1" y="362" fill="#33323D" width="561.5" height="114.7"/>
	<path id="Path_285" fill="#504F60" d="M129.1,293.6v183.1h107.6V370.9H615v105.9h107.6V293.6H129.1z"/>
	
		<rect id="Rectangle_420" x="129.1" y="293.6" opacity="0.1" fill="#33323D" enable-background="new    " width="593.5" height="59.6"/>
	
		<circle id="svg--printing_x5F__x5F_printer_x5F__x5F_btn--green" opacity="0.8" fill="#8CCF4D" enable-background="new    " cx="690.6" cy="323.4" r="8.8"/>
	
		<circle id="svg--printing_x5F__x5F_printer_x5F__x5F_btn--red" opacity="0.8" fill="#FA5959" enable-background="new    " cx="650.8" cy="323.4" r="8.8"/>
</g>
<rect id="svg--printing_x5F__x5F_card--one" x="265.3" y="92.9" fill="#FFFFFF" width="319.9" height="189.7"/>
<g id="svg--printing_x5F__x5F_man--two">
	<path id="Path_286" fill="#FBBEBE" d="M633.9,369.8c0.7,7.3-4.9,14.5-3.3,21.7c0.3,1.5,1,3,1.2,4.5c0.7,4.3-1.9,8.3-4.3,11.9
		l-20.9,30.7c-0.8,1.3-1.8,2.6-3,3.7c-4,3.6-10,3.2-15.2,4.2c-3.7,0.7-7.2,2.3-10.2,4.5c-0.3,0.2-0.3,0.6-0.1,0.9
		c1.8,2.4,4.6,3.8,7.6,3.6c0.5,0.7,0,1.8-0.8,2.3c-1.1,0.8-2.7,1-2.9,2.9c-0.1,0.7,0.1,1.3,0.4,1.9c0.8,1.3,2.2,2.2,3.7,2.5
		c7.2,2.2,15-1.7,20.4-7s9.3-12,14.6-17.3c2.9-3,6.3-5.5,9.3-8.4c6-5.8,10.8-12.8,15.3-19.8c1.5-2,2.6-4.3,3.3-6.7
		c0.6-2.4,0.3-4.9,1-7.3c0.8-3.1,3.1-5.6,5-8.2c3.7-5.1,6.2-11.3,5.7-17.6s-4.4-12.5-10.3-14.6c-1.8-0.7-3.9-0.9-5.8-0.3
		c-2.4,0.7-4.2,2.8-5.9,4.7l-4,4.6c-1,1-1.8,2.2-2.3,3.5c-0.5,1.3-0.2,2.9,0.8,3.9"/>
	<path id="Path_287" opacity="5.000000e-02" enable-background="new    " d="M633.9,369.8c0.7,7.3-4.9,14.5-3.3,21.7
		c0.3,1.5,1,3,1.2,4.5c0.7,4.3-1.9,8.3-4.3,11.9l-20.9,30.7c-0.8,1.3-1.8,2.6-3,3.7c-4,3.6-10,3.2-15.2,4.2
		c-3.7,0.7-7.2,2.3-10.2,4.5c-0.3,0.2-0.3,0.6-0.1,0.9c1.8,2.4,4.6,3.8,7.6,3.6c0.5,0.7,0,1.8-0.8,2.3c-1.1,0.8-2.7,1-2.9,2.9
		c-0.1,0.7,0.1,1.3,0.4,1.9c0.8,1.3,2.2,2.2,3.7,2.5c7.2,2.2,15-1.7,20.4-7s9.3-12,14.6-17.3c2.9-3,6.3-5.5,9.3-8.4
		c6-5.8,10.8-12.8,15.3-19.8c1.5-2,2.6-4.3,3.3-6.7c0.6-2.4,0.3-4.9,1-7.3c0.8-3.1,3.1-5.6,5-8.2c3.7-5.1,6.2-11.3,5.7-17.6
		s-4.4-12.5-10.3-14.6c-1.8-0.7-3.9-0.9-5.8-0.3c-2.4,0.7-4.2,2.8-5.9,4.7l-4,4.6c-1,1-1.8,2.2-2.3,3.5c-0.5,1.3-0.2,2.9,0.8,3.9"/>
	<path id="Path_288" fill="#3F3D56" d="M649.7,558.8c-4.6,2.8-10.2,3-15.5,2.3c-0.9-0.1-1.9-0.2-2.4,0.5c-0.8,1,0.1,2.4,1.1,3.1
		c3.1,2.3,6.8,3.9,10.7,4.4c3.5,0.5,6.9,0.7,10.4,0.7c9.5,0.2,19.1,0.3,28.5-1.1c0.5,0,1.1-0.2,1.6-0.5c0.6-0.4,1-1.1,1.2-1.8
		c0.7-2.4-0.6-5.1-2.5-6.8c-2-1.6-4.2-2.8-6.7-3.6l-8.3-3.2c-2-0.8-5.1-2.8-7.2-2.6C656.8,550.6,653,556.9,649.7,558.8z"/>
	<path id="Path_289" opacity="5.000000e-02" enable-background="new    " d="M649.7,558.8c-4.6,2.8-10.2,3-15.5,2.3
		c-0.9-0.1-1.9-0.2-2.4,0.5c-0.8,1,0.1,2.4,1.1,3.1c3.1,2.3,6.8,3.9,10.7,4.4c3.5,0.5,6.9,0.7,10.4,0.7c9.5,0.2,19.1,0.3,28.5-1.1
		c0.5,0,1.1-0.2,1.6-0.5c0.6-0.4,1-1.1,1.2-1.8c0.7-2.4-0.6-5.1-2.5-6.8c-2-1.6-4.2-2.8-6.7-3.6l-8.3-3.2c-2-0.8-5.1-2.8-7.2-2.6
		C656.8,550.6,653,556.9,649.7,558.8z"/>
	<path id="Path_290" fill="#464353" d="M655.5,448.7c-3.4,4.6-7,9.9-6.2,15.6c0.5,3.1,2.2,5.8,3.4,8.6c1.6,3.9,2.7,7.9,3.5,12.1
		c1.3,6,2.6,12,3.4,18.1c0.9,6.9-3.3,26.8-3.7,33.8c-0.1,1.7-0.3,3.5-1.5,4.7c-0.5,0.5-1.1,0.9-1.3,1.5c-0.1,0.6,0,1.2,0.3,1.7
		c2,4.4,5.9,7.7,10.4,9.5s15.2,5.1,20,5.2c0.6,0.1,1.3,0,1.9-0.3c0.6-0.4,1.2-1,1.5-1.7c3.5-6.6,0.1-30.2,0.2-37.7
		c0-6.3,1.5-12.4,1.2-18.7c-0.2-5-1.6-9.9-2-14.9c-0.8-8.2,0.7-16.4,2.2-24.5c1.2-6.2,2.3-12.4,3.8-18.5c0.7-3.8,2.1-7.4,4-10.8
		c1.6-2.6,3.8-4.7,5.7-7.2c5.2-6.8,7.4-15.3,6.4-23.7c-0.1-0.8-12,3-13,3.5c-4.3,1.8-8.2,4.3-11.6,7.5c-2.7,2.6-4.9,6.1-7.3,9
		c-3.4,4.1-6.8,8.3-10.1,12.5C662.8,439,659.1,443.9,655.5,448.7z"/>
	<path id="Path_291" opacity="5.000000e-02" enable-background="new    " d="M655.5,448.4c-3.4,4.6-7,9.9-6.2,15.6
		c0.5,3.1,2.2,5.8,3.4,8.6c1.6,3.9,2.7,7.9,3.5,12.1c1.3,6,2.6,12,3.4,18.1c0.9,6.9-3.3,26.8-3.7,33.8c-0.1,1.7-0.3,3.5-1.5,4.7
		c-0.5,0.5-1.1,0.9-1.3,1.5c-0.1,0.6,0,1.3,0.3,1.8c2,4.4,5.9,7.7,10.4,9.5s15.2,3.6,20,3.7c0.6,0.1,1.3,0,1.9-0.3
		c0.6-0.4,1.2-1,1.5-1.7c3.5-6.6,0.1-28.7,0.2-36.2c0-6.3,1.5-12.4,1.2-18.7c-0.2-5-1.6-9.9-2-14.9c-0.8-8.2,0.7-16.4,2.2-24.5
		c1.2-6.2,2.3-12.4,3.8-18.5c0.7-3.8,2.1-7.4,4-10.8c1.6-2.6,3.8-4.7,5.7-7.1c5.1-6.8,7.4-15.3,6.4-23.7c-0.1-0.8-12,3-13,3.5
		c-4.3,1.8-8.2,4.3-11.6,7.5c-2.7,2.6-4.9,6.1-7.3,9c-3.4,4.1-6.8,8.3-10.1,12.5C662.8,438.8,659.1,443.6,655.5,448.4z"/>
	<circle id="Ellipse_51" fill="#FBBEBE" cx="617.1" cy="328.3" r="19.3"/>
	<path id="Path_292" fill="#FBBEBE" d="M634.5,327.5c3.6,5.8,9.4,9.8,16.1,11.2l-1.5,5.3c-2.5,9.1-5.4,18.7-12.4,25
		c0.6-3.2-0.1-6.4-2-9c-1.9-2.6-4.1-4.9-6.6-6.9l-11.1-9.7c-0.3-0.2-0.6-0.6-0.8-0.9c-0.3-0.7-0.3-1.4,0-2.1
		c1.4-4.4,5.5-7.2,8.8-10.2c1.6-1.5,3.1-3.3,4.4-5.1C631.7,321.9,633.1,325.1,634.5,327.5z"/>
	<path id="Path_293" fill="#464353" d="M591.6,308.8l-0.4-3.6c3.1,0.8,5.9-1.8,7.9-4.5s3.8-5.9,6.7-7c3.6-1.4,7.4,0.8,10.9,2.6
		c3.9,2.2,8.1,3.5,12.5,4.1c0.7,0,1.4,0.1,2.1,0.3c2.2,0.8,3.3,3.6,3.6,6.2s0.2,5.3,1.3,7.6c0.8,1.7,2.3,3,3.2,4.7
		c2.4,4.6,0.1,10.8,2.6,15.3l-6.2-5.7c-0.6-0.5-1.4-1.1-2-0.6s-0.5,1.1-0.7,1.7c-0.6,1.8-2.8,2.3-4.4,1.6s-2.8-2.2-3.9-3.6
		c-2.7-3.2-6-6.1-9.9-7.5c-3.4-1.3-7.2-1.1-10.4,0.6c-2.9,1.6-5,5.4-8.6,5.6c-4.9,0.2-6.9-8.9-9.1-12.4c1.7-1.3,2.2-3.6,1.3-5.5
		C588.4,308.6,591.5,308.2,591.6,308.8z"/>
	<path id="Path_294" fill="#3F3D56" d="M672.3,558.6c-3.8,3.4-8.8,5.3-13.9,5.2c-1.3,0-3.1,0.3-3.1,1.6c0,0.4,0.2,0.8,0.4,1.1
		c1.6,2.7,4.2,4.7,7.2,5.6c2.8,0.7,5.8,0.9,8.7,0.6l8.5-0.4c1.6-0.1,3.2-0.2,4.8-0.4s3.3-0.5,5-0.8c4.1-0.6,8.2-0.8,12.4-0.6
		c1.1,0,2.4,0,3-0.8s0.3-2.3,0.1-3.5c-0.5-2.5,0-5-0.5-7.5c-0.8-4.3-4.5-7.7-8.7-9.2c-3.8-1.5-10.6-3.1-14.2-0.7
		C678,551.3,675.7,555.5,672.3,558.6z"/>
	<path id="Path_295" fill="#464353" d="M680.7,413.4c0.8,3.6,4.2,6.3,4.3,9.9c0.1,2.9-2,5.4-3.5,7.9c-1.4,2.6-2.6,5.3-3.6,8.1
		c-2.8,7.2-6.4,14.2-10.5,20.8c-2,3.2-4.2,6.6-3.8,10.3c0.3,1.7,0.9,3.4,1.8,4.9l6,11.9c1.3,2.4,2.3,4.9,3.1,7.5
		c0.5,2.3,0.6,4.6,0.9,6.9c0.9,7.3,4.4,14.6,2.3,21.7c-0.2,0.6-0.8,1.3-1.3,0.9c2,3.7,3.6,7.4,3.4,11.6c-0.1,2.2-0.8,4.5,0.1,6.5
		c0.5,0.8,0.8,1.7,0.9,2.6c0,0.6-0.3,1.2-0.3,1.8c-0.2,1.7,1.4,3.1,3,3.6s3.3,0.5,5,1c3.1,0.9,5.3,3.6,8,5.5c2.7,1.9,5.9,2.9,9.2,3
		c0.5,0,0.9,0,1.3-0.3c0.5-0.4,0.8-1,0.8-1.6c0.3-3-0.9-6-3.3-7.9c-0.5-0.3-0.9-0.8-1.2-1.3c-0.2-0.5-0.2-1-0.1-1.4
		c0.5-6.5,0.4-13.1-0.4-19.6c-0.3-2.1-0.4-4.2-0.3-6.2c0.2-1.7,0.7-3.5,0.5-5.2c-0.2-1.7-1.1-3.3-1.6-5c-0.9-3-0.7-6.1-0.8-9.3
		c-0.2-5.4-1.4-10.7-2.6-15.9c-0.5-2.1-1-4.2-2.5-5.8c-1.2-1.3-3.2-2.5-2.8-4.3c0.3-0.6,0.6-1.2,1.1-1.7c1.2-1.5,1.7-3.3,1.4-5.2
		c1.1,0.3,2.2-0.2,2.7-1.3c9.9-4.9,17.4-13.5,21-23.9c0.2-0.8,0.5-1.5,0.9-2.1c0.9-1.3,2.5-1.8,3.8-2.5c4.3-2.2,7.4-6.3,10.1-10.3
		c1.7-2.2,3.1-4.8,3.9-7.5c0.4-1.8,0.6-3.6,0.5-5.4l0.2-9.4c0-0.6,0-1.2-0.2-1.8c-0.2-0.6-0.6-1.1-1-1.5c-2.6-2.8-6.1-4.7-9.9-5.4
		c-2.6-0.5-5.2-0.4-7.7-0.6c-5-0.4-9.9-2-15-1.6c-7.9,0.6-14.9,6-18.6,13C684.8,411.2,683.5,413.4,680.7,413.4z"/>
	<path id="Path_296" fill="#EB7A6D" d="M637,352.5c0.1,1.4-0.1,2.9-0.6,4.3c-0.6,1.3-2.2,2.3-3.5,1.8c0.4-0.9-0.7-2-1.7-1.9
		c-1,0.2-1.8,0.9-2.2,1.9c-0.7,1.3-0.9,2.9-0.6,4.3c0.3,1.8,1.4,3.6,1.1,5.4c-0.2,1.5-1.3,3.1-0.7,4.5c0.4,0.6,0.9,1.2,1.4,1.7
		c1.6,2,1.4,5-0.5,6.7l15.1,0.3c-0.5,2.5,0.6,5.1,1.9,7.3c7.3,12.5,20.1,20.8,34.5,22.5c-1.4,0.8-1.9,2.7-1.1,4.1
		c0.1,0.2,0.2,0.3,0.3,0.5c1.2,1.2,3.3,1.1,4.8,0.3c1.5-0.9,2.8-2,4.2-3.1c2.5-1.8,5.5-2.6,8.5-2.3c1.9,0.2,3.7,0.8,5.6,0.9
		c5.6,0.3,10.4-3.7,15.7-5.4c3.9-1.2,8.3-1.2,11.7-3.6c1.4-1.1,2.6-2.8,2.2-4.5c-0.4-1-0.9-1.9-1.6-2.6c-1.9-2.4-3-5.4-4.4-8.2
		c-2.7-5.5-6.4-10.5-10.9-14.6c-3.4-3-7-5.7-10.8-8.2c-0.9-0.7-1.9-1.3-2.9-1.8c-1.4-0.4-2.7-1-4-1.6c-1.8-1.1-2.8-3.1-4.2-4.7
		c-3-3.5-7.6-5.1-11.3-7.8c-2.5-1.8-4.6-4.3-7.6-5.1c-1.4-0.4-3-0.5-4.4-0.9c-3.3-1-5.6-3.9-8.8-5.1c-2.5-0.9-5.3-0.7-8-1
		c-2.9-0.4-5.8-1.4-8.2-3.1c-0.8-0.7-1.7-1.2-2.7-1.5c-4-1.2-4.4,6.3-4.7,8.9C638,344.7,637,348.6,637,352.5z"/>
	<path id="Path_297" fill="#FBBEBE" d="M640.9,377.8c0.7,7.3-4.9,14.5-3.3,21.7c0.3,1.5,1,3,1.2,4.5c0.7,4.3-1.9,8.3-4.3,11.9
		l-20.9,30.6c-0.8,1.3-1.8,2.6-3,3.7c-4,3.6-10,3.2-15.2,4.2c-3.7,0.7-7.2,2.3-10.2,4.5c-0.3,0.2-0.3,0.6-0.1,0.9
		c1.8,2.4,4.6,3.8,7.6,3.6c0.5,0.7,0,1.8-0.8,2.3c-1.1,0.8-2.7,1-2.9,2.9c-0.1,0.7,0.1,1.3,0.4,1.9c0.8,1.3,2.2,2.2,3.7,2.5
		c7.2,2.2,15-1.7,20.4-7s9.3-12,14.6-17.3c2.9-3,6.3-5.5,9.3-8.4c6-5.8,10.7-12.8,15.3-19.8c1.5-2,2.6-4.3,3.3-6.7
		c0.6-2.4,0.3-4.9,1-7.3c0.8-3.1,3.1-5.6,5-8.2c3.7-5.1,6.2-11.3,5.7-17.6s-4.4-12.5-10.3-14.6c-1.8-0.7-3.9-0.9-5.8-0.3
		c-2.4,0.7-4.2,2.8-5.9,4.7l-4,4.6c-1,1-1.8,2.2-2.3,3.5c-0.5,1.3-0.2,2.9,0.8,3.9"/>
	<path id="Path_298" fill="#EB7A6D" d="M651.5,347.6c-2.8,0.2-5.8,0.4-7.7,2.4c-0.8,0.9-1.5,1.9-1.9,3c-1.9,3.8-3.7,7.8-3.8,12.1
		c-0.1,3.4,0.9,6.7,1.4,10.1c0.4,2.8-0.7,5.7-0.9,8.5c3.8-1,7.5-2.5,11-4.2c2-1.3,4.2-2.4,6.4-3.3c3.3-1.1,8.8,0.8,11.9,2.3
		c0.2-2.2-1.5-6-1.3-8.2c0-0.9,0.2-1.8,0.5-2.7c0.5-0.9,1-1.8,1.6-2.6c2.4-4,2.1-9-1-12.6c-2.8-3.1-7.1-4.3-11.2-4.8
		c-2.6-0.3-5.2-0.4-7.8-0.3"/>
</g>
<g id="svg--printing_x5F__x5F_man--one">
	
		<linearGradient id="Path_299_1_" gradientUnits="userSpaceOnUse" x1="128.6053" y1="711.1376" x2="128.6053" y2="712.1376" gradientTransform="matrix(144.1887 0 0 -171.5134 -18371.1699 122283.6562)">
		<stop  offset="0" style="stop-color:#808080;stop-opacity:0.251"/>
		<stop  offset="0.54" style="stop-color:#808080;stop-opacity:0.122"/>
		<stop  offset="1" style="stop-color:#808080;stop-opacity:0.102"/>
	</linearGradient>
	<path id="Path_299" fill="url(#Path_299_1_)" d="M244.4,284.7L226.6,259c0,0-0.3-6.4-1.5-7.8s-0.3-4.8-0.3-4.8s1.2-1.8,0.2-2
		s-0.2-4.2-0.2-4.2l-0.1-6.4c0,0,1-6.2,0.2-7.7c-0.5-0.8-0.5-1.9,0.1-2.7c0,0,1-3.5,0-4.5s-0.7-6.4-0.5-10.8s-1.7-6.9-1.7-7.5
		s-6.5-7.1-6.5-7.7s-4.1-3-6.6-3.6s-3.7-1.2-3.6-1.5s-3.9-1.6-3.9-1.6s-3.5-0.3-4.8-2s-5.4-2.2-5.5-2.3l-0.1-0.3
		c0-0.1,0-0.3-0.1-0.4c0.3-0.5,0.6-1.1,0.9-1.6l0.2-0.5c1.5,0,2.9-0.4,4.1-1.3c1.2-1,1.9-2.4,2-4c0.1-1.5-0.3-3-1-4.4
		c-0.7-1.5-1.8-3-1.4-4.6c0.2-0.7,0.6-1.3,0.8-2c0.3-1.3,0.1-2.7-0.6-3.9c-0.6-1.2-1.5-2.3-2.2-3.4c-0.9-1.5-1.5-3.1-1.8-4.8
		c0-0.9-0.3-1.8-0.6-2.6c-0.4-0.6-0.9-1.1-1.5-1.5c-2.6-1.9-5.7-2.8-8.9-2.7c-2.3,0.1-4.5,0.7-6.7,0.4c-1.3-0.2-2.7-0.6-3.9-1
		c-2.8-0.8-6-1.2-8.4,0.4s-3.4,4.7-5,7.2c-1.4,2.2-3.6,4-4.7,6.3V157c-0.3,0.5-0.5,1.1-0.6,1.7c-0.3,1.8-0.2,3.7,0.4,5.5
		c0.1,1,0.6,1.8,1.3,2.4c0.8,0.5,1.9,0.4,2.9,0.6l-0.1,0.5c-2,9.6,3.7,19.2,13.1,22c0,0.2,0,0.3,0,0.5c0,0.5,0,0.9-0.1,1.4l0,0
		c0,0-8.3-1.7-10.6-0.6s-6.6,2.1-7.3,2.7s-2.3,0.2-3.8,4.1s-1.7,7.8-3.6,9.7s-2.9,3.1-3,4.4s0.3,1.7-0.5,2.1s-1.8,2.1-1.5,2.8
		c0.2,0.9-0.1,1.9-0.9,2.5c-0.8,0.6-1.2,1.5-1.2,2.5c0,0-0.5,1.8-1.7,2.2S134,227,134,227l-3.8,4.3l-7.4-8.2
		c-1.2-1.3-3.1-1.4-4.4-0.2l-3.7,3.3c-1.4,0.3-2.7,1.1-3.7,2.2c-0.8,0.8-1.4,1.8-1.9,2.8l-2,1.8c-1.3,1.6-1.5,3.8-0.5,5.6l4.8,5.3v0
		c-1.7,0.1-3.3,0.8-4.6,1.9c-7.1,6.3-7.2,12.1-6.1,14.7s10.1,12.8,10.1,12.8c3.5,4.3,7.9,7.9,12.8,10.4l0,0l-0.1,0.1
		c-0.2,0.2-0.3,0.3-0.4,0.5l-0.1,0.2l-0.1,0.2l-0.1,0.2c0,0.1-0.1,0.1-0.1,0.2l-0.1,0.2c0,0.1-0.1,0.1-0.1,0.2
		c-0.1,0.1-0.1,0.2-0.2,0.3c0,0,0,0.1-0.1,0.1c-0.1,0.1-0.1,0.3-0.2,0.4l-0.1,0.2c0,0.1-0.1,0.2-0.1,0.3c0,0.1-0.1,0.1-0.1,0.2
		l-0.1,0.3c0,0.1-0.1,0.2-0.1,0.2c0,0.1-0.1,0.2-0.1,0.4c0,0.1,0,0.1-0.1,0.2s-0.1,0.4-0.1,0.6c0,0.1,0,0.2,0,0.2
		c0,0.1-0.1,0.3-0.1,0.4c0,0.1,0,0.2,0,0.3L121,290v0.3c0,0.2,0,0.3,0,0.5c0,0.2,0,0.2,0,0.3v0.8c-0.2,9.7,0.4,11.1,0.4,11.1
		c0.8,1.8,2.4,3.1,4.4,3.3c0.5,0,0.9,0,1.4-0.1c4.3-0.7,14.4-2.5,18-1.8c2.1,0.4,6.1-0.2,8.9-0.7l0.7-0.1l0.5,1.6l1.6-0.4l1.4,0.8
		l0.9,0.5c1.6,5.5,8.3,3.6,8.3,3.6l1.6,0.9l16,0.4c1.8,1.1,3.7,2,5.7,2.7c0.3,0.1,0.5,0.1,0.8,0.2c1.5,0.1,3,0.1,4.5,0.1
		c1.2,0,2.2-0.1,2.2-0.1s-0.2-4.3-0.4-9.2c5-0.1,9.9-0.5,14.8-1.2c8.5-1.5,12.1-9.3,13.4-13.4c0.4,1.7,0.7,3.4,0.8,5.1
		c0.3,1.5,0.8,3,1.3,4.5c0.5,1.2,1.1,2.3,1.8,3.3c6.3-2.1,2.5-5.4,1.2-6.8s0.9-2.6,0.9-2.6s1.7-1.2,1.6-2.2s-0.3-2.2,5.4-2.1
		S244.4,284.7,244.4,284.7z M156.9,231.9c0.1,0.5,0.9,5.6,1.6,6.9c0.2,0.9,0.3,1.8,0.2,2.7c-3.3-0.3-6.8-0.4-6.8-0.4
		c0.1,0.1,0.2,0.3,0.2,0.4l-0.5-0.1l-0.8-0.2L156.9,231.9L156.9,231.9z M144.7,251.3l5.8,0.9l0.5,0.1c-0.2,0.9-0.3,1.8-0.3,2.7
		c0,0.1,0.1,0.2,0.3,0.3c-0.1,0.5-0.1,0.9-0.1,1.4c0.1,0.4,2.8,1.4,5.9,2.3c0,0.2-0.1,0.3-0.1,0.5l0,0c-2.7-1.4-7-2.1-7.5-3.2
		c-0.5-1.1-15.2-6.2-15.2-6.2l-1.5-0.7l3.9,0.7l1.1-0.1C139.8,250.6,142.2,251,144.7,251.3L144.7,251.3z"/>
	<path id="Path_300" fill="#65617D" d="M225.5,288.3c0,0-2.3,13.9-13.9,15.9s-50.6,1.6-50.6,1.6s-22.3-3.2-30.3-22
		s-13.2-26.3-6.3-26.6c6.9-0.3,44.1,12.6,46.2,12.7S227.5,241.4,225.5,288.3z"/>
	<path id="Path_301" opacity="5.000000e-02" enable-background="new    " d="M225.5,288.3c0,0-2.3,13.9-13.9,15.9
		s-50.6,1.6-50.6,1.6s-22.3-3.2-30.3-22s-13.2-26.3-6.3-26.6c6.9-0.3,44.1,12.6,46.2,12.7S227.5,241.4,225.5,288.3z"/>
	<path id="Path_302" fill="#3F3D56" d="M121.2,303.8c0.7,1.8,2.4,3.1,4.4,3.3c0.5,0,0.9,0,1.4-0.1c4.3-0.7,14.3-2.5,17.8-1.8
		c2.1,0.4,6-0.2,8.8-0.7c1.9-0.4,3.2-0.7,3.2-0.7s-3.3-10.9-3.7-11.2s-14.8-9-14.8-9l-11.4-0.8l0,0c-1.5,0.2-2.9,1-3.9,2.3
		c-1.2,1.5-2.2,3.8-2.3,7.7C120.6,302.3,121.2,303.8,121.2,303.8z"/>
	<path id="Path_303" opacity="5.000000e-02" enable-background="new    " d="M121.2,303.8c0.7,1.8,2.4,3.1,4.4,3.3
		c-1.1-1.4-2.1-2.9-3.1-4.5l0.1-8c-0.5-4.4,1.2-8.8,4.5-11.8l0,0c0,0-6,0.4-6.2,10S121.2,303.8,121.2,303.8z"/>
	<path id="Path_304" opacity="0.1" enable-background="new    " d="M170.5,286.3l10.6-8.3l16.7-16.4l-4.5-0.2
		c-0.7,0.4-2.6,1.8-2.6,3.4c-0.1,2-4.5,0.1-6.8,1.3s-13.5,15.5-15.5,15.4s-3.5-1-4.4,0.4l-0.1,0.1L170.5,286.3z"/>
	<path id="Path_305" opacity="0.1" enable-background="new    " d="M123,285c0.4,0.2,0.8,0.4,1.1,0.5c8,3.5,18,10.7,18.7,12
		c0.4,0.8,6.2,4.3,10.6,6.9c1.9-0.4,3.2-0.7,3.2-0.7s-3.3-10.9-3.7-11.2s-14.8-9-14.8-9l-11.4-0.8l0,0
		C125.4,282.9,124,283.7,123,285L123,285z"/>
	<path id="Path_306" fill="#65617D" d="M100.7,261.5c1.1,2.6,10,12.7,10,12.7s5.7,7.4,13.7,10.8s18,10.7,18.7,12
		c0.5,0.8,6.9,4.7,11.4,7.4l1,0.6l2.2,1.3l1.2,0.7c0,0,2.8-2.2,5.5-4.4s5.4-4.4,5.4-4.5s1.1-3,0.9-3.2s-0.7-1.2-1.7-2.5
		c-1.1-1.5-2.5-2.6-4.2-3.5c-2.4-1.2-4.3-3.2-5.4-5.7c0,0-0.4-0.3-0.9-0.6c-1.1-0.8-2.4-1.3-3.7-1.6c-1.8-0.2-5.2-3.9-5.2-3.9
		c-1.3-0.9-2.4-2-3.2-3.4c-0.9-1.8-13.6-10.5-14.8-11.4l30.9,19.8l7.4,4.7l10.6-8.3l16.7-16.4l-5.5-0.3c-8.1-0.4-22.5-0.9-24.3-0.5
		c-1.5,0.3-3,0.4-4.5,0.3c0,0-4.1,0.2-6.8-1.2s-7-2.1-7.5-3.2s-15-6.1-15-6.1s-19.8-10.5-26.8-4.3S99.7,258.8,100.7,261.5z"/>
	<path id="Path_307" fill="#EE8E9E" d="M164.5,201.2l2.5,8.5l3.3,19l12.1,0.8l3.5-5.8l3.5-5.8c0,0,2.2-7.7,3.7-15.1
		c1.4-6.6,2.3-13,0.8-13.7c-1.3-0.6-2.2-2.8-2.8-5.2c-0.1-0.3-0.1-0.6-0.2-0.9c-0.4-2-0.7-4.1-0.8-6.1c0,0-25.3-1.3-21.7,9.1
		c0.6,1.8,1,3.7,1,5.5c0,0.5,0,0.9-0.1,1.4C168.8,196.3,167.1,199.2,164.5,201.2z"/>
	<path id="Path_308" fill="#E3E8F4" d="M159.3,199.8l0.9,14.4l2,12.2l2.3,5.7l2.1,31c0,0,19.8,2.3,24.6,0c0.4-0.1,0.7-0.4,0.9-0.7
		c5.8-8.8,3.9-34.2,3.9-34.2l2.2-16.4l-1.5-8.5l-3.6-0.4l-2.8-0.3c0,0-0.6,0.8-1.5,2c-2.4,3.2-6.9,9.5-6.6,12.2
		c0.4,3.6-0.5,7.3-1.9,7.9s-2.5,1.6-2.8,0.6c-0.3-0.8-0.4-1.7-0.3-2.6c0.3-1.4-1.1-5.7-1.1-5.7s-2.2-5-2-7.1s-0.2-4.6-0.9-5.2
		s-1.6-1.1-0.8-3.8s-3.2-7.7-3.2-7.7L159.3,199.8z"/>
	<path id="Path_309" opacity="0.1" enable-background="new    " d="M185.4,235.7l0.8,24.5l4.7,2.6c0.4-0.1,0.7-0.4,0.9-0.7
		c5.8-8.8,3.9-34.2,3.9-34.2l2.2-16.4l-1.5-8.5l-3.6-0.4c1.4-6.6,2.3-13,0.8-13.7c-1.3-0.6-2.2-2.8-2.8-5.2l0,0l-2.6,17.4
		c0,0,0.2,1.6,0.3,3.2c0.1,1,0,2.1-0.2,3.1c-0.3,1.3-0.4,2.7-0.2,4.1c-1.5,2.6-2.2,7.4-2.6,12.1
		C185.2,229.8,185.4,235.7,185.4,235.7z"/>
	<path id="Path_310" fill="#3F3D56" d="M191,183.3c0,0,4.1,0.5,5.5,2.2s4.8,2,4.8,2s3.9,1.3,3.9,1.6s1.1,0.8,3.6,1.5s6.6,3,6.6,3.6
		s6.5,7,6.5,7.6s2,3.1,1.7,7.5s-0.5,9.9,0.5,10.8s0,4.4,0,4.4c-0.5,0.8-0.6,1.8-0.1,2.6c0.8,1.5-0.2,7.6-0.2,7.6l0.1,6.4
		c0,0-0.9,4,0.2,4.2s-0.2,2-0.2,2s-0.9,3.3,0.2,4.8s1.5,7.8,1.5,7.8l17.6,25.5c0,0,0.3,4.7-5.3,4.6s-5.5,1.1-5.3,2.1
		s-1.6,2.2-1.6,2.2s-2.2,1.1-0.9,2.5s5.1,4.6-1.1,6.7c-0.7-1-1.3-2.1-1.8-3.3c-0.5-1.4-1-2.9-1.3-4.4c0,0-0.6-6.2-1.7-7.1
		s-1-4.8-1-4.8s1.6-3.2-0.7-4.5s-35.6-19.8-35.6-19.8l-0.8-24.6c0,0-0.6-18.1,2.9-24.2c-0.2-1.4-0.2-2.8,0.2-4.1
		c0.6-1.5-0.1-6.2-0.1-6.2L191,183.3z"/>
	<path id="Path_311" opacity="0.1" enable-background="new    " d="M169.5,193.2c0,0-8.2-1.7-10.5-0.5s-6.6,2-7.2,2.7
		s-2.3,0.2-3.8,4s-1.6,7.8-3.5,9.6s-2.9,3-2.9,4.4s0.2,1.6-0.5,2s-1.8,2.1-1.5,2.8s17.1,15.1,17.1,15.1s0.8,5.5,1.6,6.9
		s-0.8,20.6-2.5,21.9s11,1.2,11,1.2s0.6-12.6,1.1-13.3s-0.3-14.1-0.3-14.1s-0.1-11.5,1-14.5s0.9-13.1,0.9-13.1s0.9-6.1,2.1-7.5
		S169.5,193.2,169.5,193.2z"/>
	<path id="Path_312" fill="#3F3D56" d="M169.2,193c0,0-8.2-1.7-10.5-0.6s-6.6,2.1-7.2,2.7s-2.3,0.2-3.8,4s-1.6,7.8-3.5,9.6
		s-2.9,3-3,4.4s0.3,1.6-0.5,2.1s-1.8,2.1-1.5,2.8s17.1,15.1,17.1,15.1s0.8,5.5,1.6,6.9s-0.8,20.6-2.5,21.9s11.1,1.2,11.1,1.2
		s0.6-12.6,1.1-13.3s-0.3-14.1-0.3-14.1s-0.1-11.5,1-14.5s0.9-13.1,0.9-13.1s0.9-6.1,2.1-7.5S169.2,193,169.2,193z"/>
	<path id="Path_313" opacity="0.1" enable-background="new    " d="M168.4,186c0.6,1.8,1,3.7,1,5.5c8.3,2.4,17.2-1.1,21.6-8.5
		c-0.4-2-0.7-4.1-0.8-6.1C190.1,176.9,164.8,175.6,168.4,186z"/>
	<path id="Path_314" fill="#EE8E9E" d="M155.9,173c0,10.4,8.4,18.8,18.8,18.8c10.4,0,18.8-8.4,18.8-18.8c0-10.4-8.4-18.8-18.8-18.8
		c-8.9,0-16.6,6.2-18.4,14.9C156,170.4,155.9,171.7,155.9,173z"/>
	<path id="Path_315" fill="#3F3D56" d="M143.8,216.6l-4.5,1.4c0.2,0.9-0.1,1.9-0.9,2.5c-0.8,0.6-1.2,1.5-1.1,2.5
		c0,0-0.5,1.8-1.6,2.2s-1.9,3.1-1.9,3.1l-3.8,4.4c0,0-1.4,1.1-1.1,1.7s-1.5,0.7-1.5,0.7l0.9,14.6l7.8,1.5l4.8-0.5l3.9-1.5l3.5-2.1
		l1.6-4l6.9-10.5L143.8,216.6z"/>
	<path id="Path_316" fill="#EE8E9E" d="M128.5,236.2c0,0-10-14.4-17.5-6.6s3,20.4,5.5,20s14.2-1.1,14.2-1.1L128.5,236.2z"/>
	<path id="Rectangle_422" fill="#3F3D56" d="M108,207.4l43.9,22.4c0.8,0.4,1.1,1.3,0.7,2.1l-17.1,33.5c-0.4,0.8-1.3,1.1-2.1,0.7
		l-43.9-22.4c-0.8-0.4-1.1-1.3-0.7-2.1l17.1-33.5C106.3,207.3,107.2,207,108,207.4z"/>
	
		<rect id="Rectangle_423" x="104.2" y="214.7" transform="matrix(0.4546 -0.8907 0.8907 0.4546 -144.9668 236.6635)" fill="#EB7A6D" width="33.2" height="44.1"/>
	<circle id="Ellipse_52" fill="#E6E8EC" cx="99.6" cy="225.9" r="0.7"/>
	<circle id="Ellipse_53" fill="#E6E8EC" cx="142.1" cy="247.7" r="1.2"/>
	<path id="Path_317" fill="#EE8E9E" d="M122,239.2c-0.1,10.8,22.3,13.1,22.3,13.1l5.7,0.9l2.6,0.4l1.1-10.6c0,0-1.2-0.2-2.6-0.5
		c-2.2-0.5-5-1.4-5.6-2.6C144.5,237.9,122.1,228.4,122,239.2z"/>
	<path id="Path_318" opacity="0.1" enable-background="new    " d="M156.3,169.1c0.5,0,1,0.3,1.4,0.6c0.6,0.7,0.7,1.9,1.5,2.3
		c0.3,0.1,0.6,0.2,1,0.1c2.2-0.3,3.4-2.8,5.5-3.5c1.2-0.3,2.5-0.2,3.7,0.3c0.5,0.2,0.9,0.4,1.2,0.8c0.7,0.9,0.2,2.2,0.5,3.3
		c0.4,1.5,2.3,2.1,3.8,2.3s3.4,0.3,4.4,1.5c0.7,0.9,1,2.1,0.8,3.2c-0.1,0.4-0.1,0.8,0,1.2c0.4,1.2,2.6,1,3.1,0.1
		c0.4-0.7,0.3-1.3,1.2-1.5c0.7-0.1,1.4,0.1,2,0.4c1.7,0.6,3.4,0.8,5.2,0.8c4.4-9.4,0.4-20.6-9-25c-9.4-4.4-20.6-0.4-25,9
		C157.1,166.4,156.6,167.7,156.3,169.1L156.3,169.1z"/>
	<path id="Path_319" fill="#3F3D56" d="M180.1,180.8c-0.1-0.4-0.1-0.8,0-1.2c0.2-1.1-0.1-2.3-0.8-3.2c-1.1-1.2-2.8-1.3-4.4-1.5
		s-3.4-0.8-3.8-2.3c-0.3-1.1,0.2-2.4-0.5-3.3c-0.3-0.4-0.8-0.6-1.2-0.8c-1.2-0.5-2.4-0.6-3.7-0.3c-2.1,0.7-3.4,3.1-5.5,3.5
		c-0.3,0.1-0.7,0-1-0.1c-0.8-0.4-0.9-1.6-1.5-2.3c-1-1.1-2.9-0.4-4.1-1.1c-0.7-0.6-1.2-1.5-1.3-2.4c-0.5-1.8-0.7-3.6-0.4-5.4
		c0.7-3,3.4-5.1,5.2-7.8c1.6-2.4,2.5-5.5,5-7.1s5.6-1.2,8.3-0.4c1.3,0.5,2.6,0.8,3.9,1c2.2,0.3,4.4-0.3,6.7-0.4
		c3.2-0.1,6.3,0.8,8.8,2.7c0.6,0.4,1.1,0.9,1.4,1.5c0.4,0.8,0.6,1.7,0.6,2.6c0.3,1.7,0.9,3.3,1.7,4.8c0.7,1.2,1.6,2.2,2.2,3.4
		c0.7,1.2,0.9,2.6,0.6,3.9c-0.2,0.7-0.6,1.3-0.8,2c-0.4,1.6,0.7,3.1,1.4,4.6c0.7,1.3,1,2.9,1,4.4c-0.1,1.5-0.8,3-2,3.9
		c-1.2,0.8-2.7,1.3-4.2,1.3c-1.8,0.1-3.6-0.2-5.3-0.8c-0.6-0.3-1.3-0.4-2-0.4c-1,0.2-0.8,0.8-1.2,1.5
		C182.7,181.9,180.6,182.1,180.1,180.8z"/>
	<path id="Path_320" opacity="0.1" enable-background="new    " d="M170,286.8l10.6-8.3l16.7-16.4l-5.5-0.3
		c-0.6,0.6-1.1,1.4-1.2,2.2c-0.1,2-4.5,0.1-6.8,1.3s-13.5,15.5-15.5,15.4s-3.5-1-4.4,0.4l-0.1,0.1c-0.3,0.4-0.8,0.6-1.3,0.7
		L170,286.8z"/>
	<path id="Path_321" fill="#65617D" d="M148.7,286.2l5.3,17l0.8,2.7l2.5-0.7l5.6-1.5l24.9-6.8c3.1-0.1,6.2-1,9-2.4
		c4.7-2.6,10.1-3.8,15.5-3.4c3.3,0.3,6.9-1.1,10-6.7c0,0,6.9-20.4-10.5-26.2c-17.4-5.8-18.2,3.1-18.2,3.1l-0.2,0.1
		c-0.7,0.4-2.6,1.8-2.6,3.4c-0.1,2-4.5,0.1-6.8,1.3s-13.5,15.5-15.5,15.4s-3.5-1-4.4,0.4l-0.1,0.1c-0.6,0.8-2.4,1-3.6,1.1
		c-0.4,0-0.8,0-1.1,0l-0.2,0l-1.3,0.4L148.7,286.2z"/>
	<path id="Path_322" opacity="0.1" enable-background="new    " d="M150,253.3l2.6,0.4l1.1-10.6c0,0-1.2-0.2-2.6-0.5
		C151.4,244,150.5,249.7,150,253.3z"/>
	<path id="Path_323" opacity="0.1" enable-background="new    " d="M217.2,203.8c0,0,7.6-2.2,5.7,19.5c-1.3,13.2-6.9,25.7-16,35.4
		c0,0-16.3,7.1-23.6,6s-12.6-1.4-12.6-1.4c-2.3-1.2-4.8-1.8-7.4-2c-4.1-0.2-12.7-2.7-12.9-3.5s2.1-12.9,1.1-13.8
		c0,0,11.5,0.5,12.6,1.3s2.8,0.2,4,0s5-3.5,12.5-0.6c0,0,2.5,0.2,3.5-0.4c0.8-0.4,1.7-0.4,2.6-0.2c0.6-0.2,1.2-0.5,1.8-0.9
		c0.2-0.3,2.2,0,2.2,0c0.5,0.2,1,0,1.2-0.5c0,0,0-0.1,0-0.1c0.3-0.7,0.7-1.3,1.1-1.8c0,0,2.2-12.5,6.4-17.2c0.7-0.6,1-1.5,0.9-2.4
		C200.2,219.9,207.3,201.1,217.2,203.8z"/>
	<path id="Path_324" fill="#3F3D56" d="M217,202.1c0,0,7.6-2.2,5.8,19.5c-1.3,13.2-6.9,25.7-16,35.4c0,0-16.3,7.1-23.6,6
		s-12.6-1.4-12.6-1.4c-2.3-1.2-4.8-1.8-7.4-2c-4.1-0.2-12.7-2.7-12.9-3.5s2.1-12.9,1.1-13.8c0,0,11.5,0.5,12.6,1.3s2.8,0.2,4,0
		s5-3.5,12.5-0.6c0,0,2.5,0.3,3.5-0.4c0.8-0.4,1.7-0.4,2.6-0.2c0.6-0.2,1.2-0.5,1.8-0.9c0.2-0.3,2.2,0,2.2,0c0.5,0.2,1,0,1.2-0.5
		c0,0,0-0.1,0-0.1c0.3-0.7,0.7-1.3,1.1-1.8c0,0,2.2-12.5,6.4-17.2c0.7-0.6,1-1.5,0.9-2.4C200,218.2,207.1,199.5,217,202.1z"/>
	<path id="Path_325" opacity="0.1" enable-background="new    " d="M157.7,283.5l10.8,13.1l0.1-0.1c0.1-0.3,1.1-3,0.9-3.2
		s-2.1-4.3-5.9-6c-1.9-0.9-3.5-2.4-4.6-4.2L157.7,283.5z"/>
	<path id="Path_326" opacity="0.1" enable-background="new    " d="M157.8,306.3l1.2,0.7c0,0,2.8-2.2,5.5-4.4s5.4-4.4,5.4-4.5
		s1.1-3,0.9-3.2s-0.7-1.2-1.7-2.5c-7.4-2.1-2.7,3-2,3.3c0,0-8.9-2.1-9.4,7.7C157.5,304.3,157.6,305.3,157.8,306.3z"/>
	<path id="Path_327" fill="#3F3D56" d="M166.9,310.4l1.6,0.9l15.8,0.4c1.8,1.1,3.7,2,5.6,2.7c0.3,0.1,0.5,0.1,0.8,0.2
		c1.5,0.1,2.9,0.1,4.4,0.1c1.2,0,2.1-0.1,2.1-0.1s-0.7-20-1.3-22.1c-0.3-1-1.6-0.8-2.9-0.3c-1,0.4-1.9,0.9-2.8,1.4
		c0,0-6.7,0.7-7.8,1.2s-4.1-0.3-6,0s-5.3-2.2-5.3-2.2c-9.2-3-4,2.6-3.4,2.9c0,0-9-2.1-9.4,7.7S166.9,310.4,166.9,310.4z"/>
	<path id="Path_328" fill="#565387" d="M189.8,302.7c0.2,4.1,3.4,9.3,5.3,12c1.2,0,2.1-0.1,2.1-0.1s-0.7-20-1.3-22.1
		c-0.3-1-1.6-0.8-2.9-0.3C191.4,295.2,189.6,299.3,189.8,302.7z"/>
	<path id="Path_329" opacity="0.1" enable-background="new    " d="M189.8,302.7c0.2,4.1,3.4,9.3,5.3,12c1.2,0,2.1-0.1,2.1-0.1
		s-0.7-20-1.3-22.1c-0.3-1-1.6-0.8-2.9-0.3C191.4,295.2,189.6,299.3,189.8,302.7z"/>
	<path id="Path_330" opacity="5.000000e-02" enable-background="new    " d="M187.1,303.2c1.1,4,1.1,8.5,2.8,11.2
		c0.3,0.1,0.5,0.1,0.8,0.2c1.5,0.1,2.9,0.1,4.4,0.1c1.2,0,2.1-0.1,2.1-0.1s-0.7-20-1.3-22.1c-0.3-1-1.6-0.8-2.9-0.3
		c-1,0.4-1.9,0.9-2.8,1.4C190.2,293.6,185.7,298.1,187.1,303.2z"/>
	<path id="Path_331" opacity="0.1" enable-background="new    " d="M132.4,262.7c0,0,7.9,2.6,14.5,11.6L132.4,262.7z"/>
	<g id="Group_23" transform="translate(240.818 217.627)" opacity="0.1">
		<path id="Path_332" d="M-44.4-53.4c0,0.1,0,0.1,0,0.2c-0.1,0.2-0.2,0.5-0.3,0.7C-44.7-52.9-44.6-53.1-44.4-53.4z"/>
		<path id="Path_333" d="M-89-57.4c0.1-0.6,0.3-1.1,0.6-1.7c0,0.1-0.1,0.3-0.1,0.4c-0.3,1.8-0.2,3.7,0.4,5.4
			c0.1,0.9,0.6,1.8,1.3,2.4c1.2,0.8,3.1,0.1,4.1,1.1c0.6,0.7,0.7,1.9,1.5,2.3c0.3,0.1,0.6,0.2,1,0.1c2.2-0.3,3.4-2.8,5.5-3.5
			c1.2-0.3,2.5-0.2,3.7,0.3c0.5,0.1,0.9,0.4,1.2,0.8c0.7,0.9,0.2,2.2,0.5,3.3c0.4,1.5,2.3,2.1,3.8,2.3s3.4,0.3,4.4,1.5
			c0.7,0.9,1,2.1,0.8,3.2c-0.1,0.4-0.1,0.8,0,1.2c0.4,1.2,2.6,1,3.1,0.1c0.4-0.7,0.3-1.3,1.2-1.5c0.7,0,1.4,0.1,2,0.4
			c1.7,0.6,3.5,0.9,5.3,0.8c1.5,0,2.9-0.4,4.2-1.3c0.5-0.4,1-0.9,1.3-1.6c-0.3,1.1-0.9,2.1-1.8,2.8c-1.2,0.8-2.7,1.3-4.2,1.3
			c-1.8,0.1-3.6-0.2-5.3-0.8c-0.6-0.3-1.3-0.4-2-0.4c-1,0.2-0.8,0.8-1.2,1.5c-0.6,1-2.7,1.2-3.1-0.1c-0.1-0.4-0.1-0.8,0-1.2
			c0.2-1.1-0.1-2.3-0.8-3.2c-1.1-1.2-2.8-1.3-4.4-1.5s-3.4-0.8-3.8-2.3c-0.3-1.1,0.2-2.4-0.5-3.3c-0.3-0.4-0.7-0.6-1.2-0.8
			c-1.2-0.5-2.4-0.6-3.7-0.3c-2.1,0.7-3.4,3.1-5.5,3.5c-0.3,0.1-0.7,0-1-0.1c-0.8-0.4-0.9-1.6-1.5-2.3c-1-1.1-2.9-0.4-4.1-1.1
			c-0.7-0.6-1.2-1.5-1.3-2.4C-89.2-53.7-89.3-55.6-89-57.4z"/>
	</g>
	<path id="Path_334" opacity="0.1" enable-background="new    " d="M197.6,225.9c-1.5,2-3.2,3.9-4.6,6c-1.4,2.1-2.2,4.6-2,7.2
		c1.4-1.4,2-3.4,2.9-5.1c1.5-3,3.7-5.5,5.5-8.3c0.4-0.5,2.6-3.6,1.5-3.7C200,221.9,198.2,225.2,197.6,225.9z"/>
</g>
<g id="svg--printing--woman">
	<path id="Path_335" fill="#A1616A" d="M205.7,418.2c1.1,3.5,2.2,7,3.5,10.4c2.4,5.9,5.5,11.5,9.2,16.7c2.4,3.4,4.9,6.8,7.6,9.9
		c3.4,4,7.2,8,8.3,13.1c0.7,2.9,0.5,6,0.7,9s1.3,6.2,3.7,8c1.8,1.1,3.9,1.8,6.1,2c1.5,0.2,3.4,0.3,4.2-1c0.3-0.5,0.4-1.1,0.4-1.7
		l0.4-4.4c0.1-1,0.4-2.2,1.4-2.2s1.4,1.2,2.2,1.8c1.1,0.8,2.7,0,3.3-1.1c0.5-1.2,0.5-2.6,0.1-3.9c-1.3-5.1-4.7-9.3-9.4-11.7
		c-1.6-0.6-3.1-1.4-4.6-2.4c-1.5-1.3-2.7-2.8-3.6-4.5c-8.3-13.7-16.7-27.5-22.6-42.5c-1.2-2.7-1.9-5.5-2.3-8.4c-0.1-3,0-5.9,0.4-8.8
		c0.3-5.3-0.1-10.6-1.5-15.8c-0.3-1.3-0.8-2.6-1.5-3.8c-2.4-3.7-8.1-4.2-11.7-1.7c-2.7,2.1-4.4,5.1-4.7,8.5c-0.3,3,1.5,6.1,2.3,8.9
		C200.4,401.1,203.1,409.7,205.7,418.2z"/>
	<path id="Path_336" opacity="5.000000e-02" enable-background="new    " d="M205.7,418.2c1.1,3.5,2.2,7,3.5,10.4
		c2.4,5.9,5.5,11.5,9.2,16.7c2.4,3.4,4.9,6.8,7.6,9.9c3.4,4,7.2,8,8.3,13.1c0.7,2.9,0.5,6,0.7,9s1.3,6.2,3.7,8
		c1.8,1.1,3.9,1.8,6.1,2c1.5,0.2,3.4,0.3,4.2-1c0.3-0.5,0.4-1.1,0.4-1.7l0.4-4.4c0.1-1,0.4-2.2,1.4-2.2s1.4,1.2,2.2,1.8
		c1.1,0.8,2.7,0,3.3-1.1c0.5-1.2,0.5-2.6,0.1-3.9c-1.3-5.1-4.7-9.3-9.4-11.7c-1.6-0.6-3.1-1.4-4.6-2.4c-1.5-1.3-2.7-2.8-3.6-4.5
		c-8.3-13.7-16.7-27.5-22.6-42.5c-1.2-2.7-1.9-5.5-2.3-8.4c-0.1-3,0-5.9,0.4-8.8c0.3-5.3-0.1-10.6-1.5-15.8
		c-0.3-1.3-0.8-2.6-1.5-3.8c-2.4-3.7-8.1-4.2-11.7-1.7c-2.7,2.1-4.4,5.1-4.7,8.5c-0.3,3,1.5,6.1,2.3,8.9
		C200.4,401.1,203.1,409.7,205.7,418.2z"/>
	<path id="Path_337" fill="#514E7F" d="M153.3,565.1c1.6,0.6,3.4,0.8,5.1,0.6c0.1-1.4,2-1.7,3.4-1.6c0.7,0,1.4,0.1,2,0.4
		c0.4,0.2,0.6,0.5,1,0.8c0.6,0.3,1.3,0.5,2,0.5l7.3,0.6c3.3,0.3,6.6,0.5,9.7-0.6c0.6-0.2,1.1-0.6,1.6-1c0.8-1.2,0-2.9-1.1-3.7
		s-2.6-1.2-3.8-2.1c-2.5-1.9-2.9-5.5-4.2-8.4c-1-1.8-2.1-3.5-3.5-5.1c-1-1.3-2.1-2.5-3.4-3.5c-2.9-2.1-6.3-2.1-9.7-2.4
		c-2.4-0.2-4.7-0.4-6.5,1.8c-2.2,2.7-1.3,8.1-1.2,11.2C152,556.7,152.5,560.9,153.3,565.1L153.3,565.1z"/>
	<path id="Path_338" opacity="5.000000e-02" enable-background="new    " d="M153.3,565.1c1.6,0.6,3.4,0.8,5.1,0.6
		c0.1-1.4,2-1.7,3.4-1.6c0.7,0,1.4,0.1,2,0.4c0.4,0.2,0.6,0.5,1,0.8c0.6,0.3,1.3,0.5,2,0.5l7.3,0.6c3.3,0.3,6.6,0.5,9.7-0.6
		c0.6-0.2,1.1-0.6,1.6-1c0.8-1.2,0-2.9-1.1-3.7s-2.6-1.2-3.8-2.1c-2.5-1.9-2.9-5.5-4.2-8.4c-1-1.8-2.1-3.5-3.5-5.1
		c-1-1.3-2.1-2.5-3.4-3.5c-2.9-2.1-6.3-2.1-9.7-2.4c-2.4-0.2-4.7-0.4-6.5,1.8c-2.2,2.7-1.3,8.1-1.2,11.2
		C152,556.7,152.5,560.9,153.3,565.1L153.3,565.1z"/>
	<path id="Path_339" fill="#464353" d="M156.3,423.1c-2.2,0.7-3.2,3.5-2.8,5.8s1.8,4.3,2.9,6.4c3.3,5.8,4.7,12.5,7.4,18.5
		c2,4.5,4.8,8.7,6.8,13.3s3.3,9.7,2,14.5c-0.6,2.3-1.7,4.5-2.5,6.8c-0.8,2.5-1.3,5.1-1.5,7.7c-1,8.9-1.2,17.8-0.5,26.7
		c0,1.1,0.2,2.2,0.7,3.1c0.5,0.9,1.2,1.8,0.9,2.7c-0.2,0.4-0.5,0.6-0.6,1c-0.5,1,0.5,2.1,1.3,2.8c-0.3,0.5-0.8,0.9-1.4,1.1
		c1.3,0.8,1.8,2.3,1.4,3.8c-0.8,0.1-0.8,1.3-0.3,1.9s1.2,1,1.6,1.7c0.4,1.2-0.2,2.5-1.3,2.9c-1.1,0.4-2.3,0.5-3.5,0.3
		c-2-0.3-4-0.7-5.9-1.3c-2.1-0.4-3.5-2.3-3.4-4.4c-0.4-3.7-0.6-7.3-0.4-11c0.3-17.8,0-35.7-0.8-53.5c-0.3-7.2-2.5-14.2-5.2-20.8
		c-1.5-3.4-3.2-6.7-5.1-9.9c-4-7.3-7.5-15.5-6.6-23.8c0.1-0.9,0.4-2,1.3-2.1c0.3,0,0.7,0,1,0.2c1.8,0.9,3.6,1.8,5.3,2.9
		C149.9,422,153,423,156.3,423.1z"/>
	<path id="Path_340" opacity="5.000000e-02" enable-background="new    " d="M156.3,423.1c-2.2,0.7-3.2,3.5-2.8,5.8s1.8,4.3,2.9,6.4
		c3.3,5.8,4.7,12.5,7.4,18.5c2,4.5,4.8,8.7,6.8,13.3s3.3,9.7,2,14.5c-0.6,2.3-1.7,4.5-2.5,6.8c-0.8,2.5-1.3,5.1-1.5,7.7
		c-1,8.9-1.2,17.8-0.5,26.7c0,1.1,0.2,2.2,0.7,3.1c0.5,0.9,1.2,1.8,0.9,2.7c-0.2,0.4-0.5,0.6-0.6,1c-0.5,1,0.5,2.1,1.3,2.8
		c-0.3,0.5-0.8,0.9-1.4,1.1c1.3,0.8,1.8,2.3,1.4,3.8c-0.8,0.1-0.8,1.3-0.3,1.9s1.2,1,1.6,1.7c0.4,1.2-0.2,2.5-1.3,2.9
		c-1.1,0.4-2.3,0.5-3.5,0.3c-2-0.3-4-0.7-5.9-1.3c-2.1-0.4-3.5-2.3-3.4-4.4c-0.4-3.7-0.6-7.3-0.4-11c0.3-17.8,0-35.7-0.8-53.5
		c-0.3-7.2-2.5-14.2-5.2-20.8c-1.5-3.4-3.2-6.7-5.1-9.9c-4-7.3-7.5-15.5-6.6-23.8c0.1-0.9,0.4-2,1.3-2.1c0.3,0,0.7,0,1,0.2
		c1.8,0.9,3.6,1.8,5.3,2.9C149.9,422,153,423,156.3,423.1z"/>
	<path id="Path_341" fill="#464353" d="M126.2,401.4c-1.2-0.7-2.5-1.2-3.9-1.2c-1.6,0.1-3,1.1-4.2,2.1c-1.5,1.1-2.9,2.4-4.2,3.7
		c-5.6,5.9-7.5,14.4-5,22.2c1.3,4,3.7,7.5,6.1,10.9l4.9,7c7.4,10.6,14.8,21.3,22.6,31.6c0,0.5,0.3,1,0.8,1.1
		c0.3,0.1,0.6,0.1,0.8,0.3c0.1,0.1,0.1,0.3,0.1,0.5c0,0.8-0.2,1.5-0.4,2.2c-0.1,0.2-0.2,0.5-0.1,0.8c0.3,0.6,1.3,0.3,1.7,0.8
		c0.2,0.4-0.1,0.8-0.4,1.1s-0.7,0.6-0.6,1.1s0.8,0.9,0.8,1.4c0,0.3-0.3,0.5-0.5,0.8c-0.5,0.8-0.4,1.9,0.2,2.6
		c0.5,5.1-2.2,9.9-2.8,14.9c-0.9,8,2.7,15.8,3.2,23.8c0,0.9,0.1,1.8,0.5,2.6c0.7,1.4,2.7,2.2,2.6,3.8c-0.1,0.6-0.3,1.3-0.5,1.9
		c0,0.9,0.1,1.8,0.3,2.7c0,0.9-0.8,2-1.6,1.6c0.6,2.1,1.2,4.3,1.7,6.4l17,1.4c0.2-1.5,0.1-3.1-0.2-4.6c-0.4-1.6-1.1-3.2-1.5-4.8
		c-0.5-1.6-0.3-3.4,0.7-4.8c-0.9,0-1.7-0.6-1.9-1.5c-0.1-0.9-0.1-1.8,0-2.6c0.4-4.4-1.4-8.8-1.4-13.2c0.1-3.5,1.3-6.9,1.9-10.3
		c1.3-7.4-0.1-15.4,3.2-22.1c2-4.1,4.7-8.5,2.5-12.5c-1.1-1.9-3-3.3-4.3-5.1c-1-1.7-1.8-3.6-2.3-5.6c-2.6-8.1-6.8-15.6-10.6-23.3
		c-1-1.9-1.8-4-2.3-6.1c-0.3-1.9-0.4-3.8-0.3-5.7c0-3.4-0.2-6.8-0.6-10.1c-0.1-1.5-0.5-2.9-1.2-4.2c-0.7-1-1.7-1.8-2.7-2.4
		C138.8,406.8,132.2,404.6,126.2,401.4z"/>
	<path id="Path_342" fill="#514E7F" d="M146.5,571.3c1.6,0.6,3.4,0.8,5.1,0.6c0.1-1.4,2-1.7,3.4-1.6c0.7,0,1.4,0.1,2,0.4
		c0.4,0.2,0.6,0.6,1,0.8c0.6,0.3,1.3,0.5,2,0.5l7.3,0.6c3.3,0.3,6.6,0.5,9.7-0.6c0.6-0.2,1.1-0.6,1.5-1c0.8-1.2,0-2.9-1.1-3.7
		s-2.6-1.3-3.8-2.1c-2.5-1.9-2.9-5.5-4.2-8.4c-0.9-1.8-2.1-3.5-3.5-5.1c-1-1.3-2.2-2.5-3.5-3.5c-2.9-2.1-6.3-2.1-9.7-2.4
		c-2.4-0.2-4.7-0.4-6.5,1.8c-2.2,2.7-1.3,8.1-1.2,11.2C145.2,562.9,145.7,567.1,146.5,571.3L146.5,571.3z"/>
	<circle id="Ellipse_54" fill="#A1616A" cx="221.8" cy="355.2" r="16.8"/>
	<path id="Path_343" fill="#A1616A" d="M205.9,360.2c-2.4,2.1-5.9,2.2-9,2.6c-6.8,0.7-13.3,2.6-19.4,5.6c-0.8,0.4-1.6,0.9-2.2,1.5
		c-0.5,0.7-0.9,1.5-1.1,2.4c-0.6,1.9-0.8,3.9-0.6,5.8c0.2,1.9,0.8,3.8,1.6,5.5c2.3,4.8,5.9,8.9,10.4,11.9c0.8,0.6,1.7,1,2.6,1.3
		c2.2,0.5,4.4-0.8,6.5-1.4c2-0.5,4.1-0.5,6,0.2c1.8,0.6,3.8,1.7,5.5,1c1.1-0.6,2-1.6,2.5-2.9c1.7-3.2,3.3-6.6,4.6-10
		c0.5-1.3,1-2.6,1.7-3.9c2-3.7,5.3-6.6,7-10.4c0.3-0.6,0.4-1.3,0.2-2c-0.3-0.4-0.7-0.8-1.2-0.9c-2.5-1.4-4.7-3.2-6.7-5.3
		c-1.1-1.1-3.1-3.9-4.7-4.2C207.7,356.7,207.1,359.1,205.9,360.2z"/>
	<path id="Path_344" fill="#EB7A6D" d="M206.3,394.4c-2,0.9-4.3,0.5-6.4,0.1c-5.4-1.1-11-2.3-16-4.6c-1.6-0.6-2.9-1.7-3.9-3
		c-0.6-1.2-1-2.4-1.1-3.8l-0.9-6.3c-0.3-2.2,0.2-4.2,0.3-6.4c0.1-0.5-0.1-1-0.4-1.4c-0.3-0.3-0.7-0.4-1.1-0.4
		c-2.5,0-4.1,2.7-5.8,4.5c-1,1-2.2,1.9-3.6,2.4c-1.6,0.7-3.6,1.1-4.3,2.8c-0.3,0.7-0.2,1.4-0.5,2.1c-1.1,2.7-6,1.8-7.2,4.5
		c-0.4,0.8-0.3,1.7-0.9,2.3s-1.7,0.6-2.5,0.7c-3.5,0.6-5.2,4.6-8.2,6.5c-2.5,1.6-5.8,1.6-8.5,2.8c-1.5,0.7-2.8,1.8-4.4,2.3
		s-3.4,0.2-5.1,0.3c-0.4,0-0.7,0.1-1,0.3c-0.2,0.3-0.3,0.7-0.2,1.1c1.7,10.8,9,19.9,19.1,24c0.6,0.2,1.1,0.5,1.6,0.8
		c1.5,1.1,1.8,3.6,3.5,4.4c1.3,0.4,2.7,0.1,3.7-0.8c1-0.9,1.9-1.9,2.7-2.9c1.6-1.7,3.7-2.7,5.9-3.1c2.1-0.3,4.4-0.1,6.1-1.4
		c0.7-0.6,1.3-1.3,1.9-2c1.3-1.2,2.7-2.1,4.4-2.6c4.4-1.7,9.1-2.8,13.9-3c4.4-0.2,9,0.2,13.2-1.3c1.1-0.3,2.1-0.9,2.9-1.7
		c0.9-1,1.6-2.1,2-3.4C207,403.7,207.3,398.9,206.3,394.4L206.3,394.4z"/>
	<path id="Path_345" fill="#EB7A6D" d="M184.6,369.6c1.2-0.1,2.5,0,3.7,0c1.5,0,2.9-0.4,4.4-0.4c4.8,0.1,8.9,3.2,10.3,7.8
		c0.1,0.4,0.1,0.7,0.1,1.1c-0.1,0.4-0.5,0.6-0.8,0.6c-0.5-1.3-1.1-2.6-1.9-3.8c-1.4-1.9-3.4-3.3-5.6-3.9c-2.3-0.6-4.6-0.7-6.9-0.3
		c-1,0.2-1.9,0.4-2.8,0.7l-4.5,1.2c-0.8,0.2-1.7,0.4-2.5,0.7c-0.6,0.2-1.7,1.1-2.3,1.1c-0.8,0-0.2-0.7,0.2-1.2
		c0.7-1,1.8-1.7,2.9-2.1C180.7,370.4,182.6,369.9,184.6,369.6z"/>
	<path id="Path_346" fill="#A1616A" d="M196,420.1c1.1,3.5,2.2,7,3.5,10.4c2.4,5.9,5.5,11.5,9.2,16.7c2.4,3.4,4.9,6.8,7.6,9.9
		c3.4,4,7.1,8,8.3,13.1c0.7,2.9,0.5,6,0.7,9s1.3,6.2,3.7,8c1.8,1.1,3.9,1.8,6.1,2c1.5,0.2,3.4,0.3,4.2-1c0.3-0.5,0.4-1.1,0.4-1.7
		l0.4-4.4c0.1-1,0.4-2.2,1.4-2.2s1.4,1.2,2.2,1.8c1.1,0.8,2.7,0,3.3-1.1c0.5-1.2,0.5-2.6,0.1-3.9c-1.3-5.1-4.8-9.3-9.4-11.7
		c-1.6-0.6-3.1-1.4-4.6-2.4c-1.5-1.3-2.7-2.8-3.6-4.6c-8.3-13.7-16.7-27.5-22.6-42.5c-1.2-2.7-1.9-5.5-2.3-8.4c-0.1-3,0-5.9,0.4-8.8
		c0.3-5.3-0.1-10.6-1.5-15.8c-0.3-1.4-0.8-2.6-1.5-3.8c-2.4-3.7-8.1-4.2-11.7-1.7c-2.7,2.1-4.4,5.1-4.7,8.5c-0.3,3,1.5,6.1,2.3,8.9
		C190.6,403,193.3,411.6,196,420.1z"/>
	<path id="Path_347" fill="#464353" d="M246.3,343.3c0.1-1.4-1.1-2.7-2.6-3.6c-1.5-0.8-3-1.7-4.3-2.6c-1.3-1.1-2-2.5-3.3-3.6
		c-1.5-1.1-3.1-1.9-4.9-2.4c-3.7-1.3-7.7-2-11.6-2.1c-3.9-0.1-7.8,0.9-11.1,2.9c-0.7,0.5-1.4,1.1-1.9,1.8c-0.5,0.9-0.8,1.8-0.9,2.8
		c-0.7,3-1.7,6-2.9,8.8c-1.2,3.2-2.6,6.5-5.5,8.9c-3.1,2.6-8,4.1-10,7.3c-0.5,0.6-0.6,1.3-0.5,2c0.3,0.8,1.2,1.3,2.1,1.9
		c5.1,2.9,9.5,6.7,11.8,11.3c2.4,4.5,2,10-1,14.1c-1.2,1.5-2.8,3.4-1.7,4.9c1.8,2.4,7.8,1,9.2,3.5c0.3,0.8,0.3,1.7,0.2,2.6
		c0,2.6,2.5,5,5.6,6.2c3.2,1.1,6.6,1.7,10.1,1.7c0.9-2.1,1-4.4,0.3-6.5c-0.2-0.5-0.3-1-0.3-1.5c0.3-0.6,0.7-1.1,1.2-1.4
		c3.7-3.5,2.9-8.6,0.7-12.8s-5.7-7.9-6.9-12.3c-0.6-2.2-0.6-4.6,1.1-6.4c1-0.9,2-1.6,3.2-2.3c2-1.4,3.6-3.3,4.4-5.6
		c1-2.9,0.9-6.3,3.9-8.2c2.9-1.8,6.9-1.3,10.1-2.5C243.2,349.1,246.1,345.4,246.3,343.3z"/>
</g>
<g id="svg--printing_x5F__x5F_card--two">
	<path id="Path_284" fill="#FFFFFF" d="M279.1,390.7H567l57.4,193H218.4L279.1,390.7z"/>
	
		<linearGradient id="Path_348_1_" gradientUnits="userSpaceOnUse" x1="126.9385" y1="711.3925" x2="127.9385" y2="711.3925" gradientTransform="matrix(62.5449 0 0 -129.356 -7555.1099 92514.3281)">
		<stop  offset="0" style="stop-color:#808080;stop-opacity:0.251"/>
		<stop  offset="0.54" style="stop-color:#808080;stop-opacity:0.122"/>
		<stop  offset="1" style="stop-color:#808080;stop-opacity:0.102"/>
	</linearGradient>
	<path id="Path_348" fill="url(#Path_348_1_)" d="M420.5,484.1c-13.7-5.7-17.7-9.8-17.7-18c0-6.3,2.8-13.6,14.9-13.6
		c6.7-0.1,13.3,1.8,18.9,5.4l3.9-10.4c-4.6-2.7-11-5.2-20.5-5.5v-15.3h-8v15.9c-14.5,2.4-22.9,12.3-22.9,25.4
		c0,13.7,8.1,21,24.2,27.3c11.7,4.8,17.8,10.1,17.8,18.8c0,9-7.6,15.4-18.7,15.4c-8.8,0-18.8-3-24.5-6.8l-3.8,10.5
		c5.5,3.9,15,6.8,24.1,6.9v15.9h13.6v-16.4c16.2-2.7,24.9-14.4,24.9-26.8C446.7,498.9,436.7,490.7,420.5,484.1z"/>
	<path id="Path_349" fill="#EB7A6D" d="M408.3,552.5v-15.9c-9.1-0.2-18.6-3-24.1-6.9l3.8-10.5c5.7,3.8,15.7,6.8,24.5,6.8
		c11.2,0,18.7-6.5,18.7-15.4c0-8.7-6.1-14-17.8-18.7c-16.1-6.3-24.2-13.6-24.2-27.3c0-13.1,8.4-23,22.9-25.4v-15.9h8v15.3
		c9.5,0.3,15.9,2.8,20.5,5.5l-4,10.4c-5.6-3.6-12.2-5.5-18.9-5.4c-12.1,0-14.9,7.3-14.9,13.6c0,8.2,4,12.3,17.7,18
		c16.2,6.6,26.2,14.8,26.2,28.8c0,12.4-8.7,24.1-24.9,26.8v16.4L408.3,552.5z"/>
</g>
</svg>
