<svg xmlns="http://www.w3.org/2000/svg" xmlns:xlink="http://www.w3.org/1999/xlink" width="854.39" height="583.762" viewBox="0 0 854.39 583.762">
  <defs>
    <linearGradient id="linear-gradient" x1="0.5" y1="1" x2="0.5" gradientUnits="objectBoundingBox">
      <stop offset="0" stop-color="gray" stop-opacity="0.251"/>
      <stop offset="0.54" stop-color="gray" stop-opacity="0.122"/>
      <stop offset="1" stop-color="gray" stop-opacity="0.102"/>
    </linearGradient>
    <linearGradient id="linear-gradient-2" x1="0.001" y1="0.5" x2="1" y2="0.5" xlink:href="#linear-gradient"/>
  </defs>
  <g id="Group_24" data-name="Group 24" transform="translate(-89.143 -59.056)">
    <path id="Path_255" data-name="Path 255" d="M848.754,418.356a171.656,171.656,0,0,1-5.028,41.421q-1.693,6.842-3.933,13.413a159.785,159.785,0,0,1-6.344,15.874q-1.814,3.919-3.833,7.7a103.543,103.543,0,0,1-8.656,41.6,107.292,107.292,0,0,1-52.046,53.625,109.526,109.526,0,0,1-46.52,10.668H170.1a139.161,139.161,0,0,1-70-18.7q-4.715-2.731-9.189-5.818a138.956,138.956,0,0,1-18.185-14.992,135.323,135.323,0,0,1-19.992-24.8,132.183,132.183,0,0,1-20.333-70.573A166.428,166.428,0,0,1,11.07,385.349c0-38.4,12.489-73.439,33.007-99.96a140.534,140.534,0,0,1,14.018-15.6,130.459,130.459,0,0,1,16.031-13.122,123.713,123.713,0,0,1,14.224-8.534c2.055-1.053,4.118-2.034,6.216-2.952,1.842-.818,3.705-1.579,5.59-2.3q3.392-1.294,6.87-2.368t6.863-1.892q4.978-1.216,10.128-1.977c2.845-.42,5.69-.711,8.534-.939q3.392-.242,6.842-.284h1.245c2.532,0,5.05.1,7.546.27.263-.526.548-1.06.811-1.586,1-1.892,2.027-3.784,3.065-5.64v-.05c.178-.32.356-.64.541-.953.839-1.515,1.714-3.016,2.61-4.5.413-.711.818-1.38,1.237-2.055.092-.164.185-.32.292-.484q.64-1.067,1.3-2.134,3.293-5.256,6.849-10.348c.206-.292.4-.576.6-.861.37-.526.711-1.045,1.124-1.565.981-1.373,1.991-2.752,3.008-4.111.711-.96,1.422-1.92,2.191-2.845q2.774-3.584,5.69-7.112c1.942-2.347,3.99-4.708,6.059-7.02.284-.32.569-.633.868-.953l3.037-3.307h0c.149-.156.277-.3.42-.441h0c.363-.391.711-.782,1.1-1.166,1.629-1.721,3.3-3.421,4.978-5.1a271.115,271.115,0,0,1,27.339-23.754c.377-.3.761-.583,1.138-.868,1.806-1.366,3.641-2.71,5.476-4.033a289.347,289.347,0,0,1,31.585-19.7c.754-.427,1.522-.832,2.3-1.237a303.157,303.157,0,0,1,30.219-13.911q8.435-3.336,17.168-6.23c3.855-1.259,7.724-2.461,11.642-3.556q9.089-2.61,18.406-4.708a329.543,329.543,0,0,1,55.645-7.581q8.534-.448,17.261-.448a330.713,330.713,0,0,1,83.211,10.526,3,3,0,0,0,2.582,1.344h2.39c1.038.277,2.07.569,3.108.868q8.7,2.511,17.147,5.469l1.422.512a306.109,306.109,0,0,1,40.474,17.78,293.073,293.073,0,0,1,33.889,20.938q2.5,1.792,4.921,3.62,2.944-1.9,5.988-3.62a117.767,117.767,0,0,1,24.807-10.568,113.152,113.152,0,0,1,55.645-2.176c23.648,5.014,45.055,17.46,62.344,35.162a145.479,145.479,0,0,1,18.719,23.669c.391.612.782,1.23,1.159,1.856a156.486,156.486,0,0,1,11.906,23.747c.121.3.242.59.348.889a164.388,164.388,0,0,1,7.326,23.719c.085.405.185.818.27,1.23a170.78,170.78,0,0,1,3.5,23.733,4.5,4.5,0,0,0,.057.868q.448,6.195.455,12.524c0,3.769-.128,7.51-.363,11.216,0,.405-.057.832-.092,1.245-.064,1.081-.156,2.134-.249,3.222a134.923,134.923,0,0,1,15.206,14.338q3.108,3.393,6.017,7.048a149.474,149.474,0,0,1,15.5,23.733A167.07,167.07,0,0,1,848.754,418.356Z" transform="translate(85.923 18.775)" fill="#304343" opacity="0.1"/>
    <path id="Path_256" data-name="Path 256" d="M979.58,737.029c0,20.427-21.173,39.542-58.117,56.006H223.586c-32.289,0-62.53-11.683-88.448-32.056-6.515-7.729-9.948-15.736-9.948-23.959,0-21.712,23.941-41.977,65.334-59.106h0l1.168-.467c11.683-4.79,24.741-9.31,39.012-13.561.359-.108.728-.207,1.087-.332h0q16.985-4.988,36.136-9.454c.4-.09.8-.189,1.2-.261,4.925-1.168,9.948-2.256,15.08-3.343h0l1.977-.413c37.34-7.747,79.784-13.893,125.815-18.063h.054q9.67-.9,19.546-1.609c7.324-.584,14.738-1.078,22.233-1.537,5.725-.368,11.521-.683,17.335-.971a.17.17,0,0,1,.135,0c26.232-1.321,53.336-2.013,81.052-2.013,68.533,0,133.31,4.206,190.708,11.683a.469.469,0,0,1,.162,0c8.825,1.151,17.488,2.364,25.936,3.658,2.417.377,4.826.755,7.189,1.141q14.3,2.31,27.859,4.88h0C910.525,667.463,979.58,700.165,979.58,737.029Z" transform="translate(-36.047 -150.846)" fill="#eb7a6d" opacity="0.1"/>
    <path id="Path_257" data-name="Path 257" d="M862.279,313.708s-9.508-3.855-39.758,10.011S788.5,335.833,780.67,333.748s-12.195-2.624-20.589-14.208c0,0-5.922-32.092-11.683-37.07s-30.079,2.84-30.079,2.84-29.2,6.7-34.761-32.352c0,0,3.945-29.4-1.429-38.427,0,0,10.856,4.673,28.758-2.876s32.236,8.133,32.236,8.133,4.493,11.683,4.044,18.656,2.39,9.589,10.928,6.219c0,0,4.2-5.967-1.743-15.835s-10.182-17.21-8.529-24.866,6.426-18.288,21.748-23.6,36.127-6.291,46.111-10.488S828.129,163,828.129,163s-6.147,6.156,8.331,32.262,5.248,37.43,5.248,37.43-7.7,18.36-41.707,16.868c0,0-32.766,1.2-14.9,15.089,0,0,11.44-2.328,28.542-7.765s29.45,17,32.514,32.613S862.279,313.708,862.279,313.708Z" transform="translate(-92.478 -103.944)" fill="#eb7a6d"/>
    <path id="Path_258" data-name="Path 258" d="M830.67,184.994l.18-.054c1.312,4.979-13.327,25-25.846,40.917l-.144-.117C822.51,203.327,831.685,188.849,830.67,184.994Z" transform="translate(-104.913 -106.167)" fill="#444053"/>
    <path id="Path_259" data-name="Path 259" d="M801.117,230l.081.2c-10,12.707-22.575,27.859-32.64,39.119-.962,1.069-1.914,2.193-2.831,3.343l-.288-.234c.9-1.15,1.878-2.283,2.84-3.352C778.336,257.859,791.106,242.716,801.117,230Z" transform="translate(-100.919 -110.733)" fill="#444053"/>
    <path id="Path_260" data-name="Path 260" d="M763.09,276.89l.2.341c-18.315,22.871-19.528,58.414-19.573,58.693l-3.864-4.493C739.895,331.143,744.649,299.923,763.09,276.89Z" transform="translate(-98.326 -115.484)" fill="#444053"/>
    <path id="Path_261" data-name="Path 261" d="M842.923,308.445s-21.568-11.233-38.427-7.189-54.774-14.289-54.774-14.289-16.086-6.533-19.322-13.983c0,0-11.045-11.683-11.683-17.713S707.34,234.044,700.33,233.46" transform="translate(-94.322 -111.083)" fill="none" stroke="#444053" stroke-miterlimit="10" stroke-width="1"/>
    <path id="Path_262" data-name="Path 262" d="M854.375,327.141s-10.874-7.333-9.607-15.871" transform="translate(-108.947 -118.967)" fill="none" stroke="#444053" stroke-miterlimit="10" stroke-width="1"/>
    <path id="Path_263" data-name="Path 263" d="M834.985,336.327s-15.556-5.644-17.075-27.787" transform="translate(-106.236 -118.691)" fill="none" stroke="#444053" stroke-miterlimit="10" stroke-width="1"/>
    <path id="Path_264" data-name="Path 264" d="M807.767,342.02s-14.864-12.33-9.93-33.88" transform="translate(-104.1 -118.65)" fill="none" stroke="#444053" stroke-miterlimit="10" stroke-width="1"/>
    <path id="Path_265" data-name="Path 265" d="M774.876,335.277s-9.885-20.759-1.088-34.267" transform="translate(-101.396 -117.928)" fill="none" stroke="#444053" stroke-miterlimit="10" stroke-width="1"/>
    <path id="Path_266" data-name="Path 266" d="M858.2,301.67s-11.242,3.595-8.834,9.49" transform="translate(-109.388 -117.995)" fill="none" stroke="#444053" stroke-miterlimit="10" stroke-width="1"/>
    <path id="Path_267" data-name="Path 267" d="M842.393,279s-15.053,4.772-15.4,26.062" transform="translate(-107.156 -115.698)" fill="none" stroke="#444053" stroke-miterlimit="10" stroke-width="1"/>
    <path id="Path_268" data-name="Path 268" d="M819.332,273.48s-13.7,16.913-12.7,32.28" transform="translate(-105.088 -115.138)" fill="none" stroke="#444053" stroke-miterlimit="10" stroke-width="1"/>
    <path id="Path_269" data-name="Path 269" d="M792.714,280.86s-13.606,13.013-11.871,20.247" transform="translate(-102.464 -115.886)" fill="none" stroke="#444053" stroke-miterlimit="10" stroke-width="1"/>
    <path id="Path_270" data-name="Path 270" d="M783.3,275.535s-12.761,2.283-14.55-1.905" transform="translate(-101.255 -115.154)" fill="none" stroke="#444053" stroke-miterlimit="10" stroke-width="1"/>
    <path id="Path_271" data-name="Path 271" d="M766.49,258.61s6.443,8.537,8.088,6.623" transform="translate(-101.026 -113.632)" fill="none" stroke="#444053" stroke-miterlimit="10" stroke-width="1"/>
    <path id="Path_272" data-name="Path 272" d="M833.162,251.769s-32.173,2.337-39.452-7.369" transform="translate(-103.784 -112.192)" fill="none" stroke="#444053" stroke-miterlimit="10" stroke-width="1"/>
    <path id="Path_273" data-name="Path 273" d="M759,210.73s15.089,32.4,26.062,36.522" transform="translate(-100.267 -108.78)" fill="none" stroke="#444053" stroke-miterlimit="10" stroke-width="1"/>
    <path id="Path_274" data-name="Path 274" d="M776.58,193.56s9.265,29.8,20.75,39.1" transform="translate(-102.048 -107.041)" fill="none" stroke="#444053" stroke-miterlimit="10" stroke-width="1"/>
    <path id="Path_275" data-name="Path 275" d="M848.256,225.216s-24.462,10.5-39.146-.126" transform="translate(-105.344 -110.235)" fill="none" stroke="#444053" stroke-miterlimit="10" stroke-width="0.75"/>
    <path id="Path_276" data-name="Path 276" d="M800.82,186.49s5.59,21.9,13.121,27.194" transform="translate(-104.504 -106.324)" fill="none" stroke="#444053" stroke-miterlimit="10" stroke-width="0.75"/>
    <path id="Path_277" data-name="Path 277" d="M846.432,197.92s-13.75,5.212-18.872,1.222" transform="translate(-107.214 -107.482)" fill="none" stroke="#444053" stroke-miterlimit="10" stroke-width="0.75"/>
    <path id="Path_278" data-name="Path 278" d="M752.794,266.57s0,19.1-5.194,20.454" transform="translate(-99.112 -114.438)" fill="none" stroke="#444053" stroke-miterlimit="10" stroke-width="1"/>
    <path id="Path_279" data-name="Path 279" d="M706.09,293.1s20.67,1.8,30.169-8.888" transform="translate(-94.906 -116.226)" fill="none" stroke="#444053" stroke-miterlimit="10" stroke-width="1"/>
    <path id="Path_280" data-name="Path 280" d="M745.342,241.47s-5,19.366-18.782,24.588" transform="translate(-96.98 -111.895)" fill="none" stroke="#444053" stroke-miterlimit="10" stroke-width="1"/>
    <path id="Path_281" data-name="Path 281" d="M692.31,270.514s14.613,5.078,27.185-7.854" transform="translate(-93.509 -114.042)" fill="none" stroke="#444053" stroke-miterlimit="10" stroke-width="1"/>
    <path id="Path_282" data-name="Path 282" d="M728.207,222.94s-1.375,16.446-10.317,24.147" transform="translate(-96.101 -110.017)" fill="none" stroke="#444053" stroke-miterlimit="10" stroke-width="1"/>
    <path id="Path_283" data-name="Path 283" d="M692.93,243.073s12.123.081,14.963-3.873" transform="translate(-93.572 -111.665)" fill="none" stroke="#444053" stroke-miterlimit="10" stroke-width="1"/>
    <rect id="Rectangle_418" data-name="Rectangle 418" width="345.271" height="174.289" transform="translate(341.77 193.857)" fill="#33323d"/>
    <rect id="Rectangle_419" data-name="Rectangle 419" width="561.475" height="114.725" transform="translate(234.217 421.096)" fill="#33323d"/>
    <path id="Path_284" data-name="Path 284" d="M417.83,510.35H705.739L763.1,703.394H357.16Z" transform="translate(-49.584 -60.577)" fill="#fff"/>
    <path id="Path_285" data-name="Path 285" d="M257.73,402.33V585.444H365.284V479.553H743.644V585.444H851.2V402.33Z" transform="translate(-39.51 -49.632)" fill="#504f60"/>
    <rect id="Rectangle_420" data-name="Rectangle 420" width="593.468" height="59.564" transform="translate(218.22 352.698)" fill="#33323d" opacity="0.1"/>
    <circle id="Ellipse_49" data-name="Ellipse 49" cx="8.825" cy="8.825" r="8.825" transform="translate(770.879 373.664)" fill="#8ccf4d" opacity="0.8"/>
    <circle id="Ellipse_50" data-name="Ellipse 50" cx="8.825" cy="8.825" r="8.825" transform="translate(731.167 373.664)" fill="#fa5959" opacity="0.8"/>
    <rect id="Rectangle_421" data-name="Rectangle 421" width="319.902" height="189.729" transform="translate(354.459 151.934)" fill="#fff"/>
    <path id="Path_286" data-name="Path 286" d="M824.243,573.106c.674,7.342-4.871,14.469-3.253,21.658.342,1.537,1.007,2.993,1.249,4.493.665,4.269-1.878,8.313-4.314,11.889l-20.876,30.717a19.071,19.071,0,0,1-2.984,3.685c-4,3.595-9.984,3.181-15.223,4.242a26.133,26.133,0,0,0-10.2,4.493.665.665,0,0,0-.135.9,8.78,8.78,0,0,0,7.585,3.595c.548.719,0,1.8-.755,2.3-1.123.773-2.7.979-2.885,2.885a3.165,3.165,0,0,0,.377,1.914,5.94,5.94,0,0,0,3.658,2.534c7.189,2.211,15.035-1.672,20.445-6.956s9.292-11.952,14.6-17.336c2.939-2.975,6.291-5.527,9.31-8.412,6.039-5.752,10.784-12.752,15.277-19.771a21.744,21.744,0,0,0,3.307-6.731c.557-2.39.305-4.916.953-7.288.845-3.1,3.118-5.572,5.006-8.178,3.711-5.1,6.183-11.341,5.689-17.632s-4.377-12.483-10.308-14.622a9.247,9.247,0,0,0-5.779-.35c-2.435.746-4.224,2.759-5.886,4.682l-3.963,4.574a11.044,11.044,0,0,0-2.31,3.514,3.658,3.658,0,0,0,.818,3.9" transform="translate(-101.218 -144.254)" fill="#fbbebe"/>
    <path id="Path_287" data-name="Path 287" d="M824.243,573.106c.674,7.342-4.871,14.469-3.253,21.658.342,1.537,1.007,2.993,1.249,4.493.665,4.269-1.878,8.313-4.314,11.889l-20.876,30.717a19.071,19.071,0,0,1-2.984,3.685c-4,3.595-9.984,3.181-15.223,4.242a26.133,26.133,0,0,0-10.2,4.493.665.665,0,0,0-.135.9,8.78,8.78,0,0,0,7.585,3.595c.548.719,0,1.8-.755,2.3-1.123.773-2.7.979-2.885,2.885a3.165,3.165,0,0,0,.377,1.914,5.94,5.94,0,0,0,3.658,2.534c7.189,2.211,15.035-1.672,20.445-6.956s9.292-11.952,14.6-17.336c2.939-2.975,6.291-5.527,9.31-8.412,6.039-5.752,10.784-12.752,15.277-19.771a21.744,21.744,0,0,0,3.307-6.731c.557-2.39.305-4.916.953-7.288.845-3.1,3.118-5.572,5.006-8.178,3.711-5.1,6.183-11.341,5.689-17.632s-4.377-12.483-10.308-14.622a9.247,9.247,0,0,0-5.779-.35c-2.435.746-4.224,2.759-5.886,4.682l-3.963,4.574a11.044,11.044,0,0,0-2.31,3.514,3.658,3.658,0,0,0,.818,3.9" transform="translate(-101.218 -144.254)" opacity="0.05"/>
    <path id="Path_288" data-name="Path 288" d="M846.072,783.82c-4.565,2.777-10.245,2.956-15.547,2.3-.9-.1-1.86-.162-2.408.494-.791.962.144,2.364,1.105,3.136a23.134,23.134,0,0,0,10.685,4.395,72.3,72.3,0,0,0,10.443.692c9.526.162,19.106.323,28.542-1.051a3.853,3.853,0,0,0,1.555-.458,2.885,2.885,0,0,0,1.177-1.8c.656-2.445-.593-5.087-2.471-6.785a21.5,21.5,0,0,0-6.659-3.595l-8.286-3.226c-1.95-.764-5.068-2.768-7.189-2.615C853.145,775.624,849.361,781.9,846.072,783.82Z" transform="translate(-107.24 -165.985)" fill="#3f3d56"/>
    <path id="Path_289" data-name="Path 289" d="M846.072,783.82c-4.565,2.777-10.245,2.956-15.547,2.3-.9-.1-1.86-.162-2.408.494-.791.962.144,2.364,1.105,3.136a23.134,23.134,0,0,0,10.685,4.395,72.3,72.3,0,0,0,10.443.692c9.526.162,19.106.323,28.542-1.051a3.853,3.853,0,0,0,1.555-.458,2.885,2.885,0,0,0,1.177-1.8c.656-2.445-.593-5.087-2.471-6.785a21.5,21.5,0,0,0-6.659-3.595l-8.286-3.226c-1.95-.764-5.068-2.768-7.189-2.615C853.145,775.624,849.361,781.9,846.072,783.82Z" transform="translate(-107.24 -165.985)" opacity="0.05"/>
    <path id="Path_290" data-name="Path 290" d="M853.85,657.02c-3.442,4.592-7.019,9.885-6.165,15.574.458,3.064,2.175,5.77,3.433,8.6a60.586,60.586,0,0,1,3.478,12.078c1.294,6.012,2.588,12.042,3.379,18.144.9,6.893-3.325,26.835-3.721,33.781-.1,1.672-.288,3.487-1.456,4.691-.458.476-1.07.9-1.267,1.483a2.49,2.49,0,0,0,.27,1.743c1.95,4.395,5.931,7.657,10.353,9.526s15.179,5.077,19.977,5.248a3.783,3.783,0,0,0,1.878-.251,3.6,3.6,0,0,0,1.456-1.663c3.469-6.623.135-30.2.189-37.691,0-6.291,1.519-12.438,1.249-18.675-.225-5.005-1.564-9.885-2.049-14.882-.8-8.187.7-16.4,2.211-24.489,1.151-6.192,2.3-12.393,3.775-18.522a35.7,35.7,0,0,1,4-10.784c1.627-2.579,3.837-4.727,5.7-7.189a32.353,32.353,0,0,0,6.372-23.707c-.108-.827-11.97,3.01-13,3.46a40.724,40.724,0,0,0-11.584,7.459c-2.7,2.606-4.9,6.1-7.306,9.032q-5.1,6.2-10.056,12.5Q859.323,649.722,853.85,657.02Z" transform="translate(-109.24 -149.228)" fill="#464353"/>
    <path id="Path_291" data-name="Path 291" d="M853.85,656.7c-3.442,4.592-7.019,9.885-6.165,15.583.458,3.056,2.175,5.76,3.433,8.591a60.756,60.756,0,0,1,3.478,12.078c1.294,6.012,2.588,12.042,3.379,18.144.9,6.893-3.325,26.843-3.721,33.79-.1,1.662-.288,3.487-1.456,4.682-.458.476-1.07.9-1.267,1.483a2.525,2.525,0,0,0,.27,1.8c1.95,4.386,5.931,7.657,10.353,9.517s15.179,3.595,19.977,3.747a3.784,3.784,0,0,0,1.878-.252,3.6,3.6,0,0,0,1.456-1.662c3.469-6.623.135-28.7.189-36.181,0-6.291,1.519-12.447,1.249-18.684-.225-5.005-1.564-9.885-2.049-14.882-.8-8.187.7-16.4,2.211-24.48,1.151-6.2,2.3-12.4,3.775-18.531a35.7,35.7,0,0,1,4-10.784c1.627-2.57,3.837-4.727,5.7-7.136a32.415,32.415,0,0,0,6.372-23.707c-.108-.836-11.97,3-13,3.46a40.5,40.5,0,0,0-11.584,7.477c-2.7,2.615-4.9,6.1-7.306,8.987q-5.1,6.2-10.056,12.51Q859.323,649.439,853.85,656.7Z" transform="translate(-109.24 -149.205)" opacity="0.05"/>
    <circle id="Ellipse_51" data-name="Ellipse 51" cx="19.348" cy="19.348" r="19.348" transform="translate(686.898 367.985)" fill="#fbbebe"/>
    <path id="Path_292" data-name="Path 292" d="M829.166,526.973a25.109,25.109,0,0,0,16.059,11.233l-1.456,5.275c-2.516,9.1-5.392,18.728-12.375,25.037a11.724,11.724,0,0,0-1.968-9.05,34.691,34.691,0,0,0-6.569-6.866l-11.135-9.688a3.322,3.322,0,0,1-.836-.9,2.885,2.885,0,0,1,0-2.121c1.42-4.412,5.473-7.189,8.753-10.155a31.11,31.11,0,0,0,4.4-5.132C826.326,521.437,827.7,524.609,829.166,526.973Z" transform="translate(-105.504 -140.449)" fill="#fbbebe"/>
    <path id="Path_293" data-name="Path 293" d="M782.95,504.9l-.431-3.595c3.055.791,5.949-1.8,7.9-4.493s3.766-5.859,6.74-6.974c3.595-1.366,7.441.818,10.892,2.615a34.5,34.5,0,0,0,12.51,4.089,8.092,8.092,0,0,1,2.067.342c2.247.8,3.316,3.595,3.64,6.174s.234,5.275,1.348,7.558c.836,1.725,2.283,3.011,3.164,4.709,2.363,4.583.081,10.838,2.579,15.331l-6.2-5.689c-.575-.521-1.375-1.06-2-.62s-.53,1.105-.737,1.707c-.6,1.8-2.8,2.3-4.413,1.609s-2.768-2.22-3.945-3.595c-2.741-3.235-6-6.075-9.886-7.459a12.635,12.635,0,0,0-10.415.62c-2.894,1.635-5.015,5.446-8.556,5.581-4.862.18-6.884-8.87-9.139-12.447a4.4,4.4,0,0,0,1.276-5.491C779.742,504.724,782.887,504.319,782.95,504.9Z" transform="translate(-102.199 -137.018)" fill="#464353"/>
    <path id="Path_294" data-name="Path 294" d="M871.32,783.35a20.454,20.454,0,0,1-13.911,5.185c-1.3,0-3.11.252-3.118,1.555a2.085,2.085,0,0,0,.377,1.078,12.789,12.789,0,0,0,7.189,5.626,25.546,25.546,0,0,0,8.681.557l8.492-.44c1.6-.09,3.208-.171,4.808-.368s3.325-.53,5-.773a65.377,65.377,0,0,1,12.366-.584c1.1.045,2.363,0,3.046-.827s.315-2.319.063-3.514c-.5-2.462,0-5.041-.467-7.513-.818-4.341-4.547-7.657-8.663-9.229-3.82-1.456-10.6-3.118-14.217-.7C877.08,776.008,874.744,780.25,871.32,783.35Z" transform="translate(-109.922 -165.668)" fill="#3f3d56"/>
    <path id="Path_295" data-name="Path 295" d="M880.671,621c.755,3.595,4.2,6.291,4.3,9.886.081,2.912-2,5.392-3.5,7.863a52.143,52.143,0,0,0-3.595,8.088,123.647,123.647,0,0,1-10.5,20.8c-1.995,3.154-4.224,6.587-3.765,10.3a15.434,15.434,0,0,0,1.8,4.925L871.4,694.74a34.155,34.155,0,0,1,3.056,7.5c.512,2.256.566,4.592.9,6.893.944,7.279,4.359,14.612,2.346,21.667-.18.611-.809,1.348-1.285.9,1.968,3.685,3.595,7.405,3.406,11.584-.081,2.193-.755,4.494.063,6.524a7.094,7.094,0,0,1,.9,2.57c0,.593-.279,1.159-.341,1.8-.162,1.68,1.375,3.083,2.984,3.595s3.343.494,4.961.98c3.118.9,5.329,3.595,8,5.464a16.815,16.815,0,0,0,9.184,2.993,2.3,2.3,0,0,0,1.348-.27,2.193,2.193,0,0,0,.755-1.645,9.113,9.113,0,0,0-3.289-7.918,3.656,3.656,0,0,1-1.213-1.276,3.057,3.057,0,0,1-.117-1.429,106.685,106.685,0,0,0-.351-19.609,29.653,29.653,0,0,1-.314-6.237c.18-1.735.7-3.46.5-5.195s-1.07-3.3-1.591-4.97c-.9-2.966-.665-6.147-.764-9.256-.162-5.392-1.393-10.676-2.624-15.924-.476-2.058-1.016-4.224-2.48-5.752-1.24-1.294-3.244-2.543-2.777-4.269a4.944,4.944,0,0,1,1.132-1.7,6.821,6.821,0,0,0,1.429-5.2,2.319,2.319,0,0,0,2.7-1.258,41.844,41.844,0,0,0,21.029-23.914,7.936,7.936,0,0,1,.9-2.13c.9-1.258,2.462-1.8,3.846-2.5,4.35-2.184,7.36-6.291,10.119-10.308a23.948,23.948,0,0,0,3.9-7.486,24.556,24.556,0,0,0,.539-5.392l.243-9.364a5.048,5.048,0,0,0-.18-1.8,4.339,4.339,0,0,0-1.007-1.483,18.036,18.036,0,0,0-9.885-5.392c-2.552-.458-5.158-.368-7.738-.584-5.006-.413-9.948-1.959-14.954-1.6-7.872.575-14.873,6.03-18.585,12.995C884.832,618.838,883.466,621,880.671,621Z" transform="translate(-110.861 -148.557)" fill="#464353"/>
    <path id="Path_296" data-name="Path 296" d="M833.021,552.893a10.273,10.273,0,0,1-.566,4.26c-.611,1.312-2.157,2.328-3.5,1.8.4-.9-.674-1.968-1.671-1.851a3.108,3.108,0,0,0-2.211,1.878,6.973,6.973,0,0,0-.638,4.323c.314,1.8,1.375,3.595,1.1,5.392-.225,1.528-1.348,3.055-.746,4.493a7.274,7.274,0,0,0,1.438,1.725,4.871,4.871,0,0,1-.512,6.7l15.08.3c-.548,2.525.575,5.1,1.869,7.342a46.246,46.246,0,0,0,34.464,22.467,3.011,3.011,0,0,0-.719,4.592c1.222,1.213,3.3,1.06,4.835.27a35.343,35.343,0,0,0,4.152-3.1,12.68,12.68,0,0,1,8.519-2.3c1.887.18,3.721.791,5.617.9,5.59.3,10.389-3.721,15.736-5.392,3.918-1.2,8.349-1.2,11.683-3.649,1.42-1.051,2.579-2.777,2.166-4.493a7.452,7.452,0,0,0-1.627-2.642c-1.9-2.444-3.011-5.392-4.359-8.169a48.956,48.956,0,0,0-10.9-14.594,97.84,97.84,0,0,0-10.784-8.2,18.991,18.991,0,0,0-2.93-1.8,30.692,30.692,0,0,1-4.008-1.627c-1.8-1.114-2.795-3.082-4.152-4.673-2.993-3.487-7.585-5.1-11.269-7.836-2.471-1.8-4.646-4.26-7.6-5.149-1.429-.431-2.957-.467-4.395-.9-3.253-.989-5.626-3.882-8.825-5.051-2.534-.9-5.32-.683-8-1.015a18.476,18.476,0,0,1-8.2-3.118,9.889,9.889,0,0,0-2.7-1.546c-4.035-1.231-4.367,6.291-4.745,8.906C834.018,545.12,833.021,548.966,833.021,552.893Z" transform="translate(-106.887 -141.341)" fill="#eb7a6d"/>
    <path id="Path_297" data-name="Path 297" d="M832.083,581.948c.674,7.342-4.871,14.46-3.253,21.658.341,1.537,1.006,2.993,1.249,4.493.674,4.269-1.878,8.313-4.314,11.88l-20.876,30.645a19.069,19.069,0,0,1-2.984,3.685c-4,3.595-9.984,3.181-15.223,4.242a26.194,26.194,0,0,0-10.2,4.493.665.665,0,0,0-.135.9,8.753,8.753,0,0,0,7.585,3.595c.548.728,0,1.8-.755,2.3-1.123.782-2.7.989-2.885,2.894a3.162,3.162,0,0,0,.378,1.914,5.976,5.976,0,0,0,3.658,2.534c7.189,2.211,15.035-1.671,20.445-6.956s9.292-11.952,14.612-17.335c2.939-2.975,6.291-5.527,9.3-8.411,6.048-5.752,10.739-12.752,15.278-19.771a21.844,21.844,0,0,0,3.307-6.731c.557-2.39.306-4.916.953-7.288.845-3.1,3.118-5.581,5.006-8.178,3.712-5.1,6.183-11.341,5.689-17.632s-4.377-12.483-10.308-14.621a9.185,9.185,0,0,0-5.779-.35c-2.427.746-4.224,2.759-5.886,4.682l-3.963,4.574a10.867,10.867,0,0,0-2.3,3.514,3.639,3.639,0,0,0,.809,3.891" transform="translate(-102.013 -145.142)" fill="#fbbebe"/>
    <path id="Path_298" data-name="Path 298" d="M848.617,549.743c-2.75.162-5.769.431-7.711,2.39a11.076,11.076,0,0,0-1.941,3.038c-1.878,3.837-3.711,7.845-3.846,12.114-.117,3.415.9,6.749,1.393,10.128.431,2.8-.665,5.662-.9,8.5a59.088,59.088,0,0,0,10.991-4.224,36.377,36.377,0,0,1,6.426-3.343c3.28-1.087,8.789.782,11.88,2.319.171-2.193-1.465-5.994-1.294-8.187a9.27,9.27,0,0,1,.485-2.7,16.6,16.6,0,0,1,1.645-2.615,10.713,10.713,0,0,0-.961-12.582c-2.759-3.109-7.091-4.278-11.216-4.754a48.637,48.637,0,0,0-7.836-.279" transform="translate(-107.978 -143.106)" fill="#eb7a6d"/>
    <path id="Path_299" data-name="Path 299" d="M380.834,463.778l-17.722-25.7s-.332-6.363-1.492-7.845-.252-4.79-.252-4.79,1.249-1.8.171-1.986-.171-4.215-.171-4.215l-.081-6.444s1-6.2.171-7.684a2.435,2.435,0,0,1,.081-2.651s.989-3.55,0-4.493-.746-6.444-.5-10.829-1.734-6.857-1.734-7.513-6.542-7.109-6.542-7.693-4.143-2.975-6.632-3.595-3.721-1.159-3.64-1.492S338.6,365.2,338.6,365.2s-3.478-.252-4.808-1.986-5.392-2.238-5.491-2.256l-.081-.341a1.856,1.856,0,0,0-.072-.377,17.4,17.4,0,0,0,.9-1.618l.234-.5a7.027,7.027,0,0,0,4.071-1.267,5.509,5.509,0,0,0,1.986-3.963,8.663,8.663,0,0,0-.971-4.4c-.728-1.483-1.8-3.029-1.42-4.646.162-.692.575-1.3.791-1.986a5.248,5.248,0,0,0-.593-3.918c-.629-1.2-1.5-2.256-2.2-3.415a13.48,13.48,0,0,1-1.752-4.835,7.45,7.45,0,0,0-.638-2.633,4.914,4.914,0,0,0-1.456-1.465,14.541,14.541,0,0,0-8.906-2.7c-2.256.072-4.493.683-6.74.4a24.148,24.148,0,0,1-3.936-1.025c-2.777-.827-5.985-1.159-8.4.431s-3.379,4.718-5.024,7.189c-1.447,2.157-3.595,3.972-4.673,6.291v-.126a7.525,7.525,0,0,0-.62,1.663,11.843,11.843,0,0,0,.368,5.482,3.81,3.81,0,0,0,1.339,2.444c.818.53,1.941.4,2.894.575l-.108.467a18.917,18.917,0,0,0,13.13,22c0,.171,0,.333,0,.5a12.036,12.036,0,0,1-.09,1.42h0s-8.331-1.716-10.568-.557-6.623,2.067-7.288,2.7-2.319.171-3.81,4.053-1.654,7.846-3.595,9.67-2.894,3.056-2.984,4.377.252,1.654-.494,2.067-1.8,2.148-1.492,2.813a2.346,2.346,0,0,1-.9,2.471,2.75,2.75,0,0,0-1.159,2.48s-.5,1.8-1.663,2.238-1.905,3.136-1.905,3.136l-3.756,4.314-7.441-8.232a3.145,3.145,0,0,0-4.431-.225l-3.658,3.289a7.244,7.244,0,0,0-3.658,2.175,9.743,9.743,0,0,0-1.9,2.822l-2,1.8a5.1,5.1,0,0,0-.521,5.617l4.772,5.275v.045a8.449,8.449,0,0,0-4.61,1.878c-7.117,6.291-7.189,12.069-6.129,14.711s10.1,12.806,10.1,12.806a40.318,40.318,0,0,0,12.824,10.443h0l-.054.063a6.245,6.245,0,0,0-.44.512l-.126.162-.117.162-.135.2a1.559,1.559,0,0,0-.1.162l-.144.234a1.464,1.464,0,0,0-.09.162c-.063.108-.117.216-.171.324q-.03.053-.054.108c-.072.144-.144.288-.207.449l-.072.162c-.045.108-.081.216-.126.333a2.017,2.017,0,0,0-.072.216l-.108.324a1.8,1.8,0,0,0-.072.234,1.969,1.969,0,0,1-.1.359c-.027.126-.045.144-.063.225s-.09.386-.126.593a.452.452,0,0,1-.045.234,2.15,2.15,0,0,0-.072.422,1.15,1.15,0,0,0,0,.306l-.054.4v.324a1.682,1.682,0,0,1-.045.467c-.045.162,0,.189,0,.288v.8c-.162,9.67.4,11.072.4,11.072a5.392,5.392,0,0,0,4.395,3.3,5.476,5.476,0,0,0,1.411-.072c4.314-.746,14.379-2.48,17.973-1.8,2.148.4,6.111-.2,8.933-.728l.746-.144.512,1.645,1.636-.449,1.393.8.9.512c1.636,5.536,8.268,3.649,8.268,3.649l1.573.9,15.987.413a32.077,32.077,0,0,0,5.662,2.7,4.364,4.364,0,0,0,.8.18,35.606,35.606,0,0,0,4.493.081c1.222,0,2.166-.081,2.166-.081s-.162-4.341-.4-9.2a130.43,130.43,0,0,0,14.81-1.213c8.537-1.492,12.1-9.256,13.408-13.408a39.189,39.189,0,0,1,.836,5.149,37.368,37.368,0,0,0,1.33,4.493,14.986,14.986,0,0,0,1.8,3.307c6.291-2.148,2.48-5.392,1.159-6.776s.9-2.561.9-2.561,1.743-1.159,1.573-2.229-.252-2.229,5.392-2.148S380.834,463.778,380.834,463.778Zm-87.459-52.761c.072.467.9,5.563,1.564,6.9a8.988,8.988,0,0,1,.189,2.7c-3.334-.27-6.812-.413-6.812-.413a.845.845,0,0,1,.18.422l-.53-.117-.755-.18,6.147-9.355Zm-12.186,19.375,5.779.9.485.072a18.876,18.876,0,0,0-.3,2.7c0,.09.126.189.315.306a7.114,7.114,0,0,0-.108,1.375c.09.449,2.786,1.438,5.886,2.256-.045.171-.081.332-.126.476h0c-2.741-1.438-7.046-2.112-7.54-3.181s-15.161-6.192-15.161-6.192l-1.456-.728,3.855.728,1.06-.108A57.274,57.274,0,0,0,281.188,430.392Z" transform="translate(-47.34 -120.012)" fill="url(#linear-gradient)"/>
    <path id="Path_300" data-name="Path 300" d="M364.346,480.311s-2.292,13.876-13.947,15.925-50.569,1.644-50.569,1.644-22.251-3.208-30.294-22-13.22-26.277-6.291-26.6S307.334,461.861,309.464,462,366.4,433.436,364.346,480.311Z" transform="translate(-49.707 -132.95)" fill="#65617d"/>
    <path id="Path_301" data-name="Path 301" d="M364.346,480.311s-2.292,13.876-13.947,15.925-50.569,1.644-50.569,1.644-22.251-3.208-30.294-22-13.22-26.277-6.291-26.6S307.334,461.861,309.464,462,366.4,433.436,364.346,480.311Z" transform="translate(-49.707 -132.95)" opacity="0.05"/>
    <path id="Path_302" data-name="Path 302" d="M259.953,498.627a5.311,5.311,0,0,0,4.35,3.28,5.95,5.95,0,0,0,1.411-.081c4.269-.737,14.28-2.462,17.812-1.8,2.121.386,6.048-.2,8.843-.719,1.86-.35,3.226-.683,3.226-.683s-3.289-10.919-3.694-11.242-14.783-8.987-14.783-8.987l-11.377-.818h0a6.012,6.012,0,0,0-3.864,2.265c-1.2,1.456-2.229,3.837-2.3,7.747C259.387,497.216,259.953,498.627,259.953,498.627Z" transform="translate(-49.659 -135.819)" fill="#3f3d56"/>
    <path id="Path_303" data-name="Path 303" d="M259.957,498.633a5.311,5.311,0,0,0,4.35,3.28,48.32,48.32,0,0,1-3.091-4.493l.063-7.962a14.056,14.056,0,0,1,4.493-11.818h0s-5.994.4-6.165,10.011S259.957,498.633,259.957,498.633Z" transform="translate(-49.663 -135.825)" opacity="0.05"/>
    <path id="Path_304" data-name="Path 304" d="M314.166,478.81l10.6-8.295L341.423,454.1l-4.493-.207c-.674.431-2.561,1.8-2.633,3.433-.081,2-4.493.144-6.8,1.285s-13.543,15.547-15.511,15.448-3.532-1-4.359.4l-.054.09Z" transform="translate(-54.526 -133.418)" opacity="0.1"/>
    <path id="Path_305" data-name="Path 305" d="M262.11,479.861c.378.18.764.359,1.15.521,8.043,3.451,17.974,10.676,18.719,11.988.449.8,6.21,4.3,10.649,6.92,1.86-.35,3.226-.683,3.226-.683s-3.289-10.919-3.694-11.242-14.783-8.987-14.783-8.987L266,477.56h0a6.013,6.013,0,0,0-3.891,2.3Z" transform="translate(-49.92 -135.817)" opacity="0.1"/>
    <path id="Path_306" data-name="Path 306" d="M237.214,452.067c1.06,2.624,10.011,12.725,10.011,12.725s5.662,7.387,13.714,10.784,17.974,10.676,18.71,11.988c.476.845,6.893,4.709,11.4,7.36l1.016.593,2.238,1.3,1.186.674s2.75-2.2,5.491-4.422,5.392-4.395,5.392-4.493,1.15-3.038.9-3.2-.692-1.222-1.734-2.543a11.575,11.575,0,0,0-4.179-3.451,11.907,11.907,0,0,1-5.392-5.653s-.359-.261-.9-.611a11.129,11.129,0,0,0-3.685-1.644c-1.8-.225-5.176-3.918-5.176-3.918a10.047,10.047,0,0,1-3.2-3.361c-.9-1.8-13.6-10.55-14.774-11.359L299.1,472.665l7.387,4.745,10.6-8.286,16.661-16.419-5.5-.252c-8.088-.35-22.467-.9-24.264-.485a14.1,14.1,0,0,1-4.493.3s-4.1.18-6.812-1.249-6.983-2.1-7.477-3.163-15.017-6.147-15.017-6.147-19.771-10.506-26.843-4.269S236.145,449.425,237.214,452.067Z" transform="translate(-47.347 -131.551)" fill="#65617d"/>
    <path id="Path_307" data-name="Path 307" d="M308.24,384.147l2.543,8.457,3.289,19.043,12.069.818,3.451-5.751,3.487-5.788s2.175-7.693,3.739-15.134c1.375-6.587,2.283-12.986.782-13.678-1.339-.611-2.211-2.831-2.786-5.221-.072-.288-.135-.593-.189-.9a47.336,47.336,0,0,1-.809-6.12s-25.28-1.312-21.748,9.113a16.635,16.635,0,0,1,.953,5.545,7.261,7.261,0,0,1-.09,1.411A11.818,11.818,0,0,1,308.24,384.147Z" transform="translate(-54.594 -123.887)" fill="#ee8e9e"/>
    <path id="Path_308" data-name="Path 308" d="M302.4,384.571l.9,14.379,2.049,12.231,2.3,5.671,2.058,30.986s19.771,2.292,24.606-.045a2.05,2.05,0,0,0,.9-.674c5.814-8.78,3.909-34.213,3.909-34.213l2.211-16.419-1.474-8.519-3.595-.377-2.75-.3s-.62.764-1.519,1.95c-2.435,3.208-6.911,9.535-6.605,12.168.4,3.595-.494,7.306-1.9,7.881s-2.543,1.564-2.786.575a4.413,4.413,0,0,1-.252-2.624c.252-1.4-1.069-5.671-1.069-5.671s-2.211-5.006-2.049-7.135-.243-4.6-.9-5.176-1.564-1.15-.827-3.774-3.235-7.738-3.235-7.738Z" transform="translate(-54.002 -125.703)" fill="#e3e8f4"/>
    <path id="Path_309" data-name="Path 309" d="M331.486,419.405l.827,24.543,4.736,2.633a2.13,2.13,0,0,0,.9-.683c5.814-8.78,3.909-34.213,3.909-34.213l2.22-16.419-1.483-8.519L339,386.37c1.384-6.587,2.283-12.977.782-13.678-1.339-.611-2.211-2.831-2.777-5.212h0l-2.561,17.362s.216,1.564.288,3.181a8.986,8.986,0,0,1-.207,3.055,10.2,10.2,0,0,0-.162,4.107c-1.483,2.606-2.22,7.441-2.579,12.105C331.3,413.492,331.486,419.405,331.486,419.405Z" transform="translate(-56.946 -124.663)" opacity="0.1"/>
    <path id="Path_310" data-name="Path 310" d="M337.127,367s4.143.512,5.455,2.238,4.763,1.977,4.763,1.977,3.936,1.312,3.855,1.636,1.15.827,3.595,1.483,6.569,3.038,6.569,3.595,6.479,6.974,6.479,7.63,1.968,3.118,1.725,7.468-.494,9.885.494,10.784,0,4.43,0,4.43a2.427,2.427,0,0,0-.081,2.633c.818,1.474-.171,7.63-.171,7.63l.09,6.408s-.9,4.017.162,4.188-.162,1.968-.162,1.968-.9,3.28.243,4.763,1.474,7.792,1.474,7.792l17.569,25.531s.252,4.682-5.329,4.6-5.509,1.069-5.338,2.13-1.564,2.22-1.564,2.22-2.211,1.15-.9,2.543,5.086,4.6-1.15,6.731a14.86,14.86,0,0,1-1.8-3.28,37.235,37.235,0,0,1-1.312-4.43s-.575-6.246-1.726-7.064-.989-4.763-.989-4.763,1.645-3.2-.656-4.493S332.8,443.576,332.8,443.576L332,419.024s-.575-18.144,2.876-24.219a10.2,10.2,0,0,1,.162-4.107c.575-1.474-.081-6.237-.081-6.237Z" transform="translate(-56.997 -124.614)" fill="#3f3d56"/>
    <path id="Path_311" data-name="Path 311" d="M310.394,377.893s-8.25-1.7-10.47-.548-6.56,2.049-7.189,2.7-2.292.171-3.774,4.026-1.636,7.8-3.532,9.607-2.867,3.038-2.948,4.35.243,1.645-.494,2.049-1.8,2.139-1.483,2.795,17.075,15.107,17.075,15.107.827,5.5,1.564,6.893-.818,20.607-2.462,21.919,11.045,1.2,11.045,1.2.575-12.582,1.069-13.264-.332-14.118-.332-14.118-.081-11.494.989-14.532.9-13.139.9-13.139.944-6.057,2.094-7.468S310.394,377.893,310.394,377.893Z" transform="translate(-51.778 -125.622)" opacity="0.1"/>
    <path id="Path_312" data-name="Path 312" d="M310.123,377.623s-8.25-1.7-10.47-.557-6.569,2.058-7.189,2.7-2.3.162-3.774,4.026-1.645,7.792-3.532,9.6-2.876,3.038-2.957,4.35.252,1.645-.494,2.058-1.8,2.13-1.474,2.786,17.075,15.107,17.075,15.107.818,5.5,1.564,6.893-.827,20.607-2.471,21.919,11.09,1.2,11.09,1.2.575-12.581,1.06-13.255-.323-14.127-.323-14.127-.081-11.485.989-14.523.944-13.139.944-13.139.944-6.057,2.094-7.468S310.123,377.623,310.123,377.623Z" transform="translate(-51.75 -125.594)" fill="#3f3d56"/>
    <path id="Path_313" data-name="Path 313" d="M312.5,368.966a16.635,16.635,0,0,1,.953,5.545,18.872,18.872,0,0,0,21.568-8.537,47.325,47.325,0,0,1-.809-6.12S308.97,358.533,312.5,368.966Z" transform="translate(-54.992 -123.885)" opacity="0.1"/>
    <path id="Path_314" data-name="Path 314" d="M298.65,353.44a18.81,18.81,0,1,0,.413-3.909A18.611,18.611,0,0,0,298.65,353.44Z" transform="translate(-53.622 -121.335)" fill="#ee8e9e"/>
    <path id="Path_315" data-name="Path 315" d="M283.363,404l-4.493,1.393a2.328,2.328,0,0,1-.9,2.462,2.7,2.7,0,0,0-1.141,2.462s-.494,1.8-1.645,2.22-1.887,3.118-1.887,3.118l-3.775,4.35s-1.4,1.15-1.15,1.725-1.483.737-1.483.737l.9,14.612,7.8,1.483,4.844-.494,3.936-1.474,3.451-2.058,1.555-4.017,6.9-10.514Z" transform="translate(-50.404 -128.363)" fill="#3f3d56"/>
    <path id="Path_316" data-name="Path 316" d="M265.87,424.79s-10.011-14.442-17.488-6.65,3.038,20.445,5.5,20.032S268.09,437.1,268.09,437.1Z" transform="translate(-48.261 -129.562)" fill="#ee8e9e"/>
    <rect id="Rectangle_422" data-name="Rectangle 422" width="52.42" height="40.701" rx="1.54" transform="translate(195.738 265.781) rotate(27.04)" fill="#3f3d56"/>
    <rect id="Rectangle_423" data-name="Rectangle 423" width="44.062" height="33.206" transform="translate(197.836 270.959) rotate(27.04)" fill="#eb7a6d"/>
    <circle id="Ellipse_52" data-name="Ellipse 52" cx="0.719" cy="0.719" r="0.719" transform="translate(188.061 284.246)" fill="#e6e8ec"/>
    <circle id="Ellipse_53" data-name="Ellipse 53" cx="1.195" cy="1.195" r="1.195" transform="translate(230.065 305.536)" fill="#e6e8ec"/>
    <path id="Path_317" data-name="Path 317" d="M260.93,428.606c-.09,10.838,22.323,13.139,22.323,13.139l5.725.9,2.57.4,1.069-10.586s-1.177-.18-2.642-.521c-2.175-.5-4.988-1.375-5.572-2.606C283.46,427.294,260.993,417.768,260.93,428.606Z" transform="translate(-49.8 -130.341)" fill="#ee8e9e"/>
    <path id="Path_318" data-name="Path 318" d="M299.11,349.533a2.229,2.229,0,0,1,1.375.611c.629.674.665,1.869,1.492,2.283a1.725,1.725,0,0,0,.98.108c2.184-.306,3.442-2.768,5.545-3.451a5.563,5.563,0,0,1,3.667.315,2.867,2.867,0,0,1,1.222.782c.7.9.207,2.247.53,3.343.449,1.528,2.274,2.13,3.846,2.328s3.352.315,4.4,1.5a3.99,3.99,0,0,1,.782,3.181,2.48,2.48,0,0,0,0,1.177c.431,1.231,2.561,1.043,3.118.072.413-.71.288-1.294,1.249-1.492a4.07,4.07,0,0,1,2,.351,14.869,14.869,0,0,0,5.2.8,18.8,18.8,0,1,0-35.408-11.908Z" transform="translate(-53.669 -121.337)" opacity="0.1"/>
    <path id="Path_319" data-name="Path 319" d="M322.425,360.085a2.491,2.491,0,0,1,0-1.177,3.963,3.963,0,0,0-.782-3.172c-1.052-1.2-2.822-1.3-4.4-1.51s-3.4-.8-3.846-2.328c-.323-1.1.171-2.435-.53-3.334a2.7,2.7,0,0,0-1.222-.782,5.572,5.572,0,0,0-3.667-.324c-2.1.683-3.361,3.145-5.545,3.451a1.652,1.652,0,0,1-.979-.108c-.827-.413-.9-1.609-1.492-2.283-1-1.051-2.894-.368-4.107-1.15a3.784,3.784,0,0,1-1.33-2.435,11.808,11.808,0,0,1-.359-5.446c.71-3.047,3.442-5.14,5.176-7.756,1.627-2.426,2.543-5.5,4.979-7.109s5.572-1.249,8.331-.431a23.509,23.509,0,0,0,3.9,1.024c2.22.27,4.448-.332,6.677-.4a14.288,14.288,0,0,1,8.825,2.7,4.825,4.825,0,0,1,1.438,1.456,7.559,7.559,0,0,1,.647,2.615,13.282,13.282,0,0,0,1.734,4.8c.683,1.159,1.555,2.2,2.175,3.4a5.266,5.266,0,0,1,.593,3.891c-.216.674-.629,1.285-.791,1.977-.359,1.6.692,3.136,1.411,4.61a8.645,8.645,0,0,1,.962,4.377,5.482,5.482,0,0,1-1.968,3.936,7.108,7.108,0,0,1-4.161,1.267,14.962,14.962,0,0,1-5.3-.8,4.18,4.18,0,0,0-2-.351c-.962.2-.836.782-1.249,1.492C324.986,361.127,322.865,361.316,322.425,360.085Z" transform="translate(-53.151 -120.206)" fill="#3f3d56"/>
    <path id="Path_320" data-name="Path 320" d="M313.527,479.346l10.6-8.286,16.661-16.419-5.5-.252a3.594,3.594,0,0,0-1.159,2.247c-.081,2-4.493.135-6.8,1.285s-13.543,15.547-15.511,15.448-3.532-1-4.359.4l-.054.09a2.319,2.319,0,0,1-1.258.746Z" transform="translate(-54.381 -133.469)" opacity="0.1"/>
    <path id="Path_321" data-name="Path 321" d="M290.61,478.136l5.32,16.994.836,2.7,2.534-.692,5.59-1.537,24.875-6.83a21.631,21.631,0,0,0,8.987-2.391,27.113,27.113,0,0,1,15.457-3.37c3.289.306,6.947-1.114,9.984-6.722,0,0,6.893-20.355-10.506-26.187s-18.234,3.1-18.234,3.1l-.243.144c-.674.431-2.561,1.8-2.633,3.433-.081,2-4.493.144-6.8,1.285s-13.543,15.547-15.511,15.448-3.532-1-4.359.4l-.054.09c-.611.836-2.435,1.033-3.649,1.06a10.815,10.815,0,0,1-1.132,0l-.162.045-1.258.377Z" transform="translate(-52.808 -132.834)" fill="#65617d"/>
    <path id="Path_322" data-name="Path 322" d="M292.14,443.6l2.57.4,1.069-10.587s-1.177-.18-2.642-.521C293.524,434.383,292.643,440.089,292.14,443.6Z" transform="translate(-52.963 -131.291)" opacity="0.1"/>
    <path id="Path_323" data-name="Path 323" d="M359.314,389.721s7.63-2.22,5.743,19.456a60.607,60.607,0,0,1-16.005,35.381s-16.257,7.136-23.563,5.985-12.635-1.393-12.635-1.393a18.575,18.575,0,0,0-7.4-1.968c-4.1-.162-12.716-2.7-12.887-3.532s2.139-12.887,1.15-13.786c0,0,11.494.467,12.644,1.294s2.795.243,4.026,0,5.006-3.514,12.474-.638c0,0,2.543.243,3.532-.413a3.532,3.532,0,0,1,2.57-.162,7.056,7.056,0,0,0,1.8-.9c.243-.323,2.22,0,2.22,0a.9.9,0,0,0,1.231-.575,5.39,5.39,0,0,1,1.15-1.8s2.211-12.474,6.4-17.156a2.7,2.7,0,0,0,.9-2.381C342.32,405.808,349.464,387.088,359.314,389.721Z" transform="translate(-53.005 -126.891)" opacity="0.1"/>
    <path id="Path_324" data-name="Path 324" d="M359.085,387.862s7.639-2.211,5.751,19.456A60.562,60.562,0,0,1,348.831,442.7s-16.257,7.145-23.563,5.994-12.644-1.42-12.644-1.42a18.5,18.5,0,0,0-7.387-1.968c-4.107-.171-12.725-2.7-12.887-3.532s2.13-12.887,1.15-13.795c0,0,11.494.476,12.644,1.3s2.786.234,4.017,0,5.006-3.514,12.483-.647c0,0,2.543.252,3.523-.4a3.594,3.594,0,0,1,2.57-.171,7.468,7.468,0,0,0,1.8-.9c.243-.333,2.211,0,2.211,0a.9.9,0,0,0,1.231-.575,5.391,5.391,0,0,1,1.15-1.8s2.22-12.474,6.408-17.156a2.7,2.7,0,0,0,.9-2.382C342.1,403.957,349.235,385.265,359.085,387.862Z" transform="translate(-52.983 -126.703)" fill="#3f3d56"/>
    <path id="Path_325" data-name="Path 325" d="M300.64,478.477,311.478,491.6l.072-.072c.081-.252,1.15-3.038.9-3.208s-2.13-4.269-5.9-5.994A11.2,11.2,0,0,1,301.9,478.1Z" transform="translate(-53.824 -135.871)" opacity="0.1"/>
    <path id="Path_326" data-name="Path 326" d="M300.77,502.158l1.186.674s2.75-2.2,5.491-4.422,5.392-4.395,5.392-4.493,1.15-3.038.9-3.2-.692-1.222-1.734-2.543c-7.351-2.058-2.7,3.046-2.049,3.28,0,0-8.942-2.058-9.436,7.693A12.061,12.061,0,0,0,300.77,502.158Z" transform="translate(-53.811 -136.843)" opacity="0.1"/>
    <path id="Path_327" data-name="Path 327" d="M309.925,506.278l1.564.9,15.844.4a31.743,31.743,0,0,0,5.608,2.7,5.268,5.268,0,0,0,.791.171,35.077,35.077,0,0,0,4.422.081c1.213,0,2.148-.081,2.148-.081s-.746-19.978-1.312-22.081c-.27-1.007-1.6-.791-2.912-.288a19.851,19.851,0,0,0-2.84,1.438s-6.722.656-7.792,1.231-4.107-.332-5.994,0-5.257-2.22-5.257-2.22c-9.194-3.038-4.017,2.624-3.361,2.876,0,0-8.987-2.058-9.445,7.693S309.925,506.278,309.925,506.278Z" transform="translate(-53.898 -136.838)" fill="#3f3d56"/>
    <path id="Path_328" data-name="Path 328" d="M336.379,498.572c.171,4.134,3.4,9.265,5.32,11.979,1.213,0,2.148-.081,2.148-.081s-.746-19.978-1.312-22.081c-.27-1.006-1.6-.791-2.912-.288C338.033,491.086,336.235,495.229,336.379,498.572Z" transform="translate(-57.444 -136.842)" fill="#565387"/>
    <path id="Path_329" data-name="Path 329" d="M336.379,498.572c.171,4.134,3.4,9.265,5.32,11.979,1.213,0,2.148-.081,2.148-.081s-.746-19.978-1.312-22.081c-.27-1.006-1.6-.791-2.912-.288C338.033,491.086,336.235,495.229,336.379,498.572Z" transform="translate(-57.444 -136.842)" opacity="0.1"/>
    <path id="Path_330" data-name="Path 330" d="M333.33,499.12c1.1,3.99,1.078,8.466,2.822,11.179a5.271,5.271,0,0,0,.791.171,35.041,35.041,0,0,0,4.422.081c1.213,0,2.148-.081,2.148-.081s-.746-19.978-1.312-22.081c-.27-1.006-1.6-.791-2.912-.288a19.846,19.846,0,0,0-2.84,1.438S331.937,494.007,333.33,499.12Z" transform="translate(-57.109 -136.842)" opacity="0.05"/>
    <path id="Path_331" data-name="Path 331" d="M272.54,455.34s7.872,2.552,14.541,11.629Z" transform="translate(-50.977 -133.565)" opacity="0.1"/>
    <g id="Group_23" data-name="Group 23" transform="translate(240.818 217.627)" opacity="0.1">
      <path id="Path_332" data-name="Path 332" d="M343.664,345.72a.27.27,0,0,1-.045.18,4.954,4.954,0,0,1-.279.683A6.3,6.3,0,0,1,343.664,345.72Z" transform="translate(-298.969 -340.085)"/>
      <path id="Path_333" data-name="Path 333" d="M294.14,341.1a7.025,7.025,0,0,1,.611-1.654,2.035,2.035,0,0,1-.126.422,11.935,11.935,0,0,0,.368,5.446,3.81,3.81,0,0,0,1.321,2.435c1.222.782,3.118.1,4.116,1.15.629.674.665,1.869,1.492,2.283a1.653,1.653,0,0,0,.98.108c2.184-.306,3.442-2.768,5.545-3.451a5.519,5.519,0,0,1,3.667.324,2.7,2.7,0,0,1,1.222.782c.7.9.207,2.238.53,3.334.449,1.528,2.274,2.13,3.846,2.328s3.352.314,4.4,1.51a3.963,3.963,0,0,1,.782,3.172,2.489,2.489,0,0,0,0,1.177c.431,1.231,2.561,1.042,3.118.072.413-.71.288-1.294,1.249-1.492a4.179,4.179,0,0,1,2,.35,14.962,14.962,0,0,0,5.3.8,7.108,7.108,0,0,0,4.161-1.267,4.657,4.657,0,0,0,1.276-1.555,5.177,5.177,0,0,1-1.8,2.786,7.109,7.109,0,0,1-4.161,1.267,14.964,14.964,0,0,1-5.3-.8,4.178,4.178,0,0,0-2-.35c-.961.2-.836.782-1.24,1.492-.566.971-2.7,1.159-3.127-.072a2.606,2.606,0,0,1,0-1.177,3.964,3.964,0,0,0-.782-3.172c-1.052-1.2-2.822-1.3-4.4-1.51s-3.4-.8-3.846-2.328c-.323-1.1.171-2.435-.53-3.334a2.7,2.7,0,0,0-1.213-.782,5.6,5.6,0,0,0-3.676-.324c-2.094.683-3.361,3.145-5.545,3.451a1.654,1.654,0,0,1-.98-.108c-.827-.413-.9-1.609-1.492-2.283-1-1.051-2.885-.368-4.107-1.15a3.783,3.783,0,0,1-1.33-2.435A11.809,11.809,0,0,1,294.14,341.1Z" transform="translate(-293.966 -339.45)"/>
    </g>
    <path id="Path_334" data-name="Path 334" d="M344.379,413.968c-1.51,2.031-3.226,3.909-4.556,6.048a11.512,11.512,0,0,0-2,7.189c1.375-1.411,2.013-3.37,2.876-5.14,1.474-3,3.667-5.545,5.527-8.295.351-.53,2.615-3.595,1.474-3.721C346.752,409.915,344.891,413.276,344.379,413.968Z" transform="translate(-57.59 -128.976)" opacity="0.1"/>
    <path id="Path_335" data-name="Path 335" d="M352.957,623.35c1.087,3.487,2.184,6.983,3.541,10.371a88.2,88.2,0,0,0,9.175,16.724,121.381,121.381,0,0,0,7.585,9.939c3.379,3.981,7.189,7.989,8.34,13.076.692,2.939.458,6,.746,8.987s1.267,6.183,3.7,7.98a13.49,13.49,0,0,0,6.084,2c1.528.243,3.433.323,4.224-1a3.838,3.838,0,0,0,.422-1.744l.368-4.395c.072-.953.413-2.166,1.366-2.211s1.429,1.222,2.238,1.8c1.078.755,2.7,0,3.289-1.141a5.545,5.545,0,0,0,.09-3.864,18.306,18.306,0,0,0-9.409-11.683,26.961,26.961,0,0,1-4.583-2.381,15.666,15.666,0,0,1-3.595-4.547c-8.34-13.732-16.724-27.535-22.611-42.48a31.457,31.457,0,0,1-2.328-8.376,55,55,0,0,1,.36-8.843,50.327,50.327,0,0,0-1.456-15.754,12.58,12.58,0,0,0-1.5-3.828c-2.426-3.676-8.088-4.224-11.683-1.689a12.042,12.042,0,0,0-4.655,8.51c-.261,2.984,1.456,6.075,2.328,8.852Q348.958,610.517,352.957,623.35Z" transform="translate(-58.08 -146.068)" fill="#a1616a"/>
    <path id="Path_336" data-name="Path 336" d="M352.957,623.35c1.087,3.487,2.184,6.983,3.541,10.371a88.2,88.2,0,0,0,9.175,16.724,121.381,121.381,0,0,0,7.585,9.939c3.379,3.981,7.189,7.989,8.34,13.076.692,2.939.458,6,.746,8.987s1.267,6.183,3.7,7.98a13.49,13.49,0,0,0,6.084,2c1.528.243,3.433.323,4.224-1a3.838,3.838,0,0,0,.422-1.744l.368-4.395c.072-.953.413-2.166,1.366-2.211s1.429,1.222,2.238,1.8c1.078.755,2.7,0,3.289-1.141a5.545,5.545,0,0,0,.09-3.864,18.306,18.306,0,0,0-9.409-11.683,26.961,26.961,0,0,1-4.583-2.381,15.666,15.666,0,0,1-3.595-4.547c-8.34-13.732-16.724-27.535-22.611-42.48a31.457,31.457,0,0,1-2.328-8.376,55,55,0,0,1,.36-8.843,50.327,50.327,0,0,0-1.456-15.754,12.58,12.58,0,0,0-1.5-3.828c-2.426-3.676-8.088-4.224-11.683-1.689a12.042,12.042,0,0,0-4.655,8.51c-.261,2.984,1.456,6.075,2.328,8.852Q348.958,610.517,352.957,623.35Z" transform="translate(-58.08 -146.068)" opacity="0.05"/>
    <path id="Path_337" data-name="Path 337" d="M295.62,788.857a11.979,11.979,0,0,0,5.069.611c.126-1.4,2.013-1.716,3.415-1.644a3.9,3.9,0,0,1,1.95.449c.35.225.62.548.962.782a4.161,4.161,0,0,0,1.986.512l7.3.611c3.253.279,6.641.53,9.688-.629a3.344,3.344,0,0,0,1.555-1.042c.827-1.186,0-2.885-1.141-3.747s-2.615-1.249-3.765-2.13c-2.534-1.932-2.885-5.545-4.224-8.439a24.9,24.9,0,0,0-3.5-5.06,19.417,19.417,0,0,0-3.442-3.532c-2.93-2.112-6.291-2.067-9.733-2.373-2.426-.216-4.709-.359-6.452,1.8-2.157,2.7-1.294,8.088-1.159,11.233a81.294,81.294,0,0,0,1.492,12.6Z" transform="translate(-53.135 -164.75)" fill="#514e7f"/>
    <path id="Path_338" data-name="Path 338" d="M295.62,788.857a11.979,11.979,0,0,0,5.069.611c.126-1.4,2.013-1.716,3.415-1.644a3.9,3.9,0,0,1,1.95.449c.35.225.62.548.962.782a4.161,4.161,0,0,0,1.986.512l7.3.611c3.253.279,6.641.53,9.688-.629a3.344,3.344,0,0,0,1.555-1.042c.827-1.186,0-2.885-1.141-3.747s-2.615-1.249-3.765-2.13c-2.534-1.932-2.885-5.545-4.224-8.439a24.9,24.9,0,0,0-3.5-5.06,19.417,19.417,0,0,0-3.442-3.532c-2.93-2.112-6.291-2.067-9.733-2.373-2.426-.216-4.709-.359-6.452,1.8-2.157,2.7-1.294,8.088-1.159,11.233a81.294,81.294,0,0,0,1.492,12.6Z" transform="translate(-53.135 -164.75)" opacity="0.05"/>
    <path id="Path_339" data-name="Path 339" d="M297.175,633.147c-2.229.719-3.2,3.5-2.786,5.805s1.8,4.3,2.939,6.354c3.253,5.814,4.655,12.465,7.387,18.531,2.04,4.493,4.8,8.717,6.812,13.264s3.262,9.679,2.04,14.5c-.593,2.346-1.743,4.493-2.507,6.8a37.737,37.737,0,0,0-1.474,7.684,145.937,145.937,0,0,0-.53,26.655,7.961,7.961,0,0,0,.665,3.146c.458.9,1.249,1.8.9,2.7-.153.368-.485.638-.647,1-.467,1.007.467,2.076,1.321,2.795a2.328,2.328,0,0,1-1.429,1.105,3.379,3.379,0,0,1,1.438,3.765c-.755.117-.8,1.276-.324,1.887s1.231.989,1.573,1.681a2.346,2.346,0,0,1-1.294,2.948,6.156,6.156,0,0,1-3.523.27,38.622,38.622,0,0,1-5.886-1.294,4.26,4.26,0,0,1-3.433-4.4,65.429,65.429,0,0,1-.4-11.027c.315-17.83,0-35.677-.773-53.5-.315-7.19-2.471-14.154-5.248-20.769a109.012,109.012,0,0,0-5.113-9.885c-4.008-7.333-7.549-15.457-6.632-23.77.1-.9.422-1.968,1.312-2.112a1.9,1.9,0,0,1,1.016.171,45.665,45.665,0,0,1,5.347,2.948A20.181,20.181,0,0,0,297.175,633.147Z" transform="translate(-51.742 -150.986)" fill="#464353"/>
    <path id="Path_340" data-name="Path 340" d="M297.175,633.147c-2.229.719-3.2,3.5-2.786,5.805s1.8,4.3,2.939,6.354c3.253,5.814,4.655,12.465,7.387,18.531,2.04,4.493,4.8,8.717,6.812,13.264s3.262,9.679,2.04,14.5c-.593,2.346-1.743,4.493-2.507,6.8a37.737,37.737,0,0,0-1.474,7.684,145.937,145.937,0,0,0-.53,26.655,7.961,7.961,0,0,0,.665,3.146c.458.9,1.249,1.8.9,2.7-.153.368-.485.638-.647,1-.467,1.007.467,2.076,1.321,2.795a2.328,2.328,0,0,1-1.429,1.105,3.379,3.379,0,0,1,1.438,3.765c-.755.117-.8,1.276-.324,1.887s1.231.989,1.573,1.681a2.346,2.346,0,0,1-1.294,2.948,6.156,6.156,0,0,1-3.523.27,38.622,38.622,0,0,1-5.886-1.294,4.26,4.26,0,0,1-3.433-4.4,65.429,65.429,0,0,1-.4-11.027c.315-17.83,0-35.677-.773-53.5-.315-7.19-2.471-14.154-5.248-20.769a109.012,109.012,0,0,0-5.113-9.885c-4.008-7.333-7.549-15.457-6.632-23.77.1-.9.422-1.968,1.312-2.112a1.9,1.9,0,0,1,1.016.171,45.665,45.665,0,0,1,5.347,2.948A20.181,20.181,0,0,0,297.175,633.147Z" transform="translate(-51.742 -150.986)" opacity="0.05"/>
    <path id="Path_341" data-name="Path 341" d="M263.5,609.552a7.745,7.745,0,0,0-3.882-1.222c-1.6.081-2.966,1.132-4.215,2.139a43.121,43.121,0,0,0-4.206,3.685,22.413,22.413,0,0,0-5,22.179c1.321,3.963,3.738,7.459,6.129,10.883l4.853,6.974c7.405,10.631,14.81,21.263,22.566,31.642a1.2,1.2,0,0,0,.845,1.141c.279.072.629.063.8.3a.844.844,0,0,1,.1.476,6.876,6.876,0,0,1-.431,2.247,1.07,1.07,0,0,0-.09.773c.252.584,1.312.252,1.654.8.225.359-.054.827-.351,1.132s-.665.647-.611,1.069.791.9.764,1.42c0,.306-.27.539-.458.782a2,2,0,0,0,.243,2.552c.512,5.068-2.247,9.886-2.795,14.936-.9,7.98,2.741,15.772,3.181,23.779a6.157,6.157,0,0,0,.5,2.624c.746,1.384,2.7,2.22,2.6,3.792a15.194,15.194,0,0,1-.548,1.905,14.474,14.474,0,0,0,.3,2.7c.018.9-.782,2-1.627,1.645q.953,3.181,1.7,6.416l16.985,1.4a15.072,15.072,0,0,0-.153-4.583c-.351-1.645-1.087-3.172-1.474-4.8a5.679,5.679,0,0,1,.665-4.808,1.878,1.878,0,0,1-1.869-1.537,7.466,7.466,0,0,1,.045-2.642c.449-4.43-1.411-8.8-1.357-13.246.054-3.5,1.285-6.875,1.905-10.317,1.33-7.369-.054-15.358,3.226-22.089,1.986-4.053,4.736-8.546,2.507-12.474-1.1-1.941-3.037-3.271-4.3-5.1a20.771,20.771,0,0,1-2.3-5.563c-2.615-8.088-6.848-15.6-10.559-23.294a24.269,24.269,0,0,1-2.274-6.12,32.086,32.086,0,0,1-.288-5.653,83.321,83.321,0,0,0-.62-10.145,9.653,9.653,0,0,0-1.231-4.2,9.392,9.392,0,0,0-2.7-2.417C276.152,614.908,269.52,612.724,263.5,609.552Z" transform="translate(-48.199 -149.067)" fill="#464353"/>
    <path id="Path_342" data-name="Path 342" d="M288.021,795.786a12.18,12.18,0,0,0,5.078.6c.126-1.4,2-1.716,3.406-1.645a3.9,3.9,0,0,1,1.95.449c.35.225.62.557.971.782a4.061,4.061,0,0,0,1.986.512l7.288.611c3.262.279,6.641.539,9.7-.629a3.254,3.254,0,0,0,1.546-1.043c.827-1.186,0-2.876-1.141-3.738s-2.615-1.258-3.756-2.139c-2.543-1.932-2.885-5.536-4.233-8.429a24.321,24.321,0,0,0-3.487-5.069,19.408,19.408,0,0,0-3.451-3.523c-2.921-2.121-6.291-2.076-9.724-2.381-2.435-.216-4.718-.351-6.452,1.8-2.157,2.7-1.294,8.088-1.168,11.242a81.431,81.431,0,0,0,1.492,12.6Z" transform="translate(-52.366 -165.451)" fill="#514e7f"/>
    <circle id="Ellipse_54" data-name="Ellipse 54" cx="16.823" cy="16.823" r="16.823" transform="translate(294.113 397.425)" fill="#a1616a"/>
    <path id="Path_343" data-name="Path 343" d="M350.66,563.44c-2.408,2.076-5.868,2.229-9.032,2.552a56.723,56.723,0,0,0-19.438,5.626,7.007,7.007,0,0,0-2.247,1.546,6.343,6.343,0,0,0-1.141,2.408,15.737,15.737,0,0,0-.638,5.85,16.672,16.672,0,0,0,1.627,5.5,29.656,29.656,0,0,0,10.425,11.889,7.64,7.64,0,0,0,2.642,1.267c2.211.458,4.35-.818,6.533-1.393a10.677,10.677,0,0,1,6.03.189c1.8.611,3.765,1.726,5.545.98A5.689,5.689,0,0,0,353.473,597a97.239,97.239,0,0,0,4.592-10.011,38.514,38.514,0,0,1,1.663-3.918c1.95-3.712,5.32-6.578,7-10.434a2.291,2.291,0,0,0,.162-1.959,2.7,2.7,0,0,0-1.24-.944,29.487,29.487,0,0,1-6.722-5.275c-1.105-1.06-3.136-3.927-4.727-4.179C352.413,559.971,351.874,562.4,350.66,563.44Z" transform="translate(-55.595 -144.195)" fill="#a1616a"/>
    <path id="Path_344" data-name="Path 344" d="M345.544,598.929c-1.95.9-4.251.512-6.363.072-5.446-1.141-10.955-2.292-16-4.646a8.664,8.664,0,0,1-3.927-3.02,9.886,9.886,0,0,1-1.1-3.766l-.9-6.291c-.323-2.184.234-4.206.288-6.417a1.86,1.86,0,0,0-.368-1.393,1.518,1.518,0,0,0-1.105-.351c-2.525.045-4.053,2.7-5.823,4.493a10.783,10.783,0,0,1-3.595,2.409c-1.618.665-3.595,1.132-4.269,2.75-.27.674-.234,1.438-.521,2.112-1.132,2.7-5.958,1.8-7.189,4.493-.35.755-.323,1.7-.9,2.292s-1.654.584-2.543.728c-3.514.575-5.212,4.628-8.214,6.542-2.525,1.618-5.778,1.582-8.5,2.84-1.51.7-2.849,1.8-4.449,2.256s-3.406.216-5.122.26a1.339,1.339,0,0,0-1.016.333,1.357,1.357,0,0,0-.171,1.115A30.968,30.968,0,0,0,282.9,629.718a6.4,6.4,0,0,1,1.636.791c1.528,1.141,1.8,3.595,3.532,4.4a3.6,3.6,0,0,0,3.676-.791,33,33,0,0,0,2.7-2.93,10.558,10.558,0,0,1,5.922-3.118c2.085-.333,4.412-.09,6.1-1.375a18.937,18.937,0,0,0,1.923-2.049,12.075,12.075,0,0,1,4.359-2.606A44.556,44.556,0,0,1,326.609,619c4.431-.243,8.987.162,13.175-1.276a7.942,7.942,0,0,0,2.939-1.662,8.834,8.834,0,0,0,1.959-3.406,26.062,26.062,0,0,0,.863-13.723Z" transform="translate(-50.082 -145.498)" fill="#eb7a6d"/>
    <path id="Path_345" data-name="Path 345" d="M329.585,574.208c1.24-.117,2.489,0,3.738,0,1.465,0,2.912-.36,4.377-.368a10.883,10.883,0,0,1,10.263,7.809,2.022,2.022,0,0,1,.063,1.105.782.782,0,0,1-.845.575,18.623,18.623,0,0,0-1.9-3.783,10.631,10.631,0,0,0-5.644-3.936,14.612,14.612,0,0,0-6.938-.252c-.962.18-1.9.431-2.831.692l-4.493,1.24c-.827.225-1.663.449-2.462.746-.62.233-1.681,1.087-2.292,1.123-.827,0-.162-.719.207-1.2a5.977,5.977,0,0,1,2.939-2.139A25.455,25.455,0,0,1,329.585,574.208Z" transform="translate(-55.809 -145.572)" fill="#eb7a6d"/>
    <path id="Path_346" data-name="Path 346" d="M342.094,625.448c1.087,3.487,2.175,6.983,3.541,10.371a87.71,87.71,0,0,0,9.176,16.724,121.362,121.362,0,0,0,7.585,9.939c3.37,3.981,7.136,7.989,8.34,13.067.692,2.948.458,6.012.746,8.987s1.267,6.183,3.694,7.98a13.786,13.786,0,0,0,6.093,2c1.519.243,3.424.323,4.224-1a3.99,3.99,0,0,0,.422-1.744l.359-4.395c.081-.953.422-2.166,1.366-2.211s1.438,1.222,2.247,1.8c1.078.755,2.7,0,3.289-1.141a5.589,5.589,0,0,0,.09-3.864,18.36,18.36,0,0,0-9.409-11.683,27.428,27.428,0,0,1-4.592-2.382,15.557,15.557,0,0,1-3.595-4.556c-8.349-13.723-16.733-27.526-22.611-42.48a31.69,31.69,0,0,1-2.337-8.367,55,55,0,0,1,.368-8.843,50.325,50.325,0,0,0-1.456-15.754,12.393,12.393,0,0,0-1.51-3.829c-2.417-3.684-8.088-4.224-11.683-1.689a12.051,12.051,0,0,0-4.664,8.51c-.261,2.984,1.465,6.075,2.328,8.852Q338.086,612.615,342.094,625.448Z" transform="translate(-56.976 -146.279)" fill="#a1616a"/>
    <path id="Path_347" data-name="Path 347" d="M392.517,543.379c.135-1.4-1.123-2.7-2.552-3.595a33.8,33.8,0,0,1-4.323-2.642c-1.276-1.105-1.977-2.543-3.253-3.649a14.456,14.456,0,0,0-4.853-2.418A36.958,36.958,0,0,0,365.925,529a20.149,20.149,0,0,0-11.1,2.939,6.569,6.569,0,0,0-1.887,1.8,7.711,7.711,0,0,0-.9,2.786,54.985,54.985,0,0,1-2.9,8.816c-1.249,3.172-2.579,6.461-5.518,8.915-3.145,2.615-7.953,4.125-10.029,7.288a2.336,2.336,0,0,0-.458,2.04c.3.8,1.249,1.348,2.13,1.851,5.1,2.93,9.508,6.731,11.773,11.269a13.078,13.078,0,0,1-1.024,14.064c-1.186,1.546-2.822,3.379-1.663,4.934,1.8,2.364,7.81,1.007,9.211,3.505a5.1,5.1,0,0,1,.18,2.579c0,2.624,2.525,4.952,5.59,6.165a31.473,31.473,0,0,0,10.065,1.654,8.789,8.789,0,0,0,.252-6.515,2.625,2.625,0,0,1-.261-1.483,3.593,3.593,0,0,1,1.159-1.42c3.685-3.487,2.9-8.609.692-12.752s-5.662-7.926-6.947-12.285c-.638-2.166-.638-4.6,1.078-6.4a21.622,21.622,0,0,1,3.172-2.31,11.988,11.988,0,0,0,4.439-5.572c1.033-2.867.9-6.291,3.9-8.223,2.885-1.8,6.938-1.276,10.128-2.507C389.461,549.166,392.319,545.437,392.517,543.379Z" transform="translate(-57.109 -141.029)" fill="#464353"/>
    <path id="Path_348" data-name="Path 348" d="M589.023,695.223c-13.7-5.671-17.731-9.769-17.731-17.973,0-6.291,2.768-13.552,14.9-13.552a34.211,34.211,0,0,1,18.944,5.392l3.945-10.434c-4.574-2.7-11.027-5.2-20.481-5.518V637.86H580.63v15.907c-14.5,2.363-22.889,12.285-22.889,25.361,0,13.7,8.088,20.957,24.192,27.257,11.665,4.754,17.767,10.11,17.767,18.773,0,8.987-7.558,15.439-18.746,15.439-8.816,0-18.809-2.993-24.48-6.776l-3.783,10.55c5.518,3.945,14.972,6.776,24.1,6.938v15.907h13.561V750.833c16.176-2.7,24.884-14.379,24.884-26.781C615.238,710.033,605.254,701.837,589.023,695.223Z" transform="translate(-79.363 -152.059)" fill="url(#linear-gradient-2)"/>
    <path id="Path_349" data-name="Path 349" d="M576.833,763.218V747.312c-9.131-.162-18.585-2.993-24.1-6.938l3.783-10.55c5.671,3.783,15.664,6.776,24.48,6.776,11.188,0,18.71-6.453,18.71-15.439,0-8.663-6.138-14.019-17.8-18.746-16.068-6.291-24.192-13.552-24.192-27.257,0-13.076,8.394-23,22.889-25.361V633.89h7.971v15.277c9.454.315,15.907,2.831,20.481,5.518L605.1,665.074a34.215,34.215,0,0,0-18.944-5.392c-12.132,0-14.9,7.252-14.9,13.552,0,8.187,4.026,12.285,17.731,17.974,16.23,6.614,26.214,14.81,26.214,28.83,0,12.447-8.663,24.1-24.884,26.781v16.4Z" transform="translate(-79.367 -151.657)" fill="#eb7a6d"/>
  </g>
</svg>
