<svg xmlns="http://www.w3.org/2000/svg" xmlns:xlink="http://www.w3.org/1999/xlink" width="521.86" height="494.889" viewBox="0 0 521.86 494.889">
  <defs>
    <linearGradient id="linear-gradient" x1="-0.799" y1="4.201" x2="-0.799" y2="0.93" gradientUnits="objectBoundingBox">
      <stop offset="0" stop-color="gray" stop-opacity="0.251"/>
      <stop offset="0.535" stop-color="gray" stop-opacity="0.122"/>
      <stop offset="1" stop-color="gray" stop-opacity="0.102"/>
    </linearGradient>
    <linearGradient id="linear-gradient-2" x1="-3.38" y1="2.074" x2="-3.38" y2="1.074" xlink:href="#linear-gradient"/>
    <linearGradient id="linear-gradient-3" x1="-3.665" y1="2.092" x2="-3.665" y2="1.092" xlink:href="#linear-gradient"/>
    <linearGradient id="linear-gradient-4" x1="-3.776" y1="2.125" x2="-3.776" y2="1.125" xlink:href="#linear-gradient"/>
  </defs>
  <g id="Group_40" data-name="Group 40" transform="translate(-119.655 12.746)">
    <rect id="Rectangle_472" data-name="Rectangle 472" width="174.027" height="252.716" rx="13.435" transform="translate(119.655 35.78) rotate(-12.753)" fill="#eb7a6d"/>
    <circle id="Ellipse_148" data-name="Ellipse 148" cx="5.021" cy="5.021" r="5.021" transform="translate(131.709 63.879)" fill="#fff"/>
    <circle id="Ellipse_149" data-name="Ellipse 149" cx="5.021" cy="5.021" r="5.021" transform="translate(136.73 82.288)" fill="#fff"/>
    <circle id="Ellipse_150" data-name="Ellipse 150" cx="5.021" cy="5.021" r="5.021" transform="translate(169.364 217.01)" fill="#fff"/>
    <circle id="Ellipse_151" data-name="Ellipse 151" cx="5.021" cy="5.021" r="5.021" transform="translate(174.385 235.419)" fill="#fff"/>
    <rect id="Rectangle_473" data-name="Rectangle 473" width="104.494" height="17.416" transform="translate(175.885 116.3) rotate(-12.753)" fill="#f5f5f5"/>
    <rect id="Rectangle_474" data-name="Rectangle 474" width="299.21" height="362.931" transform="translate(233.439 142.581) rotate(-20.674)" fill="#3f3d56"/>
    <rect id="Rectangle_475" data-name="Rectangle 475" width="134.368" height="5.541" transform="translate(383.08 376.309) rotate(-20.674)" fill="#eb7a6d"/>
    <rect id="Rectangle_476" data-name="Rectangle 476" width="220.252" height="5.541" transform="translate(394.817 407.414) rotate(-20.674)" fill="#eb7a6d"/>
    <rect id="Rectangle_477" data-name="Rectangle 477" width="56.795" height="5.541" transform="translate(536.012 318.599) rotate(-20.674)" fill="#eb7a6d"/>
    <rect id="Rectangle_478" data-name="Rectangle 478" width="56.795" height="5.541" transform="translate(388.948 391.861) rotate(-20.674)" fill="#eb7a6d"/>
    <rect id="Rectangle_479" data-name="Rectangle 479" width="56.795" height="5.541" transform="translate(465.414 363.007) rotate(-20.674)" fill="#eb7a6d"/>
    <rect id="Rectangle_480" data-name="Rectangle 480" width="56.795" height="5.541" transform="translate(541.88 334.152) rotate(-20.674)" fill="#eb7a6d"/>
    <rect id="Rectangle_481" data-name="Rectangle 481" width="166.228" height="60.95" transform="translate(326.285 201.212) rotate(-20.674)" fill="#eb7a6d"/>
    <g id="Group_33" data-name="Group 33" transform="translate(601.981 160.109)" opacity="0.5">
      <rect id="Rectangle_482" data-name="Rectangle 482" width="2.51" height="14.225" transform="translate(5.857)" fill="#47e6b1"/>
      <rect id="Rectangle_483" data-name="Rectangle 483" width="2.51" height="14.225" transform="translate(14.225 5.858) rotate(90)" fill="#47e6b1"/>
    </g>
    <g id="Group_34" data-name="Group 34" transform="translate(156.813 326.628)" opacity="0.5">
      <rect id="Rectangle_484" data-name="Rectangle 484" width="2.51" height="14.225" transform="translate(5.857)" fill="#47e6b1"/>
      <rect id="Rectangle_485" data-name="Rectangle 485" width="2.51" height="14.225" transform="translate(14.225 5.858) rotate(90)" fill="#47e6b1"/>
    </g>
    <g id="Group_35" data-name="Group 35" transform="translate(258.9 427.879)" opacity="0.5">
      <rect id="Rectangle_486" data-name="Rectangle 486" width="2.51" height="14.225" transform="translate(5.858)" fill="#47e6b1"/>
      <rect id="Rectangle_487" data-name="Rectangle 487" width="2.51" height="14.225" transform="translate(14.225 5.858) rotate(90)" fill="#47e6b1"/>
    </g>
    <path id="Path_616" data-name="Path 616" d="M203.426,540.335a3.075,3.075,0,0,1-1.713-3.716,1.478,1.478,0,0,0,.067-.341h0a1.542,1.542,0,0,0-2.77-1.022h0a1.479,1.479,0,0,0-.171.3,3.075,3.075,0,0,1-3.716,1.713,1.476,1.476,0,0,0-.341-.067h0a1.542,1.542,0,0,0-1.022,2.77h0a1.478,1.478,0,0,0,.3.171,3.075,3.075,0,0,1,1.713,3.716,1.478,1.478,0,0,0-.067.341h0a1.542,1.542,0,0,0,2.77,1.022h0a1.478,1.478,0,0,0,.171-.3,3.075,3.075,0,0,1,3.716-1.713,1.479,1.479,0,0,0,.341.067h0a1.542,1.542,0,0,0,1.022-2.77h0A1.475,1.475,0,0,0,203.426,540.335Z" transform="translate(386.858 -525.25)" fill="#4d8af0" opacity="0.5"/>
    <circle id="Ellipse_152" data-name="Ellipse 152" cx="5.021" cy="5.021" r="5.021" transform="translate(352.619 63.879)" fill="#f55f44" opacity="0.5"/>
    <circle id="Ellipse_153" data-name="Ellipse 153" cx="5.021" cy="5.021" r="5.021" transform="translate(151.645 -12.746)" fill="#4d8af0" opacity="0.5"/>
    <circle id="Ellipse_155" data-name="Ellipse 155" cx="5.021" cy="5.021" r="5.021" transform="translate(121.825 442.56)" fill="#f55f44" opacity="0.5"/>
    <g id="Group_36" data-name="Group 36" transform="translate(539.505 195.937)" opacity="0.5">
      <rect id="Rectangle_488" data-name="Rectangle 488" width="170.671" height="52.18" transform="translate(0 170.663) rotate(-89.437)" fill="url(#linear-gradient)"/>
    </g>
    <rect id="Rectangle_489" data-name="Rectangle 489" width="49.614" height="168.388" transform="translate(542.877 197.096) rotate(0.563)" fill="#e0e0e0"/>
    <rect id="Rectangle_490" data-name="Rectangle 490" width="35.072" height="35.072" transform="translate(550.167 199.876) rotate(0.563)" fill="#4d8af0"/>
    <rect id="Rectangle_491" data-name="Rectangle 491" width="35.072" height="35.072" transform="translate(549.75 242.217) rotate(0.563)" fill="#4d8af0" opacity="0.5"/>
    <rect id="Rectangle_492" data-name="Rectangle 492" width="35.072" height="35.072" transform="translate(549.334 284.558) rotate(0.563)" fill="#4d8af0" opacity="0.3"/>
    <g id="Group_37" data-name="Group 37" transform="translate(488.263 205.739)" opacity="0.5">
      <rect id="Rectangle_493" data-name="Rectangle 493" width="52.18" height="170.036" transform="translate(0 15.937) rotate(-17.783)" fill="url(#linear-gradient-2)"/>
    </g>
    <rect id="Rectangle_494" data-name="Rectangle 494" width="49.614" height="167.752" transform="translate(490.241 222.241) rotate(-17.783)" fill="#f5f5f5"/>
    <rect id="Rectangle_495" data-name="Rectangle 495" width="35.072" height="35.072" transform="translate(498.021 222.589) rotate(-17.783)" fill="#ff5252"/>
    <rect id="Rectangle_496" data-name="Rectangle 496" width="35.072" height="35.072" transform="translate(510.954 262.909) rotate(-17.783)" fill="#ff5252" opacity="0.5"/>
    <rect id="Rectangle_497" data-name="Rectangle 497" width="35.072" height="35.072" transform="translate(523.887 303.229) rotate(-17.783)" fill="#ff5252" opacity="0.3"/>
    <g id="Group_38" data-name="Group 38" transform="translate(461.667 217.381)" opacity="0.5">
      <rect id="Rectangle_498" data-name="Rectangle 498" width="52.18" height="170.036" transform="translate(0 25.677) rotate(-29.478)" fill="url(#linear-gradient-3)"/>
    </g>
    <rect id="Rectangle_499" data-name="Rectangle 499" width="49.614" height="167.753" transform="translate(463.718 243.211) rotate(-29.478)" fill="#f5f5f5"/>
    <rect id="Rectangle_500" data-name="Rectangle 500" width="35.072" height="35.072" transform="translate(471.387 241.986) rotate(-29.478)" fill="#69f0ae"/>
    <rect id="Rectangle_501" data-name="Rectangle 501" width="35.072" height="35.072" transform="translate(492.224 278.847) rotate(-29.478)" fill="#69f0ae" opacity="0.5"/>
    <rect id="Rectangle_502" data-name="Rectangle 502" width="35.072" height="35.072" transform="translate(513.06 315.708) rotate(-29.478)" fill="#69f0ae" opacity="0.3"/>
    <g id="Group_39" data-name="Group 39" transform="translate(447.006 230.226)" opacity="0.5">
      <rect id="Rectangle_503" data-name="Rectangle 503" width="52.18" height="170.036" transform="matrix(0.802, -0.597, 0.597, 0.802, 0, 31.17)" fill="url(#linear-gradient-4)"/>
    </g>
    <rect id="Rectangle_504" data-name="Rectangle 504" width="49.614" height="167.753" transform="matrix(0.802, -0.597, 0.597, 0.802, 449.06, 261.29)" fill="#fff"/>
    <rect id="Rectangle_505" data-name="Rectangle 505" width="35.072" height="35.072" transform="matrix(0.802, -0.597, 0.597, 0.802, 456.509, 259.117)" fill="#eb7a6d"/>
    <rect id="Rectangle_506" data-name="Rectangle 506" width="35.072" height="35.072" transform="matrix(0.802, -0.597, 0.597, 0.802, 481.802, 293.075)" fill="#eb7a6d" opacity="0.5"/>
    <rect id="Rectangle_507" data-name="Rectangle 507" width="35.072" height="35.072" transform="matrix(0.802, -0.597, 0.597, 0.802, 507.097, 327.033)" fill="#eb7a6d" opacity="0.3"/>
  </g>
</svg>
