<svg xmlns="http://www.w3.org/2000/svg" width="875.437" height="535.406" viewBox="0 0 875.437 535.406">
  <g id="Group_29" data-name="Group 29" transform="translate(0 -11.227)">
    <circle id="Ellipse_91" data-name="Ellipse 91" cx="198.217" cy="198.217" r="198.217" transform="translate(467.297 90.045)" fill="#f2f2f2"/>
    <circle id="Ellipse_93" data-name="Ellipse 93" cx="198.217" cy="198.217" r="198.217" transform="translate(45.111 11.227)" fill="#f2f2f2"/>
    <ellipse id="Ellipse_94" data-name="Ellipse 94" cx="217.727" cy="11.706" rx="217.727" ry="11.706" transform="translate(16.237 395.175)" fill="#3f3d56"/>
    <ellipse id="Ellipse_95" data-name="Ellipse 95" cx="163.1" cy="8.073" rx="163.1" ry="8.073" transform="translate(27.162 399.211)" opacity="0.1"/>
    <ellipse id="Ellipse_96" data-name="Ellipse 96" cx="217.727" cy="12.876" rx="217.727" ry="12.876" transform="translate(439.984 475.554)" fill="#3f3d56"/>
    <ellipse id="Ellipse_97" data-name="Ellipse 97" cx="163.1" cy="8.88" rx="163.1" ry="8.88" transform="translate(450.909 479.994)" opacity="0.1"/>
    <ellipse id="Ellipse_98" data-name="Ellipse 98" cx="138.942" cy="7.023" rx="138.942" ry="7.023" transform="translate(173.916 451.362)" fill="#3f3d56"/>
    <ellipse id="Ellipse_99" data-name="Ellipse 99" cx="67.037" cy="3.389" rx="67.037" ry="3.389" transform="translate(0 431.586)" fill="#3f3d56"/>
    <ellipse id="Ellipse_100" data-name="Ellipse 100" cx="124.767" cy="6.307" rx="124.767" ry="6.307" transform="translate(618.88 534.019)" fill="#3f3d56"/>
    <rect id="Rectangle_427" data-name="Rectangle 427" width="249.722" height="148.273" transform="translate(480.564 338.987)" fill="#3f3d56"/>
    <circle id="Ellipse_101" data-name="Ellipse 101" cx="56.188" cy="56.188" r="56.188" transform="translate(504.756 358.497)" fill="#eb7a6d"/>
    <rect id="Rectangle_428" data-name="Rectangle 428" width="18.729" height="18.729" transform="translate(634.299 362.399)" fill="#eb7a6d"/>
    <rect id="Rectangle_429" data-name="Rectangle 429" width="18.729" height="18.729" transform="translate(657.711 362.399)" fill="#eb7a6d" opacity="0.5"/>
    <rect id="Rectangle_430" data-name="Rectangle 430" width="18.729" height="18.729" transform="translate(681.122 362.399)" fill="#eb7a6d" opacity="0.2"/>
    <rect id="Rectangle_431" data-name="Rectangle 431" width="18.729" height="18.729" transform="translate(634.299 385.81)" fill="#2f2e41"/>
    <rect id="Rectangle_432" data-name="Rectangle 432" width="18.729" height="18.729" transform="translate(657.711 385.81)" fill="#2f2e41" opacity="0.5"/>
    <rect id="Rectangle_433" data-name="Rectangle 433" width="18.729" height="18.729" transform="translate(681.122 385.81)" fill="#2f2e41" opacity="0.2"/>
    <rect id="Rectangle_434" data-name="Rectangle 434" width="18.729" height="18.729" transform="translate(634.299 409.222)" fill="#ff6584"/>
    <rect id="Rectangle_435" data-name="Rectangle 435" width="18.729" height="18.729" transform="translate(657.711 409.222)" fill="#ff6584" opacity="0.5"/>
    <rect id="Rectangle_436" data-name="Rectangle 436" width="18.729" height="18.729" transform="translate(681.122 409.222)" fill="#ff6584" opacity="0.2"/>
    <path id="Path_423" data-name="Path 423" d="M757.9,558.459V670.834c31.031,0,57.748-25.156,57.748-56.187S788.935,558.459,757.9,558.459Z" transform="translate(-196.96 -199.962)" fill="#3f3d56" opacity="0.5"/>
    <path id="Path_424" data-name="Path 424" d="M1030.415,546.959s32.776,14.827,21.07,32-46.823,49.945-47.6,56.968-5.463,13.266-5.463,13.266S982.811,632.8,984.372,631.24s17.168-16.388,17.949-20.29,24.192-34.337,24.192-34.337l-21.07-18.729Z" transform="translate(-246.672 -197.437)" fill="#ffb9b9"/>
    <path id="Path_425" data-name="Path 425" d="M1030.415,546.959s32.776,14.827,21.07,32-46.823,49.945-47.6,56.968-5.463,13.266-5.463,13.266S982.811,632.8,984.372,631.24s17.168-16.388,17.949-20.29,24.192-34.337,24.192-34.337l-21.07-18.729Z" transform="translate(-246.672 -197.437)" opacity="0.1"/>
    <path id="Path_426" data-name="Path 426" d="M990.4,585.665s22.631,9.365,21.07,24.192,27.313,56.968,27.313,56.968,3.122,10.145,2.341,13.266,20.29,2.341,20.29,2.341v-7.023s-16.388-28.094-17.949-35.9-10.925-38.239-10.925-38.239-3.122-27.313-18.729-27.313A29.264,29.264,0,0,0,990.4,585.665Z" transform="translate(-248.021 -203.366)" fill="#ffb9b9"/>
    <path id="Path_427" data-name="Path 427" d="M987.867,498.459s46.823,38.239,45.262,41.36-24.192,14.827-28.094,15.608-31.51-56.968-31.51-56.968Z" transform="translate(-244.314 -186.785)" fill="#2f2e41"/>
    <path id="Path_428" data-name="Path 428" d="M987.867,498.459s46.823,38.239,45.262,41.36-24.192,14.827-28.094,15.608-31.51-56.968-31.51-56.968Z" transform="translate(-244.314 -186.785)" opacity="0.1"/>
    <path id="Path_429" data-name="Path 429" d="M926.661,506.019s-4.682,21.07,7.8,29.655,33.556,42.141,35.9,42.141,35.9-17.949,34.337-21.07-18.729-30.435-18.729-30.435l-5.463-28.874S932.9,495.874,926.661,506.019Z" transform="translate(-233.833 -186.541)" fill="#2f2e41"/>
    <path id="Path_430" data-name="Path 430" d="M991.9,420.459l7.023,45.262,12.486,32s18.729,19.51,7.8,21.07-17.168-21.07-17.168-21.07L991.9,478.988Z" transform="translate(-248.35 -169.655)" fill="#ffb9b9"/>
    <path id="Path_431" data-name="Path 431" d="M991.9,420.459l7.023,45.262,12.486,32s18.729,19.51,7.8,21.07-17.168-21.07-17.168-21.07L991.9,478.988Z" transform="translate(-248.35 -169.655)" opacity="0.1"/>
    <path id="Path_432" data-name="Path 432" d="M956.662,355.959s0,16.388-5.463,17.949,21.851,22.631,21.851,22.631-3.122-27.313,7.8-34.337Z" transform="translate(-239.252 -155.49)" fill="#ffb9b9"/>
    <path id="Path_433" data-name="Path 433" d="M956.662,355.959s0,16.388-5.463,17.949,21.851,22.631,21.851,22.631-3.122-27.313,7.8-34.337Z" transform="translate(-239.252 -155.49)" opacity="0.1"/>
    <circle id="Ellipse_102" data-name="Ellipse 102" cx="17.949" cy="17.949" r="17.949" transform="translate(711.947 177.839)" fill="#ffb9b9"/>
    <path id="Path_434" data-name="Path 434" d="M963.185,392.462s-16.388-20.29-18.729-19.51-19.51,17.949-21.07,23.411-4.682,44.482-2.341,52.286,2.341,28.094,1.561,29.654-5.463,5.463-.78,5.463,21.07-11.706,32-9.365,25.753-.78,26.533-2.341-.78-42.141,0-45.262-1.561-18.729-2.341-21.851-.78-15.608-8.584-18.729l-3.328-.329-.186,7.719Z" transform="translate(-232.509 -159.217)" fill="#eb7a6d"/>
    <path id="Path_435" data-name="Path 435" d="M931.4,449.959s1.561,24.192,13.267,34.337,36.678,27.313,38.239,30.435,16.388,19.51,19.51,12.486a11.676,11.676,0,0,0,.626-6.919,17.21,17.21,0,0,0-7.728-11.247l-6.944-4.464-34.337-35.9-1.561-18.729Z" transform="translate(-235.063 -176.134)" fill="#ffb9b9"/>
    <path id="Path_436" data-name="Path 436" d="M985.253,651.364s-8.974-1.951-12.1,3.512,3.122,20.29,3.122,20.29,17.949,37.458,21.07,32.776-2.341-21.851-2.341-21.851,7.8-17.168,4.682-17.949S985.253,660.728,985.253,651.364Z" transform="translate(-244.041 -220.291)" fill="#2f2e41"/>
    <path id="Path_437" data-name="Path 437" d="M1057.131,707.2s-4.682-2.341-5.463,0-5.463,14.047,0,15.608,59.309,3.122,57.748,0-10.145-7.023-15.608-8.584-19.51-13.266-19.51-13.266S1066.5,711.1,1057.131,707.2Z" transform="translate(-260.902 -231.258)" fill="#2f2e41"/>
    <path id="Path_438" data-name="Path 438" d="M985.321,326.38a4.807,4.807,0,0,0-2.085-2.721,11.03,11.03,0,0,0-.44-3.591c-1.147-3.39-3.863-3.2-6.427-4.695-1.112-.65-1.043-1.225-1.622-2.293a8.511,8.511,0,0,0-3.28-3.346,11.8,11.8,0,0,0-5.326-2.259c-4.088-.279-7.223,3.567-11.13,4.8-1.722.544-3.573.566-5.3,1.081s-3.459,1.742-3.717,3.53c-.119.825.091,1.672-.03,2.5-.24,1.64-1.679,2.788-2.642,4.137-2.13,2.983-1.886,7.2-.183,10.442a14.676,14.676,0,0,0,1.228,1.922,11.823,11.823,0,0,0,1.3,4.39c1.7,3.245,4.634,5.67,7.7,7.685a18.174,18.174,0,0,1-.454-3.277,2.261,2.261,0,0,1,.139-1.086c.341-.713,1.242-.9,1.929-1.293,1.423-.809,1.981-2.6,2.022-4.234s-.306-3.275-.134-4.9a2.679,2.679,0,0,1,.917-1.97,3.167,3.167,0,0,1,1.729-.412c2.915-.119,5.961-.172,8.532-1.551a12.646,12.646,0,0,1,2.656-1.343c2.185-.57,4.419.962,5.678,2.836s1.887,4.105,3.049,6.042,3.169,3.663,5.416,3.434a.9.9,0,0,0,.671-.3,1.006,1.006,0,0,0,.124-.572l.125-8.588a12.981,12.981,0,0,0-.433-4.365Z" transform="translate(-237.344 -144.838)" fill="#2f2e41"/>
    <path id="Path_439" data-name="Path 439" d="M936.81,398.959s17.168,7.8,16.388,24.192,4.682,17.949-8.584,19.51-16.388,0-17.168,1.561-5.463-35.9-2.341-39.8S936.81,398.959,936.81,398.959Z" transform="translate(-233.447 -164.933)" fill="#eb7a6d"/>
    <circle id="Ellipse_103" data-name="Ellipse 103" cx="24.972" cy="24.972" r="24.972" transform="translate(333.072 51.807)" fill="#2f2e41"/>
    <path id="Path_440" data-name="Path 440" d="M513.5,547.959,499.454,586.2s-11.706,9.365-4.682,12.486,21.07-3.122,21.07-3.122l10.925-28.094-1.561-19.51Z" transform="translate(-138.678 -197.656)" fill="#2f2e41"/>
    <path id="Path_441" data-name="Path 441" d="M513.5,547.959,499.454,586.2s-11.706,9.365-4.682,12.486,21.07-3.122,21.07-3.122l10.925-28.094-1.561-19.51Z" transform="translate(-138.678 -197.656)" opacity="0.1"/>
    <path id="Path_442" data-name="Path 442" d="M519.412,257.459l11.706,1.561s5.463,42.921,3.122,46.043-14.047,15.608-18.729,12.486S519.412,257.459,519.412,257.459Z" transform="translate(-143.419 -133.857)" fill="#575a89"/>
    <path id="Path_443" data-name="Path 443" d="M370.546,357.959s-16.388,7.023-19.51,7.8-7.8,8.584-2.341,10.145,26.533-14.047,26.533-14.047Z" transform="translate(-106.538 -155.929)" fill="#a0616a"/>
    <path id="Path_444" data-name="Path 444" d="M526.4,566.477l8.584,32s.78,11.706,4.682,12.486,15.608-3.9,15.608-5.463-4.682-14.047-4.682-14.047,0-9.365-4.682-13.267-8.9-16.973-8.9-16.973Z" transform="translate(-146.118 -200.566)" fill="#2f2e41"/>
    <path id="Path_445" data-name="Path 445" d="M530.959,453.535c1.576,3.676,1.381,30.341-.343,48.087-.835,8.623-2.029,15.139-3.559,15.9l-11.183-2.794-4.425-1.108-.117-9.708-.663-53.5L497.4,395.006V380.959l33.556,3.122,5.322,8.358.14.226S528.618,448.072,530.959,453.535Z" transform="translate(-139.749 -160.98)" fill="#2f2e41"/>
    <path id="Path_446" data-name="Path 446" d="M523.936,470.7c1.67,2.505,4.456,17.5,6.68,30.919-.835,8.623-2.029,15.139-3.559,15.9l-11.183-2.794c-.172-.359-.343-.734-.523-1.108-1.428-3-2.77-6.305-4.019-9.708l-.663-53.5L497.4,395.006V380.959l33.556,3.122,5.322,8.358-31.075-2.115,7.023,30.435,8.584,32S520.814,466.021,523.936,470.7Z" transform="translate(-139.749 -160.98)" opacity="0.1"/>
    <path id="Path_447" data-name="Path 447" d="M459.357,338.1s-10.925,24.192,4.682,57.748a682.137,682.137,0,0,1,25.753,63.991s5.463,25.753,13.266,42.141,6.243,17.168,6.243,17.168l12.486-7.023s-7.023-48.384-10.145-53.066-3.122-17.949-3.122-17.949l-8.584-32-7.023-30.435,34.337,2.341s0-44.482-15.608-53.066Z" transform="translate(-130.577 -149.34)" fill="#2f2e41"/>
    <path id="Path_448" data-name="Path 448" d="M471.8,212.459s0,12.486-3.9,13.267-11.706.78-14.047,4.682S471.8,285.815,471.8,285.815l21.07-13.266,7.023-35.117s-10.145-6.243-10.145-9.365V214.02Z" transform="translate(-130.143 -123.974)" fill="#a0616a"/>
    <path id="Path_449" data-name="Path 449" d="M471.8,212.459s0,12.486-3.9,13.267-11.706.78-14.047,4.682S471.8,285.815,471.8,285.815l21.07-13.266,7.023-35.117s-10.145-6.243-10.145-9.365V214.02Z" transform="translate(-130.143 -123.974)" opacity="0.1"/>
    <circle id="Ellipse_104" data-name="Ellipse 104" cx="18.729" cy="18.729" r="18.729" transform="translate(335.023 64.683)" fill="#a0616a"/>
    <path id="Path_450" data-name="Path 450" d="M468.483,273.941s-7.023-44.482-8.584-44.482-23.411,4.682-24.972,5.463-7.023,7.8-7.023,7.8l10.925,31.215s4.682,21.851,7.8,25.753,9.365,14.827,6.243,16.388-6.243,3.9-3.122,3.9,28.874-4.682,30.435-2.341,27.313-8.584,27.313-9.365-3.121-37.458-3.121-37.458l7.8-17.949-23.412-16.388Z" transform="translate(-124.486 -127.708)" fill="#575a89"/>
    <path id="Path_451" data-name="Path 451" d="M423.848,241.459l-7.8,3.9s-21.851,49.944-23.411,50.725-9.365,15.608-10.145,18.729-2.341,13.267-4.682,14.827a40.537,40.537,0,0,1-3.9,2.341s4.682,7.8,7.023,7.8,10.145-10.925,10.145-10.925,17.168,10.925,21.851,2.341,16.388-63.211,16.388-63.211Z" transform="translate(-112.626 -130.343)" fill="#575a89"/>
    <path id="Path_452" data-name="Path 452" d="M511.049,265.3s-10.925-26.533-17.168-23.411,4.682,21.851,11.706,24.972Z" transform="translate(-138.568 -130.381)" fill="#a0616a"/>
    <path id="Path_453" data-name="Path 453" d="M500.55,272.263l10.949-2.475,2.317,11.84s10.145,17.949,7.8,25.753-16.388,20.29-21.07,13.267-8.584-17.949-5.463-24.192S502.891,275.384,500.55,272.263Z" transform="translate(-138.994 -136.565)" opacity="0.1"/>
    <path id="Path_454" data-name="Path 454" d="M503.55,270.263l10.949-2.475,2.317,11.84s10.145,17.949,7.8,25.753-16.388,20.29-21.07,13.266-8.584-17.949-5.463-24.192S505.891,273.384,503.55,270.263Z" transform="translate(-139.653 -136.125)" fill="#575a89"/>
    <ellipse id="Ellipse_105" data-name="Ellipse 105" cx="8.974" cy="18.729" rx="8.974" ry="18.729" transform="translate(338.057 71.888) rotate(-64.899)" fill="#2f2e41"/>
    <circle id="Ellipse_106" data-name="Ellipse 106" cx="10.925" cy="10.925" r="10.925" transform="translate(361.946 44.783)" fill="#2f2e41"/>
    <path id="Path_455" data-name="Path 455" d="M503.239,162.384a10.925,10.925,0,0,1,9.753-10.861,10.925,10.925,0,1,0,0,21.721,10.925,10.925,0,0,1-9.755-10.861Z" transform="translate(-140.513 -110.578)" fill="#2f2e41"/>
    <rect id="Rectangle_437" data-name="Rectangle 437" width="273.134" height="189.633" transform="translate(50.573 217.248)" fill="#3f3d56"/>
    <rect id="Rectangle_438" data-name="Rectangle 438" width="35.898" height="35.898" transform="translate(72.424 235.977)" fill="#f2f2f2"/>
    <rect id="Rectangle_439" data-name="Rectangle 439" width="35.898" height="35.898" transform="translate(72.424 294.506)" fill="#eb7a6d"/>
    <rect id="Rectangle_440" data-name="Rectangle 440" width="35.898" height="35.898" transform="translate(72.424 353.034)" fill="#f2f2f2"/>
    <rect id="Rectangle_441" data-name="Rectangle 441" width="170.904" height="3.122" transform="translate(125.49 247.293)" fill="#f2f2f2"/>
    <rect id="Rectangle_442" data-name="Rectangle 442" width="53.066" height="3.122" transform="translate(125.49 257.438)" fill="#f2f2f2"/>
    <rect id="Rectangle_443" data-name="Rectangle 443" width="170.904" height="3.122" transform="translate(125.49 305.821)" fill="#f2f2f2"/>
    <rect id="Rectangle_444" data-name="Rectangle 444" width="53.066" height="3.122" transform="translate(125.49 315.966)" fill="#f2f2f2"/>
    <rect id="Rectangle_445" data-name="Rectangle 445" width="170.904" height="3.122" transform="translate(125.49 364.35)" fill="#f2f2f2"/>
    <rect id="Rectangle_446" data-name="Rectangle 446" width="53.066" height="3.122" transform="translate(125.49 374.495)" fill="#f2f2f2"/>
    <path id="Path_456" data-name="Path 456" d="M1017.031,759.234c0,15.886-9.443,21.432-21.092,21.432-.27,0-.54,0-.808-.01-.54-.012-1.076-.037-1.6-.074-10.514-.743-18.681-6.575-18.681-21.349,0-15.286,19.533-34.577,21.005-36.007l0,0c.056-.056.085-.083.085-.083S1017.031,743.351,1017.031,759.234Z" transform="translate(-244.604 -236.129)" fill="#eb7a6d"/>
    <path id="Path_457" data-name="Path 457" d="M998.5,778.236l7.715-10.778-7.734,11.962-.019,1.237c-.54-.012-1.076-.037-1.6-.074l.831-15.891-.006-.124.014-.021.08-1.5-7.754-11.991,7.777,10.865.019.318.627-12.007-6.637-12.391,6.719,10.285.654-24.9,0-.085v.083l-.109,19.631,6.608-7.783-6.635,9.474-.175,10.751,6.171-10.318-6.2,11.9-.1,5.977,8.955-14.362-8.99,16.447Z" transform="translate(-247.938 -236.129)" fill="#3f3d56"/>
    <path id="Path_458" data-name="Path 458" d="M140.031,620.234c0,15.886-9.443,21.432-21.092,21.432-.27,0-.54,0-.808-.01-.54-.012-1.075-.037-1.6-.074-10.514-.743-18.681-6.575-18.681-21.349,0-15.286,19.533-34.577,21-36.007l0,0c.056-.056.085-.083.085-.083S140.031,604.351,140.031,620.234Z" transform="translate(-51.999 -205.602)" fill="#eb7a6d"/>
    <path id="Path_459" data-name="Path 459" d="M121.5,639.236l7.715-10.778-7.734,11.962-.019,1.237c-.54-.012-1.075-.037-1.6-.074l.831-15.892-.006-.124.014-.021.08-1.5-7.754-11.991,7.777,10.865.019.318.627-12.007-6.637-12.391,6.719,10.285.654-24.9,0-.085v.083l-.109,19.63,6.608-7.783-6.635,9.474-.175,10.751,6.171-10.318-6.2,11.9-.1,5.977L130.71,609.5l-8.99,16.447Z" transform="translate(-55.333 -205.602)" fill="#3f3d56"/>
  </g>
</svg>
