<?xml version="1.0" encoding="utf-8"?>
<!-- Generator: Adobe Illustrator 23.0.6, SVG Export Plug-In . SVG Version: 6.00 Build 0)  -->
<svg version="1.1" id="svg--project" xmlns="http://www.w3.org/2000/svg" xmlns:xlink="http://www.w3.org/1999/xlink" x="0px"
	 y="0px" viewBox="0 0 875.4 535.4" style="enable-background:new 0 0 875.4 535.4;" xml:space="preserve">
<style type="text/css">
	.st0{fill:#F2F2F2;}
	.st1{fill:#3F3D56;}
	.st2{opacity:0.1;enable-background:new    ;}
	.st3{fill:#EB7A6D;}
	.st4{opacity:0.5;fill:#EB7A6D;enable-background:new    ;}
	.st5{opacity:0.2;fill:#EB7A6D;enable-background:new    ;}
	.st6{fill:#2F2E41;}
	.st7{opacity:0.5;fill:#2F2E41;enable-background:new    ;}
	.st8{opacity:0.2;fill:#2F2E41;enable-background:new    ;}
	.st9{fill:#FF6584;}
	.st10{opacity:0.5;fill:#FF6584;enable-background:new    ;}
	.st11{opacity:0.2;fill:#FF6584;enable-background:new    ;}
	.st12{opacity:0.5;fill:#3F3D56;enable-background:new    ;}
	.st13{fill:#FFB9B9;}
	.st14{fill:#575A89;}
	.st15{fill:#A0616A;}
</style>
<circle id="svg--project--bgcircle--two" class="st0" cx="665.5" cy="277" r="198.2"/>
<circle id="svg--project--bgcircle--one" class="st0" cx="243.3" cy="198.2" r="198.2"/>
<ellipse id="svg--project_x5F__x5F_shadow--circle_6_" class="st1" cx="234" cy="395.7" rx="217.7" ry="11.7"/>
<ellipse id="svg--project_x5F__x5F_shadow--circle_5_" class="st2" cx="190.3" cy="396.1" rx="163.1" ry="8.1"/>
<ellipse id="svg--project_x5F__x5F_shadow--circle_4_" class="st1" cx="657.7" cy="477.2" rx="217.7" ry="12.9"/>
<ellipse id="svg--project_x5F__x5F_shadow--circle_3_" class="st2" cx="614" cy="477.6" rx="163.1" ry="8.9"/>
<ellipse id="svg--project_x5F__x5F_shadow--circle_2_" class="st1" cx="312.9" cy="447.2" rx="138.9" ry="7"/>
<ellipse id="svg--project_x5F__x5F_shadow--circle_1_" class="st1" cx="67" cy="423.7" rx="67" ry="3.4"/>
<ellipse id="svg--project_x5F__x5F_shadow--circle" class="st1" cx="743.6" cy="529.1" rx="124.8" ry="6.3"/>
<g id="svg--project--palette">
	<rect id="svg--project--palette_x5F__x5F_bg" x="480.6" y="327.8" class="st1" width="249.7" height="148.3"/>
	<rect id="svg--project--palette_x5F__x5F_color_2_" x="634.3" y="351.2" class="st3" width="18.7" height="18.7"/>
	<rect id="svg--project--palette_x5F__x5F_color_3_" x="657.7" y="351.2" class="st4" width="18.7" height="18.7"/>
	<rect id="svg--project--palette_x5F__x5F_color_4_" x="681.1" y="351.2" class="st5" width="18.7" height="18.7"/>
	<rect id="svg--project--palette_x5F__x5F_color_5_" x="634.3" y="374.6" class="st6" width="18.7" height="18.7"/>
	<rect id="svg--project--palette_x5F__x5F_color_6_" x="657.7" y="374.6" class="st7" width="18.7" height="18.7"/>
	<rect id="svg--project--palette_x5F__x5F_color_7_" x="681.1" y="374.6" class="st8" width="18.7" height="18.7"/>
	<rect id="svg--project--palette_x5F__x5F_color_8_" x="634.3" y="398" class="st9" width="18.7" height="18.7"/>
	<rect id="svg--project--palette_x5F__x5F_color_1_" x="657.7" y="398" class="st10" width="18.7" height="18.7"/>
	<rect id="svg--project--palette_x5F__x5F_color" x="681.1" y="398" class="st11" width="18.7" height="18.7"/>
	<g id="svg--project--palette--main">
		<circle id="Ellipse_101" class="st3" cx="560.9" cy="403.5" r="56.2"/>
		<path id="Path_423" class="st12" d="M560.9,347.3v112.4c31,0,57.7-25.2,57.7-56.2S592,347.3,560.9,347.3z"/>
	</g>
</g>
<g id="svg--project--man">
	<path id="Path_424" class="st13" d="M783.7,338.3c0,0,32.8,14.8,21.1,32s-46.8,49.9-47.6,57s-5.5,13.3-5.5,13.3s-15.6-16.4-14-18
		s17.2-16.4,17.9-20.3s24.2-34.3,24.2-34.3l-21.1-18.7L783.7,338.3z"/>
	<path id="Path_425" class="st2" d="M783.7,338.3c0,0,32.8,14.8,21.1,32s-46.8,49.9-47.6,57s-5.5,13.3-5.5,13.3s-15.6-16.4-14-18
		s17.2-16.4,17.9-20.3s24.2-34.3,24.2-34.3l-21.1-18.7L783.7,338.3z"/>
	<path id="Path_426" class="st13" d="M742.4,371.1c0,0,22.6,9.4,21.1,24.2s27.3,57,27.3,57s3.1,10.1,2.3,13.3s20.3,2.3,20.3,2.3v-7
		c0,0-16.4-28.1-17.9-35.9s-10.9-38.2-10.9-38.2s-3.1-27.3-18.7-27.3C756.6,359.4,747.9,363.7,742.4,371.1z"/>
	<path id="Path_427" class="st6" d="M743.6,300.4c0,0,46.8,38.2,45.3,41.4s-24.2,14.8-28.1,15.6s-31.5-57-31.5-57H743.6z"/>
	<path id="Path_428" class="st2" d="M743.6,300.4c0,0,46.8,38.2,45.3,41.4s-24.2,14.8-28.1,15.6s-31.5-57-31.5-57H743.6z"/>
	<path id="Path_429" class="st6" d="M692.8,308.3c0,0-4.7,21.1,7.8,29.7s33.6,42.1,35.9,42.1s35.9-17.9,34.3-21.1
		s-18.7-30.4-18.7-30.4l-5.5-28.9C746.7,299.7,699.1,298.1,692.8,308.3z"/>
	<path id="Path_430" class="st13" d="M743.6,239.6l7,45.3l12.5,32c0,0,18.7,19.5,7.8,21.1c-10.9,1.6-17.2-21.1-17.2-21.1l-10.1-18.7
		V239.6z"/>
	<path id="Path_431" class="st2" d="M743.6,239.6l7,45.3l12.5,32c0,0,18.7,19.5,7.8,21.1c-10.9,1.6-17.2-21.1-17.2-21.1l-10.1-18.7
		V239.6z"/>
	<path id="Path_432" class="st13" d="M717.4,189.2c0,0,0,16.4-5.5,17.9s21.9,22.6,21.9,22.6s-3.1-27.3,7.8-34.3L717.4,189.2z"/>
	<path id="Path_433" class="st2" d="M717.4,189.2c0,0,0,16.4-5.5,17.9s21.9,22.6,21.9,22.6s-3.1-27.3,7.8-34.3L717.4,189.2z"/>
	<circle id="Ellipse_102" class="st13" cx="729.9" cy="184.6" r="17.9"/>
	<path id="Path_434" class="st3" d="M730.7,222c0,0-16.4-20.3-18.7-19.5c-2.3,0.8-19.5,17.9-21.1,23.4c-1.6,5.5-4.7,44.5-2.3,52.3
		c2.3,7.8,2.3,28.1,1.6,29.7s-5.5,5.5-0.8,5.5s21.1-11.7,32-9.4c10.9,2.3,25.8-0.8,26.5-2.3s-0.8-42.1,0-45.3s-1.6-18.7-2.3-21.9
		s-0.8-15.6-8.6-18.7l-3.3-0.3l-0.2,7.7L730.7,222z"/>
	<path id="Path_435" class="st13" d="M696.3,262.6c0,0,1.6,24.2,13.3,34.3s36.7,27.3,38.2,30.4s16.4,19.5,19.5,12.5
		c0.9-2.2,1.1-4.6,0.6-6.9c-0.9-4.7-3.7-8.7-7.7-11.2l-6.9-4.5L719,281.3l-1.6-18.7L696.3,262.6z"/>
	<path id="Path_436" class="st6" d="M741.2,419.8c0,0-9-2-12.1,3.5s3.1,20.3,3.1,20.3s17.9,37.5,21.1,32.8s-2.3-21.9-2.3-21.9
		s7.8-17.2,4.7-17.9S741.2,429.2,741.2,419.8z"/>
	<path id="Path_437" class="st6" d="M796.2,464.7c0,0-4.7-2.3-5.5,0s-5.5,14,0,15.6s59.3,3.1,57.7,0s-10.1-7-15.6-8.6
		s-19.5-13.3-19.5-13.3S805.6,468.6,796.2,464.7z"/>
	<path id="Path_438" class="st6" d="M748,170.3c-0.3-1.1-1.1-2.1-2.1-2.7c0.1-1.2-0.1-2.4-0.4-3.6c-1.1-3.4-3.9-3.2-6.4-4.7
		c-1.1-0.6-1-1.2-1.6-2.3c-0.8-1.4-1.9-2.6-3.3-3.3c-1.6-1.2-3.4-2-5.3-2.3c-4.1-0.3-7.2,3.6-11.1,4.8c-1.7,0.5-3.6,0.6-5.3,1.1
		s-3.5,1.7-3.7,3.5c-0.1,0.8,0.1,1.7,0,2.5c-0.2,1.6-1.7,2.8-2.6,4.1c-2.1,3-1.9,7.2-0.2,10.4c0.4,0.7,0.8,1.3,1.2,1.9
		c0.1,1.5,0.6,3,1.3,4.4c1.7,3.2,4.6,5.7,7.7,7.7c-0.3-1.1-0.4-2.2-0.5-3.3c0-0.4,0-0.7,0.1-1.1c0.3-0.7,1.2-0.9,1.9-1.3
		c1.4-0.8,2-2.6,2-4.2s-0.3-3.3-0.1-4.9c0-0.8,0.3-1.5,0.9-2c0.5-0.3,1.1-0.4,1.7-0.4c2.9-0.1,6-0.2,8.5-1.6c0.8-0.6,1.7-1,2.7-1.3
		c2.2-0.6,4.4,1,5.7,2.8s1.9,4.1,3,6s3.2,3.7,5.4,3.4c0.3,0,0.5-0.1,0.7-0.3c0.1-0.2,0.1-0.4,0.1-0.6l0.1-8.6
		C748.5,173.2,748.4,171.7,748,170.3L748,170.3z"/>
	<path id="Path_439" class="st3" d="M703.4,222.8c0,0,17.2,7.8,16.4,24.2s4.7,17.9-8.6,19.5s-16.4,0-17.2,1.6s-5.5-35.9-2.3-39.8
		S703.4,222.8,703.4,222.8z"/>
</g>
<g id="svg--project--woman">
	<circle id="Ellipse_103" class="st6" cx="358" cy="65.6" r="25"/>
	<path id="Path_440" class="st6" d="M374.8,339.1l-14,38.2c0,0-11.7,9.4-4.7,12.5s21.1-3.1,21.1-3.1l10.9-28.1l-1.6-19.5
		L374.8,339.1z"/>
	<path id="Path_441" class="st2" d="M374.8,339.1l-14,38.2c0,0-11.7,9.4-4.7,12.5s21.1-3.1,21.1-3.1l10.9-28.1l-1.6-19.5
		L374.8,339.1z"/>
	<path id="Path_442" class="st14" d="M376,112.4l11.7,1.6c0,0,5.5,42.9,3.1,46s-14,15.6-18.7,12.5S376,112.4,376,112.4z"/>
	<path id="Path_443" class="st15" d="M264,190.8c0,0-16.4,7-19.5,7.8s-7.8,8.6-2.3,10.1s26.5-14,26.5-14L264,190.8z"/>
	<path id="Path_444" class="st6" d="M380.3,354.7l8.6,32c0,0,0.8,11.7,4.7,12.5s15.6-3.9,15.6-5.5s-4.7-14-4.7-14s0-9.4-4.7-13.3
		s-8.9-17-8.9-17L380.3,354.7z"/>
	<path id="Path_445" class="st6" d="M391.2,281.3c1.6,3.7,1.4,30.3-0.3,48.1c-0.8,8.6-2,15.1-3.6,15.9l-11.2-2.8l-4.4-1.1l-0.1-9.7
		l-0.7-53.5l-13.3-55.4v-14l33.6,3.1l5.3,8.4l0.1,0.2C396.7,220.5,388.9,275.9,391.2,281.3z"/>
	<path id="Path_446" class="st2" d="M384.2,298.5c1.7,2.5,4.5,17.5,6.7,30.9c-0.8,8.6-2,15.1-3.6,15.9l-11.2-2.8
		c-0.2-0.4-0.3-0.7-0.5-1.1c-1.4-3-2.8-6.3-4-9.7l-0.7-53.5l-13.3-55.4v-14l33.6,3.1l5.3,8.4l-31.1-2.1l7,30.4l8.6,32
		C381.1,280.6,381.1,293.8,384.2,298.5z"/>
	<path id="Path_447" class="st6" d="M328.8,177.5c0,0-10.9,24.2,4.7,57.7c9.7,20.9,18.3,42.2,25.8,64c0,0,5.5,25.8,13.3,42.1
		c7.8,16.4,6.2,17.2,6.2,17.2l12.5-7c0,0-7-48.4-10.1-53.1s-3.1-17.9-3.1-17.9l-8.6-32l-7-30.4l34.3,2.3c0,0,0-44.5-15.6-53.1
		L328.8,177.5z"/>
	<path id="Path_448" class="st15" d="M341.7,77.3c0,0,0,12.5-3.9,13.3s-11.7,0.8-14,4.7s17.9,55.4,17.9,55.4l21.1-13.3l7-35.1
		c0,0-10.1-6.2-10.1-9.4v-14L341.7,77.3z"/>
	<path id="Path_449" class="st2" d="M341.7,77.3c0,0,0,12.5-3.9,13.3s-11.7,0.8-14,4.7s17.9,55.4,17.9,55.4l21.1-13.3l7-35.1
		c0,0-10.1-6.2-10.1-9.4v-14L341.7,77.3z"/>
	<circle id="Ellipse_104" class="st15" cx="353.8" cy="72.2" r="18.7"/>
	<path id="Path_450" class="st14" d="M344,135c0,0-7-44.5-8.6-44.5s-23.4,4.7-25,5.5s-7,7.8-7,7.8l10.9,31.2c0,0,4.7,21.9,7.8,25.8
		s9.4,14.8,6.2,16.4s-6.2,3.9-3.1,3.9s28.9-4.7,30.4-2.3s27.3-8.6,27.3-9.4s-3.1-37.5-3.1-37.5l7.8-17.9l-23.4-16.4L344,135z"/>
	<path id="Path_451" class="st14" d="M311.2,99.9l-7.8,3.9c0,0-21.9,49.9-23.4,50.7s-9.4,15.6-10.1,18.7s-2.3,13.3-4.7,14.8
		c-1.3,0.9-2.6,1.6-3.9,2.3c0,0,4.7,7.8,7,7.8s10.1-10.9,10.1-10.9s17.2,10.9,21.9,2.3s16.4-63.2,16.4-63.2L311.2,99.9z"/>
	<path id="Path_452" class="st15" d="M372.5,123.7c0,0-10.9-26.5-17.2-23.4s4.7,21.9,11.7,25L372.5,123.7z"/>
	<path id="Path_453" class="st2" d="M361.6,124.5l10.9-2.5l2.3,11.8c0,0,10.1,17.9,7.8,25.8s-16.4,20.3-21.1,13.3
		s-8.6-17.9-5.5-24.2S363.9,127.6,361.6,124.5z"/>
	<path id="Path_454" class="st14" d="M363.9,122.9l10.9-2.5l2.3,11.8c0,0,10.1,17.9,7.8,25.8s-16.4,20.3-21.1,13.3
		s-8.6-17.9-5.5-24.2S366.2,126,363.9,122.9z"/>
	
		<ellipse id="Ellipse_105" transform="matrix(0.4242 -0.9056 0.9056 0.4242 151.8375 359.7606)" class="st6" cx="358.8" cy="60.5" rx="9" ry="18.7"/>
	<circle id="Ellipse_106" class="st6" cx="372.9" cy="44.5" r="10.9"/>
	<path id="Path_455" class="st6" d="M362.7,40.6c0-5.6,4.2-10.3,9.8-10.9c-6-0.7-11.4,3.7-12,9.7s3.7,11.4,9.7,12
		c0.8,0.1,1.6,0.1,2.4,0C366.9,50.8,362.7,46.2,362.7,40.6L362.7,40.6z"/>
</g>
<g id="svg--project--chat">
	<rect id="svg--project--chat--bg" x="50.6" y="206" class="st1" width="273.1" height="189.6"/>
	<g id="svg--project--chat--one">
		<rect id="svg--project--chat--one_x5F__x5F_avatar" x="72.4" y="224.8" class="st0" width="35.9" height="35.9"/>
		<rect id="svg--project--chat--one_x5F__x5F_line--one" x="125.5" y="236.1" class="st0" width="170.9" height="3.1"/>
		<rect id="svg--project--chat--one_x5F__x5F_line--two" x="125.5" y="246.2" class="st0" width="53.1" height="3.1"/>
	</g>
	<g id="svg--project--chat--two">
		<rect id="svg--project--chat--two_x5F__x5F_avatar" x="72.4" y="283.3" class="st3" width="35.9" height="35.9"/>
		<rect id="svg--project--chat--two_x5F__x5F_line--one" x="125.5" y="294.6" class="st0" width="170.9" height="3.1"/>
		<rect id="svg--project--chat--two_x5F__x5F_line--two" x="125.5" y="304.7" class="st0" width="53.1" height="3.1"/>
	</g>
	<g id="svg--project--chat--three">
		<rect id="svg--project--chat--three_x5F__x5F_avatar" x="72.4" y="341.8" class="st0" width="35.9" height="35.9"/>
		<rect id="svg--project--chat--three_x5F__x5F_line--one" x="125.5" y="353.1" class="st0" width="170.9" height="3.1"/>
		<rect id="svg--project--chat--three_x5F__x5F_line--two" x="125.5" y="363.3" class="st0" width="53.1" height="3.1"/>
	</g>
</g>
<g id="svg--project_x5F__x5F_tree--two">
	<path id="Path_456" class="st3" d="M772.4,511.9c0,15.9-9.4,21.4-21.1,21.4c-0.3,0-0.5,0-0.8,0c-0.5,0-1.1,0-1.6-0.1
		c-10.5-0.7-18.7-6.6-18.7-21.3c0-15.3,19.5-34.6,21-36l0,0c0.1-0.1,0.1-0.1,0.1-0.1S772.4,496,772.4,511.9z"/>
	<path id="Path_457" class="st1" d="M750.6,530.9l7.7-10.8l-7.7,12l0,1.2c-0.5,0-1.1,0-1.6-0.1l0.8-15.9l0-0.1l0,0l0.1-1.5l-7.8-12
		l7.8,10.9l0,0.3l0.6-12l-6.6-12.4l6.7,10.3l0.7-24.9v-0.1v0.1l-0.1,19.6l6.6-7.8l-6.6,9.5l-0.2,10.8l6.2-10.3l-6.2,11.9l-0.1,6
		l9-14.4l-9,16.4L750.6,530.9z"/>
</g>
<g id="svg--project_x5F__x5F_tree--one">
	<path id="Path_458" class="st3" d="M88,403.4c0,15.9-9.4,21.4-21.1,21.4c-0.3,0-0.5,0-0.8,0c-0.5,0-1.1,0-1.6-0.1
		c-10.5-0.7-18.7-6.6-18.7-21.3c0-15.3,19.5-34.6,21-36l0,0c0.1-0.1,0.1-0.1,0.1-0.1S88,387.5,88,403.4z"/>
	<path id="Path_459" class="st1" d="M66.2,422.4l7.7-10.8l-7.7,12l0,1.2c-0.5,0-1.1,0-1.6-0.1l0.8-15.9l0-0.1l0,0l0.1-1.5l-7.8-12
		l7.8,10.9l0,0.3l0.6-12L59.5,382l6.7,10.3l0.7-24.9v-0.1v0.1L66.7,387l6.6-7.8l-6.6,9.5l-0.2,10.8l6.2-10.3L66.5,401l-0.1,6l9-14.4
		l-9,16.4L66.2,422.4z"/>
</g>
</svg>
