<svg xmlns="http://www.w3.org/2000/svg" width="708.215" height="627.531" viewBox="0 0 708.215 627.531">
  <g id="Group_22" data-name="Group 22" transform="translate(0 -0.006)">
    <path id="Path_173" data-name="Path 173" d="M463.037,352.587c-27.679-8.958-56.945-16.468-86.854-15.694-43.971,1.142-86.249,21.633-107.1,51.918-17.625,25.664-19.978,55.826-27.672,84.364-9.479,35.159-27.472,68.524-46.676,101.154-10.315,17.526-21.2,35.419-22.99,54.677-2.46,26.737,13.74,53.466,39.281,71.382s59.527,27.465,93.675,29.695c18.169,1.18,37.159.268,53.336-6.276,17.112-6.9,29.626-19.518,46.807-26.338,15.924-6.314,34.484-7.127,52.347-6.2a291.249,291.249,0,0,1,68.248,11.694c24.9,7.449,48.033,18.169,72.877,25.725s52.615,11.832,78.072,5.755c23.9-5.7,42.86-19.756,59.957-33.994a651.886,651.886,0,0,0,76.593-75.1c15.441-17.924,29.825-36.852,36.722-57.8,13.173-40.048-4.475-85.391-43.964-112.97-32.714-22.859-76.724-32.952-119.821-39.082-39.3-5.648-84.778-6.207-120.9-20.591C530.519,381.156,499.177,364.281,463.037,352.587Z" transform="translate(-145.759 -109.794)" fill="#304343" opacity="0.1"/>
    <ellipse id="Ellipse_29" data-name="Ellipse 29" cx="17.71" cy="2.429" rx="17.71" ry="2.429" transform="translate(652.396 374.409)" fill="#304343" opacity="0.1"/>
    <ellipse id="Ellipse_30" data-name="Ellipse 30" cx="17.71" cy="2.429" rx="17.71" ry="2.429" transform="translate(584.554 381.29)" fill="#304343" opacity="0.1"/>
    <ellipse id="Ellipse_31" data-name="Ellipse 31" cx="17.71" cy="2.429" rx="17.71" ry="2.429" transform="translate(504.643 371.979)" fill="#304343" opacity="0.1"/>
    <ellipse id="Ellipse_32" data-name="Ellipse 32" cx="12.591" cy="1.732" rx="12.591" ry="1.732" transform="translate(616.824 401.574)" fill="#304343" opacity="0.1"/>
    <ellipse id="Ellipse_33" data-name="Ellipse 33" cx="12.591" cy="1.732" rx="12.591" ry="1.732" transform="translate(546.414 399.843)" fill="#304343" opacity="0.1"/>
    <path id="Path_174" data-name="Path 174" d="M900.335,499.564s24.844-81.429-3.885-114.043c-21.457-24.4-45.887-21.457-56.807-18.461a20.17,20.17,0,0,0-13.027,10.828c-3.832,8.238-3.126,21.61,23.833,37.22,45.144,26.139,47.956,62,47.956,62Z" transform="translate(-298.455 -116.396)" fill="#304343"/>
    <path id="Path_175" data-name="Path 175" d="M849.2,382.73s73.229,22.9,56.807,120.955" transform="translate(-304.127 -120.518)" fill="none" stroke="#565987" stroke-miterlimit="10" stroke-width="1"/>
    <path id="Path_176" data-name="Path 176" d="M902.707,393.44s-10.085,6.8-6.9,17" transform="translate(-314.873 -123.021)" fill="none" stroke="#565987" stroke-miterlimit="10" stroke-width="1"/>
    <path id="Path_177" data-name="Path 177" d="M858.79,400.155s6.13-6.268,13.663-2.812" transform="translate(-306.368 -123.69)" fill="none" stroke="#565987" stroke-miterlimit="10" stroke-width="1"/>
    <path id="Path_178" data-name="Path 178" d="M896.56,441.848s10.82-5.487,13.617,1.387" transform="translate(-315.194 -133.848)" fill="none" stroke="#565987" stroke-miterlimit="10" stroke-width="1"/>
    <path id="Path_179" data-name="Path 179" d="M928.986,457.408s-8.131-.644-8.276,3.242" transform="translate(-320.837 -137.96)" fill="none" stroke="#565987" stroke-miterlimit="10" stroke-width="1"/>
    <path id="Path_180" data-name="Path 180" d="M911.255,523.761s-29.12-59.183-37.082-57.888c-3.832.613-5.548,4.353-6.337,8.1a23.818,23.818,0,0,0,1.586,14.407C873.553,497.852,884.641,515.837,911.255,523.761Z" transform="translate(-308.371 -139.942)" fill="#304343"/>
    <path id="Path_181" data-name="Path 181" d="M876.53,480.54s30.538,44.278,36.438,46.224" transform="translate(-310.513 -143.374)" fill="none" stroke="#565987" stroke-miterlimit="10" stroke-width="1"/>
    <line id="Line_58" data-name="Line 58" x2="7.127" transform="translate(563.212 344.078)" fill="none" stroke="#565987" stroke-miterlimit="10" stroke-width="1"/>
    <line id="Line_59" data-name="Line 59" x2="11.173" y2="0.475" transform="translate(571.749 360.278)" fill="none" stroke="#565987" stroke-miterlimit="10" stroke-width="1"/>
    <line id="Line_60" data-name="Line 60" x1="1.211" y2="5.816" transform="translate(577.335 347.319)" fill="none" stroke="#565987" stroke-miterlimit="10" stroke-width="1"/>
    <line id="Line_61" data-name="Line 61" x1="0.215" y2="5.288" transform="translate(590.21 365.029)" fill="none" stroke="#565987" stroke-miterlimit="10" stroke-width="1"/>
    <path id="Path_182" data-name="Path 182" d="M923.52,523.761s29.12-59.183,37.082-57.888c3.832.613,5.548,4.353,6.338,8.1a23.818,23.818,0,0,1-1.586,14.407C961.223,497.852,950.134,515.837,923.52,523.761Z" transform="translate(-321.494 -139.942)" fill="#304343"/>
    <path id="Path_183" data-name="Path 183" d="M960.518,480.54s-30.538,44.278-36.438,46.224" transform="translate(-321.625 -143.374)" fill="none" stroke="#565987" stroke-miterlimit="10" stroke-width="1"/>
    <line id="Line_62" data-name="Line 62" x1="7.127" transform="translate(634.572 344.078)" fill="none" stroke="#565987" stroke-miterlimit="10" stroke-width="1"/>
    <line id="Line_63" data-name="Line 63" x1="11.173" y2="0.475" transform="translate(621.989 360.278)" fill="none" stroke="#565987" stroke-miterlimit="10" stroke-width="1"/>
    <line id="Line_64" data-name="Line 64" x2="1.211" y2="5.816" transform="translate(626.364 347.319)" fill="none" stroke="#565987" stroke-miterlimit="10" stroke-width="1"/>
    <line id="Line_65" data-name="Line 65" x2="0.222" y2="5.288" transform="translate(614.479 365.029)" fill="none" stroke="#565987" stroke-miterlimit="10" stroke-width="1"/>
    <path id="Path_184" data-name="Path 184" d="M857.8,557.019a5.089,5.089,0,0,1-1.655-2.5,2.23,2.23,0,0,1,1.157-2.552c1.065-.406,2.2.329,3.065,1.08s1.847,1.586,2.973,1.433a4.529,4.529,0,0,1-1.395-4.238,1.777,1.777,0,0,1,.383-.866c.59-.628,1.663-.353,2.368.138,2.245,1.586,2.874,4.636,2.889,7.38a14.319,14.319,0,0,0,0-3.065,3.119,3.119,0,0,1,1.142-2.69,3.379,3.379,0,0,1,1.74-.414,3.617,3.617,0,0,1,2.828.8,2.825,2.825,0,0,1-.115,3.471,11.018,11.018,0,0,1-2.92,2.3,6.423,6.423,0,0,0-2.092,1.992,2.457,2.457,0,0,0-.153.352h-6.33A17.453,17.453,0,0,1,857.8,557.019Z" transform="translate(-305.734 -159.376)" fill="#304343"/>
    <path id="Path_185" data-name="Path 185" d="M1002.474,525.911a5.019,5.019,0,0,1-1.655-2.5,2.222,2.222,0,0,1,1.157-2.544c1.065-.406,2.2.33,3.065,1.073s1.854,1.594,2.981,1.433a4.514,4.514,0,0,1-1.4-4.238,1.694,1.694,0,0,1,.391-.858c.59-.628,1.655-.36,2.36.138,2.245,1.579,2.874,4.6,2.889,7.38a13.911,13.911,0,0,0,0-3.065,3.119,3.119,0,0,1,1.142-2.69,3.486,3.486,0,0,1,1.74-.406,3.586,3.586,0,0,1,2.828.766,2.793,2.793,0,0,1-.115,3.464,10.9,10.9,0,0,1-2.92,2.345,6.422,6.422,0,0,0-2.092,1.992,1.867,1.867,0,0,0-.153.352h-6.33A17.656,17.656,0,0,1,1002.474,525.911Z" transform="translate(-339.541 -152.108)" fill="#304343"/>
    <path id="Path_186" data-name="Path 186" d="M954.254,557.019a5.089,5.089,0,0,1-1.655-2.5,2.23,2.23,0,0,1,1.157-2.552c1.065-.406,2.2.329,3.065,1.081s1.847,1.586,2.973,1.433a4.537,4.537,0,0,1-1.4-4.238,1.864,1.864,0,0,1,.391-.866c.59-.628,1.663-.352,2.368.138,2.245,1.586,2.874,4.636,2.889,7.38a14.335,14.335,0,0,0,.038-3.065,3.119,3.119,0,0,1,1.142-2.69,3.379,3.379,0,0,1,1.74-.414,3.617,3.617,0,0,1,2.828.8,2.825,2.825,0,0,1-.115,3.471,11.021,11.021,0,0,1-2.92,2.3,6.422,6.422,0,0,0-2.092,1.992,2.424,2.424,0,0,0-.153.352h-6.33A17.455,17.455,0,0,1,954.254,557.019Z" transform="translate(-328.272 -159.376)" fill="#304343"/>
    <path id="Path_187" data-name="Path 187" d="M816.425,496.58s-2.376,3.1,1.1,7.786,6.322,8.644,5.173,11.564c0,0-5.234-8.7-9.495-8.82S811.735,501.814,816.425,496.58Z" transform="translate(-295.223 -147.123)" fill="#304343"/>
    <path id="Path_188" data-name="Path 188" d="M816.425,496.58a3.744,3.744,0,0,0-.49.973c-4.153,4.881-6.368,9.441-2.375,9.556,3.724.107,8.192,6.759,9.257,8.429a1.178,1.178,0,0,1-.122.383s-5.234-8.7-9.495-8.82S811.735,501.814,816.425,496.58Z" transform="translate(-295.223 -147.123)" opacity="0.1"/>
    <path id="Path_189" data-name="Path 189" d="M812.29,501.527c0,1.1.123,1.977.276,1.977s.268-.881.268-1.977-.153-.575-.3-.575S812.29,500.439,812.29,501.527Z" transform="translate(-295.501 -148.116)" fill="#ffd037"/>
    <path id="Path_190" data-name="Path 190" d="M810.132,503.214c.958.529,1.8.843,1.87.713s-.644-.667-1.6-1.188-.582-.146-.659,0S809.174,502.693,810.132,503.214Z" transform="translate(-294.861 -148.499)" fill="#ffd037"/>
    <path id="Path_191" data-name="Path 191" d="M832.411,496.58s2.376,3.1-1.1,7.786-6.322,8.644-5.165,11.564c0,0,5.226-8.7,9.487-8.82S837.1,501.814,832.411,496.58Z" transform="translate(-298.679 -147.123)" fill="#304343"/>
    <path id="Path_192" data-name="Path 192" d="M832.451,496.58a3.748,3.748,0,0,1,.49.973c4.153,4.881,6.368,9.441,2.376,9.556-3.724.107-8.192,6.759-9.257,8.429a3.215,3.215,0,0,0,.13.383s5.226-8.7,9.487-8.82S837.141,501.814,832.451,496.58Z" transform="translate(-298.719 -147.123)" opacity="0.1"/>
    <path id="Path_193" data-name="Path 193" d="M839.994,501.527c0,1.1-.123,1.977-.276,1.977s-.268-.881-.268-1.977.153-.575.3-.575S839.994,500.439,839.994,501.527Z" transform="translate(-301.848 -148.116)" fill="#ffd037"/>
    <path id="Path_194" data-name="Path 194" d="M841.568,503.214c-.958.529-1.8.843-1.87.713s.644-.667,1.6-1.188.582-.146.659,0S842.526,502.693,841.568,503.214Z" transform="translate(-301.905 -148.499)" fill="#ffd037"/>
    <path id="Path_195" data-name="Path 195" d="M831.635,520.207s-6.629-.2-8.629-1.625-10.207-3.127-10.728-.843-9.962,11.357-2.483,11.418,17.411-1.165,19.4-2.383S831.635,520.207,831.635,520.207Z" transform="translate(-294.248 -151.807)" fill="#a8a8a8"/>
    <path id="Path_196" data-name="Path 196" d="M809.686,529.451c7.487.061,17.4-1.165,19.4-2.383,1.533-.919,2.123-4.245,2.3-5.778h.215s-.414,5.364-2.414,6.567-11.909,2.445-19.4,2.383c-2.161,0-2.9-.766-2.866-1.924C807.249,529.015,808.077,529.444,809.686,529.451Z" transform="translate(-294.246 -152.897)" opacity="0.2"/>
    <circle id="Ellipse_34" data-name="Ellipse 34" cx="16.575" cy="16.575" r="16.575" transform="translate(82.272 29.804)" fill="#304343" opacity="0.1"/>
    <circle id="Ellipse_35" data-name="Ellipse 35" cx="16.575" cy="16.575" r="16.575" transform="translate(368.959 3.641)" fill="#304343" opacity="0.1"/>
    <circle id="Ellipse_36" data-name="Ellipse 36" cx="16.575" cy="16.575" r="16.575" transform="translate(631.92 69.123)" fill="#304343" opacity="0.1"/>
    <circle id="Ellipse_37" data-name="Ellipse 37" cx="27.779" cy="27.779" r="27.779" transform="translate(0 170.584)" fill="#304343" opacity="0.1"/>
    <circle id="Ellipse_38" data-name="Ellipse 38" cx="27.779" cy="27.779" r="27.779" transform="translate(26.63 307.754)" fill="#304343" opacity="0.1"/>
    <circle id="Ellipse_39" data-name="Ellipse 39" cx="27.779" cy="27.779" r="27.779" transform="translate(546.897 186.761)" fill="#304343" opacity="0.1"/>
    <path id="Path_197" data-name="Path 197" d="M580.675,387.272c-.981.092-1.977.046-2.95.2a13.434,13.434,0,0,0-4.6,1.847c-6.973,3.969-13.556,9.426-16.445,16.9a2.3,2.3,0,0,0-.215,1.494,2.529,2.529,0,0,0,.812,1.058l2.713,2.468a3.83,3.83,0,0,0,1.2.843,3.931,3.931,0,0,0,2.222-.069c7.456-1.709,15.38-3.678,20.614-9.257,2.483-2.644,4.774-6.284,8.429-6.383a38.73,38.73,0,0,1,4.475.766c1.51.176,3.326-.467,3.686-1.939a4.078,4.078,0,0,0-.245-2.169l-2.253-7.5c-.613-2.054-6.8-2.161-8.859-1.793C586.124,384.284,584.009,386.966,580.675,387.272Z" transform="translate(-235.71 -120.715)" fill="#65617d"/>
    <path id="Path_198" data-name="Path 198" d="M615.32,437.322a63.092,63.092,0,0,1-.322,7.709,22.49,22.49,0,0,1-1.908,5.786,37.989,37.989,0,0,1-5.211,8.207c-1.939,2.3-4.261,4.46-7.134,5.364s-6.406.253-8.2-2.169c-1.464-1.969-1.533-4.6-1.425-7.058.261-6.046,1.211-12.177,3.924-17.587,1.165-2.3,2.644-4.491,3.832-6.813,2.483-4.82,3.9-10.537,8.184-13.863a26.905,26.905,0,0,0,8.506,2.337c1.142.123,4.406.2,4.789,1.663.26.989-1.885,3.755-2.3,4.728a32.269,32.269,0,0,0-2.736,11.694Z" transform="translate(-243.81 -128.503)" fill="#65617d"/>
    <path id="Path_199" data-name="Path 199" d="M582.323,287.575c.92,2.345,2.084,4.644,2.3,7.142.153,1.533,0,3.065,0,4.6a30.033,30.033,0,0,0,1.042,6.207l4.268,17.472a22.382,22.382,0,0,1,.943,7.962c-.222,1.778-.866,3.5-.858,5.288a20.508,20.508,0,0,0,.644,4.008,24.691,24.691,0,0,1-.644,12.184,1.824,1.824,0,0,0-.13.943c.107.5.59.8,1.027,1.042a43.765,43.765,0,0,0,14.79,4.927,144.873,144.873,0,0,0,9.732-34.752c1.088-7.234,1.617-14.56,3.012-21.74a1.778,1.778,0,0,1,.5-1.1c.521-.437,1.31-.161,1.923.13a171.687,171.687,0,0,1,22.537,13.027,28.154,28.154,0,0,0,5.2-23.3,48.271,48.271,0,0,0-3.831-10.023,56.621,56.621,0,0,0-6.514-10.935c-5.686-7.127-14.024-11.679-22.606-14.767-5.219-1.885-10.591-3.28-15.955-4.705-3-.8-8.039-3.425-10.958-1.387-3.065,2.123-5.1,7.387-6.36,10.728a39.526,39.526,0,0,0-2.5,12.943,36.566,36.566,0,0,0,2.437,14.115Z" transform="translate(-241.19 -89.274)" fill="#3f3d56"/>
    <path id="Path_200" data-name="Path 200" d="M648.6,322.24c-1.6,1.747-.253,4.537-.559,6.9a9.526,9.526,0,0,1-1.126,3.027l-7.334,14.4a26.7,26.7,0,0,0-2.728,6.9c-1,5.2,1.057,11.035-1.579,15.625-.851,1.479-2.169,2.751-2.521,4.422a35.408,35.408,0,0,0-.13,3.724,24.815,24.815,0,0,1-1.379,4.146,28.894,28.894,0,0,0-.713,4.077,23.986,23.986,0,0,1-8.613,14.9,13.7,13.7,0,0,1-9.5,3.234c-3.418-.291-6.813-2.613-7.51-5.97-.238-1.142-.192-2.414-.9-3.341-1.012-1.326-3.142-1.379-4.115-2.736l3.77-6.207c1.172-1.923,2.368-3.931,2.56-6.177.23-2.751-1.1-5.495-.621-8.215.406-2.337,2.084-4.284,2.59-6.6.628-2.874-.628-5.778-1.31-8.644-1.671-7.058.2-14.414,2.061-21.457,2.475-9.318,5.012-18.782,10.023-27.02C628.964,312.607,638.16,317.78,648.6,322.24Z" transform="translate(-245.867 -102.873)" fill="#3f3d56"/>
    <path id="Path_201" data-name="Path 201" d="M645.7,134.563c.6,1.625.276,3.425.161,5.15-.268,3.832.544,7.663.36,11.548s-1.379,7.594-2.207,11.372c-2.353,10.782-1.786,22.016-3.916,32.844-2.628,13.411-9.349,25.9-10.675,39.511-.422,4.322-.368,8.951-2.736,12.6a197.825,197.825,0,0,1-39.634-23.281c2.7-20.009,5.364-40.117,5-60.3a25.884,25.884,0,0,1,.506-7.265,22.4,22.4,0,0,1,2.728-5.655c2.966-4.82,6.23-9.449,9.487-14.07,2.084-2.958,4.337-6.062,7.663-7.449s7.265-.766,10.889-.107L636.4,131.85C639.121,132.348,644.531,131.4,645.7,134.563Z" transform="translate(-242.867 -61.163)" fill="#304343"/>
    <path id="Path_202" data-name="Path 202" d="M524.874,228.175a40.9,40.9,0,0,0-5.824-4.835c2.721-3.31,2.184-8.1,2.851-12.338a40.685,40.685,0,0,1,2.475-8.023c.276-.728.667-1.533,1.425-1.724a2.506,2.506,0,0,1,1.364.215c2.3.812,7.1.766,8.882,2.253,2.153,1.809.184,5.594-.628,7.855C534.844,213.094,526.016,229.324,524.874,228.175Z" transform="translate(-226.976 -78.106)" fill="#be6f72"/>
    <path id="Path_203" data-name="Path 203" d="M522.629,413.6a15.88,15.88,0,0,1,2.215,6.131,6.085,6.085,0,0,1-2.467,5.709c-1.854,1.149-4.514.766-6.721.077a34.975,34.975,0,0,1-21.189-19.158,9.48,9.48,0,0,0-5.563-6.59c-3.012-1.7-5.916-3.939-7.311-7.111s-.766-7.41,2.123-9.3a7.832,7.832,0,0,1,6.008-.766,23.234,23.234,0,0,1,5.686,2.475c2.973,1.617,6.606,3.012,9.2,5.165a59.278,59.278,0,0,1,6.322,6.682,93.985,93.985,0,0,1,6.307,8.046C517.863,405.782,523.158,412.855,522.629,413.6Z" transform="translate(-218.057 -120.42)" fill="#65617d"/>
    <path id="Path_204" data-name="Path 204" d="M455.633,395.394a53.072,53.072,0,0,1-2.031,11.38c-.621,2.084-1.441,4.253-3.165,5.579a11.579,11.579,0,0,1-4.835,1.77,3.468,3.468,0,0,1-4.307-1.885c-2.559-3.387-5.05-6.966-6.13-11.073-1.533-5.954,0-12.338,2.659-17.9a18.323,18.323,0,0,1,4.1-5.97,15.7,15.7,0,0,1,7.525-3.379c2.828-.567,6.3-1.778,6.506,1.663a159.9,159.9,0,0,1-.322,19.817Z" transform="translate(-207.231 -118.3)" fill="#65617d"/>
    <path id="Path_205" data-name="Path 205" d="M491.725,214.19c5.288,2.736,11.158,6.215,12.261,12.062.682,3.571-.628,7.226-.414,10.859.192,3.2,1.533,6.284,1.364,9.472a44.569,44.569,0,0,1-.766,4.483c-.452,2.828-.184,5.709-.3,8.567-.253,6.437-2.406,12.629-3.448,18.982a55.6,55.6,0,0,0-.513,13.725c.253,2.958.766,5.9.766,8.874a38.876,38.876,0,0,1-.529,6.392,63.755,63.755,0,0,1-6.13,19.057c-3.686,7.257-3.165,16.621-2.774,24.752a6.13,6.13,0,0,1-.414,3.31c-.966,1.755-3.372,2.008-5.364,1.839a29.12,29.12,0,0,1-19.158-9.7,4.912,4.912,0,0,1-1.395-2.582c-.169-1.64,1.149-2.989,2.1-4.345,3.234-4.6,2.414-10.828,2.8-16.476a36.018,36.018,0,0,1,2.9-11.916c.95-2.184,2.138-4.337,2.353-6.713a16.954,16.954,0,0,0-1.142-6.521l-2.3-7.3c-3.563-11.334-7.15-22.737-12.545-33.319a16.667,16.667,0,0,0-7.088,9.962c-2.008,7.219.851,15.28-1.885,22.223a20.318,20.318,0,0,0-1.127,2.981,12,12,0,0,0-.184,2.674,217.774,217.774,0,0,0,1.364,22.354,6.9,6.9,0,0,0,.92,3.2c.452.651,1.111,1.134,1.594,1.755,1.341,1.74,1.088,4.176.766,6.345l-1.533,10.253a2.782,2.782,0,0,1-.5,1.448,2.743,2.743,0,0,1-1.3.705,36.324,36.324,0,0,1-15.066,1.379,9.993,9.993,0,0,1-4.1-2.023c-.13-1.533,1.778-2.552,1.847-4.077a3.517,3.517,0,0,0-1.172-2.345c-2.851-3.219-6.253-6.636-6.223-10.935,0-1.126.268-2.253.23-3.379-.1-2.889-2.092-5.364-2.789-8.146-.858-3.441.284-7.012.72-10.529.6-4.736-.107-9.533-.766-14.261l-2.567-17.349a46.472,46.472,0,0,0-1.594-7.954,62.275,62.275,0,0,0-3.395-7.464c-2.452-4.981-4.468-10.161-6.475-15.326a13.969,13.969,0,0,1-1.188-4.437c-.115-2.628,1.241-5.111,2.927-7.134a22.308,22.308,0,0,1,12.261-7.433,5.365,5.365,0,0,1,2.46-.1,6.606,6.606,0,0,1,1.908,1,45.841,45.841,0,0,0,40.515,4.8c.766.582,2.184.329,3.065-.084,2.46-1.126,4.468-3,6.629-4.6A39.471,39.471,0,0,1,491.725,214.19Z" transform="translate(-200.923 -81.133)" fill="#3f3d56"/>
    <path id="Path_206" data-name="Path 206" d="M310.031,467.761a10.484,10.484,0,0,0,1.809,3.226c2.774,3.617,6.644,6.506,8.429,10.728.375.9.651,1.854,1,2.774a18.246,18.246,0,0,0,4.981,7.219,30.653,30.653,0,0,0,5.495,3.64c3.387,1.847,7.05,3.517,10.9,3.418a11.841,11.841,0,0,0,2.3-.276,12.437,12.437,0,0,0,3.425-1.257c2.475-1.364,4.6-4.031,4.107-6.813a6.231,6.231,0,0,0-.5-1.533,16.094,16.094,0,0,0-1.4-2.215,16.633,16.633,0,0,0-4.521-4.782c-2.13-1.3-4.812-1.625-6.728-3.234a10.576,10.576,0,0,1-1.939-2.345,29.562,29.562,0,0,1-3.832-8.682c-.582-2.3-.973-4.82-2.651-6.506s-3.985-2.069-6.222-2.452a10.81,10.81,0,0,0-2.3-.222c-1.1.038-2.23.352-3.257-.161s-1.372-1.241-2.613-1.142a5.364,5.364,0,0,0-2.69,1.172C310.9,460.473,308.973,464.3,310.031,467.761Z" transform="translate(-178.063 -137.906)" fill="#3f3d56"/>
    <path id="Path_207" data-name="Path 207" d="M338.993,472.414c.5,2.6,1.264,5.364,3.272,7.058,1.28,1.1,3.065,1.793,3.7,3.349s-.184,3.51-1.241,4.935a18.177,18.177,0,0,1-4.935,4.529,7.379,7.379,0,0,1-5.426,1.326,9.059,9.059,0,0,1-3.885-2.529c-2.621-2.429-5.3-4.95-6.774-8.207-1.533-3.433-1.609-7.41-3.28-10.79-.973-1.969-2.475-3.694-3.065-5.809a3.609,3.609,0,0,1,0-2.36,3.326,3.326,0,0,1,3-1.786,10.454,10.454,0,0,1,3.594.766,79.128,79.128,0,0,0,10.6,2.966c1.433.268,2.3.261,3.065,1.648a16.52,16.52,0,0,1,1.372,4.9Z" transform="translate(-179.798 -139.072)" fill="#fbbebe"/>
    <path id="Path_208" data-name="Path 208" d="M356.839,502.869a8.428,8.428,0,0,0-1.188,2.851,6.368,6.368,0,0,0-.084,2.406,12.437,12.437,0,0,0,3.425-1.257c2.475-1.364,4.6-4.031,4.107-6.813a6.231,6.231,0,0,0-.5-1.533,2.138,2.138,0,0,0-2.038.636,16.926,16.926,0,0,0-3.724,3.709Z" transform="translate(-188.755 -147.565)" fill="#fbbebe"/>
    <path id="Path_209" data-name="Path 209" d="M321.3,426.748a3.771,3.771,0,0,0-.283,2.3c.352,1.533,1.923,2.414,3.341,3.111l13.48,6.59a28.246,28.246,0,0,1,2.728,1.448,40.175,40.175,0,0,1,6.069,5.226,15.923,15.923,0,0,0,6.744,4.176,11.4,11.4,0,0,0,7.663-1,15.838,15.838,0,0,0,3.51-2.383,21.585,21.585,0,0,0,2.529-2.628,5.671,5.671,0,0,0,1.372-2.475,5.434,5.434,0,0,0-1.257-3.939,18.209,18.209,0,0,0-1.533-1.9c-5.111-5.648-13.487-8.575-20.691-9.725a58.923,58.923,0,0,1-8.345-2.406,19.54,19.54,0,0,0-8.544-1.126C325.219,422.419,322.4,424.066,321.3,426.748Z" transform="translate(-180.684 -129.669)" fill="#3f3d56"/>
    <path id="Path_210" data-name="Path 210" d="M321.3,426.748a3.771,3.771,0,0,0-.283,2.3c.352,1.533,1.923,2.414,3.341,3.111l13.48,6.59a28.246,28.246,0,0,1,2.728,1.448,40.175,40.175,0,0,1,6.069,5.226,15.923,15.923,0,0,0,6.744,4.176,11.4,11.4,0,0,0,7.663-1,15.838,15.838,0,0,0,3.51-2.383,21.585,21.585,0,0,0,2.529-2.628,5.671,5.671,0,0,0,1.372-2.475,5.434,5.434,0,0,0-1.257-3.939,18.209,18.209,0,0,0-1.533-1.9c-5.111-5.648-13.487-8.575-20.691-9.725a58.923,58.923,0,0,1-8.345-2.406,19.54,19.54,0,0,0-8.544-1.126C325.219,422.419,322.4,424.066,321.3,426.748Z" transform="translate(-180.684 -129.669)" opacity="0.1"/>
    <path id="Path_211" data-name="Path 211" d="M362.24,433.024a15.325,15.325,0,0,1,2.529,3.9,4.368,4.368,0,0,1,.575,3.119,4.551,4.551,0,0,1-1.4,1.839l-1.341,1.241a5.362,5.362,0,0,1-1.395,1.042,5.578,5.578,0,0,1-2.3.345c-1.8,0-3.74,0-5.2-1.08-2-1.441-2.36-4.422-1.448-6.713s2.82-4.023,4.743-5.571C358.562,429.882,361.145,431.866,362.24,433.024Z" transform="translate(-187.888 -131.737)" fill="#fbbebe"/>
    <path id="Path_212" data-name="Path 212" d="M376.072,442.952a6.813,6.813,0,0,0,.345,3.793c.337,1.149.667,2.3,1,3.471v.046a21.584,21.584,0,0,0,2.529-2.628,5.671,5.671,0,0,0,1.372-2.475,5.434,5.434,0,0,0-1.257-3.939,18.189,18.189,0,0,0-1.533-1.9c-.36.467-.674.927-.935,1.226A6.767,6.767,0,0,0,376.072,442.952Z" transform="translate(-193.535 -133.742)" fill="#fbbebe"/>
    <path id="Path_213" data-name="Path 213" d="M329.723,354.385c-1.586,6.667-.912,13.64-.069,20.445.644,5.18,1.364,10.545-.169,15.533-.567,1.862-1.464,3.755-1.119,5.678.651,3.625,5.019,5.019,8.636,5.7a8.515,8.515,0,0,0,3.2.192,7.587,7.587,0,0,0,2.912-1.533,31.833,31.833,0,0,0,11.211-14.9,55.14,55.14,0,0,0,2.23-12.46c.705-7.081,1.418-14.246.383-21.281-.306-2.069-.766-4.115-.958-6.2a44.8,44.8,0,0,1,.6-10.843,174.922,174.922,0,0,1,5.977-26.162,35.251,35.251,0,0,1-21.212-3.832c1.257.674-.184,11.426-.337,12.935a87.8,87.8,0,0,1-2.429,13.334C336.436,339.166,331.662,346.262,329.723,354.385Z" transform="translate(-182.399 -102.288)" fill="#3f3d56"/>
    <path id="Path_214" data-name="Path 214" d="M329.723,354.385c-1.586,6.667-.912,13.64-.069,20.445.644,5.18,1.364,10.545-.169,15.533-.567,1.862-1.464,3.755-1.119,5.678.651,3.625,5.019,5.019,8.636,5.7a8.515,8.515,0,0,0,3.2.192,7.587,7.587,0,0,0,2.912-1.533,31.833,31.833,0,0,0,11.211-14.9,55.14,55.14,0,0,0,2.23-12.46c.705-7.081,1.418-14.246.383-21.281-.306-2.069-.766-4.115-.958-6.2a44.8,44.8,0,0,1,.6-10.843,174.922,174.922,0,0,1,5.977-26.162,35.251,35.251,0,0,1-21.212-3.832c1.257.674-.184,11.426-.337,12.935a87.8,87.8,0,0,1-2.429,13.334C336.436,339.166,331.662,346.262,329.723,354.385Z" transform="translate(-182.399 -102.288)" opacity="0.1"/>
    <path id="Path_215" data-name="Path 215" d="M367.207,312.334c3.065,8.882,2.391,18.583,1.065,27.886s-3.28,18.606-2.705,27.978c.222,3.678.82,7.456-.253,10.974a23.986,23.986,0,0,1-2.353,4.9l-24.453,42.285a7.6,7.6,0,0,1-6.131,3.832,17.754,17.754,0,0,1-7.617-1.632,13.7,13.7,0,0,1-4.437-2.46,5.249,5.249,0,0,1-1.87-4.491c1.1-7.341,2.743-14.859,3.962-22.223a38.469,38.469,0,0,1,5.318-14.077c1.893-3.065,4.222-5.816,5.855-9,4.69-9.134,3.065-20.277-.552-29.886s-9-18.53-11.878-28.354a32.506,32.506,0,0,1-1.448-8.429,22.476,22.476,0,0,1,6.406-15.985,5.618,5.618,0,0,1,2.215-1.533,6.207,6.207,0,0,1,3.019.054C344.969,294.809,362.709,299.215,367.207,312.334Z" transform="translate(-180.095 -99.304)" fill="#3f3d56"/>
    <path id="Path_216" data-name="Path 216" d="M652.96,142.341c.444,3.356-.766,6.751-2.491,9.656-6.521,10.882-21.557,15.694-33.182,10.629-4.789-2.092-8.843-5.54-12.813-8.943a11.407,11.407,0,0,1-3.395-3.977c-1.188-2.874.245-6.3,2.582-8.353s5.364-3.065,8.376-3.977C621.978,134.279,650.592,124.516,652.96,142.341Z" transform="translate(-246.046 -61.907)" fill="#fbbebe"/>
    <path id="Path_217" data-name="Path 217" d="M654.735,131.6c9.05,7.28,22.223,14.215,32.477,19.61,3.487,1.839,7.357,3.908,8.613,7.663a14.919,14.919,0,0,1,.23,6.307c-.429,4.069-.874,8.2-2.444,11.978-1.847,4.422-5.111,8.069-7.732,12.085-4.6,7.035-7.3,15.326-12.974,21.541,3.832,12.729,8.023,25.442,9.387,38.653a1.777,1.777,0,0,1-.115,1.081,1.854,1.854,0,0,1-.6.544l-9.533,6.253a10.729,10.729,0,0,0-2.751,2.3c-1.686,2.192-1.464,5.272-2.506,7.824a10.169,10.169,0,0,1-5.9,5.364,18.17,18.17,0,0,1-8.115.858,18.867,18.867,0,0,1-9.686-3.41,26.794,26.794,0,0,1-5.832-6.966,27.119,27.119,0,0,1-3.065-5.586,25.159,25.159,0,0,1-1.042-8.9,94.054,94.054,0,0,1,1.632-17.035c.445-2.23,1-4.429,1.349-6.675.705-4.521.567-9.134,1.088-13.679a92.006,92.006,0,0,1,3.41-15.073,77.725,77.725,0,0,0,1.992-9.272,101.673,101.673,0,0,1,4.468-16.093l3.065-9.05c.651-1.954,1.31-3.9,2.084-5.809,1.441-3.563,3.3-7.035,3.786-10.836.544-4.146-3.931-9.066-2.421-12.958C653.723,131.889,654.39,131.322,654.735,131.6Z" transform="translate(-253.637 -61.816)" fill="#3f3d56"/>
    <path id="Path_218" data-name="Path 218" d="M695.165,164.42c2.123.958,3.3,3.242,4.054,5.449a30.882,30.882,0,0,1,1.2,15.48,27.713,27.713,0,0,0-.613,3.954,26.364,26.364,0,0,0,.452,4.6c.766,5.862,0,11.817.253,17.733.261,6.652,1.709,13.679-1.08,19.725-1.854,4.016-5.364,7-8.828,9.717a176.649,176.649,0,0,1-42.278,24.4c2.613-3.142,2.659-7.87.92-11.571s-4.973-6.483-8.43-8.644a54.319,54.319,0,0,0,12.683-4.529c8.031-4.077,14.913-10.046,21.71-15.955a6.606,6.606,0,0,0,2.253-2.851c.69-2.3-1.211-4.483-2.529-6.5-3.992-6.131-3.065-14.139-1.395-21.235,1.862-7.778,4.6-15.526,9.587-21.779A21.54,21.54,0,0,1,695.165,164.42Z" transform="translate(-255.429 -69.503)" fill="#3f3d56"/>
    <path id="Path_219" data-name="Path 219" d="M641.745,290.751a10.475,10.475,0,0,1-2.636,2.9c-2.3,1.533-5.456.95-8.023-.138a23.411,23.411,0,0,1-6.514-4.146,10.207,10.207,0,0,0-2.889-2.146c-2.008-.766-4.812-.192-5.939-2.038a1.081,1.081,0,0,1-.184-.659c.069-.667.943-.851,1.617-.889a20.071,20.071,0,0,0,8.866-2.736,8.511,8.511,0,0,1-2.176-2.3,1.793,1.793,0,0,1-.368-1.088,1.946,1.946,0,0,1,.667-1.088,17.058,17.058,0,0,1,18.759-3.127,3.739,3.739,0,0,1,1.533,1.15,4.256,4.256,0,0,1,.559,1.533c.5,2.146,2.3,5.364,1.648,7.533C645.944,286,643.224,288.644,641.745,290.751Z" transform="translate(-249.528 -94.588)" fill="#fbbebe"/>
    <path id="Path_220" data-name="Path 220" d="M578.878,245.316c9.533-11.012,13.794-25.5,17.748-39.519l2.828-9.962,6.82-23.993c1-3.54,2.008-7.081,2.674-10.69a98.928,98.928,0,0,0,1.18-18.928,20.485,20.485,0,0,0-1.77-7.6c-.667-1.655-.989-3.418-1.533-5.127a25.578,25.578,0,0,0-3.073-6.736,7.054,7.054,0,0,0-1.387-1.655,8.062,8.062,0,0,0-3.134-1.272,27.587,27.587,0,0,0-7.5-1.142,9.3,9.3,0,0,0-6.8,2.9c-1.249,1.479-1.824,3.395-2.812,5.058a19.723,19.723,0,0,0-1.249,2.123,10.728,10.728,0,0,0-.69,3.479q-.6,7.242-1.019,14.5c-.13,2.2-.245,4.414-.161,6.621.069,1.717.253,3.425.437,5.134l1.816,16.736c.422,3.931.123,7.61.475,11.548.858,9.51-1.188,19.02-3.288,28.354-1,4.437-2.038,8.935-4.184,12.951-1.893,3.556-4.728,7.165-3.977,11.127.26,1.379.958,2.667,1.065,4.061a8.155,8.155,0,0,0,.253,2.567,3.065,3.065,0,0,0,3.272,1.533A7.594,7.594,0,0,0,578.878,245.316Z" transform="translate(-238.917 -58.816)" fill="#3f3d56"/>
    <path id="Path_221" data-name="Path 221" d="M578.245,223.138c.291,2.2.069,4.429.176,6.644a44.812,44.812,0,0,0,1.533,8.429c.766,3.065,1.747,6.5,4.452,8.2a13.98,13.98,0,0,1,1.939,1.218,1.885,1.885,0,0,1,.628,2.054l-2.107-.352a2.138,2.138,0,1,1-2.943,3.065,4.989,4.989,0,0,1-.192,2.054A1.671,1.671,0,0,1,580.2,255.6a2.469,2.469,0,0,1-1.1-.46l-5.5-3.41a10.154,10.154,0,0,1-3.962-3.832l-2.406-3.625a8.658,8.658,0,0,1-1.249-2.3c-.9-3.065,1.609-6.468.306-9.357a12.573,12.573,0,0,0-1.372-2.008c-2.782-3.832-2.605-9.043-2.3-13.794.1-1.6.391-3.5,1.839-4.2a3.778,3.778,0,0,1,3.594.636,15.267,15.267,0,0,0,3.219,2.031c.766.261,1.609.291,2.375.567,1.073.375,2.069,1.839,2.789,2.705A8.973,8.973,0,0,1,578.245,223.138Z" transform="translate(-237.119 -80.709)" fill="#fbbebe"/>
    <path id="Path_222" data-name="Path 222" d="M488.378,123.581a13.626,13.626,0,0,1-2.7,4.031,5.218,5.218,0,0,1-4.445,1.533c-1.7-.337-2.95-1.74-4.077-3.065-2.943-3.456-5.924-6.958-7.9-11.05-3.019-6.23-3.5-13.342-3.939-20.246-.107-1.778-.2-3.663.651-5.219,1.081-1.985,3.372-2.92,5.487-3.709l11.686-4.368a4.529,4.529,0,0,1,2.3-.421c1.832.307,2.506,2.513,3,4.3a26.821,26.821,0,0,0,4.368,8.889c2.621,3.494,8.5,8.2,5.142,12.56C493.9,112.04,491.328,117.68,488.378,123.581Z" transform="translate(-214.404 -50.021)" fill="#be6f72"/>
    <path id="Path_223" data-name="Path 223" d="M494.036,104.719c5.119,4.812,6.851,12.307,6.606,19.319s-2.192,13.847-3.3,20.775-1.333,14.322,1.678,20.691c1.034,2.184,2.445,4.207,3.165,6.514a20.44,20.44,0,0,1,.605,7,19.979,19.979,0,0,1-1.395,7.234c-1.632,3.617-4.989,6.131-8.2,8.43-6.552,4.736-13.234,9.548-20.928,12.023a64.118,64.118,0,0,1-16.185,2.529A51.479,51.479,0,0,1,445,208.915a30.093,30.093,0,0,1-16.821-8.9,9.426,9.426,0,0,1-1.908-2.628,10.921,10.921,0,0,1-.667-3.985q-.276-7.548.092-15.1a66.362,66.362,0,0,1,1.969-14.215c1.464-5.364,4-10.391,5.924-15.618,6.7-18.169,6.023-38.845,15.326-55.811,2.008-3.663,5.364-7.518,9.5-6.935a3.188,3.188,0,0,1,2.1.966,4.422,4.422,0,0,1,.766,2.36c.989,8.246,2.391,16.706,6.276,24.147,1.533,2.92,3.832,7.364,7.364,8.146s5.617-2.59,7.51-4.981a61.158,61.158,0,0,1,11.6-11.64Z" transform="translate(-205.112 -51.098)" fill="#e3e8f4"/>
    <path id="Path_224" data-name="Path 224" d="M537.384,92.865a15.271,15.271,0,0,1,2.9,2.038c2.3,2.176,3.142,5.51,3.127,8.667a67.365,67.365,0,0,1-1.226,9.4c-1.234,8.429-.184,17.058.307,25.6a12.392,12.392,0,0,1-.245,4.123c-.375,1.287-1.149,2.422-1.648,3.671-1.464,3.694-.36,7.908-1.218,11.786-.92,4.13-4.069,7.885-3.479,12.077.237,1.64,1.027,3.15,1.364,4.774s.046,3.586-1.356,4.46-3.441.238-5.111.72a15.749,15.749,0,0,0-1.977.889,9.713,9.713,0,0,1-8.207-.506,24.875,24.875,0,0,1-6.629-5.257c-2.92-2.989-5.747-6.261-7.027-10.238-1.87-5.763-.207-12.039,1.824-17.756s4.452-11.495,4.092-17.572c-.2-3.4-1.272-6.675-1.916-10.016a64.063,64.063,0,0,1-.851-14.024c.1-3.433.33-6.973,1.808-10.077a13.878,13.878,0,0,1,10.974-7.51C528.258,87.523,532.855,90.259,537.384,92.865Z" transform="translate(-223.961 -51.651)" fill="#3f3d56"/>
    <path id="Path_225" data-name="Path 225" d="M527.973,179.729a23.364,23.364,0,0,0,1.3,7.2c1.372-3.127,1.533-6.636,1.717-10.039.766-11.717,3.364-22.767,6.131-34.116-2.015,1.533-3.15,5.364-4.115,7.663a67.573,67.573,0,0,0-5.035,29.3Z" transform="translate(-229.04 -64.443)" opacity="0.1"/>
    <path id="Path_226" data-name="Path 226" d="M441.4,84.317c-3.694.973-6.9,3.165-10.476,4.6-3.717,1.533-7.717,2.184-11.617,3.127-9.027,2.192-18.093,6.261-23.541,13.794-4.015,5.54-5.678,12.384-8.429,18.66-2.3,5.265-5.364,10.2-7.058,15.679-2.215,7.15-1.962,14.813-1.418,22.277.444,6.131,1.119,12.33,3.9,17.763,1.456,2.851,3.464,5.4,4.92,8.253,1.747,3.425,2.667,7.2,4.123,10.728s3.594,7.05,6.973,8.889l5.594-3.272c8.345-4.881,16.69-9.771,24.775-15.073,7.05-4.6,14.162-9.878,17.916-17.434,3.326-6.675,3.655-14.476,2.8-21.886s-2.82-14.66-3.832-22.047a88.784,88.784,0,0,1,.575-27.978c.766-4.169,2.8-8.475,3.226-12.629C450.3,83.329,444.6,83.474,441.4,84.317Z" transform="translate(-194.13 -50.675)" fill="#3f3d56"/>
    <path id="Path_227" data-name="Path 227" d="M410.789,240.515c4.284,4.054,10.445,5.234,15.8,7.663a33.925,33.925,0,0,1,10.552,7.663c1.648,1.808,3.242,4.268,2.414,6.567-.7,1.977-2.835,2.989-4.8,3.724-2.437.92-5.157,1.732-7.587.8a27.244,27.244,0,0,1-3.885-2.406c-3.211-1.908-7.257-1.916-10.552-3.678-4.644-2.483-6.958-7.947-11.326-10.9-2.391-1.609-5.694-2.927-5.939-5.8a7.012,7.012,0,0,1,.644-3.012c.881-2.345,2.383-10.4,5.74-10.184C405.509,231.2,408.068,238.576,410.789,240.515Z" transform="translate(-198.097 -85.051)" fill="#fbbebe"/>
    <path id="Path_228" data-name="Path 228" d="M373.92,189.96c1.4,5.042,4.659,9.341,8.039,13.342,2.429,2.874,5.1,6,5.18,9.763.077,3.556-2.3,6.828-5.364,8.644s-6.675,2.4-10.223,2.628a25.785,25.785,0,0,1-8.475-.59c-7-1.9-11.863-8.008-17.372-12.729-3.272-2.8-6.951-5.234-9.456-8.736s-3.563-8.529-1.1-12.062a17.456,17.456,0,0,1,3.065-3.065,51.237,51.237,0,0,0,10.568-12.683c1.134-1.923,2.222-4.008,4.13-5.165,2.736-1.663,6.245-.9,9.341-.092,3.364.881,12.843,2.605,13.5,6.9.268,1.763-1.916,4.506-2.245,6.4a16.95,16.95,0,0,0,.406,7.449Z" transform="translate(-183.675 -70.413)" fill="#fbbebe"/>
    <path id="Path_229" data-name="Path 229" d="M387.139,203.127a32.362,32.362,0,0,1,2.468,5.709c2.337,8.123-1.839,16.491-3.832,24.706-2.544,10.522-1.464,21.526-1.586,32.354-.054,4.95-.582,10.4-4.146,13.832a12.841,12.841,0,0,0-2.644,2.713,11.227,11.227,0,0,0-.851,2.537,13.073,13.073,0,0,1-18.943,7.8c-2.9-1.617-5.426-4.422-8.751-4.506a25.373,25.373,0,0,0-3.119.345c-3.311.329-6.552-.9-9.656-2.1a6.3,6.3,0,0,1-2.038-1.088c-.559-.513-.92-1.2-1.433-1.755-1.893-2.038-5.127-1.686-7.855-2.253a11,11,0,0,1-8.33-8.33c-.552-2.636-.084-5.364.375-8.023l2.054-11.847a109.073,109.073,0,0,0,1.786-13.158,55.176,55.176,0,0,0-1.272-14.874c-.9-3.985-2.253-7.885-2.743-11.947a29.189,29.189,0,0,1,5.364-20.545c1.065-1.464,2.46-2.927,4.268-3.065a7.175,7.175,0,0,1,4.107,1.4q16.575,9.809,33.381,19.212a39.494,39.494,0,0,0,9.617,4.307c1.027.261,2.5.153,2.644-.889a1.939,1.939,0,0,0-.3-1.126c-1.916-3.686-4.69-6.851-6.9-10.361s-3.908-7.663-3.257-11.74c.889-5.64,6.131-9.372,10.414-4.95C380.771,190.505,383.99,196.958,387.139,203.127Z" transform="translate(-179.567 -73.97)" fill="#f86d70"/>
    <path id="Path_230" data-name="Path 230" d="M357.75,299.01c8.989.575,18.177,1.188,26.5,4.636,2.674,1.1,5.51,2.529,8.322,1.847a11.127,11.127,0,0,0,3.832-2.054,87.658,87.658,0,0,0,9.793-8.353c-.307-1.678-2.582-1.908-4.284-1.893a25.6,25.6,0,0,1-11.924-2.866,20.092,20.092,0,0,0-3.832-1.785c-3.64-1-7.349.912-11,1.847-5.41,1.379-11.112.575-16.637-.238l-14.913-2.2c-1.387-.2-2.95-.36-4.054.5a4.951,4.951,0,0,0-1.448,2.6c-1.824,6.131-.95,6.644,5.119,7.027Z" transform="translate(-184.494 -98.333)" fill="#fbbebe"/>
    <circle id="Ellipse_40" data-name="Ellipse 40" cx="24.522" cy="24.522" r="24.522" transform="translate(352.36 45.237)" opacity="0.1"/>
    <circle id="Ellipse_41" data-name="Ellipse 41" cx="24.522" cy="24.522" r="24.522" transform="translate(352.184 44.172)" fill="#fbbebe"/>
    <path id="Path_231" data-name="Path 231" d="M642.567,87.458c1.962,1.211,4.015,2.514,5.088,4.552a22.788,22.788,0,0,1,1.31,4.291c1.341,4.6,4.912,8.59,5.127,13.38.238,5.249-3.7,9.809-8.161,12.56a6.054,6.054,0,0,1-3.51,1.18c-1.3-.084-2.414-.9-3.6-1.418-5.035-2.238-10.667.6-16,1.9a28.722,28.722,0,0,1-16.706-.981,15.807,15.807,0,0,1-7.464-5.173c-1.8-2.491-2.445-5.977-.912-8.652.766-1.364,2.038-2.6,1.954-4.153a21.493,21.493,0,0,0-.766-2.7,6.2,6.2,0,0,1,1.3-4.138,59.9,59.9,0,0,1,13.257-15c1.533-1.257,3.3-2.483,5.311-2.575,4.031-.176,7.495,2.828,11.64,2.843C635.142,83.4,638.521,84.959,642.567,87.458Z" transform="translate(-245.163 -49.899)" fill="#3f3d56"/>
    <circle id="Ellipse_42" data-name="Ellipse 42" cx="25.288" cy="25.288" r="25.288" transform="translate(261.145 12.937)" opacity="0.1"/>
    <circle id="Ellipse_43" data-name="Ellipse 43" cx="25.288" cy="25.288" r="25.288" transform="translate(261.59 12.316)" fill="#be6f72"/>
    <path id="Path_232" data-name="Path 232" d="M516.41,92.449c3.571,2,7.977,1.793,11.962.881a16.092,16.092,0,0,0,6.284-2.651,7.579,7.579,0,0,0,3.165-5.824c0-2.567-1.686-4.881-1.893-7.449-.253-3.234,1.854-6.222,2.077-9.472s-1.379-6.177-2.943-8.966c-2.69-4.789-5.487-9.64-9.579-13.3s-9.763-6-15.127-4.766c-2.636.605-5.081,2.023-7.771,2.3-2.391.222-4.751-.5-7.134-.8s-5.058-.115-6.767,1.533c-.935.92-1.533,2.215-2.628,2.889a15.768,15.768,0,0,1-2.3.851c-2.766,1.111-4.031,4.23-5.012,7.035L472.17,73.544c2.2,1.533,4.851,2.23,7.257,3.41s4.743,3.065,5.234,5.7c.375,2-.337,4.3.828,5.97,1.065,1.533,3.234,1.793,5.073,1.533s3.686-.9,5.525-.613c4.6.7,6.307,3.517,10.56,0S512.455,90.226,516.41,92.449Z" transform="translate(-216.021 -40.56)" fill="#3f3d56"/>
    <circle id="Ellipse_44" data-name="Ellipse 44" cx="22.99" cy="22.99" r="22.99" transform="translate(156.421 71.644)" opacity="0.1"/>
    <circle id="Ellipse_45" data-name="Ellipse 45" cx="22.99" cy="22.99" r="22.99" transform="translate(157.31 70.395)" fill="#fbbebe"/>
    <path id="Path_233" data-name="Path 233" d="M375.469,129.675a60.631,60.631,0,0,0-18.185-9.564c-4.2-1.364-8.767-2.3-13.027-1.042-5.778,1.648-13.51,4.107-17.089,8.943a25.616,25.616,0,0,0-4.4,7.663c-1.7,5.717.72,11.809.559,17.771-.192,6.95-3.878,13.3-7.9,18.966s-4.835,13.794-7.211,20.338c-.812,2.245-1.073,5.364,1.019,6.491,1.839,1.019,4.061-.253,5.763-1.479l10.23-7.395a7.794,7.794,0,0,1,2.7-1.441c2.107-.49,4.169.828,5.931,2.077l21.457,15.173a6.583,6.583,0,0,0,.1-5.579c2.015.621,3.479,2.3,5.249,3.494s4.46,1.586,5.747-.084.314-3.916-1.119-5.265-3.318-2.153-4.721-3.54c-2.782-2.766-3.065-7.134-4.82-10.629-1.257-2.452-3.288-4.506-4.176-7.119-1.448-4.268.444-8.866,2.3-12.974,2.215-4.874,4.721-10.077,9.433-12.621,1.586-.858,3.341-1.364,4.966-2.146,4.046-1.939,9.1-6.514,11.073-10.613C381.079,135.461,378.412,131.944,375.469,129.675Z" transform="translate(-177.568 -58.767)" fill="#3f3d56"/>
    <path id="Path_234" data-name="Path 234" d="M339.879,232c2.2,1.4,4.682,2.3,6.843,3.763s4.054,3.686,4.115,6.291c.061,2.491-1.533,4.675-3.065,6.652l-18.667,24.5,9.518,2.521c-1.533,2.115-1.923,4.812-2.72,7.3s-2.3,5.065-4.843,5.717c-2.3.59-4.705-.621-7.081-.483-1.755.107-3.41.935-5.165,1-2.261.084-4.36-1.1-6.245-2.36-4.2-2.812-8.368-6.843-8.338-11.9a18,18,0,0,1,1.019-5.012c2.751-8.974,5.6-18.162,11.3-25.626a80.45,80.45,0,0,1,10.56-10.69,9.847,9.847,0,0,1,2.958-2.046c2.452-.92,5.127.215,7.663.95s5.732.843,7.2-1.326" transform="translate(-176.776 -85.12)" opacity="0.1"/>
    <path id="Path_235" data-name="Path 235" d="M338.831,230.015c2.2,1.395,4.682,2.3,6.843,3.763s4.054,3.686,4.123,6.284-1.533,4.682-3.065,6.659L328.057,271.2l9.518,2.521c-1.533,2.115-1.923,4.8-2.72,7.3s-2.3,5.065-4.843,5.717c-2.3.59-4.705-.621-7.081-.483-1.755.1-3.41.935-5.165,1-2.261.084-4.36-1.1-6.245-2.36-4.2-2.8-8.368-6.843-8.33-11.893a17.626,17.626,0,0,1,1.012-5.012c2.751-8.981,5.6-18.169,11.3-25.626a82.632,82.632,0,0,1,10.56-10.728,10.131,10.131,0,0,1,2.958-2.046c2.452-.92,5.127.215,7.663.958s5.732.843,7.2-1.326" transform="translate(-176.533 -84.643)" fill="#f86d70"/>
    <g id="Group_20" data-name="Group 20" transform="translate(351.714 48.463)" opacity="0.1">
      <path id="Path_236" data-name="Path 236" d="M599.446,121.323a15.791,15.791,0,0,0,7.464,5.173,28.591,28.591,0,0,0,16.706.981c5.364-1.3,10.966-4.138,16-1.9,1.188.529,2.3,1.333,3.594,1.425a6.13,6.13,0,0,0,3.517-1.188,18.131,18.131,0,0,0,7.318-7.993,1.972,1.972,0,0,0,.046.513c.238,5.249-3.7,9.809-8.161,12.56a6.053,6.053,0,0,1-3.51,1.18c-1.3-.084-2.414-.9-3.6-1.418-5.035-2.238-10.667.6-16,1.9a28.722,28.722,0,0,1-16.706-.981,15.808,15.808,0,0,1-7.464-5.173c-1.8-2.491-2.445-5.977-.912-8.652l.115-.192a9.372,9.372,0,0,0,1.594,3.763Z" transform="translate(-596.877 -107.015)"/>
      <path id="Path_237" data-name="Path 237" d="M601.071,105.3a5.376,5.376,0,0,1-1.333,3.173,4.847,4.847,0,0,1-.222-.766,5.91,5.91,0,0,1,1.157-3.908,5.092,5.092,0,0,1,.4,1.5Z" transform="translate(-597.483 -103.8)"/>
    </g>
    <path id="Path_238" data-name="Path 238" d="M480.534,54.74l-6.575,18.836c2.2,1.533,4.851,2.238,7.257,3.41s4.743,3.065,5.234,5.7c.375,2-.337,4.3.828,5.977,1.065,1.533,3.234,1.786,5.073,1.533s3.686-.9,5.525-.613c4.6.7,6.307,3.517,10.56.038s5.793.651,9.748,2.874c3.571,2.008,7.977,1.8,11.962.881a16.094,16.094,0,0,0,6.284-2.644,9.783,9.783,0,0,0,.766-.7,8.536,8.536,0,0,1-2.575,3.188,16.093,16.093,0,0,1-6.284,2.651c-3.985.912-8.43,1.119-11.962-.881-3.954-2.222-5.579-6.276-9.748-2.874s-5.977.659-10.56,0c-1.839-.284-3.678.353-5.525.613s-4.008,0-5.073-1.533c-1.165-1.671-.452-3.97-.828-5.97-.49-2.636-2.828-4.529-5.234-5.7s-5.058-1.885-7.257-3.41l6.606-18.89c.766-2.077,1.609-4.322,3.142-5.8A25.72,25.72,0,0,0,480.534,54.74Z" transform="translate(-216.016 -43.099)" opacity="0.1"/>
    <g id="Group_21" data-name="Group 21" transform="translate(130.058 68.112)" opacity="0.1">
      <path id="Path_239" data-name="Path 239" d="M369.035,203.987c1.694.766,3.832.881,4.9-.552,1.2-1.533.314-3.908-1.119-5.265s-3.318-2.153-4.721-3.54c-2.782-2.759-3.065-7.127-4.82-10.621-1.257-2.46-3.288-4.514-4.176-7.127-1.448-4.261.444-8.866,2.3-12.966,2.215-4.874,4.721-10.077,9.433-12.621,1.586-.858,3.341-1.364,4.966-2.146,4.046-1.939,9.1-6.521,11.073-10.621,1.663-3.456-.682-6.813-3.471-9.089,1.356.881,2.682,1.809,3.97,2.8,2.95,2.3,5.609,5.786,3.832,9.41-1.977,4.1-7.027,8.675-11.073,10.613-1.625.766-3.379,1.287-4.966,2.146-4.713,2.544-7.219,7.747-9.433,12.621-1.862,4.107-3.755,8.705-2.3,12.974.889,2.613,2.92,4.667,4.176,7.119,1.778,3.494,2.038,7.862,4.82,10.629,1.4,1.387,3.288,2.184,4.721,3.54s2.3,3.7,1.119,5.265-3.985,1.241-5.747.084C371.334,205.834,370.254,204.777,369.035,203.987Z" transform="translate(-319.538 -129.44)"/>
      <path id="Path_240" data-name="Path 240" d="M310.649,215.125l10.23-7.387a7.817,7.817,0,0,1,2.7-1.448c2.107-.483,4.169.835,5.931,2.084l21.457,15.173a6.6,6.6,0,0,0,.1-5.586c1.969.613,3.4,2.253,5.111,3.4a5.731,5.731,0,0,0-.766-.284,6.583,6.583,0,0,1-.1,5.579l-21.457-15.173c-1.762-1.249-3.832-2.567-5.931-2.077a7.793,7.793,0,0,0-2.7,1.441l-10.23,7.395c-1.7,1.226-3.924,2.5-5.763,1.479a3.364,3.364,0,0,1-1.6-2.958,11.1,11.1,0,0,0,3.019-1.64Z" transform="translate(-307.628 -147.374)"/>
    </g>
    <path id="Path_241" data-name="Path 241" d="M629.046,280.447s-43.91,3.517-52.646-2.705l40.17-6.192Z" transform="translate(-240.378 -94.537)" fill="#e3e8f4"/>
    <path id="Path_242" data-name="Path 242" d="M629.046,280.447s-43.91,3.517-52.646-2.705l40.17-6.192Z" transform="translate(-240.378 -94.537)" opacity="0.1"/>
    <path id="Path_243" data-name="Path 243" d="M627.095,278.3l-12.3-7.786S578.1,281.056,568.05,276.7l10.23-14.353,36.354,7.088Z" transform="translate(-238.427 -92.387)" fill="#e3e8f4"/>
    <path id="Path_244" data-name="Path 244" d="M568.56,143.29a21.553,21.553,0,0,0-3.226,5.663c-.353,1.081-.529,2.207-.828,3.3a25.382,25.382,0,0,1-3.832,7.594c-3.778,5.494-8.5,10.8-9.449,17.4a29.337,29.337,0,0,0,.69,9.794,26.435,26.435,0,0,0,1.808,6.184c.973,2.1,2.422,3.947,3.533,5.977a42.454,42.454,0,0,1,2.559,6.192c1.31-1.31,2.084-3.065,3.134-4.6s2.613-2.912,4.46-2.935c2.13,0,3.885,1.763,5.993,2.038a1.709,1.709,0,0,0,.981-.092c.766-.36.828-1.395.766-2.222-.605-5.786-3.916-11.495-2.353-17.1,1.441-5.188,6.59-8.429,9.3-13.081,1.962-3.379,2.544-7.364,3.065-11.242a69.648,69.648,0,0,0,1.019-13.978c-.146-2.353-2.015-17.219-5.433-15.664-1.188.536-2.222,2.812-2.966,3.832l-3.065,4.345Z" transform="translate(-234.454 -60.618)" fill="#3f3d56"/>
    <path id="Path_245" data-name="Path 245" d="M299.11,232.308l-24.652,20.07-31.718-5.671L264.1,229.94Z" transform="translate(-56.724 -53.732)" fill="#e3e8f4"/>
    <path id="Path_246" data-name="Path 246" d="M300.27,230.678l-24.652,20.07L243.9,245.077l21.357-16.767Z" transform="translate(-56.995 -53.351)" opacity="0.1"/>
    <path id="Path_247" data-name="Path 247" d="M300.038,229.286l-24.652,20.062-31.726-5.663,21.365-16.775Z" transform="translate(-56.939 -53.024)" fill="#e3e8f4"/>
    <path id="Path_248" data-name="Path 248" d="M300.968,226.258l-24.66,20.07-31.718-5.671,21.365-16.767Z" transform="translate(-57.157 -52.318)" opacity="0.1"/>
    <path id="Path_249" data-name="Path 249" d="M300.73,224.868l-24.652,20.07-31.718-5.671L265.717,222.5Z" transform="translate(-57.103 -51.993)" fill="#e3e8f4"/>
    <path id="Path_250" data-name="Path 250" d="M877.364,623.878h0a3.97,3.97,0,0,1,5.694,3.257l1.372,17.786-8.138,1.471L872,633.534Z" transform="translate(-309.455 -176.777)" fill="#3f3d56"/>
    <path id="Path_251" data-name="Path 251" d="M468.028,468.145,343.478,531.351a8.667,8.667,0,0,0,.061,15.472L611.789,681.442a32.56,32.56,0,0,0,30.6-.766l112.986-63.712a8.667,8.667,0,0,0-.513-15.326L475.683,468.061a8.667,8.667,0,0,0-7.655.084Z" transform="translate(-184.843 -140.26)" fill="#3f3d56"/>
    <path id="Path_252" data-name="Path 252" d="M342.547,536.56l-3.9,2.9-.307,13.87a5.763,5.763,0,0,0,3.127,5.257L614.3,698.59a4.062,4.062,0,0,0,5.924-3.609V674.834Z" transform="translate(-184.747 -156.465)" fill="#3f3d56"/>
    <path id="Path_253" data-name="Path 253" d="M468.024,447.164l-124.549,63.2a8.667,8.667,0,0,0,.038,15.472L611.785,660.453a32.583,32.583,0,0,0,30.6-.766L755.37,595.967a8.667,8.667,0,0,0-.513-15.326L475.68,447.072a8.667,8.667,0,0,0-7.656.092Z" transform="translate(-184.839 -135.356)" fill="#e3e8f4"/>
    <path id="Path_254" data-name="Path 254" d="M361.332,421.86,224.1,491.541,459.965,609.477l141.523-71.835Z" transform="translate(-52.368 -98.58)" fill="#3f3d56"/>
    <ellipse id="Ellipse_46" data-name="Ellipse 46" cx="14.476" cy="8.575" rx="14.476" ry="8.575" transform="translate(479.431 472.306)" fill="#3f3d56"/>
    <circle id="Ellipse_47" data-name="Ellipse 47" cx="1.341" cy="1.341" r="1.341" transform="translate(228.554 344.185)" fill="#3f3d56"/>
    <circle id="Ellipse_48" data-name="Ellipse 48" cx="1.609" cy="1.609" r="1.609" transform="translate(224.27 354.369)" fill="#3f3d56"/>
    <line id="Line_66" data-name="Line 66" y1="7.502" x2="16.085" transform="translate(231.773 345.794)" fill="none" stroke="#3f3d56" stroke-miterlimit="10" stroke-width="1"/>
    <rect id="Rectangle_414" data-name="Rectangle 414" width="80.019" height="27.588" rx="13.794" transform="translate(316.911 421.292) rotate(-30)" fill="#304343"/>
    <rect id="Rectangle_415" data-name="Rectangle 415" width="80.019" height="27.588" rx="13.794" transform="translate(357.526 441.985) rotate(-30)" fill="#304343"/>
    <rect id="Rectangle_416" data-name="Rectangle 416" width="80.019" height="27.588" rx="13.794" transform="translate(280.129 397.539) rotate(-30)" fill="#304343"/>
  </g>
</svg>
