<?xml version="1.0" encoding="utf-8"?>
<!-- Generator: Adobe Illustrator 23.0.6, SVG Export Plug-In . SVG Version: 6.00 Build 0)  -->
<svg version="1.1" id="svg--team" xmlns="http://www.w3.org/2000/svg" xmlns:xlink="http://www.w3.org/1999/xlink" x="0px" y="0px"
	 viewBox="0 0 708.2 627.5" style="enable-background:new 0 0 708.2 627.5;" xml:space="preserve">
<style type="text/css">
	.st0{opacity:0.1;fill:#304343;enable-background:new    ;}
	.st1{fill:#304343;}
	.st2{fill:none;stroke:#565987;stroke-miterlimit:10;}
	.st3{opacity:0.1;enable-background:new    ;}
	.st4{fill:#FFD037;}
	.st5{fill:#A8A8A8;}
	.st6{opacity:0.2;enable-background:new    ;}
	.st7{fill:#65617D;}
	.st8{fill:#3F3D56;}
	.st9{fill:#BE6F72;}
	.st10{fill:#FBBEBE;}
	.st11{fill:#E3E8F4;}
	.st12{fill:#F86D70;}
	.st13{opacity:0.1;}
	.st14{fill:none;stroke:#3F3D56;stroke-miterlimit:10;}
	.st15{fill:#4C5959;}
</style>
<g id="svg--team--bg">
	<path id="svg--team--bg_x5F__x5F_main" class="st0" d="M317.3,242.8c-27.7-9-56.9-16.5-86.9-15.7c-44,1.1-86.2,21.6-107.1,51.9
		c-17.6,25.7-20,55.8-27.7,84.4c-9.5,35.2-27.5,68.5-46.7,101.2c-10.3,17.5-21.2,35.4-23,54.7c-2.5,26.7,13.7,53.5,39.3,71.4
		s59.5,27.5,93.7,29.7c18.2,1.2,37.2,0.3,53.3-6.3c17.1-6.9,29.6-19.5,46.8-26.3c15.9-6.3,34.5-7.1,52.3-6.2
		c23.1,1.2,46,5.1,68.2,11.7c24.9,7.4,48,18.2,72.9,25.7s52.6,11.8,78.1,5.8c23.9-5.7,42.9-19.8,60-34c27.6-22.9,53.2-48,76.6-75.1
		c15.4-17.9,29.8-36.9,36.7-57.8c13.2-40-4.5-85.4-44-113c-32.7-22.9-76.7-33-119.8-39.1c-39.3-5.6-84.8-6.2-120.9-20.6
		C384.8,271.4,353.4,254.5,317.3,242.8z"/>
	<ellipse id="svg--team--bg_x5F__x5F_shadow" class="st0" cx="670.1" cy="376.8" rx="17.7" ry="2.4"/>
	<ellipse id="svg--team--bg_x5F__x5F_shadow_1_" class="st0" cx="602.3" cy="383.7" rx="17.7" ry="2.4"/>
	<ellipse id="svg--team--bg_x5F__x5F_shadow_2_" class="st0" cx="524.5" cy="376.3" rx="17.7" ry="2.4"/>
	<ellipse id="svg--team--bg_x5F__x5F_shadow_4_" class="st0" cx="559" cy="401.6" rx="12.6" ry="1.7"/>
	<ellipse id="svg--team--bg_x5F__x5F_shadow_3_" class="st0" cx="630" cy="402.7" rx="12.6" ry="1.7"/>
	<circle id="svg--team--bg_x5F__x5F_circle--two" class="st0" cx="98.8" cy="46.4" r="16.6"/>
	<circle id="svg--team--bg_x5F__x5F_circle--one" class="st0" cx="385.5" cy="20.2" r="16.6"/>
	<circle id="svg--team--bg_x5F__x5F_circle--three" class="st0" cx="648.5" cy="85.7" r="16.6"/>
	<circle id="svg--team--bg_x5F__x5F_circle--four" class="st0" cx="27.8" cy="198.4" r="27.8"/>
	<circle id="svg--team--bg_x5F__x5F_circle--six" class="st0" cx="54.4" cy="335.5" r="27.8"/>
	<circle id="svg--team--bg_x5F__x5F_circle--five" class="st0" cx="574.7" cy="214.5" r="27.8"/>
</g>
<g id="svg--team--leafs">
	<g id="svg--team--leafs_x5F__x5F_plant--big">
		<g id="svg--team--leafs_x5F__x5F_plant--big_x5F__x5F_leaf--middle_1_">
			<path id="svg--team--leafs_x5F__x5F_plant--big_x5F__x5F_leaf--middle_x5F__x5F_item_4_" class="st1" d="M601.9,383.2
				c0,0,24.8-81.4-3.9-114c-21.5-24.4-45.9-21.5-56.8-18.5c-5.7,1.5-10.5,5.5-13,10.8c-3.8,8.2-3.1,21.6,23.8,37.2
				c45.1,26.1,48,62,48,62L601.9,383.2z"/>
			<path id="svg--team--leafs_x5F__x5F_plant--big_x5F__x5F_leaf--middle_x5F__x5F_item_3_" class="st2" d="M545.1,262.2
				c0,0,73.2,22.9,56.8,121"/>
			<path id="svg--team--leafs_x5F__x5F_plant--big_x5F__x5F_leaf--middle_x5F__x5F_item_2_" class="st2" d="M552.4,276.5
				c0,0,6.1-6.3,13.7-2.8"/>
			<path id="svg--team--leafs_x5F__x5F_plant--big_x5F__x5F_leaf--middle_x5F__x5F_item_1_" class="st2" d="M581.4,308
				c0,0,10.8-5.5,13.6,1.4"/>
			<path id="svg--team--leafs_x5F__x5F_plant--big_x5F__x5F_leaf--middle_x5F__x5F_item" class="st2" d="M608.1,319.4
				c0,0-8.1-0.6-8.3,3.2"/>
			<path id="svg--team--leafs_x5F__x5F_plant--big_x5F__x5F_leaf--middle_x5F__x5F_item_5_" class="st2" d="M587.8,270.4
				c0,0-10.1,6.8-6.9,17"/>
		</g>
		<g id="svg--team--leafs_x5F__x5F_plant--big_x5F__x5F_leaf--left_1_">
			<path id="svg--team--leafs_x5F__x5F_plant--big_x5F__x5F_leaf--left_x5F__x5F_item_5_" class="st1" d="M602.9,383.8
				c0,0-29.1-59.2-37.1-57.9c-3.8,0.6-5.5,4.4-6.3,8.1c-1,4.9-0.4,9.9,1.6,14.4C565.2,357.9,576.3,375.9,602.9,383.8z"/>
			<path id="svg--team--leafs_x5F__x5F_plant--big_x5F__x5F_leaf--left_x5F__x5F_item_4_" class="st2" d="M566,337.2
				c0,0,30.5,44.3,36.4,46.2"/>
			
				<line id="svg--team--leafs_x5F__x5F_plant--big_x5F__x5F_leaf--left_x5F__x5F_item_3_" class="st2" x1="563.2" y1="344.1" x2="570.3" y2="344.1"/>
			
				<line id="svg--team--leafs_x5F__x5F_plant--big_x5F__x5F_leaf--left_x5F__x5F_item_2_" class="st2" x1="571.7" y1="360.3" x2="582.9" y2="360.7"/>
			
				<line id="svg--team--leafs_x5F__x5F_plant--big_x5F__x5F_leaf--left_x5F__x5F_item_1_" class="st2" x1="578.5" y1="347.3" x2="577.3" y2="353.1"/>
			
				<line id="svg--team--leafs_x5F__x5F_plant--big_x5F__x5F_leaf--left_x5F__x5F_item" class="st2" x1="590.4" y1="365" x2="590.2" y2="370.3"/>
		</g>
		<g id="svg--team--leafs_x5F__x5F_plant--big_x5F__x5F_leaf--right">
			<path id="svg--team--leafs_x5F__x5F_plant--big_x5F__x5F_leaf--right_x5F__x5F_item_5_" class="st1" d="M602,383.8
				c0,0,29.1-59.2,37.1-57.9c3.8,0.6,5.5,4.4,6.3,8.1c1,4.9,0.4,9.9-1.6,14.4C639.7,357.9,628.6,375.9,602,383.8z"/>
			<path id="svg--team--leafs_x5F__x5F_plant--big_x5F__x5F_leaf--right_x5F__x5F_item_4_" class="st2" d="M638.9,337.2
				c0,0-30.5,44.3-36.4,46.2"/>
			
				<line id="svg--team--leafs_x5F__x5F_plant--big_x5F__x5F_leaf--right_x5F__x5F_item_3_" class="st2" x1="641.7" y1="344.1" x2="634.6" y2="344.1"/>
			
				<line id="svg--team--leafs_x5F__x5F_plant--big_x5F__x5F_leaf--right_x5F__x5F_item_2_" class="st2" x1="633.2" y1="360.3" x2="622" y2="360.7"/>
			
				<line id="svg--team--leafs_x5F__x5F_plant--big_x5F__x5F_leaf--right_x5F__x5F_item_1_" class="st2" x1="626.4" y1="347.3" x2="627.6" y2="353.1"/>
			
				<line id="svg--team--leafs_x5F__x5F_plant--big_x5F__x5F_leaf--right_x5F__x5F_item" class="st2" x1="614.5" y1="365" x2="614.7" y2="370.3"/>
		</g>
	</g>
	<path id="svg--team--leafs_x5F__x5F_plant--small_1_" class="st1" d="M551.8,398.5c-0.8-0.6-1.4-1.5-1.7-2.5
		c-0.3-1,0.2-2.1,1.2-2.6c1.1-0.4,2.2,0.3,3.1,1.1s1.8,1.6,3,1.4c-1.2-1.1-1.7-2.7-1.4-4.2c0-0.3,0.2-0.6,0.4-0.9
		c0.6-0.6,1.7-0.4,2.4,0.1c2.2,1.6,2.9,4.6,2.9,7.4c0.1-1,0.1-2,0-3.1c-0.1-1,0.3-2,1.1-2.7c0.5-0.3,1.1-0.4,1.7-0.4
		c1-0.1,2,0.1,2.8,0.8c0.8,1,0.7,2.5-0.1,3.5c-0.8,0.9-1.8,1.7-2.9,2.3c-0.8,0.5-1.6,1.2-2.1,2c-0.1,0.1-0.1,0.2-0.2,0.4h-6.3
		C554.3,400.4,553,399.6,551.8,398.5z"/>
	<path id="svg--team--leafs_x5F__x5F_plant--small" class="st1" d="M662.9,373.8c-0.8-0.6-1.4-1.5-1.7-2.5c-0.3-1,0.2-2.1,1.2-2.5
		c1.1-0.4,2.2,0.3,3.1,1.1s1.9,1.6,3,1.4c-1.2-1.1-1.7-2.7-1.4-4.2c0-0.3,0.2-0.6,0.4-0.9c0.6-0.6,1.7-0.4,2.4,0.1
		c2.2,1.6,2.9,4.6,2.9,7.4c0.1-1,0.1-2,0-3.1c-0.1-1,0.3-2,1.1-2.7c0.5-0.3,1.1-0.4,1.7-0.4c1-0.2,2,0.1,2.8,0.8
		c0.8,1,0.7,2.5-0.1,3.5c-0.8,0.9-1.8,1.7-2.9,2.3c-0.8,0.5-1.6,1.2-2.1,2c-0.1,0.1-0.1,0.2-0.2,0.4h-6.3
		C665.4,375.7,664.1,374.8,662.9,373.8z"/>
	<path id="svg--team--leafs_x5F__x5F_plant--small_2_" class="st1" d="M622.8,400.1c-0.8-0.6-1.4-1.5-1.7-2.5
		c-0.3-1,0.2-2.1,1.2-2.6c1.1-0.4,2.2,0.3,3.1,1.1s1.8,1.6,3,1.4c-1.2-1.1-1.7-2.7-1.4-4.2c0.1-0.3,0.2-0.6,0.4-0.9
		c0.6-0.6,1.7-0.4,2.4,0.1c2.2,1.6,2.9,4.6,2.9,7.4c0.1-1,0.1-2,0-3.1c-0.1-1,0.3-2,1.1-2.7c0.5-0.3,1.1-0.4,1.7-0.4
		c1-0.1,2,0.1,2.8,0.8c0.8,1,0.7,2.5-0.1,3.5c-0.8,0.9-1.8,1.7-2.9,2.3c-0.8,0.5-1.6,1.2-2.1,2c-0.1,0.1-0.1,0.2-0.2,0.4h-6.3
		C625.3,402,624,401.1,622.8,400.1z"/>
	<g id="svg--team--leafs_x5F__x5F_plant--medium">
		<g id="svg--team--leafs_x5F__x5F_plant--medium_x5F__x5F_leaf--two">
			<path id="svg--team--leafs_x5F__x5F_plant--medium_x5F__x5F_leaf--two_x5F__x5F_item_3_" class="st1" d="M521.2,349.5
				c0,0-2.4,3.1,1.1,7.8s6.3,8.6,5.2,11.6c0,0-5.2-8.7-9.5-8.8S516.5,354.7,521.2,349.5z"/>
			<path id="svg--team--leafs_x5F__x5F_plant--medium_x5F__x5F_leaf--two_x5F__x5F_item_2_" class="st3" d="M521.2,349.5
				c-0.2,0.3-0.4,0.6-0.5,1c-4.2,4.9-6.4,9.4-2.4,9.6c3.7,0.1,8.2,6.8,9.3,8.4c0,0.1-0.1,0.3-0.1,0.4c0,0-5.2-8.7-9.5-8.8
				S516.5,354.7,521.2,349.5z"/>
			<path id="svg--team--leafs_x5F__x5F_plant--medium_x5F__x5F_leaf--two_x5F__x5F_item_1_" class="st4" d="M516.8,353.4
				c0,1.1,0.1,2,0.3,2c0.2,0,0.3-0.9,0.3-2s-0.2-0.6-0.3-0.6S516.8,352.3,516.8,353.4z"/>
			<path id="svg--team--leafs_x5F__x5F_plant--medium_x5F__x5F_leaf--two_x5F__x5F_item" class="st4" d="M515.3,354.7
				c1,0.5,1.8,0.8,1.9,0.7c0.1-0.1-0.6-0.7-1.6-1.2c-1-0.5-0.6-0.1-0.7,0S514.3,354.2,515.3,354.7z"/>
		</g>
		<g id="svg--team--leafs_x5F__x5F_plant--medium_x5F__x5F_leaf--one">
			<path id="svg--team--leafs_x5F__x5F_plant--medium_x5F__x5F_leaf--one_x5F__x5F_item_3_" class="st1" d="M533.7,349.5
				c0,0,2.4,3.1-1.1,7.8s-6.3,8.6-5.2,11.6c0,0,5.2-8.7,9.5-8.8S538.4,354.7,533.7,349.5z"/>
			<path id="svg--team--leafs_x5F__x5F_plant--medium_x5F__x5F_leaf--one_x5F__x5F_item_2_" class="st3" d="M533.7,349.5
				c0.2,0.3,0.4,0.6,0.5,1c4.2,4.9,6.4,9.4,2.4,9.6c-3.7,0.1-8.2,6.8-9.3,8.4c0,0.1,0.1,0.3,0.1,0.4c0,0,5.2-8.7,9.5-8.8
				S538.4,354.7,533.7,349.5z"/>
			<path id="svg--team--leafs_x5F__x5F_plant--medium_x5F__x5F_leaf--one_x5F__x5F_item_1_" class="st4" d="M538.1,353.4
				c0,1.1-0.1,2-0.3,2c-0.2,0-0.3-0.9-0.3-2s0.2-0.6,0.3-0.6S538.1,352.3,538.1,353.4z"/>
			<path id="svg--team--leafs_x5F__x5F_plant--medium_x5F__x5F_leaf--one_x5F__x5F_item" class="st4" d="M539.7,354.7
				c-1,0.5-1.8,0.8-1.9,0.7c-0.1-0.1,0.6-0.7,1.6-1.2c1-0.5,0.6-0.1,0.7,0S540.6,354.2,539.7,354.7z"/>
		</g>
		<path id="svg--team--leafs_x5F__x5F_plant--medium_x5F__x5F_rock" class="st5" d="M537.4,368.4c0,0-6.6-0.2-8.6-1.6
			s-10.2-3.1-10.7-0.8s-10,11.4-2.5,11.4s17.4-1.2,19.4-2.4S537.4,368.4,537.4,368.4z"/>
		<path id="svg--team--leafs_x5F__x5F_plant--medium_x5F__x5F_shadow" class="st6" d="M515.4,376.5c7.5,0.1,17.4-1.2,19.4-2.4
			c1.5-0.9,2.1-4.2,2.3-5.8h0.2c0,0-0.4,5.4-2.4,6.6s-11.9,2.4-19.4,2.4c-2.2,0-2.9-0.8-2.9-1.9C513,376.1,513.8,376.5,515.4,376.5z
			"/>
	</g>
</g>
<g id="svg--team--people">
	<path id="svg--team--people_x5F__x5F_item_54_" class="st7" d="M345,266.6c-1,0.1-2,0-3,0.2c-1.6,0.3-3.2,1-4.6,1.8
		c-7,4-13.6,9.4-16.4,16.9c-0.2,0.5-0.3,1-0.2,1.5c0.2,0.4,0.5,0.8,0.8,1.1l2.7,2.5c0.3,0.4,0.7,0.6,1.2,0.8
		c0.7,0.2,1.5,0.2,2.2-0.1c7.5-1.7,15.4-3.7,20.6-9.3c2.5-2.6,4.8-6.3,8.4-6.4c1.5,0.2,3,0.4,4.5,0.8c1.5,0.2,3.3-0.5,3.7-1.9
		c0.1-0.7,0-1.5-0.2-2.2l-2.3-7.5c-0.6-2.1-6.8-2.2-8.9-1.8C350.4,263.6,348.3,266.2,345,266.6z"/>
	<path id="svg--team--people_x5F__x5F_item_53_" class="st7" d="M371.5,308.8c0.1,2.6-0.1,5.1-0.3,7.7c-0.4,2-1,4-1.9,5.8
		c-1.4,2.9-3.1,5.7-5.2,8.2c-1.9,2.3-4.3,4.5-7.1,5.4s-6.4,0.3-8.2-2.2c-1.5-2-1.5-4.6-1.4-7.1c0.3-6,1.2-12.2,3.9-17.6
		c1.2-2.3,2.6-4.5,3.8-6.8c2.5-4.8,3.9-10.5,8.2-13.9c2.7,1.2,5.6,2,8.5,2.3c1.1,0.1,4.4,0.2,4.8,1.7c0.3,1-1.9,3.8-2.3,4.7
		C372.6,300.8,371.7,304.8,371.5,308.8L371.5,308.8z"/>
	<path id="svg--team--people_x5F__x5F_item_52_" class="st8" d="M341.1,198.3c0.9,2.3,2.1,4.6,2.3,7.1c0.2,1.5,0,3.1,0,4.6
		c0.1,2.1,0.5,4.2,1,6.2l4.3,17.5c0.8,2.6,1.1,5.3,0.9,8c-0.2,1.8-0.9,3.5-0.9,5.3c0.1,1.4,0.3,2.7,0.6,4c0.8,4.1,0.6,8.2-0.6,12.2
		c-0.1,0.3-0.2,0.6-0.1,0.9c0.1,0.5,0.6,0.8,1,1c4.6,2.5,9.6,4.2,14.8,4.9c4.7-11.1,7.9-22.8,9.7-34.8c1.1-7.2,1.6-14.6,3-21.7
		c0-0.4,0.2-0.8,0.5-1.1c0.5-0.4,1.3-0.2,1.9,0.1c7.8,3.8,15.4,8.1,22.5,13c5.1-6.6,7-15.1,5.2-23.3c-0.9-3.5-2.2-6.8-3.8-10
		c-1.8-3.9-3.9-7.5-6.5-10.9c-5.7-7.1-14-11.7-22.6-14.8c-5.2-1.9-10.6-3.3-16-4.7c-3-0.8-8-3.4-11-1.4c-3.1,2.1-5.1,7.4-6.4,10.7
		c-1.6,4.1-2.4,8.5-2.5,12.9C338.6,189,339.4,193.8,341.1,198.3L341.1,198.3z"/>
	<path id="svg--team--people_x5F__x5F_item_51_" class="st8" d="M402.7,219.4c-1.6,1.7-0.3,4.5-0.6,6.9c-0.2,1.1-0.6,2.1-1.1,3
		l-7.3,14.4c-1.2,2.2-2.1,4.5-2.7,6.9c-1,5.2,1.1,11-1.6,15.6c-0.9,1.5-2.2,2.8-2.5,4.4c-0.1,1.2-0.2,2.5-0.1,3.7
		c-0.3,1.4-0.8,2.8-1.4,4.1c-0.3,1.3-0.6,2.7-0.7,4.1c-0.9,5.9-4,11.2-8.6,14.9c-2.6,2.2-6,3.4-9.5,3.2c-3.4-0.3-6.8-2.6-7.5-6
		c-0.2-1.1-0.2-2.4-0.9-3.3c-1-1.3-3.1-1.4-4.1-2.7l3.8-6.2c1.2-1.9,2.4-3.9,2.6-6.2c0.2-2.8-1.1-5.5-0.6-8.2
		c0.4-2.3,2.1-4.3,2.6-6.6c0.6-2.9-0.6-5.8-1.3-8.6c-1.7-7.1,0.2-14.4,2.1-21.5c2.5-9.3,5-18.8,10-27
		C383.1,209.7,392.3,214.9,402.7,219.4z"/>
	<path id="svg--team--people_x5F__x5F_item_50_" class="st1" d="M402.8,73.4c0.6,1.6,0.3,3.4,0.2,5.1c-0.3,3.8,0.5,7.7,0.4,11.5
		s-1.4,7.6-2.2,11.4c-2.4,10.8-1.8,22-3.9,32.8c-2.6,13.4-9.3,25.9-10.7,39.5c-0.4,4.3-0.4,9-2.7,12.6c-14.1-6.2-27.4-14-39.6-23.3
		c2.7-20,5.4-40.1,5-60.3c-0.2-2.4,0-4.9,0.5-7.3c0.6-2,1.6-3.9,2.7-5.7c3-4.8,6.2-9.4,9.5-14.1c2.1-3,4.3-6.1,7.7-7.4
		s7.3-0.8,10.9-0.1l13.1,2.4C396.3,71.2,401.7,70.2,402.8,73.4z"/>
	<path id="svg--team--people_x5F__x5F_item_49_" class="st9" d="M297.9,150.1c-1.8-1.8-3.7-3.4-5.8-4.8c2.7-3.3,2.2-8.1,2.9-12.3
		c0.5-2.8,1.4-5.4,2.5-8c0.3-0.7,0.7-1.5,1.4-1.7c0.5-0.1,0.9,0,1.4,0.2c2.3,0.8,7.1,0.8,8.9,2.3c2.2,1.8,0.2,5.6-0.6,7.9
		C307.9,135,299,151.2,297.9,150.1z"/>
	<path id="svg--team--people_x5F__x5F_item_48_" class="st7" d="M304.6,293.2c1.2,1.9,1.9,4,2.2,6.1c0.3,2.2-0.7,4.4-2.5,5.7
		c-1.9,1.1-4.5,0.8-6.7,0.1c-9.5-3.1-17.2-10-21.2-19.2c-0.7-3-2.8-5.4-5.6-6.6c-3-1.7-5.9-3.9-7.3-7.1s-0.8-7.4,2.1-9.3
		c1.8-1.1,4-1.3,6-0.8c2,0.6,3.9,1.4,5.7,2.5c3,1.6,6.6,3,9.2,5.2c2.3,2.1,4.4,4.3,6.3,6.7c2.2,2.6,4.4,5.3,6.3,8
		C299.8,285.4,305.1,292.4,304.6,293.2z"/>
	<path id="svg--team--people_x5F__x5F_item_47_" class="st7" d="M248.4,277.1c-0.3,3.9-0.9,7.7-2,11.4c-0.6,2.1-1.4,4.3-3.2,5.6
		c-1.5,0.9-3.1,1.6-4.8,1.8c-1.7,0.6-3.6-0.2-4.3-1.9c-2.6-3.4-5-7-6.1-11.1c-1.5-6,0-12.3,2.7-17.9c1-2.2,2.3-4.3,4.1-6
		c2.2-1.8,4.8-2.9,7.5-3.4c2.8-0.6,6.3-1.8,6.5,1.7C249,263.9,248.9,270.5,248.4,277.1L248.4,277.1z"/>
	<path id="svg--team--people_x5F__x5F_item_46_" class="st8" d="M290.8,133.1c5.3,2.7,11.2,6.2,12.3,12.1c0.7,3.6-0.6,7.2-0.4,10.9
		c0.2,3.2,1.5,6.3,1.4,9.5c-0.2,1.5-0.4,3-0.8,4.5c-0.5,2.8-0.2,5.7-0.3,8.6c-0.3,6.4-2.4,12.6-3.4,19c-0.7,4.5-0.9,9.1-0.5,13.7
		c0.3,3,0.8,5.9,0.8,8.9c0,2.1-0.2,4.3-0.5,6.4c-1,6.6-3.1,13.1-6.1,19.1c-3.7,7.3-3.2,16.6-2.8,24.8c0.2,1.1,0,2.3-0.4,3.3
		c-1,1.8-3.4,2-5.4,1.8c-7.4-0.7-14.2-4.1-19.2-9.7c-0.7-0.7-1.2-1.6-1.4-2.6c-0.2-1.6,1.1-3,2.1-4.3c3.2-4.6,2.4-10.8,2.8-16.5
		c0.3-4.1,1.3-8.1,2.9-11.9c1-2.2,2.1-4.3,2.4-6.7c0.1-2.2-0.3-4.4-1.1-6.5l-2.3-7.3c-3.6-11.3-7.1-22.7-12.5-33.3
		c-3.5,2.3-6.1,5.9-7.1,10c-2,7.2,0.9,15.3-1.9,22.2c-0.5,1-0.8,2-1.1,3c-0.2,0.9-0.2,1.8-0.2,2.7c0.1,7.5,0.5,14.9,1.4,22.4
		c0,1.1,0.4,2.2,0.9,3.2c0.5,0.7,1.1,1.1,1.6,1.8c1.3,1.7,1.1,4.2,0.8,6.3l-1.5,10.3c0,0.5-0.2,1-0.5,1.4c-0.4,0.3-0.8,0.6-1.3,0.7
		c-4.9,1.5-10,2-15.1,1.4c-1.5-0.3-2.9-1-4.1-2c-0.1-1.5,1.8-2.6,1.8-4.1c-0.1-0.9-0.5-1.7-1.2-2.3c-2.9-3.2-6.3-6.6-6.2-10.9
		c0-1.1,0.3-2.3,0.2-3.4c-0.1-2.9-2.1-5.4-2.8-8.1c-0.9-3.4,0.3-7,0.7-10.5c0.6-4.7-0.1-9.5-0.8-14.3l-2.6-17.3
		c-0.3-2.7-0.8-5.4-1.6-8c-1-2.6-2.1-5.1-3.4-7.5c-2.5-5-4.5-10.2-6.5-15.3c-0.6-1.4-1-2.9-1.2-4.4c-0.1-2.6,1.2-5.1,2.9-7.1
		c3.2-3.8,7.5-6.4,12.3-7.4c0.8-0.2,1.6-0.3,2.5-0.1c0.7,0.2,1.3,0.6,1.9,1c12,7.9,27,9.6,40.5,4.8c0.8,0.6,2.2,0.3,3.1-0.1
		c2.5-1.1,4.5-3,6.6-4.6C280.7,136.8,285.6,134.4,290.8,133.1z"/>
	<path id="svg--team--people_x5F__x5F_item_45_" class="st8" d="M132,329.8c0.4,1.2,1,2.3,1.8,3.2c2.8,3.6,6.6,6.5,8.4,10.7
		c0.4,0.9,0.7,1.9,1,2.8c1,2.8,2.8,5.3,5,7.2c1.7,1.4,3.5,2.6,5.5,3.6c3.4,1.8,7,3.5,10.9,3.4c0.8,0,1.5-0.1,2.3-0.3
		c1.2-0.2,2.4-0.7,3.4-1.3c2.5-1.4,4.6-4,4.1-6.8c-0.1-0.5-0.3-1-0.5-1.5c-0.4-0.8-0.9-1.5-1.4-2.2c-1.2-1.9-2.7-3.5-4.5-4.8
		c-2.1-1.3-4.8-1.6-6.7-3.2c-0.8-0.7-1.4-1.5-1.9-2.3c-1.7-2.7-3-5.6-3.8-8.7c-0.6-2.3-1-4.8-2.7-6.5s-4-2.1-6.2-2.5
		c-0.8-0.2-1.5-0.2-2.3-0.2c-1.1,0-2.2,0.4-3.3-0.2s-1.4-1.2-2.6-1.1c-1,0.1-1.9,0.5-2.7,1.2C132.8,322.6,130.9,326.4,132,329.8z"/>
	<path id="svg--team--people_x5F__x5F_item_44_" class="st10" d="M159.2,333.3c0.5,2.6,1.3,5.4,3.3,7.1c1.3,1.1,3.1,1.8,3.7,3.3
		s-0.2,3.5-1.2,4.9c-1.4,1.8-3,3.3-4.9,4.5c-1.6,1.1-3.5,1.6-5.4,1.3c-1.5-0.5-2.8-1.4-3.9-2.5c-2.6-2.4-5.3-5-6.8-8.2
		c-1.5-3.4-1.6-7.4-3.3-10.8c-1-2-2.5-3.7-3.1-5.8c-0.3-0.8-0.3-1.6,0-2.4c0.6-1.1,1.7-1.8,3-1.8c1.2,0,2.5,0.3,3.6,0.8
		c3.5,1.2,7,2.2,10.6,3c1.4,0.3,2.3,0.3,3.1,1.6C158.5,330,159,331.6,159.2,333.3L159.2,333.3z"/>
	<path id="svg--team--people_x5F__x5F_item_43_" class="st8" d="M140.6,297.1c-0.3,0.7-0.4,1.5-0.3,2.3c0.4,1.5,1.9,2.4,3.3,3.1
		l13.5,6.6c0.9,0.4,1.8,0.9,2.7,1.4c2.2,1.5,4.2,3.3,6.1,5.2c1.9,1.9,4.2,3.4,6.7,4.2c2.6,0.6,5.3,0.2,7.7-1
		c1.3-0.6,2.5-1.4,3.5-2.4c0.9-0.8,1.8-1.7,2.5-2.6c0.7-0.7,1.1-1.5,1.4-2.5c0.1-1.4-0.3-2.8-1.3-3.9c-0.5-0.7-1-1.3-1.5-1.9
		c-5.1-5.6-13.5-8.6-20.7-9.7c-2.8-0.6-5.6-1.4-8.3-2.4c-2.7-1-5.6-1.4-8.5-1.1C144.5,292.7,141.7,294.4,140.6,297.1z"/>
	<path id="svg--team--people_x5F__x5F_item_42_" class="st3" d="M140.6,297.1c-0.3,0.7-0.4,1.5-0.3,2.3c0.4,1.5,1.9,2.4,3.3,3.1
		l13.5,6.6c0.9,0.4,1.8,0.9,2.7,1.4c2.2,1.5,4.2,3.3,6.1,5.2c1.9,1.9,4.2,3.4,6.7,4.2c2.6,0.6,5.3,0.2,7.7-1
		c1.3-0.6,2.5-1.4,3.5-2.4c0.9-0.8,1.8-1.7,2.5-2.6c0.7-0.7,1.1-1.5,1.4-2.5c0.1-1.4-0.3-2.8-1.3-3.9c-0.5-0.7-1-1.3-1.5-1.9
		c-5.1-5.6-13.5-8.6-20.7-9.7c-2.8-0.6-5.6-1.4-8.3-2.4c-2.7-1-5.6-1.4-8.5-1.1C144.5,292.7,141.7,294.4,140.6,297.1z"/>
	<path id="svg--team--people_x5F__x5F_item_41_" class="st10" d="M174.4,301.3c1,1.2,1.9,2.5,2.5,3.9c0.6,0.9,0.8,2,0.6,3.1
		c-0.3,0.7-0.8,1.4-1.4,1.8l-1.3,1.2c-0.4,0.4-0.9,0.8-1.4,1c-0.7,0.3-1.5,0.4-2.3,0.3c-1.8,0-3.7,0-5.2-1.1c-2-1.4-2.4-4.4-1.4-6.7
		s2.8-4,4.7-5.6C170.7,298.1,173.3,300.1,174.4,301.3z"/>
	<path id="svg--team--people_x5F__x5F_item_40_" class="st10" d="M182.5,309.2c-0.2,1.3-0.1,2.6,0.3,3.8c0.3,1.1,0.7,2.3,1,3.5v0
		c0.9-0.8,1.8-1.7,2.5-2.6c0.7-0.7,1.1-1.5,1.4-2.5c0.1-1.4-0.3-2.8-1.3-3.9c-0.5-0.7-1-1.3-1.5-1.9c-0.4,0.5-0.7,0.9-0.9,1.2
		C183.4,307.5,182.9,308.3,182.5,309.2z"/>
	<path id="svg--team--people_x5F__x5F_item_39_" class="st8" d="M147.3,252.1c-1.6,6.7-0.9,13.6-0.1,20.4c0.6,5.2,1.4,10.5-0.2,15.5
		c-0.6,1.9-1.5,3.8-1.1,5.7c0.7,3.6,5,5,8.6,5.7c1,0.3,2.1,0.3,3.2,0.2c1.1-0.3,2.1-0.8,2.9-1.5c5.1-3.7,9-8.9,11.2-14.9
		c1.2-4.1,2-8.2,2.2-12.5c0.7-7.1,1.4-14.2,0.4-21.3c-0.3-2.1-0.8-4.1-1-6.2c-0.2-3.6,0-7.3,0.6-10.8c1.3-8.9,3.3-17.6,6-26.2
		c-7.3,1-14.7-0.4-21.2-3.8c1.3,0.7-0.2,11.4-0.3,12.9c-0.5,4.5-1.3,9-2.4,13.3C154,236.9,149.3,244,147.3,252.1z"/>
	<path id="svg--team--people_x5F__x5F_item_38_" class="st3" d="M147.3,252.1c-1.6,6.7-0.9,13.6-0.1,20.4c0.6,5.2,1.4,10.5-0.2,15.5
		c-0.6,1.9-1.5,3.8-1.1,5.7c0.7,3.6,5,5,8.6,5.7c1,0.3,2.1,0.3,3.2,0.2c1.1-0.3,2.1-0.8,2.9-1.5c5.1-3.7,9-8.9,11.2-14.9
		c1.2-4.1,2-8.2,2.2-12.5c0.7-7.1,1.4-14.2,0.4-21.3c-0.3-2.1-0.8-4.1-1-6.2c-0.2-3.6,0-7.3,0.6-10.8c1.3-8.9,3.3-17.6,6-26.2
		c-7.3,1-14.7-0.4-21.2-3.8c1.3,0.7-0.2,11.4-0.3,12.9c-0.5,4.5-1.3,9-2.4,13.3C154,236.9,149.3,244,147.3,252.1z"/>
	<path id="svg--team--people_x5F__x5F_item_37_" class="st8" d="M187.1,213c3.1,8.9,2.4,18.6,1.1,27.9s-3.3,18.6-2.7,28
		c0.2,3.7,0.8,7.5-0.3,11c-0.6,1.7-1.4,3.4-2.4,4.9L158.4,327c-1.3,2.2-3.6,3.7-6.1,3.8c-2.6,0-5.2-0.5-7.6-1.6
		c-1.6-0.5-3.1-1.4-4.4-2.5c-1.3-1.1-2-2.8-1.9-4.5c1.1-7.3,2.7-14.9,4-22.2c0.8-5,2.6-9.8,5.3-14.1c1.9-3.1,4.2-5.8,5.9-9
		c4.7-9.1,3.1-20.3-0.6-29.9c-3.6-9.6-9-18.5-11.9-28.4c-0.9-2.7-1.3-5.6-1.4-8.4c-0.1-6,2.2-11.7,6.4-16c0.6-0.7,1.4-1.2,2.2-1.5
		c1-0.2,2-0.2,3,0.1C164.9,195.5,182.6,199.9,187.1,213z"/>
	<path id="svg--team--people_x5F__x5F_item_36_" class="st10" d="M406.9,80.4c0.4,3.4-0.8,6.8-2.5,9.7
		c-6.5,10.9-21.6,15.7-33.2,10.6c-4.8-2.1-8.8-5.5-12.8-8.9c-1.4-1-2.6-2.4-3.4-4c-1.2-2.9,0.2-6.3,2.6-8.4s5.4-3.1,8.4-4
		C375.9,72.4,404.5,62.6,406.9,80.4z"/>
	<path id="svg--team--people_x5F__x5F_item_35_" class="st8" d="M401.1,69.8c9,7.3,22.2,14.2,32.5,19.6c3.5,1.8,7.4,3.9,8.6,7.7
		c0.5,2.1,0.6,4.2,0.2,6.3c-0.4,4.1-0.9,8.2-2.4,12c-1.8,4.4-5.1,8.1-7.7,12.1c-4.6,7-7.3,15.3-13,21.5c3.8,12.7,8,25.4,9.4,38.7
		c0.1,0.4,0,0.7-0.1,1.1c-0.2,0.2-0.4,0.4-0.6,0.5l-9.5,6.3c-1,0.6-2,1.4-2.8,2.3c-1.7,2.2-1.5,5.3-2.5,7.8
		c-1.2,2.5-3.3,4.5-5.9,5.4c-2.6,0.9-5.4,1.2-8.1,0.9c-3.5-0.2-6.8-1.4-9.7-3.4c-2.3-2-4.3-4.3-5.8-7c-1.2-1.7-2.3-3.6-3.1-5.6
		c-0.9-2.9-1.2-5.9-1-8.9c0-5.7,0.6-11.4,1.6-17c0.4-2.2,1-4.4,1.3-6.7c0.7-4.5,0.6-9.1,1.1-13.7c0.7-5.1,1.9-10.2,3.4-15.1
		c0.9-3,1.5-6.1,2-9.3c1-5.5,2.5-10.9,4.5-16.1l3.1-9.1c0.7-2,1.3-3.9,2.1-5.8c1.4-3.6,3.3-7,3.8-10.8c0.5-4.1-3.9-9.1-2.4-13
		C400.1,70.1,400.8,69.5,401.1,69.8z"/>
	<path id="svg--team--people_x5F__x5F_item_34_" class="st8" d="M439.7,94.9c2.1,1,3.3,3.2,4.1,5.4c1.7,5,2.1,10.3,1.2,15.5
		c-0.3,1.3-0.5,2.6-0.6,4c0,1.5,0.2,3.1,0.5,4.6c0.8,5.9,0,11.8,0.3,17.7c0.3,6.7,1.7,13.7-1.1,19.7c-1.9,4-5.4,7-8.8,9.7
		c-12.9,10.1-27.1,18.3-42.3,24.4c2.6-3.1,2.7-7.9,0.9-11.6s-5-6.5-8.4-8.6c4.4-1,8.7-2.5,12.7-4.5c8-4.1,14.9-10,21.7-16
		c1-0.7,1.8-1.7,2.3-2.9c0.7-2.3-1.2-4.5-2.5-6.5c-4-6.1-3.1-14.1-1.4-21.2c1.9-7.8,4.6-15.5,9.6-21.8
		C430.7,98.9,434.9,96.1,439.7,94.9z"/>
	<path id="svg--team--people_x5F__x5F_item_33_" class="st10" d="M392.2,196.2c-0.7,1.1-1.6,2.1-2.6,2.9c-2.3,1.5-5.5,1-8-0.1
		c-2.4-1-4.6-2.4-6.5-4.1c-0.8-0.9-1.8-1.6-2.9-2.1c-2-0.8-4.8-0.2-5.9-2c-0.1-0.2-0.2-0.4-0.2-0.7c0.1-0.7,0.9-0.9,1.6-0.9
		c3.1-0.2,6.2-1.1,8.9-2.7c-0.9-0.6-1.6-1.4-2.2-2.3c-0.2-0.3-0.4-0.7-0.4-1.1c0.1-0.4,0.3-0.8,0.7-1.1c5-4.8,12.5-6,18.8-3.1
		c0.6,0.2,1.1,0.6,1.5,1.1c0.3,0.5,0.5,1,0.6,1.5c0.5,2.1,2.3,5.4,1.6,7.5C396.4,191.4,393.7,194.1,392.2,196.2z"/>
	<path id="svg--team--people_x5F__x5F_item_32_" class="st8" d="M340,186.5c9.5-11,13.8-25.5,17.7-39.5l2.8-10l6.8-24
		c1-3.5,2-7.1,2.7-10.7c1-6.3,1.4-12.6,1.2-18.9c-0.1-2.6-0.7-5.2-1.8-7.6c-0.7-1.7-1-3.4-1.5-5.1c-0.7-2.4-1.7-4.7-3.1-6.7
		c-0.4-0.6-0.8-1.2-1.4-1.7c-0.9-0.6-2-1.1-3.1-1.3c-2.4-0.7-5-1.1-7.5-1.1c-2.6,0-5,1-6.8,2.9c-1.2,1.5-1.8,3.4-2.8,5.1
		c-0.5,0.7-0.9,1.4-1.2,2.1c-0.4,1.1-0.7,2.3-0.7,3.5c-0.4,4.8-0.7,9.7-1,14.5c-0.1,2.2-0.2,4.4-0.2,6.6c0.1,1.7,0.3,3.4,0.4,5.1
		l1.8,16.7c0.4,3.9,0.1,7.6,0.5,11.5c0.9,9.5-1.2,19-3.3,28.4c-1,4.4-2,8.9-4.2,13c-1.9,3.6-4.7,7.2-4,11.1c0.3,1.4,1,2.7,1.1,4.1
		c-0.1,0.9,0,1.7,0.3,2.6c0.6,1.2,2,1.8,3.3,1.5C337.5,188.3,338.9,187.6,340,186.5z"/>
	<path id="svg--team--people_x5F__x5F_item_31_" class="st10" d="M341.1,142.4c0.3,2.2,0.1,4.4,0.2,6.6c0.2,2.9,0.8,5.7,1.5,8.4
		c0.8,3.1,1.7,6.5,4.5,8.2c0.7,0.4,1.3,0.8,1.9,1.2c0.6,0.5,0.9,1.3,0.6,2.1l-2.1-0.4c0.9,0.7,1.1,2.1,0.4,3s-2.1,1.1-3,0.4
		c-0.1-0.1-0.2-0.2-0.3-0.3c0.1,0.7,0,1.4-0.2,2.1c-0.2,0.7-0.8,1.1-1.5,1.2c-0.4-0.1-0.8-0.2-1.1-0.5l-5.5-3.4
		c-1.6-0.9-3-2.2-4-3.8l-2.4-3.6c-0.5-0.7-1-1.5-1.2-2.3c-0.9-3.1,1.6-6.5,0.3-9.4c-0.4-0.7-0.9-1.4-1.4-2c-2.8-3.8-2.6-9-2.3-13.8
		c0.1-1.6,0.4-3.5,1.8-4.2c1.2-0.4,2.6-0.2,3.6,0.6c1,0.8,2.1,1.5,3.2,2c0.8,0.3,1.6,0.3,2.4,0.6c1.1,0.4,2.1,1.8,2.8,2.7
		C340.3,139.2,341,140.8,341.1,142.4z"/>
	<path id="svg--team--people_x5F__x5F_item_30_" class="st9" d="M274,73.6c-0.7,1.5-1.6,2.9-2.7,4c-1.2,1.2-2.8,1.8-4.4,1.5
		c-1.7-0.3-3-1.7-4.1-3.1c-2.9-3.5-5.9-7-7.9-11.1c-3-6.2-3.5-13.3-3.9-20.2c-0.1-1.8-0.2-3.7,0.7-5.2c1.1-2,3.4-2.9,5.5-3.7
		l11.7-4.4c0.7-0.3,1.5-0.5,2.3-0.4c1.8,0.3,2.5,2.5,3,4.3c0.9,3.2,2.4,6.2,4.4,8.9c2.6,3.5,8.5,8.2,5.1,12.6
		C279.5,62,276.9,67.7,274,73.6z"/>
	<path id="svg--team--people_x5F__x5F_item_29_" class="st11" d="M288.9,53.6c5.1,4.8,6.9,12.3,6.6,19.3s-2.2,13.8-3.3,20.8
		s-1.3,14.3,1.7,20.7c1,2.2,2.4,4.2,3.2,6.5c0.6,2.3,0.8,4.6,0.6,7c0,2.5-0.5,4.9-1.4,7.2c-1.6,3.6-5,6.1-8.2,8.4
		c-6.6,4.7-13.2,9.5-20.9,12c-5.3,1.5-10.7,2.4-16.2,2.5c-3.7,0.3-7.4,0.2-11.1-0.3c-6.4-1.1-12.3-4.2-16.8-8.9
		c-0.8-0.8-1.4-1.6-1.9-2.6c-0.5-1.3-0.7-2.6-0.7-4c-0.2-5-0.2-10.1,0.1-15.1c0.1-4.8,0.8-9.6,2-14.2c1.5-5.4,4-10.4,5.9-15.6
		c6.7-18.2,6-38.8,15.3-55.8c2-3.7,5.4-7.5,9.5-6.9c0.8,0,1.5,0.4,2.1,1c0.5,0.7,0.7,1.5,0.8,2.4c1,8.2,2.4,16.7,6.3,24.1
		c1.5,2.9,3.8,7.4,7.4,8.1s5.6-2.6,7.5-5C280.6,60.9,284.5,57,288.9,53.6L288.9,53.6z"/>
	<path id="svg--team--people_x5F__x5F_item_28_" class="st8" d="M313.4,41.2c1,0.6,2,1.2,2.9,2c2.3,2.2,3.1,5.5,3.1,8.7
		c-0.2,3.2-0.6,6.3-1.2,9.4c-1.2,8.4-0.2,17.1,0.3,25.6c0.1,1.4,0.1,2.8-0.2,4.1c-0.4,1.3-1.1,2.4-1.6,3.7
		c-1.5,3.7-0.4,7.9-1.2,11.8c-0.9,4.1-4.1,7.9-3.5,12.1c0.2,1.6,1,3.1,1.4,4.8s0,3.6-1.4,4.5c-1.4,0.9-3.4,0.2-5.1,0.7
		c-0.7,0.3-1.3,0.5-2,0.9c-2.7,1.1-5.7,0.9-8.2-0.5c-2.5-1.4-4.7-3.1-6.6-5.3c-2.9-3-5.7-6.3-7-10.2c-1.9-5.8-0.2-12,1.8-17.8
		s4.5-11.5,4.1-17.6c-0.2-3.4-1.3-6.7-1.9-10c-0.8-4.6-1.1-9.3-0.9-14c0.1-3.4,0.3-7,1.8-10.1c2.1-4.2,6.3-7,11-7.5
		C304.3,35.9,308.9,38.6,313.4,41.2z"/>
	<path id="svg--team--people_x5F__x5F_item_27_" class="st3" d="M298.9,115.3c0.1,2.5,0.5,4.9,1.3,7.2c1.4-3.1,1.5-6.6,1.7-10
		c0.8-11.7,3.4-22.8,6.1-34.1c-2,1.5-3.2,5.4-4.1,7.7C300.1,95.3,298.4,105.3,298.9,115.3L298.9,115.3z"/>
	<path id="svg--team--people_x5F__x5F_item_26_" class="st8" d="M247.3,33.6c-3.7,1-6.9,3.2-10.5,4.6c-3.7,1.5-7.7,2.2-11.6,3.1
		c-9,2.2-18.1,6.3-23.5,13.8c-4,5.5-5.7,12.4-8.4,18.7c-2.3,5.3-5.4,10.2-7.1,15.7c-2.2,7.1-2,14.8-1.4,22.3
		c0.4,6.1,1.1,12.3,3.9,17.8c1.5,2.9,3.5,5.4,4.9,8.3c1.7,3.4,2.7,7.2,4.1,10.7s3.6,7.1,7,8.9l5.6-3.3c8.3-4.9,16.7-9.8,24.8-15.1
		c7-4.6,14.2-9.9,17.9-17.4c3.3-6.7,3.7-14.5,2.8-21.9s-2.8-14.7-3.8-22c-1.3-9.3-1.1-18.7,0.6-28c0.8-4.2,2.8-8.5,3.2-12.6
		C256.2,32.6,250.5,32.8,247.3,33.6z"/>
	<path id="svg--team--people_x5F__x5F_item_25_" class="st10" d="M212.7,155.5c4.3,4.1,10.4,5.2,15.8,7.7c4,1.8,7.6,4.5,10.6,7.7
		c1.6,1.8,3.2,4.3,2.4,6.6c-0.7,2-2.8,3-4.8,3.7c-2.4,0.9-5.2,1.7-7.6,0.8c-1.4-0.7-2.7-1.5-3.9-2.4c-3.2-1.9-7.3-1.9-10.6-3.7
		c-4.6-2.5-7-7.9-11.3-10.9c-2.4-1.6-5.7-2.9-5.9-5.8c0-1,0.2-2.1,0.6-3c0.9-2.3,2.4-10.4,5.7-10.2
		C207.4,146.1,210,153.5,212.7,155.5z"/>
	<path id="svg--team--people_x5F__x5F_item_24_" class="st10" d="M190.2,119.5c1.4,5,4.7,9.3,8,13.3c2.4,2.9,5.1,6,5.2,9.8
		c0.1,3.6-2.3,6.8-5.4,8.6s-6.7,2.4-10.2,2.6c-2.8,0.3-5.7,0.1-8.5-0.6c-7-1.9-11.9-8-17.4-12.7c-3.3-2.8-7-5.2-9.5-8.7
		s-3.6-8.5-1.1-12.1c0.9-1.1,1.9-2.2,3.1-3.1c4.2-3.6,7.8-7.9,10.6-12.7c1.1-1.9,2.2-4,4.1-5.2c2.7-1.7,6.2-0.9,9.3-0.1
		c3.4,0.9,12.8,2.6,13.5,6.9c0.3,1.8-1.9,4.5-2.2,6.4C189.4,114.6,189.6,117.1,190.2,119.5L190.2,119.5z"/>
	<path id="svg--team--people_x5F__x5F_item_23_" class="st12" d="M207.6,129.2c1,1.8,1.8,3.7,2.5,5.7c2.3,8.1-1.8,16.5-3.8,24.7
		c-2.5,10.5-1.5,21.5-1.6,32.4c-0.1,5-0.6,10.4-4.1,13.8c-1,0.8-1.9,1.7-2.6,2.7c-0.4,0.8-0.7,1.7-0.9,2.5c-2,6.9-9.2,10.9-16.2,9
		c-1-0.3-1.9-0.7-2.8-1.2c-2.9-1.6-5.4-4.4-8.8-4.5c-1,0.1-2.1,0.2-3.1,0.3c-3.3,0.3-6.6-0.9-9.7-2.1c-0.7-0.2-1.4-0.6-2-1.1
		c-0.6-0.5-0.9-1.2-1.4-1.8c-1.9-2-5.1-1.7-7.9-2.3c-4.2-0.9-7.4-4.2-8.3-8.3c-0.6-2.6-0.1-5.4,0.4-8l2.1-11.8
		c0.9-4.3,1.5-8.7,1.8-13.2c0.3-5-0.2-10-1.3-14.9c-0.9-4-2.3-7.9-2.7-11.9c-0.9-7.3,1.1-14.6,5.4-20.5c1.1-1.5,2.5-2.9,4.3-3.1
		c1.5,0,2.9,0.5,4.1,1.4c11.1,6.5,22.2,12.9,33.4,19.2c3,1.9,6.2,3.3,9.6,4.3c1,0.3,2.5,0.2,2.6-0.9c0-0.4-0.1-0.8-0.3-1.1
		c-1.9-3.7-4.7-6.9-6.9-10.4c-2.2-3.5-3.9-7.7-3.3-11.7c0.9-5.6,6.1-9.4,10.4-4.9C201.2,116.5,204.4,123,207.6,129.2z"/>
	<path id="svg--team--people_x5F__x5F_item_22_" class="st10" d="M173.3,200.7c9,0.6,18.2,1.2,26.5,4.6c2.7,1.1,5.5,2.5,8.3,1.8
		c1.4-0.4,2.7-1.1,3.8-2.1c3.5-2.5,6.7-5.3,9.8-8.4c-0.3-1.7-2.6-1.9-4.3-1.9c-4.1,0-8.2-1-11.9-2.9c-1.2-0.7-2.5-1.3-3.8-1.8
		c-3.6-1-7.3,0.9-11,1.8c-5.4,1.4-11.1,0.6-16.6-0.2l-14.9-2.2c-1.4-0.2-3-0.4-4.1,0.5c-0.7,0.7-1.2,1.6-1.4,2.6
		c-1.8,6.1-1,6.6,5.1,7L173.3,200.7z"/>
	<circle id="svg--team--people_x5F__x5F_item_21_" class="st3" cx="376.9" cy="69.8" r="24.5"/>
	<circle id="svg--team--people_x5F__x5F_item_20_" class="st10" cx="376.7" cy="68.7" r="24.5"/>
	<path id="svg--team--people_x5F__x5F_item_19_" class="st8" d="M397.4,37.6c2,1.2,4,2.5,5.1,4.6c0.6,1.4,1,2.8,1.3,4.3
		c1.3,4.6,4.9,8.6,5.1,13.4c0.2,5.2-3.7,9.8-8.2,12.6c-1,0.8-2.2,1.2-3.5,1.2c-1.3-0.1-2.4-0.9-3.6-1.4c-5-2.2-10.7,0.6-16,1.9
		c-5.5,1.3-11.4,1-16.7-1c-2.9-1-5.5-2.8-7.5-5.2c-1.8-2.5-2.4-6-0.9-8.7c0.8-1.4,2-2.6,2-4.2c-0.2-0.9-0.5-1.8-0.8-2.7
		c-0.1-1.5,0.4-3,1.3-4.1c3.5-5.7,8-10.8,13.3-15c1.5-1.3,3.3-2.5,5.3-2.6c4-0.2,7.5,2.8,11.6,2.8C390,33.5,393.4,35.1,397.4,37.6z"
		/>
	<circle id="svg--team--people_x5F__x5F_item_18_" class="st3" cx="286.4" cy="38.2" r="25.3"/>
	<circle id="svg--team--people_x5F__x5F_item_17_" class="st9" cx="286.9" cy="37.6" r="25.3"/>
	<path id="svg--team--people_x5F__x5F_item_16_" class="st8" d="M300.4,51.9c3.6,2,8,1.8,12,0.9c2.3-0.4,4.4-1.3,6.3-2.7
		c1.9-1.4,3.1-3.5,3.2-5.8c0-2.6-1.7-4.9-1.9-7.4c-0.3-3.2,1.9-6.2,2.1-9.5s-1.4-6.2-2.9-9c-2.7-4.8-5.5-9.6-9.6-13.3
		s-9.8-6-15.1-4.8c-2.6,0.6-5.1,2-7.8,2.3c-2.4,0.2-4.8-0.5-7.1-0.8s-5.1-0.1-6.8,1.5c-0.9,0.9-1.5,2.2-2.6,2.9
		c-0.7,0.3-1.5,0.6-2.3,0.9c-2.8,1.1-4,4.2-5,7L256.1,33c2.2,1.5,4.9,2.2,7.3,3.4s4.7,3.1,5.2,5.7c0.4,2-0.3,4.3,0.8,6
		c1.1,1.5,3.2,1.8,5.1,1.5s3.7-0.9,5.5-0.6c4.6,0.7,6.3,3.5,10.6,0S296.4,49.7,300.4,51.9z"/>
	<circle id="svg--team--people_x5F__x5F_item_15_" class="st3" cx="179.4" cy="94.6" r="23"/>
	<circle id="svg--team--people_x5F__x5F_item_14_" class="st10" cx="180.3" cy="93.4" r="23"/>
	<path id="svg--team--people_x5F__x5F_item_13_" class="st8" d="M197.9,70.9c-5.5-4.2-11.6-7.4-18.2-9.6c-4.2-1.4-8.8-2.3-13-1
		c-5.8,1.6-13.5,4.1-17.1,8.9c-1.9,2.3-3.4,4.9-4.4,7.7c-1.7,5.7,0.7,11.8,0.6,17.8c-0.2,6.9-3.9,13.3-7.9,19s-4.8,13.8-7.2,20.3
		c-0.8,2.2-1.1,5.4,1,6.5c1.8,1,4.1-0.3,5.8-1.5l10.2-7.4c0.8-0.7,1.7-1.1,2.7-1.4c2.1-0.5,4.2,0.8,5.9,2.1l21.5,15.2
		c0.9-1.8,0.9-3.8,0.1-5.6c2,0.6,3.5,2.3,5.2,3.5s4.5,1.6,5.7-0.1s0.3-3.9-1.1-5.3s-3.3-2.2-4.7-3.5c-2.8-2.8-3.1-7.1-4.8-10.6
		c-1.3-2.5-3.3-4.5-4.2-7.1c-1.4-4.3,0.4-8.9,2.3-13c2.2-4.9,4.7-10.1,9.4-12.6c1.6-0.9,3.3-1.4,5-2.1c4-1.9,9.1-6.5,11.1-10.6
		C203.5,76.7,200.8,73.2,197.9,70.9z"/>
	<path id="svg--team--people_x5F__x5F_item_12_" class="st3" d="M163.1,146.9c2.2,1.4,4.7,2.3,6.8,3.8s4.1,3.7,4.1,6.3
		c0.1,2.5-1.5,4.7-3.1,6.7l-18.7,24.5l9.5,2.5c-1.5,2.1-1.9,4.8-2.7,7.3s-2.3,5.1-4.8,5.7c-2.3,0.6-4.7-0.6-7.1-0.5
		c-1.8,0.1-3.4,0.9-5.2,1c-2.3,0.1-4.4-1.1-6.2-2.4c-4.2-2.8-8.4-6.8-8.3-11.9c0.1-1.7,0.4-3.4,1-5c2.8-9,5.6-18.2,11.3-25.6
		c3.2-3.9,6.7-7.5,10.6-10.7c0.9-0.9,1.9-1.6,3-2c2.5-0.9,5.1,0.2,7.7,0.9s5.7,0.8,7.2-1.3"/>
	<path id="svg--team--people_x5F__x5F_item_11_" class="st12" d="M162.3,145.4c2.2,1.4,4.7,2.3,6.8,3.8s4.1,3.7,4.1,6.3
		s-1.5,4.7-3.1,6.7l-18.7,24.5l9.5,2.5c-1.5,2.1-1.9,4.8-2.7,7.3s-2.3,5.1-4.8,5.7c-2.3,0.6-4.7-0.6-7.1-0.5c-1.8,0.1-3.4,0.9-5.2,1
		c-2.3,0.1-4.4-1.1-6.2-2.4c-4.2-2.8-8.4-6.8-8.3-11.9c0.1-1.7,0.4-3.4,1-5c2.8-9,5.6-18.2,11.3-25.6c3.2-3.9,6.7-7.5,10.6-10.7
		c0.9-0.9,1.9-1.5,3-2c2.5-0.9,5.1,0.2,7.7,1s5.7,0.8,7.2-1.3"/>
	<g id="svg--team--people_x5F__x5F_group_1_" transform="translate(351.714 48.463)" class="st13">
		<path id="svg--team--people_x5F__x5F_group_x5F__x5F_Item_3_" d="M2.6,14.3c1.9,2.4,4.5,4.2,7.5,5.2c5.3,2,11.2,2.3,16.7,1
			c5.4-1.3,11-4.1,16-1.9c1.2,0.5,2.3,1.3,3.6,1.4c1.3,0,2.5-0.4,3.5-1.2c3.2-1.9,5.8-4.6,7.3-8c0,0.2,0,0.3,0,0.5
			c0.2,5.2-3.7,9.8-8.2,12.6c-1,0.8-2.2,1.2-3.5,1.2c-1.3-0.1-2.4-0.9-3.6-1.4c-5-2.2-10.7,0.6-16,1.9c-5.5,1.3-11.4,1-16.7-1
			c-2.9-1-5.5-2.8-7.5-5.2c-1.8-2.5-2.4-6-0.9-8.7L1,10.5C1.2,11.9,1.8,13.2,2.6,14.3L2.6,14.3z"/>
		<path id="svg--team--people_x5F__x5F_group_x5F__x5F_Item_2_" d="M3.6,1.5C3.5,2.7,3,3.8,2.3,4.7C2.2,4.4,2.1,4.2,2,3.9
			C1.9,2.5,2.4,1.1,3.2,0C3.4,0.5,3.5,1,3.6,1.5L3.6,1.5z"/>
	</g>
	<path id="svg--team--people_x5F__x5F_item_10_" class="st3" d="M264.5,11.6l-6.6,18.8c2.2,1.5,4.9,2.2,7.3,3.4
		c2.4,1.2,4.7,3.1,5.2,5.7c0.4,2-0.3,4.3,0.8,6c1.1,1.5,3.2,1.8,5.1,1.5s3.7-0.9,5.5-0.6c4.6,0.7,6.3,3.5,10.6,0s5.8,0.7,9.7,2.9
		c3.6,2,8,1.8,12,0.9c2.3-0.4,4.4-1.3,6.3-2.6c0.3-0.2,0.5-0.5,0.8-0.7c-0.6,1.3-1.5,2.4-2.6,3.2c-1.9,1.3-4,2.2-6.3,2.7
		c-4,0.9-8.4,1.1-12-0.9c-4-2.2-5.6-6.3-9.7-2.9c-4.2,3.4-6,0.7-10.6,0c-1.8-0.3-3.7,0.4-5.5,0.6s-4,0-5.1-1.5c-1.2-1.7-0.5-4-0.8-6
		c-0.5-2.6-2.8-4.5-5.2-5.7s-5.1-1.9-7.3-3.4l6.6-18.9c0.8-2.1,1.6-4.3,3.1-5.8C265.4,9.4,264.9,10.5,264.5,11.6z"/>
	<g id="svg--team--people_x5F__x5F_group" transform="translate(130.058 68.112)" class="st13">
		<path id="svg--team--people_x5F__x5F_group_x5F__x5F_Item_1_" d="M49.5,74.5c1.7,0.8,3.8,0.9,4.9-0.6c1.2-1.5,0.3-3.9-1.1-5.3
			s-3.3-2.2-4.7-3.5c-2.8-2.8-3.1-7.1-4.8-10.6c-1.3-2.5-3.3-4.5-4.2-7.1c-1.4-4.3,0.4-8.9,2.3-13c2.2-4.9,4.7-10.1,9.4-12.6
			c1.6-0.9,3.3-1.4,5-2.1c4-1.9,9.1-6.5,11.1-10.6C69,5.6,66.7,2.3,63.9,0c1.4,0.9,2.7,1.8,4,2.8c3,2.3,5.6,5.8,3.8,9.4
			c-2,4.1-7,8.7-11.1,10.6c-1.6,0.8-3.4,1.3-5,2.1c-4.7,2.5-7.2,7.7-9.4,12.6c-1.9,4.1-3.8,8.7-2.3,13c0.9,2.6,2.9,4.7,4.2,7.1
			c1.8,3.5,2,7.9,4.8,10.6c1.4,1.4,3.3,2.2,4.7,3.5s2.3,3.7,1.1,5.3s-4,1.2-5.7,0.1C51.8,76.4,50.7,75.3,49.5,74.5z"/>
		<path id="svg--team--people_x5F__x5F_group_x5F__x5F_Item" d="M3,67.7l10.2-7.4c0.8-0.7,1.7-1.1,2.7-1.4c2.1-0.5,4.2,0.8,5.9,2.1
			l21.5,15.2c0.9-1.8,0.9-3.8,0.1-5.6c2,0.6,3.4,2.3,5.1,3.4c-0.2-0.1-0.5-0.2-0.8-0.3c0.8,1.8,0.8,3.8-0.1,5.6L26.2,64.1
			c-1.8-1.2-3.8-2.6-5.9-2.1c-1,0.3-1.9,0.8-2.7,1.4L7.4,70.9c-1.7,1.2-3.9,2.5-5.8,1.5c-1-0.6-1.6-1.8-1.6-3
			C1.1,69,2.1,68.4,3,67.7L3,67.7z"/>
	</g>
	<path id="svg--team--people_x5F__x5F_item_9_" class="st11" d="M388.7,185.9c0,0-43.9,3.5-52.6-2.7l40.2-6.2L388.7,185.9z"/>
	<path id="svg--team--people_x5F__x5F_item_8_" class="st3" d="M388.7,185.9c0,0-43.9,3.5-52.6-2.7l40.2-6.2L388.7,185.9z"/>
	<path id="svg--team--people_x5F__x5F_item_7_" class="st11" d="M388.7,185.9l-12.3-7.8c0,0-36.7,10.5-46.7,6.2l10.2-14.4l36.4,7.1
		L388.7,185.9z"/>
	<path id="svg--team--people_x5F__x5F_item_6_" class="st8" d="M334.1,82.7c-1.4,1.7-2.4,3.6-3.2,5.7c-0.4,1.1-0.5,2.2-0.8,3.3
		c-0.8,2.7-2.1,5.3-3.8,7.6c-3.8,5.5-8.5,10.8-9.4,17.4c-0.3,3.3-0.1,6.6,0.7,9.8c0.3,2.1,1,4.2,1.8,6.2c1,2.1,2.4,3.9,3.5,6
		c1,2,1.9,4.1,2.6,6.2c1.3-1.3,2.1-3.1,3.1-4.6s2.6-2.9,4.5-2.9c2.1,0,3.9,1.8,6,2c0.3,0.1,0.7,0,1-0.1c0.8-0.4,0.8-1.4,0.8-2.2
		c-0.6-5.8-3.9-11.5-2.4-17.1c1.4-5.2,6.6-8.4,9.3-13.1c2-3.4,2.5-7.4,3.1-11.2c0.8-4.6,1.2-9.3,1-14c-0.1-2.4-2-17.2-5.4-15.7
		c-1.2,0.5-2.2,2.8-3,3.8l-3.1,4.3L334.1,82.7z"/>
	<path id="svg--team--people_x5F__x5F_item_5_" class="st11" d="M242.4,178.6l-24.7,20.1L186,193l21.4-16.8L242.4,178.6z"/>
	<path id="svg--team--people_x5F__x5F_item_4_" class="st3" d="M243.3,177.3l-24.7,20.1l-31.7-5.7l21.4-16.8L243.3,177.3z"/>
	<path id="svg--team--people_x5F__x5F_item_3_" class="st11" d="M243.1,176.3l-24.7,20.1l-31.7-5.7l21.4-16.8L243.1,176.3z"/>
	<path id="svg--team--people_x5F__x5F_item_2_" class="st3" d="M243.8,173.9L219.2,194l-31.7-5.7l21.4-16.8L243.8,173.9z"/>
	<path id="svg--team--people_x5F__x5F_item_1_" class="st11" d="M243.6,172.9L219,192.9l-31.7-5.7l21.4-16.8L243.6,172.9z"/>
	<path id="svg--team--people_x5F__x5F_item" class="st10" d="M168.1,355.3c-0.6,0.9-1,1.8-1.2,2.9c-0.2,0.8-0.2,1.6-0.1,2.4
		c1.2-0.2,2.4-0.7,3.4-1.3c2.5-1.4,4.6-4,4.1-6.8c-0.1-0.5-0.3-1-0.5-1.5c-0.7-0.2-1.5,0.1-2,0.6
		C170.4,352.6,169.1,353.9,168.1,355.3L168.1,355.3z"/>
</g>
<g id="svg--team--phone">
	<path id="svg--team--phone_x5F__x5F_item_8_" class="st8" d="M567.9,447.1L567.9,447.1c2-1,4.3-0.1,5.3,1.8
		c0.2,0.4,0.3,0.9,0.4,1.4l1.4,17.8l-8.1,1.5l-4.3-12.9L567.9,447.1z"/>
	<path id="svg--team--phone_x5F__x5F_item_7_" class="st8" d="M283.2,327.9l-124.6,63.2c-4.3,2.2-6,7.4-3.8,11.7
		c0.8,1.6,2.2,3,3.8,3.8l268.2,134.6c9.7,4.9,21.2,4.6,30.6-0.8l113-63.7c4.2-2.4,5.6-7.7,3.2-11.8c-0.9-1.5-2.2-2.7-3.7-3.5
		L290.8,327.8C288.4,326.6,285.6,326.7,283.2,327.9L283.2,327.9z"/>
	<path id="svg--team--phone_x5F__x5F_item_6_" class="st8" d="M157.8,380.1l-3.9,2.9l-0.3,13.9c-0.1,2.2,1.2,4.2,3.1,5.3l272.8,140
		c2,1,4.4,0.2,5.5-1.7c0.3-0.6,0.5-1.2,0.5-1.9v-20.1L157.8,380.1z"/>
	<path id="svg--team--phone_x5F__x5F_item_5_" class="st11" d="M283.2,311.8L158.6,375c-4.3,2.2-6,7.4-3.8,11.7
		c0.8,1.7,2.2,3,3.8,3.8l268.3,134.6c9.7,4.8,21.2,4.6,30.6-0.8l113-63.7c4.2-2.4,5.6-7.7,3.2-11.8c-0.9-1.5-2.2-2.7-3.7-3.5
		L290.8,311.7C288.4,310.6,285.6,310.6,283.2,311.8z"/>
	<path id="svg--team--phone_x5F__x5F_item_4_" class="st8" d="M309,323.3L171.7,393l235.9,117.9l141.5-71.8L309,323.3z"/>
	<ellipse id="svg--team--phone_x5F__x5F_item_3_" class="st8" cx="493.9" cy="480.9" rx="14.5" ry="8.6"/>
	<circle id="svg--team--phone_x5F__x5F_item_2_" class="st8" cx="229.9" cy="345.5" r="1.3"/>
	<circle id="svg--team--phone_x5F__x5F_item_1_" class="st8" cx="225.9" cy="356" r="1.6"/>
	<line id="svg--team--phone_x5F__x5F_item" class="st14" x1="231.8" y1="353.3" x2="247.9" y2="345.8"/>
	<path id="svg--team--phone_x5F__x5F_item--coral" class="st12" d="M463.3,431.5L402,460.9c-6.8,3.3-20,2.5-29.4-1.8l0,0
		c-9.5-4.2-11.6-10.3-4.8-13.6l61.2-29.4c6.8-3.3,20-2.5,29.4,1.8l0,0C467.9,422.1,470.1,428.2,463.3,431.5z"/>
	<path id="svg--team--phone_x5F__x5F_item--grey--middle" class="st15" d="M408.6,406.9l-61.2,29.4c-6.8,3.3-20,2.5-29.4-1.8h0
		c-9.5-4.2-11.6-10.3-4.8-13.6l61.2-29.4c6.8-3.3,20-2.5,29.4,1.8h0C413.2,397.6,415.4,403.7,408.6,406.9z"/>
	<path id="svg--team--phone_x5F__x5F_item--grey--top" class="st15" d="M353.9,382.4l-61.2,29.4c-6.8,3.3-20,2.5-29.4-1.8l0,0
		c-9.5-4.2-11.6-10.3-4.8-13.6l61.2-29.4c6.8-3.3,20-2.5,29.4,1.8l0,0C358.6,373.1,360.7,379.2,353.9,382.4z"/>
</g>
</svg>
