<svg id="svg--offer" xmlns="http://www.w3.org/2000/svg" viewBox="0 0 705.98 620.86"><title>svg--offer</title><path id="svg--offer--bg" d="M566,367.41c-51.63,43.06-83.9,87.17-109.29,126.22C410.91,564,387.47,618,313.34,620c-79.1,2.17-179.2-43.63-234.3-104C37,470,21.11,415.53,60.72,367.41c91.52-111.19,113.1-252.63,252.62-252.63S673.1,278,566,367.41Z" fill="#f2f2f2"/><circle id="svg--offer--sun" cx="441.28" cy="213.8" r="41.08" fill="#ff6584"/><g id="svg--offer--tree--two"><path id="svg--offer--tree--two__item" d="M188.6,343.33c24,68.92-8.66,107.23-59.2,124.8S29.52,475.87,5.57,406.94s37.08-188.4,37.08-188.4S164.65,274.41,188.6,343.33Z" fill="#eb7a6d"/><path id="svg--offer--tree--two__item-2" data-name="svg--offer--tree--two__item" d="M122.41,458.74l-19.11-58,14.2-84.91-17.2,75.81-8.6-26.08,8.94-61L89.43,358.65h0L74,311.74l14.5-51.11L71.55,304.36l-29.26-85.7L78.67,332.93l-1.38-4.76L32.45,293.55,79.94,337.3l15.38,53.05L94.76,389,44.63,353.58l51.72,40.33,1.92,6.64,0,.12.21.52,39,134.58,9.24-3.21L124.11,463.9l15.51-63.56Z" fill="#3f3d56"/></g><path id="svg--offer--tree--one" d="M307.19,477.2l1-61.07,41.3-75.54-41.14,66,.45-27.46,28.46-54.66-28.34,47.39h0l.8-49.38,30.47-43.51-30.35,35.75.5-90.56L307.18,344l.26-4.95-31-47.43L307,348.55l-2.89,55.16-.09-1.47-35.72-49.91,35.61,55.08-.36,6.9-.06.1,0,.57-7.33,139.93h9.79l1.17-72.27,35.53-54.95Z" fill="#3f3d56"/><path id="svg--offer--floor" d="M456.68,494.38c-45.78,70.38-69.22,124.37-143.34,126.4-79.11,2.17-179.2-43.62-234.3-104,43.29-26.44,119.16-53.35,208.59-53.35C351.14,463.46,410.6,477,456.68,494.38Z" fill="#3f3d56"/><g id="svg--offer--woman"><path id="svg--offer--woman__item" d="M212.1,212.53s8.21,5.87,12-5.47,2.27-12.1,2.27-12.1h-9.07Z" fill="#eb7a6d"/><path id="svg--offer--woman__item-2" data-name="svg--offer--woman__item" d="M212.1,212.53s8.21,5.87,12-5.47,2.27-12.1,2.27-12.1h-9.07Z" opacity="0.1" style="isolation:isolate"/><circle id="svg--offer--woman__item-3" data-name="svg--offer--woman__item" cx="234.18" cy="58.83" r="41.42" fill="#2f2e41"/><path id="svg--offer--woman__item-4" data-name="svg--offer--woman__item" d="M198.81,182.53,197,215.15l26,.73-4.4-50.21-15.76-.73Z" fill="#eb7a6d"/><path id="svg--offer--woman__item-5" data-name="svg--offer--woman__item" d="M198.81,182.53,197,215.15l26,.73-4.4-50.21-15.76-.73Z" opacity="0.1" style="isolation:isolate"/><path id="svg--offer--woman__item-6" data-name="svg--offer--woman__item" d="M192.22,293.22l20.52,80.27s1.83,45.81,13.93,69.63,10.26,30.43,10.26,30.43l10.63-4s-4.4-52-4.4-58.27-4.4-26-4.4-26,4-23.82-2.93-46.54,2.93-42.89,2.93-42.89Z" fill="#a0616a"/><path id="svg--offer--woman__item-7" data-name="svg--offer--woman__item" d="M245,302.38s13.57,51.31,12.1,58.28,11,34.45,11,34.45,5.14,38.85,6.6,44,11.73,40.69,11.73,40.69l14.3-2.93s-3.3-88.34-10.63-110.33l-2.57-67.8Z" fill="#a0616a"/><path id="svg--offer--woman__item-8" data-name="svg--offer--woman__item" d="M236.93,461.45s-4.4-3.66-4.4-2.56,2.2,13.92,2.2,13.92-1.83,7.33-2.2,10.63c0,0-9.16,5.5-9.53,12.46s-1.46,12.1,0,12.47,24.93,2.93,25.29-.74a40.79,40.79,0,0,0,0-7.33h1.47V501s3.66-1.1,4-2.2,0-13.93,0-13.93A46.58,46.58,0,0,0,252,473.18l-1.1-16.86s-10.63,2.93-10.63,4.4S236.93,461.45,236.93,461.45Z" fill="#2f2e41"/><path id="svg--offer--woman__item-9" data-name="svg--offer--woman__item" d="M295.57,469.15s0-2.2-6.23,0-9.16,4.4-8.8,6.23S284.21,490,284.21,490s-2.93,13.93-.73,19.06,1.46,5.13,1.46,5.13,44-14.29,43.25-16.49-2.56-9.9-7.33-10.27-10.26,4-12.46-1.46-4.77-7-7-13.56c0,0-.74-5.13-1.1-4.77S296.31,469.88,295.57,469.15Z" fill="#2f2e41"/><path id="svg--offer--woman__item-10" data-name="svg--offer--woman__item" d="M224.84,89.43s12.82,20.16,3.66,24.56-9.9,2.56-9.9,2.56l5.87,43.25,18.32,12.47,25.66-24.93.74-1.1,2.56-29.69-3.3-6.23s-13.19,1.83-14.29-9.16-2.57-18-2.57-18Z" fill="#a0616a"/><path id="svg--offer--woman__item-11" data-name="svg--offer--woman__item" d="M224.84,89.43s12.82,20.16,3.66,24.56-9.9,2.56-9.9,2.56l5.87,43.25,18.32,12.47,25.66-24.93.74-1.1,2.56-29.69-3.3-6.23s-13.19,1.83-14.29-9.16-2.57-18-2.57-18Z" opacity="0.1" style="isolation:isolate"/><circle id="svg--offer--woman__item-12" data-name="svg--offer--woman__item" cx="235.47" cy="69.27" r="24.92" fill="#a0616a"/><path id="svg--offer--woman__item-13" data-name="svg--offer--woman__item" d="M242.8,162s-19.12-46.46-21-46.46-11.35,6.81-11.35,6.81l-5.45,56.51s8.06,29.32,2.2,33.72-35.19,67.44-30.43,74,34.09,25.66,51.68,24.19,63.41-5.87,63.78-10.26-13.2-81.37-15-82.47,2.57-20.89,2.57-20.89l-2.93-75.5-4.4-10.27-13.2,38.49Z" fill="#2f2e41"/><path id="svg--offer--woman__item-14" data-name="svg--offer--woman__item" d="M226.83,116.16c7.53-6.92,4.95-7.24-2-3-6.6,4-27.31-.54-29.66,4.16-2.94,5.86-4.77,60.11-3.67,61.57s-4.76,56.45-2.56,57.18,6.23-4.4,8.06-8.43,18-79.17,18-79.17Z" fill="#eb7a6d"/><path id="svg--offer--woman__item-15" data-name="svg--offer--woman__item" d="M263.6,111.87c-9.65-4.68-5.69-4.93,3.08-2.18,6.93,2.17,24.09,6.65,26.7,7.23,3.3.74,7.7,7,7.33,7.7S297,162.74,297,162.74s3.3,7,4.4,8.06,17.6,48,13.93,51.68-33.72,12.1-36.29,8.43-2.56-25.65-8.8-29.69-16.49-52.41-11.36-67.44C262.38,123.67,267.22,113.62,263.6,111.87Z" fill="#eb7a6d"/><path id="svg--offer--woman__item-16" data-name="svg--offer--woman__item" d="M309.14,219.18l-16.86,11.33s-23.46,3.7-22-9.49,21.26-14.3,21.26-14.3l9.9.73Z" fill="#a0616a"/><path id="svg--offer--woman__item-17" data-name="svg--offer--woman__item" d="M172.79,207.09l16.85,11.31s23.47,3.71,22-9.49-21.26-14.29-21.26-14.29l-9.89.73Z" fill="#a0616a"/><path id="svg--offer--woman__item-18" data-name="svg--offer--woman__item" d="M199.91,116.92a80,80,0,0,0-18,32.25c-5.5,19.8-12.1,25.66-12.1,29.69s1.1,35.19,3.67,35.55,1.1-19,15-18.32c0,0-1.46-2.57,0-3.67s1.84-1.83,1.1-2.56-1.1-3.3,0-4.4,1.84-6.6,1.84-6.6l2.93-1.1Z" fill="#eb7a6d"/><ellipse id="svg--offer--woman__item-19" data-name="svg--offer--woman__item" cx="237.11" cy="51.13" rx="30.42" ry="12.46" fill="#2f2e41"/><path id="svg--offer--woman__item-20" data-name="svg--offer--woman__item" d="M299.61,122.05s48.74,53.15,46.18,58.65S311,228.71,309.87,228s-9.53-22-13.2-22c0,0,12.77-2.84,14.82-6s12.31-16,7.17-19.3-22-21.62-23.09-22.36S299.61,122.05,299.61,122.05Z" fill="#eb7a6d"/><circle id="svg--offer--woman__item-21" data-name="svg--offer--woman__item" cx="234.08" cy="17.4" r="17.4" fill="#2f2e41"/></g><g id="svg--offer--chat--one"><rect id="svg--offer--chat--one__bg" x="422.08" y="91" width="283.91" height="56.05" fill="#3f3d56"/><circle id="svg--offer--chat--one__circle" cx="451.92" cy="118.66" r="16.74" fill="#eb7a6d"/><rect id="svg--offer--chat--one__line--one" x="491.96" y="112.11" width="165.25" height="3.64" fill="#eb7a6d"/><rect id="svg--offer--chat--one__line--two" x="491.96" y="121.57" width="165.25" height="3.64" fill="#eb7a6d"/></g><g id="svg--offer--chat--two"><rect id="svg--offer--chat--two__bg" x="422.08" y="156.51" width="283.91" height="56.05" fill="#3f3d56"/><circle id="svg--offer--chat--two__circle" cx="451.92" cy="184.9" r="16.74" fill="#eb7a6d" opacity="0.3" style="isolation:isolate"/><rect id="svg--offer--chat--two__line--one" x="491.96" y="178.35" width="165.25" height="3.64" fill="#eb7a6d" opacity="0.3" style="isolation:isolate"/><rect id="svg--offer--chat--two__line--two" x="491.96" y="187.82" width="165.25" height="3.64" fill="#eb7a6d" opacity="0.3" style="isolation:isolate"/></g><g id="svg--offer--bag"><path id="svg--offer--bag__item" d="M388.19,451.13c-.14-.86-3.53-21,2.84-29.18a8.34,8.34,0,0,1,6.16-3.36,9.14,9.14,0,0,1,7,2.44c7.65,6.83,8.42,25.47,8.45,26.26l-1.07,0c0-.19-.77-19-8.09-25.51a8.14,8.14,0,0,0-6.23-2.17,7.32,7.32,0,0,0-5.4,3c-6.08,7.8-2.66,28.14-2.63,28.35Z" fill="#2f2e41"/><path id="svg--offer--bag__item-2" data-name="svg--offer--bag__item" d="M353.61,446.25,351,443.06l73.94-10.64v3.72l18.62-1.6-6.38,66-75-1.07Z" fill="#2f2e41"/><path id="svg--offer--bag__item-3" data-name="svg--offer--bag__item" d="M353.61,446.25,351,443.06l73.94-10.64v3.72l18.62-1.6-6.38,66-75-1.07Z" fill="#fff" opacity="0.05" style="isolation:isolate"/><path id="svg--offer--bag__item-4" data-name="svg--offer--bag__item" d="M446.17,504.23l-69.11,29-.58.24-27.13-13.83,1.33-76.87,22.88,1.6-2.66,3.19.57-.11,71.78-13.19Z" fill="#2f2e41"/><path id="svg--offer--bag__item-5" data-name="svg--offer--bag__item" d="M377.06,533.25l-27.71-13.59,1.33-76.87,22.88,1.6-2.66,3.19.57-.11-.31.38Z" opacity="0.1" style="isolation:isolate"/><path id="svg--offer--bag__item-6" data-name="svg--offer--bag__item" d="M399.36,451s-5.32-30.85,8.51-31.91,14.9,28.2,14.9,28.2" fill="none" stroke="#2f2e41" stroke-miterlimit="10" stroke-width="2"/></g></svg>