<svg xmlns="http://www.w3.org/2000/svg" xmlns:xlink="http://www.w3.org/1999/xlink" viewBox="0 0 930 515.7">
    <defs><g id="svg--internet"><linearGradient id="linear-gradient" x1="-950.1" y1="3085.3" x2="-950.1" y2="3086.3" gradientTransform="matrix(678.02 0 0 -365.72 644671.1 1128702.5)" gradientUnits="userSpaceOnUse"><stop offset="0" stop-color="gray" stop-opacity=".3"/><stop offset=".5" stop-color="gray" stop-opacity=".1"/><stop offset="1" stop-color="gray" stop-opacity=".1"/></linearGradient><linearGradient id="linear-gradient-2" x1="-947.7" y1="3084.6" x2="-947.7" y2="3085.6" gradientTransform="matrix(251.99 0 0 -333.96 239102.4 1030521)" xlink:href="#linear-gradient"/><linearGradient id="linear-gradient-3" x1="-944.2" y1="3082.4" x2="-944.2" y2="3083.4" gradientTransform="matrix(130.99 0 0 -261 123860.4 804934.4)" xlink:href="#linear-gradient"/><linearGradient id="linear-gradient-4" x1="-949.4" y1="3084.2" x2="-949.4" y2="3085.2" gradientTransform="matrix(454.66 0 0 -318.07 432320.2 981448.4)" xlink:href="#linear-gradient"/><ellipse id="svg--internet__floor" cx="465" cy="391.2" rx="465" ry="124.5" fill="#191919" opacity=".1" style="isolation:isolate"/><g id="svg--internet__leafs"><g id="svg--internet__leafs-one"><path id="Path_505" data-name="Path 505" d="M851.2 90.6s-35.9 35.8-15.6 89-34.7 141.6-34.7 141.6l1.7-.3a104.3 104.3 0 0 0 69.2-159.7c-15.2-23.2-27.7-50.5-20.6-70.6z" fill="#eb7a6d"/><path id="Path_506" data-name="Path 506" d="M851.2 90.6s-20.3 43.9 0 79.7 3.4 136.4-50.3 150.9" fill="none" stroke="#535461" stroke-miterlimit="10" stroke-width="2"/></g><g id="svg--internet__leafs--two"><path id="Path_507" data-name="Path 507" d="M915 235.5s-40.9-6.5-44.6 30.1-78.6 41.8-78.6 41.8l1.4.9c61.8 40.6 121 25.9 112-28-3.3-20-3-40.2 9.8-44.8z" fill="#eb7a6d"/><path id="Path_508" data-name="Path 508" d="M915 235.5s-40.9-6.5-44.6 30.1-78.6 41.8-78.6 41.8l1.4.9c61.8 40.6 121 25.9 112-28-3.3-20-3-40.2 9.8-44.8z" fill="#f5f5f5" opacity=".2" style="isolation:isolate"/><path id="Path_509" data-name="Path 509" d="M915 235.5s-31.7 7-29.1 35.8-47.2 63.5-94.1 36" fill="none" stroke="#535461" stroke-miterlimit="10" stroke-width="2"/></g></g><g id="svg--internet__device--one"><path id="Path_510" data-name="Path 510" d="M820.4 323.6H756a21.3 21.3 0 0 0 2.3-9.5V21.5A21.5 21.5 0 0 0 736.9 0H239.5A21.5 21.5 0 0 0 218 21.5v292.6a21.3 21.3 0 0 0 2.2 9.5h-66.5a5.7 5.7 0 0 0-5.7 5.7v4.6a31.8 31.8 0 0 0 31.9 31.8h614.3a31.8 31.8 0 0 0 31.9-31.8v-4.6a5.7 5.7 0 0 0-5.7-5.7zm-396 18.2l-5.4-6.2h136.7l-6 6.2z" fill="url(#linear-gradient)"/><rect id="Rectangle_465" data-name="Rectangle 465" x="224.1" y="4.1" width="528.1" height="328" rx="23.3" fill="#535461"/><path id="Rectangle_466" data-name="Rectangle 466" fill="#fff" d="M235.2 52H740v267.9H235.2z"/><circle id="Ellipse_139" data-name="Ellipse 139" cx="487.6" cy="28.6" r="4.5" fill="#fff"/><path id="Path_511" data-name="Path 511" d="M565.5 320.4l-17.3 17.8H425.9l-15.7-17.7h-249a5.6 5.6 0 0 0-5.5 5.5v4.5a31 31 0 0 0 31.1 31h600.5a31 31 0 0 0 31-31V326a5.6 5.6 0 0 0-5.5-5.6z" fill="#535461"/></g><g id="svg--internet__device--two"><path id="Path_512" data-name="Path 512" d="M392.4 61.4h-213A19.5 19.5 0 0 0 160 80.8v295a19.5 19.5 0 0 0 19.5 19.5h213a19.5 19.5 0 0 0 19.4-19.4v-295a19.5 19.5 0 0 0-19.5-19.5z" fill="url(#linear-gradient-2)"/><rect id="Rectangle_467" data-name="Rectangle 467" x="162.9" y="65.4" width="246" height="327" rx="20" fill="#535461"/><path id="Rectangle_468" data-name="Rectangle 468" fill="#fff" d="M175.4 96.3h221v265.1h-221z"/><circle id="Ellipse_140" data-name="Ellipse 140" cx="284.9" cy="80.4" r="3" fill="#fff"/><circle id="Ellipse_141" data-name="Ellipse 141" cx="284.9" cy="376.4" r="9" fill="#fff"/></g><g id="svg--internet__device--three"><path id="Path_513" data-name="Path 513" d="M230.1 161.4H120.8a10.8 10.8 0 0 0-10.8 10.8v239.4a10.8 10.8 0 0 0 10.8 10.8h109.3a10.8 10.8 0 0 0 10.8-10.8V172.2a10.8 10.8 0 0 0-10.8-10.8z" fill="url(#linear-gradient-3)"/><rect id="Rectangle_469" data-name="Rectangle 469" x="110.9" y="163.4" width="129" height="258" rx="11" fill="#535461"/><path id="Rectangle_470" data-name="Rectangle 470" fill="#fff" d="M120.4 187.4h110v210h-110z"/><circle id="Ellipse_142" data-name="Ellipse 142" cx="162.4" cy="175.4" r="1" fill="#fff"/><path id="Rectangle_471" data-name="Rectangle 471" d="M168.4 174.4h20a1 1 0 0 1 1 1 1 1 0 0 1-1 1h-20a1 1 0 0 1-1-1 1 1 0 0 1 1-1z" fill="#fff"/><circle id="Ellipse_143" data-name="Ellipse 143" cx="174.9" cy="407.4" r="7" fill="#fff"/></g><g id="svg--internet__plant"><path id="Path_514" data-name="Path 514" d="M97.7 440s-13.2-45 2.5-78.1a71.1 71.1 0 0 0 5.8-44.7 119.5 119.5 0 0 0-6.3-21" fill="none" stroke="#535461" stroke-miterlimit="10" stroke-width="2"/><path id="Path_515" data-name="Path 515" d="M109.5 275.4c0 5.5-10 21.5-10 21.5s-10-16-10-21.5a10 10 0 0 1 20 0z" fill="#eb7a6d"/><path id="Path_516" data-name="Path 516" d="M126 306c-3 4.5-20 12.5-20 12.5s.2-18.8 3.2-23.4a10 10 0 0 1 17.3 10 8.9 8.9 0 0 1-.5.8z" fill="#eb7a6d"/><path id="Path_517" data-name="Path 517" d="M125.2 358.1c-4.9 2.5-23.7.8-23.7.8s9.8-16.1 14.7-18.6a10 10 0 0 1 9 17.8z" fill="#eb7a6d"/><path id="Path_518" data-name="Path 518" d="M115.8 397.5c-4.4 3.3-23.2 4.8-23.2 4.8s6.9-17.6 11.3-20.9a10 10 0 0 1 11.9 16.1z" fill="#eb7a6d"/><path id="Path_519" data-name="Path 519" d="M85 319.6c4 3.8 22.3 7.8 22.3 7.8s-4.5-18.3-8.5-22.1A10 10 0 0 0 84.2 319l.7.7z" fill="#eb7a6d"/><path id="Path_520" data-name="Path 520" d="M74.5 365.8c4.9 2.5 23.7.8 23.7.8s-9.8-16.1-14.8-18.6a10 10 0 1 0-9.7 17.4l.7.4z" fill="#eb7a6d"/><path id="Path_521" data-name="Path 521" d="M70.5 412.1c4.4 3.3 23.2 4.8 23.2 4.8s-7-17.6-11.4-20.8a10 10 0 0 0-11.8 16z" fill="#eb7a6d"/></g><g id="svg--internet__woman"><path id="Path_522" data-name="Path 522" d="M889 296.8c-11-13.4-24.5-28.8-22.6-46.7 1.5-14.5-2.1-27.9-1.4-42.4 1-20.6-3.1-36.8-18-50-8.7-7.7-23.2-13.8-27.5-12.2-8.6 3-18 1.9-26.7 4-6.7 1.5-11.2 4-14 7-5.5 5-5.6 12-3 19.4a32.9 32.9 0 0 0 13 44.6 33.5 33.5 0 0 0 3.2 1.5c-6.2 2.6-11.5 8.5-13.6 20.6a141 141 0 0 1-6.5 24.3 38.4 38.4 0 0 1-4 1.6l.9.3-2 .7a21 21 0 0 0 3.6 1c-8 20.3-18 32.8-18 32.8s-18.6 4.1-25.9-3l2.8 3.4c-7-3-18.7-7.8-28.7-11.7-7.2-2.9-9 0-9 4a13.3 13.3 0 0 0-5 1.7 48.4 48.4 0 0 0-6.6-3.6c-4.2-1-17.7-8.3-31.1 16.4-7.9 14.4-28 40.6-43.4 60-30 13.9-69.2 31.4-83.7 35.8h-9.3l-2.1-3.3-.7.5-.3-.5s-18.3 12.7-37 12.8a35.2 35.2 0 0 1-7.8-1 75.5 75.5 0 0 0-18.8-3c-5.1-.1-8 1-9.8 3.4a8.7 8.7 0 0 0-.6 1 9.6 9.6 0 0 0-.6 1l-.4 1a2.3 2.3 0 0 0 .5 2 11 11 0 0 0 .9 1l.5.6c2.3 2.4 6.6 5.6 11.9 9.2l4.8 3.2 3.2 2 2.9 1.7 1.1.8 1.3.7 2.3 1.4 1.4.8 2.5 1.6 2.1 1.2a956 956 0 0 0 15.8 9l3.4 2 .3.3 2.2 1.2 3.8 2.1 2.6 1.4 1.3.7 1.3.7.2.2 2.3 1.2a3.3 3.3 0 0 0 2.7-.7c.6-2.8 2.2-8.8 4-9.3s9.2-13.5 11.3-22.2h20.2a89.3 89.3 0 0 0 11.9-1.8c-5.3 3.7-10.4 6-14.4 5-8.5-2-16.6 3.1-17.4 8.2a1.2 1.2 0 0 1-.1.3v.4l-.2.3a1.7 1.7 0 0 0 0 .4v1.3a1.9 1.9 0 0 0 .1.4l.1.3a5 5 0 0 0 .2.5v.2a5 5 0 0 0 .5.6l.1.2a4.2 4.2 0 0 0 .3.4l.3.2.4.4.2.2.5.4.3.2.6.3.3.2.7.3.3.2 1.2.4 2.3.6.9.2 1.2.3.7.2 2.7.5 1.4.3 1.1.2 2.5.4 5 .8 4.4.7 5.7.8 1.2.2 2 .3 3 .3 2 .3 5.1.7 1.7.2 3.2.4 12.3 1.4 4.5.5 2.2.2 1 .1 2.7.3 1.5.2 1.8.2 2.6.3h.3l1.6.1a1.5 1.5 0 0 0 1.7-1.3.6.6 0 0 0 0-.1v-.2a1.4 1.4 0 0 0 .2-.8 34 34 0 0 1 1-7.3l.3-1.3.2-.4.6-1.6a11 11 0 0 0 .4-1.1 1.6 1.6 0 0 1 0-.4l.2-.6c2.1-7.1-.4-20.4-1.1-25.6a27.6 27.6 0 0 0-1.2-5h.4a12 12 0 0 0 3-1.5c15.3-5.5 28.2-11.7 32.2-18a27.9 27.9 0 0 1 19.7 2.1c8 4 67.8 23.5 95.6 32.5 5 4.3 9 6.8 11.1 6.6 0 0 35.5 5.8 49.8-5.4l2 1.3s20.7-10.3 23.9-23.7c1-4.3 1.9-10.7 2.8-17.8a25.9 25.9 0 0 0 7.5-18.2c.7-22.5 9.4-48.2 15.8-71 7.9.6 10.9-.9 18-4.4l-.2-.5 1.4-.7zm-118.8 33.7l-4-1.3a32.7 32.7 0 0 0 3.5-5.8zM748 340l24 14.4.2 3a21.2 21.2 0 0 0 .2 6.6c-10.5-9.4-23-20.8-24.4-24zm-9.8-21c-2.6-1-4.8-2-6.3-2.9l5.6.4a12.3 12.3 0 0 1 .7 2.5zm-64.3 23.5s4.2-9.3 13.5 6.2c1.5 2.4 4.1 6.2 7.7 10.9l-27.2-3.6c3.2-5 5.4-9.6 6-13.5z" fill="url(#linear-gradient-4)"/><path id="Path_523" data-name="Path 523" d="M733.5 305.2s-19-8-34-14-6 14-6 14 25 7 25 8 21 2 21 2z" fill="#f7c4a7"/><path id="Path_524" data-name="Path 524" d="M733.5 305.2s-19-8-34-14-6 14-6 14 25 7 25 8 21 2 21 2z" opacity=".1" style="isolation:isolate"/><path id="Path_525" data-name="Path 525" d="M814.5 226.2s-34-18-40 17-25 59-25 59-18 4-25-3c0 0 17 20 9 22 0 0 18 13 26 9s14-31 17-38 14-68 38-66z" fill="#575988"/><path id="Path_526" data-name="Path 526" d="M814.5 226.2s-34-18-40 17-25 59-25 59-18 4-25-3c0 0 17 20 9 22 0 0 18 13 26 9s14-31 17-38 14-68 38-66z" opacity=".1" style="isolation:isolate"/><path id="Path_527" data-name="Path 527" d="M795.5 214.2s21 24 22 44 24-21 26-22-20-35-22-46-26 24-26 24z" fill="#f7c4a7"/><path id="Path_528" data-name="Path 528" d="M810 224.5l-13.3 12 6.3 25.2 17-16-2-16z" fill="#f7c4a7"/><path id="Path_529" data-name="Path 529" d="M533.5 402.2h-23l9 22 22-6z" fill="#f7c4a7"/><path id="Path_530" data-name="Path 530" d="M515.8 399s-23.8 16.6-44.1 11.5-26-3.2-28.3 3.4c-2.2 6.1 56.8 38.6 66.3 43.7a1 1 0 0 0 1.4-.4 1.3 1.3 0 0 0 .1-.3c.7-2.7 2.2-8.6 3.9-9 2.1-.6 12-19 11.4-26.3S515.8 399 515.8 399z" opacity=".1" style="isolation:isolate"/><path id="Path_531" data-name="Path 531" d="M514.8 399s-23.8 16.6-44.1 11.5-26-3.2-28.3 3.4c-2.2 6.1 56.8 38.6 66.3 43.7a1 1 0 0 0 1.4-.4 1.3 1.3 0 0 0 .1-.3c.7-2.7 2.2-8.6 3.9-9 2.1-.6 12-19 11.4-26.3S514.8 399 514.8 399z" fill="#f3b5b7"/><path id="Path_532" data-name="Path 532" d="M711.5 359.2l-67-9s-109 52-122 53l3 23h20c8 0 86-17 97-34a26.8 26.8 0 0 1 19 2c10 5 106 36 106 36z" fill="#575988"/><path id="Path_533" data-name="Path 533" d="M711.5 359.2l-67-9s-109 52-122 53l3 23h20c8 0 86-17 97-34a26.8 26.8 0 0 1 19 2c10 5 106 36 106 36z" opacity=".1" style="isolation:isolate"/><path id="Path_534" data-name="Path 534" d="M592.5 390.2l-11 14 11 6 16-12z" fill="#f7c4a7"/><path id="Path_535" data-name="Path 535" d="M783.5 374.2s-36-30.8-38.5-36.4-61.5-43.6-65.5-44.6-17-8-30 16-61 82-61 82 15 21 20 20 61-48 65-71c0 0 4-9 13 6s67 87 78 86c0 0 43 7 52-10s-33-48-33-48z" fill="#575988"/><path id="Path_536" data-name="Path 536" d="M804 227.7s-12.5 5.5-13.5 28.5-23 62-23 62l2 46s24 24 26 39 19 25 19 25 20-10 23-23 5-45 10-57 2-87 2-87l-15-26-8-9-21 24s-11.5-15.5-1.5-22.5z" fill="#dddbe2"/><path id="Path_537" data-name="Path 537" d="M774.5 349.2s-3-36 6-44l18-51s6.5-24.5 5.5-26.5-23.5 19.5-23.5 19.5l-15 53 4 56z" opacity=".1" style="isolation:isolate"/><path id="Path_538" data-name="Path 538" d="M773.5 349.2s-3-36 6-44l18-51s7-25 6-27-24 20-24 20l-15 53 4 56z" fill="#575988"/><path id="Path_539" data-name="Path 539" d="M780.5 333.2s-50-16-53-20-35-30-46-12 41 23 41 23l53 32z" fill="#f7c4a7"/><path id="Path_540" data-name="Path 540" d="M594.7 404.1l-14.8-2.6s-24.3 31-36.9 27.9-24.3 10.4-11 14.8c12 4 64.2 9.4 74 10.4a1.5 1.5 0 0 0 1.7-1.3A32 32 0 0 1 610 442c2.7-6.5 0-20.6-.7-26a25.8 25.8 0 0 0-3-9z" opacity=".1" style="isolation:isolate"/><path id="Path_541" data-name="Path 541" d="M594.4 405.1l-14.8-2.7s-24.2 31-36.8 28-24.3 10.4-11 14.8c12 3.9 64.2 9.4 74 10.4a1.5 1.5 0 0 0 1.7-1.3.5.5 0 0 0 0-.1 32 32 0 0 1 2.2-11.3c2.6-6.5 0-20.6-.8-26a25.8 25.8 0 0 0-2.9-9z" fill="#f3b5b7"/><circle id="Ellipse_144" data-name="Ellipse 144" cx="803" cy="193.7" r="32" opacity=".1" style="isolation:isolate"/><circle id="Ellipse_145" data-name="Ellipse 145" cx="800" cy="193.7" r="32" fill="#f7c4a7"/><path id="Path_542" data-name="Path 542" d="M831.5 225.2s38 13 38 40-21 70-22 105-56 30-56 30-8-118 0-127 44-44 40-48z" fill="#575988"/><path id="Path_543" data-name="Path 543" d="M824.5 281.2s-14 62-47 51c0 0-17 25-5 36 0 0 29 7 48-12s33-26 36-49 5-55-5-52-27 26-27 26z" opacity=".1" style="isolation:isolate"/><path id="Path_544" data-name="Path 544" d="M825.5 280.2s-14 62-47 51c0 0-17 25-5 36 0 0 29 7 48-12s33-26 36-49 5-55-5-52-27 26-27 26z" fill="#575988"/><path id="Path_545" data-name="Path 545" d="M610.5 439.7a1 1 0 0 1 0 .3 29.5 29.5 0 0 0-1.6 5.3l.8-2.4a14.7 14.7 0 0 0 .8-3.2z" fill="#dddbe2"/><path id="Path_546" data-name="Path 546" d="M532.6 442.2c-4.1-1.3-5.9-3.5-6-5.9-1.6 3.3-.6 7 5.3 8.8 12 4 64 9.5 74 10.5a1.5 1.5 0 0 0 1.6-1.3.6.6 0 0 0 0-.1 1.5 1.5 0 0 0-1.3-1.5c-10.9-1.2-61.7-6.6-73.6-10.5z" fill="#dddbe2"/><path id="Path_547" data-name="Path 547" d="M443.8 412.1a12.4 12.4 0 0 1 1-2 9.8 9.8 0 0 0-2.4 3.8c-2.2 6.1 56.9 38.6 66.3 43.7a1 1 0 0 0 1.4-.5 1.3 1.3 0 0 0 .1-.2 1 1 0 0 0-.5-1.2c-10.4-5.7-68-37.5-66-43.6z" fill="#dddbe2"/><path id="Path_548" data-name="Path 548" d="M515.4 446.1c-.5.2-1 .9-1.5 1.8h.2c.4-.1 1.2-1 2-2.3a2 2 0 0 1-.7.5z" fill="#dddbe2"/><path id="Path_549" data-name="Path 549" d="M795.6 221.9c-2.9 6.2-3.5 13.2-5.5 19.7a43.4 43.4 0 0 1-26.8 27.8c10.4 4.1 22.7-1 30.7-9.3s12.7-19.6 17.2-30.5c11.7 7.9 10.3 25.9 14.2 40a44.2 44.2 0 0 0 23.6 28 42.2 42.2 0 0 0 36-.7c-10.6-13-25.8-30.9-24-48.3 1.4-14-8.6-24.8-8-38.9 1-20-6.6-30.1-21-43-8.3-7.5 4.9-18-6-15-4.2 1.3-8.7-3.3-12.9-1.8-8.2 3-17.2 1.8-25.7 3.8-44.3 10.4 12.3 59.1 8.2 68.2z" opacity=".1" style="isolation:isolate"/><path id="Path_550" data-name="Path 550" d="M796.6 220.9c-2.9 6.2-3.5 13.2-5.5 19.7a43.4 43.4 0 0 1-26.8 27.8c10.4 4.1 22.7-1 30.7-9.3s12.7-19.6 17.2-30.5c11.7 7.9 10.3 25.9 14.2 40a44.2 44.2 0 0 0 23.6 28 42.2 42.2 0 0 0 36-.7c-10.6-13-24.8-27.9-23-45.3 1.4-14-.7-28.5 0-42.6 1-20-8.8-39.3-23.2-52.1a31.7 31.7 0 0 0-25.6-7c-8.3 3-17.3 1.8-25.8 3.8-44.3 10.4 12.3 59.1 8.2 68.2z" fill="#fc6681"/></g></g></defs>
</svg>