<svg xmlns="http://www.w3.org/2000/svg" xmlns:xlink="http://www.w3.org/1999/xlink" viewBox="0 0 555.5 391.3">
    <defs><g id="svg--contact--page"><linearGradient id="linear-gradient" x1="-1108.4" y1="3008.3" x2="-1108.4" y2="3009.3" gradientTransform="matrix(37.88 0 0 -125.82 42427.8 378891)" gradientUnits="userSpaceOnUse"><stop offset="0" stop-color="gray" stop-opacity=".3"/><stop offset=".5" stop-color="gray" stop-opacity=".1"/><stop offset="1" stop-color="gray" stop-opacity=".1"/></linearGradient><linearGradient id="linear-gradient-2" x1="-1126.9" y1="2993.5" x2="-1126.9" y2="2994.5" gradientTransform="matrix(98.05 0 0 -73.75 110670 221097.7)" xlink:href="#linear-gradient"/><g id="svg--contact--page__tree--one" opacity=".1"><ellipse id="Ellipse_148" data-name="Ellipse 148" cx="227.1" cy="238.8" rx="8.3" ry="10.9" fill="#3f3d56"/><path id="Path_614" data-name="Path 614" d="M233.6 192.2a13.2 13.2 0 0 0 1.8-6.7c0-6-3.8-10.9-8.3-10.9s-8.4 5-8.4 11a13 13 0 0 0 1.8 6.6 13.6 13.6 0 0 0 0 13.3 13.6 13.6 0 0 0 0 13.3 13 13 0 0 0-1.8 6.7c0 6 3.7 10.9 8.3 10.9s8.4-5 8.4-11a13 13 0 0 0-1.8-6.6 13.6 13.6 0 0 0 0-13.3 13.6 13.6 0 0 0 0-13.3z" fill="#3f3d56"/><ellipse id="Ellipse_149" data-name="Ellipse 149" cx="227.1" cy="172.2" rx="8.3" ry="10.9" fill="#3f3d56"/><ellipse id="Ellipse_150" data-name="Ellipse 150" cx="227.1" cy="158.9" rx="8.3" ry="10.9" fill="#3f3d56"/><path id="Path_615" data-name="Path 615" d="M196 67.8a38.1 38.1 0 0 1-3.2-4.6l21.9-3.6-23.7.2a40 40 0 0 1-.7-31.6L222 44.7l-29.2-21.5A39.9 39.9 0 0 1 262 62.6a40.4 40.4 0 0 1-3.5 5.2A39.9 39.9 0 0 1 263 75l-28.4 14.8L265 79.7a39.9 39.9 0 0 1-6.4 37.4 39.9 39.9 0 1 1-62.7 0 39.9 39.9 0 0 1 0-49.3z" fill="#eb7a6d"/><path id="Path_616" data-name="Path 616" d="M267.1 92.4a39.7 39.7 0 0 1-8.5 24.7 39.9 39.9 0 1 1-62.7 0c-5.3-6.8 71.2-29.1 71.2-24.7z" opacity=".1" style="isolation:isolate"/></g><g id="svg--contact--page__tree--two" opacity=".1"><ellipse id="Ellipse_151" data-name="Ellipse 151" cx="324.8" cy="212.5" rx="6.2" ry="8.1" fill="#3f3d56"/><path id="Path_617" data-name="Path 617" d="M329.7 177.7a9.8 9.8 0 0 0 1.3-5c0-4.5-2.8-8.2-6.3-8.2s-6.2 3.7-6.2 8.2a9.7 9.7 0 0 0 1.3 5 10.2 10.2 0 0 0 0 10 10.2 10.2 0 0 0 0 10 9.7 9.7 0 0 0-1.3 5c0 4.4 2.8 8 6.2 8s6.3-3.7 6.3-8.2a9.7 9.7 0 0 0-1.3-5 10.2 10.2 0 0 0 0-10 10.2 10.2 0 0 0 0-9.8z" fill="#3f3d56"/><ellipse id="Ellipse_152" data-name="Ellipse 152" cx="324.8" cy="162.7" rx="6.2" ry="8.1" fill="#3f3d56"/><ellipse id="Ellipse_153" data-name="Ellipse 153" cx="324.8" cy="152.8" rx="6.2" ry="8.1" fill="#3f3d56"/><path id="Path_618" data-name="Path 618" d="M301.5 84.7a28 28 0 0 1-2.3-3.4l16.3-2.7-17.7.1a29.9 29.9 0 0 1-.5-23.6L321 67.4l-21.9-16A29.8 29.8 0 1 1 350.8 81a30.6 30.6 0 0 1-2.5 3.7 30.5 30.5 0 0 1 3.4 5.4l-21.2 11 22.6-7.6a29.8 29.8 0 0 1-4.8 28 29.8 29.8 0 1 1-46.8 0 29.8 29.8 0 0 1 0-36.8z" fill="#eb7a6d"/><path id="Path_619" data-name="Path 619" d="M354.7 103.1a29.6 29.6 0 0 1-6.4 18.4 29.8 29.8 0 1 1-46.8 0c-4-5 53.2-21.7 53.2-18.4z" opacity=".1" style="isolation:isolate"/></g><ellipse id="svg--contact--page__floor--four" cx="277.8" cy="384.8" rx="277.8" ry="6.5" fill="#eb7a6d" opacity=".1" style="isolation:isolate"/><ellipse id="svg--contact--page__floor--three" cx="277.8" cy="331.6" rx="277.8" ry="6.5" fill="#eb7a6d" opacity=".1" style="isolation:isolate"/><ellipse id="svg--contact--page__floor--one" cx="277.8" cy="220.6" rx="277.8" ry="6.5" fill="#eb7a6d" opacity=".1" style="isolation:isolate"/><ellipse id="svg--contact--page__floor--two" cx="277.8" cy="276.1" rx="277.8" ry="6.5" fill="#eb7a6d" opacity=".1" style="isolation:isolate"/><g id="svg--contact--page__cloud--two" fill="#eb7a6d"><path id="Path_632" data-name="Path 632" d="M468.4 51.7a13.4 13.4 0 0 0-7.7.9 11.5 11.5 0 0 1-9.3 0 13 13 0 0 0-11 .2 7 7 0 0 1-3.2.8c-4.4 0-8.1-4.5-8.9-10.4a8.6 8.6 0 0 0 2.2-2.4c2.6-4.2 6.6-6.9 11.2-6.9s8.5 2.7 11 6.8a8.5 8.5 0 0 0 7.5 4c3.7 0 6.8 2.9 8.2 7z" opacity=".1" style="isolation:isolate"/><path id="Path_633" data-name="Path 633" d="M482 33.2l-7.2 4.5 4.4-7.9a7.2 7.2 0 0 0-4.3-1.5h-.2a8 8 0 0 1-1.4-.2l-2.5 1.6 1-2a8.6 8.6 0 0 1-4.2-3.1l-4.4 2.7 2.7-5a12.7 12.7 0 0 0-9.7-4.9c-4.6 0-8.6 2.7-11.2 6.9a8.3 8.3 0 0 1-7.4 4h-.2c-5 0-9 5.6-9 12.6s4 12.7 9 12.7a6.8 6.8 0 0 0 3.1-.8 13 13 0 0 1 11-.2 11.4 11.4 0 0 0 9.3 0 13.1 13.1 0 0 1 11 .2 7 7 0 0 0 3 .8c5 0 9-5.7 9-12.7a16 16 0 0 0-1.8-7.7z" opacity=".1" style="isolation:isolate"/></g><g id="svg--contact--page__cloud--one" fill="#eb7a6d"><path id="Path_634" data-name="Path 634" d="M163.2 47.8a9.4 9.4 0 0 0-5.5.6 8 8 0 0 1-6.5 0 9.1 9.1 0 0 0-7.7.1 4.8 4.8 0 0 1-2.2.5c-3 0-5.7-3-6.2-7.2a6 6 0 0 0 1.6-1.7 8.7 8.7 0 0 1 15.6 0 6 6 0 0 0 5.1 2.8h.1c2.5 0 4.6 2 5.7 4.9z" opacity=".1" style="isolation:isolate"/><path id="Path_635" data-name="Path 635" d="M172.6 34.8l-5 3.2 3-5.6a5 5 0 0 0-3-1 6 6 0 0 1-1-.1l-1.8 1 .8-1.3a6 6 0 0 1-3-2.2l-3 1.9 1.8-3.5a9 9 0 0 0-6.8-3.5 9.3 9.3 0 0 0-7.8 4.9 5.8 5.8 0 0 1-5.2 2.7h-.1c-3.5 0-6.4 4-6.4 9s2.9 8.8 6.4 8.8a4.8 4.8 0 0 0 2.2-.6 9.2 9.2 0 0 1 7.6-.1 7.8 7.8 0 0 0 6.5 0 9.2 9.2 0 0 1 7.6.2 4.7 4.7 0 0 0 2.2.5c3.5 0 6.4-4 6.4-8.9a11.2 11.2 0 0 0-1.3-5.4z" opacity=".1" style="isolation:isolate"/></g><g id="svg--contact--page__cloud--three" fill="#eb7a6d"><path id="Path_636" data-name="Path 636" d="M74.2 105a9.4 9.4 0 0 1 5.4.7 8 8 0 0 0 6.5 0 9.2 9.2 0 0 1 7.7.1 4.8 4.8 0 0 0 2.2.6c3.1 0 5.7-3.1 6.2-7.3a6 6 0 0 1-1.5-1.7 8.7 8.7 0 0 0-15.6 0 6 6 0 0 1-5.2 2.9c-2.5 0-4.7 2-5.7 4.8z" opacity=".1" style="isolation:isolate"/><path id="Path_637" data-name="Path 637" d="M64.7 92.2l5 3.1-3-5.5a5 5 0 0 1 3-1 6 6 0 0 0 1-.2l1.8 1.1-.8-1.3a6 6 0 0 0 3-2.3l3 2-1.7-3.5a8.9 8.9 0 0 1 6.8-3.5 9.4 9.4 0 0 1 7.9 4.8 5.8 5.8 0 0 0 5.1 2.8h.2c3.5 0 6.3 4 6.3 8.9s-2.8 8.8-6.3 8.8a4.9 4.9 0 0 1-2.2-.5 9.1 9.1 0 0 0-7.7-.2 7.8 7.8 0 0 1-3.3.8 8 8 0 0 1-3.2-.7 9.2 9.2 0 0 0-7.6.1 4.6 4.6 0 0 1-2.2.6c-3.5 0-6.3-4-6.3-8.9a11.3 11.3 0 0 1 1.2-5.4z" opacity=".1" style="isolation:isolate"/></g><g id="svg--contact--page_plant--four"><path id="Path_638" data-name="Path 638" d="M362.8 329.5c2-3.6-.3-7.9-2.7-11s-5.6-6.5-5.5-10.5c0-5.8 6.2-9.2 11.1-12.2a54.4 54.4 0 0 0 10-8 14.7 14.7 0 0 0 3-4.2c1-2.2 1-4.8 1-7.3q-.3-12.3-1.2-24.6" fill="none" stroke="#3f3d56" stroke-miterlimit="10" stroke-width="4"/><path id="Path_639" data-name="Path 639" d="M387.8 251.2a9 9 0 0 0-4.5-7.4l-2 4V243a9 9 0 1 0 6.5 8.2z" fill="#eb7a6d"/><path id="Path_640" data-name="Path 640" d="M371.7 312.1a9 9 0 0 1-17-3.6 8.6 8.6 0 0 1 .6-3.7 9 9 0 0 1 16.8.1l-5.6 4.6 6.2-1.5a9 9 0 0 1-1 4.1z" fill="#eb7a6d"/><path id="Path_641" data-name="Path 641" d="M367.3 294.7a9 9 0 0 1-2.9-17.7v3.7l2-4a9 9 0 1 1 .8 18z" fill="#eb7a6d"/><path id="Path_642" data-name="Path 642" d="M389.1 280.1a9 9 0 0 1-1-18 9.1 9.1 0 0 1 5 1.2l-1.6 4.4 3.2-3.2a9 9 0 0 1-5.6 15.6z" fill="#eb7a6d"/><path id="Path_643" data-name="Path 643" d="M386.6 253.6c-2.1.2-4.2.9-6.2 1s-4.4-.4-5.7-2a30.1 30.1 0 0 1-1.7-2.9 6.3 6.3 0 0 0-2.3-2.1 9 9 0 1 0 16 8.1 8.6 8.6 0 0 0 .8-2.2l-1 .1z" opacity=".1" style="isolation:isolate"/><path id="Path_644" data-name="Path 644" d="M389.1 280.1a9 9 0 0 1-8.6-12.8 6.7 6.7 0 0 1 1.9 1.8 29.9 29.9 0 0 0 1.7 3c1.4 1.6 3.8 2.2 6 2s4.3-.7 6.5-.8h.9a9 9 0 0 1-8.4 6.8z" opacity=".1" style="isolation:isolate"/><path id="Path_645" data-name="Path 645" d="M367.3 294.7a9 9 0 0 1-8.7-12.7 7.4 7.4 0 0 1 2 1.8 30 30 0 0 0 2 3c1.5 1.7 4 2.3 6.3 2.2s4.4-.6 6.6-.7a9 9 0 0 1-8.2 6.3z" opacity=".1" style="isolation:isolate"/><path id="Path_646" data-name="Path 646" d="M371.7 312.1a9 9 0 0 1-17-3.6 8.6 8.6 0 0 1 .6-3.7 9 9 0 0 1 2 1.8c.8 1 1.4 2.2 2.4 3.2 1.8 1.8 4.8 2.5 7.5 2.6a38.7 38.7 0 0 0 4.5-.3z" opacity=".1" style="isolation:isolate"/></g><g id="svg--contact--page__plant--one"><path id="Path_656" data-name="Path 656" d="M213.8 216.6c-2-3.5.2-7.8 2.7-11s5.6-6.4 5.5-10.4c0-5.8-6.2-9.2-11.1-12.3a54.4 54.4 0 0 1-10-8 14.6 14.6 0 0 1-3-4c-1-2.3-1-5-1-7.4q.3-12.3 1.2-24.7" fill="none" stroke="#3f3d56" stroke-miterlimit="10" stroke-width="4"/><path id="Path_657" data-name="Path 657" d="M188.8 138.3a9 9 0 0 1 4.5-7.3l2 4V130a9 9 0 1 1-6.5 8.3z" fill="#eb7a6d"/><path id="Path_658" data-name="Path 658" d="M204.9 199.3a9 9 0 1 0-.5-7.3l5.7 4.6-6.2-1.5a9 9 0 0 0 1 4.2z" fill="#eb7a6d"/><path id="Path_659" data-name="Path 659" d="M209.3 181.8a9 9 0 0 0 2.9-17.7v3.8l-2-4a9 9 0 0 0-9.4 8.5 8.8 8.8 0 0 0 .4 3 9 9 0 0 0 8.1 6.4z" fill="#eb7a6d"/><path id="Path_660" data-name="Path 660" d="M187.5 167.2a9 9 0 1 0-4-16.8l1.6 4.4-3.3-3.1a9 9 0 0 0-3 6.2 8.6 8.6 0 0 0 .3 2.5 9 9 0 0 0 8.4 6.8z" fill="#eb7a6d"/><path id="Path_661" data-name="Path 661" d="M190 140.8c2.1.2 4.1.8 6.2 1s4.4-.4 5.7-2a30 30 0 0 0 1.7-3 6.5 6.5 0 0 1 2.3-2.1 9 9 0 1 1-16 8.2 9.3 9.3 0 0 1-.8-2.2 8.9 8.9 0 0 1 1 0z" opacity=".1" style="isolation:isolate"/><path id="Path_662" data-name="Path 662" d="M187.5 167.2a9 9 0 0 0 8.5-12.8 6.8 6.8 0 0 0-1.8 1.8 30.8 30.8 0 0 1-1.8 3c-1.4 1.7-3.8 2.2-6 2s-4.3-.6-6.4-.8h-1a9 9 0 0 0 8.4 6.9z" opacity=".1" style="isolation:isolate"/><path id="Path_663" data-name="Path 663" d="M209.3 181.8a9 9 0 0 0 8.7-12.7 7 7 0 0 0-1.9 1.9 28.4 28.4 0 0 1-2 3c-1.5 1.7-4 2.3-6.3 2.2s-4.4-.6-6.6-.8a9 9 0 0 0 8.1 6.4z" opacity=".1" style="isolation:isolate"/><path id="Path_664" data-name="Path 664" d="M204.9 199.3a9 9 0 0 0 16.4-7.3 8.7 8.7 0 0 0-2 1.8c-.9 1-1.5 2.2-2.4 3.2a11.2 11.2 0 0 1-7.5 2.6 38.9 38.9 0 0 1-4.5-.3z" opacity=".1" style="isolation:isolate"/></g><g id="svg--contact--page__circle--phone"><circle id="Ellipse_170" data-name="Ellipse 170" cx="447.2" cy="145.2" r="73.1" fill="#3f3d56"/><path id="Path_665" data-name="Path 665" d="M478.6 164a55.3 55.3 0 0 0-11.7-7.8c-3.5-1.7-4.8-1.7-7.3.1-2 1.5-3.4 2.9-5.8 2.4s-7-4-11.6-8.6-8-9.2-8.5-11.6.9-3.7 2.3-5.8c1.8-2.5 1.9-3.8.2-7.3-1.5-3-5.3-9.1-7.9-11.7s-3-2-4.5-1.4a26 26 0 0 0-4.1 2.2c-2.6 1.7-4 3.1-5 5.2s-2.2 6.1 3.7 16.5a92 92 0 0 0 16.1 21.5 91.8 91.8 0 0 0 21.7 16.3c10.3 5.8 14.3 4.7 16.4 3.7s3.6-2.4 5.3-5a26 26 0 0 0 2.2-4.1c.5-1.4 1-2-1.5-4.6z" fill="#eb7a6d"/><path id="Path_666" data-name="Path 666" d="M447.2 72a73.1 73.1 0 1 0 73.1 73.2 73.1 73.1 0 0 0-73-73.1zm0 136.5a63.4 63.4 0 1 1 63.4-63.4 63.4 63.4 0 0 1-63.4 63.4z" opacity=".1" style="isolation:isolate"/></g><g id="svg--contact--page__circle--msg"><circle id="Ellipse_171" data-name="Ellipse 171" cx="279.3" cy="256.2" r="73.1" fill="#3f3d56"/><path id="Path_667" data-name="Path 667" d="M320.9 234.1L299 256.4a.4.4 0 0 0 0 .5l15.3 16.4a2.6 2.6 0 0 1-3.6 3.7l-15.4-16.3a.4.4 0 0 0-.5 0l-3.8 3.8a16.3 16.3 0 0 1-11.7 5 16.7 16.7 0 0 1-11.9-5.1l-3.6-3.7a.4.4 0 0 0-.6 0L248 276.9a2.6 2.6 0 0 1-3.8-3.7l15.4-16.3a.4.4 0 0 0 0-.6l-22-22.2a.4.4 0 0 0-.5 0 .4.4 0 0 0-.1.3v44.5a6.5 6.5 0 0 0 6.5 6.5H315a6.5 6.5 0 0 0 6.5-6.5v-44.5a.4.4 0 0 0-.3-.4.4.4 0 0 0-.4.1z" fill="#eb7a6d"/><path id="Path_668" data-name="Path 668" d="M279.3 264.1a11 11 0 0 0 8-3.3l31.8-32.4a6.3 6.3 0 0 0-4-1.5h-71.6a6.3 6.3 0 0 0-4 1.5l31.8 32.4a11 11 0 0 0 8 3.3z" fill="#eb7a6d"/><path id="Path_669" data-name="Path 669" d="M279.3 183a73.1 73.1 0 1 0 73 73.2 73.1 73.1 0 0 0-73-73.1zm0 136.5a63.4 63.4 0 1 1 63.4-63.4 63.4 63.4 0 0 1-63.4 63.4z" opacity=".1" style="isolation:isolate"/></g><g id="svg--contact--page__circle--nav"><circle id="Ellipse_172" data-name="Ellipse 172" cx="105.8" cy="201.6" r="73.1" fill="#3f3d56"/><path id="Path_670" data-name="Path 670" d="M105.8 166.6L76.7 234l2.7 2.7 26.4-11.7 26.5 11.7 2.7-2.8z" fill="#eb7a6d"/><path id="Path_671" data-name="Path 671" d="M105.8 128.5a73 73 0 1 0 73.1 73 73 73 0 0 0-73-73z" opacity=".1" style="isolation:isolate"/><path id="Path_669-2" data-name="Path 669" d="M105.9 128.4a73.1 73.1 0 1 0 73 73.2 73.1 73.1 0 0 0-73-73.2zm0 136.5a63.4 63.4 0 1 1 63.3-63.4A63.4 63.4 0 0 1 106 265z" opacity=".1" style="isolation:isolate"/></g><g id="svg--contact--page__woman--two"><path id="Path_672" data-name="Path 672" d="M454 293.6l-2-4.8a14.6 14.6 0 0 0-2.6-4.3 4.5 4.5 0 0 0-1.4-1.1 6.5 6.5 0 0 0-2-.4 15.8 15.8 0 0 0-3 0l-1.3-.5a10.4 10.4 0 0 0 7.8-9.7v-.5a10.4 10.4 0 0 0-10.4-10.4 10.2 10.2 0 0 0-5.4 1.5 9.8 9.8 0 0 0-11 5.3 12 12 0 0 0-3.7 9v.5c.2 5.7 3.8 10.2 8.5 10.7a4.9 4.9 0 0 0-1.4.9c-1.4 1.4-1.6 3.5-1.8 5.5v1.5l-2.6.8a.5.5 0 0 0-.2.6.4.4 0 0 0 .1.2l2.4 1.7v.4a2 2 0 0 0 0 .5 3.5 3.5 0 0 0-1 1.3 6.1 6.1 0 0 0-.1 2.4v2a16.1 16.1 0 0 0 .7 4.5c.3 1 1.6 3.1 2.6 3.1-.9 4-1.1 12.5-1.1 12.5s.2.2.7.3c.5 4 2.2 15.4 5.3 20.3a44.2 44.2 0 0 1 1.1 5s.9 10.7 2 14c1 2.7 1.8 9.4 2 11.3a1.1 1.1 0 0 0-.8.8c-.6 1.8-4.3 4.4-4.3 4.4a17.4 17.4 0 0 0-3.2 2.1c-1.2 1-1.2 2 4 1.4 10.2-1.1 11.9-4.4 11.9-4.4l-.4-1.2a13.6 13.6 0 0 0-1.3-3.1c-.2-.2-.3 0-.5.4a63 63 0 0 1-.7-14.1s.3-5-1.1-8.4a16 16 0 0 1 0-5.5c.5-2.4-2.4-13.7-2.4-13.7l-1.6-8.4a2.2 2.2 0 0 1 .4 1l.1.2v.3a.5.5 0 0 0 .1.2c1.1 4.7 4.2 17.6 4.2 19.5 0 2.4 3 8.2 3 8.2s1 9.6 3 13.3c1.6 2.9 1.6 7.1 1.6 9s-.4 2.4-1 3a7 7 0 0 0-1 1.9l-.1.1s-.9 1.8-.3 2a14.2 14.2 0 0 0 7 .9s1-1.5 1-2a9 9 0 0 0 0-1l-.7-3.6c.3-1-.7-3.5-.7-3.5l-.3-8.2a37.4 37.4 0 0 0-2-16.2s-1.4-5.3-1.1-6.7-.6-16.9-.6-16.9v-.2a16.1 16.1 0 0 1 0-3.3 43.8 43.8 0 0 0-1.2-11 9.8 9.8 0 0 1-.4-2.4l.6-4.6a83.5 83.5 0 0 0 8.5-.7 1 1 0 0 0 .7-.3 1.1 1.1 0 0 0 .2-.6c.4-4.4-1.2-8.7-2.9-12.8zM448 303c.3-2.1.6-4.1 1-5.6v.1a38.8 38.8 0 0 1 1.3 4.6 16.3 16.3 0 0 1-2.3.9z" fill="url(#linear-gradient)"/><path id="Path_673" data-name="Path 673" d="M425.7 326.4s1.8 15.5 5.5 21.6a40.7 40.7 0 0 1 1.1 4.8s.9 10.7 2 13.8 2 11.8 2 11.8 4 4.6 5.5.9a60.9 60.9 0 0 1-.9-15s.3-4.8-1.1-8.3a15.7 15.7 0 0 1 0-5.5c.5-2.3-2.3-13.5-2.3-13.5l-2.3-11.2z" fill="#be6f72"/><path id="Path_674" data-name="Path 674" d="M443.8 382.2s-1.7 3.1-11.8 4.3c-5.2.6-5.2-.4-4-1.4a17.6 17.6 0 0 1 3.2-2s3.7-2.6 4.3-4.3 2.6-.3 2.6-.3c2.8 4.3 3.4-1.2 4-.6a12.8 12.8 0 0 1 1.3 3l.4 1.3z" fill="#ff6f61"/><path id="Path_675" data-name="Path 675" d="M443.8 382.2s-1.7 3.1-11.8 4.3c-5.2.6-5.2-.4-4-1.4.8.5 2.4.7 5.8-.6 4.8-2 8.2-3.1 9.6-3.6l.4 1.3z" opacity=".1" style="isolation:isolate"/><path id="Path_676" data-name="Path 676" d="M441 364.3s.3-4.9-1.1-8.3a15.2 15.2 0 0 1 0-5.5c.5-2.3-2.3-13.5-2.3-13.5l-2.3-11.2-2 .2 2.2 11s2.9 11.2 2.3 13.5a15.7 15.7 0 0 0 0 5.5c1.5 3.4 1.1 8.3 1.1 8.3a60.9 60.9 0 0 0 .9 15 2.4 2.4 0 0 1-.8 1.1 1.9 1.9 0 0 0 2.6-.6 2 2 0 0 0 .2-.6 60.9 60.9 0 0 1-.8-14.9z" opacity=".1" style="isolation:isolate"/><path id="Path_677" data-name="Path 677" d="M439 263.3a10.2 10.2 0 0 0-5.3 1.6 9.8 9.8 0 0 0-11 5.2 11.9 11.9 0 0 0-3.7 8.9c0 6.1 4.1 11 9.2 11 3.6 0 6.9-2.5 8.3-6.3a9.8 9.8 0 0 0 2.6.3 10.3 10.3 0 1 0 0-20.7z" fill="#3f3d56"/><path id="Path_678" data-name="Path 678" d="M447.6 327.8l.8 2.3s.9 15.3.6 16.7 1.1 6.6 1.1 6.6a36.6 36.6 0 0 1 2 16l.3 8s1.2 3.2.6 3.8-4.9-.5-4.9-.5.6-6-1.5-9.8-3.1-13.2-3.1-13.2-2.9-5.7-2.9-8-4.6-21-4.6-21z" fill="#be6f72"/><path id="Path_679" data-name="Path 679" d="M425.1 327.6s.3-10.4 1.5-13.5a22 22 0 0 0 1.3-4.6s17.4 3.1 18.8 2c0 0 .3 4 .6 4.3a41.5 41.5 0 0 1 1.1 11c-.3 3.4 0 3.4 0 3.4s-11.7 1.7-12 0-1.2-1.8-1.2-1.8-10.6-.3-10-.8z" fill="#3f3d56"/><g id="Group_48" data-name="Group 48" opacity=".1"><path id="Path_680" data-name="Path 680" d="M434.6 327.6s-7.2-.2-9.4-.6v.6c-.6.5 10 .8 10 .8a.8.8 0 0 1 .4.2c-.4-1-1-1-1-1z"/><path id="Path_681" data-name="Path 681" d="M447.3 315.8c-.3-.3-.6-4.3-.6-4.3a1.3 1.3 0 0 1-.5.1 14.4 14.4 0 0 0 .5 3.3 46.1 46.1 0 0 1 1.1 11c-.3 3.4 0 3.4 0 3.4s-9.3 1.3-11.5.4a2.7 2.7 0 0 0 0 .4c.3 1.8 12.1 0 12.1 0s-.3 0 0-3.4a42.8 42.8 0 0 0-1.1-11z"/><path id="Path_682" data-name="Path 682" d="M434.6 327.6s-7.2-.2-9.4-.6v.6c-.6.5 10 .8 10 .8a.8.8 0 0 1 .4.2c-.4-1-1-1-1-1z"/><path id="Path_683" data-name="Path 683" d="M447.3 315.8c-.3-.3-.6-4.3-.6-4.3a1.3 1.3 0 0 1-.5.1 14.4 14.4 0 0 0 .5 3.3 46.1 46.1 0 0 1 1.1 11c-.3 3.4 0 3.4 0 3.4s-9.3 1.3-11.5.4a2.7 2.7 0 0 0 0 .4c.3 1.8 12.1 0 12.1 0s-.3 0 0-3.4a42.8 42.8 0 0 0-1.1-11z"/></g><path id="Path_684" data-name="Path 684" d="M437.8 281.4a3.8 3.8 0 0 0 1.1 1.5 2.6 2.6 0 0 0 1 .4l-2 1a34.7 34.7 0 0 0-3 2.2 6 6 0 0 1-3.3 1.3 4.1 4.1 0 0 0 .5-4.1 3.6 3.6 0 0 1-.5-1.4 2.6 2.6 0 0 1 1.4-2l1.7-1c.6-.4 1.1-.9 1.7-.8s.6.5.7 1a8.2 8.2 0 0 0 .7 2z" fill="#be6f72"/><path id="Path_685" data-name="Path 685" d="M437.8 281.4a3.8 3.8 0 0 0 1.1 1.5 2.6 2.6 0 0 0 1 .4l-2 1a34.7 34.7 0 0 0-3 2.2 6 6 0 0 1-3.3 1.3 4.1 4.1 0 0 0 .5-4.1 3.6 3.6 0 0 1-.5-1.4 2.6 2.6 0 0 1 1.4-2l1.7-1c.6-.4 1.1-.9 1.7-.8s.6.5.7 1a8.2 8.2 0 0 0 .7 2z" opacity=".1" style="isolation:isolate"/><circle id="Ellipse_173" data-name="Ellipse 173" cx="444.5" cy="291.8" r="6.6" fill="#be6f72"/><path id="Path_686" data-name="Path 686" d="M453.9 385.6c0 .6-1.2 2-1.2 2a14.3 14.3 0 0 1-6.9-.9c-.5-.2.3-2 .3-2v-.1a7 7 0 0 1 1.2-1.9c.5-.5.9-2.9.9-2.9 1.8-3 5 1.3 5 1.3a194 194 0 0 0 .7 4.5z" fill="#ff6f61"/><path id="Path_687" data-name="Path 687" d="M453.9 385.6c0 .6-1.2 2-1.2 2a14.3 14.3 0 0 1-6.9-.9c-.5-.2.3-2 .3-2v-.1a14 14 0 0 0 6.3 1.3l1.4-1.3a9 9 0 0 1 0 1z" opacity=".1" style="isolation:isolate"/><circle id="Ellipse_174" data-name="Ellipse 174" cx="431.3" cy="278" r="6.5" fill="#be6f72"/><path id="Path_688" data-name="Path 688" d="M426.1 291c-1.4 1.3-1.6 3.4-1.8 5.4l-.2 2.8a13.8 13.8 0 0 0 0 2.3l.1 1.5.1 1.7v4.2a5 5 0 0 0 .5 2.6 1.7 1.7 0 0 0 2.2.8 2.5 2.5 0 0 0 .9-1.4 21.8 21.8 0 0 0 1.4-5.4l.2-1.9.2-2c.4-2.6.6-5.3.8-8 0-.9.8-4-.3-4.4-.5-.1-1.5.4-2 .6a5.8 5.8 0 0 0-2 1.1z" fill="#be6f72"/><path id="Path_689" data-name="Path 689" d="M426.1 291c-1.4 1.3-1.6 3.4-1.8 5.4l-.2 2.8a13.8 13.8 0 0 0 0 2.3l.1 1.5.1 1.7v4.2a5 5 0 0 0 .5 2.6 1.7 1.7 0 0 0 2.2.8 2.5 2.5 0 0 0 .9-1.4 21.8 21.8 0 0 0 1.4-5.4l.2-1.9.2-2c.4-2.6.6-5.3.8-8 0-.9.8-4-.3-4.4-.5-.1-1.5.4-2 .6a5.8 5.8 0 0 0-2 1.1z" opacity=".1" style="isolation:isolate"/><path id="Path_690" data-name="Path 690" d="M439.5 282.1s-4.9 3.8-7.8 4.6l-2 2.5c-.3.5-.8 5.6-1.4 6.8s-2 3.7 0 6.3a10.8 10.8 0 0 1 .3 3.4c-.3.9-1.3 4-.4 4.2s3.8 2.1 6.4 1.6 12.2 2.2 12.2 2.2 1.6-14.9 2.8-17.5l-2.6-.8s-7.2-4.3-2.9-11c0 0-4-.8-4.6-2.3z" fill="#ff6f61"/><path id="Path_691" data-name="Path 691" d="M421.7 299.5l6 4.2a.5.5 0 0 0 .4 0l1.6-1.3a.4.4 0 0 0 0-.6l-4.5-4a.4.4 0 0 0-.5-.2l-2.9 1a.5.5 0 0 0-.3.6.5.5 0 0 0 .2.3z" fill="#3f3d56"/><path id="Path_692" data-name="Path 692" d="M423.7 312.1a15.7 15.7 0 0 1-.6-4.5l-.1-2a5.8 5.8 0 0 1 .2-2.3 3.8 3.8 0 0 1 2.4-2.2 8.5 8.5 0 0 1 3.4-.2.8.8 0 0 1 .4.1.8.8 0 0 1 .3.4 2.7 2.7 0 0 1 .1 2.1 2.2 2.2 0 0 1-.7.7l-2.5 1.6a.9.9 0 0 0-.3.4 1 1 0 0 0 0 .5 7 7 0 0 0 .4 1.2 1 1 0 0 0 .3.5l.5.2c.3.3 1 .6 1 1-.2 1.5-1 3.1-1.4 4.6-.7 2.8-3-.8-3.4-2z" fill="#be6f72"/><g id="Group_49" data-name="Group 49" opacity=".1"><path id="Path_693" data-name="Path 693" d="M433 311.5h-.2a5 5 0 0 0 1.8 0h.2a6 6 0 0 0-1.9 0z"/><path id="Path_694" data-name="Path 694" d="M448 295.8c-1 2.3-2.5 14.9-2.8 17.4l1.7.4s1.5-14.8 2.7-17.4z"/></g><path id="Path_695" data-name="Path 695" d="M444.8 292a2.2 2.2 0 0 0 1 1.4 14.2 14.2 0 0 1 1.6 1.7 12.2 12.2 0 0 1 1.7 3.3 42.6 42.6 0 0 1 1.3 4.6c-3.6 1.7-7.8 1.6-11.7 2.7a9.4 9.4 0 0 0-4.4 2.6 6.1 6.1 0 0 0-1.6 4.8.8.8 0 0 0 .1.3.6.6 0 0 0 .5.2 4.4 4.4 0 0 0 2.7-1 12.6 12.6 0 0 0 2-2 3.3 3.3 0 0 1 1.5-1 23.9 23.9 0 0 1 6.6-.7 82.4 82.4 0 0 0 9.8-.7.8.8 0 0 0 .9-.7.6.6 0 0 0 0-.2 28 28 0 0 0-3-12.5l-2-4.8a14 14 0 0 0-2.4-4.3 4.3 4.3 0 0 0-1.5-1 6 6 0 0 0-2-.4 13.3 13.3 0 0 0-3.2 0 6.7 6.7 0 0 0-.3 1.6 14.4 14.4 0 0 0 1.8 5.6c0 .2.4.2.6.5z" fill="#be6f72"/><path id="Path_696" data-name="Path 696" d="M433 295.7a5.4 5.4 0 0 0-.7 2.8 4 4 0 0 0 .2 1.1 3.7 3.7 0 0 0 2.3 2.2" fill="none" stroke="#000" stroke-miterlimit="10" opacity=".1" style="isolation:isolate"/><path id="Path_697" data-name="Path 697" d="M436.8 271.7a3.2 3.2 0 0 0-1 .1c-1-1.4-3.3-2.4-6-2.4-3.4 0-6.3 1.8-6.3 4s2.9 4 6.4 4a8.7 8.7 0 0 0 3.8-.8 3.4 3.4 0 1 0 3-5z" fill="#3f3d56"/><path id="Path_698" data-name="Path 698" d="M437 277.7a3.4 3.4 0 0 1-3-2 9 9 0 0 1-3.8.9c-3.5 0-6.3-1.9-6.3-4a2.7 2.7 0 0 1 0-.5 2.6 2.6 0 0 0-.4 1.3c0 2.2 2.9 4 6.4 4a8.7 8.7 0 0 0 3.8-.8 3.4 3.4 0 0 0 6.4-.8 3.4 3.4 0 0 1-3 1.9z" opacity=".1" style="isolation:isolate"/><path id="Path_699" data-name="Path 699" d="M422.7 271.8a9.8 9.8 0 0 1 11-5.2 10.3 10.3 0 0 1 15.7 8v-1a10.3 10.3 0 0 0-15.7-8.7 9.8 9.8 0 0 0-11 5.2 11.9 11.9 0 0 0-3.8 8.9v.9a11.7 11.7 0 0 1 3.8-8.1z" opacity=".1" style="isolation:isolate"/></g><g id="svg--contact--page__plant--two"><path id="Path_700" data-name="Path 700" d="M488.6 274c2-3.5-.2-7.9-2.7-11s-5.5-6.4-5.5-10.4c.1-5.8 6.2-9.2 11.1-12.3a54 54 0 0 0 10-8 14.4 14.4 0 0 0 3.1-4c1-2.3 1-4.9 1-7.4q-.4-12.4-1.3-24.7" fill="none" stroke="#3f3d56" stroke-miterlimit="10" stroke-width="4"/><path id="Path_701" data-name="Path 701" d="M513.6 195.7a9 9 0 0 0-4.5-7.4l-2 4v-4.8a9 9 0 1 0 6.5 8.2z" fill="#eb7a6d"/><path id="Path_702" data-name="Path 702" d="M497.5 256.6a9 9 0 1 1 .5-7.2l-5.7 4.6 6.2-1.5a9 9 0 0 1-1 4.1z" fill="#eb7a6d"/><path id="Path_703" data-name="Path 703" d="M493 239.2a9 9 0 0 1-2.8-17.7v3.7l2-4a9 9 0 0 1 .9 18z" fill="#eb7a6d"/><path id="Path_704" data-name="Path 704" d="M515 224.6a9 9 0 1 1 4-16.8l-1.7 4.4 3.3-3.2a9 9 0 0 1-5.7 15.6z" fill="#eb7a6d"/><path id="Path_705" data-name="Path 705" d="M512.4 198.1c-2.1.2-4.1.9-6.2 1s-4.4-.4-5.7-2a25.5 25.5 0 0 1-1.7-3 6.5 6.5 0 0 0-2.2-2 9 9 0 1 0 16 8.1 9.1 9.1 0 0 0 .7-2.2z" opacity=".1" style="isolation:isolate"/><path id="Path_706" data-name="Path 706" d="M515 224.6a9 9 0 0 1-9.5-8.6 9.2 9.2 0 0 1 .9-4.2 6.8 6.8 0 0 1 1.8 1.8 29 29 0 0 0 1.8 3c1.4 1.6 3.8 2.2 6 2s4.2-.7 6.4-.8l.9-.1a9 9 0 0 1-8.4 7z" opacity=".1" style="isolation:isolate"/><path id="Path_707" data-name="Path 707" d="M493 239.2a9 9 0 0 1-8.6-12.7 7.5 7.5 0 0 1 2 1.8c.7 1 1 2.1 2 3 1.5 1.7 4 2.3 6.3 2.2s4.4-.6 6.6-.7a9 9 0 0 1-8.2 6.3z" opacity=".1" style="isolation:isolate"/><path id="Path_708" data-name="Path 708" d="M497.5 256.6a9 9 0 0 1-16.4-7.3 8.7 8.7 0 0 1 2 1.8c.9 1 1.4 2.2 2.4 3.2 1.9 1.8 4.8 2.5 7.5 2.6a38.7 38.7 0 0 0 4.5-.3z" opacity=".1" style="isolation:isolate"/></g><g id="svg--contact--page__woman--one"><path id="Path_718" data-name="Path 718" d="M226.6 282a7.2 7.2 0 0 0-2.9-5.8 8.4 8.4 0 0 0-7-8.2 8.4 8.4 0 0 0-5.6-6.3 6.3 6.3 0 0 0-1-.2H209a8.2 8.2 0 0 0-8 7c-2.5-.6-4.9.1-5.3 1.8a2.2 2.2 0 0 0 0 1.3 5.6 5.6 0 0 0 3.8 3l.3.1.4.1a6.3 6.3 0 0 0-.6 2.8 6.4 6.4 0 0 0 3.5 5.7h-.2a2.4 2.4 0 0 0-.6.8 11.5 11.5 0 0 0-1 2.6c-.2.8-.2 1.6-.5 2.4-.4 1.4-1.5 2.6-1.6 4 0 .7 0 1.5-.4 2a1.9 1.9 0 0 1-.4.2 3 3 0 0 0-.8.9 2.9 2.9 0 0 1-.6.8c-.4.3-1.1.3-1.3.7s.3 1.1.2 1.6-.6.7-1 1a3.3 3.3 0 0 0-.7 1.4 4.8 4.8 0 0 1-4-1 7.4 7.4 0 0 1 .5 1.5 6.5 6.5 0 0 0-2.2-1 6.8 6.8 0 0 1-2.2-1.7l1.2-.2-5.4-8.2-1.6-.3 1.4 2.7a.8.8 0 0 0-.5.6 2.4 2.4 0 0 0 0 1 17.9 17.9 0 0 0 .4 2.1l.4 2 .1.5a5.4 5.4 0 0 0-1.6.1 13.3 13.3 0 0 0-3.3-.7 1.8 1.8 0 0 0-.7 0 1.9 1.9 0 0 0-.7.5 23.2 23.2 0 0 0-2.5 3.5c-2.9 5-6.7 9.4-10.3 13.9l-7.5 3-5.4 2a8.2 8.2 0 0 1-3.4.7c-.5 0-1.1-.1-1.4.3a3.2 3.2 0 0 0-.3.8h-.6a6.3 6.3 0 0 0-1.3-2.4.8.8 0 0 0-.6.5l-.4.7c-.3.5-.8.7-1.1 1l-1 1.3a3.9 3.9 0 0 1-1.9.8 11.5 11.5 0 0 0-2.8 1 4.6 4.6 0 0 1-1 .5 3.7 3.7 0 0 1-1.3 0l-2.9-.2a2.2 2.2 0 0 0-.8 0 1.5 1.5 0 0 0-.9 1.5 2.3 2.3 0 0 0 1 1.6 5.5 5.5 0 0 0 1.6.8 48 48 0 0 0 7.6 2.3v.5a13 13 0 0 0 5.8 1.4.8.8 0 0 0 .5 0 1 1 0 0 0 .3-.6 23.7 23.7 0 0 0 1.2-5.6 2.8 2.8 0 0 0 1-.3c1-.3 2 .4 3 .5 1.2.2 2.4-.6 3.6-1l.5-.1a5.8 5.8 0 0 1-1.2 1l-1.5 1a9.6 9.6 0 0 1-1.3 1 7.3 7.3 0 0 1-1 .5 6.8 6.8 0 0 0-1.4.7 3 3 0 0 0-1 1 1.3 1.3 0 0 0 .9 2 3.8 3.8 0 0 0 1.1 0l4.7-.5a12.8 12.8 0 0 0 2-.2l1-.3a8.6 8.6 0 0 1 1.7-.3 1.8 1.8 0 0 1 .5 0c.3.2.6.6 1 .6a1.4 1.4 0 0 0 .7 0 16.5 16.5 0 0 1 3.4-.4 1.4 1.4 0 0 0 1.4-.6c.2-.5-.2-1.3-.4-1.9a5.6 5.6 0 0 1-.2-1.2 7.7 7.7 0 0 0-.8-2.9 6.9 6.9 0 0 1-.7-1.3 33.4 33.4 0 0 0 6.4-3.2 11.1 11.1 0 0 1 3.6-1.7 9.8 9.8 0 0 1 4.5.5 105 105 0 0 1 10.3 3.6 50.7 50.7 0 0 0 5 1.9 7.2 7.2 0 0 0 1.7 1.7 7.9 7.9 0 0 0 3.7 1 47 47 0 0 0 5.3.2 9 9 0 0 0 4-.8 3.8 3.8 0 0 0 .8-.5 3.3 3.3 0 0 0 2.6-1 6.3 6.3 0 0 0 2-3.1c.4-1.7.1-3.7 1.1-5l1-1a2.8 2.8 0 0 0 .4-1.7 6.5 6.5 0 0 0 .5-1.8 9.1 9.1 0 0 1 .5-1.3c.5-1.3 1-2.6 1.3-4a24.8 24.8 0 0 0 .6-2.6l.3-2.2a13.6 13.6 0 0 1 .6-3.4 27.5 27.5 0 0 0 1.6-8.1v-.2a5.4 5.4 0 0 0 4.8-5.5 5.5 5.5 0 0 0-.5-2.4 7.2 7.2 0 0 0 1-3.7zm-26.2 31.8c0 .3.2.5.3.8l-1.3-1.3.5.2a3.2 3.2 0 0 1 .5.3zm-2-1.4c-2.6-2.2-5.5-4-8-6l4 2.3 5 2.6a3.8 3.8 0 0 1-1 1.1zm1-5.5l.1-.2v.9l-.6-.2a6.5 6.5 0 0 0 .5-.5zm-22.2 5.9a20.9 20.9 0 0 0 2.7-3.9c1 1.8 2.6 3 4 4.5l-6.7-.6z" fill="url(#linear-gradient-2)"/><path id="Path_719" data-name="Path 719" d="M180.8 291.4l1.6.4 5.4 8-2.4.3z" fill="#2f2e41"/><path id="Path_720" data-name="Path 720" d="M142.1 324a31.2 31.2 0 0 0 1.6 4.2 39 39 0 0 0 5.3-1.5l-1-1.5a5.6 5.6 0 0 0-1.6-1.1 4.3 4.3 0 0 0-1.8 0H142z" fill="#fbbebe"/><path id="Path_721" data-name="Path 721" d="M146.4 326.2a3.3 3.3 0 0 1-1.8-2 6.7 6.7 0 0 0-1.4-2.5.8.8 0 0 0-.6.4l-.3.8c-.4.4-.9.6-1.2 1l-1 1.2a3.9 3.9 0 0 1-1.9.7 11.8 11.8 0 0 0-2.9 1.1 5.2 5.2 0 0 1-1 .5 4.4 4.4 0 0 1-1.3 0l-2.9-.2a2.3 2.3 0 0 0-.7 0 1.4 1.4 0 0 0-1 1.5 2.2 2.2 0 0 0 1 1.5 6.2 6.2 0 0 0 1.6.8 48.2 48.2 0 0 0 7.7 2.2v.6a13.4 13.4 0 0 0 6 1.3 1.1 1.1 0 0 0 .3 0 .9.9 0 0 0 .4-.6 22.6 22.6 0 0 0 1.2-6.3 4.8 4.8 0 0 0-.1-1.6c-.2-.5.4-.3-.1-.5" fill="#2f2e41"/><path id="Path_722" data-name="Path 722" d="M201.7 315.3c-8.6.5-17-2-25.6-2.2a12.6 12.6 0 0 0-3.1.2 16.9 16.9 0 0 0-3.2 1.2c-4.6 2.1-9.3 3.9-14 5.7l-5.5 2a8.2 8.2 0 0 1-3.4.7c-.5 0-1.1-.1-1.4.3-1 1.3-.5 3.3 0 4.7.3.5.6 1 1 1a3.1 3.1 0 0 0 1-.2c1-.2 2 .4 3 .5 1.3.2 2.5-.5 3.7-1 2-.7 4.1-.7 6.2-1a27.7 27.7 0 0 0 9.7-4 11.4 11.4 0 0 1 3.6-1.7 10 10 0 0 1 4.6.5 106.2 106.2 0 0 1 10.4 3.5 46.3 46.3 0 0 0 5.5 2 19.7 19.7 0 0 0 12.2-.7c1.4-.5 2.9-1.4 3-3 0-.8-.7-1.6-1-2.3l-1-1.3c-1.4-2.2-3.1-5-5.7-4.9z" fill="#2f2e41"/><path id="Path_723" data-name="Path 723" d="M201.7 315.3c-8.6.5-17-2-25.6-2.2a12.6 12.6 0 0 0-3.1.2 16.9 16.9 0 0 0-3.2 1.2c-4.6 2.1-9.3 3.9-14 5.7l-5.5 2a8.2 8.2 0 0 1-3.4.7c-.5 0-1.1-.1-1.4.3-1 1.3-.5 3.3 0 4.7.3.5.6 1 1 1a3.1 3.1 0 0 0 1-.2c1-.2 2 .4 3 .5 1.3.2 2.5-.5 3.7-1 2-.7 4.1-.7 6.2-1a27.7 27.7 0 0 0 9.7-4 11.4 11.4 0 0 1 3.6-1.7 10 10 0 0 1 4.6.5 106.2 106.2 0 0 1 10.4 3.5 46.3 46.3 0 0 0 5.5 2 19.7 19.7 0 0 0 12.2-.7c1.4-.5 2.9-1.4 3-3 0-.8-.7-1.6-1-2.3l-1-1.3c-1.4-2.2-3.1-5-5.7-4.9z" opacity=".1" style="isolation:isolate"/><path id="Path_724" data-name="Path 724" d="M158.5 324.4c1.3.5 2.7 1 4 1.3.8-1.3 2.3-2.1 2.6-3.5a.3.3 0 0 0 0-.2.3.3 0 0 0-.2-.2 7.7 7.7 0 0 0-3.2-1c-.8 0-1.2 1-1.6 1.6-.2.3-1.2 2.2-1.6 2z" fill="#fbbebe"/><path id="Path_725" data-name="Path 725" d="M160.4 323.6a2.9 2.9 0 0 1-2-1.3c-.2-.4-.4-.8-.8-.8s-.5.5-.6.8a20.6 20.6 0 0 1-1 3.8 7 7 0 0 1-2.4 3.1l-1.6 1a11.3 11.3 0 0 1-1.3 1 8.3 8.3 0 0 1-1 .4 7.3 7.3 0 0 0-1.4.7 2.9 2.9 0 0 0-1 1 1.3 1.3 0 0 0 0 1.2 1.4 1.4 0 0 0 .9.7 3.9 3.9 0 0 0 1.2 0l4.6-.4a12.9 12.9 0 0 0 2-.3l1-.3a8.1 8.1 0 0 1 1.8-.2 1.3 1.3 0 0 1 .5 0c.3.1.6.5 1 .6a1.6 1.6 0 0 0 .7-.1 16.8 16.8 0 0 1 3.5-.4 1.4 1.4 0 0 0 1.3-.6c.3-.5-.2-1.2-.4-1.8a6.8 6.8 0 0 1-.1-1.2 7 7 0 0 0-.9-2.8c-.4-.7-1-1.6-.7-2.3a2 2 0 0 0 .3-.8c0-1.3-2.9-.9-3.6-1z" fill="#2f2e41"/><path id="Path_726" data-name="Path 726" d="M188.9 301.6a6.7 6.7 0 0 1-3.4-3.4l-.4-1a7.4 7.4 0 0 0-2-2.8 1 1 0 0 0-.8-.3.8.8 0 0 0-.5.6 2.4 2.4 0 0 0 0 1 17 17 0 0 0 .3 2l.4 2a4 4 0 0 0 .3.8 3 3 0 0 0 .6.8l1.2 1a4.5 4.5 0 0 0 .7.5 4.2 4.2 0 0 0 1.3.4 11 11 0 0 1 4.9 1.8v-1.4a1.8 1.8 0 0 0-.4-1 6.4 6.4 0 0 0-2.2-1z" fill="#fbbebe"/><path id="Path_727" data-name="Path 727" d="M188.9 301.6a6.7 6.7 0 0 1-3.4-3.4l-.4-1a7.4 7.4 0 0 0-2-2.8 1 1 0 0 0-.8-.3.8.8 0 0 0-.5.6 2.4 2.4 0 0 0 0 1 17 17 0 0 0 .3 2l.4 2a4 4 0 0 0 .3.8 3 3 0 0 0 .6.8l1.2 1a4.5 4.5 0 0 0 .7.5 4.2 4.2 0 0 0 1.3.4 11 11 0 0 1 4.9 1.8v-1.4a1.8 1.8 0 0 0-.4-1 6.4 6.4 0 0 0-2.2-1z" opacity=".1" style="isolation:isolate"/><ellipse id="Ellipse_175" data-name="Ellipse 175" cx="206.3" cy="285.1" rx="2.1" ry="2.1" fill="#2f2e41"/><path id="Path_728" data-name="Path 728" d="M205 283.9a2.3 2.3 0 0 0-1.6.2 2.4 2.4 0 0 0-.6.8 11.2 11.2 0 0 0-1 2.5c-.3.7-.3 1.6-.5 2.3-.5 1.4-1.6 2.6-1.7 4 0 .7 0 1.4-.4 1.9a2.6 2.6 0 0 1-.4.2 2.9 2.9 0 0 0-.8.9 2.7 2.7 0 0 1-.6.8c-.4.3-1 .2-1.3.7s.3 1 .2 1.6-.6.6-1 .9a3.2 3.2 0 0 0-.7 1.5 5 5 0 0 1-4-1 12.3 12.3 0 0 1 .6 4.5 1.8 1.8 0 0 1-.3 1.4 26.1 26.1 0 0 1 4.8.8 3.3 3.3 0 0 0 2.2 0 3.5 3.5 0 0 0 1-.7 6.2 6.2 0 0 0 2-3.1 16.4 16.4 0 0 0 0-2.1 11.2 11.2 0 0 1 .5-2.6 29.9 29.9 0 0 0 1-5.2c0-1.1 1-2 1.5-3a14.3 14.3 0 0 0 2-5.8c0-.6-.3-1.5-.9-1.5z" fill="#2f2e41"/><path id="Path_729" data-name="Path 729" d="M205 283.9a2.3 2.3 0 0 0-1.6.2 2.4 2.4 0 0 0-.6.8 11.2 11.2 0 0 0-1 2.5c-.3.7-.3 1.6-.5 2.3-.5 1.4-1.6 2.6-1.7 4 0 .7 0 1.4-.4 1.9a2.6 2.6 0 0 1-.4.2 2.9 2.9 0 0 0-.8.9 2.7 2.7 0 0 1-.6.8c-.4.3-1 .2-1.3.7s.3 1 .2 1.6-.6.6-1 .9a3.2 3.2 0 0 0-.7 1.5 5 5 0 0 1-4-1 12.3 12.3 0 0 1 .6 4.5 1.8 1.8 0 0 1-.3 1.4 26.1 26.1 0 0 1 4.8.8 3.3 3.3 0 0 0 2.2 0 3.5 3.5 0 0 0 1-.7 6.2 6.2 0 0 0 2-3.1 16.4 16.4 0 0 0 0-2.1 11.2 11.2 0 0 1 .5-2.6 29.9 29.9 0 0 0 1-5.2c0-1.1 1-2 1.5-3a14.3 14.3 0 0 0 2-5.8c0-.6-.3-1.5-.9-1.5z" opacity=".1" style="isolation:isolate"/><path id="Path_730" data-name="Path 730" d="M203 317.1c-1.8-.8-3-2.4-4.5-3.7-2.8-2.6-6.1-4.4-9-6.9a64 64 0 0 0-5.8-4.8 14.3 14.3 0 0 0-6-2.1 1.8 1.8 0 0 0-.8 0 1.7 1.7 0 0 0-.7.5 22.4 22.4 0 0 0-2.5 3.4c-3.6 6.3-8.8 11.5-13.1 17.2a1 1 0 0 0-.3.5 1 1 0 0 0 .2.6l.9 1.7c.5 1 1.3 2 2.3 1.9a2.5 2.5 0 0 0 1.2-.8l4-3.8 4-3.9c2.5-2.3 5-4.7 6.5-7.6 1.3 2.1 3.5 3.5 5 5.5l1.5 2.3c.8 1.3 1.7 2.5 2.7 3.7l4.7 6a9.2 9.2 0 0 0 2.2 2.2 8.6 8.6 0 0 0 3.8 1 52.8 52.8 0 0 0 5.3.1 9.3 9.3 0 0 0 4-.7 3.6 3.6 0 0 0 2.2-3.2 4.7 4.7 0 0 0-.7-2 16.3 16.3 0 0 0-7.1-7z" fill="#2f2e41"/><ellipse id="Ellipse_176" data-name="Ellipse 176" cx="207.5" cy="286.6" rx="1.6" ry="1.6" fill="#e8e8f0"/><path id="Path_731" data-name="Path 731" d="M207.2 285.4a3 3 0 0 1 .1 2.3 9.5 9.5 0 0 1-1 2 10 10 0 0 1-1.3 2 13.8 13.8 0 0 0 7-2 10.3 10.3 0 0 0 4.4-3.9 2 2 0 0 1-1.6-.3 6 6 0 0 1-1.2-1.2l-1.3-1.3a6 6 0 0 1-.7-1 2.8 2.8 0 0 1-.3-1.7 9 9 0 0 1-1.7 1.4l-2.7 1.6c-.3.2-1 .5-.9.9s1 .7 1.2 1.2z" fill="#fbbebe"/><path id="Path_732" data-name="Path 732" d="M207.2 285.4a3 3 0 0 1 .1 2.3 9.5 9.5 0 0 1-1 2 10 10 0 0 1-1.3 2 13.8 13.8 0 0 0 7-2 10.3 10.3 0 0 0 4.4-3.9 2 2 0 0 1-1.6-.3 6 6 0 0 1-1.2-1.2l-1.3-1.3a6 6 0 0 1-.7-1 2.8 2.8 0 0 1-.3-1.7 9 9 0 0 1-1.7 1.4l-2.7 1.6c-.3.2-1 .5-.9.9s1 .7 1.2 1.2z" opacity=".1" style="isolation:isolate"/><path id="Path_733" data-name="Path 733" d="M207.2 285.6a2 2 0 0 0 0 2.4s.3.6.5.7a.4.4 0 0 0 .2-.2 18.6 18.6 0 0 0 1.6-1.9 3.5 3.5 0 0 1 2-1.3 4.3 4.3 0 0 1 2.7.9 2.7 2.7 0 0 1 1 .7 2.5 2.5 0 0 1 .3 1 50.7 50.7 0 0 1 .3 6.7 26.4 26.4 0 0 1-.4 4.8l-.5 2.4a14.6 14.6 0 0 0 0 2.2v3a8.5 8.5 0 0 0 0 1.8 19.4 19.4 0 0 0 .7 1.9 13.6 13.6 0 0 1 .5 2.3l.4 3.2a4 4 0 0 1-.4 2.9l-.9 1c-1 1.3-.7 3.2-1.1 4.9a6.2 6.2 0 0 1-2 3 3.3 3.3 0 0 1-2.6 1c-1.3-.2-2.1-1.6-2.5-2.8a11 11 0 0 0-1.2-3.7 9.6 9.6 0 0 0-2.4-2 4.2 4.2 0 0 1-2-2.5v-1.4a3.3 3.3 0 0 0-2-2.7c-.7-.3-1.5-.4-1.9-1a4.4 4.4 0 0 0 2-2.5 12.8 12.8 0 0 0 .4-3.3l.2-3.7a12.2 12.2 0 0 1 1-4.7c.2-.7.6-1.3 1-2a19.2 19.2 0 0 0 1.1-2.8l1.5-4.5a8.3 8.3 0 0 1 .9-2.1c.3-.7.9-1.6 1.6-1.7z" fill="#e8e8f0"/><path id="Path_734" data-name="Path 734" d="M199 309.5h1l.3-1.5a3.5 3.5 0 0 1 .1-.9 4.6 4.6 0 0 1 .6-.8c1-1.3.9-3.1 1.1-4.8a24.8 24.8 0 0 1 2.2-6.2l1.9-4.2a5.7 5.7 0 0 0 .4-1.1 6.5 6.5 0 0 0 0-1.3l.3-3.6c0-.2-.5-.1-.6-.3-.3-.5-.6.8-1 1a2.4 2.4 0 0 0-.9 1.3l-1 3.3a6.7 6.7 0 0 1-1.8 2.8l-1.2 1c-1.1 1.2-1.3 3-1.3 4.7-.1 1-.3 10.6 0 10.6z" fill="#2f2e41"/><path id="Path_735" data-name="Path 735" d="M213 283.8a3.4 3.4 0 0 0-1.7 2.4 11.9 11.9 0 0 1-1 3c-1 2-4.1 2.6-5 4.8a9.3 9.3 0 0 0-.2 2.3l-.9 4.8a21.1 21.1 0 0 0 .1 3.7l1 12.6a17 17 0 0 1-.3 5.5 5.4 5.4 0 0 0 3.2-.5c1-.4 2-1 2.9-1.6a29.7 29.7 0 0 0 4.9-2.8 2.9 2.9 0 0 0 .6-.7 6.3 6.3 0 0 0 .5-1.6 8.8 8.8 0 0 1 .4-1.3 38.2 38.2 0 0 0 1.4-4 24 24 0 0 0 .6-2.6c.2-.7.2-1.4.3-2.2a12.6 12.6 0 0 1 .7-3.3 26.9 26.9 0 0 0 1.5-8 4.2 4.2 0 0 0 0-1.2 6.1 6.1 0 0 0-.7-1.3c-.5-.8-.8-1.7-1.1-2.6a12.5 12.5 0 0 0-4.4-4.5c-.8-.6-1.8-1.2-2.8-.9z" fill="#2f2e41"/><path id="Path_736" data-name="Path 736" d="M191 304.4a7.7 7.7 0 0 1-2-1.5l-.7-1a5 5 0 0 0-2.6-1.5 12 12 0 0 0-2.9-.3 5.2 5.2 0 0 0-2 .3 2 2 0 0 0-1.2 1.3 2.3 2.3 0 0 0 1 2 4.8 4.8 0 0 0 2 1 17.4 17.4 0 0 0 1.7.3c3.5.3 6.7 2.2 9.7 4q4 2.2 8.3 4.2a17.7 17.7 0 0 0 .1-2.5c0-.6 0-1.6-.6-2a12.6 12.6 0 0 0-2.8-.7 41.7 41.7 0 0 1-5.3-2.1 27.7 27.7 0 0 1-2.7-1.5z" fill="#fbbebe"/><ellipse id="Ellipse_177" data-name="Ellipse 177" cx="206.2" cy="278.4" rx="6.2" ry="6.3" fill="#fbbebe"/><path id="Path_737" data-name="Path 737" d="M214.8 291a10.2 10.2 0 0 0-1.2 2.2c-.7 1.6-2 3-2.6 4.6s-.6 3.8-1.8 5.2a1.8 1.8 0 0 0-.6.8 2.8 2.8 0 0 1 0 .6c-.2.5-1 .5-1.2 1a2.4 2.4 0 0 1 0 .4c-.2.3-.6.4-1 .6-.5.4-.4 1.3-.8 2a1.7 1.7 0 0 1-1.6.5 5.5 5.5 0 0 1-1.6-.6 1.7 1.7 0 0 0-.6-.2 1.2 1.2 0 0 0-.7.3 4.1 4.1 0 0 0-1.6 3.5 11.6 11.6 0 0 0 1 4 1.6 1.6 0 0 0 .3.6 1.4 1.4 0 0 0 1.5.1 7.3 7.3 0 0 1 1.5-.7c1-.1 2 .5 3 .5a4 4 0 0 0 1.9-.9 10.7 10.7 0 0 0 2.6-2.2l1.1-1.8a24.4 24.4 0 0 1 1.6-2l3.6-4.5a10.5 10.5 0 0 0 1-1.3 9.7 9.7 0 0 0 .7-2 15.6 15.6 0 0 0 .7-3.6 14.4 14.4 0 0 0-.2-3 11 11 0 0 0-.8-2.8c-.8-1.7-2.7-3-4.2-1.4z" fill="#2f2e41"/><path id="Path_738" data-name="Path 738" d="M227.3 282.8a7 7 0 0 0-2.8-5.7 8.3 8.3 0 0 0-7.1-8.2 8 8 0 0 0-16 .5c-2.6-.6-5 .2-5.4 1.7s1.4 3.7 4.2 4.4a7.7 7.7 0 0 0 2.6.3 8 8 0 0 0 5.6 3.5 8.3 8.3 0 0 0 6 6.2 7 7 0 0 0 2 2.6v.6a5.3 5.3 0 0 0 10.5 0 5.6 5.6 0 0 0-.5-2.3 7 7 0 0 0 1-3.6z" fill="#f86d70"/><path id="Path_739" data-name="Path 739" d="M197.8 271.5c.4-1.6 2.8-2.4 5.4-1.8a8.2 8.2 0 0 1 8-7h.5a7.8 7.8 0 0 0-2.3-.3 8.2 8.2 0 0 0-8 7c-2.6-.6-5 .1-5.4 1.7s1.4 3.7 4.1 4.4a8.3 8.3 0 0 0 1.6.3c-2.6-.8-4.3-2.7-4-4.3z" opacity=".1" style="isolation:isolate"/><path id="Path_740" data-name="Path 740" d="M218 289v-.5a6.8 6.8 0 0 1-1.8-2.7 8.3 8.3 0 0 1-6.1-6.2 8.1 8.1 0 0 1-5.6-3.5 7.4 7.4 0 0 1-1.5 0 8.1 8.1 0 0 0 5.3 3.2 8.3 8.3 0 0 0 6.1 6.3 7 7 0 0 0 1.9 2.6v.6a5.4 5.4 0 0 0 5.3 5.4 5.4 5.4 0 0 1-3.5-5.1z" opacity=".1" style="isolation:isolate"/><ellipse id="Ellipse_178" data-name="Ellipse 178" cx="208.3" cy="279.6" rx="1" ry="1.3" transform="rotate(-37.2 208.3 279.6)" fill="#fbbebe"/></g><g id="svg--contact--page_plant--three"><path id="Path_647" data-name="Path 647" d="M39.2 329.7c1.9-3.5-.3-7.8-2.8-11s-5.5-6.4-5.4-10.4c0-5.8 6.2-9.2 11.1-12.2a54.8 54.8 0 0 0 10-8 14.7 14.7 0 0 0 3-4.2c1-2.2 1-4.8 1-7.3q-.3-12.3-1.2-24.7" fill="none" stroke="#3f3d56" stroke-miterlimit="10" stroke-width="4"/><path id="Path_648" data-name="Path 648" d="M64.2 251.5a9 9 0 0 0-4.5-7.4l-2 4v-4.8a9 9 0 1 0 6.1 11.1 8.9 8.9 0 0 0 .4-3z" fill="#eb7a6d"/><path id="Path_649" data-name="Path 649" d="M48.1 312.4a9 9 0 1 1 .4-7.2l-5.6 4.6 6.2-1.5a9 9 0 0 1-1 4.1z" fill="#eb7a6d"/><path id="Path_650" data-name="Path 650" d="M43.6 295a9 9 0 0 1-2.8-17.7v3.7l2-4a9 9 0 0 1 .8 18z" fill="#eb7a6d"/><path id="Path_651" data-name="Path 651" d="M65.5 280.4a9 9 0 1 1 4-16.8L68 268l3.2-3.2a9 9 0 0 1-5.6 15.6z" fill="#eb7a6d"/><path id="Path_652" data-name="Path 652" d="M63 253.9c-2.1.2-4.2.8-6.3 1s-4.3-.4-5.6-2a28.9 28.9 0 0 1-1.7-2.9 6.3 6.3 0 0 0-2.3-2.1 9 9 0 0 0 16 8.1 9.4 9.4 0 0 0 .8-2.1 8.7 8.7 0 0 0-1 0z" opacity=".1" style="isolation:isolate"/><path id="Path_653" data-name="Path 653" d="M65.5 280.4a9 9 0 0 1-8.6-12.9 6.7 6.7 0 0 1 1.9 1.9 30.7 30.7 0 0 0 1.7 3c1.4 1.6 3.8 2.2 6 2s4.3-.7 6.5-.9h.9a9 9 0 0 1-8.4 6.9z" opacity=".1" style="isolation:isolate"/><path id="Path_654" data-name="Path 654" d="M43.6 295a9 9 0 0 1-8.6-12.8 7.3 7.3 0 0 1 1.9 1.9 30.3 30.3 0 0 0 2 3c1.5 1.7 4 2.3 6.4 2.2s4.3-.6 6.5-.8a9 9 0 0 1-8.1 6.4z" opacity=".1" style="isolation:isolate"/><path id="Path_655" data-name="Path 655" d="M48.1 312.4a9 9 0 0 1-16.4-7.3 9.2 9.2 0 0 1 2 1.7c.8 1 1.4 2.2 2.4 3.2 1.8 1.9 4.8 2.6 7.5 2.7a39 39 0 0 0 4.5-.3z" opacity=".1" style="isolation:isolate"/></g></g></defs>
</svg>