<svg xmlns="http://www.w3.org/2000/svg" viewBox="0 0 916.5 617">
    <defs><g id="svg--outdoor"><path id="svg--outdoor__cloud--one" d="M377.8 12.6a42.9 42.9 0 0 0-70.4 15.2l78.5-3.6a39.7 39.7 0 0 0-8.1-11.6z" fill="#f2f2f2"/><path id="svg--outdoor__cloud--two" d="M208.4 75.6A42.9 42.9 0 0 0 138 90.8l78.5-3.6a42.5 42.5 0 0 0-8.1-11.6z" fill="#f2f2f2"/><path id="svg--outdoor__cloud--three" d="M676 169.7a42.9 42.9 0 0 0-70.4 15.2l78.5-3.6a38.6 38.6 0 0 0-8.1-11.6z" fill="#f2f2f2"/><circle id="svg--outdoor__sun" cx="368.6" cy="148.5" r="64.5" fill="#eb7a6d"/><g id="svg--outdoor__mountains"><path id="Path_460" data-name="Path 460" d="M289.5 416.5l-75.8-74.7-18.8-18.5-56.1-55.3-69.5 74.2-69.3 74" fill="#f2f2f2"/><path id="Path_463" data-name="Path 463" d="M194.9 323.3l-33.4 22.4-39.4-15.5-52.8 12.1 69.5-74.2z" opacity=".1" style="isolation:isolate"/><path id="Path_461" data-name="Path 461" d="M662.7 416.9H150.3l63.4-68.7 117.1-137.4 7.9-9.3 106-124.3L518 193.4l1.9 3 93.3 147.7z" fill="#f2f2f2"/><path id="Path_464" data-name="Path 464" d="M518 193.4L506.8 213l-25.1-26.3-27.5 26.3-15.5-29.9-25.1 29.9-7.2-19.1-16.7 19.1-29.9-19.1-21.1 7.6 106-124.3z" opacity=".1" style="isolation:isolate"/><path id="Path_462" data-name="Path 462" d="M916.5 416.5L789.9 267.1l-62.1-73.2-60 75.2-54.7 68.6-62.6 78.4" fill="#f2f2f2"/><path id="Path_465" data-name="Path 465" d="M789.9 267.1l-31 37.9-25.1-29.9-38.2 31.1-27.7-37.1 60-75.2z" opacity=".1" style="isolation:isolate"/><path id="Rectangle_456" data-name="Rectangle 456" fill="#2f2e41" d="M0 415.6h916.5v1.9H0z"/></g><g id="svg--outdoor__tree--three"><path id="Path_466" data-name="Path 466" d="M790.3 417.9l-1.7-.9c21.7-42 10.1-96.5-3.5-134.9a410.9 410.9 0 0 0-35.1-74l1.6-1a418.6 418.6 0 0 1 35.3 74.4c13.7 38.8 25.4 93.8 3.4 136.4z" fill="#2f2e41"/><path id="Rectangle_447" data-name="Rectangle 447" transform="rotate(-79.7 801.1 241)" fill="#2f2e41" d="M767.2 240.1h67.9v1.9h-67.9z"/><path id="Rectangle_448" data-name="Rectangle 448" transform="rotate(-42.9 756 299)" fill="#2f2e41" d="M755.1 252.7h1.9v92.5h-1.9z"/><path id="Rectangle_449" data-name="Rectangle 449" transform="rotate(-54.1 823.3 361.5)" fill="#2f2e41" d="M796.1 360.5h54.6v1.9h-54.6z"/><circle class="svg--outdoor__tree--three__leaf" cx="812" cy="180.4" r="9.4" fill="#eb7a6d"/><circle class="svg--outdoor__tree--three__leaf" data-name="svg--outdoor__tree--three__leaf" cx="709.5" cy="252.8" r="9.4" fill="#3f3d56"/><circle class="svg--outdoor__tree--three__leaf" data-name="svg--outdoor__tree--three__leaf" cx="750.9" cy="262.2" r="9.4" fill="#3f3d56"/><circle class="svg--outdoor__tree--three__leaf" data-name="svg--outdoor__tree--three__leaf" cx="732.1" cy="298.9" r="9.4" fill="#eb7a6d"/><circle class="svg--outdoor__tree--three__leaf" data-name="svg--outdoor__tree--three__leaf" cx="849.7" cy="322.5" r="9.4" fill="#3f3d56"/><circle class="svg--outdoor__tree--three__leaf" data-name="svg--outdoor__tree--three__leaf" cx="818.6" cy="332.8" r="9.4" fill="#3f3d56"/><circle class="svg--outdoor__tree--three__leaf" data-name="svg--outdoor__tree--three__leaf" cx="840.3" cy="362.9" r="9.4" fill="#3f3d56"/><circle class="svg--outdoor__tree--three__leaf" data-name="svg--outdoor__tree--three__leaf" cx="741.5" cy="191.7" r="9.4" fill="#3f3d56"/></g><g id="svg--outdoor__tree--two"><path id="Path_467" data-name="Path 467" d="M556 416l-1.7-.9c21.7-42 10.1-96.5-3.5-134.9a410.9 410.9 0 0 0-35.1-74l1.6-1a418.6 418.6 0 0 1 35.3 74.4c13.7 38.8 25.4 93.9 3.4 136.4z" fill="#2f2e41"/><path id="Rectangle_450" data-name="Rectangle 450" transform="rotate(-79.7 566.9 239.2)" fill="#2f2e41" d="M532.9 238.2h67.9v1.9h-67.9z"/><path id="Rectangle_451" data-name="Rectangle 451" transform="rotate(-42.9 521.8 297)" fill="#2f2e41" d="M520.8 250.8h1.9v92.5h-1.9z"/><path id="Rectangle_452" data-name="Rectangle 452" transform="rotate(-54.1 589 359.6)" fill="#2f2e41" d="M561.8 358.6h54.6v1.9h-54.6z"/><circle class="svg--outdoor__tree--two__leaf" cx="577.8" cy="178.5" r="9.4" fill="#3f3d56"/><circle class="svg--outdoor__tree--two__leaf" data-name="svg--outdoor__tree--two__leaf" cx="475.2" cy="250.9" r="9.4" fill="#3f3d56"/><circle class="svg--outdoor__tree--two__leaf" data-name="svg--outdoor__tree--two__leaf" cx="516.6" cy="260.4" r="9.4" fill="#3f3d56"/><circle class="svg--outdoor__tree--two__leaf" data-name="svg--outdoor__tree--two__leaf" cx="497.8" cy="297" r="9.4" fill="#3f3d56"/><circle class="svg--outdoor__tree--two__leaf" data-name="svg--outdoor__tree--two__leaf" cx="615.4" cy="320.6" r="9.4" fill="#eb7a6d"/><circle class="svg--outdoor__tree--two__leaf" data-name="svg--outdoor__tree--two__leaf" cx="584.3" cy="330.9" r="9.4" fill="#3f3d56"/><circle class="svg--outdoor__tree--two__leaf" data-name="svg--outdoor__tree--two__leaf" cx="606" cy="361" r="9.4" fill="#3f3d56"/><circle class="svg--outdoor__tree--two__leaf" data-name="svg--outdoor__tree--two__leaf" cx="507.2" cy="189.8" r="9.4" fill="#3f3d56"/></g><g id="svg--outdoor__tree--one"><path id="Path_468" data-name="Path 468" d="M162.9 416l1.7-.9c-21.7-42-10.1-96.5 3.5-134.9a410.9 410.9 0 0 1 35.1-74l-1.6-1a418.6 418.6 0 0 0-35.3 74.4c-13.7 38.8-25.4 93.9-3.4 136.4z" fill="#2f2e41"/><path id="Rectangle_453" data-name="Rectangle 453" transform="rotate(-10.3 152 239.2)" fill="#2f2e41" d="M151 205.2h1.9v67.9H151z"/><path id="Rectangle_454" data-name="Rectangle 454" transform="rotate(-47.1 197.1 297)" fill="#2f2e41" d="M150.9 296.1h92.5v1.9h-92.5z"/><path id="Rectangle_455" data-name="Rectangle 455" transform="rotate(-35.9 129.8 359.6)" fill="#2f2e41" d="M128.9 332.3h1.9v54.6h-1.9z"/><circle class="svg--outdoor__tree--one__leaf" cx="141.1" cy="178.5" r="9.4" fill="#3f3d56"/><circle class="svg--outdoor__tree--one__leaf" data-name="svg--outdoor__tree--one__leaf" cx="243.7" cy="250.9" r="9.4" fill="#3f3d56"/><circle class="svg--outdoor__tree--one__leaf" data-name="svg--outdoor__tree--one__leaf" cx="202.3" cy="260.4" r="9.4" fill="#3f3d56"/><circle class="svg--outdoor__tree--one__leaf" data-name="svg--outdoor__tree--one__leaf" cx="221.1" cy="297" r="9.4" fill="#3f3d56"/><circle class="svg--outdoor__tree--one__leaf" data-name="svg--outdoor__tree--one__leaf" cx="103.5" cy="320.6" r="9.4" fill="#3f3d56"/><circle class="svg--outdoor__tree--one__leaf" data-name="svg--outdoor__tree--one__leaf" cx="134.6" cy="330.9" r="9.4" fill="#3f3d56"/><circle class="svg--outdoor__tree--one__leaf" data-name="svg--outdoor__tree--one__leaf" cx="112.9" cy="361" r="9.4" fill="#eb7a6d"/><circle class="svg--outdoor__tree--one__leaf" data-name="svg--outdoor__tree--one__leaf" cx="211.7" cy="189.8" r="9.4" fill="#3f3d56"/></g><g id="svg--outdoor__woman"><circle id="Ellipse_132" data-name="Ellipse 132" cx="404.6" cy="395.3" r="11.3" fill="#2f2e41"/><path id="Path_469" data-name="Path 469" d="M398.5 403.9s.2 4.1-2.5 4.5l3.8 9.3 4.8 7.7h4.1l2.5-2.3-.5-2.9-1.4-5.2-1.6-1.6s.2-6.6 2.3-9.5-11.5 0-11.5 0z" fill="#ffb8b8"/><path id="Path_470" data-name="Path 470" d="M398.5 403.9s.2 4.1-2.5 4.5l3.8 9.3 4.8 7.7h4.1l2.5-2.3-.5-2.9-1.4-5.2-1.6-1.6s.2-6.6 2.3-9.5-11.5 0-11.5 0z" opacity=".1" style="isolation:isolate"/><circle id="Ellipse_133" data-name="Ellipse 133" cx="407.8" cy="384.4" r="5.4" fill="#2f2e41"/><path id="Path_471" data-name="Path 471" d="M402.6 382.2a5.4 5.4 0 0 1 5.4-5.4h.2a5.4 5.4 0 0 0-3.2 10.4 5.9 5.9 0 0 0 1.4.2 5.5 5.5 0 0 1-3.8-5.2z" fill="#2f2e41"/><path id="Path_472" data-name="Path 472" d="M397.1 408.6l-2.3-.2a3.6 3.6 0 0 0-3.6.9c-1.6 1.6.2 19.5.2 19.5l5.7-3.8.9-9.1z" fill="#ffb8b8"/><path id="Path_473" data-name="Path 473" d="M386.1 478.9l-3.2 17.9s-2 7.5-4.5 9.7-6.3 21.1-7.2 25.1-1.1 6.3-2.3 7.9 0 7.2 0 7.2h2.5l3.6-.7s.7-8.6 1.4-10.2l11.8-25.4s7.5-11.1 8.8-17.2a38.5 38.5 0 0 1 5-11.6z" fill="#ffb8b8"/><path id="Path_474" data-name="Path 474" d="M408.9 477.9l2.9 20.6s0 6.3.9 8.8 1.6 17.2 2.5 20.6 2.9 10.9 2.3 11.8a29.5 29.5 0 0 0-2 4.5l2.3 5 6.1-4.3-.9-37.1s2.5-31.5.9-32.4-9.5-3.6-15 2.5z" fill="#ffb8b8"/><path id="Path_475" data-name="Path 475" d="M391.5 455.8l-4.5 12.5s-3.4 13.1-1.6 13.8 22.4 3.6 22.9 1.1l.5-2.9s17.7.7 17.9-3.4a152 152 0 0 0-.9-16.5 4.4 4.4 0 0 0-4.1-3.4c-2.6-.1-24.1-5.8-30.2-1.2z" fill="#2f2e41"/><path id="Path_476" data-name="Path 476" d="M369.3 544.1a1.5 1.5 0 0 1 2-.5 11.3 11.3 0 0 0 4.1.5l-.7 6.1s2.7 10.9-2.3 10.9-7.7-3.6-7.2-5 1.6-12 1.6-12l2.3-5.7c.1-.4.2 5.7.2 5.7z" fill="#2f2e41"/><path id="Path_477" data-name="Path 477" d="M416.6 542.9s-.5 2.5 1.6 2.3 5.4-2.3 5.7-2a9.4 9.4 0 0 1 1.1 3.6c.2 1.6.7 5 2.7 6.6s5.2 6.6 1.6 6.8-10.2 0-10.4-2.3-.2-4.8-.2-4.8a6.8 6.8 0 0 1-2.7-.2c-.7-.4-5.2-3.2-3.8-6.8s5.2-6 5.2-6z" fill="#2f2e41"/><circle id="Ellipse_134" data-name="Ellipse 134" cx="403.7" cy="398.5" r="8.8" fill="#ffb8b8"/><path id="Path_478" data-name="Path 478" d="M408.5 415s4.1 0 5 2.3-.9 7-.9 7l-2.1-5z" fill="#ffb8b8"/><path id="Path_479" data-name="Path 479" d="M393.8 408.2h2.7s7 10.4 8.2 11.3 5.2 1.1 5.2.5-2-6.6-2-6.6l1.8 1.4 2.9 7.2s7.9 19.9 7.2 22a2 2 0 0 0 1 2.7h.1c.2.2 2.7 5.4 1.6 7.5s1.1 4.5 1.1 4.5 1.1 5-2.7 5.7-5.9-2.9-10.4-1.1-10.6 2-12-.7a55 55 0 0 1-2.5-6.3s-2.5 4.3-1.4 7.7-.5-.2-1.6-.2-3.2-.2-3.2-1.6-4.5-24.2-4.5-24.2l6.3-14.5s5.9-2.7 5.2-5.9.3-7.8-3-9.4z" fill="#3f3d56"/><path id="Path_480" data-name="Path 480" d="M394.5 409.6a4 4 0 0 0-4.2-.7 9.8 9.8 0 0 0-5.6 6.5c-2 6.6-6.3 24-5.4 28.3s8.4 23.6 8.4 23.6a43.4 43.4 0 0 0 .9 5.2c.2.2 3.6-8.2 3.6-8.2l-5.9-22.4 7.9-24.2s3.2-5.3.3-8.1z" fill="#ffb8b8"/><ellipse id="Ellipse_135" data-name="Ellipse 135" cx="404.5" cy="391" rx="8.7" ry="5.7" fill="#2f2e41"/></g><g id="svg--outdoor__man"><path id="Path_481" data-name="Path 481" d="M211.3 415.2s-15.2 8.2-15.8 15.2-9.3 24.5-9.3 24.5-34.4-9.9-35-10.5-2.9 10.5-2.9 10.5l12.3 1.8 22.8 8.2s5.3 7.6 14-2.9 30.9-33.3 30.9-33.3z" fill="#2f2e41"/><path id="Path_482" data-name="Path 482" d="M208.4 443.8s19.3 18.7 18.7 22.8-9.3 37.3-9.3 37.3l7 3.5 4.7-2.9 9.3-40.3s3.5-4.9-3.2-10.6-11.4-25.6-11.4-25.6z" fill="#2f2e41"/><circle id="Ellipse_136" data-name="Ellipse 136" cx="263" cy="396.8" r="9.9" fill="#a0616a"/><path id="Path_483" data-name="Path 483" d="M256.3 395.4s-9.9-4.7-11.1-3.5 2.3 15.2 2.3 15.2 9.3-5.3 10.5-5.3-1.7-6.4-1.7-6.4z" fill="#a0616a"/><path id="Path_484" data-name="Path 484" d="M250.4 401.8s-2.9-11.7-4.1-11.7-12.3 1.8-19.3 9.9-14.6 12.8-16.9 14.6-4.1 3.5 0 5.3a27.5 27.5 0 0 1 10.5 9.3c1.7 2.9 13.4-.6 13.4-.6s5.3-9.9 7-9.9 11.2-13.4 9.4-16.9z" fill="#eb7a6d"/><path id="Path_485" data-name="Path 485" d="M232.9 414.6s-8.2 11.1-8.2 19.3 4.7 21.6 4.7 21.6 4.1 19.8 7.6 12.8-2.3-16.3-2.3-16.3l-2.3-21 4.7-11.1z" fill="#a0616a"/><path id="Path_486" data-name="Path 486" d="M153.1 445s-6.5-4.8-7.1-3-9.3 21.6-6.4 22.8 11.7-10.5 12.3-10.5-.5-9.8 1.2-9.3z" fill="#2f2e41"/><path id="Path_487" data-name="Path 487" d="M228.3 501s8.8 4.7 10.5 4.7 5.3 2.3 1.2 3.5-22.2 2.9-22.8 1.2 0-6.4 0-6.4 11.1-1.3 11.1-3z" fill="#2f2e41"/><path id="Path_488" data-name="Path 488" d="M274.5 396.6a4.2 4.2 0 0 0 .3-2.2c-.1-1.7-.2-3.5-1.3-4.7a10.2 10.2 0 0 1-1.8-1.8 9.8 9.8 0 0 1-.5-1.6 4.7 4.7 0 0 0-3.2-2.6 15.5 15.5 0 0 0-4.3-.2 17.3 17.3 0 0 0-6 1.1 7 7 0 0 0-4.2 4.2 6 6 0 0 0-.2 2.3l-.1 3.2a2.1 2.1 0 0 0 2.4.3l2.3-1.3a2.1 2.1 0 0 1 2.4.4 3.5 3.5 0 0 1 .4.9c1.6 3.2 5.9-.2 8.1-.2 1.8.1 4.2 5.4 5.7 2.2z" fill="#2f2e41"/><path id="Path_489" data-name="Path 489" d="M242.7 512.1c14.5 0 16.9-5.4 17-5.7l-1.1-.4c0 .1-2.5 5.4-18.1 4.9-15.1-.5-38.6-.1-41.7 0-.9-1.5-4.8-7.5-10.4-6.4l.2 1.1c5.3-1.1 9.3 6 9.3 6.1l.2.3h.4c.3 0 25.8-.6 42 0a17 17 0 0 0 2.2.1z" fill="#2f2e41"/><path id="Rectangle_457" data-name="Rectangle 457" d="M242.9 517.9a2.4 2.4 0 0 1-2.4-2.3v-.1a2.3 2.3 0 0 1 2.3-2.3h.1a2.3 2.3 0 0 1 2.3 2.3v.1a2.3 2.3 0 0 1-2.3 2.3z" fill="#2f2e41"/><path id="Rectangle_458" data-name="Rectangle 458" d="M202.6 517.9a2.4 2.4 0 0 1-2.4-2.3v-.1a2.3 2.3 0 0 1 2.3-2.3h.1a2.3 2.3 0 0 1 2.3 2.3v.1a2.3 2.3 0 0 1-2.3 2.3z" fill="#2f2e41"/><path id="Path_490" data-name="Path 490" d="M248.7 400.6s-2.8 14-5.8 16.6-3.7 5.1-5.7 5.9-9-7.4-9-8 20.5-14.5 20.5-14.5z" fill="#eb7a6d"/></g><path id="svg--outdoor__floor" fill="#2f2e41" d="M160.9 520.1h146.8v1.9H160.9z"/><path id="svg--outdoor__floor-2" data-name="svg--outdoor__floor" fill="#2f2e41" d="M335.9 559.6h146.8v1.9H335.9z"/><path id="svg--outdoor__floor-3" data-name="svg--outdoor__floor" fill="#2f2e41" d="M542 615.1h60.2v1.9H542z"/><path id="svg--outdoor__floor-4" data-name="svg--outdoor__floor" fill="#2f2e41" d="M166.6 599.1h60.2v1.9h-60.2z"/><path id="svg--outdoor__floor-5" data-name="svg--outdoor__floor" fill="#2f2e41" d="M501 466.4h258.9v1.9H501z"/><path id="svg--outdoor__floor-6" data-name="svg--outdoor__floor" fill="#2f2e41" d="M638.9 585.9H781v1.9H638.9z"/><g id="svg--outdoor__ball"><path id="Path_494" data-name="Path 494" d="M663.5 549.3a7.5 7.5 0 0 1-7 7.5h-.6a7.5 7.5 0 0 1-7.5-7.5v-.1a7.6 7.6 0 0 1 6.7-7.4h.8a7.4 7.4 0 0 1 7.4 6.2 2.7 2.7 0 0 1 .2 1.3z" fill="#eb7a6d"/><path id="Path_495" data-name="Path 495" d="M663.5 549.3a7.5 7.5 0 0 1-7 7.5 5.8 5.8 0 0 1 1.2-8.1 5.7 5.7 0 0 1 5.6-.7 2.7 2.7 0 0 1 .2 1.3z" fill="#f2f2f2"/><path id="Path_496" data-name="Path 496" d="M655.4 543.5a5.8 5.8 0 0 1-5.8 5.8 4.9 4.9 0 0 1-1.2-.1 7.6 7.6 0 0 1 6.7-7.4 4.7 4.7 0 0 1 .3 1.7z" fill="#f2f2f2"/></g><g id="svg--outdoor__dog"><path id="Path_497" data-name="Path 497" d="M729.2 538.4c0 4.7-7 4-8.5 8.5-5.2 15.5-8.5-2.3-8.5-8.5a8.5 8.5 0 0 1 17-.2v.2z" fill="#2f2e41"/><path id="Path_498" data-name="Path 498" d="M718.4 561.9s-.1 10.7-1.5 11.4-9.3 2.2-7.9 4.6a5.6 5.6 0 0 0 7.3 2.1c2.4-1.4 8.3-9.7 8.3-9.7z" fill="#3f3d56"/><path id="Path_499" data-name="Path 499" d="M747.9 571.3v.3a7.7 7.7 0 0 0 8.2 7.1 10.6 10.6 0 0 0 2.4-.6c1-.4 1.9-.5 1.7.6-.3 2.4-.2 5.7 1.5 5.7s4.2-4.2 2.8-8.7a37.9 37.9 0 0 0-4.5-9z" fill="#3f3d56"/><path id="Path_500" data-name="Path 500" d="M718.4 561.9s-.1 10.7-1.5 11.4-9.3 2.2-7.9 4.6a5.6 5.6 0 0 0 7.3 2.1c2.4-1.4 8.3-9.7 8.3-9.7z" opacity=".1" style="isolation:isolate"/><path id="Path_501" data-name="Path 501" d="M747.9 571.3v.3a7.7 7.7 0 0 0 8.2 7.1 10.6 10.6 0 0 0 2.4-.6c1-.4 1.9-.5 1.7.6-.3 2.4-.2 5.7 1.5 5.7s4.2-4.2 2.8-8.7a37.9 37.9 0 0 0-4.5-9z" opacity=".1" style="isolation:isolate"/><path id="Path_502" data-name="Path 502" d="M710.8 540a11 11 0 0 1 3.2-4.2 10.4 10.4 0 0 1 9.6-2c8 2.1 9 8 9 8v2.4a6 6 0 0 0 3.5 5.4c1.8.7 30.9-.3 32.6-2a18.3 18.3 0 0 0 3.1-4.7v.1a18.2 18.2 0 0 1-2.4 9.1 6 6 0 0 0-1.1 3.4c.3 2.4 1.4 9-.7 11.5s-1 4.2 1.4 4.5 6.6-.3 6.2 3.8.3 5.9-1.4 5.9-2.5-.5-4.2-4.4c0 0-1.3-.9-6.2.5-3.2.9-7.3 1.8-8.5-.7-2.7-5.4-20-4.4-23.9 1.1a18.4 18.4 0 0 1-3.8 4.1 9.8 9.8 0 0 1-2.2 1.3c-2.1.7-4.6 1-6.3-.9-3.5-3.8 5.8-4.5 5.8-4.5s1.5-3.5.8-6c0 0-8.3-1.7-8.7-12.5 0 0-11.1 0-12.8-5.6l-1.7-5.6 3.3-2a13.7 13.7 0 0 0 5.4-6z" fill="#3f3d56"/><ellipse id="Ellipse_137" data-name="Ellipse 137" cx="702.2" cy="548.3" rx="1.6" ry="2.1" fill="#2f2e41"/><path id="Path_503" data-name="Path 503" d="M736.8 541.8c0 5.2-7.8 4.5-9.4 9.4-5.8 17.2-9.5-2.6-9.4-9.4a9.4 9.4 0 0 1 18.8 0z" fill="#2f2e41"/></g></g></defs>
</svg>