<svg xmlns="http://www.w3.org/2000/svg" xmlns:xlink="http://www.w3.org/1999/xlink" viewBox="0 0 854.4 583.8">
    <defs><g id="svg--printing"><linearGradient id="linear-gradient" x1="128.6" x2="128.6" y1="711.1" y2="712.1" gradientTransform="matrix(144.19 0 0 -171.51 -18371.2 122283.6)" gradientUnits="userSpaceOnUse"><stop offset="0" stop-color="gray" stop-opacity=".3"/><stop offset=".5" stop-color="gray" stop-opacity=".1"/><stop offset="1" stop-color="gray" stop-opacity=".1"/></linearGradient><linearGradient id="linear-gradient-2" x1="126.9" x2="127.9" y1="711.4" y2="711.4" gradientTransform="matrix(62.54 0 0 -129.36 -7555.1 92514.3)" xlink:href="#linear-gradient"/><path id="svg--printing__bg" fill="#304343" d="M808.6 445c38.6 67.2-44 124.9-146.9 117.4H422.3C307.1 562.4 0 600.6 40.4 426.7c-62.5-79-21.3-239 104.6-231.3C194.6 40.2 492.2 0 598 108.2c98.2-50 209 62 191.9 146.7 36.5 29.5 67.9 122.1 18.7 190.1z" opacity=".1" style="isolation:isolate"/><g id="svg--printing__leaf"><path id="Path_257" fill="#eb7a6d" d="M680.7 150.7s-9.6-3.8-39.8 10-34 12.1-41.9 10-12.2-2.6-20.5-14.2c0 0-6-32-11.7-37s-30.1 2.8-30.1 2.8-29.2 6.7-34.8-32.3c0 0 4-29.4-1.4-38.4 0 0 10.9 4.6 28.8-3s32.2 8.2 32.2 8.2 4.5 11.7 4 18.7 2.4 9.6 11 6.2c0 0 4.1-6-1.8-15.8s-10.2-17.3-8.5-24.9 6.4-18.3 21.8-23.6 36-6.3 46-10.5S646.6 0 646.6 0s-6.1 6.2 8.3 32.3 5.3 37.4 5.3 37.4-7.7 18.3-41.7 16.9c0 0-32.8 1.2-15 15 0 0 11.5-2.3 28.6-7.7s29.5 17 32.5 32.6 16.2 24.2 16.2 24.2z" data-name="Path 257"/><path fill="#444053" d="M574.7 102c3-3.5 6.2-6.7 9.3-10.1a519.7 519.7 0 0 0 26.6-31.5c5-6.4 9.9-12.9 14.6-19.5 2.3-3.3 4.6-6.7 6.7-10.1l3-5.3a25.1 25.1 0 0 0 1.2-2.8 6 6 0 0 0 .5-2.9 6.2 6.2 0 0 1-.2 3 26 26 0 0 1-1.1 2.9 60.3 60.3 0 0 1-3 5.3c-2 3.5-4.3 6.8-6.6 10.2-4.7 6.6-9.5 12.8-14.5 19.2l-.2.2C605.4 68 599.5 75 593.8 82l-8.8 10.6c-3 3.5-6 7-8.7 10.5a103.5 103.5 0 0 0-7.8 12.2 125.6 125.6 0 0 0-6 13.2 139.2 139.2 0 0 0-7.4 28l-4.8-1a140.7 140.7 0 0 1 4-14.3 154 154 0 0 1 5.3-13.8 131.7 131.7 0 0 1 6.8-13.2 104.3 104.3 0 0 1 8.4-12"/><path id="Path_261" fill="none" stroke="#444053" stroke-miterlimit="10" d="M659.5 138.3s-21.6-11.2-38.5-7.2-54.7-14.3-54.7-14.3-16.1-6.5-19.4-14c0 0-11-11.7-11.6-17.7S523.9 64 516.9 63.3" data-name="Path 261"/><path id="Path_262" fill="none" stroke="#444053" stroke-miterlimit="10" d="M656.3 149.1s-10.9-7.3-9.6-15.8" data-name="Path 262"/><path id="Path_263" fill="none" stroke="#444053" stroke-miterlimit="10" d="M639.6 158.6s-15.6-5.7-17-27.8" data-name="Path 263"/><path id="Path_264" fill="none" stroke="#444053" stroke-miterlimit="10" d="M614.5 164.3s-14.8-12.3-10-33.9" data-name="Path 264"/><path id="Path_265" fill="none" stroke="#444053" stroke-miterlimit="10" d="M584.3 158.3s-9.8-20.8-1-34.3" data-name="Path 265"/><path id="Path_266" fill="none" stroke="#444053" stroke-miterlimit="10" d="M659.7 124.6s-11.3 3.6-8.9 9.5" data-name="Path 266"/><path id="Path_267" fill="none" stroke="#444053" stroke-miterlimit="10" d="M646 104.3s-15 4.7-15.3 26" data-name="Path 267"/><path id="Path_268" fill="none" stroke="#444053" stroke-miterlimit="10" d="M625.1 99.3s-13.7 16.9-12.7 32.3" data-name="Path 268"/><path id="Path_269" fill="none" stroke="#444053" stroke-miterlimit="10" d="M601.1 106s-13.6 13-11.9 20.2" data-name="Path 269"/><path id="Path_270" fill="none" stroke="#444053" stroke-miterlimit="10" d="M592.9 101.3s-12.8 2.3-14.6-1.9" data-name="Path 270"/><path id="Path_271" fill="none" stroke="#444053" stroke-miterlimit="10" d="M576.3 86s6.5 8.5 8.1 6.5" data-name="Path 271"/><path id="Path_272" fill="none" stroke="#444053" stroke-miterlimit="10" d="M640.2 80.5s-32.1 2.4-39.4-7.4" data-name="Path 272"/><path id="Path_273" fill="none" stroke="#444053" stroke-miterlimit="10" d="M569.6 42.9s15 32.4 26 36.5" data-name="Path 273"/><path id="Path_274" fill="none" stroke="#444053" stroke-miterlimit="10" d="M585.4 27.5s9.3 29.8 20.7 39" data-name="Path 274"/><path id="Path_275" fill="none" stroke="#444053" stroke-miterlimit="10" stroke-width=".8" d="M653.8 56s-24.5 10.4-39.2-.2" data-name="Path 275"/><path id="Path_276" fill="none" stroke="#444053" stroke-miterlimit="10" stroke-width=".8" d="M607.2 21.1s5.6 21.9 13 27.2" data-name="Path 276"/><path id="Path_277" fill="none" stroke="#444053" stroke-miterlimit="10" stroke-width=".8" d="M650 31.4s-13.7 5.2-18.8 1.2" data-name="Path 277"/><path id="Path_278" fill="none" stroke="#444053" stroke-miterlimit="10" d="M564.5 93s0 19.2-5.2 20.5" data-name="Path 278"/><path id="Path_279" fill="none" stroke="#444053" stroke-miterlimit="10" d="M522 117.8s20.7 1.8 30.2-8.9" data-name="Path 279"/><path id="Path_280" fill="none" stroke="#444053" stroke-miterlimit="10" d="M559.2 70.5s-5 19.4-18.8 24.6" data-name="Path 280"/><path id="Path_281" fill="none" stroke="#444053" stroke-miterlimit="10" d="M509.7 97.4s14.6 5 27.1-7.8" data-name="Path 281"/><path id="Path_282" fill="none" stroke="#444053" stroke-miterlimit="10" d="M543 53.9s-1.4 16.4-10.4 24.1" data-name="Path 282"/><path id="Path_283" fill="none" stroke="#444053" stroke-miterlimit="10" d="M510.2 72.3s12.1.1 15-3.8" data-name="Path 283"/></g><g id="svg--printing__printer"><path id="Rectangle_418" fill="#33323d" d="M252.6 134.8h345.3v174.3H252.6z" data-name="Rectangle 418"/><path id="Rectangle_419" fill="#33323d" d="M145.1 362h561.5v114.7H145.1z" data-name="Rectangle 419"/><path id="Path_285" fill="#504f60" d="M129 293.6v183.2h107.6v-106H615v106h107.5V293.6z" data-name="Path 285"/><path id="Rectangle_420" fill="#33323d" d="M129.1 293.6h593.5v59.6H129.1z" data-name="Rectangle 420" opacity=".1" style="isolation:isolate"/><circle id="svg--printing__printer__btn--green" cx="690.6" cy="323.4" r="8.8" fill="#8ccf4d" opacity=".8" style="isolation:isolate"/><circle id="svg--printing__printer__btn--red" cx="650.9" cy="323.4" r="8.8" fill="#fa5959" opacity=".8" style="isolation:isolate"/></g><path id="svg--printing__card--one" fill="#fff" d="M265.3 92.9h319.9v189.7H265.3z"/><g id="svg--printing__man--two"><path id="Path_286" fill="#fbbebe" d="M633.9 369.8c.7 7.3-4.9 14.5-3.3 21.6.4 1.6 1 3 1.3 4.6.6 4.2-1.9 8.3-4.3 11.8l-21 30.7a19 19 0 0 1-3 3.7c-4 3.6-10 3.2-15.1 4.3a26.3 26.3 0 0 0-10.2 4.5.7.7 0 0 0-.2.9 8.8 8.8 0 0 0 7.6 3.6c.6.7 0 1.8-.7 2.3-1.2.7-2.7 1-3 2.8a3.1 3.1 0 0 0 .5 2 6 6 0 0 0 3.6 2.5c7.2 2.2 15-1.7 20.5-7s9.2-12 14.6-17.3c2.9-3 6.2-5.6 9.3-8.4a107 107 0 0 0 15.2-19.8 21.8 21.8 0 0 0 3.3-6.8c.6-2.3.4-4.9 1-7.2.9-3.1 3.2-5.6 5-8.2 3.8-5.1 6.2-11.3 5.7-17.6s-4.3-12.5-10.3-14.7a9.3 9.3 0 0 0-5.7-.3c-2.5.7-4.3 2.7-6 4.7l-4 4.5a11 11 0 0 0-2.2 3.5 3.7 3.7 0 0 0 .8 4" data-name="Path 286"/><path id="Path_287" d="M633.9 369.8c.7 7.3-4.9 14.5-3.3 21.6.4 1.6 1 3 1.3 4.6.6 4.2-1.9 8.3-4.3 11.8l-21 30.7a19 19 0 0 1-3 3.7c-4 3.6-10 3.2-15.1 4.3a26.3 26.3 0 0 0-10.2 4.5.7.7 0 0 0-.2.9 8.8 8.8 0 0 0 7.6 3.6c.6.7 0 1.8-.7 2.3-1.2.7-2.7 1-3 2.8a3.1 3.1 0 0 0 .5 2 6 6 0 0 0 3.6 2.5c7.2 2.2 15-1.7 20.5-7s9.2-12 14.6-17.3c2.9-3 6.2-5.6 9.3-8.4a107 107 0 0 0 15.2-19.8 21.8 21.8 0 0 0 3.3-6.8c.6-2.3.4-4.9 1-7.2.9-3.1 3.2-5.6 5-8.2 3.8-5.1 6.2-11.3 5.7-17.6s-4.3-12.5-10.3-14.7a9.3 9.3 0 0 0-5.7-.3c-2.5.7-4.3 2.7-6 4.7l-4 4.5a11 11 0 0 0-2.2 3.5 3.7 3.7 0 0 0 .8 4" data-name="Path 287" opacity=".1" style="isolation:isolate"/><path id="Path_288" fill="#3f3d56" d="M649.7 558.8c-4.6 2.8-10.3 3-15.6 2.3a2.6 2.6 0 0 0-2.4.5c-.8 1 .2 2.3 1.1 3.1a23.1 23.1 0 0 0 10.7 4.4 71.6 71.6 0 0 0 10.5.7c9.5.2 19 .3 28.5-1a4 4 0 0 0 1.6-.5 2.9 2.9 0 0 0 1.1-1.8c.7-2.4-.6-5-2.4-6.8a21.4 21.4 0 0 0-6.7-3.5l-8.3-3.3c-2-.7-5-2.7-7.2-2.6-3.8.3-7.6 6.6-11 8.5z" data-name="Path 288"/><path id="Path_289" d="M649.7 558.8c-4.6 2.8-10.3 3-15.6 2.3a2.6 2.6 0 0 0-2.4.5c-.8 1 .2 2.3 1.1 3.1a23.1 23.1 0 0 0 10.7 4.4 71.6 71.6 0 0 0 10.5.7c9.5.2 19 .3 28.5-1a4 4 0 0 0 1.6-.5 2.9 2.9 0 0 0 1.1-1.8c.7-2.4-.6-5-2.4-6.8a21.4 21.4 0 0 0-6.7-3.5l-8.3-3.3c-2-.7-5-2.7-7.2-2.6-3.8.3-7.6 6.6-11 8.5z" data-name="Path 289" opacity=".1" style="isolation:isolate"/><path id="Path_290" fill="#464353" d="M655.5 448.7c-3.5 4.6-7 10-6.2 15.6.5 3 2.2 5.8 3.4 8.6a59.6 59.6 0 0 1 3.5 12.1c1.3 6 2.6 12 3.4 18.1.9 7-3.3 26.9-3.7 33.8-.1 1.7-.3 3.5-1.5 4.7-.4.5-1 1-1.3 1.5a2.5 2.5 0 0 0 .3 1.7c2 4.4 6 7.7 10.4 9.6s15.2 5 20 5.2a3.8 3.8 0 0 0 1.9-.2 3.7 3.7 0 0 0 1.4-1.7c3.5-6.6.1-30.2.2-37.7 0-6.3 1.5-12.4 1.2-18.7-.2-5-1.5-9.9-2-14.9-.8-8.1.7-16.3 2.3-24.4 1.1-6.2 2.3-12.4 3.7-18.6a35.5 35.5 0 0 1 4-10.7c1.7-2.6 3.9-4.8 5.7-7.2a32.4 32.4 0 0 0 6.4-23.7c-.1-.9-12 3-13 3.4a40.4 40.4 0 0 0-11.6 7.5c-2.7 2.6-4.9 6-7.3 9q-5.1 6.2-10 12.5-5.8 7.2-11.2 14.5z" data-name="Path 290"/><path id="Path_291" d="M655.5 448.4c-3.5 4.6-7 10-6.2 15.6.5 3 2.2 5.8 3.4 8.6a60.7 60.7 0 0 1 3.5 12c1.3 6 2.6 12 3.4 18.2.9 7-3.3 26.9-3.7 33.8-.1 1.7-.3 3.5-1.5 4.7-.4.5-1 1-1.3 1.5a2.5 2.5 0 0 0 .3 1.8 19.3 19.3 0 0 0 10.4 9.5 79 79 0 0 0 20 3.7 3.8 3.8 0 0 0 1.9-.2 3.7 3.7 0 0 0 1.4-1.7c3.5-6.6.1-28.7.2-36.1 0-6.3 1.5-12.5 1.2-18.7-.2-5-1.5-10-2-15-.8-8 .7-16.3 2.3-24.4 1.1-6.2 2.3-12.4 3.7-18.5a35.5 35.5 0 0 1 4-10.8c1.7-2.6 3.9-4.7 5.7-7.1a32.4 32.4 0 0 0 6.4-23.7c-.1-.9-12 3-13 3.4a40.5 40.5 0 0 0-11.6 7.5c-2.7 2.6-4.9 6-7.3 9q-5.1 6.2-10 12.5-5.8 7.2-11.2 14.4z" data-name="Path 291" opacity=".1" style="isolation:isolate"/><circle id="Ellipse_51" cx="617.1" cy="328.3" r="19.4" fill="#fbbebe" data-name="Ellipse 51"/><path id="Path_292" fill="#fbbebe" d="M634.5 327.5a25 25 0 0 0 16 11.2l-1.4 5.3c-2.5 9.1-5.4 18.7-12.4 25a11.7 11.7 0 0 0-2-9 34.7 34.7 0 0 0-6.5-7l-11.2-9.6a3.3 3.3 0 0 1-.8-.9 2.9 2.9 0 0 1 0-2.1c1.4-4.4 5.5-7.2 8.8-10.2a30.4 30.4 0 0 0 4.4-5.1c2.3-3.2 3.6 0 5.1 2.4z" data-name="Path 292"/><path id="Path_293" fill="#464353" d="M591.6 308.8l-.4-3.6c3 .8 6-1.8 7.9-4.5s3.7-5.8 6.7-7c3.6-1.3 7.5.9 11 2.7a34.6 34.6 0 0 0 12.4 4 8.1 8.1 0 0 1 2 .4c2.3.8 3.4 3.6 3.7 6.2s.3 5.2 1.4 7.5c.8 1.7 2.3 3 3.1 4.7 2.4 4.6.1 10.9 2.6 15.4l-6.2-5.7c-.6-.6-1.4-1-2-.7s-.5 1.2-.7 1.8c-.6 1.8-2.8 2.3-4.4 1.6s-2.8-2.3-4-3.6c-2.7-3.3-6-6.1-9.9-7.5a12.7 12.7 0 0 0-10.4.6c-2.9 1.7-5 5.5-8.5 5.6-4.9.2-7-8.9-9.2-12.4a4.4 4.4 0 0 0 1.3-5.5c.4-.2 3.5-.6 3.6 0z" data-name="Path 293"/><path id="Path_294" fill="#3f3d56" d="M672.3 558.6a20.4 20.4 0 0 1-14 5.2c-1.3 0-3 .3-3 1.6a2 2 0 0 0 .3 1 12.8 12.8 0 0 0 7.2 5.7 25.6 25.6 0 0 0 8.7.5l8.5-.4 4.8-.4 5-.8a65.6 65.6 0 0 1 12.3-.5c1.1 0 2.4 0 3-.9s.4-2.3.1-3.5c-.5-2.4 0-5-.4-7.5-.8-4.3-4.6-7.7-8.7-9.2-3.8-1.5-10.6-3.1-14.2-.7-3.9 2.6-6.2 6.8-9.6 10z" data-name="Path 294"/><path id="Path_295" fill="#464353" d="M680.7 413.4c.7 3.6 4.2 6.3 4.3 9.9 0 2.9-2 5.4-3.5 7.8a52 52 0 0 0-3.6 8.1 123.3 123.3 0 0 1-10.5 20.8c-2 3.2-4.3 6.6-3.8 10.3a15.2 15.2 0 0 0 1.8 5l6 11.8a34.2 34.2 0 0 1 3 7.5c.6 2.3.6 4.6 1 7 1 7.2 4.3 14.5 2.3 21.6-.2.6-.8 1.3-1.3.9a22 22 0 0 1 3.4 11.6c0 2.2-.7 4.5 0 6.5a7 7 0 0 1 1 2.6c0 .6-.3 1.1-.4 1.8-.1 1.6 1.4 3 3 3.6s3.4.4 5 1c3.2.9 5.4 3.5 8 5.4a16.8 16.8 0 0 0 9.2 3 2.3 2.3 0 0 0 1.4-.3 2.2 2.2 0 0 0 .7-1.6 9.1 9.1 0 0 0-3.3-8 3.7 3.7 0 0 1-1.2-1.2 3.1 3.1 0 0 1 0-1.4 106.2 106.2 0 0 0-.4-19.6 29.6 29.6 0 0 1-.4-6.3c.2-1.7.7-3.4.5-5.2s-1-3.3-1.5-5c-1-3-.7-6.1-.8-9.2a80.7 80.7 0 0 0-2.6-16c-.5-2-1-4.2-2.5-5.7-1.3-1.3-3.3-2.5-2.8-4.3a4.9 4.9 0 0 1 1.1-1.7 6.8 6.8 0 0 0 1.5-5.2 2.3 2.3 0 0 0 2.7-1.2 41.8 41.8 0 0 0 21-24 8.3 8.3 0 0 1 .9-2c.9-1.3 2.4-1.9 3.8-2.6 4.4-2.1 7.4-6.3 10.1-10.3a24.1 24.1 0 0 0 4-7.5 24.4 24.4 0 0 0 .5-5.3l.2-9.4a5 5 0 0 0-.2-1.8 4.4 4.4 0 0 0-1-1.5 18 18 0 0 0-9.8-5.4c-2.6-.4-5.2-.4-7.8-.6-5-.4-10-2-15-1.6-7.8.6-14.8 6-18.5 13-1.4 2.5-2.7 4.7-5.5 4.7z" data-name="Path 295"/><path id="Path_296" fill="#eb7a6d" d="M637 352.5a10.5 10.5 0 0 1-.6 4.3c-.6 1.3-2.1 2.3-3.5 1.8.4-1-.6-2-1.6-1.9a3.1 3.1 0 0 0-2.2 1.9 7 7 0 0 0-.7 4.3c.3 1.8 1.4 3.6 1.1 5.4-.2 1.5-1.3 3-.7 4.5a7.3 7.3 0 0 0 1.4 1.7 4.9 4.9 0 0 1-.5 6.7l15 .3c-.5 2.5.7 5.1 2 7.4a46.2 46.2 0 0 0 34.4 22.4 3 3 0 0 0-1 4.1 3.1 3.1 0 0 0 .3.5c1.2 1.2 3.3 1 4.8.3a36 36 0 0 0 4.2-3.1 12.7 12.7 0 0 1 8.5-2.3c1.9.2 3.7.8 5.6.9 5.6.3 10.4-3.7 15.8-5.4 3.9-1.2 8.3-1.2 11.6-3.7 1.5-1 2.6-2.7 2.2-4.5a7.5 7.5 0 0 0-1.6-2.6c-2-2.4-3-5.4-4.4-8.2a49 49 0 0 0-10.9-14.6 97.5 97.5 0 0 0-10.8-8.2 18.7 18.7 0 0 0-2.9-1.8 30.3 30.3 0 0 1-4-1.6c-1.8-1-2.8-3-4.1-4.7-3-3.4-7.6-5-11.3-7.8-2.5-1.8-4.7-4.3-7.6-5.1-1.4-.5-3-.5-4.4-1-3.3-1-5.6-3.8-8.8-5-2.6-.9-5.4-.7-8-1a18.5 18.5 0 0 1-8.2-3.1 9.8 9.8 0 0 0-2.7-1.6c-4-1.2-4.4 6.3-4.8 9-.6 4-1.6 7.8-1.6 11.7z" data-name="Path 296"/><path id="Path_297" fill="#fbbebe" d="M641 377.8c.6 7.3-5 14.4-3.3 21.6.3 1.6 1 3 1.2 4.5.7 4.3-1.9 8.3-4.3 11.9l-20.9 30.6a19.1 19.1 0 0 1-3 3.7c-4 3.6-10 3.2-15.2 4.2a26 26 0 0 0-10.2 4.6.7.7 0 0 0-.1.9 8.8 8.8 0 0 0 7.6 3.5c.5.8 0 1.8-.8 2.3-1.1.8-2.7 1-2.9 3a3.2 3.2 0 0 0 .4 1.8 6 6 0 0 0 3.7 2.6c7.1 2.2 15-1.7 20.4-7s9.3-12 14.6-17.4c3-3 6.3-5.5 9.3-8.4a106 106 0 0 0 15.3-19.7 21.8 21.8 0 0 0 3.3-6.8c.5-2.4.3-4.9 1-7.3.8-3 3.1-5.5 5-8.1 3.7-5.1 6.2-11.4 5.7-17.7s-4.4-12.5-10.3-14.6a9.1 9.1 0 0 0-5.8-.3c-2.4.7-4.2 2.7-5.9 4.6l-4 4.6a10.8 10.8 0 0 0-2.3 3.5 3.6 3.6 0 0 0 .8 4" data-name="Path 297"/><path id="Path_298" fill="#eb7a6d" d="M651.5 347.6c-2.8.1-5.8.4-7.7 2.4a11.2 11.2 0 0 0-2 3 30.4 30.4 0 0 0-3.8 12c-.1 3.5.9 6.8 1.4 10.2.4 2.8-.7 5.7-1 8.5a59 59 0 0 0 11-4.2 36.4 36.4 0 0 1 6.5-3.4c3.3-1 8.8.8 11.9 2.4.2-2.2-1.5-6-1.3-8.2a9.2 9.2 0 0 1 .5-2.7 17 17 0 0 1 1.6-2.6 10.7 10.7 0 0 0-1-12.6c-2.7-3.1-7-4.3-11.2-4.8a48.9 48.9 0 0 0-7.8-.3" data-name="Path 298"/></g><g id="svg--printing__man--one"><path id="Path_299" fill="url(#linear-gradient)" d="M244.3 284.7L226.7 259s-.3-6.4-1.5-7.8-.2-4.8-.2-4.8 1.2-1.8.2-2-.2-4.3-.2-4.3l-.1-6.4s1-6.2.2-7.7a2.5 2.5 0 0 1 0-2.6s1-3.6 0-4.5-.7-6.5-.4-10.9-1.8-6.8-1.8-7.5-6.5-7-6.5-7.7-4.2-3-6.7-3.6-3.7-1.1-3.6-1.4-3.9-1.7-3.9-1.7-3.5-.3-4.8-2-5.4-2.2-5.5-2.3v-.3a2.3 2.3 0 0 0-.1-.4l.9-1.6.2-.5a7 7 0 0 0 4-1.3 5.5 5.5 0 0 0 2-4 8.8 8.8 0 0 0-1-4.4c-.7-1.4-1.7-3-1.4-4.6l.8-2a5.2 5.2 0 0 0-.6-4c-.6-1.1-1.5-2.2-2.2-3.3a13.5 13.5 0 0 1-1.7-4.9 7.5 7.5 0 0 0-.6-2.6 5 5 0 0 0-1.5-1.5 14.5 14.5 0 0 0-9-2.7c-2.2.1-4.4.7-6.6.4a24.6 24.6 0 0 1-4-1c-2.8-.8-6-1.1-8.4.5s-3.4 4.7-5 7.2c-1.4 2.1-3.6 4-4.7 6.3v-.1a7.4 7.4 0 0 0-.6 1.7 11.8 11.8 0 0 0 .4 5.4 3.8 3.8 0 0 0 1.3 2.5c.8.5 2 .4 3 .6l-.2.4a19 19 0 0 0 13.1 22v.5a11.3 11.3 0 0 1 0 1.5s-8.4-1.8-10.6-.6-6.6 2-7.3 2.7-2.3.2-3.8 4-1.7 7.8-3.6 9.7-2.9 3-3 4.3.2 1.7-.5 2.1-1.8 2.2-1.5 2.8a2.3 2.3 0 0 1-.9 2.5 2.8 2.8 0 0 0-1.2 2.5s-.5 1.8-1.6 2.2-1.9 3.2-1.9 3.2l-3.8 4.3-7.4-8.2a3.1 3.1 0 0 0-4.4-.2l-3.7 3.2a7.2 7.2 0 0 0-3.6 2.2 9.7 9.7 0 0 0-2 2.8l-2 1.8a5 5 0 0 0-.5 5.7l4.8 5.2a8.5 8.5 0 0 0-4.6 2c-7.1 6.2-7.2 12-6.1 14.6s10 12.8 10 12.8a40.1 40.1 0 0 0 12.9 10.5l-.5.6-.1.1-.1.2-.2.2v.1l-.2.3-.1.1-.2.4-.2.5-.1.2a3.4 3.4 0 0 0-.1.3 1.7 1.7 0 0 0-.1.2l-.1.4a1.6 1.6 0 0 0 0 .2 2.4 2.4 0 0 1-.2.3v.3l-.2.6a.5.5 0 0 1 0 .2 3 3 0 0 0 0 .4 1.6 1.6 0 0 0 0 .3v.7a1.8 1.8 0 0 1-.1.5.7.7 0 0 0 0 .3v.8c-.2 9.7.4 11 .4 11a5.4 5.4 0 0 0 4.4 3.4 5.6 5.6 0 0 0 1.4-.1c4.3-.7 14.4-2.5 18-1.8 2.2.4 6.1-.2 9-.7l.7-.2.5 1.7 1.6-.5 1.4.8 1 .5c1.6 5.6 8.2 3.7 8.2 3.7l1.6.9 16 .4a32.6 32.6 0 0 0 5.6 2.7 5.5 5.5 0 0 0 .8.2 37.4 37.4 0 0 0 4.5 0h2.2l-.4-9.2a131 131 0 0 0 14.8-1.2c8.5-1.5 12.1-9.3 13.4-13.4a39.2 39.2 0 0 1 .8 5.1 38.7 38.7 0 0 0 1.4 4.5 15.3 15.3 0 0 0 1.6 3.3c6.3-2.1 2.5-5.4 1.2-6.8s.9-2.5.9-2.5 1.7-1.2 1.5-2.3-.2-2.2 5.4-2.1 5.3-4.6 5.3-4.6zM157 232c0 .5.9 5.6 1.6 6.9a9 9 0 0 1 .1 2.7c-3.3-.3-6.8-.4-6.8-.4a.8.8 0 0 1 .2.4l-.5-.1-.8-.2 6.2-9.3zm-12.2 19.4l5.8.9h.5a18.7 18.7 0 0 0-.3 2.8l.3.3a7.1 7.1 0 0 0-.1 1.3c0 .5 2.8 1.5 5.9 2.3l-.2.5c-2.7-1.5-7-2.1-7.5-3.2s-15.2-6.3-15.2-6.3l-1.4-.7 3.8.7 1-.1a57 57 0 0 0 7.4 1.4z" data-name="Path 299"/><path id="Path_300" fill="#65617d" d="M225.5 288.3s-2.3 13.9-14 16-50.5 1.6-50.5 1.6-22.3-3.2-30.3-22-13.2-26.3-6.3-26.6 44.1 12.5 46.2 12.7 57-28.6 54.9 18.3z" data-name="Path 300"/><path id="Path_301" d="M225.5 288.3s-2.3 13.9-14 16-50.5 1.6-50.5 1.6-22.3-3.2-30.3-22-13.2-26.3-6.3-26.6 44.1 12.5 46.2 12.7 57-28.6 54.9 18.3z" data-name="Path 301" opacity=".1" style="isolation:isolate"/><path id="Path_302" fill="#3f3d56" d="M121.2 303.8a5.3 5.3 0 0 0 4.3 3.2 6 6 0 0 0 1.4 0c4.3-.8 14.3-2.5 17.8-1.9 2.2.4 6-.2 8.9-.7l3.2-.7s-3.3-10.9-3.7-11.2l-14.8-9-11.4-.8a6 6 0 0 0-3.8 2.2c-1.2 1.5-2.2 3.9-2.3 7.8-.2 9.6.4 11 .4 11z" data-name="Path 302"/><path id="Path_303" d="M121.2 303.8a5.3 5.3 0 0 0 4.3 3.2 49 49 0 0 1-3-4.5v-8a14 14 0 0 1 4.5-11.8s-6 .4-6.2 10 .4 11 .4 11z" data-name="Path 303" opacity=".1" style="isolation:isolate"/><path id="Path_304" d="M170.5 286.3l10.6-8.3 16.6-16.4-4.4-.2c-.7.4-2.6 1.8-2.7 3.4 0 2-4.5.2-6.8 1.3s-13.5 15.6-15.5 15.5-3.5-1-4.3.4h-.1z" data-name="Path 304" opacity=".1" style="isolation:isolate"/><path id="Path_305" d="M123 285l1.2.5c8 3.5 18 10.7 18.7 12 .5.8 6.2 4.3 10.7 7l3.2-.8s-3.3-10.9-3.7-11.2l-14.8-9-11.4-.8a6 6 0 0 0-3.9 2.3z" data-name="Path 305" opacity=".1" style="isolation:isolate"/><path id="Path_306" fill="#65617d" d="M100.7 261.5c1 2.6 10 12.7 10 12.7s5.7 7.4 13.7 10.8 18 10.6 18.7 12a87 87 0 0 0 11.4 7.3l1 .6 2.3 1.3 1.2.7 5.5-4.4c2.8-2.2 5.4-4.4 5.4-4.5s1.1-3 .9-3.2-.7-1.2-1.8-2.6a11.6 11.6 0 0 0-4.2-3.4 11.9 11.9 0 0 1-5.3-5.7l-1-.6a11.1 11.1 0 0 0-3.6-1.6c-1.8-.2-5.2-4-5.2-4a10 10 0 0 1-3.2-3.3c-1-1.8-13.6-10.6-14.8-11.4l30.9 19.9 7.4 4.7 10.6-8.3 16.7-16.4-5.5-.3c-8.1-.3-22.5-.8-24.3-.4a14.1 14.1 0 0 1-4.5.3s-4.1.1-6.8-1.3-7-2-7.5-3.1-15-6.2-15-6.2-19.8-10.5-26.8-4.3-7.2 12-6.2 14.7z" data-name="Path 306"/><path id="Path_307" fill="#ee8e9e" d="M164.5 201.2l2.5 8.5 3.3 19 12.1.8 3.5-5.8 3.4-5.8s2.2-7.7 3.8-15c1.4-6.7 2.3-13 .8-13.8-1.4-.6-2.2-2.8-2.8-5.2l-.2-.9a48.4 48.4 0 0 1-.8-6.1s-25.3-1.3-21.8 9.1a16.6 16.6 0 0 1 1 5.5 6.7 6.7 0 0 1-.1 1.5 11.8 11.8 0 0 1-4.7 8.2z" data-name="Path 307"/><path id="Path_308" fill="#e3e8f4" d="M159.3 199.8l.8 14.4 2 12.2 2.4 5.7 2 31s19.8 2.3 24.6 0a2 2 0 0 0 1-.7c5.7-8.8 3.8-34.2 3.8-34.2l2.2-16.5-1.4-8.5-3.6-.4-2.8-.3-1.5 2c-2.4 3.2-7 9.5-6.6 12.2.4 3.5-.5 7.3-2 7.8s-2.4 1.6-2.7.6a4.4 4.4 0 0 1-.2-2.6c.2-1.4-1.1-5.7-1.1-5.7s-2.2-5-2-7.1-.3-4.6-1-5.2-1.5-1.1-.8-3.8-3.2-7.7-3.2-7.7z" data-name="Path 308"/><path id="Path_309" d="M185.4 235.7l.8 24.5 4.8 2.7a2.1 2.1 0 0 0 .9-.7c5.8-8.8 3.9-34.2 3.9-34.2l2.2-16.4-1.5-8.6-3.6-.4c1.4-6.6 2.3-13 .8-13.7-1.3-.6-2.2-2.8-2.8-5.2l-2.5 17.4.2 3.2a9 9 0 0 1-.2 3 10.2 10.2 0 0 0-.1 4.1 33.4 33.4 0 0 0-2.6 12.1c-.5 6.3-.3 12.2-.3 12.2z" data-name="Path 309" opacity=".1" style="isolation:isolate"/><path id="Path_310" fill="#3f3d56" d="M191 183.3s4.1.5 5.5 2.3 4.7 2 4.7 2 4 1.3 3.9 1.6 1.1.8 3.6 1.5 6.5 3 6.5 3.6 6.5 7 6.5 7.6 2 3.1 1.7 7.5-.5 9.9.5 10.8 0 4.4 0 4.4a2.4 2.4 0 0 0 0 2.6c.8 1.5-.2 7.7-.2 7.7v6.4s-.8 4 .2 4.2-.1 2-.1 2-1 3.2.2 4.7 1.5 7.8 1.5 7.8l17.6 25.5s.2 4.7-5.4 4.6-5.5 1.1-5.3 2.2-1.6 2.2-1.6 2.2-2.2 1.1-.9 2.5 5.1 4.6-1.1 6.8a14.6 14.6 0 0 1-1.8-3.3 38.2 38.2 0 0 1-1.3-4.4s-.6-6.3-1.8-7.1-1-4.8-1-4.8 1.7-3.2-.6-4.5L186.7 260l-.8-24.6s-.6-18.1 2.8-24.2a10.1 10.1 0 0 1 .2-4.1c.6-1.5 0-6.2 0-6.2z" data-name="Path 310"/><path id="Path_311" d="M169.5 193.2s-8.3-1.7-10.5-.5-6.6 2-7.2 2.7-2.3.1-3.8 4-1.6 7.8-3.5 9.6-2.9 3-3 4.3.3 1.7-.4 2-1.8 2.2-1.5 2.9 17 15 17 15 .9 5.6 1.6 7-.8 20.6-2.4 21.9 11 1.2 11 1.2.6-12.6 1-13.3-.3-14-.3-14 0-11.6 1-14.6 1-13.2 1-13.2.9-6 2-7.4-2-7.6-2-7.6z" data-name="Path 311" opacity=".1" style="isolation:isolate"/><path id="Path_312" fill="#3f3d56" d="M169.2 193s-8.2-1.7-10.4-.6-6.6 2.1-7.2 2.7-2.3.2-3.8 4-1.7 7.8-3.5 9.6-3 3-3 4.4.3 1.6-.5 2-1.8 2.2-1.5 2.8 17.1 15.1 17.1 15.1.8 5.5 1.6 6.9-.9 20.6-2.5 22 11.1 1.1 11.1 1.1.6-12.6 1-13.2-.3-14.2-.3-14.2 0-11.4 1-14.5 1-13.1 1-13.1 1-6 2.1-7.5-2.2-7.5-2.2-7.5z" data-name="Path 312"/><path id="Path_313" d="M168.4 186a16.7 16.7 0 0 1 1 5.5 18.9 18.9 0 0 0 21.5-8.5 45 45 0 0 1-.8-6.1s-25.3-1.3-21.7 9.1z" data-name="Path 313" opacity=".1" style="isolation:isolate"/><path id="Path_314" fill="#ee8e9e" d="M155.9 173a18.9 18.9 0 1 0 .4-3.9 18.4 18.4 0 0 0-.4 4z" data-name="Path 314"/><path id="Path_315" fill="#3f3d56" d="M143.8 216.6l-4.5 1.4a2.3 2.3 0 0 1-.9 2.4 2.7 2.7 0 0 0-1.1 2.5s-.5 1.8-1.7 2.2-1.8 3.1-1.8 3.1l-3.8 4.4s-1.4 1.1-1.1 1.7-1.5.7-1.5.7l.9 14.7 7.8 1.4 4.8-.4 4-1.5 3.4-2 1.5-4 7-10.6z" data-name="Path 315"/><path id="Path_316" fill="#ee8e9e" d="M128.5 236.2s-10-14.5-17.5-6.7 3 20.5 5.5 20 14.2-1 14.2-1z" data-name="Path 316"/><rect id="Rectangle_422" width="40.7" height="52.4" x="100.3" y="210.6" fill="#3f3d56" data-name="Rectangle 422" rx="1.5" transform="rotate(-63 120.7 236.8)"/><path id="Rectangle_423" fill="#eb7a6d" d="M104.2 214.7h33.2v44.1h-33.2z" data-name="Rectangle 423" transform="rotate(-63 120.8 236.7)"/><circle id="Ellipse_52" cx="99.6" cy="225.9" r=".7" fill="#e6e8ec" data-name="Ellipse 52"/><circle id="Ellipse_53" cx="142.1" cy="247.7" r="1.2" fill="#e6e8ec" data-name="Ellipse 53"/><path id="Path_317" fill="#ee8e9e" d="M122 239.2c0 10.9 22.3 13.2 22.3 13.2l5.7.9 2.6.4 1-10.6-2.6-.6c-2.1-.5-5-1.3-5.5-2.6-1-2-23.5-11.5-23.5-.7z" data-name="Path 317"/><path id="Path_318" d="M156.3 169.1a2.2 2.2 0 0 1 1.4.6c.6.7.6 2 1.5 2.3a1.8 1.8 0 0 0 1 .1c2.1-.3 3.4-2.7 5.5-3.4a5.6 5.6 0 0 1 3.7.3 2.9 2.9 0 0 1 1.2.8c.7.9.2 2.2.5 3.3.5 1.6 2.3 2.2 3.9 2.4s3.3.3 4.4 1.5a4 4 0 0 1 .7 3.1 2.4 2.4 0 0 0 0 1.2c.5 1.3 2.6 1 3.2 0 .4-.6.2-1.2 1.2-1.4a4 4 0 0 1 2 .4 15.1 15.1 0 0 0 5.2.8 18.8 18.8 0 1 0-34-16 18.2 18.2 0 0 0-1.4 4z" data-name="Path 318" opacity=".1" style="isolation:isolate"/><path id="Path_319" fill="#3f3d56" d="M180.1 180.8a2.6 2.6 0 0 1 0-1.2 4 4 0 0 0-.7-3.1c-1-1.2-2.9-1.3-4.5-1.5s-3.4-.8-3.8-2.4c-.3-1 .2-2.4-.5-3.3a2.6 2.6 0 0 0-1.3-.8 5.6 5.6 0 0 0-3.6-.3c-2.1.7-3.4 3.1-5.6 3.5a1.7 1.7 0 0 1-1-.2c-.8-.4-.9-1.6-1.4-2.2-1-1.1-3-.4-4.2-1.2a3.8 3.8 0 0 1-1.3-2.4 11.8 11.8 0 0 1-.4-5.5c.8-3 3.5-5.1 5.2-7.7 1.6-2.5 2.6-5.5 5-7.1s5.6-1.3 8.4-.5a23.8 23.8 0 0 0 3.9 1c2.2.3 4.4-.3 6.6-.4a14.3 14.3 0 0 1 8.9 2.7 4.9 4.9 0 0 1 1.4 1.5 7.4 7.4 0 0 1 .6 2.6 13.4 13.4 0 0 0 1.8 4.8c.7 1.2 1.5 2.2 2.1 3.4a5.3 5.3 0 0 1 .6 3.9c-.2.7-.6 1.3-.7 2-.4 1.6.6 3.1 1.4 4.6a8.7 8.7 0 0 1 1 4.4 5.5 5.5 0 0 1-2 4 7 7 0 0 1-4.2 1.2 14.7 14.7 0 0 1-5.3-.8 4.2 4.2 0 0 0-2-.4c-1 .2-.8.8-1.2 1.5-.6 1-2.7 1.2-3.2 0z" data-name="Path 319"/><path id="Path_320" d="M170 286.8l10.6-8.3 16.7-16.4-5.5-.2a3.6 3.6 0 0 0-1.2 2.2c0 2-4.5.1-6.8 1.3s-13.5 15.5-15.5 15.4-3.5-1-4.4.4v.1a2.3 2.3 0 0 1-1.3.8z" data-name="Path 320" opacity=".1" style="isolation:isolate"/><path id="Path_321" fill="#65617d" d="M148.7 286.3l5.3 17 .8 2.6 2.5-.6 5.6-1.6 25-6.8a21.5 21.5 0 0 0 9-2.4 27.1 27.1 0 0 1 15.4-3.4c3.3.3 7-1 10-6.7 0 0 6.9-20.4-10.5-26.2s-18.3 3.1-18.3 3.1l-.2.2c-.7.4-2.6 1.8-2.6 3.4-.1 2-4.5.1-6.8 1.3s-13.6 15.5-15.6 15.4-3.5-1-4.3.4v.1c-.7.9-2.5 1-3.7 1a10.7 10.7 0 0 1-1.2 0l-.1.1-1.3.4z" data-name="Path 321"/><path id="Path_322" d="M150 253.3l2.6.3 1-10.5-2.6-.6c.4 1.5-.5 7.2-1 10.8z" data-name="Path 322" opacity=".1" style="isolation:isolate"/><path id="Path_323" d="M217.2 203.8s7.6-2.3 5.7 19.4a60.6 60.6 0 0 1-16 35.4s-16.2 7.1-23.6 6a125.2 125.2 0 0 0-12.6-1.4 18.6 18.6 0 0 0-7.4-2c-4-.2-12.7-2.7-12.9-3.5s2.2-13 1.2-13.8c0 0 11.5.5 12.6 1.3s2.8.2 4 0 5-3.5 12.5-.7c0 0 2.5.3 3.5-.4a3.5 3.5 0 0 1 2.6-.1 7.4 7.4 0 0 0 1.8-1c.2-.2 2.2 0 2.2 0a.9.9 0 0 0 1.2-.4v-.1a5.4 5.4 0 0 1 1.2-1.8s2.2-12.5 6.4-17.2a2.8 2.8 0 0 0 .9-2.3c-.3-1.3 6.8-20 16.7-17.4z" data-name="Path 323" opacity=".1" style="isolation:isolate"/><path id="Path_324" fill="#3f3d56" d="M217 202.1s7.6-2.2 5.8 19.5a60.6 60.6 0 0 1-16 35.3s-16.3 7.2-23.6 6-12.6-1.4-12.6-1.4a18.5 18.5 0 0 0-7.4-2c-4.1-.2-12.8-2.7-13-3.5s2.2-12.9 1.2-13.8c0 0 11.5.5 12.7 1.3s2.8.2 4 0 5-3.5 12.5-.7c0 0 2.5.3 3.5-.4a3.6 3.6 0 0 1 2.5-.1 7.6 7.6 0 0 0 1.8-1c.3-.3 2.3 0 2.3 0a.9.9 0 0 0 1.1-.4.6.6 0 0 0 0-.1 5.3 5.3 0 0 1 1.2-1.8s2.2-12.5 6.4-17.2a2.7 2.7 0 0 0 1-2.3c-.4-1.3 6.7-20 16.6-17.4z" data-name="Path 324"/><path id="Path_325" d="M157.7 283.6l10.8 13c.2-.3 1.2-3 1-3.2s-2.2-4.3-6-6a11.2 11.2 0 0 1-4.6-4.2z" data-name="Path 325" opacity=".1" style="isolation:isolate"/><path id="Path_326" d="M157.8 306.3l1.2.6 5.5-4.4 5.4-4.5s1.1-3 .9-3.2-.7-1.2-1.8-2.5c-7.3-2-2.6 3-2 3.2 0 0-9-2-9.4 7.7a11.7 11.7 0 0 0 .2 3z" data-name="Path 326" opacity=".1" style="isolation:isolate"/><path id="Path_327" fill="#3f3d56" d="M166.9 310.4l1.5.9 15.9.4a31.1 31.1 0 0 0 5.6 2.7 5.3 5.3 0 0 0 .8.2 38.4 38.4 0 0 0 4.4 0h2.2s-.8-20-1.4-22.1c-.2-1-1.6-.8-2.9-.3a19.4 19.4 0 0 0-2.8 1.4s-6.7.7-7.8 1.2-4.1-.3-6 0-5.3-2.2-5.3-2.2c-9.2-3-4 2.7-3.3 3 0 0-9-2.2-9.5 7.6s8.6 7.2 8.6 7.2z" data-name="Path 327"/><path id="Path_328" fill="#565387" d="M189.8 302.7c.2 4.1 3.4 9.2 5.3 12l2.2-.1s-.8-20-1.4-22c-.2-1-1.6-.9-2.9-.4a23 23 0 0 0-3.2 10.5z" data-name="Path 328"/><path id="Path_329" d="M189.8 302.7c.2 4.1 3.4 9.2 5.3 12l2.2-.1s-.8-20-1.4-22c-.2-1-1.6-.9-2.9-.4a23 23 0 0 0-3.2 10.5z" data-name="Path 329" opacity=".1" style="isolation:isolate"/><path id="Path_330" d="M187 303.2c1.2 4 1.2 8.5 2.9 11.2a4.3 4.3 0 0 0 .8.2 34.3 34.3 0 0 0 4.4 0h2.2s-.8-20-1.4-22.1c-.2-1-1.6-.8-2.9-.3a20.4 20.4 0 0 0-2.8 1.4s-4.5 4.5-3.1 9.6z" data-name="Path 330" opacity=".1" style="isolation:isolate"/><path id="Path_331" d="M132.4 262.7s7.9 2.6 14.6 11.7z" data-name="Path 331" opacity=".1" style="isolation:isolate"/><g id="Group_23" data-name="Group 23" opacity=".1"><path id="Path_332" d="M196.4 164.2a.3.3 0 0 1 0 .2 4.4 4.4 0 0 1-.4.7 5.2 5.2 0 0 1 .4-.9z" data-name="Path 332"/><path id="Path_333" d="M151.8 160.2a7 7 0 0 1 .7-1.6 2.3 2.3 0 0 1-.2.4 12 12 0 0 0 .4 5.4 3.8 3.8 0 0 0 1.3 2.5c1.3.7 3.1 0 4.1 1.1.7.7.7 1.9 1.5 2.3a1.6 1.6 0 0 0 1 .1c2.2-.3 3.5-2.8 5.6-3.4a5.6 5.6 0 0 1 3.6.3 2.8 2.8 0 0 1 1.3.8c.7.9.2 2.2.5 3.3.4 1.5 2.3 2.1 3.8 2.3s3.4.3 4.4 1.5a4 4 0 0 1 .8 3.2 2.6 2.6 0 0 0 0 1.2c.5 1.2 2.6 1 3.1 0 .5-.6.3-1.2 1.3-1.4a4.2 4.2 0 0 1 2 .3 15.1 15.1 0 0 0 5.3.8 7 7 0 0 0 4.2-1.3 4.8 4.8 0 0 0 1.2-1.5 5.2 5.2 0 0 1-1.8 2.8 7.1 7.1 0 0 1-4.1 1.2 15.1 15.1 0 0 1-5.3-.8 4.2 4.2 0 0 0-2-.3c-1 .2-.9.8-1.3 1.5-.5 1-2.7 1.1-3.1 0a2.6 2.6 0 0 1 0-1.3 4 4 0 0 0-.8-3.1c-1-1.2-2.8-1.3-4.4-1.5s-3.4-.8-3.8-2.4c-.3-1 .1-2.4-.6-3.3a2.6 2.6 0 0 0-1.2-.8 5.6 5.6 0 0 0-3.6-.3c-2.1.7-3.4 3.1-5.6 3.4a1.6 1.6 0 0 1-1 0c-.8-.5-.9-1.7-1.5-2.4-1-1-2.9-.3-4-1.1a3.8 3.8 0 0 1-1.4-2.4 11.7 11.7 0 0 1-.3-5.5z" data-name="Path 333"/></g><path id="Path_334" d="M197.7 226c-1.6 2-3.3 3.8-4.6 6a11.5 11.5 0 0 0-2 7.1c1.4-1.4 2-3.3 2.9-5.1 1.4-3 3.6-5.5 5.5-8.3.3-.5 2.6-3.6 1.5-3.7-1-.1-2.8 3.2-3.3 4z" data-name="Path 334" opacity=".1" style="isolation:isolate"/></g><g id="svg--printing--woman"><path id="Path_335" fill="#a1616a" d="M205.7 418.2c1.1 3.5 2.2 7 3.6 10.4a88.8 88.8 0 0 0 9.1 16.7 124 124 0 0 0 7.6 10c3.4 4 7.2 8 8.4 13 .7 3 .4 6 .7 9s1.3 6.2 3.7 8a13.5 13.5 0 0 0 6.1 2c1.5.3 3.4.4 4.2-1a3.8 3.8 0 0 0 .5-1.7l.3-4.4c0-1 .4-2.2 1.4-2.2s1.4 1.2 2.2 1.8c1.1.8 2.7 0 3.3-1.1a5.5 5.5 0 0 0 .1-4 18.3 18.3 0 0 0-9.4-11.6 26.5 26.5 0 0 1-4.6-2.4 15.7 15.7 0 0 1-3.6-4.5c-8.3-13.8-16.7-27.6-22.6-42.5a31.3 31.3 0 0 1-2.3-8.4 54.4 54.4 0 0 1 .3-8.9 50.7 50.7 0 0 0-1.4-15.7 12.5 12.5 0 0 0-1.5-3.8c-2.5-3.7-8.1-4.3-11.7-1.7a12 12 0 0 0-4.7 8.5c-.2 3 1.5 6 2.4 8.8l8 25.7z" data-name="Path 335"/><path id="Path_336" d="M205.7 418.2c1.1 3.5 2.2 7 3.6 10.4a88.8 88.8 0 0 0 9.1 16.7 124 124 0 0 0 7.6 10c3.4 4 7.2 8 8.4 13 .7 3 .4 6 .7 9s1.3 6.2 3.7 8a13.5 13.5 0 0 0 6.1 2c1.5.3 3.4.4 4.2-1a3.8 3.8 0 0 0 .5-1.7l.3-4.4c0-1 .4-2.2 1.4-2.2s1.4 1.2 2.2 1.8c1.1.8 2.7 0 3.3-1.1a5.5 5.5 0 0 0 .1-4 18.3 18.3 0 0 0-9.4-11.6 26.5 26.5 0 0 1-4.6-2.4 15.7 15.7 0 0 1-3.6-4.5c-8.3-13.8-16.7-27.6-22.6-42.5a31.3 31.3 0 0 1-2.3-8.4 54.4 54.4 0 0 1 .3-8.9 50.7 50.7 0 0 0-1.4-15.7 12.5 12.5 0 0 0-1.5-3.8c-2.5-3.7-8.1-4.3-11.7-1.7a12 12 0 0 0-4.7 8.5c-.2 3 1.5 6 2.4 8.8l8 25.7z" data-name="Path 336" opacity=".1" style="isolation:isolate"/><path id="Path_337" fill="#514e7f" d="M153.3 565a12 12 0 0 0 5.1.7c.1-1.4 2-1.8 3.4-1.7a4 4 0 0 1 2 .5l1 .8a4.2 4.2 0 0 0 2 .5l7.3.6c3.2.3 6.6.5 9.7-.7a3.3 3.3 0 0 0 1.5-1c.8-1.1 0-2.8-1.1-3.7s-2.6-1.3-3.8-2.1c-2.5-2-2.9-5.6-4.2-8.5a25.5 25.5 0 0 0-3.5-5 19.9 19.9 0 0 0-3.5-3.6c-2.9-2-6.2-2-9.7-2.3-2.4-.3-4.7-.4-6.4 1.8-2.2 2.7-1.3 8-1.2 11.2a82 82 0 0 0 1.5 12.6z" data-name="Path 337"/><path id="Path_338" d="M153.3 565a12 12 0 0 0 5.1.7c.1-1.4 2-1.8 3.4-1.7a4 4 0 0 1 2 .5l1 .8a4.2 4.2 0 0 0 2 .5l7.3.6c3.2.3 6.6.5 9.7-.7a3.3 3.3 0 0 0 1.5-1c.8-1.1 0-2.8-1.1-3.7s-2.6-1.3-3.8-2.1c-2.5-2-2.9-5.6-4.2-8.5a25.5 25.5 0 0 0-3.5-5 19.9 19.9 0 0 0-3.5-3.6c-2.9-2-6.2-2-9.7-2.3-2.4-.3-4.7-.4-6.4 1.8-2.2 2.7-1.3 8-1.2 11.2a82 82 0 0 0 1.5 12.6z" data-name="Path 338" opacity=".1" style="isolation:isolate"/><path id="Path_339" fill="#464353" d="M156.3 423.1c-2.2.7-3.2 3.5-2.8 5.8s1.8 4.3 3 6.4c3.2 5.8 4.6 12.4 7.3 18.5 2 4.5 4.8 8.7 6.8 13.3s3.3 9.6 2 14.5c-.6 2.3-1.7 4.5-2.5 6.8a37.9 37.9 0 0 0-1.4 7.6 145.7 145.7 0 0 0-.5 26.7 7.9 7.9 0 0 0 .6 3.1c.5.9 1.3 1.8 1 2.7-.2.4-.6.6-.7 1-.5 1 .5 2 1.3 2.8a2.3 2.3 0 0 1-1.4 1.1 3.4 3.4 0 0 1 1.4 3.8c-.7 0-.8 1.2-.3 1.9s1.2 1 1.6 1.6a2.4 2.4 0 0 1-1.3 3 6.2 6.2 0 0 1-3.6.3 38.1 38.1 0 0 1-5.8-1.3 4.3 4.3 0 0 1-3.5-4.4 65.6 65.6 0 0 1-.4-11c.3-17.8 0-35.7-.7-53.5A61 61 0 0 0 151 453a108.8 108.8 0 0 0-5.1-9.8c-4-7.4-7.6-15.5-6.6-23.8 0-1 .4-2 1.3-2.1a1.8 1.8 0 0 1 1 .1 44.8 44.8 0 0 1 5.3 3 20.1 20.1 0 0 0 9.3 2.7z" data-name="Path 339"/><path id="Path_340" d="M156.3 423.1c-2.2.7-3.2 3.5-2.8 5.8s1.8 4.3 3 6.4c3.2 5.8 4.6 12.4 7.3 18.5 2 4.5 4.8 8.7 6.8 13.3s3.3 9.6 2 14.5c-.6 2.3-1.7 4.5-2.5 6.8a37.9 37.9 0 0 0-1.4 7.6 145.7 145.7 0 0 0-.5 26.7 7.9 7.9 0 0 0 .6 3.1c.5.9 1.3 1.8 1 2.7-.2.4-.6.6-.7 1-.5 1 .5 2 1.3 2.8a2.3 2.3 0 0 1-1.4 1.1 3.4 3.4 0 0 1 1.4 3.8c-.7 0-.8 1.2-.3 1.9s1.2 1 1.6 1.6a2.4 2.4 0 0 1-1.3 3 6.2 6.2 0 0 1-3.6.3 38.1 38.1 0 0 1-5.8-1.3 4.3 4.3 0 0 1-3.5-4.4 65.6 65.6 0 0 1-.4-11c.3-17.8 0-35.7-.7-53.5A61 61 0 0 0 151 453a108.8 108.8 0 0 0-5.1-9.8c-4-7.4-7.6-15.5-6.6-23.8 0-1 .4-2 1.3-2.1a1.8 1.8 0 0 1 1 .1 44.8 44.8 0 0 1 5.3 3 20.1 20.1 0 0 0 9.3 2.7z" data-name="Path 340" opacity=".1" style="isolation:isolate"/><path id="Path_341" fill="#464353" d="M126.2 401.4a7.7 7.7 0 0 0-4-1.2c-1.5 0-3 1.1-4.1 2.1a41.9 41.9 0 0 0-4.2 3.7 22.4 22.4 0 0 0-5 22.2 43 43 0 0 0 6 10.9l5 7c7.3 10.6 14.7 21.2 22.5 31.6a1.2 1.2 0 0 0 .8 1.2c.3 0 .7 0 .9.3a.9.9 0 0 1 0 .4 6.9 6.9 0 0 1-.4 2.3 1 1 0 0 0 0 .8c.2.5 1.2.2 1.6.8.2.3 0 .8-.4 1.1s-.6.6-.6 1 .8 1 .8 1.5c0 .3-.3.5-.5.8a2 2 0 0 0 .3 2.5c.5 5-2.3 10-2.8 15-1 8 2.7 15.7 3.1 23.7a6.4 6.4 0 0 0 .6 2.7c.7 1.3 2.6 2.2 2.5 3.8a16 16 0 0 1-.5 1.9 13.7 13.7 0 0 0 .3 2.7c0 .9-.8 2-1.6 1.6q1 3.2 1.7 6.4l17 1.4a14.7 14.7 0 0 0-.2-4.6c-.3-1.6-1-3.2-1.5-4.8a5.7 5.7 0 0 1 .7-4.8 1.9 1.9 0 0 1-1.9-1.5 7.5 7.5 0 0 1 0-2.7c.5-4.4-1.4-8.8-1.3-13.2 0-3.5 1.2-7 1.9-10.3 1.3-7.4 0-15.4 3.2-22.1 2-4.1 4.7-8.6 2.5-12.5-1.1-2-3-3.3-4.3-5.1a20.7 20.7 0 0 1-2.3-5.6c-2.6-8-6.9-15.6-10.6-23.3a24 24 0 0 1-2.2-6 31.6 31.6 0 0 1-.3-5.7 83.8 83.8 0 0 0-.6-10.2 9.8 9.8 0 0 0-1.3-4.2 9.3 9.3 0 0 0-2.7-2.4c-5.5-3.8-12.1-6-18.1-9.2z" data-name="Path 341"/><path id="Path_342" fill="#514e7f" d="M146.5 571.3a12.2 12.2 0 0 0 5 .6c.2-1.4 2-1.7 3.5-1.7a4 4 0 0 1 2 .5l1 .8a4 4 0 0 0 2 .5l7.2.6c3.3.3 6.7.5 9.7-.6a3.3 3.3 0 0 0 1.6-1c.8-1.2 0-3-1.2-3.8s-2.6-1.2-3.7-2.1c-2.5-2-2.9-5.6-4.2-8.4a24.8 24.8 0 0 0-3.5-5.1 19.5 19.5 0 0 0-3.5-3.5c-2.9-2.2-6.3-2.1-9.7-2.4-2.4-.2-4.7-.4-6.5 1.8-2.1 2.7-1.2 8-1.1 11.2a79.8 79.8 0 0 0 1.5 12.6z" data-name="Path 342"/><circle id="Ellipse_54" cx="221.8" cy="355.2" r="16.8" fill="#a1616a" data-name="Ellipse 54"/><path id="Path_343" fill="#a1616a" d="M206 360.2c-2.5 2-6 2.2-9 2.5a56.8 56.8 0 0 0-19.5 5.7 7.2 7.2 0 0 0-2.3 1.5 6.6 6.6 0 0 0-1.1 2.4 15.8 15.8 0 0 0-.6 5.9 16.8 16.8 0 0 0 1.6 5.5 29.7 29.7 0 0 0 10.4 11.9 7.7 7.7 0 0 0 2.7 1.2c2.2.5 4.3-.8 6.5-1.4a10.8 10.8 0 0 1 6 .2c1.8.6 3.8 1.8 5.5 1a5.6 5.6 0 0 0 2.5-2.8 97.3 97.3 0 0 0 4.6-10 36.5 36.5 0 0 1 1.7-4c2-3.7 5.3-6.5 7-10.4a2.3 2.3 0 0 0 .2-2 2.7 2.7 0 0 0-1.3-1 29.6 29.6 0 0 1-6.7-5.2c-1.1-1-3.1-4-4.7-4.2-1.8-.3-2.4 2.1-3.6 3.2z" data-name="Path 343"/><path id="Path_344" fill="#eb7a6d" d="M206.3 394.4c-2 .9-4.2.5-6.3 0-5.5-1-11-2.2-16-4.6a8.6 8.6 0 0 1-4-3 9.8 9.8 0 0 1-1-3.8l-1-6.3c-.3-2.1.3-4.2.3-6.4a1.9 1.9 0 0 0-.4-1.4 1.6 1.6 0 0 0-1-.3c-2.6 0-4.1 2.7-5.9 4.5a10.9 10.9 0 0 1-3.6 2.4c-1.6.6-3.6 1.1-4.2 2.7-.3.7-.3 1.5-.6 2.1-1.1 2.7-6 1.8-7.2 4.5-.3.8-.3 1.7-.9 2.3s-1.6.6-2.5.8c-3.5.5-5.2 4.6-8.2 6.5-2.5 1.6-5.8 1.6-8.5 2.8-1.5.7-2.9 1.8-4.5 2.3a21.7 21.7 0 0 1-5 .3 1.3 1.3 0 0 0-1 .3 1.4 1.4 0 0 0-.3 1.1 31 31 0 0 0 19.2 24 6 6 0 0 1 1.6.8c1.6 1.1 1.8 3.6 3.6 4.4a3.6 3.6 0 0 0 3.6-.8 32.5 32.5 0 0 0 2.7-3 10.6 10.6 0 0 1 6-3c2-.4 4.4-.1 6-1.4a18.6 18.6 0 0 0 2-2 12.1 12.1 0 0 1 4.3-2.7 44.3 44.3 0 0 1 13.9-3c4.4-.2 9 .2 13.2-1.2a8 8 0 0 0 3-1.7 8.9 8.9 0 0 0 2-3.4 26 26 0 0 0 .8-13.7z" data-name="Path 344"/><path id="Path_345" fill="#eb7a6d" d="M184.6 369.6h3.8c1.4 0 2.9-.4 4.3-.4A10.9 10.9 0 0 1 203 377a2 2 0 0 1 0 1.1.8.8 0 0 1-.8.6 18.9 18.9 0 0 0-1.9-3.8 10.6 10.6 0 0 0-5.6-4 14.6 14.6 0 0 0-7-.2l-2.8.7-4.5 1.2-2.5.8c-.6.2-1.6 1-2.2 1.1-.9 0-.2-.7.2-1.2a6 6 0 0 1 3-2.1 25.4 25.4 0 0 1 5.7-1.6z" data-name="Path 345"/><path id="Path_346" fill="#a1616a" d="M196 420.1c1 3.5 2.2 7 3.5 10.4a87.4 87.4 0 0 0 9.2 16.7 121.9 121.9 0 0 0 7.6 10c3.4 4 7.1 8 8.3 13 .7 3 .5 6 .8 9s1.3 6.2 3.7 8a13.7 13.7 0 0 0 6 2c1.6.3 3.5.3 4.3-1a4 4 0 0 0 .4-1.7l.4-4.4c0-1 .4-2.2 1.4-2.2s1.4 1.2 2.2 1.8c1 .7 2.7 0 3.3-1.2a5.6 5.6 0 0 0 0-3.8 18.4 18.4 0 0 0-9.3-11.7 26.6 26.6 0 0 1-4.6-2.4 15.3 15.3 0 0 1-3.6-4.6 279.9 279.9 0 0 1-22.6-42.4 31.5 31.5 0 0 1-2.4-8.4 55.7 55.7 0 0 1 .4-8.9 50 50 0 0 0-1.5-15.7 12.2 12.2 0 0 0-1.5-3.8c-2.4-3.7-8-4.3-11.6-1.7a12 12 0 0 0-4.7 8.5c-.3 3 1.5 6 2.3 8.8l8 25.7z" data-name="Path 346"/><path id="Path_347" fill="#464353" d="M246.3 343.3c.1-1.4-1.2-2.7-2.6-3.6a34.6 34.6 0 0 1-4.3-2.6c-1.3-1.1-2-2.6-3.3-3.7a14.3 14.3 0 0 0-4.8-2.4 37 37 0 0 0-11.6-2 20.3 20.3 0 0 0-11.1 2.9 6.6 6.6 0 0 0-2 1.8 7.7 7.7 0 0 0-.8 2.7 55.8 55.8 0 0 1-3 8.9 20.5 20.5 0 0 1-5.4 8.9c-3.2 2.6-8 4.1-10 7.3a2.3 2.3 0 0 0-.5 2c.3.8 1.3 1.3 2.1 1.8 5.1 3 9.5 6.7 11.8 11.3a13 13 0 0 1-1 14c-1.2 1.6-2.8 3.4-1.7 5 1.8 2.3 7.9 1 9.3 3.5a5.1 5.1 0 0 1 .1 2.6c0 2.6 2.6 5 5.6 6.1a31.6 31.6 0 0 0 10 1.7 8.8 8.8 0 0 0 .3-6.5 2.6 2.6 0 0 1-.2-1.5 3.7 3.7 0 0 1 1.1-1.4c3.7-3.5 3-8.6.7-12.8s-5.6-8-7-12.3c-.6-2.1-.6-4.6 1.1-6.4a22 22 0 0 1 3.2-2.3 12 12 0 0 0 4.4-5.6c1-2.8 1-6.2 4-8.2s6.9-1.3 10-2.5c2.5-1 5.4-4.6 5.6-6.7z" data-name="Path 347"/></g><g id="svg--printing__card--two"><path id="Path_284" fill="#fff" d="M279.1 390.7H567l57.4 193h-406z" data-name="Path 284"/><path id="Path_348" fill="url(#linear-gradient-2)" d="M420.5 484.1c-13.7-5.7-17.7-9.8-17.7-18 0-6.3 2.7-13.5 14.9-13.5a34.2 34.2 0 0 1 19 5.4l3.9-10.5c-4.6-2.7-11-5.2-20.5-5.5v-15.3h-8v16c-14.5 2.3-22.9 12.2-22.9 25.3 0 13.7 8 21 24.2 27.3 11.7 4.7 17.8 10 17.8 18.7 0 9-7.6 15.5-18.8 15.5-8.8 0-18.8-3-24.5-6.8l-3.7 10.6a46 46 0 0 0 24 6.9V556h13.6v-16.4c16.2-2.7 24.9-14.4 24.9-26.8 0-14-10-22.2-26.2-28.8z" data-name="Path 348"/><path id="Path_349" fill="#eb7a6d" d="M408.3 552.5v-15.9a46 46 0 0 1-24-7l3.7-10.5a48.6 48.6 0 0 0 24.5 6.8c11.2 0 18.7-6.5 18.7-15.4 0-8.7-6.1-14-17.8-18.8-16-6.3-24.2-13.6-24.2-27.3 0-13 8.4-23 22.9-25.3v-16h8v15.3a42 42 0 0 1 20.5 5.6l-4 10.4a34.3 34.3 0 0 0-19-5.4c-12 0-14.9 7.3-14.9 13.6 0 8.1 4 12.2 17.8 18 16.2 6.6 26.2 14.8 26.2 28.8 0 12.4-8.7 24-24.9 26.8v16.4z" data-name="Path 349"/></g></g></defs>
</svg>