<svg id="svg--portfolio" xmlns="http://www.w3.org/2000/svg" xmlns:xlink="http://www.w3.org/1999/xlink" viewBox="0 0 521.86 494.89"><defs><linearGradient id="linear-gradient" x1="-1170.59" y1="3055.45" x2="-1170.59" y2="3058.72" gradientTransform="matrix(170.67, 0, 0, -52.18, 200232.64, 159920.78)" gradientUnits="userSpaceOnUse"><stop offset="0" stop-color="gray" stop-opacity="0.25"/><stop offset="0.54" stop-color="gray" stop-opacity="0.12"/><stop offset="1" stop-color="gray" stop-opacity="0.1"/></linearGradient><linearGradient id="linear-gradient-2" x1="-1149.55" y1="3063.65" x2="-1149.55" y2="3064.65" gradientTransform="matrix(52.18, 0, 0, -170.04, 60402.74, 521506.4)" xlink:href="#linear-gradient"/><linearGradient id="linear-gradient-3" x1="-1160.61" y1="3063.61" x2="-1160.61" y2="3064.61" gradientTransform="matrix(52.18, 0, 0, -170.04, 60967.24, 521511.49)" xlink:href="#linear-gradient"/><linearGradient id="linear-gradient-4" x1="-1167.34" y1="3063.9" x2="-1167.34" y2="3064.9" gradientTransform="matrix(52.17, 0, 0, -170, 61298.8, 521475.36)" xlink:href="#linear-gradient"/></defs><title>svg--portfolio</title><g id="svg--portfolio__card--two"><path id="Rectangle_472" data-name="Rectangle 472" d="M39.18,26.2H186.34a13.44,13.44,0,0,1,13.44,13.44V265.48a13.43,13.43,0,0,1-13.43,13.43H39.18a13.44,13.44,0,0,1-13.44-13.44V39.64A13.44,13.44,0,0,1,39.18,26.2Z" transform="translate(-30.9 28.66) rotate(-12.75)" fill="#eb7a6d"/><circle id="Ellipse_148" data-name="Ellipse 148" cx="17.08" cy="81.65" r="5.02" fill="#fff"/><circle id="Ellipse_149" data-name="Ellipse 149" cx="22.1" cy="100.05" r="5.02" fill="#fff"/><circle id="Ellipse_150" data-name="Ellipse 150" cx="54.73" cy="234.78" r="5.02" fill="#fff"/><circle id="Ellipse_151" data-name="Ellipse 151" cx="59.75" cy="253.19" r="5.02" fill="#fff"/><rect id="Rectangle_473" data-name="Rectangle 473" x="56.86" y="117.3" width="104.49" height="17.42" transform="translate(-25.12 27.19) rotate(-12.75)" fill="#f5f5f5"/></g><g id="svg--portfolio__card--one"><rect id="Rectangle_474" data-name="Rectangle 474" x="168.22" y="90.82" width="299.21" height="362.93" transform="translate(-75.67 129.74) rotate(-20.67)" fill="#3f3d56"/><rect id="Rectangle_475" data-name="Rectangle 475" x="260.08" y="365.16" width="134.37" height="5.54" transform="translate(-108.82 139.23) rotate(-20.67)" fill="#eb7a6d"/><rect id="Rectangle_476" data-name="Rectangle 476" x="269.05" y="381.1" width="220.25" height="5.54" transform="translate(-111.11 158.59) rotate(-20.67)" fill="#eb7a6d"/><rect id="Rectangle_478" data-name="Rectangle 478" x="268.44" y="394.4" width="56.79" height="5.54" transform="translate(-121.11 130.38) rotate(-20.67)" fill="#eb7a6d"/><rect id="Rectangle_479" data-name="Rectangle 479" x="344.91" y="365.55" width="56.79" height="5.54" transform="translate(-106 155.51) rotate(-20.67)" fill="#eb7a6d"/><rect id="Rectangle_481" data-name="Rectangle 481" x="212.04" y="182.65" width="166.23" height="60.95" transform="translate(-56.24 117.93) rotate(-20.67)" fill="#eb7a6d"/><rect id="Rectangle_480" data-name="Rectangle 480" x="421.37" y="336.69" width="56.79" height="5.54" transform="translate(-90.88 180.65) rotate(-20.67)" fill="#eb7a6d"/><rect id="Rectangle_477" data-name="Rectangle 477" x="415.51" y="321.14" width="56.79" height="5.54" transform="translate(-85.77 177.58) rotate(-20.67)" fill="#eb7a6d"/></g><polygon id="svg--portfolio__star--two" points="490.69 178.71 490.69 172.85 488.18 172.85 488.18 178.71 482.33 178.71 482.33 181.22 488.18 181.22 488.18 187.08 490.69 187.08 490.69 181.22 496.55 181.22 496.55 178.71 490.69 178.71" fill="#47e6b1"/><polygon id="svg--portfolio__star--three" points="51.38 345.23 51.38 347.74 45.53 347.74 45.53 353.6 43.02 353.6 43.02 347.74 37.16 347.74 37.16 345.23 43.02 345.23 43.02 339.37 45.53 339.37 45.53 345.23 51.38 345.23" fill="#47e6b1"/><polygon id="svg--portfolio__star--four" points="153.47 446.48 147.61 446.48 147.61 440.63 145.1 440.63 145.1 446.48 139.25 446.48 139.25 448.99 145.1 448.99 145.1 454.85 147.61 454.85 147.61 448.99 153.47 448.99 153.47 446.48" fill="#47e6b1"/><path id="svg--portfolio__star--one" d="M470.63,27.83a3.07,3.07,0,0,1-1.71-3.72,1.86,1.86,0,0,0,.06-.34h0a1.54,1.54,0,0,0-1.44-1.63,1.56,1.56,0,0,0-1.33.61h0a1.78,1.78,0,0,0-.17.3,3.06,3.06,0,0,1-3.71,1.71,2,2,0,0,0-.35-.06h0a1.54,1.54,0,0,0-1.63,1.44,1.56,1.56,0,0,0,.61,1.33h0a2.28,2.28,0,0,0,.3.17A3.08,3.08,0,0,1,463,31.35a1.45,1.45,0,0,0-.07.35h0a1.54,1.54,0,0,0,2.77,1h0a2.28,2.28,0,0,0,.17-.3,3.09,3.09,0,0,1,3.72-1.72,1.28,1.28,0,0,0,.34.07h0a1.54,1.54,0,0,0,1.63-1.44,1.56,1.56,0,0,0-.61-1.33h0A1.46,1.46,0,0,0,470.63,27.83Z" fill="#4d8af0" opacity="0.5" style="isolation:isolate"/><circle id="svg--portfolio__circle--two" cx="237.98" cy="81.65" r="5.02" fill="#f55f44" opacity="0.5" style="isolation:isolate"/><circle id="svg--portfolio__circle--one" cx="37.01" cy="5.02" r="5.02" fill="#4d8af0" opacity="0.5" style="isolation:isolate"/><circle id="svg--portfolio__circle--three" cx="7.19" cy="460.33" r="5.02" fill="#f55f44" opacity="0.5" style="isolation:isolate"/><g id="svg--portfolio__palette"><g id="svg--portfolio__pallette--four"><g id="Group_36" data-name="Group 36" opacity="0.5"><rect id="Rectangle_488" data-name="Rectangle 488" x="361.44" y="268.18" width="170.67" height="52.18" transform="translate(148.13 738.13) rotate(-89.44)" fill="url(#linear-gradient)"/></g><rect id="Rectangle_489" data-name="Rectangle 489" x="363.01" y="269.47" width="168.39" height="49.61" transform="translate(148.54 738.56) rotate(-89.44)" fill="#e0e0e0"/><rect id="Rectangle_490" data-name="Rectangle 490" x="430.34" y="212.79" width="35.07" height="35.07" transform="translate(213.16 675.92) rotate(-89.44)" fill="#4d8af0"/><rect id="Rectangle_491" data-name="Rectangle 491" x="429.92" y="255.13" width="35.07" height="35.07" transform="translate(170.4 717.43) rotate(-89.44)" fill="#4d8af0" opacity="0.5" style="isolation:isolate"/><rect id="Rectangle_492" data-name="Rectangle 492" x="429.51" y="297.48" width="35.07" height="35.07" transform="translate(127.65 758.94) rotate(-89.44)" fill="#4d8af0" opacity="0.3" style="isolation:isolate"/></g><g id="svg--portfolio__pallette--three"><g id="Group_37" data-name="Group 37" opacity="0.5"><rect id="Rectangle_493" data-name="Rectangle 493" x="393.33" y="222.39" width="52.18" height="170.04" transform="translate(-73.85 142.78) rotate(-17.78)" fill="url(#linear-gradient-2)"/></g><rect id="Rectangle_494" data-name="Rectangle 494" x="395.02" y="223.4" width="49.61" height="167.75" transform="translate(-73.79 142.9) rotate(-17.78)" fill="#f5f5f5"/><rect id="Rectangle_495" data-name="Rectangle 495" x="382.88" y="229.14" width="35.07" height="35.07" transform="translate(-56.21 134.08) rotate(-17.78)" fill="#ff5252"/><rect id="Rectangle_496" data-name="Rectangle 496" x="395.82" y="269.46" width="35.07" height="35.07" transform="translate(-67.9 139.96) rotate(-17.78)" fill="#ff5252" opacity="0.5" style="isolation:isolate"/><rect id="Rectangle_497" data-name="Rectangle 497" x="408.75" y="309.78" width="35.07" height="35.07" transform="translate(-79.6 145.83) rotate(-17.78)" fill="#ff5252" opacity="0.3" style="isolation:isolate"/></g><g id="svg--portfolio__pallette--two"><g id="Group_38" data-name="Group 38" opacity="0.5"><rect id="Rectangle_498" data-name="Rectangle 498" x="380.47" y="231.96" width="52.18" height="170.04" transform="translate(-103.35 241.1) rotate(-29.48)" fill="url(#linear-gradient-3)"/></g><rect id="Rectangle_499" data-name="Rectangle 499" x="382.13" y="232.89" width="49.61" height="167.75" transform="translate(-103.2 241.25) rotate(-29.48)" fill="#f5f5f5"/><rect id="Rectangle_500" data-name="Rectangle 500" x="358.09" y="243.83" width="35.07" height="35.07" transform="translate(-79.99 218.68) rotate(-29.48)" fill="#69f0ae"/><rect id="Rectangle_501" data-name="Rectangle 501" x="378.93" y="280.69" width="35.07" height="35.07" transform="translate(-95.43 233.7) rotate(-29.48)" fill="#69f0ae" opacity="0.5" style="isolation:isolate"/><rect id="Rectangle_502" data-name="Rectangle 502" x="399.76" y="317.55" width="35.07" height="35.07" transform="translate(-110.87 248.73) rotate(-29.48)" fill="#69f0ae" opacity="0.3" style="isolation:isolate"/></g><g id="svg--portfolio__pallette--one"><g id="Group_39" data-name="Group 39" opacity="0.5"><rect id="Rectangle_503" data-name="Rectangle 503" x="372.95" y="241.75" width="52.17" height="170" transform="translate(-116.16 302.91) rotate(-36.66)" fill="url(#linear-gradient-4)"/></g><rect id="Rectangle_504" data-name="Rectangle 504" x="374.57" y="242.63" width="49.6" height="167.72" transform="translate(-115.94 303.07) rotate(-36.66)" fill="#fff"/><rect id="Rectangle_505" data-name="Rectangle 505" x="343.85" y="257.93" width="35.07" height="35.07" transform="translate(-92.98 270.29) rotate(-36.66)" fill="#eb7a6d"/><rect id="Rectangle_506" data-name="Rectangle 506" x="369.15" y="291.88" width="35.07" height="35.07" transform="translate(-108.25 292.11) rotate(-36.66)" fill="#eb7a6d" opacity="0.5" style="isolation:isolate"/><rect id="Rectangle_507" data-name="Rectangle 507" x="394.44" y="325.84" width="35.07" height="35.07" transform="translate(-123.53 313.93) rotate(-36.66)" fill="#eb7a6d" opacity="0.3" style="isolation:isolate"/></g></g></svg>