<svg xmlns="http://www.w3.org/2000/svg" xmlns:xlink="http://www.w3.org/1999/xlink" viewBox="0 0 823.4 691.4">
<defs><g id="svg--format"><linearGradient id="linear-gradient" x1="113.5" x2="113.5" y1="765.7" y2="766.7" gradientTransform="matrix(110.41 0 0 -341.44 -12203.2 262016.1)" gradientUnits="userSpaceOnUse"><stop offset="0" stop-color="gray" stop-opacity=".3"/><stop offset=".5" stop-color="gray" stop-opacity=".1"/><stop offset="1" stop-color="gray" stop-opacity=".1"/></linearGradient><linearGradient id="linear-gradient-2" x1="111.9" x2="112.9" y1="766" y2="766" gradientTransform="matrix(99.43 0 0 -207.17 -10748.3 159218.6)" xlink:href="#linear-gradient"/><path id="svg--format--ring--three" class="svg--format--ring" fill="none" stroke="#444053" stroke-miterlimit="10" d="M490.5 582c75 0 135.8 12.2 135.8 27.3s-60.8 27.3-135.8 27.3-135.8-12.3-135.8-27.3"/><g id="svg--format--people"><path id="Path_351" fill="url(#linear-gradient)" d="M269.5 339.2a30.6 30.6 0 0 0 1.4 3v.1s6.4 23.7 9.4 28.7l2.9 4.5a9.8 9.8 0 0 0 0 3.5c.9 5.3 2 12.5 1.5 14.1s.6 5.6-1.2 7-3.5 3.8 1.9 7c0 0 1 2.7 0 3.3 0 .1 0 .3.3.4-1.5 4.4-3.6 11.4-2.3 11.9.8.3 2.8-.8 5-2.2l.1 1a44 44 0 0 0 1.6 6.8c1 2.2 2 5.9 1.5 7s1.4 4 1 5 1.5 4.5 1.5 4.5 2 6.6 1.9 8.9 2 16.7 2 16.7-2.2 7.5-1 9.7 1.8 9.7 0 12.4-4.3 9-3.5 10.6-1 22 3.5 30.4a93.5 93.5 0 0 1 1.3 9.4c0 2.3 3.6 8.3 3.6 8.3s-2.2 9 3.2 10.6a4.9 4.9 0 0 0 1.1.2 5.2 5.2 0 0 1-.4 3 11.6 11.6 0 0 0-1.9 4.2 1.1 1.1 0 0 0 .1.8c.6.7 2.3 9.7 2.3 9.7s2.4 10.1 15.7 7.6c0 0 9-.5 8.2-3.6a20.7 20.7 0 0 0-1-3l-.9-2c-.3-.7-2-2.9-2.1-4.3s-1.4-4.2-1.2-5-2-7.4-2.2-8.8a14.7 14.7 0 0 0-.8-3l.5-.2s1.2-6.7.1-9.2-5.2-5.7-5.2-5.7.6-16.5-.1-18.8.3-10.7.3-10.7 2.6-12.1 2.5-14.8a12.6 12.6 0 0 1 .7-5s1.6-17.7 2.6-20 2.3-24.2 2.3-24.2l.7 2a78.4 78.4 0 0 0 3.5 8.9l3.8 6.3 2.1 3.6s1 3.5.3 5.7 7 13.8 7 13.8a7 7 0 0 0-.7 3.2c.2 1-2.4 4.7-2.4 4.7s-1 3.2-.4 4.3-1 7.8-1 7.8-2.5 14.7-3.1 16.4.3 13.5.3 13.5-4.8 12.1-2.6 16.2c.1 1.5.1 3.7-.4 4.6-.8 1.3-.6 5.8-.5 7v.4s-2.6 3.4.7 4.8 14.2 2.4 14.2 2.4 10.5 3 15.5 3.8 15.6.5 16.4-2.6a8.3 8.3 0 0 0 .2-2.9 3.7 3.7 0 0 0-2-3 88 88 0 0 0-9.5-3s-5-1.2-5.5-3.4-7.5-8.1-7.5-8.1l-.2-1h.2l-.4-.3c-.3-1.2-.9-2.7-1.6-2.4a1.7 1.7 0 0 1 .7-2.3h.1c2.7-1.5 4.4-6.2 3.6-11.3s-.9-4.2.7-7.1a14 14 0 0 0 1.1-7l4.2-15.6a23 23 0 0 0 1.2-5.9 11 11 0 0 1 1.2-4.5s1.9-10.8 3.6-13.3-1.2-11.1-1.2-11.1-2.5-13.5-2.4-19.6-6.6-27.5-6.6-27.5a7.2 7.2 0 0 1-1-4.7c.1-1.2-.7-3.3-1.6-5.1l-.2-.6a5.2 5.2 0 0 1 1.2-1.2c1.9-1.1 2.7-4 2.8-6.2l-25.7-60.5c0-.2 11.9-24.5 11.8-24.7-.7-4-7.4-14.6-7.4-14.6a1 1 0 0 0-.3-.3c-1.5-.7-6.6-3.6-6.6-3.6-4-5-7.8-6-10.2-6a7 7 0 0 0-2.3.4 5 5 0 0 0-.8.3v1a20 20 0 0 1 .5-6.8l.1-.6h1.2a18.3 18.3 0 0 0 18.3-18.3 18.8 18.8 0 0 0-.7-5l-.1-.3.6-.3c2.2-.8 5 .6 7-.9a5.3 5.3 0 0 0 1.3-2.4 14.4 14.4 0 0 0 1-3.8v-1.4a4.4 4.4 0 0 0-1-2.3c-1.2-1.4-3.2-1.8-4.7-2.8a11.4 11.4 0 0 1-3-3.6 13.4 13.4 0 0 0-3-3.6 4.3 4.3 0 0 0-4.4-.7 5 5 0 0 1-1.4.7 3 3 0 0 1-1.6-.4c-5.3-2.5-11.4-2-17-1.3a21.9 21.9 0 0 0-6.8 1.6 8 8 0 0 0-4.5 5c-.5 1.7-.1 3.6-.7 5.3-.4 1.2-1.1 2.2-1.6 3.4a6.7 6.7 0 0 0-.4 1.8v.2c-.2 2.6.8 5.3 1.3 8 .6 3.6.3 7.5 1.8 11a6 6 0 0 0 .6 1.2 372 372 0 0 1-1.7 3.4c-.8-.2-3.4-.8-3.5 1.5a12.3 12.3 0 0 1-1.2 5.3 3.2 3.2 0 0 1-.4.2.7.7 0 0 0-.4.7l-.3.3a.7.7 0 0 0-.4.1c-.1-.3-.7-.3-2.3 1.7a32 32 0 0 1-7.6 5.8s-11.1 7.8-11.7 11.4-4.4 19.2-2.5 24.4zm49-38v-.1h.2zM349 555.7a2.4 2.4 0 0 1-1 .2z" data-name="Path 351"/><path id="Path_352" fill="#444053" d="M323.2 587.4c-13.1 2.5-15.5-7.6-15.5-7.6s-1.6-8.9-2.3-9.6a1.1 1.1 0 0 1 0-.8 11.6 11.6 0 0 1 1.8-4.2c.8-1 .1-5 .1-5l15.2-3.9a22.7 22.7 0 0 1 1.5 4.5c.2 1.4 2.4 7.8 2.2 8.7s1 3.6 1.1 5 2 3.6 2.2 4.3a15.3 15.3 0 0 0 .8 2 18.8 18.8 0 0 1 1 3c.7 3.1-8.1 3.6-8.1 3.6z" data-name="Path 352"/><path id="Path_353" d="M323.2 587.4c-13.1 2.5-15.5-7.6-15.5-7.6s-1.6-8.9-2.3-9.6a1.1 1.1 0 0 1 0-.8l3 9s2.7 5.5 12.3 4.7c5.6-.5 8.3-1.5 9.6-2.3a18.7 18.7 0 0 1 1 3c.7 3.1-8.1 3.6-8.1 3.6z" data-name="Path 353" opacity=".1" style="isolation:isolate"/><path id="Path_354" d="M313 573.3s3.3 0 3.5-2.6z" data-name="Path 354" opacity=".1" style="isolation:isolate"/><path id="Path_355" fill="#3f3d56" d="M370 485.3c-1.7 2.4-3.6 13.1-3.6 13.1a11.2 11.2 0 0 0-1.1 4.6 22.8 22.8 0 0 1-1.1 5.9l-4.3 15.4a14 14 0 0 1-1.2 7c-1.5 3-1.4 2-.7 7s-.8 9.8-3.5 11.3 1.2 5 1.2 5-17.2 4.6-20.7 1.8 1.8-16.8 1.8-16.8-.9-11.8-.3-13.5 3.2-16.3 3.2-16.3 1.5-6.6 1-7.7.3-4.4.3-4.4 2.6-3.5 2.3-4.7a7 7 0 0 1 .7-3s-7.5-11.7-6.9-13.9-.3-5.6-.3-5.6l-2.1-3.6-3.7-6.3a79.8 79.8 0 0 1-3.5-8.8l-.7-2s-1.1 21.9-2.2 24.1-2.6 19.9-2.6 19.9a12.3 12.3 0 0 0-.8 5c.2 2.7-2.4 14.7-2.4 14.7s-1.1 8.5-.3 10.7.1 18.7.1 18.7 4.1 3.2 5.1 5.7-.1 9.1-.1 9.1-12 6-17.2 4.4-3.1-10.6-3.1-10.6-3.6-6-3.6-8.2a92.9 92.9 0 0 0-1.3-9.4c-4.5-8.3-2.7-28.6-3.5-30.2s1.6-7.8 3.5-10.5 1-10.2 0-12.4 1-9.6 1-9.6-2-14.4-2-16.7-1.9-8.8-1.9-8.8-1.9-3.4-1.4-4.5-1.5-3.7-1-4.9-.5-4.8-1.5-7a44.4 44.4 0 0 1-1.6-6.8l-.7-4.8 12.2-10 30.7-8L344 396l11.2 17.7s1.1 1.8 2.2 4c.9 1.8 1.7 3.9 1.5 5.2a7.2 7.2 0 0 0 1 4.6s6.8 21.2 6.6 27.2 2.4 19.6 2.4 19.6 2.8 8.5 1.1 11z" data-name="Path 355"/><path id="Path_356" d="M301 496.4s13.1-5.6 17-1.7-17 1.7-17 1.7z" data-name="Path 356" opacity=".1" style="isolation:isolate"/><path id="Path_357" d="M308.4 498.6s-13.3 7.5-8.8 8.7 8.8-8.7 8.8-8.7z" data-name="Path 357" opacity=".1" style="isolation:isolate"/><path id="Path_358" d="M348 492.1s-5.7.4-3.5 1.5 3.5-1.5 3.5-1.5z" data-name="Path 358" opacity=".1" style="isolation:isolate"/><path id="Path_359" d="M355 493.8c0 .4-16.5 5.7-13.3 8s13.3-8 13.3-8z" data-name="Path 359" opacity=".1" style="isolation:isolate"/><path id="Path_360" d="M303 539.4c2.4-.4 16-6.7 10.7-2.1a10.7 10.7 0 0 1-10.8 2.1z" data-name="Path 360" opacity=".1" style="isolation:isolate"/><path id="Path_361" d="M309.7 544.4s1.2 4.6 5.7 4-5.7-4-5.7-4z" data-name="Path 361" opacity=".1" style="isolation:isolate"/><path id="Path_362" d="M305.9 553.8c.8-.2 10.6-4.7 10.8-2.6s-9.3 5.7-10 4.6a4 4 0 0 1-.8-2z" data-name="Path 362" opacity=".1" style="isolation:isolate"/><path id="Path_363" d="M337.5 548.4c1.1 0 12.3-3.6 14.6-.4z" data-name="Path 363" opacity=".1" style="isolation:isolate"/><path id="Path_364" d="M347.6 550.5s2-1.7 3.9-.8-3.9.8-3.9.8z" data-name="Path 364" opacity=".1" style="isolation:isolate"/><path id="Path_365" d="M322.9 569a3.3 3.3 0 0 0 2.5 2.6z" data-name="Path 365" opacity=".1" style="isolation:isolate"/><path id="Path_366" fill="#444053" d="M379.7 576c-.8 3-11.2 3.4-16.2 2.5s-15.3-3.8-15.3-3.8-10.9-1-14-2.4-.7-4.7-.7-4.7v-.3c-.1-1.3-.3-5.8.4-7 1-1.4.4-6 .4-6s15.4 3 15.7 1.5 2.7-3.4 3.8-3.8 2 3.7 2 3.7 7 6 7.4 8.1 5.3 3.3 5.3 3.3a84 84 0 0 1 9.4 3.1 3.6 3.6 0 0 1 2.1 2.8 8.2 8.2 0 0 1-.3 3z" data-name="Path 366"/><path id="Path_367" d="M379.7 576c-.8 3-11.2 3.4-16.2 2.5s-15.3-3.8-15.3-3.8-10.9-1-14-2.4-.7-4.7-.7-4.7v-.3l15.5 3.4s7.7 3.3 12.6 3.3c4.3 0 14 1.7 18.4-1a8 8 0 0 1-.3 3z" data-name="Path 367" opacity=".1" style="isolation:isolate"/><path id="Path_368" d="M358.6 564.2s-.7 4.9-3.7 6.6z" data-name="Path 368" opacity=".1" style="isolation:isolate"/><path id="Path_369" fill="#a1616a" d="M406.3 383.2a74 74 0 0 1-19.2 1.9h-2.3l-2.9-6 3-5s2.6-.7 6.2-1.4c5.3-1 12.5-1.7 16 .5 5.6 3.6 5 8-.8 10z" data-name="Path 369"/><path id="Path_370" fill="#eb7a6d" d="M338.6 312l1.3-1.5s6.7 10.5 7.4 14.5l1.6 8.5s1.6 5.2 2.7 7.5a25 25 0 0 1 2.2 5.4c.1 1-.4 3.2 1.7 4.6s2.6 5.1 2.6 5.1 7.5 7.4 11.5 7.6 15.4 2.2 15 4.2 4.8 3.1 6.8 3.6-13.4 6.5-4.3 14.1c0 0-5.7 1.2-6.3 2.6s-6.7-.8-6.7-.8-1.3-3-5.7-3.2-6.8-2.2-6.8-2.5-4.5-2.8-7-3.5-5.7-1-5.8-1.7L333.9 312z" data-name="Path 370"/><path id="Path_371" d="M338.6 312.2l1.3-1.5s6.7 10.6 7.4 14.5l1.6 8.6s1.6 5.1 2.7 7.4a25.2 25.2 0 0 1 2.2 5.5c.1 1-.4 3.1 1.7 4.5s2.6 5.2 2.6 5.2 7.5 7.3 11.5 7.5 15.4 2.2 15 4.2 4.8 3.2 6.8 3.7-13.4 6.4-4.3 14c0 0-5.7 1.2-6.3 2.7s-6.7-.8-6.7-.8-1.3-3.1-5.7-3.3-6.8-2.2-6.8-2.5-4.5-2.8-7-3.5-5.7-1-5.8-1.7l-14.9-64.5z" data-name="Path 371" opacity=".1" style="isolation:isolate"/><path id="Rectangle_425" fill="#444053" d="M368.8 79.8h144.4v19.4H368.8z" data-name="Rectangle 425" transform="rotate(-80.4 441 89.5)"/><path id="Path_373" fill="#d0d2d5" d="M485.2 591.3l4.3 30.3 3.6-31.5z" data-name="Path 373"/><path id="Path_374" fill="#3f3d56" d="M348.7 574.3v18.8l4.3 16.4h3l3.6-17.6 1.9-21.2z" data-name="Path 374"/><path id="Path_375" fill="#d0d2d5" d="M340 501l9.2 1.7s-10.4 28.5-3 34.6h-11.6s-4.2-21.8 5.5-36.4z" data-name="Path 375"/><path id="Path_376" d="M340 501l9.2 1.7s-10.4 28.5-3 34.6h-11.6s-4.2-21.8 5.5-36.4z" data-name="Path 376" opacity=".1" style="isolation:isolate"/><path id="Path_377" fill="#d0d2d5" d="M400.9 158l-29.1 184.5S328.7 539.1 345 578h20.6l61.9-377.4z" data-name="Path 377"/><path id="Path_378" fill="#d0d2d5" d="M474.8 135.2L497 320.6s16.3 236.1-1.6 274.4H478l-31.4-418.3z" data-name="Path 378"/><path id="Path_379" fill="#444053" d="M398.2 90.7a23.9 23.9 0 0 1 23.5-17c18 .5 45.8 3.7 60.2 18.6 22.5 23-15.1 100.7-15.1 100.7s-35.3 65-67.4-17.6c0 0-13.3-44.2-1.2-84.7z" data-name="Path 379"/><path id="Path_380" d="M398.2 90.7a23.9 23.9 0 0 1 23.5-17c18 .5 45.8 3.7 60.2 18.6 22.5 23-15.1 100.7-15.1 100.7s-35.3 65-67.4-17.6c0 0-13.3-44.2-1.2-84.7z" data-name="Path 380" opacity=".1" style="isolation:isolate"/><path id="Path_381" fill="#444053" d="M410.5 106.5a17 17 0 0 1 16.8-12.1c12.8.3 32.5 2.6 42.8 13.2 16 16.4-10.8 71.7-10.8 71.7s-25 46.2-48-12.5c0 0-9.4-31.5-.8-60.3z" data-name="Path 381"/><path id="Path_382" fill="url(#linear-gradient-2)" d="M472.7 579c.2 3 .7 6 2.5 8.3 3 3.8 8.7 4.1 13.5 5.3a59.4 59.4 0 0 1 10.6 4.2l10.3 4.9a27 27 0 0 0-7.8 1.6c-1.3.5-2.7 1.3-3 2.7a2.9 2.9 0 0 0 1.8 2.7 8.3 8.3 0 0 0 3.4.6 114.5 114.5 0 0 0 18.4-1h.7q4.7 2.2 9.4 4.7c1.3.6 2.8 0 4-1a21.2 21.2 0 0 0 3.4-4l.5.9c1 2 2 4.4.5 6-1.1 1.3-3.2 1.6-3.9 3a2.7 2.7 0 0 0 1 3.1 7.1 7.1 0 0 0 3.4 1.2 29.6 29.6 0 0 0 8.4 0 6.8 6.8 0 0 0 4.1-1.8 7.5 7.5 0 0 0 1.5-4.6l2-22a6.5 6.5 0 0 0-.3-3.2c-.8-1.9-3-2.6-5-3h-.2 5.2a12.6 12.6 0 0 0 4.7-.7c2.9-1 4.4-4.1 5.7-7 2.2-4.9 4.9-10.2 4.5-15.6l-.9-.4c0-5.8-2.5-11.3-3.4-17a9.4 9.4 0 0 0 1.5-5 18.8 18.8 0 0 0-1.3-5.9c-3.6-10.7-7.2-21.4-12-31.6a109.8 109.8 0 0 0-11.3-19.4l-3.6-4.5c-1-1-3-2.5-3.4-3.9s.5-2.6 0-4a6.1 6.1 0 0 0-.4-1c2.7-3.5 2-8.6 1-13l-1-5.4a15 15 0 0 0-1.5-4.4 12.7 12.7 0 0 0-2.7-3c-5.6-5-12.5-8.4-18.8-12.6-6.6-4.4-12.6-9.8-18.5-15.1-1.9-1.6-4.1-3.4-6.5-2.7s-3.3 3.2-3.4 5.6a11.4 11.4 0 0 0 3.7 8.5c4 3.8 10.3 4.1 15.2 6.8a35.8 35.8 0 0 1 4.8 3.3l14.2 11.2a5 5 0 0 1 2.2 2.8 4.6 4.6 0 0 1-.3 2.2l-2.1 5.8-1.2-.9a44.3 44.3 0 0 0-7.5-4.5 37.2 37.2 0 0 0-11-2.7c-8.4-.9-15.9.4-21 7.4a15.7 15.7 0 0 1-4 4.1 14.6 14.6 0 0 0-3.2 2c-2.7 3-1.2 7.8 1.3 10.3a16 16 0 0 0 7.5 3.9 15.4 15.4 0 0 0 18.7 8.4 23.2 23.2 0 0 1 0 4.4 5.1 5.1 0 0 0 1.7 4 6.8 6.8 0 0 0 1.9 1 29.8 29.8 0 0 1 7 3.6 36.4 36.4 0 0 0-6.2 9.4 15.3 15.3 0 0 0 1.2 14.2v.1a4.7 4.7 0 0 1-1 2 3.4 3.4 0 0 1-4.7-.6 17.8 17.8 0 0 1-2.4-3.8 15.8 15.8 0 0 0-10.3-7.2 8.2 8.2 0 0 0-4.7.2 4.2 4.2 0 0 0-2.7 3.6c0 1.7 1.2 3.1 2.5 4.3a71.2 71.2 0 0 0 12.5 10.3 36.3 36.3 0 0 0 3.8 2.1l-6.9-1.2a30.6 30.6 0 0 0-9.5-.8 10.6 10.6 0 0 0-8 4.6 10.3 10.3 0 0 0-.7 7.7 26.3 26.3 0 0 0 3.5 7.2 51 51 0 0 0 8.7 11c-2.9.8-5.7 1.7-8.5 2.7s-5.7 2.3-7 4.8a11.2 11.2 0 0 0-.6 5.8zm41.9-38.6a3.5 3.5 0 0 0 1.5-1.3 20.6 20.6 0 0 0 3.6-7.8 9.3 9.3 0 0 0 2-.5 4.3 4.3 0 0 0-1.4 3.2l6.4 3.1a2.4 2.4 0 0 1 1.2 1 2.3 2.3 0 0 1 .1 1.2l-.7 4.4-5.4-1.4-7.3-2z" data-name="Path 382"/><path id="Path_383" fill="#fabdbd" d="M515.8 480a12.3 12.3 0 0 0 9.5-1.5 5.7 5.7 0 0 1 1.9-.9 3.8 3.8 0 0 1 3.1 1.3c2.7 2.7 3 7.2 1.6 10.7s-4.2 6.4-7.2 8.9a63.9 63.9 0 0 1-7.5 5.4 14 14 0 0 0-7.8-7.6c-3.1-1.2-5.4-4.4-7.2-7.2-1.3-2.1-2.5-2-1.3-4.2a31.4 31.4 0 0 1 4.7-5.7 18 18 0 0 0 2.6-3.4c.8-1.4.6-2.4 1.8-1.2.8.7 1.1 2.4 2 3.2a9.1 9.1 0 0 0 3.8 2.2z" data-name="Path 383"/><path id="Path_384" fill="#fabdbd" d="M525.5 457.8a4.7 4.7 0 0 0 .3-2 5 5 0 0 0-2.1-3l-14-11a34.3 34.3 0 0 0-4.6-3.2c-4.8-2.7-10.8-3-14.9-6.7a11.4 11.4 0 0 1-3.6-8.4c0-2.3 1.2-4.9 3.3-5.5s4.6 1 6.3 2.6c5.8 5.3 11.6 10.6 18.1 15 6.2 4 13 7.4 18.4 12.4a12.2 12.2 0 0 1 2.5 3 15.4 15.4 0 0 1 1.4 4.2l1.1 5.4c1 4.6 1.7 9.9-1.3 13.3a4.8 4.8 0 0 1-3.7 1.9 7.3 7.3 0 0 1-2.9-1c-2.2-1.2-6.4-2.3-7-5.1-1-3.6 1.6-8.6 2.7-11.9z" data-name="Path 384"/><path id="Path_385" fill="#fabdbd" d="M503.3 528.8a18.3 18.3 0 0 1-2.4-3.7 15.5 15.5 0 0 0-9.9-7.1 8 8 0 0 0-4.5.2 4 4 0 0 0-2.7 3.5c0 1.7 1.2 3 2.4 4.3a70.4 70.4 0 0 0 12.2 10.2 32.1 32.1 0 0 0 14.9 5.2 3.6 3.6 0 0 0 1.6-.2 3.5 3.5 0 0 0 1.4-1.2c2.8-3.6 3.8-8.3 4.5-12.8-.2 1.6-9.4-2.2-10.4-1.7-1.5.7-1.4 2.8-2.5 3.9a3.3 3.3 0 0 1-4.6-.6z" data-name="Path 385"/><path id="Path_386" fill="#fabdbd" d="M570 564.5a3 3 0 0 1-.3 1.7c-.6 1-2 1-3.2.8a56.8 56.8 0 0 1-7.8-1.9l-23.4-6.7a1.7 1.7 0 0 1-1.4-1.5 27.5 27.5 0 0 1-.5-10.3 2 2 0 0 1 2-2 2.7 2.7 0 0 1 .4 0 98.7 98.7 0 0 1 11-.6 55 55 0 0 0 7.1-.1c3-.4 6.6-2.2 9.7-1.9 2.7.2 2.5 2.3 2.8 4.5.8 6.1 3.5 11.9 3.6 18z" data-name="Path 386"/><path id="Path_387" fill="#3f3d56" d="M495.5 536.9a29.3 29.3 0 0 0-9.3-.9 10.3 10.3 0 0 0-7.7 4.6 10.1 10.1 0 0 0-.8 7.6 26.6 26.6 0 0 0 3.5 7 46.4 46.4 0 0 0 10 12c2 1.6 4.1 2.9 6 4.6 4.1 3.5 6.6 8.5 9 13.3 2.3 4.6 4.6 9.2 5.6 14.2a1.4 1.4 0 0 0 .4 1 1.3 1.3 0 0 0 1 0l11.2-2a1.8 1.8 0 0 0 1.9-1.7 1.8 1.8 0 0 0-.3-1 78.4 78.4 0 0 0-13.3-28.9 25.6 25.6 0 0 0 22.5 6.6 8.8 8.8 0 0 0 4.3-1.9c2.5-2.3 2.3-6.1 1.8-9.4a70.3 70.3 0 0 0-2-8.8c-2.2-6.8-11.3-8.6-17.4-10.3q-13.1-3.4-26.4-6z" data-name="Path 387"/><path id="Path_388" d="M503.8 561a12.4 12.4 0 0 1 4.2 2.8c-2-2.2-7.7-3.4-10.6-4.4-3.4-1.3-7.2-2.7-10.2-5a122.9 122.9 0 0 1 16.6 6.6z" data-name="Path 388" opacity=".1" style="isolation:isolate"/><path id="Path_389" fill="#eb7a6d" d="M540 609c1 1.8 1.9 4.3.5 6-1 1.2-3.2 1.4-3.9 3a2.7 2.7 0 0 0 1 3 6.7 6.7 0 0 0 3.3 1.1 29 29 0 0 0 8.3 0 6.6 6.6 0 0 0 4-1.8 7.4 7.4 0 0 0 1.4-4.5l1.9-21.8a6.8 6.8 0 0 0-.2-3.1c-.8-1.9-3-2.7-5-3a26.4 26.4 0 0 0-6.7-.3 7 7 0 0 0-4.1 1.5 8 8 0 0 0-2 4.5c-.6 2.6-2 6.2-1.7 8.8.3 2.2 2.3 4.6 3.2 6.5z" data-name="Path 389"/><path id="Path_390" fill="#eb7a6d" d="M515 601.9a26.4 26.4 0 0 0-12.7 1.4c-1.3.5-2.7 1.3-2.9 2.6a2.8 2.8 0 0 0 1.7 2.7 8 8 0 0 0 3.3.6 113.8 113.8 0 0 0 18-1 9.7 9.7 0 0 0 4.4-1.3 3.4 3.4 0 0 0 1.4-4c-.7-1.5-2.7-2-3.6-3.3-.7-1-.9-2.5-2-3a3.2 3.2 0 0 0-2.4.2c-1.1.4-3.9.8-4.7 1.7a13.3 13.3 0 0 0-.5 3.3z" data-name="Path 390"/><circle id="Ellipse_56" cx="498.9" cy="477" r="14.9" fill="#fabdbd" data-name="Ellipse 56"/><path id="Path_391" fill="#eb7a6d" d="M534.2 470.4a19.9 19.9 0 0 0-8.3-2.9 4.3 4.3 0 0 0-3 .1 4.4 4.4 0 0 0-1.4 1.8 16.5 16.5 0 0 0-2 4.7 5.5 5.5 0 0 0 1 4.8c1 1 2.2 1.4 3.2 2.3a5.7 5.7 0 0 1 1.3 5 14.6 14.6 0 0 1-2 4.8 80.7 80.7 0 0 1-7.5 11c-2.9 3.6-6.1 7-7.8 11.3a15.2 15.2 0 0 0 1.1 14c2.8 4 8.3 6.2 12.8 4.5a4.3 4.3 0 0 0-1.3 3l6.3 3.2a2.3 2.3 0 0 1 1.1.9 2.2 2.2 0 0 1 .1 1.3 41.8 41.8 0 0 0-.7 7.6c.1 2.6 1.3 5.3 3.6 6.4 2.1 1 4.7.5 7 0a87.3 87.3 0 0 1 16.5-1.7c2.7 0 5.5 0 8-1a9.7 9.7 0 0 0 5.8-8.8 18.6 18.6 0 0 0-1.2-5.7c-3.5-10.6-7-21.2-11.7-31.3a109.8 109.8 0 0 0-11.2-19c-1.1-1.6-2.3-3-3.5-4.5-1-1-2.9-2.5-3.3-3.8s.4-2.6 0-4a8 8 0 0 0-2.9-4z" data-name="Path 391"/><path id="Path_392" fill="#3f3d56" d="M570.9 564.9c-6.6-3-13.1-6-20-8.4-5-1.8-10.5-3.1-15.5-1.2-1.4.6-2.8 1.5-4.2 2.2-4.8 2.2-10.2 2.6-15.5 3.2a145.8 145.8 0 0 0-34.3 8.1c-2.6 1-5.5 2.3-6.8 4.8a11 11 0 0 0-.7 5.7c.2 2.9.6 6 2.4 8.2 3 3.7 8.5 4 13.1 5.2a57.7 57.7 0 0 1 10.4 4.1 930.2 930.2 0 0 1 32.5 16c1.2.7 2.8 0 3.8-1a23.6 23.6 0 0 0 6.7-11 47.4 47.4 0 0 0 1.7-12.8l11.8-.2a12 12 0 0 0 4.5-.6c2.8-1.1 4.4-4.1 5.6-6.9 2.3-4.9 4.8-10.1 4.5-15.4z" data-name="Path 392"/><path id="Path_393" d="M494.9 580.4c2.9-1.4 6.3-1.5 9.6-1.4a31.6 31.6 0 0 1 6 .4 46.5 46.5 0 0 1 8.7 3.3 55.5 55.5 0 0 0 22 4.3" data-name="Path 393" opacity=".1" style="isolation:isolate"/><path id="Path_394" fill="#3f3d56" d="M477.9 479a16.3 16.3 0 0 0 8 4c3 .8 6 1 9 1.7 3.7.8 7.7 2.7 8.5 6.4a21 21 0 0 1 .1 4.4 5 5 0 0 0 1.6 4 6.6 6.6 0 0 0 1.9 1 31.8 31.8 0 0 1 20.4 29.3 14.5 14.5 0 0 0 7-10.4c0 4 3.4 8 1.5 11.5a18.2 18.2 0 0 0 5.3-25.2l-1-1.2c-1.5-2-3.4-3.5-5-5.3a24.8 24.8 0 0 1-5.8-18.9c.3-2.9 1.1-5.8.5-8.6-.9-4-4.3-6.7-7.6-9a44 44 0 0 0-7.4-4.5 36.4 36.4 0 0 0-10.7-2.6c-8.2-1-15.5.3-20.6 7.3a15 15 0 0 1-3.9 4 14.9 14.9 0 0 0-3.2 2c-2.5 3-1 7.7 1.4 10.2z" data-name="Path 394"/><path id="Path_395" fill="#a1616a" d="M324.6 312.7c-.5-.2-32.8-13.6-28.4-16.2 2.7-1.6 6-8.3 8.1-13.5l2.7-6.6s26-4.6 16.6 11.3a29.8 29.8 0 0 0-3.2 7.9 17.4 17.4 0 0 0 4.2 17.1z" data-name="Path 395"/><path id="Path_396" d="M323.6 287.7a29.5 29.5 0 0 0-3.3 7.9 18.2 18.2 0 0 1-15.3-10.9 16 16 0 0 1-.7-1.7c1.6-3.7 2.6-6.6 2.6-6.6s26-4.6 16.7 11.3z" data-name="Path 396" opacity=".1" style="isolation:isolate"/><path id="Path_397" fill="#a1616a" d="M339.8 276.8a18.2 18.2 0 0 1-34.8 7.4 18 18 0 0 1-1.6-7.4 18.2 18.2 0 0 1 35.7-5 18.6 18.6 0 0 1 .7 5z" data-name="Path 397"/><path id="Path_398" d="M357.3 417.6a11 11 0 0 0-2.6 5s-9 6-8.4 2.2-4.6-19.5-4.6-19.5l.6 21.3s-28.6-1.4-30.7-3.4-14.3-6.1-14.3-6.1-3.7 3-7.1 5.2l-.8-4.8 12.3-9.9 30.6-8 11.6-3.7 11.2 17.7s1.2 1.8 2.2 4z" data-name="Path 398" opacity=".1" style="isolation:isolate"/><path id="Path_399" fill="#444053" d="M358.2 415.9c-2.3 1.5-3.2 5.5-3.2 5.5s-9 6.1-8.4 2.3-4.6-19.5-4.6-19.5l.6 21.3S314 424 311.9 422s-14.3-6.1-14.3-6.1-10.5 8.5-12.5 7.7 3.4-15.2 3.4-15.2L294 324s-1.5-25.2.8-26a3 3 0 0 0 .9-.7c1.5-1.3 1.9-4 2-6.2.2-2.7 3.7-1.4 3.7-1.4l-2 2.7 18.4 11.2.2.1a23.3 23.3 0 0 1 2.3-1c1.6-.6 3.8-1.2 5.2-.6a5.1 5.1 0 0 1 2 1.8 21.5 21.5 0 0 1 2.5 5l6.7 11.4s3.4 15 3.4 15.6 1 14.3 2.3 15.8 2.4 9 2 11.2.7 10.5.7 10.5c4.9 4 7.4 17.8 7.4 17.8s7.8 15.3 8.3 17-.2 6.2-2.6 7.7z" data-name="Path 399"/><path id="Path_400" d="M317.9 304.1c-1.8 2.7-7 6.5-7 6.5l-15.2-12.8c1.5-1.3 2-4 2-6.2.2-2.7 3.8-1.4 3.8-1.4l-.4.6a2.4 2.4 0 0 0 .4 3.4 1.1 1.1 0 0 0 .2.1z" data-name="Path 400" opacity=".1" style="isolation:isolate"/><path id="Path_401" fill="#444053" d="M317.9 303.5c-1.8 2.7-7 6.5-7 6.5l-15.2-12.8c1.5-1.3 2-4 2-6.2.2-2.7 3.8-1.4 3.8-1.4l-.4.6a2.4 2.4 0 0 0 .4 3.4l.2.1z" data-name="Path 401"/><path id="Path_402" d="M324.9 305.5c-2 2.4-4.8 5-4.6 3.7s-1.6-4.3-2.8-5.6a8.2 8.2 0 0 1 5.5.2 5.1 5.1 0 0 1 1.9 1.7z" data-name="Path 402" opacity=".1" style="isolation:isolate"/><path id="Path_403" fill="#444053" d="M325.1 304.6c-1.9 2.4-4.7 5-4.5 3.7s-1.5-3.5-2.6-4.8c1.6-.6 3.8-1.2 5.2-.6a5 5 0 0 1 2 1.7z" data-name="Path 403"/><path id="Path_404" d="M295.8 298s.1-1.8-2.4 1.3a32 32 0 0 1-7.4 5.7s-11 7.8-11.6 11.4-4.2 19-2.3 24.2 16.3 29.9 16.3 29.9-3.8 4.4-2.9 9.7 2 12.5 1.5 14 .6 5.6-1.1 7-3.5 3.8 1.8 7c0 0 1 2.7 0 3.3s13.3 6.7 18.8 3.4 15.6-29.4 15.8-35.3-3-25.2-4.9-29.8-7.1-22.3-9.4-26.3-12.3-25.5-12.3-25.5z" data-name="Path 404" opacity=".1" style="isolation:isolate"/><path id="Path_405" fill="#eb7a6d" d="M295.1 298s.2-1.8-2.3 1.3a31.6 31.6 0 0 1-7.5 5.8s-11 7.7-11.6 11.3-4.2 19-2.3 24.2 16.3 30 16.3 30-3.8 4.4-2.9 9.6 2 12.5 1.5 14.1.6 5.6-1.1 7-3.5 3.7 1.8 6.9c0 0 1 2.7.1 3.3s13.2 6.7 18.8 3.4 15.5-29.4 15.8-35.3-3.1-25.2-5-29.8-7-22.3-9.3-26.3S295 298 295 298z" data-name="Path 405"/><path id="Path_406" d="M291.2 314.8s8.5 9.5 8.2 15.7c0 0 .1-10.1-8.2-15.7z" data-name="Path 406" opacity=".1" style="isolation:isolate"/><path id="Path_407" d="M320 301.3s5.5-3.4 12.5 5.3c0 0 5 2.9 6.5 3.6s3.2 19.1 3.2 19.1 3.3 8 2.4 12.5 2.6 20.3 2.6 20.3 5.8 28.2 5.6 29-6-8.9-5.8-13.7-4.8-19.6-5.5-20.5-5.4-26.4-5.4-26.4-3.9-10.8-6.4-14.4-5.5-10.3-6.8-11.5a13.4 13.4 0 0 0-3-2z" data-name="Path 407" opacity=".1" style="isolation:isolate"/><path id="Path_408" fill="#eb7a6d" d="M320 301.3s6.1-3.4 13 5.3c0 0 5.1 2.9 6.6 3.6s3.2 19.1 3.2 19.1 3.3 8 2.4 12.5 2.6 20.3 2.6 20.3 5.7 28.2 5.5 29-5.8-8.9-5.7-13.7-4.8-19.6-5.5-20.5-5.5-26.4-5.5-26.4-3.8-10.7-6.3-14.3-5.6-10.4-6.8-11.6a12.4 12.4 0 0 0-3.7-2z" data-name="Path 408"/><path id="Path_409" fill="#a1616a" d="M347.2 363.4s11.8-7.8 17.5-4 15 9.3 5.9 13.2-22 3.2-22 3.2z" data-name="Path 409"/><path id="Path_410" d="M339 438c-1.8 3.9-3.2 22.8-4.2 28.8l-3.7-6.2a77.2 77.2 0 0 1-3.5-8.8 58.9 58.9 0 0 0 4.3-13.4c0-3.5 5.6-8 5.6-8a6.6 6.6 0 0 1 1.5 7.7z" data-name="Path 410" opacity=".1" style="isolation:isolate"/><path id="Path_411" d="M339 271.8a6.1 6.1 0 0 1-.8.4c-1.4.3-2.8-.6-4-1.4s-3-1.3-4-.3c-1.4 1.3-.4 4-1.8 5.2-1 .8-2.4.5-3.4 1.2s-1.4 2-1.6 3.2-.8 2.6-2 3-2.3-.5-3.4-.4a1.2 1.2 0 0 1-.7-.2.7.7 0 0 1-.1-.5 11.5 11.5 0 0 0-.4-4.3 4.1 4.1 0 0 0-3-2.8c-2.1-.4-3.9 1.5-5.1 3.2a51.2 51.2 0 0 0-3.5 5.7 3 3 0 0 0-.2.4 18 18 0 0 1-1.5-7.3 18.2 18.2 0 0 1 35.6-5z" data-name="Path 411" opacity=".1" style="isolation:isolate"/><path id="Path_412" fill="#3f3d56" d="M308.7 277.8c1.2-1.7 3-3.6 5-3.2a4.1 4.1 0 0 1 3 2.8 11.6 11.6 0 0 1 .5 4.3.7.7 0 0 0 0 .5c.2.2.5.2.8.2 1.1 0 2.3.7 3.4.4s1.7-1.8 2-3 .5-2.6 1.6-3.2 2.4-.4 3.4-1.2c1.4-1.2.4-4 1.8-5.2 1-1 2.8-.4 4 .4s2.6 1.6 4 1.3a13.4 13.4 0 0 0 1.3-.6c2.3-.8 5.1.6 7-1a5.4 5.4 0 0 0 1.3-2.3 14.6 14.6 0 0 0 1-3.8 5 5 0 0 0-1-3.7c-1.1-1.4-3.2-1.7-4.7-2.8a11.4 11.4 0 0 1-3-3.5 13 13 0 0 0-2.9-3.6 4.3 4.3 0 0 0-4.4-.7 4.3 4.3 0 0 1-1.4.7 2.8 2.8 0 0 1-1.6-.4c-5.1-2.5-11.2-2-16.8-1.3a21.7 21.7 0 0 0-6.7 1.6 8 8 0 0 0-4.4 4.9c-.5 1.7-.1 3.6-.7 5.4l-1.6 3.3c-1.2 3.1.3 6.6.9 9.9.6 3.6.3 7.5 1.8 11 .3.6.7 1.8 1.4 1.3.6-.3 1.2-2.3 1.5-2.8a54.1 54.1 0 0 1 3.5-5.7z" data-name="Path 412"/><path id="Path_413" d="M276 336l-2.7 7.6s6.4 23.6 9.3 28.6 7.4 11.4 7.4 11.4a27.3 27.3 0 0 0 16 2c8.4-1.7 33.4-6.2 33.4-6.2a3.3 3.3 0 0 0 3.1-1.2c1.2-1.6 6.8-2.4 6.8-2.4s6.5-9.5-1.5-13.5c0 0-1 2.2-5.3.7s-5.5 1.2-5.5 1.2-7 1.4-10.8 1-13.5-.8-14.5-1.6a1.3 1.3 0 0 0-1.8.1 11 11 0 0 1-3.2-1.8c-.8-.9-1.9 1-1.9 1s-1.4-.8-1-1.8-1.3-4.7-1.3-4.7a9.6 9.6 0 0 1-.3-4.5c.5-2-2.4-9-2.4-9a12.7 12.7 0 0 1 .3-3.7c.5-1.7-3.7-5.3-3.7-5.3s-4.2-20.3-13-13.7S276 336 276 336z" data-name="Path 413" opacity=".1" style="isolation:isolate"/><path id="Path_414" fill="#eb7a6d" d="M275.4 336l-2.7 7.6s6.4 23.6 9.3 28.6 7.4 11.4 7.4 11.4a27.3 27.3 0 0 0 16 2c8.5-1.7 33.4-6.2 33.4-6.2a3.3 3.3 0 0 0 3.2-1.2c1.1-1.6 6.8-2.4 6.8-2.4s6.5-9.5-1.5-13.5c0 0-1 2.2-5.3.7s-5.6 1.2-5.6 1.2-7 1.4-10.8.9-13.5-.7-14.5-1.5a1.3 1.3 0 0 0-1.8.1 11.2 11.2 0 0 1-3.1-1.8c-.8-.9-2 1-2 1s-1.3-.8-1-1.8-1.2-4.8-1.2-4.8a9.8 9.8 0 0 1-.3-4.4c.5-2-2.5-9.1-2.5-9.1a12.7 12.7 0 0 1 .4-3.6c.5-1.8-3.8-5.4-3.8-5.4s-4.2-20.2-13-13.6-7.4 15.8-7.4 15.8z" data-name="Path 414"/><path id="Path_415" d="M300 359s-9.8 2-6.5 3.7 6.4-3.7 6.4-3.7z" data-name="Path 415" opacity=".1" style="isolation:isolate"/><g id="Group_27" data-name="Group 27" opacity=".1"><path id="Path_416" d="M316.8 275.7a4 4 0 0 0-3-2.8c-2.1-.3-3.9 1.5-5 3.2a54.5 54.5 0 0 0-3.6 5.7c-.3.6-.9 2.5-1.4 2.8-.8.5-1.2-.7-1.4-1.4-1.6-3.4-1.2-7.3-1.9-11a63 63 0 0 1-1.3-6.3c-.2 2.5.8 5.3 1.3 8 .7 3.6.3 7.5 1.9 10.9.3.7.6 1.8 1.4 1.4.5-.3 1.1-2.3 1.4-2.8a52.7 52.7 0 0 1 3.5-5.7c1.2-1.7 3-3.6 5-3.2a4.1 4.1 0 0 1 3 2.8 8 8 0 0 1 .5 2.3 10.2 10.2 0 0 0-.4-3.9z" data-name="Path 416"/><path id="Path_417" d="M347.8 266.3a5.3 5.3 0 0 1-1.4 2.4c-1.8 1.5-4.6.1-6.9 1l-1.3.5c-1.4.4-2.8-.6-4-1.3s-3-1.3-4-.3c-1.4 1.2-.4 4-1.8 5.2-1 .8-2.4.5-3.4 1.1s-1.4 2-1.6 3.2-.8 2.6-2 3-2.3-.4-3.4-.4a1 1 0 0 1-.7-.1.3.3 0 0 1 0-.2v1.2a.8.8 0 0 0 0 .6l.7.1c1.2 0 2.4.7 3.4.4s1.7-1.7 2-3 .5-2.5 1.6-3.2 2.4-.4 3.4-1.1c1.4-1.3.4-4 1.8-5.3 1-1 2.8-.4 4 .4s2.6 1.7 4 1.3l1.4-.6c2.2-.8 5 .6 6.8-.9a5.4 5.4 0 0 0 1.4-2.4 15 15 0 0 0 1-3.8 6 6 0 0 0 0-1.3 16.8 16.8 0 0 1-1 3.5z" data-name="Path 417"/></g></g><ellipse id="svg--format--tree--two--circle" cx="149.6" cy="553.6" fill="#eb7a6d" rx="46.5" ry="8.9"/><g id="svg--format__tree--two"><ellipse id="Ellipse_58" cx="148.8" cy="549.8" fill="#3f3d56" data-name="Ellipse 58" rx="5.4" ry="7.1"/><ellipse id="Ellipse_59" cx="148.8" cy="541.1" fill="#3f3d56" data-name="Ellipse 59" rx="5.4" ry="7.1"/><ellipse id="Ellipse_60" cx="148.8" cy="532.5" fill="#3f3d56" data-name="Ellipse 60" rx="5.4" ry="7.1"/><ellipse id="Ellipse_61" cx="148.8" cy="523.8" fill="#3f3d56" data-name="Ellipse 61" rx="5.4" ry="7.1"/><ellipse id="Ellipse_62" cx="148.8" cy="515.2" fill="#3f3d56" data-name="Ellipse 62" rx="5.4" ry="7.1"/><ellipse id="Ellipse_63" cx="148.8" cy="506.5" fill="#3f3d56" data-name="Ellipse 63" rx="5.4" ry="7.1"/><ellipse id="Ellipse_64" cx="148.8" cy="497.8" fill="#3f3d56" data-name="Ellipse 64" rx="5.4" ry="7.1"/><path id="Path_418" fill="#eb7a6d" d="M169.1 438.6a26 26 0 0 0 2-3l-14.2-2.4 15.4.2a26 26 0 0 0 .5-20.6L152 423.5l19-14a26 26 0 1 0-44.8 26 25.7 25.7 0 0 0 2 3 25.5 25.5 0 0 0-3 4.7l18.5 9.6-19.7-6.6a26 26 0 0 0 4.2 24.4 26 26 0 1 0 40.7 0 26 26 0 0 0 0-32z" data-name="Path 418"/><path id="Path_419" d="M122.8 454.6a25.8 25.8 0 0 0 5.5 16 26 26 0 1 0 40.8 0c3.5-4.4-46.3-19-46.3-16z" data-name="Path 419" opacity=".1" style="isolation:isolate"/></g><ellipse id="svg--format--tree--one--circle" cx="710.2" cy="667.3" fill="#eb7a6d" rx="38.6" ry="7.4"/><g id="svg--format__tree--one"><ellipse id="Ellipse_66" cx="709.6" cy="664.1" fill="#3f3d56" data-name="Ellipse 66" rx="4.5" ry="5.9"/><ellipse id="Ellipse_67" cx="709.6" cy="656.9" fill="#3f3d56" data-name="Ellipse 67" rx="4.5" ry="5.9"/><ellipse id="Ellipse_68" cx="709.6" cy="649.8" fill="#3f3d56" data-name="Ellipse 68" rx="4.5" ry="5.9"/><ellipse id="Ellipse_69" cx="709.6" cy="642.6" fill="#3f3d56" data-name="Ellipse 69" rx="4.5" ry="5.9"/><ellipse id="Ellipse_70" cx="709.6" cy="635.4" fill="#3f3d56" data-name="Ellipse 70" rx="4.5" ry="5.9"/><ellipse id="Ellipse_71" cx="709.6" cy="628.2" fill="#3f3d56" data-name="Ellipse 71" rx="4.5" ry="5.9"/><ellipse id="Ellipse_72" cx="709.6" cy="621" fill="#3f3d56" data-name="Ellipse 72" rx="4.5" ry="5.9"/><path id="Path_420" fill="#eb7a6d" d="M726.4 571.8a21.8 21.8 0 0 0 1.7-2.5l-11.9-2 12.8.2a21.6 21.6 0 0 0 .4-17l-17.1 8.8 15.8-11.6a21.5 21.5 0 0 0-37.2 21.6 20.6 20.6 0 0 0 1.7 2.5 21.6 21.6 0 0 0-2.5 3.9l15.3 8-16.3-5.5a21.5 21.5 0 0 0 3.5 20.2 21.5 21.5 0 1 0 33.8 0 21.5 21.5 0 0 0 0-26.6z" data-name="Path 420"/><path id="Path_421" d="M688 585a21.5 21.5 0 0 0 4.5 13.4 21.5 21.5 0 1 0 33.9 0c2.9-3.7-38.5-15.7-38.5-13.3z" data-name="Path 421" opacity=".1" style="isolation:isolate"/></g><circle id="svg--format--circle--one" cx="319.4" cy="17.4" r="17.4" fill="#eb7a6d" opacity=".1" style="isolation:isolate"/><circle id="svg--format--circle--two" cx="343" cy="81.1" r="29.1" fill="#eb7a6d" opacity=".1" style="isolation:isolate"/><circle id="svg--format--circle--six" cx="16.5" cy="220.7" r="16.5" fill="#eb7a6d" opacity=".1" style="isolation:isolate"/><circle id="svg--format--circle--five" cx="702.8" cy="198.8" r="9.8" fill="#eb7a6d" opacity=".1" style="isolation:isolate"/><circle id="svg--format--circle--three" cx="744.9" cy="161.6" r="16.5" fill="#eb7a6d" opacity=".1" style="isolation:isolate"/><circle id="svg--format--circle--four" cx="666" cy="187.1" r="16.5" fill="#eb7a6d" opacity=".1" style="isolation:isolate"/><circle id="svg--format--circle--seven" cx="341.2" cy="209" r="23.8" fill="#eb7a6d" opacity=".1" style="isolation:isolate"/><circle id="svg--format--circle--eight" cx="576.4" cy="363.5" r="23.8" fill="#eb7a6d" opacity=".1" style="isolation:isolate"/><ellipse id="svg--format--ring--one" class="svg--format--ring" cx="149.6" cy="557" fill="none" stroke="#444053" stroke-miterlimit="10" rx="135.8" ry="27.3"/><ellipse id="svg--format--ring--four" class="svg--format--ring" cx="710.2" cy="668.2" fill="none" stroke="#444053" stroke-miterlimit="10" rx="112.7" ry="22.6"/><ellipse id="svg--format--ring--two" class="svg--format--ring" cx="242.2" cy="647.8" fill="none" stroke="#444053" stroke-miterlimit="10" rx="97" ry="19.4"/></g></defs>
</svg>