<svg xmlns="http://www.w3.org/2000/svg" viewBox="0 0 875.4 535.4">
<defs><g id="svg--project"><circle id="svg--project--bgcircle--two" cx="665.5" cy="277" r="198.2" fill="#f2f2f2"/><circle id="svg--project--bgcircle--one" cx="243.3" cy="198.2" r="198.2" fill="#f2f2f2"/><ellipse id="svg--project__shadow--circle" cx="234" cy="395.6" fill="#3f3d56" rx="217.7" ry="11.7"/><ellipse id="svg--project__shadow--circle-2" cx="190.3" cy="396.1" data-name="svg--project__shadow--circle" opacity=".1" rx="163.1" ry="8.1" style="isolation:isolate"/><ellipse id="svg--project__shadow--circle-3" cx="657.7" cy="477.2" fill="#3f3d56" data-name="svg--project__shadow--circle" rx="217.7" ry="12.9"/><ellipse id="svg--project__shadow--circle-4" cx="614" cy="477.6" data-name="svg--project__shadow--circle" opacity=".1" rx="163.1" ry="8.9" style="isolation:isolate"/><ellipse id="svg--project__shadow--circle-5" cx="312.9" cy="447.2" fill="#3f3d56" data-name="svg--project__shadow--circle" rx="138.9" ry="7"/><ellipse id="svg--project__shadow--circle-6" cx="67" cy="423.8" fill="#3f3d56" data-name="svg--project__shadow--circle" rx="67" ry="3.4"/><ellipse id="svg--project__shadow--circle-7" cx="743.6" cy="529.1" fill="#3f3d56" data-name="svg--project__shadow--circle" rx="124.8" ry="6.3"/><g id="svg--project--palette"><path id="svg--project--palette__bg" fill="#3f3d56" d="M480.6 327.8h249.7v148.3H480.6z"/><path class="svg--project--palette__color" fill="#eb7a6d" d="M634.3 351.2H653v18.7h-18.7z"/><path class="svg--project--palette__color" fill="#eb7a6d" d="M657.7 351.2h18.7v18.7h-18.7z" data-name="svg--project--palette__color" opacity=".5" style="isolation:isolate"/><path class="svg--project--palette__color" fill="#eb7a6d" d="M681.1 351.2h18.7v18.7h-18.7z" data-name="svg--project--palette__color" opacity=".2" style="isolation:isolate"/><path class="svg--project--palette__color" fill="#2f2e41" d="M634.3 374.6H653v18.7h-18.7z" data-name="svg--project--palette__color"/><path class="svg--project--palette__color" fill="#2f2e41" d="M657.7 374.6h18.7v18.7h-18.7z" data-name="svg--project--palette__color" opacity=".5" style="isolation:isolate"/><path class="svg--project--palette__color" fill="#2f2e41" d="M681.1 374.6h18.7v18.7h-18.7z" data-name="svg--project--palette__color" opacity=".2" style="isolation:isolate"/><path class="svg--project--palette__color" fill="#ff6584" d="M634.3 398H653v18.7h-18.7z" data-name="svg--project--palette__color"/><path class="svg--project--palette__color" fill="#ff6584" d="M657.7 398h18.7v18.7h-18.7z" data-name="svg--project--palette__color" opacity=".5" style="isolation:isolate"/><path class="svg--project--palette__color" fill="#ff6584" d="M681.1 398h18.7v18.7h-18.7z" data-name="svg--project--palette__color" opacity=".2" style="isolation:isolate"/><g id="svg--project--palette--main"><circle id="Ellipse_101" cx="560.9" cy="403.5" r="56.2" fill="#eb7a6d" data-name="Ellipse 101"/><path id="Path_423" fill="#3f3d56" d="M561 347.3v112.3c31 0 57.7-25.1 57.7-56.1s-26.7-56.2-57.8-56.2z" data-name="Path 423" opacity=".5" style="isolation:isolate"/></g></g><g id="svg--project--man"><path id="Path_424" fill="#ffb9b9" d="M783.7 338.3s32.8 14.8 21.1 32-46.8 50-47.6 57-5.5 13.3-5.5 13.3-15.6-16.4-14-18 17.2-16.4 18-20.3 24.1-34.3 24.1-34.3l-21-18.7z" data-name="Path 424"/><path id="Path_425" d="M783.7 338.3s32.8 14.8 21.1 32-46.8 50-47.6 57-5.5 13.3-5.5 13.3-15.6-16.4-14-18 17.2-16.4 18-20.3 24.1-34.3 24.1-34.3l-21-18.7z" data-name="Path 425" opacity=".1" style="isolation:isolate"/><path id="Path_426" fill="#ffb9b9" d="M742.4 371s22.6 9.4 21 24.3 27.4 57 27.4 57 3 10.1 2.3 13.2 20.3 2.4 20.3 2.4v-7s-16.4-28.1-18-36-10.9-38.2-10.9-38.2-3.1-27.3-18.7-27.3a29.3 29.3 0 0 0-23.4 11.7z" data-name="Path 426"/><path id="Path_427" fill="#2f2e41" d="M743.5 300.4s46.9 38.3 45.3 41.4-24.2 14.8-28 15.6-31.6-57-31.6-57z" data-name="Path 427"/><path id="Path_428" d="M743.5 300.4s46.9 38.3 45.3 41.4-24.2 14.8-28 15.6-31.6-57-31.6-57z" data-name="Path 428" opacity=".1" style="isolation:isolate"/><path id="Path_429" fill="#2f2e41" d="M692.8 308.3s-4.6 21 7.8 29.6 33.6 42.2 36 42.2 35.8-18 34.3-21.1-18.8-30.5-18.8-30.5l-5.4-28.8s-47.6-1.6-53.9 8.6z" data-name="Path 429"/><path id="Path_430" fill="#ffb9b9" d="M743.5 239.6l7 45.2 12.5 32s18.8 19.6 7.8 21.1-17.1-21-17.1-21L743.5 298z" data-name="Path 430"/><path id="Path_431" d="M743.5 239.6l7 45.2 12.5 32s18.8 19.6 7.8 21.1-17.1-21-17.1-21L743.5 298z" data-name="Path 431" opacity=".1" style="isolation:isolate"/><path id="Path_432" fill="#ffb9b9" d="M717.4 189.2s0 16.4-5.5 18 21.9 22.6 21.9 22.6-3.1-27.3 7.8-34.3z" data-name="Path 432"/><path id="Path_433" d="M717.4 189.2s0 16.4-5.5 18 21.9 22.6 21.9 22.6-3.1-27.3 7.8-34.3z" data-name="Path 433" opacity=".1" style="isolation:isolate"/><circle id="Ellipse_102" cx="729.9" cy="184.6" r="17.9" fill="#ffb9b9" data-name="Ellipse 102"/><path id="Path_434" fill="#eb7a6d" d="M730.7 222s-16.4-20.3-18.7-19.5-19.5 18-21 23.4-4.8 44.5-2.4 52.3 2.3 28.1 1.5 29.7-5.4 5.4-.7 5.4 21-11.7 32-9.3 25.7-.8 26.5-2.4-.8-42.1 0-45.3-1.6-18.7-2.3-21.8-.8-15.6-8.6-18.7l-3.4-.4-.1 7.8z" data-name="Path 434"/><path id="Path_435" fill="#ffb9b9" d="M696.3 262.6s1.6 24.2 13.3 34.3 36.7 27.4 38.2 30.5 16.4 19.5 19.6 12.5a11.6 11.6 0 0 0 .6-7 17.2 17.2 0 0 0-7.7-11.2l-7-4.5-34.3-35.9-1.6-18.7z" data-name="Path 435"/><path id="Path_436" fill="#2f2e41" d="M741.2 419.9s-9-2-12 3.5 3 20.3 3 20.3 18 37.4 21.1 32.7-2.3-21.8-2.3-21.8 7.8-17.2 4.7-18-14.5-7.4-14.5-16.8z" data-name="Path 436"/><path id="Path_437" fill="#2f2e41" d="M796.2 464.7s-4.7-2.3-5.4 0-5.5 14 0 15.6 59.3 3.1 57.7 0-10.1-7-15.6-8.6-19.5-13.2-19.5-13.2-7.8 10.1-17.2 6.2z" data-name="Path 437"/><path id="Path_438" fill="#2f2e41" d="M748 170.3a4.8 4.8 0 0 0-2-2.7 11 11 0 0 0-.5-3.6c-1.2-3.4-3.9-3.2-6.5-4.7-1-.6-1-1.2-1.6-2.3a8.5 8.5 0 0 0-3.3-3.3 11.8 11.8 0 0 0-5.3-2.3c-4-.3-7.2 3.6-11.1 4.8-1.7.6-3.6.6-5.3 1s-3.5 1.8-3.7 3.6c-.2.9 0 1.7 0 2.5-.3 1.7-1.7 2.8-2.7 4.2-2.1 3-1.9 7.2-.2 10.4a14.9 14.9 0 0 0 1.3 2 12 12 0 0 0 1.3 4.3c1.7 3.3 4.6 5.7 7.7 7.7a18.2 18.2 0 0 1-.5-3.3 2.3 2.3 0 0 1 .2-1c.3-.8 1.2-1 1.9-1.4 1.4-.8 2-2.6 2-4.2s-.3-3.3-.2-4.9a2.7 2.7 0 0 1 1-2 3.2 3.2 0 0 1 1.7-.4c3-.1 6-.2 8.5-1.6a12.5 12.5 0 0 1 2.7-1.3c2.2-.6 4.4 1 5.7 2.8s1.8 4.1 3 6 3.2 3.7 5.4 3.5a.9.9 0 0 0 .7-.3 1 1 0 0 0 .1-.6l.1-8.6a12.8 12.8 0 0 0-.4-4.4z" data-name="Path 438"/><path id="Path_439" fill="#eb7a6d" d="M703.4 222.8s17.1 7.8 16.4 24.2 4.6 18-8.6 19.5-16.4 0-17.2 1.6-5.5-36-2.3-39.8 11.7-5.5 11.7-5.5z" data-name="Path 439"/></g><g id="svg--project--woman"><circle id="Ellipse_103" cx="358" cy="65.5" r="25" fill="#2f2e41" data-name="Ellipse 103"/><path id="Path_440" fill="#2f2e41" d="M374.8 339l-14 38.3s-11.7 9.4-4.7 12.5 21.1-3.1 21.1-3.1l11-28.1-1.6-19.5z" data-name="Path 440"/><path id="Path_441" d="M374.8 339l-14 38.3s-11.7 9.4-4.7 12.5 21.1-3.1 21.1-3.1l11-28.1-1.6-19.5z" data-name="Path 441" opacity=".1" style="isolation:isolate"/><path id="Path_442" fill="#575a89" d="M376 112.4l11.7 1.5s5.5 43 3.1 46-14 15.6-18.7 12.5 3.9-60 3.9-60z" data-name="Path 442"/><path id="Path_443" fill="#a0616a" d="M264 190.8s-16.4 7-19.5 7.8-7.8 8.6-2.3 10.2 26.5-14.1 26.5-14.1z" data-name="Path 443"/><path id="Path_444" fill="#2f2e41" d="M380.3 354.7l8.6 32s.7 11.7 4.6 12.5 15.7-4 15.7-5.5-4.7-14-4.7-14 0-9.3-4.7-13.3-9-17-9-17z" data-name="Path 444"/><path id="Path_445" fill="#2f2e41" d="M391.2 281.3c1.6 3.7 1.4 30.4-.3 48.1-.9 8.6-2 15.1-3.6 16l-11.2-2.9-4.4-1-.1-9.8-.7-53.5-13.3-55.4v-14l33.6 3 5.3 8.4.2.3s-7.8 55.4-5.5 60.8z" data-name="Path 445"/><path id="Path_446" d="M384.2 298.5c1.7 2.5 4.4 17.5 6.7 31-.9 8.5-2 15-3.6 15.8l-11.2-2.8-.5-1c-1.4-3-2.8-6.4-4-9.8l-.7-53.5-13.2-55.4v-14l33.5 3 5.4 8.4-31.1-2 7 30.4 8.6 32s0 13.2 3 17.9z" data-name="Path 446" opacity=".1" style="isolation:isolate"/><path id="Path_447" fill="#2f2e41" d="M328.8 177.5s-11 24.2 4.7 57.8a678.8 678.8 0 0 1 25.7 64s5.5 25.7 13.3 42.1 6.2 17.2 6.2 17.2l12.5-7s-7-48.4-10.1-53-3.2-18-3.2-18l-8.5-32-7-30.5 34.3 2.4s0-44.5-15.6-53z" data-name="Path 447"/><path id="Path_448" fill="#a0616a" d="M341.7 77.3s0 12.4-4 13.2-11.6.8-14 4.7 18 55.4 18 55.4l21-13.2 7-35.2s-10-6.2-10-9.3v-14z" data-name="Path 448"/><path id="Path_449" d="M341.7 77.3s0 12.4-4 13.2-11.6.8-14 4.7 18 55.4 18 55.4l21-13.2 7-35.2s-10-6.2-10-9.3v-14z" data-name="Path 449" opacity=".1" style="isolation:isolate"/><circle id="Ellipse_104" cx="353.8" cy="72.2" r="18.7" fill="#a0616a" data-name="Ellipse 104"/><path id="Path_450" fill="#575a89" d="M344 135s-7-44.5-8.6-44.5-23.4 4.7-25 5.5-7 7.8-7 7.8l11 31.2s4.6 21.9 7.7 25.8 9.4 14.8 6.3 16.3-6.3 4-3.1 4 28.8-4.7 30.4-2.4 27.3-8.6 27.3-9.4l-3.1-37.4 7.8-18-23.4-16.4z" data-name="Path 450"/><path id="Path_451" fill="#575a89" d="M311.2 99.9l-7.8 3.9s-21.8 50-23.4 50.7-9.4 15.6-10.1 18.7-2.4 13.3-4.7 14.9a40.2 40.2 0 0 1-4 2.3s4.8 7.8 7 7.8 10.2-11 10.2-11 17.2 11 21.9 2.4 16.4-63.2 16.4-63.2z" data-name="Path 451"/><path id="Path_452" fill="#a0616a" d="M372.5 123.7s-11-26.5-17.2-23.4 4.7 21.8 11.7 25z" data-name="Path 452"/><path id="Path_453" d="M361.6 124.5l10.9-2.5 2.3 11.8s10.2 18 7.8 25.8-16.4 20.3-21 13.3-8.6-18-5.5-24.2 7.8-21.1 5.5-24.2z" data-name="Path 453" opacity=".1" style="isolation:isolate"/><path id="Path_454" fill="#575a89" d="M363.9 123l11-2.6 2.3 11.9s10.1 18 7.8 25.7-16.4 20.3-21 13.3-8.6-18-5.5-24.2 7.7-21.1 5.4-24.2z" data-name="Path 454"/><ellipse id="Ellipse_105" cx="358.8" cy="60.5" fill="#2f2e41" data-name="Ellipse 105" rx="9" ry="18.7" transform="rotate(-64.9 358.8 60.5)"/><circle id="Ellipse_106" cx="372.9" cy="44.5" r="10.9" fill="#2f2e41" data-name="Ellipse 106"/><path id="Path_455" fill="#2f2e41" d="M362.7 40.6a11 11 0 0 1 9.8-10.9 11 11 0 1 0-2.4 21.7 10.4 10.4 0 0 0 2.4 0 11 11 0 0 1-9.8-10.8z" data-name="Path 455"/></g><g id="svg--project--chat"><path id="svg--project--chat--bg" fill="#3f3d56" d="M50.6 206h273.1v189.6H50.6z"/><g id="svg--project--chat--one" fill="#f2f2f2"><path id="svg--project--chat--one__avatar" d="M72.4 224.8h35.9v35.9H72.4z"/><path id="svg--project--chat--one__line--one" d="M125.5 236.1h170.9v3.1H125.5z"/><path id="svg--project--chat--one__line--two" d="M125.5 246.2h53.1v3.1h-53.1z"/></g><g id="svg--project--chat--two"><path id="svg--project--chat--two__avatar" fill="#eb7a6d" d="M72.4 283.3h35.9v35.9H72.4z"/><path id="svg--project--chat--two__line--one" fill="#f2f2f2" d="M125.5 294.6h170.9v3.1H125.5z"/><path id="svg--project--chat--two__line--two" fill="#f2f2f2" d="M125.5 304.7h53.1v3.1h-53.1z"/></g><g id="svg--project--chat--three" fill="#f2f2f2"><path id="svg--project--chat--three__avatar" d="M72.4 341.8h35.9v35.9H72.4z"/><path id="svg--project--chat--three__line--one" d="M125.5 353.1h170.9v3.1H125.5z"/><path id="svg--project--chat--three__line--two" d="M125.5 363.3h53.1v3.1h-53.1z"/></g></g><g id="svg--project__tree--two"><path id="Path_456" fill="#eb7a6d" d="M772.4 511.9c0 15.9-9.4 21.4-21 21.4h-2.5c-10.5-.8-18.7-6.6-18.7-21.4 0-15.3 19.6-34.6 21-36h.1s21.1 20.1 21.1 36z" data-name="Path 456"/><path id="Path_457" fill="#3f3d56" d="M750.6 530.9l7.7-10.8-7.8 12v1.2H749l.9-16v-1.6l-7.7-12 7.8 10.9v.3l.6-12-6.6-12.4 6.7 10.3.7-24.9-.1 19.6 6.6-7.7-6.7 9.4-.2 10.8 6.2-10.3-6.2 11.9v6l9-14.4-9 16.4z" data-name="Path 457"/></g><g id="svg--project__tree--one"><path id="Path_458" fill="#eb7a6d" d="M88 403.4c0 15.9-9.4 21.4-21 21.4h-2.5c-10.5-.8-18.6-6.6-18.6-21.4 0-15.3 19.5-34.6 21-36s21.1 20.1 21.1 36z" data-name="Path 458"/><path id="Path_459" fill="#3f3d56" d="M66.2 422.4l7.7-10.8-7.8 12v1.3l-1.6-.1.9-15.9v-1.6l-7.7-12 7.8 10.8v.4l.6-12-6.6-12.5 6.7 10.3.7-24.9-.2 19.6 6.6-7.8-6.6 9.5-.2 10.8 6.2-10.4-6.2 12v6l9-14.4-9 16.4z" data-name="Path 459"/></g></g></defs>
</svg>