<svg id="svg--gadgets" xmlns="http://www.w3.org/2000/svg" viewBox="0 0 852.92 632.24"><title>svg--gadgets</title><path id="svg--gadgets__plant--bg" d="M611.82,381.81l6.53-4c.62-.39,1.23-.81,1.86-1.21a62.37,62.37,0,0,1-6.3-121.51l-.33,25.7,14.12-28h.18a62.35,62.35,0,0,1,65.19,59.38h0c.06,1.19,0,2.36,0,3.5,4.91-5.6,9.37-11.61,12.33-18.19,6-13.33,6.12-28.43,5.62-46.78-.95-36.36-2.51-73-4.56-109.52a62.32,62.32,0,0,1-55.37-59c-.09-1.91-.06-3.8,0-5.67a9.25,9.25,0,0,1,.07-1.39c.12-1.81.29-3.6.57-5.37a5.24,5.24,0,0,1,.16-.88c.26-1.49.56-3,.91-4.44.14-.54.27-1.09.42-1.63a48.31,48.31,0,0,1,1.48-4.7c.18-.52.4-1,.59-1.52.45-1.14.93-2.26,1.44-3.37.27-.58.53-1.16.82-1.75.07-.15.13-.3.21-.45h0A62.31,62.31,0,0,1,731,19.4l-.42,33.45,14-27.62a62,62,0,0,1,29.72,67.19h.07c-.1.44-.24.87-.34,1.31-.2.82-.41,1.63-.63,2.45-.3,1-.63,2.06-1,3.08-.26.76-.51,1.54-.8,2.29-.42,1.1-.88,2.18-1.38,3.25-.28.63-.54,1.27-.88,1.89q-1.2,2.41-2.62,4.72c-.33.53-.7,1-1,1.57-.66,1-1.33,2.06-2.06,3-.44.62-.92,1.2-1.4,1.81-.68.87-1.38,1.75-2.1,2.54-.52.58-1,1.16-1.59,1.75-.76.8-1.54,1.58-2.36,2.35-.53.52-1.07,1-1.63,1.52-.92.82-1.88,1.59-2.85,2.35-.49.39-1,.79-1.47,1.16-1.47,1.09-3,2.12-4.57,3.08-.3.18-.61.33-.88.5-1.31.78-2.62,1.5-4,2.19-.58.29-1.19.54-1.8.81-1.12.51-2.26,1-3.42,1.44l-2.06.73c-1.14.39-2.31.75-3.49,1.07-.7.2-1.39.39-2.1.55-1.28.31-2.58.56-3.89.78a.47.47,0,0,0-.26.05Q725,163.82,726,187a62.32,62.32,0,0,1,83.32-28.73c1.09.52,2.16,1.09,3.21,1.68l-11,30.2,22.67-21.78a62.2,62.2,0,0,1,20.11,43.06,61.3,61.3,0,0,1-1.59,17.18,62.33,62.33,0,0,1-114.65,17c0,1.57.12,3.14.16,4.7.41,16.19.93,36.33-7.14,54.32-5.47,12.19-14.27,22.09-23,31q-8.49,8.65-17.54,16.77A62.29,62.29,0,0,1,658.06,371q-14.82,11.42-30.68,21.38L621,396.56c-5.93,3.68-12,7.45-18,11.36,1-.11,2.08-.22,3.15-.26a62.38,62.38,0,0,1,61.39,40.58l-39,31.72L671.4,470A62.4,62.4,0,0,1,582,526.18l2.9,3.6c1.91,2.39,3.82,4.75,5.68,7.1C615.92,569,623,599.47,610.42,622.72l-15.26-8.26c12.23-22.62-6.12-51.57-18.21-66.83-1.83-2.31-3.7-4.63-5.59-7-16.19-20.1-34.55-42.93-34.09-70.91C537.93,427.6,578.92,402.19,611.82,381.81Z" fill="#f2f2f2"/><ellipse id="svg--gadgets__floor" cx="409.22" cy="613.38" rx="409.22" ry="18.87" fill="#3f3d56"/><g id="svg--gadgets__plant--two"><path id="Path_552" data-name="Path 552" d="M739.82,606.34c3.73-4.23,2.09-10.82-.33-15.9s-5.55-10.47-4.21-16c1.91-7.86,11.33-10.61,19-13.27a76.53,76.53,0,0,0,16.11-7.86,20.71,20.71,0,0,0,5.47-4.66c2.07-2.77,2.84-6.28,3.52-9.68q3.39-17,6-34.09" fill="none" stroke="#3f3d56" stroke-miterlimit="10" stroke-width="4"/><path id="Path_553" data-name="Path 553" d="M798.2,507.21a12.64,12.64,0,0,0-3.84-11.47l-4,4.83L792,494a12.61,12.61,0,1,0,4.78,17.17,12.43,12.43,0,0,0,1.43-4Z" fill="#57b793"/><path id="Path_554" data-name="Path 554" d="M757.36,585.45a12.57,12.57,0,1,1,2.84-9.76l-9.1,4.5,8.89,0A12.49,12.49,0,0,1,757.36,585.45Z" fill="#57b793"/><path id="Path_555" data-name="Path 555" d="M756.73,560.17a12.57,12.57,0,0,1-10.19-14.58v-.05a12.17,12.17,0,0,1,2.33-5.36,12.59,12.59,0,0,1,9.43-5l-1.21,5.05,4-4.88h0a12.61,12.61,0,0,1-4.44,24.83Z" fill="#57b793"/><path id="Path_556" data-name="Path 556" d="M791.09,547.06a12.6,12.6,0,1,1,10.65-21.74l-3.52,5.46,5.44-3.27a12.55,12.55,0,0,1,2.05,9.39,12.35,12.35,0,0,1-1.08,3.31,12.59,12.59,0,0,1-13.54,6.85Z" fill="#57b793"/><path id="Path_557" data-name="Path 557" d="M795.81,510.08c-2.91-.33-5.87-.07-8.76-.55s-5.86-1.86-7.16-4.49a41.83,41.83,0,0,1-1.37-4.51,8.86,8.86,0,0,0-2.43-3.62,12.58,12.58,0,0,0,19.72,15.62,13,13,0,0,0,1.42-2.24Z" opacity="0.1" style="isolation:isolate"/><path id="Path_558" data-name="Path 558" d="M791.09,547.06a12.58,12.58,0,0,1-7.71-20.18,9.36,9.36,0,0,1,1.91,3,39.56,39.56,0,0,0,1.51,4.62c1.4,2.68,4.51,4.16,7.51,4.7s6.05.35,9,.74c.41.1.84.12,1.26.21a12.59,12.59,0,0,1-13.51,6.87Z" opacity="0.1" style="isolation:isolate"/><path id="Path_559" data-name="Path 559" d="M756.73,560.17a12.58,12.58,0,0,1-10.19-14.58v-.05a12.17,12.17,0,0,1,2.33-5.36,10.32,10.32,0,0,1,2.06,3.09c.65,1.57.89,3.26,1.69,4.75,1.55,2.78,4.85,4.39,8,5s6.16.55,9.24,1a12.64,12.64,0,0,1-13.15,6.12Z" opacity="0.1" style="isolation:isolate"/><path id="Path_560" data-name="Path 560" d="M757.36,585.46a12.6,12.6,0,0,1-20.13-15.17,12.86,12.86,0,0,1,2.15,3c.84,1.69,1.25,3.48,2.3,5.13,2,3,5.78,5,9.37,5.88a54.16,54.16,0,0,0,6.31,1.13Z" opacity="0.1" style="isolation:isolate"/></g><g id="svg--gadgets-2" data-name="svg--gadgets"><path id="Path_561" data-name="Path 561" d="M720.81,600.64s9.94-.31,12.94-2.45,15.28-4.69,16.06-1.25,15,17.07,3.72,17.12-26.11-1.8-29.1-3.59S720.81,600.64,720.81,600.64Z" fill="#656380"/><path id="Path_562" data-name="Path 562" d="M753.73,612.87c-11.23.09-26.11-1.8-29.1-3.6-2.28-1.38-3.19-6.37-3.49-8.67h-.33s.63,8,3.59,9.88,17.86,3.67,29.1,3.6c3.24,0,4.37-1.19,4.3-2.9C757.38,612.2,756.14,612.85,753.73,612.87Z" opacity="0.2" style="isolation:isolate"/></g><g id="svg--gadgets__plant--one"><path id="Path_563" data-name="Path 563" d="M174.66,578.63c-6.53-12.08.9-26.86,9.38-37.63s18.86-22,18.64-35.67c-.33-19.71-21.24-31.35-38-41.79a185.41,185.41,0,0,1-34.08-27.4c-4.1-4.2-8.08-8.67-10.47-14-3.45-7.71-3.36-16.47-3.14-24.91q1.08-42.22,4.17-84.29" fill="none" stroke="#3f3d56" stroke-miterlimit="10" stroke-width="4"/><path id="Path_564" data-name="Path 564" d="M89.43,311.38a30.73,30.73,0,0,1,15.35-25.15l6.88,13.61-.21-16.48a30.74,30.74,0,1,1-22,28.05Z" fill="#57b793"/><path id="Path_565" data-name="Path 565" d="M144.26,519.41a30.72,30.72,0,0,0,58-12.58,30.17,30.17,0,0,0-2-12.47,30.74,30.74,0,0,0-57.5.34L162,510.31l-21.12-4.91A30.34,30.34,0,0,0,144.26,519.41Z" fill="#57b793"/><path id="Path_566" data-name="Path 566" d="M159.43,459.74a30.74,30.74,0,0,0,9.75-60.3l.16,12.66-6.92-13.77h-.08a30.74,30.74,0,0,0-2.87,61.42Z" fill="#57b793"/><path id="Path_567" data-name="Path 567" d="M84.81,410.09a30.74,30.74,0,1,0-13.59-57.5l5.39,14.88L65.48,356.72a30.58,30.58,0,0,0-10,21.22,29.78,29.78,0,0,0,.78,8.47A30.73,30.73,0,0,0,84.81,410.09Z" fill="#57b793"/><path id="Path_568" data-name="Path 568" d="M93.57,319.58c7.1.78,14,3,21.11,3.42s14.94-1.26,19.44-6.79c2.43-3,3.64-6.76,5.69-10a21.9,21.9,0,0,1,7.74-7.29,30.74,30.74,0,0,1-55,27.59,31.09,31.09,0,0,1-2.55-7.19C91.25,319.37,92.42,319.45,93.57,319.58Z" opacity="0.1" style="isolation:isolate"/><path id="Path_569" data-name="Path 569" d="M84.81,410.09a30.76,30.76,0,0,0,29.24-43.84,22.72,22.72,0,0,0-6.18,6.18c-2.19,3.3-3.51,7.12-6.09,10.16-4.79,5.62-13,7.47-20.39,7.13s-14.58-2.45-22-3.12c-1-.09-2.07-.17-3.1-.19a30.72,30.72,0,0,0,28.48,23.68Z" opacity="0.1" style="isolation:isolate"/><path id="Path_570" data-name="Path 570" d="M159.43,459.74a30.72,30.72,0,0,0,29.48-43.27,24.92,24.92,0,0,0-6.5,6.29c-2.39,3.37-3.88,7.25-6.67,10.36-5.18,5.77-13.9,7.81-21.76,7.62-7.61-.16-14.94-2-22.5-2.61a30.76,30.76,0,0,0,28,21.61Z" opacity="0.1" style="isolation:isolate"/><path id="Path_571" data-name="Path 571" d="M144.26,519.41a30.72,30.72,0,0,0,58-12.57,30.17,30.17,0,0,0-2-12.47,30.62,30.62,0,0,0-6.74,6c-2.92,3.59-4.85,7.6-8.22,10.92-6.29,6.16-16.44,8.71-25.46,9a131,131,0,0,1-15.6-.87Z" opacity="0.1" style="isolation:isolate"/></g><g id="svg--gadgets__box--eight"><path id="Path_572" data-name="Path 572" d="M387.41,596.58,268.82,620.83l-2.7-.27L161.91,610.05V478l127.57-21.56L382,467.21l0,.58v.29Z" fill="#eb7a6d"/><path id="Path_573" data-name="Path 573" d="M387.4,596.58,268.82,620.83l-2.7-.27V485.18L382,467.79Z" opacity="0.1" style="isolation:isolate"/><path id="Path_574" data-name="Path 574" d="M382.05,468.08l0,0-115.9,17.08L161.91,478l127.57-21.56L382,467.21l0,.58Z" opacity="0.05" style="isolation:isolate"/></g><g id="svg--gadgets__box--nine"><path id="Path_575" data-name="Path 575" d="M517.67,602,399.08,626.22l-2.7-.27-104.2-10.51V483.38l127.57-21.56,92.53,10.78,0,.58v.29Z" fill="#3f3d56"/><path id="Path_576" data-name="Path 576" d="M517.67,602,399.09,626.22l-2.71-.27V490.57l115.93-17.39Z" opacity="0.1" style="isolation:isolate"/><path id="Path_577" data-name="Path 577" d="M512.32,473.47l0,0L396.39,490.57l-104.21-7.19,127.57-21.56,92.53,10.78,0,.58Z" opacity="0.05" style="isolation:isolate"/></g><g id="svg--gadgets__box--six"><path id="Path_578" data-name="Path 578" d="M435.92,472.6,317.33,496.86l-2.7-.27L210.42,486.07V354L338,332.45l92.54,10.78,0,.58v.29Z" fill="#3f3d56"/><path id="Path_579" data-name="Path 579" d="M435.92,472.6,317.33,496.86l-2.7-.27V361.2l115.93-17.39Z" opacity="0.1" style="isolation:isolate"/><path id="Path_580" data-name="Path 580" d="M430.57,344.1l0,0L314.64,361.2,210.42,354,338,332.45l92.54,10.78,0,.58Z" opacity="0.05" style="isolation:isolate"/></g><g id="svg--gadgets__box--seven"><path id="Path_581" data-name="Path 581" d="M503.3,478.13,441.41,490.8l-1.41-.15-54.39-5.49V416.24L452.19,405l48.3,5.63,0,.3v.15Z" fill="#3f3d56"/><path id="Path_582" data-name="Path 582" d="M503.3,478.13,441.41,490.8l-1.41-.14V420l60.51-9.08Z" opacity="0.1" style="isolation:isolate"/><path id="Path_583" data-name="Path 583" d="M500.51,411.07l0,0L440,420l-54.39-3.76L452.19,405l48.3,5.63,0,.3Z" opacity="0.05" style="isolation:isolate"/></g><g id="svg--gadgets__box--four"><path id="Path_584" data-name="Path 584" d="M337.1,344.27l-61.89,12.67-1.41-.14-54.39-5.49V282.38L286,271.13l48.3,5.63v.45Z" fill="#3f3d56"/><path id="Path_585" data-name="Path 585" d="M337.1,344.27l-61.89,12.66-1.41-.13V286.14l60.5-9.08Z" opacity="0.1" style="isolation:isolate"/><path id="Path_586" data-name="Path 586" d="M334.3,277.21l0,0-60.48,8.91-54.39-3.76L286,271.13l48.3,5.63v.45Z" opacity="0.05" style="isolation:isolate"/></g><g id="svg--gadgets__box--five"><path id="Path_587" data-name="Path 587" d="M445.8,341.58l-61.89,12.66-1.41-.14-54.39-5.48V279.69l66.58-11.26,48.3,5.63,0,.31v.14Z" fill="#eb7a6d"/><path id="Path_588" data-name="Path 588" d="M445.8,341.58l-61.89,12.66-1.41-.14V283.44L443,274.37Z" opacity="0.1" style="isolation:isolate"/><path id="Path_589" data-name="Path 589" d="M443,274.51l0,0-60.49,8.91-54.39-3.76,66.58-11.25,48.3,5.63,0,.31Z" opacity="0.05" style="isolation:isolate"/></g><g id="svg--gadgets__box--three"><path id="Path_590" data-name="Path 590" d="M478.14,272.4l-61.89,12.66-1.41-.13-54.39-5.49V210.51L427,199.25l48.3,5.64,0,.3v.15Z" fill="#3f3d56"/><path id="Path_591" data-name="Path 591" d="M478.14,272.4l-61.89,12.66-1.41-.14V214.27l60.51-9.08Z" opacity="0.1" style="isolation:isolate"/><path id="Path_592" data-name="Path 592" d="M475.35,205.34h0l-60.49,8.91-54.39-3.75L427,199.25l48.3,5.64,0,.3Z" opacity="0.05" style="isolation:isolate"/></g><g id="svg--gadgets__man"><path id="Path_593" data-name="Path 593" d="M520.29,131.5c-.65,5.84-5.11,10.54-6.76,16.17-2.48,8.49,1.8,17.61,7.69,24.25a53.7,53.7,0,0,0,37.39,17.74,16,16,0,0,0,6.18-.68,13.44,13.44,0,0,0,4.7-3.21c4.42-4.45,6.8-10.6,7.74-16.81s.59-12.52.22-18.79a10.69,10.69,0,0,0-.7-3.79,9.53,9.53,0,0,0-2.44-3,56.3,56.3,0,0,0-10.46-7.61c-1.62-.9-3.35-1.8-4.39-3.35a10.83,10.83,0,0,1-1.35-4l-1.16-5.9a11.68,11.68,0,0,0-1.7-4.78c-2-2.75-6-3.12-9.37-3.26L533.3,114c-3.91-.15-9-1.28-12.86-.5-3.6.71-2.39,4-1.74,7A50.11,50.11,0,0,1,520.29,131.5Z" fill="#ffc0c6"/><path id="Path_594" data-name="Path 594" d="M520.29,131.5c-.65,5.84-5.11,10.54-6.76,16.17-2.48,8.49,1.8,17.61,7.69,24.25a53.7,53.7,0,0,0,37.39,17.74,16,16,0,0,0,6.18-.68,13.44,13.44,0,0,0,4.7-3.21c4.42-4.45,6.8-10.6,7.74-16.81s.59-12.52.22-18.79a10.69,10.69,0,0,0-.7-3.79,9.53,9.53,0,0,0-2.44-3,56.3,56.3,0,0,0-10.46-7.61c-1.62-.9-3.35-1.8-4.39-3.35a10.83,10.83,0,0,1-1.35-4l-1.16-5.9a11.68,11.68,0,0,0-1.7-4.78c-2-2.75-6-3.12-9.37-3.26L533.3,114c-3.91-.15-9-1.28-12.86-.5-3.6.71-2.39,4-1.74,7A50.11,50.11,0,0,1,520.29,131.5Z" opacity="0.1" style="isolation:isolate"/><path id="Path_595" data-name="Path 595" d="M600.17,394.51,594.84,453c-1.4,15.35-2.82,30.75-5.55,45.9-.9,5.22-2,10.41-3.36,15.56-3.64,14.29-8.94,28.26-10.64,42.92-.06.42-.1.9-.15,1.28a38.05,38.05,0,0,1-1.8,9.52c-.9,2.24-2.16,4.28-3.09,6.49-1.8,4.42-2.08,9.31-2.31,14.1A61,61,0,0,0,547,581.59c-3.59-.53-7.5-.9-9.88-3.59-2.7-2.93-2.38-7.41-1.94-11.35q2.13-18.33,4.23-36.63a95.21,95.21,0,0,1,2.7-15.56c.48-1.7,1.07-3.37,1.66-5,.82-2.3,1.64-4.6,2.26-7a82.84,82.84,0,0,0,1.78-11.52c1.45-12.29,3.19-24.56,4.72-36.84l.08-.64c2.29-18.62,4-37.32,3.53-56.07-.07-2.78-.19-5.55-.37-8.34-.25-4-.62-6.17,2.7-8.7,3.69-2.78,8.56-4.73,12.78-6.56,2.27-1,27.3-9.88,27.85-7.92a48.79,48.79,0,0,1,1.8,12.77,142.6,142.6,0,0,1-.74,15.88Z" fill="#605d82"/><path id="Path_596" data-name="Path 596" d="M589.29,498.91c-.9,5.22-2,10.42-3.36,15.56-3.64,14.3-8.94,28.27-10.64,42.92-.06.42-.1.9-.15,1.28C564,542.74,554.59,525.6,543.7,509.49c.82-2.3,1.64-4.6,2.26-7a82.44,82.44,0,0,0,1.87-11.6c1.45-12.29,3.19-24.55,4.72-36.83l.08-.65a38.26,38.26,0,0,0,2.7,7.56c7.31,14.86,24.69,22.37,33.19,36.59C588.79,498,589.05,498.48,589.29,498.91Z" opacity="0.1" style="isolation:isolate"/><path id="Path_597" data-name="Path 597" d="M498.75,368.27c.37,11.91,2.28,23.73,4.18,35.5L506.86,428c2.14,13.3,4.39,26.85,10.68,38.75,4.71,8.91,11.48,16.52,17.62,24.5,15.07,19.64,26.4,41.89,40.7,62.11,4.16,5.87,10.1,12.23,17.18,11,4.66-.8,8-4.68,11.68-7.66,4.31-3.52,9.51-6.1,12.9-10.52s4.06-11.75-.54-14.9c-1.57-1.07-3.48-1.47-5.26-2.16-7.13-2.7-11.75-9.66-14.67-16.71s-4.72-14.6-8.63-21.14c-8.5-14.23-25.88-21.74-33.2-36.6-4.1-8.32-4.49-18-4.8-27.2l-.8-23.63c-.09-2.59-.15-5.28.9-7.64,2.79-6.29,11.24-6.88,18.09-7.68a61.87,61.87,0,0,0,22.16-7c3.94-2.13,7.79-4.84,9.88-8.8,1.92-3.6,2.18-7.83,2.41-11.9L605.53,318c.21-3.68.39-7.5-.9-10.95-3.26-8.68-14.22-11.51-23.48-11.1-17.23.78-33.14,8.19-49.42,13.2a122.92,122.92,0,0,1-12.24,3.19c-3.59.73-8.09.43-11.54,1.6-6.18,2.09-6,15.62-6.9,21.22A179,179,0,0,0,498.75,368.27Z" fill="#605d82"/><path id="Path_598" data-name="Path 598" d="M590.7,566.2c1.52,1.54,2,3.79,2.41,5.9a200.57,200.57,0,0,1,3.41,35.68,6,6,0,0,0,.64,3.23,4.1,4.1,0,0,0,1.68,1.35c4.4,2.09,9.49-.83,13.15-4,6.79-5.94,12.53-13.92,12.91-22.93a52,52,0,0,1,.25-6.95c.59-3.4,2.58-6.36,4.32-9.32a79.36,79.36,0,0,0,7.19-16c.66-2.1,1.11-4.74-.54-6.21a5.76,5.76,0,0,0-2-1l-19.86-7.37c-1.72-.64-6,10.35-6.67,11.55-1.67,2.94-3.32,4.6-6.65,5.29s-7.45-.31-10.63,1.39C585,559.63,587.66,563.14,590.7,566.2Z" fill="#535070"/><path id="Path_599" data-name="Path 599" d="M560.09,573a6.16,6.16,0,0,0-1.51-1.92,6.8,6.8,0,0,0-3.05-1c-3.77-.65-8.25-1.07-10.86,1.74-2.44,2.63-2,6.92-4.06,9.88a31.9,31.9,0,0,0-2.09,2.7,10.22,10.22,0,0,0-.9,4.84c-.1,4.57-.21,9.16.11,13.72.26,3.83.9,7.85,3.3,10.85,3.85,4.81,10.78,5.5,16.93,5.81l5,.26a9.87,9.87,0,0,0,4.08-.38,6.65,6.65,0,0,0,3.52-3.87c2.6-6.45-1.5-13.39-4-19.86C563.58,588.28,564.1,580,560.09,573Z" fill="#535070"/><path id="Path_600" data-name="Path 600" d="M518.86,98.57a4,4,0,0,1,.28-1.92c.73-1.29,2.63-.9,4.07-.58,5.77,1.46,11.86.14,17.82.48s12.66,3.31,13.85,9.15a43,43,0,0,0,11-11.28c1.65-2.47,3.09-5.3,2.87-8.27-.33-4.27-3.91-7.47-7.19-10.18l-9.88-8.09a15.09,15.09,0,0,0-4.44-2.82c-2.28-.78-4.78-.4-7.19-.4-7.18,0-14.9-3.28-21.3,0-2.7,1.37-4.7,3.74-6.64,6l-8.83,10.45a5.7,5.7,0,0,0-1.42,2.4c-.25,1.28.4,2.54.64,3.82.42,2.34-.59,4.83.18,7.08,1.29,3.72,5.82,4.25,8.58,6.39,1,.79,2.64,3.49,3.87,3.46C517.29,104.25,518.8,100.29,518.86,98.57Z" fill="#3f3d56"/><circle id="Ellipse_147" data-name="Ellipse 147" cx="533.84" cy="101.11" r="28.3" fill="#ffc0c6"/><path id="Path_601" data-name="Path 601" d="M540.47,163a13.69,13.69,0,0,0-13.3-9.18,3.94,3.94,0,0,1-2.46-.32,3.29,3.29,0,0,1-1-1.26,49.87,49.87,0,0,1-4.12-9.76c-.45-1.5-1.07-3.27-2.59-3.65a3.47,3.47,0,0,0-3.29,1.43,30.52,30.52,0,0,1-2.35,3c-3.6,3.18-9.88.28-13.65,3.2-.62.48-1.13,1.09-1.8,1.53a8.28,8.28,0,0,1-2.07.9,200.17,200.17,0,0,0-21.45,8.38c2.51,15.13,5.08,30.55,11,44.7,2.8,6.74,6,13.34,8.22,20.29,5,15.39,5.19,31.85,5.25,48,0,11.07,0,22.37-3.59,32.85a31.52,31.52,0,0,0-2,7.19c-.23,2.46.51,5.24,2.53,6.72a8.54,8.54,0,0,0,3.91,1.37c6.21.9,12.46-.74,18.57-2.15,16.38-3.8,33.09-6,49.75-8.09l27.94-3.59a16.36,16.36,0,0,0,5.79-1.5c5.11-2.8,5.6-10.49,2.41-15.38-1.51-2.34-3.66-4.26-5-6.74s-1.38-6,.82-7.68c4.49-3.5,3.15-10,3.36-15.68q.9-23.82-.24-47.62a93,93,0,0,1-.16-9.88c.31-5.59,1.7-11.06,3.08-16.49l8.49-33.42c-2.22-3.5-6.47-5.73-10.49-6.74s-8.21-1.3-12.17-2.53c-8.08-2.52-15.34-8.9-23.81-8.3a4.28,4.28,0,0,0-1.86.45c-1.9,1.08-1.6,3.83-1.72,6-.27,4.86-3.85,8.92-7.78,11.76s-8.45,4.92-12.07,8.16a5.38,5.38,0,0,0-2.13,4Z" fill="#3f3d56"/><path id="Path_602" data-name="Path 602" d="M428.35,194.74a33.5,33.5,0,0,1-6,3.07c-2,.78-4.09,1.4-5.7,2.76a9.28,9.28,0,0,0-2,2.46,10.91,10.91,0,0,0,10.05,16.23,21.79,21.79,0,0,0,7.43-2.22l20-8.69c3.37-1.46,7-3.17,8.62-6.5a1.49,1.49,0,0,0,.2-1,1.72,1.72,0,0,0-.82-.9,44.56,44.56,0,0,1-11.62-11c-.82-1.11-1.8-3.74-3-4.41C441.32,182.21,431.73,192.55,428.35,194.74Z" fill="#ffc0c6"/><path id="Path_603" data-name="Path 603" d="M641.73,187.69l7.36,8.41c1.58,1.8,3.16,3.59,4.6,5.53a64.72,64.72,0,0,1,8.43,15.88c1.6,4.2,2.93,8.67,2.37,13.13a32.18,32.18,0,0,1-1.84,6.67,83.25,83.25,0,0,1-5,12,69.52,69.52,0,0,1-5.6,8.42,197.07,197.07,0,0,1-18.66,21.33c-2.52,2.49-3.6,6.53-4.67,9.89-2,6.2-6.82,11.05-11.47,15.63a31.17,31.17,0,0,1-4.93,4.24,16,16,0,0,1-9,2.55,9.85,9.85,0,0,1-4-.84c-3.18-1.51-4.8-5.18-5.13-8.68a18.6,18.6,0,0,1,1.55-9.31c4.22-9.35,15.06-13.4,22.73-20.23,4.49-4,7.93-9,11.32-14a48.25,48.25,0,0,0,5.73-10c1.7-4.57,1-10,2.54-14.61.63-2,1.8-3.74,2.44-5.69s.85-4.26-.35-5.94a8.58,8.58,0,0,0-3.33-2.44c-4.9-2.48-10.37-5.68-11.31-11.1a11.94,11.94,0,0,1,2.19-8.48,35,35,0,0,1,6.17-6.46C636,191.67,639.58,189.54,641.73,187.69Z" fill="#ffc0c6"/><path id="Path_604" data-name="Path 604" d="M423.62,206.48c-1.29-2.63-2.92-5.3-5.54-6.6a10.16,10.16,0,0,0-8.09,0,30.75,30.75,0,0,0-7.08,4.27l-6.34,4.68a15.8,15.8,0,0,0-3.77,3.48,14.45,14.45,0,0,0-1.95,5.39c-.9,4.38-1.63,8.88-1,13.31,1,7.18,5.31,13.4,10.06,18.86,3,3.4,6.63,6.83,11.14,7,1.95.07,4.11-.71,4.92-2.48a6.17,6.17,0,0,0,.44-2.21c.49-8-2.37-15.76-5.7-23-.9-2-1.87-4-1.8-6.19a1.65,1.65,0,0,1,.27-1,1.74,1.74,0,0,1,1.08-.53c4.55-.9,12.41,2.64,15.6-2.42C427.93,215.61,425.09,209.45,423.62,206.48Z" fill="#ffc0c6"/><path id="Path_605" data-name="Path 605" d="M517.37,89.67a4.23,4.23,0,0,1,.28-1.93c.73-1.29,2.64-.9,4.07-.57,5.78,1.45,11.87.13,17.83.48S552.2,91,553.4,96.8a43.66,43.66,0,0,0,11-11.28c1.65-2.48,3.09-5.31,2.86-8.28-.32-4.27-3.91-7.47-7.18-10.18L550.18,59a14.67,14.67,0,0,0-4.42-2.82c-2.3-.79-4.78-.4-7.19-.4-7.19,0-14.9-3.28-21.3,0-2.7,1.37-4.7,3.73-6.64,6l-8.84,10.46a5.62,5.62,0,0,0-1.41,2.4c-.25,1.28.4,2.53.64,3.82.41,2.33-.6,4.83.18,7.07,1.28,3.73,5.81,4.26,8.58,6.4,1,.79,2.64,3.49,3.87,3.46C515.78,95.34,517.29,91.39,517.37,89.67Z" fill="#3f3d56"/><path id="Path_606" data-name="Path 606" d="M457.26,167.22a11.74,11.74,0,0,0-3,2.75c-1,1.58-1.25,3.6-2.14,5.22-1.9,3.54-6.37,4.8-9.14,7.7a2.88,2.88,0,0,0-.9,1.51,3.33,3.33,0,0,0,.74,2.18l13.43,21.09c4.49.4,8.75-2.41,13.22-2,1.66.14,3.38.71,5,.22a14.91,14.91,0,0,0,3.19-2c2.7-1.69,6.21-1.89,8.45-4.11s2.43-5.48,2.4-8.51a33.63,33.63,0,0,0-.8-7.81c-2-8.09-8.16-14.32-12.05-21.49-1.9-3.5-2.92-5.54-6.91-3.14S461.05,164.45,457.26,167.22Z" fill="#3f3d56"/><path id="Path_607" data-name="Path 607" d="M620.24,156.55a31.76,31.76,0,0,1,6.76,5.91c2,2.64,3.2,5.87,5.16,8.57s4.5,4.63,6.65,7c3.28,3.65,5.5,8.08,7.67,12.5a187.49,187.49,0,0,1-17.35,19.58,5.63,5.63,0,0,1-2.64,1.73,4.23,4.23,0,0,1-3.72-1.52c-1-1-1.66-2.26-2.58-3.31a13.26,13.26,0,0,0-8.2-4,56.63,56.63,0,0,0-9.3-.13,3.69,3.69,0,0,1-2-.33,3.36,3.36,0,0,1-1.07-1.24c-3.6-6.18-2.47-13.95-1.19-21l2.94-16.17a36.41,36.41,0,0,1,2.45-9c1.12-2.38,3.6-6.42,6.67-5.7S617.65,154.68,620.24,156.55Z" fill="#3f3d56"/></g><g id="svg--gadgets__box--two"><path id="Path_608" data-name="Path 608" d="M364.05,275.1l-61.89,12.66-1.41-.14-54.39-5.49V213.21L312.94,202l48.3,5.63,0,.31V208Z" fill="#eb7a6d"/><path id="Path_609" data-name="Path 609" d="M364.05,275.1l-61.89,12.65-1.41-.13V217l60.5-9.07Z" opacity="0.1" style="isolation:isolate"/><path id="Path_610" data-name="Path 610" d="M361.25,208v0L300.75,217l-54.39-3.76L312.94,202l48.3,5.63,0,.31Z" opacity="0.05" style="isolation:isolate"/></g><g id="svg--gadgets__box--one"><path id="Path_611" data-name="Path 611" d="M396.39,206.82,334.5,219.48l-1.41-.14-54.39-5.49V144.93l66.58-11.26,48.3,5.63,0,.31v.14Z" fill="#3f3d56"/><path id="Path_612" data-name="Path 612" d="M396.39,206.82,334.5,219.49l-1.41-.15V148.68l60.51-9.07Z" opacity="0.1" style="isolation:isolate"/><path id="Path_613" data-name="Path 613" d="M393.6,139.75l0,0-60.49,8.91-54.39-3.75,66.58-11.26,48.3,5.63,0,.31Z" opacity="0.05" style="isolation:isolate"/></g></svg>