<svg id="svg--team" xmlns="http://www.w3.org/2000/svg" viewBox="0 0 708.2 627.5"><title>svg--team</title><g id="svg--team--bg"><path id="svg--team--bg_main" data-name="svg--team--bg  main" d="M303.4,212.1 c-62.7-20.4-128.7,16.1-176,71.7c-22.3,26.2-15.5,62-25,93.6c-12,40-42.6,33.1-59.2,98.9c-21.6,82.1,48.4,101.2,128.5,101.8 c81,0.6,90.1-49,171.1-35.5c75.1,12.6,163.5,53.1,245,26.8c58.1-18.7,118.6-118.9,114.1-183.3c-6.1-87.4-116-34.8-180.2-47.4 c-40.9-8.1-52-46.8-109.2-50.4C368,285.5,345.9,225.9,303.4,212.1z" fill="#304343" opacity="0.1" style="isolation:isolate"/><ellipse id="svg--team--bg_shadow" data-name="svg--team--bg  shadow" cx="670.1" cy="376.8" rx="17.7" ry="2.4" fill="#304343" opacity="0.1" style="isolation:isolate"/><ellipse id="svg--team--bg_shadow-2" data-name="svg--team--bg  shadow-2" cx="602.3" cy="383.7" rx="17.7" ry="2.4" fill="#304343" opacity="0.1" style="isolation:isolate"/><ellipse id="svg--team--bg_shadow-3" data-name="svg--team--bg  shadow-3" cx="524.5" cy="376.3" rx="17.7" ry="2.4" fill="#304343" opacity="0.1" style="isolation:isolate"/><ellipse id="svg--team--bg_shadow-4" data-name="svg--team--bg  shadow-4" cx="559" cy="401.6" rx="12.6" ry="1.7" fill="#304343" opacity="0.1" style="isolation:isolate"/><ellipse id="svg--team--bg_shadow-5" data-name="svg--team--bg  shadow-5" cx="630" cy="402.7" rx="12.6" ry="1.7" fill="#304343" opacity="0.1" style="isolation:isolate"/><circle id="svg--team--bg_circle--two" data-name="svg--team--bg  circle--two" cx="98.8" cy="46.4" r="16.6" fill="#304343" opacity="0.1" style="isolation:isolate"/><circle id="svg--team--bg_circle--one" data-name="svg--team--bg  circle--one" cx="385.5" cy="20.2" r="16.6" fill="#304343" opacity="0.1" style="isolation:isolate"/><circle id="svg--team--bg_circle--three" data-name="svg--team--bg  circle--three" cx="648.5" cy="85.7" r="16.6" fill="#304343" opacity="0.1" style="isolation:isolate"/><circle id="svg--team--bg_circle--four" data-name="svg--team--bg  circle--four" cx="27.8" cy="198.4" r="27.8" fill="#304343" opacity="0.1" style="isolation:isolate"/><circle id="svg--team--bg_circle--six" data-name="svg--team--bg  circle--six" cx="54.4" cy="335.5" r="27.8" transform="translate(-36.72 8.06) rotate(-6.34)" fill="#304343" opacity="0.1" style="isolation:isolate"/><circle id="svg--team--bg_circle--five" data-name="svg--team--bg  circle--five" cx="574.7" cy="214.5" r="27.8" fill="#304343" opacity="0.1" style="isolation:isolate"/></g><g id="svg--team--leafs"><g id="svg--team--leafs_plant--big" data-name="svg--team--leafs  plant--big"><g id="svg--team--leafs_plant--big_leaf--middle" data-name="svg--team--leafs  plant--big  leaf--middle"><path id="svg--team--leafs_plant--big_leaf--middle_item" data-name="svg--team--leafs  plant--big  leaf--middle  item" d="M601.9,383.2s24.8-81.4-3.9-114c-21.5-24.4-45.9-21.5-56.8-18.5a20.08,20.08,0,0,0-13,10.8c-3.8,8.2-3.1,21.6,23.8,37.2,45.1,26.1,48,62,48,62Z" fill="#304343"/><path id="svg--team--leafs_plant--big_leaf--middle_item-2" data-name="svg--team--leafs  plant--big  leaf--middle  item-2" d="M545.1,262.2s73.2,22.9,56.8,121" fill="none" stroke="#565987" stroke-miterlimit="10"/><path id="svg--team--leafs_plant--big_leaf--middle_item-3" data-name="svg--team--leafs  plant--big  leaf--middle  item-3" d="M552.4,276.5s6.1-6.3,13.7-2.8" fill="none" stroke="#565987" stroke-miterlimit="10"/><path id="svg--team--leafs_plant--big_leaf--middle_item-4" data-name="svg--team--leafs  plant--big  leaf--middle  item-4" d="M581.4,308s10.8-5.5,13.6,1.4" fill="none" stroke="#565987" stroke-miterlimit="10"/><path id="svg--team--leafs_plant--big_leaf--middle_item-5" data-name="svg--team--leafs  plant--big  leaf--middle  item-5" d="M608.1,319.4s-8.1-.6-8.3,3.2" fill="none" stroke="#565987" stroke-miterlimit="10"/><path id="svg--team--leafs_plant--big_leaf--middle_item-6" data-name="svg--team--leafs  plant--big  leaf--middle  item-6" d="M587.8,270.4s-10.1,6.8-6.9,17" fill="none" stroke="#565987" stroke-miterlimit="10"/></g><g id="svg--team--leafs_plant--big_leaf--left" data-name="svg--team--leafs  plant--big  leaf--left"><path id="svg--team--leafs_plant--big_leaf--left_item" data-name="svg--team--leafs  plant--big  leaf--left  item" d="M602.9,383.8s-29.1-59.2-37.1-57.9c-3.8.6-5.5,4.4-6.3,8.1a23.75,23.75,0,0,0,1.6,14.4C565.2,357.9,576.3,375.9,602.9,383.8Z" fill="#304343"/><path id="svg--team--leafs_plant--big_leaf--left_item-2" data-name="svg--team--leafs  plant--big  leaf--left  item-2" d="M566,337.2s30.5,44.3,36.4,46.2" fill="none" stroke="#565987" stroke-miterlimit="10"/><line id="svg--team--leafs_plant--big_leaf--left_item-3" data-name="svg--team--leafs  plant--big  leaf--left  item-3" x1="563.2" y1="344.1" x2="570.3" y2="344.1" fill="none" stroke="#565987" stroke-miterlimit="10"/><line id="svg--team--leafs_plant--big_leaf--left_item-4" data-name="svg--team--leafs  plant--big  leaf--left  item-4" x1="571.7" y1="360.3" x2="582.9" y2="360.7" fill="none" stroke="#565987" stroke-miterlimit="10"/><line id="svg--team--leafs_plant--big_leaf--left_item-5" data-name="svg--team--leafs  plant--big  leaf--left  item-5" x1="578.5" y1="347.3" x2="577.3" y2="353.1" fill="none" stroke="#565987" stroke-miterlimit="10"/><line id="svg--team--leafs_plant--big_leaf--left_item-6" data-name="svg--team--leafs  plant--big  leaf--left  item-6" x1="590.4" y1="365" x2="590.2" y2="370.3" fill="none" stroke="#565987" stroke-miterlimit="10"/></g><g id="svg--team--leafs_plant--big_leaf--right" data-name="svg--team--leafs  plant--big  leaf--right"><path id="svg--team--leafs_plant--big_leaf--right_item" data-name="svg--team--leafs  plant--big  leaf--right  item" d="M602,383.8s29.1-59.2,37.1-57.9c3.8.6,5.5,4.4,6.3,8.1a23.75,23.75,0,0,1-1.6,14.4C639.7,357.9,628.6,375.9,602,383.8Z" fill="#304343"/><path id="svg--team--leafs_plant--big_leaf--right_item-2" data-name="svg--team--leafs  plant--big  leaf--right  item-2" d="M638.9,337.2s-30.5,44.3-36.4,46.2" fill="none" stroke="#565987" stroke-miterlimit="10"/><line id="svg--team--leafs_plant--big_leaf--right_item-3" data-name="svg--team--leafs  plant--big  leaf--right  item-3" x1="641.7" y1="344.1" x2="634.6" y2="344.1" fill="none" stroke="#565987" stroke-miterlimit="10"/><line id="svg--team--leafs_plant--big_leaf--right_item-4" data-name="svg--team--leafs  plant--big  leaf--right  item-4" x1="633.2" y1="360.3" x2="622" y2="360.7" fill="none" stroke="#565987" stroke-miterlimit="10"/><line id="svg--team--leafs_plant--big_leaf--right_item-5" data-name="svg--team--leafs  plant--big  leaf--right  item-5" x1="626.4" y1="347.3" x2="627.6" y2="353.1" fill="none" stroke="#565987" stroke-miterlimit="10"/><line id="svg--team--leafs_plant--big_leaf--right_item-6" data-name="svg--team--leafs  plant--big  leaf--right  item-6" x1="614.5" y1="365" x2="614.7" y2="370.3" fill="none" stroke="#565987" stroke-miterlimit="10"/></g></g><path id="svg--team--leafs_plant--small" data-name="svg--team--leafs  plant--small" d="M551.8,398.5a4.88,4.88,0,0,1-1.7-2.5,2.23,2.23,0,0,1,1.2-2.6c1.1-.4,2.2.3,3.1,1.1s1.8,1.6,3,1.4a4.51,4.51,0,0,1-1.4-4.2,1.88,1.88,0,0,1,.4-.9,2,2,0,0,1,2.4.1c2.2,1.6,2.9,4.6,2.9,7.4a16.05,16.05,0,0,0,0-3.1,3.19,3.19,0,0,1,1.1-2.7,3.36,3.36,0,0,1,1.7-.4,3.6,3.6,0,0,1,2.8.8,2.85,2.85,0,0,1-.1,3.5,11,11,0,0,1-2.9,2.3,6.8,6.8,0,0,0-2.1,2c-.1.1-.1.2-.2.4h-6.3A16.48,16.48,0,0,1,551.8,398.5Z" fill="#304343"/><path id="svg--team--leafs_plant--small-2" data-name="svg--team--leafs  plant--small-2" d="M662.9,373.8a4.88,4.88,0,0,1-1.7-2.5,2.07,2.07,0,0,1,1.2-2.5c1.1-.4,2.2.3,3.1,1.1s1.9,1.6,3,1.4a4.51,4.51,0,0,1-1.4-4.2,1.88,1.88,0,0,1,.4-.9,2,2,0,0,1,2.4.1c2.2,1.6,2.9,4.6,2.9,7.4a16.05,16.05,0,0,0,0-3.1,3.19,3.19,0,0,1,1.1-2.7,3.36,3.36,0,0,1,1.7-.4,3.25,3.25,0,0,1,2.8.8,2.85,2.85,0,0,1-.1,3.5,11,11,0,0,1-2.9,2.3,6.8,6.8,0,0,0-2.1,2c-.1.1-.1.2-.2.4h-6.3A26.82,26.82,0,0,1,662.9,373.8Z" fill="#304343"/><path id="svg--team--leafs_plant--small-3" data-name="svg--team--leafs  plant--small-3" d="M622.8,400.1a4.88,4.88,0,0,1-1.7-2.5,2.23,2.23,0,0,1,1.2-2.6c1.1-.4,2.2.3,3.1,1.1s1.8,1.6,3,1.4a4.51,4.51,0,0,1-1.4-4.2,3.64,3.64,0,0,1,.4-.9,2,2,0,0,1,2.4.1c2.2,1.6,2.9,4.6,2.9,7.4a16.05,16.05,0,0,0,0-3.1,3.19,3.19,0,0,1,1.1-2.7,3.36,3.36,0,0,1,1.7-.4,3.6,3.6,0,0,1,2.8.8,2.85,2.85,0,0,1-.1,3.5,11,11,0,0,1-2.9,2.3,6.8,6.8,0,0,0-2.1,2c-.1.1-.1.2-.2.4h-6.3A20.38,20.38,0,0,1,622.8,400.1Z" fill="#304343"/><g id="svg--team--leafs_plant--medium" data-name="svg--team--leafs  plant--medium"><g id="svg--team--leafs_plant--medium_leaf--two" data-name="svg--team--leafs  plant--medium  leaf--two"><path id="svg--team--leafs_plant--medium_leaf--two_item" data-name="svg--team--leafs  plant--medium  leaf--two  item" d="M521.2,349.5s-2.4,3.1,1.1,7.8,6.3,8.6,5.2,11.6c0,0-5.2-8.7-9.5-8.8S516.5,354.7,521.2,349.5Z" fill="#304343"/><path id="svg--team--leafs_plant--medium_leaf--two_item-2" data-name="svg--team--leafs  plant--medium  leaf--two  item-2" d="M521.2,349.5a3.13,3.13,0,0,0-.5,1c-4.2,4.9-6.4,9.4-2.4,9.6,3.7.1,8.2,6.8,9.3,8.4,0,.1-.1.3-.1.4s-5.2-8.7-9.5-8.8S516.5,354.7,521.2,349.5Z" opacity="0.1" style="isolation:isolate"/><path id="svg--team--leafs_plant--medium_leaf--two_item-3" data-name="svg--team--leafs  plant--medium  leaf--two  item-3" d="M516.8,353.4c0,1.1.1,2,.3,2s.3-.9.3-2-.2-.6-.3-.6S516.8,352.3,516.8,353.4Z" fill="#ffd037"/><path id="svg--team--leafs_plant--medium_leaf--two_item-4" data-name="svg--team--leafs  plant--medium  leaf--two  item-4" d="M515.3,354.7a4.6,4.6,0,0,0,1.9.7c.1-.1-.6-.7-1.6-1.2s-.6-.1-.7,0S514.3,354.2,515.3,354.7Z" fill="#ffd037"/></g><g id="svg--team--leafs_plant--medium_leaf--one" data-name="svg--team--leafs  plant--medium  leaf--one"><path id="svg--team--leafs_plant--medium_leaf--one_item" data-name="svg--team--leafs  plant--medium  leaf--one  item" d="M533.7,349.5s2.4,3.1-1.1,7.8-6.3,8.6-5.2,11.6c0,0,5.2-8.7,9.5-8.8S538.4,354.7,533.7,349.5Z" fill="#304343"/><path id="svg--team--leafs_plant--medium_leaf--one_item-2" data-name="svg--team--leafs  plant--medium  leaf--one  item-2" d="M533.7,349.5a3.13,3.13,0,0,1,.5,1c4.2,4.9,6.4,9.4,2.4,9.6-3.7.1-8.2,6.8-9.3,8.4,0,.1.1.3.1.4s5.2-8.7,9.5-8.8S538.4,354.7,533.7,349.5Z" opacity="0.1" style="isolation:isolate"/><path id="svg--team--leafs_plant--medium_leaf--one_item-3" data-name="svg--team--leafs  plant--medium  leaf--one  item-3" d="M538.1,353.4c0,1.1-.1,2-.3,2s-.3-.9-.3-2,.2-.6.3-.6S538.1,352.3,538.1,353.4Z" fill="#ffd037"/><path id="svg--team--leafs_plant--medium_leaf--one_item-4" data-name="svg--team--leafs  plant--medium  leaf--one  item-4" d="M539.7,354.7a4.6,4.6,0,0,1-1.9.7c-.1-.1.6-.7,1.6-1.2s.6-.1.7,0S540.6,354.2,539.7,354.7Z" fill="#ffd037"/></g><path id="svg--team--leafs_plant--medium_rock" data-name="svg--team--leafs  plant--medium  rock" d="M537.4,368.4s-6.6-.2-8.6-1.6-10.2-3.1-10.7-.8-10,11.4-2.5,11.4S533,376.2,535,375,537.4,368.4,537.4,368.4Z" fill="#a8a8a8"/><path id="svg--team--leafs_plant--medium_shadow" data-name="svg--team--leafs  plant--medium  shadow" d="M515.4,376.5c7.5.1,17.4-1.2,19.4-2.4,1.5-.9,2.1-4.2,2.3-5.8h.2s-.4,5.4-2.4,6.6-11.9,2.4-19.4,2.4c-2.2,0-2.9-.8-2.9-1.9C513,376.1,513.8,376.5,515.4,376.5Z" opacity="0.2" style="isolation:isolate"/></g></g><g id="svg--team--people"><path id="svg--team--people_item" data-name="svg--team--people  item" d="M345,266.6c-1,.1-2,0-3,.2a15.2,15.2,0,0,0-4.6,1.8c-7,4-13.6,9.4-16.4,16.9a2.66,2.66,0,0,0-.2,1.5,4.37,4.37,0,0,0,.8,1.1l2.7,2.5a2.53,2.53,0,0,0,1.2.8,3.32,3.32,0,0,0,2.2-.1c7.5-1.7,15.4-3.7,20.6-9.3,2.5-2.6,4.8-6.3,8.4-6.4a35.92,35.92,0,0,1,4.5.8c1.5.2,3.3-.5,3.7-1.9a5.63,5.63,0,0,0-.2-2.2l-2.3-7.5c-.6-2.1-6.8-2.2-8.9-1.8C350.4,263.6,348.3,266.2,345,266.6Z" fill="#65617d"/><path id="svg--team--people_item-2" data-name="svg--team--people  item-2" d="M371.5,308.8a66,66,0,0,1-.3,7.7,23.2,23.2,0,0,1-1.9,5.8,39.21,39.21,0,0,1-5.2,8.2c-1.9,2.3-4.3,4.5-7.1,5.4s-6.4.3-8.2-2.2c-1.5-2-1.5-4.6-1.4-7.1.3-6,1.2-12.2,3.9-17.6,1.2-2.3,2.6-4.5,3.8-6.8,2.5-4.8,3.9-10.5,8.2-13.9a28.21,28.21,0,0,0,8.5,2.3c1.1.1,4.4.2,4.8,1.7.3,1-1.9,3.8-2.3,4.7A32.78,32.78,0,0,0,371.5,308.8Z" fill="#65617d"/><path id="svg--team--people_item-3" data-name="svg--team--people  item-3" d="M341.1,198.3c.9,2.3,2.1,4.6,2.3,7.1a35.3,35.3,0,0,1,0,4.6,31.81,31.81,0,0,0,1,6.2l4.3,17.5a21.66,21.66,0,0,1,.9,8c-.2,1.8-.9,3.5-.9,5.3a25.75,25.75,0,0,0,.6,4,25.22,25.22,0,0,1-.6,12.2,1.4,1.4,0,0,0-.1.9c.1.5.6.8,1,1a43.06,43.06,0,0,0,14.8,4.9,144.13,144.13,0,0,0,9.7-34.8c1.1-7.2,1.6-14.6,3-21.7a1.63,1.63,0,0,1,.5-1.1,1.85,1.85,0,0,1,1.9.1,172.25,172.25,0,0,1,22.5,13,28.16,28.16,0,0,0,5.2-23.3,50.36,50.36,0,0,0-3.8-10,57.2,57.2,0,0,0-6.5-10.9c-5.7-7.1-14-11.7-22.6-14.8-5.2-1.9-10.6-3.3-16-4.7-3-.8-8-3.4-11-1.4s-5.1,7.4-6.4,10.7a38,38,0,0,0-2.5,12.9A45.34,45.34,0,0,0,341.1,198.3Z" fill="#3f3d56"/><path id="svg--team--people_item-4" data-name="svg--team--people  item-4" d="M402.7,219.4c-1.6,1.7-.3,4.5-.6,6.9a9.76,9.76,0,0,1-1.1,3l-7.3,14.4a29,29,0,0,0-2.7,6.9c-1,5.2,1.1,11-1.6,15.6-.9,1.5-2.2,2.8-2.5,4.4a22.88,22.88,0,0,0-.1,3.7,20.45,20.45,0,0,1-1.4,4.1,27.23,27.23,0,0,0-.7,4.1,23.72,23.72,0,0,1-8.6,14.9,13.54,13.54,0,0,1-9.5,3.2c-3.4-.3-6.8-2.6-7.5-6-.2-1.1-.2-2.4-.9-3.3-1-1.3-3.1-1.4-4.1-2.7l3.8-6.2a14.21,14.21,0,0,0,2.6-6.2c.2-2.8-1.1-5.5-.6-8.2.4-2.3,2.1-4.3,2.6-6.6.6-2.9-.6-5.8-1.3-8.6-1.7-7.1.2-14.4,2.1-21.5,2.5-9.3,5-18.8,10-27C383.1,209.7,392.3,214.9,402.7,219.4Z" fill="#3f3d56"/><path id="svg--team--people_item-5" data-name="svg--team--people  item-5" d="M402.8,73.4c.6,1.6.3,3.4.2,5.1-.3,3.8.5,7.7.4,11.5s-1.4,7.6-2.2,11.4c-2.4,10.8-1.8,22-3.9,32.8-2.6,13.4-9.3,25.9-10.7,39.5-.4,4.3-.4,9-2.7,12.6A193.77,193.77,0,0,1,344.3,163c2.7-20,5.4-40.1,5-60.3a26,26,0,0,1,.5-7.3,24.6,24.6,0,0,1,2.7-5.7c3-4.8,6.2-9.4,9.5-14.1,2.1-3,4.3-6.1,7.7-7.4s7.3-.8,10.9-.1l13.1,2.4C396.3,71.2,401.7,70.2,402.8,73.4Z" fill="#304343"/><path id="svg--team--people_item-6" data-name="svg--team--people  item-6" d="M297.9,150.1a37.55,37.55,0,0,0-5.8-4.8c2.7-3.3,2.2-8.1,2.9-12.3a37.33,37.33,0,0,1,2.5-8c.3-.7.7-1.5,1.4-1.7a2.32,2.32,0,0,1,1.4.2c2.3.8,7.1.8,8.9,2.3,2.2,1.8.2,5.6-.6,7.9C307.9,135,299,151.2,297.9,150.1Z" fill="#be6f72"/><path id="svg--team--people_item-7" data-name="svg--team--people  item-7" d="M304.6,293.2a15.5,15.5,0,0,1,2.2,6.1,6.07,6.07,0,0,1-2.5,5.7c-1.9,1.1-4.5.8-6.7.1a34.72,34.72,0,0,1-21.2-19.2,9.57,9.57,0,0,0-5.6-6.6c-3-1.7-5.9-3.9-7.3-7.1s-.8-7.4,2.1-9.3a7.91,7.91,0,0,1,6-.8,23.74,23.74,0,0,1,5.7,2.5c3,1.6,6.6,3,9.2,5.2a57,57,0,0,1,6.3,6.7c2.2,2.6,4.4,5.3,6.3,8C299.8,285.4,305.1,292.4,304.6,293.2Z" fill="#65617d"/><path id="svg--team--people_item-8" data-name="svg--team--people  item-8" d="M248.4,277.1a54.48,54.48,0,0,1-2,11.4c-.6,2.1-1.4,4.3-3.2,5.6a12.17,12.17,0,0,1-4.8,1.8,3.41,3.41,0,0,1-4.3-1.9c-2.6-3.4-5-7-6.1-11.1-1.5-6,0-12.3,2.7-17.9a18.84,18.84,0,0,1,4.1-6,16.45,16.45,0,0,1,7.5-3.4c2.8-.6,6.3-1.8,6.5,1.7A186.88,186.88,0,0,1,248.4,277.1Z" fill="#65617d"/><path id="svg--team--people_item-9" data-name="svg--team--people  item-9" d="M290.8,133.1c5.3,2.7,11.2,6.2,12.3,12.1.7,3.6-.6,7.2-.4,10.9.2,3.2,1.5,6.3,1.4,9.5a35.92,35.92,0,0,1-.8,4.5c-.5,2.8-.2,5.7-.3,8.6-.3,6.4-2.4,12.6-3.4,19a56.61,56.61,0,0,0-.5,13.7,88.34,88.34,0,0,1,.8,8.9,45.75,45.75,0,0,1-.5,6.4,64.5,64.5,0,0,1-6.1,19.1c-3.7,7.3-3.2,16.6-2.8,24.8a6.2,6.2,0,0,1-.4,3.3c-1,1.8-3.4,2-5.4,1.8a29.29,29.29,0,0,1-19.2-9.7,5.11,5.11,0,0,1-1.4-2.6c-.2-1.6,1.1-3,2.1-4.3,3.2-4.6,2.4-10.8,2.8-16.5a37.6,37.6,0,0,1,2.9-11.9,23.25,23.25,0,0,0,2.4-6.7,16.22,16.22,0,0,0-1.1-6.5l-2.3-7.3c-3.6-11.3-7.1-22.7-12.5-33.3a16.84,16.84,0,0,0-7.1,10c-2,7.2.9,15.3-1.9,22.2a18.91,18.91,0,0,0-1.1,3,12.24,12.24,0,0,0-.2,2.7,212.26,212.26,0,0,0,1.4,22.4,7.32,7.32,0,0,0,.9,3.2c.5.7,1.1,1.1,1.6,1.8,1.3,1.7,1.1,4.2.8,6.3l-1.5,10.3a2.37,2.37,0,0,1-.5,1.4,3.23,3.23,0,0,1-1.3.7,36.73,36.73,0,0,1-15.1,1.4,9.21,9.21,0,0,1-4.1-2c-.1-1.5,1.8-2.6,1.8-4.1a3.49,3.49,0,0,0-1.2-2.3c-2.9-3.2-6.3-6.6-6.2-10.9,0-1.1.3-2.3.2-3.4-.1-2.9-2.1-5.4-2.8-8.1-.9-3.4.3-7,.7-10.5.6-4.7-.1-9.5-.8-14.3l-2.6-17.3a43.61,43.61,0,0,0-1.6-8,64,64,0,0,0-3.4-7.5c-2.5-5-4.5-10.2-6.5-15.3a16.9,16.9,0,0,1-1.2-4.4,10.74,10.74,0,0,1,2.9-7.1,21.93,21.93,0,0,1,12.3-7.4,5.29,5.29,0,0,1,2.5-.1,6.92,6.92,0,0,1,1.9,1,45.75,45.75,0,0,0,40.5,4.8c.8.6,2.2.3,3.1-.1,2.5-1.1,4.5-3,6.6-4.6A32.14,32.14,0,0,1,290.8,133.1Z" fill="#3f3d56"/><path id="svg--team--people_item-10" data-name="svg--team--people  item-10" d="M132,329.8a9.13,9.13,0,0,0,1.8,3.2c2.8,3.6,6.6,6.5,8.4,10.7.4.9.7,1.9,1,2.8a17.35,17.35,0,0,0,5,7.2,29.43,29.43,0,0,0,5.5,3.6c3.4,1.8,7,3.5,10.9,3.4a8.91,8.91,0,0,0,2.3-.3,9.91,9.91,0,0,0,3.4-1.3c2.5-1.4,4.6-4,4.1-6.8a8.8,8.8,0,0,0-.5-1.5,17.41,17.41,0,0,0-1.4-2.2,17,17,0,0,0-4.5-4.8c-2.1-1.3-4.8-1.6-6.7-3.2a10.26,10.26,0,0,1-1.9-2.3,30.81,30.81,0,0,1-3.8-8.7c-.6-2.3-1-4.8-2.7-6.5s-4-2.1-6.2-2.5a8.88,8.88,0,0,0-2.3-.2c-1.1,0-2.2.4-3.3-.2s-1.4-1.2-2.6-1.1a4.73,4.73,0,0,0-2.7,1.2C132.8,322.6,130.9,326.4,132,329.8Z" fill="#3f3d56"/><path id="svg--team--people_item-11" data-name="svg--team--people  item-11" d="M159.2,333.3c.5,2.6,1.3,5.4,3.3,7.1,1.3,1.1,3.1,1.8,3.7,3.3s-.2,3.5-1.2,4.9a19.09,19.09,0,0,1-4.9,4.5,7.47,7.47,0,0,1-5.4,1.3,10,10,0,0,1-3.9-2.5c-2.6-2.4-5.3-5-6.8-8.2-1.5-3.4-1.6-7.4-3.3-10.8-1-2-2.5-3.7-3.1-5.8a3.31,3.31,0,0,1,0-2.4,3.37,3.37,0,0,1,3-1.8,9.12,9.12,0,0,1,3.6.8,97,97,0,0,0,10.6,3c1.4.3,2.3.3,3.1,1.6a22.72,22.72,0,0,1,1.3,5Z" fill="#fbbebe"/><path id="svg--team--people_item-12" data-name="svg--team--people  item-12" d="M140.6,297.1a4.42,4.42,0,0,0-.3,2.3c.4,1.5,1.9,2.4,3.3,3.1l13.5,6.6c.9.4,1.8.9,2.7,1.4a43.2,43.2,0,0,1,6.1,5.2,16.93,16.93,0,0,0,6.7,4.2,11.47,11.47,0,0,0,7.7-1,12.18,12.18,0,0,0,3.5-2.4,19.82,19.82,0,0,0,2.5-2.6,5.55,5.55,0,0,0,1.4-2.5,5.16,5.16,0,0,0-1.3-3.9c-.5-.7-1-1.3-1.5-1.9-5.1-5.6-13.5-8.6-20.7-9.7a60.06,60.06,0,0,1-8.3-2.4,18.92,18.92,0,0,0-8.5-1.1A8.18,8.18,0,0,0,140.6,297.1Z" fill="#3f3d56"/><path id="svg--team--people_item-13" data-name="svg--team--people  item-13" d="M140.6,297.1a4.42,4.42,0,0,0-.3,2.3c.4,1.5,1.9,2.4,3.3,3.1l13.5,6.6c.9.4,1.8.9,2.7,1.4a43.2,43.2,0,0,1,6.1,5.2,16.93,16.93,0,0,0,6.7,4.2,11.47,11.47,0,0,0,7.7-1,12.18,12.18,0,0,0,3.5-2.4,19.82,19.82,0,0,0,2.5-2.6,5.55,5.55,0,0,0,1.4-2.5,5.16,5.16,0,0,0-1.3-3.9c-.5-.7-1-1.3-1.5-1.9-5.1-5.6-13.5-8.6-20.7-9.7a60.06,60.06,0,0,1-8.3-2.4,18.92,18.92,0,0,0-8.5-1.1A8.18,8.18,0,0,0,140.6,297.1Z" opacity="0.1" style="isolation:isolate"/><path id="svg--team--people_item-14" data-name="svg--team--people  item-14" d="M174.4,301.3a16,16,0,0,1,2.5,3.9,3.3,3.3,0,0,1-.45,4.65c-.11.09-.23.17-.35.25l-1.3,1.2a4.49,4.49,0,0,1-1.4,1,4.42,4.42,0,0,1-2.3.3c-1.8,0-3.7,0-5.2-1.1-2-1.4-2.4-4.4-1.4-6.7a15.81,15.81,0,0,1,4.7-5.6C170.7,298.1,173.3,300.1,174.4,301.3Z" fill="#fbbebe"/><path id="svg--team--people_item-15" data-name="svg--team--people  item-15" d="M182.5,309.2a8.16,8.16,0,0,0,.3,3.8c.3,1.1.7,2.3,1,3.5h0a19.82,19.82,0,0,0,2.5-2.6,5.55,5.55,0,0,0,1.4-2.5,5.16,5.16,0,0,0-1.3-3.9c-.5-.7-1-1.3-1.5-1.9q-.6.75-.9,1.2A9.78,9.78,0,0,0,182.5,309.2Z" fill="#fbbebe"/><path id="svg--team--people_item-16" data-name="svg--team--people  item-16" d="M147.3,252.1c-1.6,6.7-.9,13.6-.1,20.4.6,5.2,1.4,10.5-.2,15.5-.6,1.9-1.5,3.8-1.1,5.7.7,3.6,5,5,8.6,5.7a8.41,8.41,0,0,0,3.2.2,7.25,7.25,0,0,0,2.9-1.5,32,32,0,0,0,11.2-14.9,53,53,0,0,0,2.2-12.5c.7-7.1,1.4-14.2.4-21.3-.3-2.1-.8-4.1-1-6.2a48.84,48.84,0,0,1,.6-10.8,169.1,169.1,0,0,1,6-26.2,35.35,35.35,0,0,1-21.2-3.8c1.3.7-.2,11.4-.3,12.9a96.81,96.81,0,0,1-2.4,13.3C154,236.9,149.3,244,147.3,252.1Z" fill="#3f3d56"/><path id="svg--team--people_item-17" data-name="svg--team--people  item-17" d="M147.3,252.1c-1.6,6.7-.9,13.6-.1,20.4.6,5.2,1.4,10.5-.2,15.5-.6,1.9-1.5,3.8-1.1,5.7.7,3.6,5,5,8.6,5.7a8.41,8.41,0,0,0,3.2.2,7.25,7.25,0,0,0,2.9-1.5,32,32,0,0,0,11.2-14.9,53,53,0,0,0,2.2-12.5c.7-7.1,1.4-14.2.4-21.3-.3-2.1-.8-4.1-1-6.2a48.84,48.84,0,0,1,.6-10.8,169.1,169.1,0,0,1,6-26.2,35.35,35.35,0,0,1-21.2-3.8c1.3.7-.2,11.4-.3,12.9a96.81,96.81,0,0,1-2.4,13.3C154,236.9,149.3,244,147.3,252.1Z" opacity="0.1" style="isolation:isolate"/><path id="svg--team--people_item-18" data-name="svg--team--people  item-18" d="M187.1,213c3.1,8.9,2.4,18.6,1.1,27.9s-3.3,18.6-2.7,28c.2,3.7.8,7.5-.3,11a22.27,22.27,0,0,1-2.4,4.9L158.4,327a7.59,7.59,0,0,1-6.1,3.8,18.26,18.26,0,0,1-7.6-1.6,12.75,12.75,0,0,1-4.4-2.5,5.52,5.52,0,0,1-1.9-4.5c1.1-7.3,2.7-14.9,4-22.2a37.67,37.67,0,0,1,5.3-14.1c1.9-3.1,4.2-5.8,5.9-9,4.7-9.1,3.1-20.3-.6-29.9s-9-18.5-11.9-28.4a30.34,30.34,0,0,1-1.4-8.4,22.28,22.28,0,0,1,6.4-16,5.38,5.38,0,0,1,2.2-1.5,6.1,6.1,0,0,1,3,.1C164.9,195.5,182.6,199.9,187.1,213Z" fill="#3f3d56"/><path id="svg--team--people_item-19" data-name="svg--team--people  item-19" d="M406.9,80.4a15.9,15.9,0,0,1-2.5,9.7c-6.5,10.9-21.6,15.7-33.2,10.6-4.8-2.1-8.8-5.5-12.8-8.9a11,11,0,0,1-3.4-4c-1.2-2.9.2-6.3,2.6-8.4s5.4-3.1,8.4-4C375.9,72.4,404.5,62.6,406.9,80.4Z" fill="#fbbebe"/><path id="svg--team--people_item-20" data-name="svg--team--people  item-20" d="M401.1,69.8c9,7.3,22.2,14.2,32.5,19.6,3.5,1.8,7.4,3.9,8.6,7.7a14.88,14.88,0,0,1,.2,6.3,44.33,44.33,0,0,1-2.4,12c-1.8,4.4-5.1,8.1-7.7,12.1-4.6,7-7.3,15.3-13,21.5,3.8,12.7,8,25.4,9.4,38.7a2.06,2.06,0,0,1-.1,1.1,2.62,2.62,0,0,1-.6.5l-9.5,6.3a12.15,12.15,0,0,0-2.8,2.3c-1.7,2.2-1.5,5.3-2.5,7.8a10.41,10.41,0,0,1-5.9,5.4,18.72,18.72,0,0,1-8.1.9,18.91,18.91,0,0,1-9.7-3.4,26.21,26.21,0,0,1-5.8-7,27.34,27.34,0,0,1-3.1-5.6,24.37,24.37,0,0,1-1-8.9,97,97,0,0,1,1.6-17c.4-2.2,1-4.4,1.3-6.7.7-4.5.6-9.1,1.1-13.7a97.28,97.28,0,0,1,3.4-15.1,68.74,68.74,0,0,0,2-9.3,88.85,88.85,0,0,1,4.5-16.1l3.1-9.1c.7-2,1.3-3.9,2.1-5.8,1.4-3.6,3.3-7,3.8-10.8.5-4.1-3.9-9.1-2.4-13C400.1,70.1,400.8,69.5,401.1,69.8Z" fill="#3f3d56"/><path id="svg--team--people_item-21" data-name="svg--team--people  item-21" d="M439.7,94.9c2.1,1,3.3,3.2,4.1,5.4a31.37,31.37,0,0,1,1.2,15.5,25.75,25.75,0,0,0-.6,4,24.44,24.44,0,0,0,.5,4.6c.8,5.9,0,11.8.3,17.7.3,6.7,1.7,13.7-1.1,19.7-1.9,4-5.4,7-8.8,9.7A173.14,173.14,0,0,1,393,195.9c2.6-3.1,2.7-7.9.9-11.6a21.78,21.78,0,0,0-8.4-8.6,56.64,56.64,0,0,0,12.7-4.5c8-4.1,14.9-10,21.7-16a6.62,6.62,0,0,0,2.3-2.9c.7-2.3-1.2-4.5-2.5-6.5-4-6.1-3.1-14.1-1.4-21.2,1.9-7.8,4.6-15.5,9.6-21.8A20.72,20.72,0,0,1,439.7,94.9Z" fill="#3f3d56"/><path id="svg--team--people_item-22" data-name="svg--team--people  item-22" d="M392.2,196.2a12,12,0,0,1-2.6,2.9c-2.3,1.5-5.5,1-8-.1a23,23,0,0,1-6.5-4.1,8.74,8.74,0,0,0-2.9-2.1c-2-.8-4.8-.2-5.9-2a1.42,1.42,0,0,1-.2-.7c.1-.7.9-.9,1.6-.9a20.09,20.09,0,0,0,8.9-2.7,7.91,7.91,0,0,1-2.2-2.3,2.16,2.16,0,0,1-.4-1.1,1.88,1.88,0,0,1,.7-1.1,17,17,0,0,1,18.8-3.1A3.24,3.24,0,0,1,395,180a4.77,4.77,0,0,1,.6,1.5c.5,2.1,2.3,5.4,1.6,7.5C396.4,191.4,393.7,194.1,392.2,196.2Z" fill="#fbbebe"/><path id="svg--team--people_item-23" data-name="svg--team--people  item-23" d="M340,186.5c9.5-11,13.8-25.5,17.7-39.5l2.8-10,6.8-24c1-3.5,2-7.1,2.7-10.7a99.68,99.68,0,0,0,1.2-18.9,20.15,20.15,0,0,0-1.8-7.6,49.71,49.71,0,0,1-1.5-5.1,22.71,22.71,0,0,0-3.1-6.7,7.38,7.38,0,0,0-1.4-1.7,8.57,8.57,0,0,0-3.1-1.3,27.6,27.6,0,0,0-7.5-1.1,9.24,9.24,0,0,0-6.8,2.9c-1.2,1.5-1.8,3.4-2.8,5.1A11.18,11.18,0,0,0,342,70a10.49,10.49,0,0,0-.7,3.5c-.4,4.8-.7,9.7-1,14.5-.1,2.2-.2,4.4-.2,6.6.1,1.7.3,3.4.4,5.1l1.8,16.7c.4,3.9.1,7.6.5,11.5.9,9.5-1.2,19-3.3,28.4-1,4.4-2,8.9-4.2,13-1.9,3.6-4.7,7.2-4,11.1a30.61,30.61,0,0,1,1.1,4.1,5.74,5.74,0,0,0,.3,2.6,3,3,0,0,0,3.3,1.5A7.81,7.81,0,0,0,340,186.5Z" fill="#3f3d56"/><path id="svg--team--people_item-24" data-name="svg--team--people  item-24" d="M341.1,142.4c.3,2.2.1,4.4.2,6.6a46.09,46.09,0,0,0,1.5,8.4c.8,3.1,1.7,6.5,4.5,8.2.7.4,1.3.8,1.9,1.2a1.86,1.86,0,0,1,.6,2.1l-2.1-.4a2.14,2.14,0,0,1-2.6,3.4l-.3-.3a5,5,0,0,1-.2,2.1,1.72,1.72,0,0,1-1.5,1.2,2.14,2.14,0,0,1-1.1-.5l-5.5-3.4a11.21,11.21,0,0,1-4-3.8l-2.4-3.6a7.23,7.23,0,0,1-1.2-2.3c-.9-3.1,1.6-6.5.3-9.4a14.63,14.63,0,0,0-1.4-2c-2.8-3.8-2.6-9-2.3-13.8.1-1.6.4-3.5,1.8-4.2a3.88,3.88,0,0,1,3.6.6,15.61,15.61,0,0,0,3.2,2c.8.3,1.6.3,2.4.6,1.1.4,2.1,1.8,2.8,2.7A9.09,9.09,0,0,1,341.1,142.4Z" fill="#fbbebe"/><path id="svg--team--people_item-25" data-name="svg--team--people  item-25" d="M274,73.6a14.1,14.1,0,0,1-2.7,4,5,5,0,0,1-4.4,1.5c-1.7-.3-3-1.7-4.1-3.1-2.9-3.5-5.9-7-7.9-11.1-3-6.2-3.5-13.3-3.9-20.2-.1-1.8-.2-3.7.7-5.2,1.1-2,3.4-2.9,5.5-3.7l11.7-4.4a4.55,4.55,0,0,1,2.3-.4c1.8.3,2.5,2.5,3,4.3a27.24,27.24,0,0,0,4.4,8.9c2.6,3.5,8.5,8.2,5.1,12.6C279.5,62,276.9,67.7,274,73.6Z" fill="#be6f72"/><path id="svg--team--people_item-26" data-name="svg--team--people  item-26" d="M288.9,53.6c5.1,4.8,6.9,12.3,6.6,19.3s-2.2,13.8-3.3,20.8-1.3,14.3,1.7,20.7c1,2.2,2.4,4.2,3.2,6.5a20.64,20.64,0,0,1,.6,7,19.71,19.71,0,0,1-1.4,7.2c-1.6,3.6-5,6.1-8.2,8.4-6.6,4.7-13.2,9.5-20.9,12A63.46,63.46,0,0,1,251,158a51.51,51.51,0,0,1-11.1-.3,30.33,30.33,0,0,1-16.8-8.9,9.57,9.57,0,0,1-1.9-2.6,10.91,10.91,0,0,1-.7-4c-.2-5-.2-10.1.1-15.1a61.33,61.33,0,0,1,2-14.2c1.5-5.4,4-10.4,5.9-15.6,6.7-18.2,6-38.8,15.3-55.8,2-3.7,5.4-7.5,9.5-6.9a3,3,0,0,1,2.1,1,4.9,4.9,0,0,1,.8,2.4c1,8.2,2.4,16.7,6.3,24.1,1.5,2.9,3.8,7.4,7.4,8.1s5.6-2.6,7.5-5A60.46,60.46,0,0,1,288.9,53.6Z" fill="#e3e8f4"/><path id="svg--team--people_item-27" data-name="svg--team--people  item-27" d="M313.4,41.2a18,18,0,0,1,2.9,2c2.3,2.2,3.1,5.5,3.1,8.7a74.1,74.1,0,0,1-1.2,9.4c-1.2,8.4-.2,17.1.3,25.6a13.76,13.76,0,0,1-.2,4.1c-.4,1.3-1.1,2.4-1.6,3.7-1.5,3.7-.4,7.9-1.2,11.8-.9,4.1-4.1,7.9-3.5,12.1.2,1.6,1,3.1,1.4,4.8a4.14,4.14,0,0,1-1.4,4.5c-1.4.9-3.4.2-5.1.7a18.82,18.82,0,0,0-2,.9,9.45,9.45,0,0,1-8.2-.5,24,24,0,0,1-6.6-5.3c-2.9-3-5.7-6.3-7-10.2-1.9-5.8-.2-12,1.8-17.8s4.5-11.5,4.1-17.6c-.2-3.4-1.3-6.7-1.9-10a65.63,65.63,0,0,1-.9-14c.1-3.4.3-7,1.8-10.1a13.9,13.9,0,0,1,11-7.5C304.3,35.9,308.9,38.6,313.4,41.2Z" fill="#3f3d56"/><path id="svg--team--people_item-28" data-name="svg--team--people  item-28" d="M298.9,115.3a24.53,24.53,0,0,0,1.3,7.2c1.4-3.1,1.5-6.6,1.7-10,.8-11.7,3.4-22.8,6.1-34.1-2,1.5-3.2,5.4-4.1,7.7A67.72,67.72,0,0,0,298.9,115.3Z" opacity="0.1" style="isolation:isolate"/><path id="svg--team--people_item-29" data-name="svg--team--people  item-29" d="M247.3,33.6c-3.7,1-6.9,3.2-10.5,4.6a85.84,85.84,0,0,1-11.6,3.1c-9,2.2-18.1,6.3-23.5,13.8-4,5.5-5.7,12.4-8.4,18.7-2.3,5.3-5.4,10.2-7.1,15.7-2.2,7.1-2,14.8-1.4,22.3.4,6.1,1.1,12.3,3.9,17.8,1.5,2.9,3.5,5.4,4.9,8.3,1.7,3.4,2.7,7.2,4.1,10.7s3.6,7.1,7,8.9l5.6-3.3c8.3-4.9,16.7-9.8,24.8-15.1,7-4.6,14.2-9.9,17.9-17.4,3.3-6.7,3.7-14.5,2.8-21.9s-2.8-14.7-3.8-22a87.69,87.69,0,0,1,.6-28c.8-4.2,2.8-8.5,3.2-12.6C256.2,32.6,250.5,32.8,247.3,33.6Z" fill="#3f3d56"/><path id="svg--team--people_item-30" data-name="svg--team--people  item-30" d="M212.7,155.5c4.3,4.1,10.4,5.2,15.8,7.7a33.62,33.62,0,0,1,10.6,7.7c1.6,1.8,3.2,4.3,2.4,6.6-.7,2-2.8,3-4.8,3.7-2.4.9-5.2,1.7-7.6.8a25.22,25.22,0,0,1-3.9-2.4c-3.2-1.9-7.3-1.9-10.6-3.7-4.6-2.5-7-7.9-11.3-10.9-2.4-1.6-5.7-2.9-5.9-5.8a7.73,7.73,0,0,1,.6-3c.9-2.3,2.4-10.4,5.7-10.2C207.4,146.1,210,153.5,212.7,155.5Z" fill="#fbbebe"/><path id="svg--team--people_item-31" data-name="svg--team--people  item-31" d="M190.2,119.5c1.4,5,4.7,9.3,8,13.3,2.4,2.9,5.1,6,5.2,9.8.1,3.6-2.3,6.8-5.4,8.6a22.8,22.8,0,0,1-10.2,2.6,24.33,24.33,0,0,1-8.5-.6c-7-1.9-11.9-8-17.4-12.7-3.3-2.8-7-5.2-9.5-8.7s-3.6-8.5-1.1-12.1a18.19,18.19,0,0,1,3.1-3.1A49.75,49.75,0,0,0,165,103.9c1.1-1.9,2.2-4,4.1-5.2,2.7-1.7,6.2-.9,9.3-.1,3.4.9,12.8,2.6,13.5,6.9.3,1.8-1.9,4.5-2.2,6.4a21.37,21.37,0,0,0,.5,7.6Z" fill="#fbbebe"/><path id="svg--team--people_item-32" data-name="svg--team--people  item-32" d="M207.6,129.2a37,37,0,0,1,2.5,5.7c2.3,8.1-1.8,16.5-3.8,24.7-2.5,10.5-1.5,21.5-1.6,32.4-.1,5-.6,10.4-4.1,13.8a13.05,13.05,0,0,0-2.6,2.7,12.44,12.44,0,0,0-.9,2.5,13.21,13.21,0,0,1-16.2,9,14.41,14.41,0,0,1-2.8-1.2c-2.9-1.6-5.4-4.4-8.8-4.5l-3.1.3c-3.3.3-6.6-.9-9.7-2.1a5.68,5.68,0,0,1-2-1.1,12.78,12.78,0,0,1-1.4-1.8c-1.9-2-5.1-1.7-7.9-2.3a10.85,10.85,0,0,1-8.3-8.3c-.6-2.6-.1-5.4.4-8l2.1-11.8a94.55,94.55,0,0,0,1.8-13.2,53.33,53.33,0,0,0-1.3-14.9c-.9-4-2.3-7.9-2.7-11.9a28.82,28.82,0,0,1,5.4-20.5c1.1-1.5,2.5-2.9,4.3-3.1A6.77,6.77,0,0,1,151,117c11.1,6.5,22.2,12.9,33.4,19.2a37.48,37.48,0,0,0,9.6,4.3c1,.3,2.5.2,2.6-.9a2,2,0,0,0-.3-1.1c-1.9-3.7-4.7-6.9-6.9-10.4s-3.9-7.7-3.3-11.7c.9-5.6,6.1-9.4,10.4-4.9C201.2,116.5,204.4,123,207.6,129.2Z" fill="#f86d70"/><path id="svg--team--people_item-33" data-name="svg--team--people  item-33" d="M173.3,200.7c9,.6,18.2,1.2,26.5,4.6,2.7,1.1,5.5,2.5,8.3,1.8a9.61,9.61,0,0,0,3.8-2.1,77.59,77.59,0,0,0,9.8-8.4c-.3-1.7-2.6-1.9-4.3-1.9a26.07,26.07,0,0,1-11.9-2.9,26.92,26.92,0,0,0-3.8-1.8c-3.6-1-7.3.9-11,1.8-5.4,1.4-11.1.6-16.6-.2l-14.9-2.2c-1.4-.2-3-.4-4.1.5a5.11,5.11,0,0,0-1.4,2.6c-1.8,6.1-1,6.6,5.1,7Z" fill="#fbbebe"/><circle id="svg--team--people_item-34" data-name="svg--team--people  item-34" cx="376.9" cy="69.8" r="24.5" opacity="0.1" style="isolation:isolate"/><circle id="svg--team--people_item-35" data-name="svg--team--people  item-35" cx="376.7" cy="68.7" r="24.5" fill="#fbbebe"/><path id="svg--team--people_item-36" data-name="svg--team--people  item-36" d="M397.4,37.6c2,1.2,4,2.5,5.1,4.6a21.34,21.34,0,0,1,1.3,4.3c1.3,4.6,4.9,8.6,5.1,13.4.2,5.2-3.7,9.8-8.2,12.6a5.49,5.49,0,0,1-3.5,1.2c-1.3-.1-2.4-.9-3.6-1.4-5-2.2-10.7.6-16,1.9a28.84,28.84,0,0,1-16.7-1,17,17,0,0,1-7.5-5.2c-1.8-2.5-2.4-6-.9-8.7.8-1.4,2-2.6,2-4.2-.22-.91-.49-1.81-.8-2.7a6,6,0,0,1,1.3-4.1,57.4,57.4,0,0,1,13.3-15,9.17,9.17,0,0,1,5.3-2.6c4-.2,7.5,2.8,11.6,2.8C390,33.5,393.4,35.1,397.4,37.6Z" fill="#3f3d56"/><circle id="svg--team--people_item-37" data-name="svg--team--people  item-37" cx="286.4" cy="38.2" r="25.3" opacity="0.1" style="isolation:isolate"/><circle id="svg--team--people_item-38" data-name="svg--team--people  item-38" cx="286.9" cy="37.6" r="25.3" fill="#be6f72"/><path id="svg--team--people_item-39" data-name="svg--team--people  item-39" d="M300.4,51.9c3.6,2,8,1.8,12,.9a14.76,14.76,0,0,0,6.3-2.7,7.66,7.66,0,0,0,3.2-5.8c0-2.6-1.7-4.9-1.9-7.4-.3-3.2,1.9-6.2,2.1-9.5s-1.4-6.2-2.9-9c-2.7-4.8-5.5-9.6-9.6-13.3s-9.8-6-15.1-4.8c-2.6.6-5.1,2-7.8,2.3-2.4.2-4.8-.5-7.1-.8s-5.1-.1-6.8,1.5c-.9.9-1.5,2.2-2.6,2.9-.7.3-1.5.6-2.3.9-2.8,1.1-4,4.2-5,7L256.1,33c2.2,1.5,4.9,2.2,7.3,3.4s4.7,3.1,5.2,5.7c.4,2-.3,4.3.8,6,1.1,1.5,3.2,1.8,5.1,1.5s3.7-.9,5.5-.6c4.6.7,6.3,3.5,10.6,0S296.4,49.7,300.4,51.9Z" fill="#3f3d56"/><circle id="svg--team--people_item-40" data-name="svg--team--people  item-40" cx="179.4" cy="94.6" r="23" opacity="0.1" style="isolation:isolate"/><circle id="svg--team--people_item-41" data-name="svg--team--people  item-41" cx="180.3" cy="93.4" r="23" fill="#fbbebe"/><path id="svg--team--people_item-42" data-name="svg--team--people  item-42" d="M197.9,70.9a62.17,62.17,0,0,0-18.2-9.6c-4.2-1.4-8.8-2.3-13-1-5.8,1.6-13.5,4.1-17.1,8.9a25.75,25.75,0,0,0-4.4,7.7c-1.7,5.7.7,11.8.6,17.8-.2,6.9-3.9,13.3-7.9,19s-4.8,13.8-7.2,20.3c-.8,2.2-1.1,5.4,1,6.5,1.8,1,4.1-.3,5.8-1.5l10.2-7.4a7,7,0,0,1,2.7-1.4c2.1-.5,4.2.8,5.9,2.1l21.5,15.2a6.47,6.47,0,0,0,.1-5.6c2,.6,3.5,2.3,5.2,3.5s4.5,1.6,5.7-.1.3-3.9-1.1-5.3-3.3-2.2-4.7-3.5c-2.8-2.8-3.1-7.1-4.8-10.6-1.3-2.5-3.3-4.5-4.2-7.1-1.4-4.3.4-8.9,2.3-13,2.2-4.9,4.7-10.1,9.4-12.6a44.75,44.75,0,0,1,5-2.1c4-1.9,9.1-6.5,11.1-10.6C203.5,76.7,200.8,73.2,197.9,70.9Z" fill="#3f3d56"/><path id="svg--team--people_item-43" data-name="svg--team--people  item-43" d="M163.1,146.9c2.2,1.4,4.7,2.3,6.8,3.8s4.1,3.7,4.1,6.3-1.5,4.7-3.1,6.7l-18.7,24.5,9.5,2.5c-1.5,2.1-1.9,4.8-2.7,7.3s-2.3,5.1-4.8,5.7c-2.3.6-4.7-.6-7.1-.5-1.8.1-3.4.9-5.2,1-2.3.1-4.4-1.1-6.2-2.4-4.2-2.8-8.4-6.8-8.3-11.9a17.09,17.09,0,0,1,1-5c2.8-9,5.6-18.2,11.3-25.6a76,76,0,0,1,10.6-10.7,8.32,8.32,0,0,1,3-2c2.5-.9,5.1.2,7.7.9s5.7.8,7.2-1.3" opacity="0.1" style="isolation:isolate"/><path id="svg--team--people_item-44" data-name="svg--team--people  item-44" d="M162.3,145.4c2.2,1.4,4.7,2.3,6.8,3.8s4.1,3.7,4.1,6.3-1.5,4.7-3.1,6.7l-18.7,24.5,9.5,2.5c-1.5,2.1-1.9,4.8-2.7,7.3s-2.3,5.1-4.8,5.7c-2.3.6-4.7-.6-7.1-.5-1.8.1-3.4.9-5.2,1-2.3.1-4.4-1.1-6.2-2.4-4.2-2.8-8.4-6.8-8.3-11.9a17.09,17.09,0,0,1,1-5c2.8-9,5.6-18.2,11.3-25.6a76,76,0,0,1,10.6-10.7,9.91,9.91,0,0,1,3-2c2.5-.9,5.1.2,7.7,1s5.7.8,7.2-1.3" fill="#f86d70"/><g id="svg--team--people_group" data-name="svg--team--people  group" opacity="0.1"><path id="svg--team--people_group_Item" data-name="svg--team--people  group  Item" d="M354.31,62.76a16,16,0,0,0,7.5,5.2,28.84,28.84,0,0,0,16.7,1c5.4-1.3,11-4.1,16-1.9,1.2.5,2.3,1.3,3.6,1.4a5.49,5.49,0,0,0,3.5-1.2,17.69,17.69,0,0,0,7.3-8v.5c.2,5.2-3.7,9.8-8.2,12.6a5.49,5.49,0,0,1-3.5,1.2c-1.3-.1-2.4-.9-3.6-1.4-5-2.2-10.7.6-16,1.9a28.84,28.84,0,0,1-16.7-1,17,17,0,0,1-7.5-5.2c-1.8-2.5-2.4-6-.9-8.7l.2-.2A8.67,8.67,0,0,0,354.31,62.76Z"/><path id="svg--team--people_group_Item-2" data-name="svg--team--people  group  Item-2" d="M355.31,50a6.07,6.07,0,0,1-1.3,3.2c-.1-.3-.2-.5-.3-.8a6,6,0,0,1,1.2-3.9,8.74,8.74,0,0,1,.4,1.5Z"/></g><path id="svg--team--people_item-45" data-name="svg--team--people  item-45" d="M264.5,11.6l-6.6,18.8c2.2,1.5,4.9,2.2,7.3,3.4s4.7,3.1,5.2,5.7c.4,2-.3,4.3.8,6,1.1,1.5,3.2,1.8,5.1,1.5s3.7-.9,5.5-.6c4.6.7,6.3,3.5,10.6,0s5.8.7,9.7,2.9c3.6,2,8,1.8,12,.9a16,16,0,0,0,6.3-2.6c.3-.2.5-.5.8-.7a8.18,8.18,0,0,1-2.6,3.2,17.66,17.66,0,0,1-6.3,2.7c-4,.9-8.4,1.1-12-.9-4-2.2-5.6-6.3-9.7-2.9s-6,.7-10.6,0c-1.8-.3-3.7.4-5.5.6s-4,0-5.1-1.5c-1.2-1.7-.5-4-.8-6-.5-2.6-2.8-4.5-5.2-5.7s-5.1-1.9-7.3-3.4l6.6-18.9c.8-2.1,1.6-4.3,3.1-5.8C265.4,9.4,264.9,10.5,264.5,11.6Z" opacity="0.1" style="isolation:isolate"/><g id="svg--team--people_group-2" data-name="svg--team--people  group-2" opacity="0.1"><path id="svg--team--people_group_Item-3" data-name="svg--team--people  group  Item-3" d="M179.56,142.61c1.7.8,3.8.9,4.9-.6s.3-3.9-1.1-5.3-3.3-2.2-4.7-3.5c-2.8-2.8-3.1-7.1-4.8-10.6-1.3-2.5-3.3-4.5-4.2-7.1-1.4-4.3.4-8.9,2.3-13,2.2-4.9,4.7-10.1,9.4-12.6a44.75,44.75,0,0,1,5-2.1c4-1.9,9.1-6.5,11.1-10.6,1.6-3.5-.7-6.8-3.5-9.1,1.4.9,2.7,1.8,4,2.8,3,2.3,5.6,5.8,3.8,9.4-2,4.1-7,8.7-11.1,10.6-1.6.8-3.4,1.3-5,2.1-4.7,2.5-7.2,7.7-9.4,12.6-1.9,4.1-3.8,8.7-2.3,13,.9,2.6,2.9,4.7,4.2,7.1,1.8,3.5,2,7.9,4.8,10.6,1.4,1.4,3.3,2.2,4.7,3.5s2.3,3.7,1.1,5.3-4,1.2-5.7.1C181.86,144.51,180.76,143.41,179.56,142.61Z"/><path id="svg--team--people_group_Item-4" data-name="svg--team--people  group  Item-4" d="M133.06,135.81l10.2-7.4A7,7,0,0,1,146,127c2.1-.5,4.2.8,5.9,2.1l21.5,15.2a6.47,6.47,0,0,0,.1-5.6c2,.6,3.4,2.3,5.1,3.4a6,6,0,0,0-.8-.3,6.47,6.47,0,0,1-.1,5.6l-21.4-15.2c-1.8-1.2-3.8-2.6-5.9-2.1a8.58,8.58,0,0,0-2.7,1.4L137.5,139c-1.7,1.2-3.9,2.5-5.8,1.5a3.52,3.52,0,0,1-1.6-3,11.28,11.28,0,0,0,3-1.7Z"/></g><path id="svg--team--people_item-46" data-name="svg--team--people  item-46" d="M388.7,185.9s-43.9,3.5-52.6-2.7l40.2-6.2Z" fill="#e3e8f4"/><path id="svg--team--people_item-47" data-name="svg--team--people  item-47" d="M388.7,185.9s-43.9,3.5-52.6-2.7l40.2-6.2Z" opacity="0.1" style="isolation:isolate"/><path id="svg--team--people_item-48" data-name="svg--team--people  item-48" d="M388.7,185.9l-12.3-7.8s-36.7,10.5-46.7,6.2l10.2-14.4,36.4,7.1Z" fill="#e3e8f4"/><path id="svg--team--people_item-49" data-name="svg--team--people  item-49" d="M334.1,82.7a20.14,20.14,0,0,0-3.2,5.7c-.4,1.1-.5,2.2-.8,3.3a24.65,24.65,0,0,1-3.8,7.6c-3.8,5.5-8.5,10.8-9.4,17.4a29.38,29.38,0,0,0,.7,9.8,27.36,27.36,0,0,0,1.8,6.2c1,2.1,2.4,3.9,3.5,6a47.48,47.48,0,0,1,2.6,6.2,28.51,28.51,0,0,0,3.1-4.6c1-1.5,2.6-2.9,4.5-2.9,2.1,0,3.9,1.8,6,2a1.71,1.71,0,0,0,1-.1c.8-.4.8-1.4.8-2.2-.6-5.8-3.9-11.5-2.4-17.1,1.4-5.2,6.6-8.4,9.3-13.1,2-3.4,2.5-7.4,3.1-11.2a65.69,65.69,0,0,0,1-14c-.1-2.4-2-17.2-5.4-15.7-1.2.5-2.2,2.8-3,3.8l-3.1,4.3Z" fill="#3f3d56"/><path id="svg--team--people_item-50" data-name="svg--team--people  item-50" d="M242.4,178.6l-24.7,20.1L186,193l21.4-16.8Z" fill="#e3e8f4"/><path id="svg--team--people_item-51" data-name="svg--team--people  item-51" d="M243.3,177.3l-24.7,20.1-31.7-5.7,21.4-16.8Z" opacity="0.1" style="isolation:isolate"/><path id="svg--team--people_item-52" data-name="svg--team--people  item-52" d="M243.1,176.3l-24.7,20.1-31.7-5.7,21.4-16.8Z" fill="#e3e8f4"/><path id="svg--team--people_item-53" data-name="svg--team--people  item-53" d="M243.8,173.9,219.2,194l-31.7-5.7,21.4-16.8Z" opacity="0.1" style="isolation:isolate"/><path id="svg--team--people_item-54" data-name="svg--team--people  item-54" d="M243.6,172.9l-24.6,20-31.7-5.7,21.4-16.8Z" fill="#e3e8f4"/><path id="svg--team--people_item-55" data-name="svg--team--people  item-55" d="M168.1,355.3a7.48,7.48,0,0,0-1.2,2.9,6.46,6.46,0,0,0-.1,2.4,9.91,9.91,0,0,0,3.4-1.3c2.5-1.4,4.6-4,4.1-6.8a8.8,8.8,0,0,0-.5-1.5,2.13,2.13,0,0,0-2,.6,16.24,16.24,0,0,0-3.7,3.7Z" fill="#fbbebe"/></g><g id="svg--team--phone"><path id="svg--team--phone_item" data-name="svg--team--phone  item" d="M567.9,447.1h0a4,4,0,0,1,5.3,1.8,5.74,5.74,0,0,1,.4,1.4l1.4,17.8-8.1,1.5-4.3-12.9Z" fill="#3f3d56"/><path id="svg--team--phone_item-2" data-name="svg--team--phone  item-2" d="M283.2,327.9,158.6,391.1a8.7,8.7,0,0,0,0,15.5L426.8,541.2a32.25,32.25,0,0,0,30.6-.8l113-63.7a8.59,8.59,0,0,0,3.26-11.7l-.06-.1a9.51,9.51,0,0,0-3.7-3.5L290.8,327.8a8.47,8.47,0,0,0-7.6.1Z" fill="#3f3d56"/><path id="svg--team--phone_item-3" data-name="svg--team--phone  item-3" d="M157.8,380.1l-3.9,2.9-.3,13.9a5.93,5.93,0,0,0,3.1,5.3l272.8,140a4.21,4.21,0,0,0,5.5-1.7,4.08,4.08,0,0,0,.5-1.9V518.5Z" fill="#3f3d56"/><path id="svg--team--phone_item-4" data-name="svg--team--phone  item-4" d="M283.2,311.8,158.6,375a8.68,8.68,0,0,0-3.83,11.65l0,.05a8.23,8.23,0,0,0,3.8,3.8L426.9,525.1a32.52,32.52,0,0,0,30.6-.8l113-63.7a8.59,8.59,0,0,0,3.26-11.7l-.06-.1a9.51,9.51,0,0,0-3.7-3.5L290.8,311.7A8.8,8.8,0,0,0,283.2,311.8Z" fill="#e3e8f4"/><path id="svg--team--phone_item-5" data-name="svg--team--phone  item-5" d="M309,323.3,171.7,393,407.6,510.9l141.5-71.8Z" fill="#3f3d56"/><ellipse id="svg--team--phone_item-6" data-name="svg--team--phone  item-6" cx="493.9" cy="480.9" rx="14.5" ry="8.6" fill="#3f3d56"/><circle id="svg--team--phone_item-7" data-name="svg--team--phone  item-7" cx="229.9" cy="345.5" r="1.3" fill="#3f3d56"/><circle id="svg--team--phone_item-8" data-name="svg--team--phone  item-8" cx="225.9" cy="356" r="1.6" fill="#3f3d56"/><line id="svg--team--phone_item-9" data-name="svg--team--phone  item-9" x1="231.8" y1="353.3" x2="247.9" y2="345.8" fill="none" stroke="#3f3d56" stroke-miterlimit="10"/><path id="svg--team--phone_item--coral" data-name="svg--team--phone  item--coral" d="M463.3,431.5,402,460.9c-6.8,3.3-20,2.5-29.4-1.8h0c-9.5-4.2-11.6-10.3-4.8-13.6L429,416.1c6.8-3.3,20-2.5,29.4,1.8h0C467.9,422.1,470.1,428.2,463.3,431.5Z" fill="#f86d70"/><path id="svg--team--phone_item--grey--middle" data-name="svg--team--phone  item--grey--middle" d="M408.6,406.9l-61.2,29.4c-6.8,3.3-20,2.5-29.4-1.8h0c-9.5-4.2-11.6-10.3-4.8-13.6l61.2-29.4c6.8-3.3,20-2.5,29.4,1.8h0C413.2,397.6,415.4,403.7,408.6,406.9Z" fill="#4c5959"/><path id="svg--team--phone_item--grey--top" data-name="svg--team--phone  item--grey--top" d="M353.9,382.4l-61.2,29.4c-6.8,3.3-20,2.5-29.4-1.8h0c-9.5-4.2-11.6-10.3-4.8-13.6L319.7,367c6.8-3.3,20-2.5,29.4,1.8h0C358.6,373.1,360.7,379.2,353.9,382.4Z" fill="#4c5959"/></g></svg>