<svg id="svg--contact" xmlns="http://www.w3.org/2000/svg" viewBox="0 0 1046 729.85"><title>Artboard 1</title><g id="svg--contact--floor"><path id="Path_45" data-name="Path 45" d="M218.68,700.06c13.54,8.6,33-.1,46.68,8.37,3.52,2.18,6.36,5.39,10,7.37,4.37,2.39,9.51,2.82,14.48,3,41.62,1.61,83.94-10,124.52-.62,11.35,2.62,22.45,6.88,34.08,7.5,20.09,1.09,39.34-8.71,59.45-9.25,30.5-.82,60.47,19.59,89.9,11.54,9.68-2.65,18.56-8.3,28.55-9.25,11.13-1,21.83,3.85,32.65,6.68,38.37,10,78.33-6.2,118-7.41,25.87-.79,51.49,4.85,77.34,6.15,18.38.92,36.8-.37,55.16-1.65,7-.49,14.33-1.09,20.19-4.93s9.46-12.09,5.84-18.09Z" fill="#3f3d56"/><path id="Path_46" data-name="Path 46" d="M218.68,700.06c13.54,8.6,33-.1,46.68,8.37,3.52,2.18,6.36,5.39,10,7.37,4.37,2.39,9.51,2.82,14.48,3,41.62,1.61,83.94-10,124.52-.62,11.35,2.62,22.45,6.88,34.08,7.5,20.09,1.09,39.34-8.71,59.45-9.25,30.5-.82,60.47,19.59,89.9,11.54,9.68-2.65,18.56-8.3,28.55-9.25,11.13-1,21.83,3.85,32.65,6.68,38.37,10,78.33-6.2,118-7.41,25.87-.79,51.49,4.85,77.34,6.15,18.38.92,36.8-.37,55.16-1.65,7-.49,14.33-1.09,20.19-4.93s9.46-12.09,5.84-18.09Z" opacity="0.1" style="isolation:isolate"/><path id="Path_47" data-name="Path 47" d="M218.68,695.06c13.54,8.6,33-.1,46.68,8.37,3.52,2.18,6.36,5.39,10,7.37,4.37,2.39,9.51,2.82,14.48,3,41.62,1.61,83.94-10,124.52-.62,11.35,2.62,22.45,6.88,34.08,7.5,20.09,1.09,39.34-8.71,59.45-9.25,30.5-.82,60.47,19.59,89.9,11.54,9.68-2.65,18.56-8.3,28.55-9.25,11.13-1,21.83,3.85,32.65,6.68,38.37,10,78.33-6.2,118-7.41,25.87-.79,51.49,4.85,77.34,6.15,18.38.92,36.8-.37,55.16-1.65,7-.49,14.33-1.09,20.19-4.93s9.46-12.09,5.84-18.09Z" fill="#3f3d56"/></g><g id="svg--contact--bg"><path id="svg--contact--bg_item" data-name="svg--contact--bg  item" d="M417.15,93.3A246.62,246.62,0,0,0,120.81,59.93C215.79,93.93,320.59,95.18,417.15,93.3Z" fill="#eb7a6d" opacity="0.1" style="isolation:isolate"/><path id="svg--contact--bg_item-2" data-name="svg--contact--bg  item-2" d="M967.64,645.48,863.92,465.83a3.3,3.3,0,0,0-5.73,0L754.47,645.48a3.3,3.3,0,0,0,2.86,5h30.94a3.32,3.32,0,0,1,3.31,3.31v38.34a3.32,3.32,0,0,0,3.3,3.31h40.37a3.31,3.31,0,0,0,3.31-3.31V673.6a3.3,3.3,0,0,1,3.3-3.3h38.38a3.32,3.32,0,0,1,3.31,3.3v18.53a3.31,3.31,0,0,0,3.31,3.31h40.36a3.31,3.31,0,0,0,3.31-3.31V653.75a3.31,3.31,0,0,1,3.31-3.31h30.94a3.31,3.31,0,0,0,3.3-3.32h0a3.25,3.25,0,0,0-.44-1.64ZM823,665.36a3.34,3.34,0,0,1-2.34,1H806.13a3.31,3.31,0,0,1,0-6.62h14.57a3.31,3.31,0,0,1,2.34,5.65Zm95.28,0a3.34,3.34,0,0,1-2.34,1H901.42a3.31,3.31,0,0,1,0-6.62H916a3.31,3.31,0,0,1,2.34,5.65Z" fill="#eb7a6d" opacity="0.1" style="isolation:isolate"/><path id="svg--contact--bg_item-3" data-name="svg--contact--bg  item-3" d="M326.55,647.06,222.83,467.41a3.31,3.31,0,0,0-5.73,0L127.51,622.58A273.33,273.33,0,0,0,165,661.29h14.6a3.31,3.31,0,0,1,0,6.62h-6.17a161,161,0,0,0,24,14.93v-7.65a3.31,3.31,0,0,1,3.31-3.31h38.38a3.32,3.32,0,0,1,3.3,3.31v18.52a3.17,3.17,0,0,0,.31,1.39,3.3,3.3,0,0,0,3,1.92H286.1a3.34,3.34,0,0,0,3.3-3.33V655.34a3.31,3.31,0,0,1,3.31-3.31h30.94a3.31,3.31,0,0,0,2.89-5ZM258,662.26a3.34,3.34,0,0,1,2.34-1H274.9a3.31,3.31,0,0,1,0,6.62H260.33a3.31,3.31,0,0,1-2.34-5.65Zm-65.15-66.48a3.31,3.31,0,0,1-3.31-3.31V567.33a3.31,3.31,0,0,1,3.31-3.31H247.1a3.32,3.32,0,0,1,3.3,3.31v25.14a3.32,3.32,0,0,1-3.3,3.31Z" fill="#eb7a6d" opacity="0.1" style="isolation:isolate"/><path id="svg--contact--bg_item-4" data-name="svg--contact--bg  item-4" d="M736.53,324.34H608.18V296.58a6.64,6.64,0,0,0-6.64-6.64H563.85V260.37a4.18,4.18,0,0,0-4.18-4.18H511.12a4.18,4.18,0,0,0-4.18,4.18v29.56H462.63a6.64,6.64,0,0,0-6.64,6.64h0v27.76H333.6a1.36,1.36,0,0,0-1.34,1.35V694.21a1.36,1.36,0,0,0,1.34,1.35h81.34a1.34,1.34,0,0,0,1.35-1.33v-49.6a1.37,1.37,0,0,1,1.35-1.35H452a1.37,1.37,0,0,1,1.35,1.35v49.58a1.36,1.36,0,0,0,1.34,1.35H615.44a1.37,1.37,0,0,0,1.35-1.35V644.63a1.36,1.36,0,0,1,1.34-1.35h34.36a1.34,1.34,0,0,1,1.35,1.33v49.6a1.37,1.37,0,0,0,1.35,1.35h81.34a1.37,1.37,0,0,0,1.35-1.35V325.69a1.37,1.37,0,0,0-1.35-1.35ZM401.73,626.06a1.34,1.34,0,0,1-1.34,1.34H350.15a1.34,1.34,0,0,1-1.35-1.33h0V608.93a1.34,1.34,0,0,1,1.33-1.35h50.26a1.36,1.36,0,0,1,1.34,1.35Zm0-44.34a1.34,1.34,0,0,1-1.33,1.35H350.15a1.34,1.34,0,0,1-1.35-1.33h0V564.57a1.34,1.34,0,0,1,1.33-1.35h50.26a1.34,1.34,0,0,1,1.34,1.34h0Zm0-44.33a1.36,1.36,0,0,1-1.34,1.35H350.15a1.34,1.34,0,0,1-1.35-1.33V520.23a1.34,1.34,0,0,1,1.33-1.35h50.26a1.36,1.36,0,0,1,1.34,1.35Zm0-44.34a1.34,1.34,0,0,1-1.33,1.35H350.15a1.34,1.34,0,0,1-1.35-1.33h0V475.93a1.34,1.34,0,0,1,1.33-1.35h50.26a1.34,1.34,0,0,1,1.34,1.34h0Zm0-44.33a1.36,1.36,0,0,1-1.34,1.35H350.15a1.34,1.34,0,0,1-1.35-1.33V431.56a1.34,1.34,0,0,1,1.34-1.34h50.25a1.34,1.34,0,0,1,1.34,1.34h0Zm0-44.33a1.34,1.34,0,0,1-1.34,1.34H350.15a1.34,1.34,0,0,1-1.35-1.33h0V387.23a1.34,1.34,0,0,1,1.33-1.35h50.26a1.36,1.36,0,0,1,1.34,1.35Zm0-44.34a1.34,1.34,0,0,1-1.33,1.35H350.15a1.34,1.34,0,0,1-1.35-1.33h0V342.93a1.34,1.34,0,0,1,1.33-1.35h50.26a1.34,1.34,0,0,1,1.34,1.34h0Zm119.11,266a1.34,1.34,0,0,1-1.34,1.34H469.25a1.36,1.36,0,0,1-1.35-1.34V608.93a1.37,1.37,0,0,1,1.35-1.35h50.24a1.34,1.34,0,0,1,1.35,1.33v17.14Zm0-44.34a1.34,1.34,0,0,1-1.33,1.35H469.25a1.34,1.34,0,0,1-1.35-1.33V564.57a1.34,1.34,0,0,1,1.33-1.35h50.26a1.34,1.34,0,0,1,1.35,1.33h0v17.16Zm0-44.33a1.34,1.34,0,0,1-1.33,1.35H469.25a1.37,1.37,0,0,1-1.35-1.35V520.23a1.37,1.37,0,0,1,1.35-1.35h50.24a1.34,1.34,0,0,1,1.35,1.33v17.17Zm0-44.34a1.34,1.34,0,0,1-1.33,1.35H469.25a1.34,1.34,0,0,1-1.35-1.33V475.93a1.34,1.34,0,0,1,1.33-1.35h50.26a1.34,1.34,0,0,1,1.35,1.33h0V493Zm0-44.33a1.34,1.34,0,0,1-1.33,1.35H469.25a1.37,1.37,0,0,1-1.35-1.35V431.56a1.36,1.36,0,0,1,1.35-1.34h50.24a1.34,1.34,0,0,1,1.35,1.33h0Zm0-44.33a1.34,1.34,0,0,1-1.34,1.34H469.25a1.36,1.36,0,0,1-1.35-1.34V387.23a1.37,1.37,0,0,1,1.35-1.35h50.24a1.34,1.34,0,0,1,1.35,1.33v17.17Zm0-44.34a1.34,1.34,0,0,1-1.33,1.35H469.25a1.34,1.34,0,0,1-1.35-1.33V342.93a1.34,1.34,0,0,1,1.33-1.35h50.26a1.34,1.34,0,0,1,1.35,1.33h0V360Zm81.39,266a1.34,1.34,0,0,1-1.34,1.34H550.64a1.36,1.36,0,0,1-1.35-1.34V608.93a1.37,1.37,0,0,1,1.35-1.35h50.24a1.34,1.34,0,0,1,1.35,1.33V626Zm0-44.34a1.34,1.34,0,0,1-1.33,1.35H550.64a1.34,1.34,0,0,1-1.35-1.33V564.57a1.34,1.34,0,0,1,1.33-1.35h50.26a1.34,1.34,0,0,1,1.35,1.33h0V581.7Zm0-44.33a1.34,1.34,0,0,1-1.33,1.35H550.64a1.37,1.37,0,0,1-1.35-1.35V520.23a1.37,1.37,0,0,1,1.35-1.35h50.24a1.34,1.34,0,0,1,1.35,1.33v17.16Zm0-44.34a1.34,1.34,0,0,1-1.33,1.35H550.64a1.34,1.34,0,0,1-1.35-1.33V475.93a1.34,1.34,0,0,1,1.33-1.35h50.26a1.34,1.34,0,0,1,1.35,1.33h0V493Zm0-44.33a1.34,1.34,0,0,1-1.33,1.35H550.64a1.37,1.37,0,0,1-1.35-1.35V431.56a1.36,1.36,0,0,1,1.35-1.34h50.24a1.34,1.34,0,0,1,1.35,1.33h0Zm0-44.33a1.34,1.34,0,0,1-1.34,1.34H550.64a1.36,1.36,0,0,1-1.35-1.34V387.23a1.37,1.37,0,0,1,1.35-1.35h50.24a1.34,1.34,0,0,1,1.35,1.33v17.16Zm0-44.34a1.34,1.34,0,0,1-1.33,1.35H550.64a1.34,1.34,0,0,1-1.35-1.33V342.93a1.34,1.34,0,0,1,1.33-1.35h50.26a1.34,1.34,0,0,1,1.35,1.33h0V360ZM721.34,626a1.36,1.36,0,0,1-1.35,1.34H669.75A1.34,1.34,0,0,1,668.4,626h0V608.9a1.34,1.34,0,0,1,1.33-1.35H720a1.37,1.37,0,0,1,1.35,1.35Zm0-44.34A1.34,1.34,0,0,1,720,583H669.75a1.34,1.34,0,0,1-1.35-1.33h0v-17.1a1.34,1.34,0,0,1,1.33-1.35H720a1.34,1.34,0,0,1,1.35,1.33v17.11Zm0-44.33a1.37,1.37,0,0,1-1.35,1.35H669.75a1.34,1.34,0,0,1-1.35-1.33V520.23a1.34,1.34,0,0,1,1.33-1.35H720a1.37,1.37,0,0,1,1.35,1.35Zm0-44.34a1.34,1.34,0,0,1-1.33,1.35H669.75A1.34,1.34,0,0,1,668.4,493h0V475.93a1.34,1.34,0,0,1,1.33-1.35H720a1.34,1.34,0,0,1,1.35,1.33V493Zm0-44.33A1.38,1.38,0,0,1,720,450H669.75a1.34,1.34,0,0,1-1.35-1.33V431.56a1.34,1.34,0,0,1,1.34-1.34H720a1.36,1.36,0,0,1,1.35,1.34Zm0-44.33A1.34,1.34,0,0,1,720,405.7H669.75a1.34,1.34,0,0,1-1.35-1.33h0V387.23a1.34,1.34,0,0,1,1.33-1.35H720a1.37,1.37,0,0,1,1.35,1.35Zm0-44.34a1.34,1.34,0,0,1-1.33,1.35H669.75A1.34,1.34,0,0,1,668.4,360h0V342.93a1.34,1.34,0,0,1,1.33-1.35H720a1.34,1.34,0,0,1,1.35,1.33V360Z" fill="#eb7a6d" opacity="0.1" style="isolation:isolate"/><g id="svg--contact--bg_cloud--one" data-name="svg--contact--bg  cloud--one"><path id="svg--contact--bg_cloud--three_one" data-name="svg--contact--bg  cloud--three  one" d="M371,224.46a28.86,28.86,0,0,0-16.77,1.82,24.72,24.72,0,0,1-20.23-.05,28.24,28.24,0,0,0-23.68.47,14.72,14.72,0,0,1-6.82,1.7c-9.6,0-17.59-9.67-19.25-22.43a18.34,18.34,0,0,0,4.8-5.17c5.63-9.07,14.35-14.9,24.14-14.9s18.4,5.76,24,14.73a18.54,18.54,0,0,0,15.95,8.76h.25C361.11,209.39,367.73,215.52,371,224.46Z" fill="#eb7a6d" opacity="0.1" style="isolation:isolate"/><path id="svg--contact--bg_cloud--three_one-2" data-name="svg--contact--bg  cloud--three  one-2" d="M400.2,184.41l-15.52,9.84,9.42-17.13a15.34,15.34,0,0,0-9.39-3.35h-.25a17.33,17.33,0,0,1-3.22-.24L376,176.87l2.26-4.1a18.66,18.66,0,0,1-9.2-7l-9.42,6,5.93-10.84c-5.51-6.61-12.93-10.66-21.09-10.66-9.79,0-18.51,5.82-24.14,14.89a18,18,0,0,1-16,8.61h-.53c-10.81,0-19.57,12.25-19.57,27.37s8.76,27.37,19.57,27.37a14.61,14.61,0,0,0,6.82-1.71,28.2,28.2,0,0,1,23.68-.46,24.71,24.71,0,0,0,20.14,0,28.19,28.19,0,0,1,23.48.45,14.65,14.65,0,0,0,6.74,1.67c10.81,0,19.57-12.26,19.57-27.37a34.72,34.72,0,0,0-4-16.68Z" fill="#eb7a6d" opacity="0.1" style="isolation:isolate"/></g><g id="svg--contact--bg_cloud--three" data-name="svg--contact--bg  cloud--three"><path id="svg--contact--bg_cloud--three_item" data-name="svg--contact--bg  cloud--three  item" d="M832,406.93a20.27,20.27,0,0,0-11.74,1.27,17.24,17.24,0,0,1-14.1,0,19.73,19.73,0,0,0-16.58.33,10.31,10.31,0,0,1-4.77,1.19c-6.72,0-12.31-6.77-13.47-15.7a13,13,0,0,0,3.36-3.62c3.94-6.35,10-10.43,16.89-10.43s12.89,4,16.83,10.31a13,13,0,0,0,11.16,6.13h.18C825.06,396.39,829.69,400.68,832,406.93Z" fill="#eb7a6d" opacity="0.1" style="isolation:isolate"/><path id="svg--contact--bg_cloud--three_item-2" data-name="svg--contact--bg  cloud--three  item-2" d="M852.42,378.93l-10.86,6.89,6.59-12a10.75,10.75,0,0,0-6.57-2.34h-.17a13,13,0,0,1-2.25-.17l-3.69,2.33,1.58-2.86a13.26,13.26,0,0,1-6.44-4.89L824,370.05l4.16-7.57c-3.85-4.63-9-7.47-14.76-7.47-6.85,0-13,4.08-16.9,10.43a12.63,12.63,0,0,1-11.17,6H785c-7.56,0-13.7,8.57-13.7,19.15s6.14,19.16,13.7,19.16a10.31,10.31,0,0,0,4.77-1.19,19.7,19.7,0,0,1,16.58-.32,17.4,17.4,0,0,0,14.1,0,19.72,19.72,0,0,1,16.43.32,10.35,10.35,0,0,0,4.72,1.16c7.57,0,13.7-8.57,13.7-19.16A24.43,24.43,0,0,0,852.42,378.93Z" fill="#eb7a6d" opacity="0.1" style="isolation:isolate"/></g><g id="svg--contact--bg_cloud--two" data-name="svg--contact--bg  cloud--two"><path id="svg--contact--bg_cloud--two_item" data-name="svg--contact--bg  cloud--two  item" d="M238.62,342.93a20.27,20.27,0,0,1,11.74,1.27,17.22,17.22,0,0,0,14.09,0,19.73,19.73,0,0,1,16.58.33,10.31,10.31,0,0,0,4.77,1.19c6.72,0,12.32-6.77,13.48-15.7a13,13,0,0,1-3.36-3.62C292,320,285.87,315.93,279,315.93s-12.88,4-16.82,10.31A13,13,0,0,1,251,332.39h-.17C245.51,332.39,240.87,336.68,238.62,342.93Z" fill="#eb7a6d" opacity="0.1" style="isolation:isolate"/><path id="svg--contact--bg_cloud--two_item-2" data-name="svg--contact--bg  cloud--two  item-2" d="M218.14,314.93,229,321.79l-6.6-12a10.75,10.75,0,0,1,6.57-2.34h.18a13,13,0,0,0,2.25-.17l3.68,2.33-1.58-2.86a13.28,13.28,0,0,0,6.45-4.89l6.59,4.18-4.17-7.57c3.86-4.63,9-7.47,14.77-7.47,6.85,0,13,4.08,16.9,10.43a12.63,12.63,0,0,0,11.17,6h.36c7.57,0,13.7,8.57,13.7,19.15s-6.13,19.16-13.7,19.16a10.43,10.43,0,0,1-4.77-1.19,19.7,19.7,0,0,0-16.58-.32,17.37,17.37,0,0,1-14.09,0,19.75,19.75,0,0,0-16.44.32,10.35,10.35,0,0,1-4.72,1.16c-7.56,0-13.7-8.57-13.7-19.16A24.27,24.27,0,0,1,218.14,314.93Z" fill="#eb7a6d" opacity="0.1" style="isolation:isolate"/></g><g id="svg--contact--bg_tree--one" data-name="svg--contact--bg  tree--one" opacity="0.1"><path id="svg--contact--bg_tree--one_item" data-name="svg--contact--bg  tree--one  item" d="M122.35,571.86a24.44,24.44,0,0,1-3.23,12.38,25.32,25.32,0,0,1,0,24.76,22.4,22.4,0,0,1,2.44,6,453.67,453.67,0,0,1-30.09-45h0a24,24,0,0,1,3.16-10.56,24.44,24.44,0,0,1-3.23-12.38,25.5,25.5,0,0,1,1.46-8.61,22,22,0,0,1,1.77-3.77c2.82-4.79,7.26-7.88,12.24-7.88s9.43,3.09,12.25,7.88a21.38,21.38,0,0,1,1.73,3.65,25.73,25.73,0,0,1,1.5,8.73,24.44,24.44,0,0,1-3.23,12.38A24.48,24.48,0,0,1,122.35,571.86Z" fill="#3f3d56"/><ellipse id="svg--contact--bg_tree--one_item-2" data-name="svg--contact--bg  tree--one  item-2" cx="106.87" cy="522.35" rx="15.47" ry="20.26" fill="#3f3d56"/><ellipse id="svg--contact--bg_tree--one_item-3" data-name="svg--contact--bg  tree--one  item-3" cx="106.87" cy="497.59" rx="15.47" ry="20.26" fill="#3f3d56"/><path id="svg--contact--bg_tree--one_item-4" data-name="svg--contact--bg  tree--one  item-4" d="M180.67,373.93a73.77,73.77,0,0,1-15.87,45.83,74.13,74.13,0,0,1-44,118.57c-1.78.36-3.59.64-5.42.86a74.35,74.35,0,0,1-17,.09q-2.82-.3-5.57-.83a73.32,73.32,0,0,1-23-8.41A739.14,739.14,0,0,1,35,446.25,73.88,73.88,0,0,1,48.29,419.8a74.19,74.19,0,0,1-12-69.61l56.28,18.89L39.79,341.66a74.16,74.16,0,0,1,8.45-13.52,74.13,74.13,0,1,1,122.43-82.95l-54.41,40,59-30.6a74.24,74.24,0,0,1-1.42,58.73l-44-.33,40.66,6.68a72.76,72.76,0,0,1-5.77,8.48A73.8,73.8,0,0,1,180.67,373.93Z" fill="#eb7a6d"/><path id="svg--contact--bg_tree--one_item-5" data-name="svg--contact--bg  tree--one  item-5" d="M180.67,465.63a74.15,74.15,0,0,1-59.81,72.74c-1.79.36-3.6.64-5.43.86a74.35,74.35,0,0,1-17,.09q-2.82-.3-5.57-.83a73.32,73.32,0,0,1-23-8.41A738.22,738.22,0,0,1,35,446.25,73.88,73.88,0,0,1,48.29,419.8a73.82,73.82,0,0,1-15.87-45.87c0-8.32,142.32,33.22,132.38,45.83A73.82,73.82,0,0,1,180.67,465.63Z" opacity="0.1" style="isolation:isolate"/></g><g id="svg--contact--bg_tree--two" data-name="svg--contact--bg  tree--two" opacity="0.1"><path id="svg--contact--bg_tree--two_item" data-name="svg--contact--bg  tree--two  item" d="M1014.9,552.58c-2.9,9.26-6,18.45-9.18,27.43a25.75,25.75,0,0,1-1.32-8.21C1004.4,562.87,1008.8,555.29,1014.9,552.58Z" fill="#3f3d56"/><path id="svg--contact--bg_tree--two_item-2" data-name="svg--contact--bg  tree--two  item-2" d="M1046,393c0,17.55-3.54,45.28-10,77a847.23,847.23,0,0,1-21.15,82.56c-2.9,9.26-6,18.45-9.18,27.43-3.65,10.2-7.5,20.12-11.53,29.61a74.41,74.41,0,0,1-32.91-115.77,74.49,74.49,0,0,1-12-69.76L1005.51,443l-52.78-27.48A74.16,74.16,0,0,1,961.18,402,74.39,74.39,0,0,1,990.3,287.74a127.51,127.51,0,0,1,48.75,63.93l-9.75,7.26,10.46-5.43a126.7,126.7,0,0,1,6.09,33.31h-2.94l3,.49C1046,389.19,1046,391.09,1046,393Z" fill="#eb7a6d"/><path id="svg--contact--bg_tree--two_item-3" data-name="svg--contact--bg  tree--two  item-3" d="M1036.05,470a847.23,847.23,0,0,1-21.15,82.56c-2.9,9.26-6,18.45-9.18,27.43-3.65,10.2-7.5,20.12-11.53,29.61a74.41,74.41,0,0,1-32.91-115.77,74.11,74.11,0,0,1-15.86-45.92C945.42,442.93,997.14,456,1036.05,470Z" opacity="0.1" style="isolation:isolate"/></g><path id="svg--contact--bg_item-5" data-name="svg--contact--bg  item-5" d="M1045.87,387.28v-.47a126.7,126.7,0,0,0-6.09-33.31c-.2-.61-.4-1.23-.61-1.83a126.94,126.94,0,0,0-214.91-43.39,179.11,179.11,0,0,0-10.11-35.47,569.77,569.77,0,0,1-100.63,3.75,405.93,405.93,0,0,0,63.8,23.17l-.78,2.9a410.32,410.32,0,0,1-71.32-26.7l-6.91-3.35,7.66.5A568.89,568.89,0,0,0,813,270a180.61,180.61,0,0,0-31.52-50.08c-57.56-5.8-114.67-17.88-168-41.83l1.23-2.73c51.91,23.33,107.54,35.32,163.7,41.22A179.74,179.74,0,0,0,492.65,247a246.93,246.93,0,0,0-61.24-138.9,576,576,0,0,1-94.77,28.71A573,573,0,0,1,188.5,148.56a405.93,405.93,0,0,0,63.8,23.17l-.78,2.9a410.43,410.43,0,0,1-71.3-26.7l-6.91-3.35,7.66.5a569.22,569.22,0,0,0,248.36-39.35q-4.45-4.87-9.16-9.52c-98.42,2-205.61,1-302.65-34.33A247.53,247.53,0,0,0,0,272.75C0,319.21,12.77,383.1,35,447.2a741.09,741.09,0,0,0,34.91,84c6.79,13.8,14,27.21,21.57,40h0a456.61,456.61,0,0,0,30.09,45q2.94,3.87,6,7.6A274.42,274.42,0,0,0,165,662.72h0q4.17,3.48,8.39,6.63a159.64,159.64,0,0,0,24,15c14.67,7.35,29.81,11.66,45.3,12.28,1.24,0,2.49.08,3.73.08v.51h672v-.51h.5a33.84,33.84,0,0,0,11.36-2c23.76-8.43,45.64-42.28,63.83-85.06,4-9.49,7.88-19.41,11.53-29.61,3.22-9,6.28-18.17,9.18-27.43A847.38,847.38,0,0,0,1036,470.05c6.41-31.72,10-59.45,10-77C1046,391.09,1046,389.19,1045.87,387.28Z" fill="#eb7a6d" opacity="0.1" style="isolation:isolate"/></g><g id="svg--contact--stone"><path id="Path_55" data-name="Path 55" d="M334.06,667.79l19.14-11.26a46.09,46.09,0,0,0-9.79-11.71L307.3,656.05l28.3-16.63a46,46,0,0,0-68.1,40.35c0,25.4,20.59,26.28,46,26.28s46-.88,46-26.28a45.85,45.85,0,0,0-3.95-18.67Z" fill="#eb7a6d"/><path id="Path_56" data-name="Path 56" d="M338.93,692.48a35.59,35.59,0,0,0-6.78-5.32c-3.48-2.31-7.07-4.67-11.17-5.45-3.6-.69-7.31-.11-11-.32a25.64,25.64,0,0,1-16.81-7.7c-2.61-2.7-4.67-6-7.81-8.09-3.39-2.22-7.69-2.7-11.71-2.15a29.07,29.07,0,0,0-3.46.71,45.68,45.68,0,0,0-2.72,15.61c0,25.4,20.59,26.28,46,26.28,12.33,0,23.52-.21,31.78-3.32l-1.38-2.58a36.64,36.64,0,0,0-4.94-7.67Z" opacity="0.1" style="isolation:isolate"/></g><g id="svg--contact--woman"><circle id="svg--contact--woman_item" data-name="svg--contact--woman  item" cx="547.34" cy="185.77" r="35.75" fill="#3f3d56"/><path id="svg--contact--woman_item-2" data-name="svg--contact--woman  item-2" d="M526.6,463.87c3.69,25.89-.81,52.29-7.82,77.48-1.31,4.69-2.72,9.42-5.17,13.63s-5.86,7.83-8.74,11.79c-6,8.26-9.52,18-12.81,27.64a779,779,0,0,0-22.82,81.32,5.56,5.56,0,0,0,0,3.47c.87,2,3.51,2.26,5.68,2.25L503,681.3c1-1.92-.85-4-2-5.84-4-6.22-.16-14.3,3.37-20.81a223.74,223.74,0,0,0,19.78-50c1.92-7.33,3.48-14.82,6.6-21.73,3.77-8.38,9.68-15.59,14.48-23.43,5.58-9.11,9.65-19,13.69-28.93,5.64-13.78,11.33-27.73,13.55-42.45,2.09-13.82,1.06-27.9-.3-41.81a2.63,2.63,0,0,0-2.21-3,2.43,2.43,0,0,0-.85,0l-37.65-1.94c-7.76-.4-9.6-2.1-8.42,5.52C523.84,452.57,525.78,458.11,526.6,463.87Z" fill="#3f3d56"/><path id="svg--contact--woman_item-3" data-name="svg--contact--woman  item-3" d="M526.6,463.87c3.69,25.89-.81,52.29-7.82,77.48-1.31,4.69-2.72,9.42-5.17,13.63s-5.86,7.83-8.74,11.79c-6,8.26-9.52,18-12.81,27.64a779,779,0,0,0-22.82,81.32,5.56,5.56,0,0,0,0,3.47c.87,2,3.51,2.26,5.68,2.25L503,681.3c1-1.92-.85-4-2-5.84-4-6.22-.16-14.3,3.37-20.81a223.74,223.74,0,0,0,19.78-50c1.92-7.33,3.48-14.82,6.6-21.73,3.77-8.38,9.68-15.59,14.48-23.43,5.58-9.11,9.65-19,13.69-28.93,5.64-13.78,11.33-27.73,13.55-42.45,2.09-13.82,1.06-27.9-.3-41.81a2.63,2.63,0,0,0-2.21-3,2.43,2.43,0,0,0-.85,0l-37.65-1.94c-7.76-.4-9.6-2.1-8.42,5.52C523.84,452.57,525.78,458.11,526.6,463.87Z" opacity="0.1" style="isolation:isolate"/><path id="svg--contact--woman_item-4" data-name="svg--contact--woman  item-4" d="M534,400.93c-7.65,11-15.67,23.66-13.13,36.83,1.93,10,9.55,17.75,16.74,25,28.74,28.86,57,60.92,66.78,100.47,2.52,10.22,3.74,20.71,5.91,31,3.94,18.7,11,36.58,18,54.35l18.76,47.35a28.36,28.36,0,0,0,27.1-18c-2.46-.19-5.67-2.57-7.11-4.57-8-11.07-9.64-25.31-11.69-38.81-2.27-14.92-5.3-29.72-8.34-44.51L633.58,524.6c-1.55-7.55-3.1-15.11-5.12-22.55-7.82-28.82-22.64-56-24.93-85.8-.34-4.38-.55-9.19-3.52-12.44-3.12-3.43-8.24-4-12.87-4.27C568.41,398.34,552.25,396.51,534,400.93Z" fill="#3f3d56"/><path id="svg--contact--woman_item-5" data-name="svg--contact--woman  item-5" d="M483.47,675.06a30.28,30.28,0,0,0-6.22-.8,12.91,12.91,0,0,0-10.16,5.55,25,25,0,0,0-2.73,6l-2.71,7.78c-.8,2.28-1.58,4.91-.39,7a7.45,7.45,0,0,0,3.64,2.81c6.56,2.92,14,3.08,21.1,3.78,6.94.68,13.82,1.9,20.67,3.18,2.36.45,4.71.9,7.1,1.14,5.34.54,10.72,0,16.06-.48l5.51-.53a20,20,0,0,0,5.42-1,6.84,6.84,0,0,0,4-3.59c1.36-3.37-1.56-7.36-5.13-8.06-1.45-.28-3-.15-4.42-.34a20.93,20.93,0,0,1-4.84-1.45c-7-2.77-14.17-5.57-20.37-9.93-1.72-1.21-3.52-2.9-3.33-5a10.31,10.31,0,0,1,.89-2.59,9.46,9.46,0,0,0,.08-6.69c-.34-.92-1-1.89-1.93-2-2.64-.32-2.32,3.53-2.71,5-.53,2-1.49,2.18-3.37,2C494.23,676.35,488.83,676.08,483.47,675.06Z" fill="#f2f2f2"/><path id="svg--contact--woman_item-6" data-name="svg--contact--woman  item-6" d="M641.34,701.93a17.64,17.64,0,0,0,3.82,10.75,8.38,8.38,0,0,0,2.72,2.19,11,11,0,0,0,5,.79,40.1,40.1,0,0,0,13.89-2.81,39.08,39.08,0,0,1,4.8-1.81,54.51,54.51,0,0,1,6.24-.9c8.27-1.19,15.53-6.07,23.52-8.54a49,49,0,0,0,7-2.3c3.16-1.49,5.72-4,8.23-6.43a19.81,19.81,0,0,0,3.78-4.53c1.47-2.73,1.56-6,1.62-9.09a2.64,2.64,0,0,0-.24-1.41,2.09,2.09,0,0,0-.9-.71c-2.43-1.2-5.31-.6-8-.13-9.72,1.73-19.67,1.41-29.54,1.09a4.29,4.29,0,0,1-4.54-2.59l-3.75-6c-1.07-1.72-2.77-3.69-4.71-3.1-1.55.47-2.18,2.37-2.12,4s.56,3.25.25,4.84a6.61,6.61,0,0,1-3.2,4.16,20.51,20.51,0,0,1-5,1.92c-5.52,1.56-11.94,3.33-16.21,7.39C640.86,691.59,641.15,698,641.34,701.93Z" fill="#f2f2f2"/><path id="svg--contact--woman_item-7" data-name="svg--contact--woman  item-7" d="M639.4,305.19a23.4,23.4,0,0,0,5.46-5.94,24.07,24.07,0,0,0,2.33-8.21l1.57-9.92c.87-5.47,1.89-11.26,5.54-15.43s10.92-5.66,14.63-1.54c1.62,1.79,2.26,4.25,2.66,6.64a48.33,48.33,0,0,1-11.82,40c-4.49,4.92-10,8.83-14.75,13.48-4.14,4-7.73,8.59-11.55,12.94A159.58,159.58,0,0,1,602,364.71c.14-7.44,1.09-15.42,0-22.81-.81-5.34-3-8.22,2.17-11.71C616.17,322,628.28,314.65,639.4,305.19Z" fill="#fbbebe"/><path id="svg--contact--woman_item-8" data-name="svg--contact--woman  item-8" d="M538.56,232c-.39,5.32-2.6,10.76-7,13.83q18.69,6.54,36.87,14.42c-2.34-2.25-3-5.7-3.16-8.94-.31-8.47,2.62-16.8,6.9-24.1A5.91,5.91,0,0,0,573.3,224c-.14-2.36-2.94-3.45-5.24-4a128.86,128.86,0,0,0-23.92-3.47c-3.45-.11-7.54-1.2-6.76,3.19C538.12,223.86,538.87,227.86,538.56,232Z" fill="#fbbebe"/><circle id="svg--contact--woman_item-9" data-name="svg--contact--woman  item-9" cx="562.66" cy="205.63" r="29.23" fill="#fbbebe"/><path id="svg--contact--woman_item-10" data-name="svg--contact--woman  item-10" d="M591.6,284.58a34.89,34.89,0,0,0-3.71-6.22c-5.3-7.61-10.74-15.21-17.54-21.51a109.5,109.5,0,0,0-16.65-12.23,37.79,37.79,0,0,0-10.42-5,40.77,40.77,0,0,0-6.69-.91l-7.59-.62a6.1,6.1,0,0,0-2,.06c-2.06.52-3,3.08-2.56,5.15s2,3.75,3.38,5.32c.34,15.49-6.55,30.77-7.48,46.24-1.63,27.05,14.88,52.21,16.2,79.28a8.44,8.44,0,0,1-.38,3.63c-.22.56-.55,1.07-.8,1.62-.78,1.7-.75,3.63-.89,5.5a27.94,27.94,0,0,1-8.23,17.62,12.23,12.23,0,0,0,4.64,3.54c3.19,1.39,7,1.51,10.39,2.48,8.84,2.58,17.9,5.18,27.09,4.63a23.9,23.9,0,0,0,2.09-7.87c1.3-.81,2.8.92,3,2.44s-.09,3.29,1,4.39,2.47.93,3.8.76c5.61-.71,11-2.6,16.5-3.87s11.38-1.88,16.73-.06c1.08-1.37.62-3.4-.26-4.9s-2.13-2.82-2.63-4.49a10.12,10.12,0,0,1-.32-2.95c0-8.55,1.76-17.19.09-25.58-.49-2.46-1.27-4.86-1.77-7.33-1-4.79-.85-9.73-.72-14.62s-.46-10.18-.56-15.14a48.29,48.29,0,0,0-.4-6.13c-.34-2.13-1-4.21-1.18-6.36-.54-5.46,1.66-10.88,1.33-16.36C604.51,296.77,594.84,292.25,591.6,284.58Z" fill="#ff6f61"/><path id="svg--contact--woman_item-11" data-name="svg--contact--woman  item-11" d="M525.63,280.66c-7.08,18.78-10.54,38.7-14,58.48l-8,46.46c-2.27,13.13-4.55,26.34-4.46,39.66,0,3.74.24,7.55-.74,11.16-1.28,4.74-4.46,8.69-6.87,13a42.78,42.78,0,0,0-4.6,28.93c.82,4.15,3.06,8.86,7.27,9.34,3.46.38,6.45-2.37,8.47-5.21,4.64-6.51,6.94-14.37,9-22.11a500.11,500.11,0,0,0,13.87-77.09,75.3,75.3,0,0,1,1.39-9.8,68.66,68.66,0,0,1,3.38-9.76q4.59-11.39,9.19-22.76c7.07-17.53,14.18-35.14,23.89-51.36-9.6-2.76-19.59-6-29.19-8.73C531.46,280.05,528.49,280.54,525.63,280.66Z" fill="#fbbebe"/><path id="svg--contact--woman_item-12" data-name="svg--contact--woman  item-12" d="M542.27,294.93c-6.72-1.45-13.67-1-20.53-1.17A4.46,4.46,0,0,1,519,293c-1.39-1.19-.8-3.42-.1-5.11l3.32-8a11.51,11.51,0,0,1,2.66-4.42c1.69-1.5,4.07-1.87,6.31-2.14,7.29-.84,14.79-1.12,21.86.85s13.72,6.45,16.88,13.08c1.32,2.76,1.93,6.24.18,8.75-2.6,3.73-8.43,7.9-12.78,5.86C552.1,299.44,548.11,296.17,542.27,294.93Z" fill="#ff6f61"/><path id="svg--contact--woman_item-13" data-name="svg--contact--woman  item-13" d="M578,160.23a29.52,29.52,0,0,0-16.3,4.7,35.75,35.75,0,0,0-35.1-8.22A20.43,20.43,0,1,0,503,180.35a35.75,35.75,0,0,0,68.62,20.09,32.12,32.12,0,0,0,6.41.65c14.1,0,25.54-9.15,25.54-20.43S592.08,160.23,578,160.23Z" fill="#3f3d56"/><path id="svg--contact--woman_item-14" data-name="svg--contact--woman  item-14" d="M583.09,190.87a30.71,30.71,0,0,1-6.41-.65A35.48,35.48,0,0,1,572,200.51a31.85,31.85,0,0,0,6,.58c13.18,0,24-8,25.39-18.24C598.7,187.73,591.35,190.87,583.09,190.87Z" opacity="0.1" style="isolation:isolate"/><path id="svg--contact--woman_item-15" data-name="svg--contact--woman  item-15" d="M542.23,216.41a35.8,35.8,0,0,1-34.18-46.28,20.43,20.43,0,0,1-16.58-23.66l0-.12a20.43,20.43,0,0,0,11.46,34,35.75,35.75,0,0,0,68.05,22c0-.14.09-.28.13-.42a1.28,1.28,0,0,1,.11-.35A35.66,35.66,0,0,1,542.23,216.41Z" opacity="0.1" style="isolation:isolate"/></g><g id="svg--contact--phone"><path id="svg--contact--phone_item" data-name="svg--contact--phone  item" d="M672.56,276.22h0a.31.31,0,0,1,.09.44v0l-2.83,4a.35.35,0,0,1-.47.08h0a.35.35,0,0,1-.08-.47l2.83-4A.34.34,0,0,1,672.56,276.22Z" fill="#3a3768"/><path id="svg--contact--phone_item-2" data-name="svg--contact--phone  item-2" d="M656.79,259.62h0a.2.2,0,0,1,0,.27l-.83,1.17a.19.19,0,0,1-.27,0h0a.19.19,0,0,1,0-.26l.83-1.17a.19.19,0,0,1,.27,0Z" fill="#3a3768"/><path id="svg--contact--phone_item-3" data-name="svg--contact--phone  item-3" d="M654.84,262.36h0a.2.2,0,0,1,0,.28h0l-1.6,2.24a.22.22,0,0,1-.29.05h0a.22.22,0,0,1,0-.3l1.6-2.24A.21.21,0,0,1,654.84,262.36Z" fill="#3a3768"/><path id="svg--contact--phone_item-4" data-name="svg--contact--phone  item-4" d="M652.36,265.84h0a.21.21,0,0,1,0,.28l-1.63,2.28a.2.2,0,0,1-.28.05h0a.19.19,0,0,1,0-.28l1.62-2.28A.21.21,0,0,1,652.36,265.84Z" fill="#3a3768"/><rect id="svg--contact--phone_item-5" data-name="svg--contact--phone  item-5" x="634.28" y="270.51" width="45.69" height="22.48" rx="2.52" transform="translate(46.03 652.9) rotate(-54.48)" fill="#3a3768"/><rect id="svg--contact--phone_item-6" data-name="svg--contact--phone  item-6" x="634.28" y="270.51" width="45.69" height="22.48" rx="2.52" transform="translate(46.03 652.9) rotate(-54.48)" opacity="0.1" style="isolation:isolate"/><rect id="svg--contact--phone_item-7" data-name="svg--contact--phone  item-7" x="633.35" y="268.65" width="45.69" height="22.48" rx="2.52" transform="translate(47.15 651.36) rotate(-54.48)" fill="#3a3768"/><path id="svg--contact--phone_item-8" data-name="svg--contact--phone  item-8" d="M675.28,266.93l-2.09-1.5-.18.25a1.46,1.46,0,0,1-2,.35l-6.68-4.77a1.47,1.47,0,0,1-.34-2.05l.18-.25-2-1.4a1.79,1.79,0,0,0-2.48.4h0L636.6,290.32a1.79,1.79,0,0,0,.41,2.49l13.14,9.37a1.78,1.78,0,0,0,2.48-.41h0l23.08-32.34a1.77,1.77,0,0,0-.41-2.47h0Z" fill="#eb7a6d"/><path id="svg--contact--phone_item-9" data-name="svg--contact--phone  item-9" d="M667.16,261.31l2,1.45a.33.33,0,0,1,.08.45h0a.32.32,0,0,1-.45.07h0l-2-1.45a.32.32,0,0,1-.07-.44h0A.32.32,0,0,1,667.16,261.31Z" fill="#e6e8ec"/><circle id="svg--contact--phone_item-10" data-name="svg--contact--phone  item-10" cx="669.9" cy="263.72" r="0.36" fill="#e6e8ec"/></g><g id="svg--contact--marker"><path id="svg--contact--marker_item" data-name="svg--contact--marker  item" d="M670,13.93a67,67,0,0,0-67,67c0,37,70.2,159.54,70.2,159.54S737,118,737,80.93A67,67,0,0,0,670,13.93Z" fill="#eb7a6d"/><path id="svg--contact--marker_item-2" data-name="svg--contact--marker  item-2" d="M670,13.93a67,67,0,0,0-67,67c0,37,70.2,159.54,70.2,159.54S737,118,737,80.93A67,67,0,0,0,670,13.93Z" opacity="0.1" style="isolation:isolate"/><path id="svg--contact--marker_item-3" data-name="svg--contact--marker  item-3" d="M670,0a67,67,0,0,0-67,67h0c0,37,70.2,173.5,70.2,173.5S737,104,737,67A67,67,0,0,0,670,0Zm0,111.68a35.1,35.1,0,1,1,35.1-35.1h0A35.09,35.09,0,0,1,670,111.68Z" fill="#eb7a6d"/></g></svg>